%TF.GenerationSoftware,KiCad,Pcbnew,7.0.9*%
%TF.CreationDate,2023-12-24T18:07:12-08:00*%
%TF.ProjectId,RatatoulliBoard,52617461-746f-4756-9c6c-69426f617264,rev?*%
%TF.SameCoordinates,Original*%
%TF.FileFunction,Paste,Top*%
%TF.FilePolarity,Positive*%
%FSLAX46Y46*%
G04 Gerber Fmt 4.6, Leading zero omitted, Abs format (unit mm)*
G04 Created by KiCad (PCBNEW 7.0.9) date 2023-12-24 18:07:12*
%MOMM*%
%LPD*%
G01*
G04 APERTURE LIST*
G04 Aperture macros list*
%AMRoundRect*
0 Rectangle with rounded corners*
0 $1 Rounding radius*
0 $2 $3 $4 $5 $6 $7 $8 $9 X,Y pos of 4 corners*
0 Add a 4 corners polygon primitive as box body*
4,1,4,$2,$3,$4,$5,$6,$7,$8,$9,$2,$3,0*
0 Add four circle primitives for the rounded corners*
1,1,$1+$1,$2,$3*
1,1,$1+$1,$4,$5*
1,1,$1+$1,$6,$7*
1,1,$1+$1,$8,$9*
0 Add four rect primitives between the rounded corners*
20,1,$1+$1,$2,$3,$4,$5,0*
20,1,$1+$1,$4,$5,$6,$7,0*
20,1,$1+$1,$6,$7,$8,$9,0*
20,1,$1+$1,$8,$9,$2,$3,0*%
G04 Aperture macros list end*
%ADD10RoundRect,0.243750X-0.243750X-0.456250X0.243750X-0.456250X0.243750X0.456250X-0.243750X0.456250X0*%
%ADD11R,1.550000X1.300000*%
%ADD12R,1.300000X1.700000*%
%ADD13RoundRect,0.225000X-0.225000X-0.250000X0.225000X-0.250000X0.225000X0.250000X-0.225000X0.250000X0*%
%ADD14RoundRect,0.150000X-0.625000X0.150000X-0.625000X-0.150000X0.625000X-0.150000X0.625000X0.150000X0*%
%ADD15RoundRect,0.250000X-0.650000X0.350000X-0.650000X-0.350000X0.650000X-0.350000X0.650000X0.350000X0*%
%ADD16RoundRect,0.250000X-0.250000X-0.475000X0.250000X-0.475000X0.250000X0.475000X-0.250000X0.475000X0*%
%ADD17RoundRect,0.150000X0.625000X-0.150000X0.625000X0.150000X-0.625000X0.150000X-0.625000X-0.150000X0*%
%ADD18RoundRect,0.250000X0.650000X-0.350000X0.650000X0.350000X-0.650000X0.350000X-0.650000X-0.350000X0*%
%ADD19RoundRect,0.250000X0.250000X0.475000X-0.250000X0.475000X-0.250000X-0.475000X0.250000X-0.475000X0*%
%ADD20R,0.475000X0.300000*%
%ADD21R,2.200000X2.150000*%
%ADD22RoundRect,0.230000X-0.230000X-0.375000X0.230000X-0.375000X0.230000X0.375000X-0.230000X0.375000X0*%
%ADD23RoundRect,0.150000X-0.825000X-0.150000X0.825000X-0.150000X0.825000X0.150000X-0.825000X0.150000X0*%
%ADD24R,1.120000X2.440000*%
G04 APERTURE END LIST*
D10*
%TO.C,R9*%
X81255000Y-78740000D03*
X83130000Y-78740000D03*
%TD*%
D11*
%TO.C,SW2*%
X73106597Y-41131005D03*
X81066597Y-41131005D03*
X81066597Y-45631005D03*
X73106597Y-45631005D03*
D12*
X77086597Y-47471005D03*
%TD*%
D13*
%TO.C,D4*%
X75062507Y-83059706D03*
X76612507Y-83059706D03*
%TD*%
D14*
%TO.C,J5*%
X43814768Y-67508518D03*
X43814768Y-68508518D03*
X43814768Y-69508518D03*
X43814768Y-70508518D03*
D15*
X39939768Y-66208518D03*
X39939768Y-71808518D03*
%TD*%
D16*
%TO.C,C3*%
X122511384Y-63939313D03*
X124411384Y-63939313D03*
%TD*%
%TO.C,C1*%
X57470000Y-48260000D03*
X59370000Y-48260000D03*
%TD*%
D13*
%TO.C,D3*%
X75046245Y-87336397D03*
X76596245Y-87336397D03*
%TD*%
D17*
%TO.C,J6*%
X129000000Y-70000000D03*
X129000000Y-69000000D03*
X129000000Y-68000000D03*
X129000000Y-67000000D03*
D18*
X132875000Y-71300000D03*
X132875000Y-65700000D03*
%TD*%
D19*
%TO.C,C2*%
X117798639Y-48260000D03*
X115898639Y-48260000D03*
%TD*%
%TO.C,C8*%
X62945139Y-82951438D03*
X61045139Y-82951438D03*
%TD*%
D17*
%TO.C,J4*%
X129030968Y-78951087D03*
X129030968Y-77951087D03*
X129030968Y-76951087D03*
X129030968Y-75951087D03*
D18*
X132905968Y-80251087D03*
X132905968Y-74651087D03*
%TD*%
D13*
%TO.C,D5*%
X75086082Y-78886934D03*
X76636082Y-78886934D03*
%TD*%
D20*
%TO.C,IC3*%
X116002000Y-45220000D03*
X116002000Y-45720000D03*
X116002000Y-46220000D03*
X117678000Y-46220000D03*
X117678000Y-45720000D03*
X117678000Y-45220000D03*
%TD*%
D21*
%TO.C,D1*%
X45243462Y-46654814D03*
X49643462Y-46654814D03*
%TD*%
D22*
%TO.C,U2*%
X126445797Y-54710711D03*
X126445797Y-56210711D03*
X127585797Y-54710711D03*
X127585797Y-56210711D03*
D23*
X124540797Y-53555711D03*
X124540797Y-54825711D03*
X124540797Y-56095711D03*
X124540797Y-57365711D03*
X129490797Y-57365711D03*
X129490797Y-56095711D03*
X129490797Y-54825711D03*
X129490797Y-53555711D03*
%TD*%
D19*
%TO.C,C9*%
X62860000Y-78740000D03*
X60960000Y-78740000D03*
%TD*%
D16*
%TO.C,R7*%
X81165560Y-87768400D03*
X83065560Y-87768400D03*
%TD*%
D14*
%TO.C,J3*%
X43884011Y-75841908D03*
X43884011Y-76841908D03*
X43884011Y-77841908D03*
X43884011Y-78841908D03*
D15*
X40009011Y-74541908D03*
X40009011Y-80141908D03*
%TD*%
D19*
%TO.C,C13*%
X121920000Y-81280000D03*
X120020000Y-81280000D03*
%TD*%
D16*
%TO.C,C10*%
X40195555Y-46636900D03*
X42095555Y-46636900D03*
%TD*%
%TO.C,R8*%
X81280000Y-83820000D03*
X83180000Y-83820000D03*
%TD*%
D22*
%TO.C,U1*%
X45926538Y-55110792D03*
X45926538Y-56610792D03*
X47066538Y-55110792D03*
X47066538Y-56610792D03*
D23*
X44021538Y-53955792D03*
X44021538Y-55225792D03*
X44021538Y-56495792D03*
X44021538Y-57765792D03*
X48971538Y-57765792D03*
X48971538Y-56495792D03*
X48971538Y-55225792D03*
X48971538Y-53955792D03*
%TD*%
D16*
%TO.C,C4*%
X122560000Y-48260000D03*
X124460000Y-48260000D03*
%TD*%
%TO.C,C6*%
X42274397Y-63757985D03*
X44174397Y-63757985D03*
%TD*%
%TO.C,R1*%
X42230000Y-60960000D03*
X44130000Y-60960000D03*
%TD*%
D21*
%TO.C,D2*%
X127340000Y-48260000D03*
X131740000Y-48260000D03*
%TD*%
D20*
%TO.C,IC2*%
X59013901Y-45740516D03*
X59013901Y-45240516D03*
X59013901Y-44740516D03*
X57337901Y-44740516D03*
X57337901Y-45240516D03*
X57337901Y-45740516D03*
%TD*%
D16*
%TO.C,R4*%
X122394818Y-60529134D03*
X124294818Y-60529134D03*
%TD*%
D19*
%TO.C,C16*%
X62965401Y-87485729D03*
X61065401Y-87485729D03*
%TD*%
D24*
%TO.C,SW1*%
X88900000Y-88125000D03*
X91440000Y-88125000D03*
X93980000Y-88125000D03*
X93980000Y-79515000D03*
X91440000Y-79515000D03*
X88900000Y-79515000D03*
%TD*%
M02*
