G04 EAGLE Gerber RS-274X export*
G75*
%MOMM*%
%FSLAX34Y34*%
%LPD*%
%INBottom Copper*%
%IPPOS*%
%AMOC8*
5,1,8,0,0,1.08239X$1,22.5*%
G01*
%ADD10C,1.447800*%
%ADD11R,1.100000X1.000000*%
%ADD12C,0.300000*%
%ADD13P,1.656057X8X202.500000*%
%ADD14P,1.656057X8X22.500000*%
%ADD15R,1.500000X0.900000*%
%ADD16R,2.000000X0.800000*%
%ADD17P,1.649562X8X22.500000*%
%ADD18R,5.330000X1.650000*%
%ADD19R,3.000000X2.100000*%
%ADD20R,1.600000X0.800000*%
%ADD21R,2.100000X3.000000*%
%ADD22R,0.800000X1.600000*%
%ADD23R,1.000000X1.100000*%
%ADD24C,1.800000*%
%ADD25C,1.530000*%
%ADD26C,0.654000*%
%ADD27C,0.200000*%
%ADD28C,0.600000*%
%ADD29C,1.200000*%


D10*
X-99400Y303800D03*
X-74000Y303800D03*
X-48600Y303800D03*
X-23200Y303800D03*
X2200Y303800D03*
X27600Y303800D03*
X53000Y303800D03*
X78400Y303800D03*
X103800Y303800D03*
X129200Y303800D03*
X154600Y303800D03*
X180000Y303800D03*
X205400Y303800D03*
X230800Y303800D03*
X281600Y303800D03*
X307000Y303800D03*
X332400Y303800D03*
X357800Y303800D03*
X230800Y456200D03*
X205400Y456200D03*
X180000Y456200D03*
X154600Y456200D03*
X129200Y456200D03*
X103800Y456200D03*
X78400Y456200D03*
X53000Y456200D03*
X27600Y456200D03*
X2200Y456200D03*
X-23200Y456200D03*
X-48600Y456200D03*
X-74000Y456200D03*
X-99400Y456200D03*
X256200Y303800D03*
X357800Y456200D03*
X332400Y456200D03*
X307000Y456200D03*
X281600Y456200D03*
X256200Y456200D03*
X383200Y303800D03*
X408600Y303800D03*
X434000Y303800D03*
X459400Y303800D03*
X484800Y303800D03*
X484800Y456200D03*
X383200Y456200D03*
X408600Y456200D03*
X434000Y456200D03*
X459400Y456200D03*
D11*
X111500Y280000D03*
X128500Y280000D03*
X201500Y280000D03*
X218500Y280000D03*
D12*
X92270Y283500D02*
X92270Y276500D01*
X85270Y276500D01*
X85270Y283500D01*
X92270Y283500D01*
X92270Y279350D02*
X85270Y279350D01*
X85270Y282200D02*
X92270Y282200D01*
X74730Y283500D02*
X74730Y276500D01*
X67730Y276500D01*
X67730Y283500D01*
X74730Y283500D01*
X74730Y279350D02*
X67730Y279350D01*
X67730Y282200D02*
X74730Y282200D01*
X182270Y283500D02*
X182270Y276500D01*
X175270Y276500D01*
X175270Y283500D01*
X182270Y283500D01*
X182270Y279350D02*
X175270Y279350D01*
X175270Y282200D02*
X182270Y282200D01*
X164730Y283500D02*
X164730Y276500D01*
X157730Y276500D01*
X157730Y283500D01*
X164730Y283500D01*
X164730Y279350D02*
X157730Y279350D01*
X157730Y282200D02*
X164730Y282200D01*
D13*
X322700Y122700D03*
X322700Y97300D03*
X297300Y122700D03*
X297300Y97300D03*
X82700Y122700D03*
X82700Y97300D03*
X57300Y122700D03*
X57300Y97300D03*
D14*
X267300Y507300D03*
X267300Y532700D03*
X292700Y507300D03*
X292700Y532700D03*
D12*
X272270Y283500D02*
X272270Y276500D01*
X265270Y276500D01*
X265270Y283500D01*
X272270Y283500D01*
X272270Y279350D02*
X265270Y279350D01*
X265270Y282200D02*
X272270Y282200D01*
X254730Y283500D02*
X254730Y276500D01*
X247730Y276500D01*
X247730Y283500D01*
X254730Y283500D01*
X254730Y279350D02*
X247730Y279350D01*
X247730Y282200D02*
X254730Y282200D01*
D15*
X213500Y252500D03*
X213500Y219500D03*
X164500Y252500D03*
X164500Y219500D03*
D16*
X109000Y48000D03*
X109000Y68000D03*
X109000Y88000D03*
X109000Y108000D03*
X109000Y128000D03*
X109000Y148000D03*
X109000Y168000D03*
X109000Y188000D03*
X271000Y188000D03*
X271000Y168000D03*
X271000Y148000D03*
X271000Y128000D03*
X271000Y108000D03*
X271000Y88000D03*
X271000Y68000D03*
X271000Y48000D03*
D11*
X87500Y71000D03*
X70500Y71000D03*
D17*
X130000Y20000D03*
D18*
X-9100Y392700D03*
X-9100Y367300D03*
D19*
X501000Y418000D03*
D20*
X472000Y380000D03*
D19*
X501000Y342000D03*
D20*
X472000Y392500D03*
X472000Y367500D03*
D21*
X426000Y539000D03*
D22*
X464000Y510000D03*
D21*
X502000Y539000D03*
D22*
X451500Y510000D03*
X476500Y510000D03*
D11*
X291500Y280000D03*
X308500Y280000D03*
X-8500Y140000D03*
X8500Y140000D03*
X-8500Y122000D03*
X8500Y122000D03*
X406500Y184000D03*
X389500Y184000D03*
X361500Y184000D03*
X344500Y184000D03*
X47500Y15000D03*
X30500Y15000D03*
X317500Y16000D03*
X300500Y16000D03*
D23*
X-20000Y219500D03*
X-20000Y236500D03*
D11*
X209500Y15000D03*
X226500Y15000D03*
D24*
X-60000Y526000D03*
X-25000Y526000D03*
X-95000Y526000D03*
D25*
X56600Y532700D03*
X82000Y532700D03*
X107400Y532700D03*
X56600Y507300D03*
X82000Y507300D03*
X107400Y507300D03*
D26*
X-95000Y423000D03*
X154000Y82000D03*
X256000Y175000D03*
X237000Y145000D03*
X23328Y46944D03*
X306000Y35000D03*
X184000Y338000D03*
X38000Y149000D03*
X348000Y149000D03*
X84000Y356000D03*
X-20000Y157000D03*
X398000Y157556D03*
X470000Y190000D03*
X401629Y88345D03*
X-74000Y144000D03*
X-90000Y250000D03*
X-100000Y160000D03*
X385000Y70000D03*
X248000Y235000D03*
X139000Y85000D03*
X-10000Y70000D03*
X482000Y285000D03*
X476000Y171000D03*
X103000Y78000D03*
X151000Y172000D03*
X159000Y164000D03*
X208000Y183000D03*
X269000Y211000D03*
X254000Y224000D03*
X331000Y149000D03*
X69000Y207000D03*
X262000Y432000D03*
X177000Y526000D03*
X-50000Y260000D03*
X326000Y260000D03*
X292000Y259000D03*
D27*
X472000Y355000D02*
X472000Y367500D01*
X472000Y355000D02*
X470000Y353000D01*
D26*
X470000Y353000D03*
D27*
X295000Y48000D02*
X271000Y48000D01*
X295000Y48000D02*
X295876Y48876D01*
D26*
X295876Y48876D03*
D27*
X135000Y273500D02*
X128500Y280000D01*
X135000Y273500D02*
X135000Y262000D01*
D26*
X135000Y262000D03*
D27*
X164500Y219500D02*
X150698Y205698D01*
X149000Y205698D01*
D26*
X149000Y205698D03*
D27*
X218500Y280000D02*
X226000Y272500D01*
X226000Y265000D01*
D26*
X226000Y265000D03*
D27*
X308500Y258500D02*
X308500Y280000D01*
X308500Y258500D02*
X300000Y250000D01*
D26*
X300000Y250000D03*
D27*
X111000Y68000D02*
X109000Y68000D01*
X111000Y68000D02*
X126000Y83000D01*
D26*
X126000Y83000D03*
D27*
X257000Y188000D02*
X271000Y188000D01*
X257000Y188000D02*
X254000Y185000D01*
D26*
X254000Y185000D03*
D27*
X-20000Y219500D02*
X-44500Y219500D01*
X-65000Y240000D01*
D26*
X-65000Y240000D03*
X-94000Y372000D03*
X-45302Y371000D03*
X299000Y347000D03*
X272000Y347000D03*
D27*
X476500Y510000D02*
X477000Y509500D01*
D26*
X477000Y495000D03*
X150000Y44000D03*
X199495Y27928D03*
X150000Y16302D03*
D27*
X70500Y71000D02*
X52000Y71000D01*
D26*
X52000Y71000D03*
D27*
X208198Y16302D02*
X209500Y15000D01*
X208198Y16302D02*
X194735Y16302D01*
D26*
X194735Y16302D03*
D27*
X477000Y495000D02*
X477000Y509500D01*
D28*
X-9100Y367300D02*
X-9100Y347100D01*
X-9000Y347000D01*
D29*
X-9000Y347000D03*
D26*
X121000Y437000D03*
X78000Y438000D03*
X-72000Y404000D03*
X324000Y426000D03*
X160856Y423144D03*
X241620Y341302D03*
X490000Y230000D03*
X490000Y247940D03*
X450000Y120000D03*
X459988Y129989D03*
X340000Y20000D03*
X350000Y30000D03*
X75000Y30000D03*
X81620Y20000D03*
X-50000Y100000D03*
X-40386Y90376D03*
X-60000Y180000D03*
X-109698Y200000D03*
D27*
X213500Y252500D02*
X227500Y252500D01*
X230000Y250000D01*
D26*
X230000Y250000D03*
X-120000Y470000D03*
D27*
X71230Y280000D02*
X83230Y268000D01*
X92000Y268000D01*
D26*
X92000Y268000D03*
X-62000Y404000D03*
X-82000Y404000D03*
X299000Y364000D03*
X271000Y364000D03*
X157000Y266000D03*
D27*
X161230Y270230D02*
X161230Y280000D01*
X161230Y270230D02*
X157000Y266000D01*
X346955Y194524D02*
X383046Y194524D01*
X389500Y188070D02*
X389500Y184000D01*
X344500Y184000D02*
X344500Y192070D01*
X383046Y194524D02*
X389500Y188070D01*
X346955Y194524D02*
X344500Y192070D01*
X338500Y190000D02*
X344500Y184000D01*
X338500Y190000D02*
X330000Y190000D01*
D26*
X330000Y190000D03*
D27*
X92874Y112526D02*
X82700Y122700D01*
X88000Y128000D02*
X109000Y128000D01*
X88000Y128000D02*
X82700Y122700D01*
X8500Y122000D02*
X8500Y140000D01*
X65400Y140000D01*
X82700Y122700D01*
X92874Y112526D02*
X92874Y76374D01*
X87500Y71000D01*
X260000Y10000D02*
X266000Y16000D01*
X300500Y16000D01*
D26*
X260000Y10000D03*
D27*
X30500Y15000D02*
X10000Y35500D01*
X10000Y41810D01*
D26*
X10000Y41810D03*
X171000Y350000D03*
D27*
X423000Y327000D02*
X423000Y153000D01*
X423000Y445200D02*
X434000Y456200D01*
X423000Y445200D02*
X423000Y327000D01*
X415000Y335000D01*
X200000Y335000D02*
X185000Y350000D01*
X171000Y350000D01*
X200000Y335000D02*
X415000Y335000D01*
X423000Y153000D02*
X367300Y97300D01*
X322700Y97300D01*
X-116000Y154000D02*
X-116000Y234000D01*
X-116000Y154000D02*
X-41500Y79500D01*
X-116000Y234000D02*
X-70000Y280000D01*
D26*
X80000Y370000D03*
D27*
X20000Y430000D01*
X0Y430000D01*
X-23200Y453200D01*
X-23200Y456200D01*
X-37091Y337091D02*
X-37091Y291909D01*
X-37091Y337091D02*
X-55000Y355000D01*
X-55000Y421400D02*
X-23200Y453200D01*
X-49000Y280000D02*
X-70000Y280000D01*
X-49000Y280000D02*
X-37091Y291909D01*
X-55000Y355000D02*
X-55000Y421400D01*
X77700Y97300D02*
X82700Y97300D01*
X77700Y97300D02*
X59900Y79500D01*
X-41500Y79500D01*
X216200Y456200D02*
X267300Y507300D01*
X216200Y456200D02*
X205400Y456200D01*
X111500Y280000D02*
X88770Y280000D01*
X178770Y280000D02*
X201500Y280000D01*
D26*
X240000Y256556D03*
D27*
X240000Y268770D01*
X251230Y280000D01*
D26*
X173000Y426000D03*
D27*
X276600Y456200D02*
X281600Y456200D01*
X276600Y456200D02*
X246400Y426000D01*
X173000Y426000D01*
X110000Y260000D02*
X117500Y252500D01*
D26*
X110000Y260000D03*
D27*
X117500Y252500D02*
X164500Y252500D01*
D26*
X309000Y191000D03*
D27*
X291000Y188000D02*
X271000Y168000D01*
X306000Y188000D02*
X309000Y191000D01*
X306000Y188000D02*
X291000Y188000D01*
D26*
X230000Y341556D03*
D27*
X82000Y478000D02*
X82000Y507300D01*
X82000Y478000D02*
X90000Y470000D01*
X90000Y427088D02*
X147088Y370000D01*
X201556Y370000D02*
X230000Y341556D01*
X90000Y427088D02*
X90000Y470000D01*
X147088Y370000D02*
X201556Y370000D01*
D26*
X302000Y179000D03*
D27*
X271000Y148000D01*
D26*
X209000Y342556D03*
D27*
X66000Y497900D02*
X56600Y507300D01*
X66000Y497900D02*
X66000Y438000D01*
X144000Y360000D01*
X191556Y360000D02*
X209000Y342556D01*
X191556Y360000D02*
X144000Y360000D01*
X450066Y270000D02*
X450066Y158066D01*
X357000Y65000D01*
X309500Y69500D02*
X271000Y108000D01*
X309500Y69500D02*
X314000Y65000D01*
X357000Y65000D01*
D26*
X295186Y69000D03*
D27*
X295686Y69500D01*
X309500Y69500D01*
X450066Y270000D02*
X434000Y286066D01*
X434000Y303800D01*
X109000Y148000D02*
X82000Y175000D01*
X82000Y253000D01*
D26*
X82000Y253000D03*
X-66000Y114000D03*
D27*
X-16500Y114000D02*
X-8500Y122000D01*
X-16500Y114000D02*
X-66000Y114000D01*
D26*
X2000Y168000D03*
D27*
X-8500Y157500D02*
X-8500Y140000D01*
X-8500Y157500D02*
X2000Y168000D01*
D26*
X-76000Y210000D03*
D27*
X-60000Y210000D01*
X-40000Y190000D01*
D26*
X-40000Y190000D03*
X-7000Y215000D03*
D27*
X-7000Y230000D02*
X-13500Y236500D01*
X-20000Y236500D01*
X-7000Y230000D02*
X-7000Y215000D01*
X-20000Y236500D02*
X-23200Y241700D01*
X-23200Y303800D01*
D26*
X30000Y266000D03*
D27*
X30000Y275016D02*
X42524Y287540D01*
X30000Y275016D02*
X30000Y266000D01*
X42524Y311690D02*
X48000Y317166D01*
X90000Y317166D01*
X42524Y311690D02*
X42524Y287540D01*
X90000Y317166D02*
X103366Y303800D01*
X103800Y303800D01*
D26*
X380000Y167000D03*
D27*
X363000Y184000D01*
X361500Y184000D01*
D26*
X391000Y138000D03*
D27*
X392000Y138000D02*
X411000Y157000D01*
X392000Y138000D02*
X391000Y138000D01*
D26*
X411000Y157000D03*
D27*
X411000Y179500D02*
X406500Y184000D01*
X411000Y179500D02*
X411000Y157000D01*
X154600Y303800D02*
X153800Y303800D01*
D26*
X382000Y209000D03*
D27*
X180000Y330000D02*
X153800Y303800D01*
X382000Y281000D02*
X382000Y209000D01*
X382000Y281000D02*
X371000Y292000D01*
X371000Y317000D01*
X358000Y330000D01*
X180000Y330000D01*
D26*
X2000Y194000D03*
D27*
X1000Y195000D01*
X1000Y253000D01*
X38000Y290000D01*
X47903Y322690D02*
X108310Y322690D01*
X127200Y303800D01*
X129200Y303800D01*
X38000Y312787D02*
X38000Y290000D01*
X38000Y312787D02*
X47903Y322690D01*
D26*
X340000Y320000D03*
D27*
X196200Y320000D01*
X180000Y303800D01*
D26*
X187000Y27928D03*
D27*
X167072Y8000D01*
X82000Y8000D01*
X70000Y20000D01*
X58500Y20000D01*
X50000Y11500D01*
X50000Y17500D02*
X53000Y20500D01*
X50000Y17500D02*
X47500Y15000D01*
D26*
X53000Y34000D03*
D27*
X53000Y20500D01*
X50000Y17500D02*
X50000Y11500D01*
D26*
X66000Y8000D03*
D27*
X70000Y4000D01*
X232000Y4000D01*
X242000Y14000D01*
D26*
X242000Y14000D03*
X319620Y36053D03*
X160000Y30000D03*
D27*
X319000Y36673D02*
X319620Y36053D01*
X314371Y41302D02*
X171302Y41302D01*
X160000Y30000D01*
X317500Y16000D02*
X319000Y17500D01*
X319000Y36673D01*
X314371Y41302D01*
X130000Y27000D02*
X130000Y20000D01*
X130000Y27000D02*
X109000Y48000D01*
D26*
X287000Y78000D03*
X365000Y118000D03*
D27*
X381272Y118000D01*
X419476Y156204D01*
X419476Y292924D02*
X408600Y303800D01*
X419476Y292924D02*
X419476Y156204D01*
X272000Y88000D02*
X271000Y88000D01*
X272000Y88000D02*
X282000Y78000D01*
X287000Y78000D01*
D28*
X-9100Y392700D02*
X-44268Y392700D01*
X-44968Y392000D01*
D29*
X-44968Y392000D03*
D27*
X268770Y280000D02*
X291500Y280000D01*
X129200Y485500D02*
X107400Y507300D01*
X129200Y485500D02*
X129200Y456200D01*
X301424Y135576D02*
X309000Y128000D01*
X354000Y71000D02*
X444510Y161510D01*
X309000Y128000D02*
X309000Y81000D01*
X319000Y71000D01*
X354000Y71000D01*
X444510Y161510D02*
X444510Y261490D01*
X437000Y269000D01*
D26*
X437000Y269000D03*
D27*
X301424Y135576D02*
X278576Y135576D01*
X271000Y128000D01*
X142000Y498100D02*
X107400Y532700D01*
X142000Y498100D02*
X142000Y439000D01*
X147444Y433556D01*
X208156Y433556D01*
X230800Y456200D01*
X451500Y510000D02*
X451500Y517710D01*
X455060Y521270D01*
X492000Y463400D02*
X484800Y456200D01*
X485730Y521270D02*
X455060Y521270D01*
X485730Y521270D02*
X492000Y515000D01*
X492000Y463400D01*
X464000Y460800D02*
X464000Y510000D01*
X464000Y460800D02*
X459400Y456200D01*
X459500Y392500D02*
X450000Y383000D01*
X450000Y313200D01*
X459400Y303800D01*
X459500Y392500D02*
X472000Y392500D01*
X472000Y380000D02*
X482000Y380000D01*
X487000Y375000D01*
X487000Y360000D01*
X480000Y353000D01*
X480000Y308600D01*
X484800Y303800D01*
X-74000Y303800D02*
X-130000Y247800D01*
X-130000Y150000D01*
D26*
X225610Y52610D03*
D27*
X222951Y55270D01*
X-35270Y55270D01*
X-130000Y150000D01*
X-53825Y303800D02*
X-48600Y303800D01*
X-53825Y303800D02*
X-123000Y234625D01*
X-123000Y153000D02*
X-30000Y60000D01*
X-123000Y153000D02*
X-123000Y234625D01*
X178428Y60000D02*
X180000Y61572D01*
D26*
X180000Y61572D03*
D27*
X178428Y60000D02*
X-30000Y60000D01*
D26*
X209000Y61572D03*
D27*
X211000Y59572D02*
X359572Y59572D01*
X211000Y59572D02*
X209000Y61572D01*
X359572Y59572D02*
X460000Y160000D01*
X460000Y280499D01*
X455750Y284750D01*
D26*
X455750Y284750D03*
D27*
X233198Y21698D02*
X226500Y15000D01*
X233198Y21698D02*
X250735Y21698D01*
D26*
X250735Y21698D03*
M02*
