G04 EAGLE Gerber RS-274X export*
G75*
%MOMM*%
%FSLAX34Y34*%
%LPD*%
%INSolderpaste Top*%
%IPPOS*%
%AMOC8*
5,1,8,0,0,1.08239X$1,22.5*%
G01*
%ADD10R,1.000000X1.100000*%
%ADD11R,1.100000X1.000000*%
%ADD12R,0.850800X1.761200*%
%ADD13R,3.150800X1.761200*%
%ADD14C,0.055000*%
%ADD15R,1.600000X0.300000*%
%ADD16R,1.550000X0.600000*%
%ADD17R,2.100000X3.000000*%
%ADD18R,0.800000X1.600000*%
%ADD19R,1.600000X0.800000*%
%ADD20R,3.000000X2.100000*%
%ADD21R,0.600000X0.950000*%
%ADD22R,1.140000X1.780000*%
%ADD23R,0.900000X1.400000*%
%ADD24R,2.200000X1.400000*%
%ADD25R,1.400000X0.900000*%
%ADD26R,1.400000X2.200000*%
%ADD27C,0.300000*%


D10*
X63000Y166500D03*
X63000Y183500D03*
D11*
X308500Y166000D03*
X325500Y166000D03*
X206500Y538000D03*
X189500Y538000D03*
D12*
X167000Y89750D03*
X190000Y89750D03*
X213000Y89750D03*
D13*
X190000Y150250D03*
D12*
X187000Y359750D03*
X210000Y359750D03*
X233000Y359750D03*
D13*
X210000Y420250D03*
D11*
X-64500Y422000D03*
X-81500Y422000D03*
D10*
X259000Y364500D03*
X259000Y347500D03*
D11*
X241500Y420000D03*
X258500Y420000D03*
D10*
X236000Y110500D03*
X236000Y127500D03*
X143000Y116500D03*
X143000Y99500D03*
X144000Y228500D03*
X144000Y245500D03*
X120000Y228500D03*
X120000Y245500D03*
D11*
X225500Y173000D03*
X242500Y173000D03*
X262500Y199000D03*
X279500Y199000D03*
D10*
X169000Y190500D03*
X169000Y173500D03*
D14*
X211625Y219175D02*
X217475Y219175D01*
X211625Y219175D02*
X211625Y220825D01*
X217475Y220825D01*
X217475Y219175D01*
X217475Y219697D02*
X211625Y219697D01*
X211625Y220219D02*
X217475Y220219D01*
X217475Y220741D02*
X211625Y220741D01*
X211625Y215175D02*
X217475Y215175D01*
X211625Y215175D02*
X211625Y216825D01*
X217475Y216825D01*
X217475Y215175D01*
X217475Y215697D02*
X211625Y215697D01*
X211625Y216219D02*
X217475Y216219D01*
X217475Y216741D02*
X211625Y216741D01*
X211625Y211175D02*
X217475Y211175D01*
X211625Y211175D02*
X211625Y212825D01*
X217475Y212825D01*
X217475Y211175D01*
X217475Y211697D02*
X211625Y211697D01*
X211625Y212219D02*
X217475Y212219D01*
X217475Y212741D02*
X211625Y212741D01*
X211625Y207175D02*
X217475Y207175D01*
X211625Y207175D02*
X211625Y208825D01*
X217475Y208825D01*
X217475Y207175D01*
X217475Y207697D02*
X211625Y207697D01*
X211625Y208219D02*
X217475Y208219D01*
X217475Y208741D02*
X211625Y208741D01*
X211625Y203175D02*
X217475Y203175D01*
X211625Y203175D02*
X211625Y204825D01*
X217475Y204825D01*
X217475Y203175D01*
X217475Y203697D02*
X211625Y203697D01*
X211625Y204219D02*
X217475Y204219D01*
X217475Y204741D02*
X211625Y204741D01*
X211625Y199175D02*
X217475Y199175D01*
X211625Y199175D02*
X211625Y200825D01*
X217475Y200825D01*
X217475Y199175D01*
X217475Y199697D02*
X211625Y199697D01*
X211625Y200219D02*
X217475Y200219D01*
X217475Y200741D02*
X211625Y200741D01*
X220825Y197475D02*
X220825Y191625D01*
X219175Y191625D01*
X219175Y197475D01*
X220825Y197475D01*
X220825Y192147D02*
X219175Y192147D01*
X219175Y192669D02*
X220825Y192669D01*
X220825Y193191D02*
X219175Y193191D01*
X219175Y193713D02*
X220825Y193713D01*
X220825Y194235D02*
X219175Y194235D01*
X219175Y194757D02*
X220825Y194757D01*
X220825Y195279D02*
X219175Y195279D01*
X219175Y195801D02*
X220825Y195801D01*
X220825Y196323D02*
X219175Y196323D01*
X219175Y196845D02*
X220825Y196845D01*
X220825Y197367D02*
X219175Y197367D01*
X224825Y197475D02*
X224825Y191625D01*
X223175Y191625D01*
X223175Y197475D01*
X224825Y197475D01*
X224825Y192147D02*
X223175Y192147D01*
X223175Y192669D02*
X224825Y192669D01*
X224825Y193191D02*
X223175Y193191D01*
X223175Y193713D02*
X224825Y193713D01*
X224825Y194235D02*
X223175Y194235D01*
X223175Y194757D02*
X224825Y194757D01*
X224825Y195279D02*
X223175Y195279D01*
X223175Y195801D02*
X224825Y195801D01*
X224825Y196323D02*
X223175Y196323D01*
X223175Y196845D02*
X224825Y196845D01*
X224825Y197367D02*
X223175Y197367D01*
X228825Y197475D02*
X228825Y191625D01*
X227175Y191625D01*
X227175Y197475D01*
X228825Y197475D01*
X228825Y192147D02*
X227175Y192147D01*
X227175Y192669D02*
X228825Y192669D01*
X228825Y193191D02*
X227175Y193191D01*
X227175Y193713D02*
X228825Y193713D01*
X228825Y194235D02*
X227175Y194235D01*
X227175Y194757D02*
X228825Y194757D01*
X228825Y195279D02*
X227175Y195279D01*
X227175Y195801D02*
X228825Y195801D01*
X228825Y196323D02*
X227175Y196323D01*
X227175Y196845D02*
X228825Y196845D01*
X228825Y197367D02*
X227175Y197367D01*
X232825Y197475D02*
X232825Y191625D01*
X231175Y191625D01*
X231175Y197475D01*
X232825Y197475D01*
X232825Y192147D02*
X231175Y192147D01*
X231175Y192669D02*
X232825Y192669D01*
X232825Y193191D02*
X231175Y193191D01*
X231175Y193713D02*
X232825Y193713D01*
X232825Y194235D02*
X231175Y194235D01*
X231175Y194757D02*
X232825Y194757D01*
X232825Y195279D02*
X231175Y195279D01*
X231175Y195801D02*
X232825Y195801D01*
X232825Y196323D02*
X231175Y196323D01*
X231175Y196845D02*
X232825Y196845D01*
X232825Y197367D02*
X231175Y197367D01*
X236825Y197475D02*
X236825Y191625D01*
X235175Y191625D01*
X235175Y197475D01*
X236825Y197475D01*
X236825Y192147D02*
X235175Y192147D01*
X235175Y192669D02*
X236825Y192669D01*
X236825Y193191D02*
X235175Y193191D01*
X235175Y193713D02*
X236825Y193713D01*
X236825Y194235D02*
X235175Y194235D01*
X235175Y194757D02*
X236825Y194757D01*
X236825Y195279D02*
X235175Y195279D01*
X235175Y195801D02*
X236825Y195801D01*
X236825Y196323D02*
X235175Y196323D01*
X235175Y196845D02*
X236825Y196845D01*
X236825Y197367D02*
X235175Y197367D01*
X240825Y197475D02*
X240825Y191625D01*
X239175Y191625D01*
X239175Y197475D01*
X240825Y197475D01*
X240825Y192147D02*
X239175Y192147D01*
X239175Y192669D02*
X240825Y192669D01*
X240825Y193191D02*
X239175Y193191D01*
X239175Y193713D02*
X240825Y193713D01*
X240825Y194235D02*
X239175Y194235D01*
X239175Y194757D02*
X240825Y194757D01*
X240825Y195279D02*
X239175Y195279D01*
X239175Y195801D02*
X240825Y195801D01*
X240825Y196323D02*
X239175Y196323D01*
X239175Y196845D02*
X240825Y196845D01*
X240825Y197367D02*
X239175Y197367D01*
X242525Y200825D02*
X248375Y200825D01*
X248375Y199175D01*
X242525Y199175D01*
X242525Y200825D01*
X242525Y199697D02*
X248375Y199697D01*
X248375Y200219D02*
X242525Y200219D01*
X242525Y200741D02*
X248375Y200741D01*
X248375Y204825D02*
X242525Y204825D01*
X248375Y204825D02*
X248375Y203175D01*
X242525Y203175D01*
X242525Y204825D01*
X242525Y203697D02*
X248375Y203697D01*
X248375Y204219D02*
X242525Y204219D01*
X242525Y204741D02*
X248375Y204741D01*
X248375Y208825D02*
X242525Y208825D01*
X248375Y208825D02*
X248375Y207175D01*
X242525Y207175D01*
X242525Y208825D01*
X242525Y207697D02*
X248375Y207697D01*
X248375Y208219D02*
X242525Y208219D01*
X242525Y208741D02*
X248375Y208741D01*
X248375Y212825D02*
X242525Y212825D01*
X248375Y212825D02*
X248375Y211175D01*
X242525Y211175D01*
X242525Y212825D01*
X242525Y211697D02*
X248375Y211697D01*
X248375Y212219D02*
X242525Y212219D01*
X242525Y212741D02*
X248375Y212741D01*
X248375Y216825D02*
X242525Y216825D01*
X248375Y216825D02*
X248375Y215175D01*
X242525Y215175D01*
X242525Y216825D01*
X242525Y215697D02*
X248375Y215697D01*
X248375Y216219D02*
X242525Y216219D01*
X242525Y216741D02*
X248375Y216741D01*
X248375Y220825D02*
X242525Y220825D01*
X248375Y220825D02*
X248375Y219175D01*
X242525Y219175D01*
X242525Y220825D01*
X242525Y219697D02*
X248375Y219697D01*
X248375Y220219D02*
X242525Y220219D01*
X242525Y220741D02*
X248375Y220741D01*
X239175Y222525D02*
X239175Y228375D01*
X240825Y228375D01*
X240825Y222525D01*
X239175Y222525D01*
X239175Y223047D02*
X240825Y223047D01*
X240825Y223569D02*
X239175Y223569D01*
X239175Y224091D02*
X240825Y224091D01*
X240825Y224613D02*
X239175Y224613D01*
X239175Y225135D02*
X240825Y225135D01*
X240825Y225657D02*
X239175Y225657D01*
X239175Y226179D02*
X240825Y226179D01*
X240825Y226701D02*
X239175Y226701D01*
X239175Y227223D02*
X240825Y227223D01*
X240825Y227745D02*
X239175Y227745D01*
X239175Y228267D02*
X240825Y228267D01*
X235175Y228375D02*
X235175Y222525D01*
X235175Y228375D02*
X236825Y228375D01*
X236825Y222525D01*
X235175Y222525D01*
X235175Y223047D02*
X236825Y223047D01*
X236825Y223569D02*
X235175Y223569D01*
X235175Y224091D02*
X236825Y224091D01*
X236825Y224613D02*
X235175Y224613D01*
X235175Y225135D02*
X236825Y225135D01*
X236825Y225657D02*
X235175Y225657D01*
X235175Y226179D02*
X236825Y226179D01*
X236825Y226701D02*
X235175Y226701D01*
X235175Y227223D02*
X236825Y227223D01*
X236825Y227745D02*
X235175Y227745D01*
X235175Y228267D02*
X236825Y228267D01*
X231175Y228375D02*
X231175Y222525D01*
X231175Y228375D02*
X232825Y228375D01*
X232825Y222525D01*
X231175Y222525D01*
X231175Y223047D02*
X232825Y223047D01*
X232825Y223569D02*
X231175Y223569D01*
X231175Y224091D02*
X232825Y224091D01*
X232825Y224613D02*
X231175Y224613D01*
X231175Y225135D02*
X232825Y225135D01*
X232825Y225657D02*
X231175Y225657D01*
X231175Y226179D02*
X232825Y226179D01*
X232825Y226701D02*
X231175Y226701D01*
X231175Y227223D02*
X232825Y227223D01*
X232825Y227745D02*
X231175Y227745D01*
X231175Y228267D02*
X232825Y228267D01*
X227175Y228375D02*
X227175Y222525D01*
X227175Y228375D02*
X228825Y228375D01*
X228825Y222525D01*
X227175Y222525D01*
X227175Y223047D02*
X228825Y223047D01*
X228825Y223569D02*
X227175Y223569D01*
X227175Y224091D02*
X228825Y224091D01*
X228825Y224613D02*
X227175Y224613D01*
X227175Y225135D02*
X228825Y225135D01*
X228825Y225657D02*
X227175Y225657D01*
X227175Y226179D02*
X228825Y226179D01*
X228825Y226701D02*
X227175Y226701D01*
X227175Y227223D02*
X228825Y227223D01*
X228825Y227745D02*
X227175Y227745D01*
X227175Y228267D02*
X228825Y228267D01*
X223175Y228375D02*
X223175Y222525D01*
X223175Y228375D02*
X224825Y228375D01*
X224825Y222525D01*
X223175Y222525D01*
X223175Y223047D02*
X224825Y223047D01*
X224825Y223569D02*
X223175Y223569D01*
X223175Y224091D02*
X224825Y224091D01*
X224825Y224613D02*
X223175Y224613D01*
X223175Y225135D02*
X224825Y225135D01*
X224825Y225657D02*
X223175Y225657D01*
X223175Y226179D02*
X224825Y226179D01*
X224825Y226701D02*
X223175Y226701D01*
X223175Y227223D02*
X224825Y227223D01*
X224825Y227745D02*
X223175Y227745D01*
X223175Y228267D02*
X224825Y228267D01*
X219175Y228375D02*
X219175Y222525D01*
X219175Y228375D02*
X220825Y228375D01*
X220825Y222525D01*
X219175Y222525D01*
X219175Y223047D02*
X220825Y223047D01*
X220825Y223569D02*
X219175Y223569D01*
X219175Y224091D02*
X220825Y224091D01*
X220825Y224613D02*
X219175Y224613D01*
X219175Y225135D02*
X220825Y225135D01*
X220825Y225657D02*
X219175Y225657D01*
X219175Y226179D02*
X220825Y226179D01*
X220825Y226701D02*
X219175Y226701D01*
X219175Y227223D02*
X220825Y227223D01*
X220825Y227745D02*
X219175Y227745D01*
X219175Y228267D02*
X220825Y228267D01*
D10*
X284000Y364500D03*
X284000Y347500D03*
X-81000Y389500D03*
X-81000Y372500D03*
X-61000Y389500D03*
X-61000Y372500D03*
D15*
X137000Y177000D03*
X137000Y183500D03*
X137000Y190000D03*
X137000Y196500D03*
X103000Y196500D03*
X103000Y190000D03*
X103000Y183500D03*
X103000Y177000D03*
D10*
X84000Y183500D03*
X84000Y166500D03*
X189000Y228500D03*
X189000Y245500D03*
X167000Y228500D03*
X167000Y245500D03*
D16*
X100000Y402050D03*
X100000Y389350D03*
X100000Y376650D03*
X100000Y363950D03*
X154000Y363950D03*
X154000Y376650D03*
X154000Y389350D03*
X154000Y402050D03*
D11*
X105500Y426000D03*
X88500Y426000D03*
X189500Y511000D03*
X206500Y511000D03*
X144500Y426000D03*
X127500Y426000D03*
X189500Y485000D03*
X206500Y485000D03*
D17*
X11750Y21000D03*
X100250Y21000D03*
D18*
X37250Y50000D03*
X62250Y50000D03*
X49750Y50000D03*
X74750Y50000D03*
D17*
X280750Y21000D03*
X369250Y21000D03*
D18*
X306250Y50000D03*
X331250Y50000D03*
X318750Y50000D03*
X343750Y50000D03*
D17*
G36*
X-104652Y112777D02*
X-119708Y127417D01*
X-98794Y148923D01*
X-83738Y134283D01*
X-104652Y112777D01*
G37*
G36*
X-41206Y51077D02*
X-56262Y65717D01*
X-35348Y87223D01*
X-20292Y72583D01*
X-41206Y51077D01*
G37*
D19*
G36*
X-54780Y136808D02*
X-65933Y125339D01*
X-71668Y130916D01*
X-60515Y142385D01*
X-54780Y136808D01*
G37*
G36*
X-36858Y119379D02*
X-48011Y107910D01*
X-53746Y113487D01*
X-42593Y124956D01*
X-36858Y119379D01*
G37*
G36*
X-45819Y128094D02*
X-56972Y116625D01*
X-62707Y122202D01*
X-51554Y133671D01*
X-45819Y128094D01*
G37*
G36*
X-27896Y110665D02*
X-39049Y99196D01*
X-44784Y104773D01*
X-33631Y116242D01*
X-27896Y110665D01*
G37*
D17*
G36*
X435963Y65838D02*
X420781Y51330D01*
X400055Y73018D01*
X415237Y87526D01*
X435963Y65838D01*
G37*
G36*
X499945Y126982D02*
X484763Y112474D01*
X464037Y134162D01*
X479219Y148670D01*
X499945Y126982D01*
G37*
D19*
G36*
X413774Y116559D02*
X424827Y104992D01*
X419044Y99465D01*
X407991Y111032D01*
X413774Y116559D01*
G37*
G36*
X431848Y133831D02*
X442901Y122264D01*
X437118Y116737D01*
X426065Y128304D01*
X431848Y133831D01*
G37*
G36*
X422811Y125195D02*
X433864Y113628D01*
X428081Y108101D01*
X417028Y119668D01*
X422811Y125195D01*
G37*
G36*
X440885Y142467D02*
X451938Y130900D01*
X446155Y125373D01*
X435102Y136940D01*
X440885Y142467D01*
G37*
D20*
X500000Y175750D03*
X500000Y264250D03*
D19*
X471000Y201250D03*
X471000Y226250D03*
X471000Y213750D03*
X471000Y238750D03*
D20*
X-120000Y264250D03*
X-120000Y175750D03*
D19*
X-91000Y238750D03*
X-91000Y213750D03*
X-91000Y226250D03*
X-91000Y201250D03*
D21*
X-20000Y191250D03*
X-20000Y168750D03*
X-29500Y191250D03*
X-10500Y168750D03*
X-29500Y168750D03*
X-10500Y191250D03*
X400000Y191250D03*
X400000Y168750D03*
X390500Y191250D03*
X409500Y168750D03*
X390500Y168750D03*
X409500Y191250D03*
X30000Y191250D03*
X30000Y168750D03*
X20500Y191250D03*
X39500Y168750D03*
X20500Y168750D03*
X39500Y191250D03*
X350000Y191250D03*
X350000Y168750D03*
X340500Y191250D03*
X359500Y168750D03*
X340500Y168750D03*
X359500Y191250D03*
D11*
G36*
X474973Y259956D02*
X474877Y248957D01*
X464879Y249044D01*
X464975Y260043D01*
X474973Y259956D01*
G37*
G36*
X475121Y276956D02*
X475025Y265957D01*
X465027Y266044D01*
X465123Y277043D01*
X475121Y276956D01*
G37*
G36*
X461414Y150343D02*
X453637Y142566D01*
X446566Y149637D01*
X454343Y157414D01*
X461414Y150343D01*
G37*
G36*
X473434Y162363D02*
X465657Y154586D01*
X458586Y161657D01*
X466363Y169434D01*
X473434Y162363D01*
G37*
D10*
X-84000Y178500D03*
X-84000Y161500D03*
D11*
G36*
X-15657Y100586D02*
X-23434Y108363D01*
X-16363Y115434D01*
X-8586Y107657D01*
X-15657Y100586D01*
G37*
G36*
X-3637Y88566D02*
X-11414Y96343D01*
X-4343Y103414D01*
X3434Y95637D01*
X-3637Y88566D01*
G37*
X361500Y53000D03*
X378500Y53000D03*
X91500Y53000D03*
X108500Y53000D03*
D21*
X220000Y41250D03*
X220000Y18750D03*
X210500Y41250D03*
X229500Y18750D03*
X210500Y18750D03*
X229500Y41250D03*
X170000Y41250D03*
X170000Y18750D03*
X160500Y41250D03*
X179500Y18750D03*
X160500Y18750D03*
X179500Y41250D03*
D22*
X-28900Y417000D03*
X12900Y417000D03*
D11*
X92500Y337000D03*
X109500Y337000D03*
X142500Y337000D03*
X159500Y337000D03*
D10*
X240000Y54500D03*
X240000Y71500D03*
D23*
X312000Y419000D03*
D24*
X286500Y419000D03*
D25*
X191000Y170000D03*
D26*
X191000Y195500D03*
D10*
X-44000Y236500D03*
X-44000Y219500D03*
D11*
X334500Y272000D03*
X351500Y272000D03*
X295500Y272000D03*
X312500Y272000D03*
X282500Y53000D03*
X265500Y53000D03*
X138500Y56000D03*
X155500Y56000D03*
X-66500Y480000D03*
X-49500Y480000D03*
D27*
X-89730Y476500D02*
X-89730Y483500D01*
X-82730Y483500D01*
X-82730Y476500D01*
X-89730Y476500D01*
X-89730Y479350D02*
X-82730Y479350D01*
X-82730Y482200D02*
X-89730Y482200D01*
X-107270Y483500D02*
X-107270Y476500D01*
X-107270Y483500D02*
X-100270Y483500D01*
X-100270Y476500D01*
X-107270Y476500D01*
X-107270Y479350D02*
X-100270Y479350D01*
X-100270Y482200D02*
X-107270Y482200D01*
M02*
