G04 EAGLE Gerber RS-274X export*
G75*
%MOMM*%
%FSLAX34Y34*%
%LPD*%
%INTop Copper*%
%IPPOS*%
%AMOC8*
5,1,8,0,0,1.08239X$1,22.5*%
G01*
%ADD10C,1.447800*%
%ADD11R,1.000000X1.100000*%
%ADD12R,1.100000X1.000000*%
%ADD13R,0.850800X1.761200*%
%ADD14R,3.150800X1.761200*%
%ADD15C,0.055000*%
%ADD16R,1.600000X0.300000*%
%ADD17P,1.656057X8X202.500000*%
%ADD18R,1.550000X0.600000*%
%ADD19P,1.656057X8X22.500000*%
%ADD20R,2.100000X3.000000*%
%ADD21R,0.800000X1.600000*%
%ADD22R,1.600000X0.800000*%
%ADD23R,3.000000X2.100000*%
%ADD24R,0.600000X0.950000*%
%ADD25P,1.649562X8X22.500000*%
%ADD26R,1.140000X1.780000*%
%ADD27R,1.400000X0.900000*%
%ADD28R,1.400000X2.200000*%
%ADD29R,0.900000X1.400000*%
%ADD30R,2.200000X1.400000*%
%ADD31C,1.800000*%
%ADD32C,0.300000*%
%ADD33C,1.530000*%
%ADD34C,0.200000*%
%ADD35C,0.654000*%
%ADD36C,1.200000*%
%ADD37C,0.500000*%
%ADD38C,0.600000*%

G36*
X232059Y139007D02*
X232059Y139007D01*
X232100Y139004D01*
X232184Y139025D01*
X232297Y139041D01*
X232350Y139065D01*
X232400Y139077D01*
X232945Y139303D01*
X235055Y139303D01*
X235600Y139077D01*
X235641Y139066D01*
X235678Y139048D01*
X235763Y139035D01*
X235873Y139007D01*
X235932Y139009D01*
X235983Y139001D01*
X280000Y139001D01*
X280064Y139010D01*
X280128Y139009D01*
X280203Y139030D01*
X280279Y139041D01*
X280338Y139067D01*
X280400Y139084D01*
X280466Y139125D01*
X280536Y139157D01*
X280585Y139199D01*
X280640Y139232D01*
X280692Y139290D01*
X280750Y139340D01*
X280786Y139394D01*
X280829Y139442D01*
X280862Y139511D01*
X280905Y139576D01*
X280924Y139638D01*
X280952Y139695D01*
X280963Y139765D01*
X280987Y139846D01*
X280988Y139931D01*
X280999Y140000D01*
X280999Y153476D01*
X280990Y153540D01*
X280991Y153604D01*
X280970Y153679D01*
X280959Y153755D01*
X280933Y153814D01*
X280916Y153876D01*
X280875Y153942D01*
X280843Y154012D01*
X280801Y154061D01*
X280768Y154116D01*
X280710Y154168D01*
X280660Y154226D01*
X280606Y154262D01*
X280558Y154305D01*
X280489Y154338D01*
X280424Y154381D01*
X280362Y154400D01*
X280305Y154428D01*
X280235Y154439D01*
X280154Y154463D01*
X280069Y154464D01*
X280000Y154475D01*
X210744Y154475D01*
X208972Y156247D01*
X200537Y164683D01*
X200460Y164740D01*
X200388Y164805D01*
X200347Y164825D01*
X200311Y164852D01*
X200221Y164886D01*
X200135Y164928D01*
X200093Y164934D01*
X200047Y164951D01*
X199920Y164961D01*
X199830Y164975D01*
X184368Y164975D01*
X183475Y165868D01*
X183475Y176132D01*
X184368Y177025D01*
X199632Y177025D01*
X200525Y176132D01*
X200525Y172249D01*
X200538Y172154D01*
X200543Y172058D01*
X200558Y172015D01*
X200565Y171970D01*
X200604Y171883D01*
X200636Y171792D01*
X200661Y171757D01*
X200681Y171713D01*
X200764Y171616D01*
X200817Y171543D01*
X212543Y159817D01*
X212620Y159760D01*
X212691Y159695D01*
X212732Y159675D01*
X212768Y159648D01*
X212858Y159614D01*
X212945Y159572D01*
X212987Y159566D01*
X213032Y159549D01*
X213160Y159539D01*
X213249Y159525D01*
X277540Y159525D01*
X277635Y159538D01*
X277731Y159543D01*
X277775Y159558D01*
X277820Y159565D01*
X277907Y159604D01*
X277998Y159636D01*
X278032Y159661D01*
X278076Y159681D01*
X278174Y159764D01*
X278247Y159817D01*
X280707Y162277D01*
X280726Y162302D01*
X280750Y162323D01*
X280785Y162376D01*
X280829Y162425D01*
X280849Y162466D01*
X280876Y162503D01*
X280888Y162534D01*
X280904Y162559D01*
X280922Y162618D01*
X280952Y162679D01*
X280958Y162721D01*
X280975Y162767D01*
X280978Y162801D01*
X280986Y162829D01*
X280987Y162908D01*
X280999Y162984D01*
X280999Y191476D01*
X280990Y191540D01*
X280991Y191604D01*
X280970Y191679D01*
X280959Y191755D01*
X280933Y191814D01*
X280916Y191876D01*
X280875Y191942D01*
X280843Y192012D01*
X280801Y192061D01*
X280768Y192116D01*
X280710Y192168D01*
X280660Y192226D01*
X280606Y192262D01*
X280558Y192305D01*
X280489Y192338D01*
X280424Y192381D01*
X280362Y192400D01*
X280305Y192428D01*
X280235Y192439D01*
X280154Y192463D01*
X280069Y192464D01*
X280000Y192475D01*
X273368Y192475D01*
X272475Y193368D01*
X272475Y204632D01*
X273309Y205465D01*
X273380Y205560D01*
X273456Y205652D01*
X273465Y205673D01*
X273478Y205691D01*
X273520Y205802D01*
X273567Y205911D01*
X273570Y205933D01*
X273578Y205955D01*
X273587Y206073D01*
X273602Y206191D01*
X273598Y206213D01*
X273600Y206236D01*
X273575Y206352D01*
X273556Y206469D01*
X273547Y206490D01*
X273542Y206512D01*
X273486Y206617D01*
X273435Y206724D01*
X273420Y206741D01*
X273410Y206761D01*
X273327Y206846D01*
X273248Y206935D01*
X273230Y206946D01*
X273213Y206963D01*
X273050Y207055D01*
X272985Y207095D01*
X271996Y207505D01*
X270505Y208996D01*
X269697Y210945D01*
X269697Y213055D01*
X270505Y215004D01*
X271996Y216495D01*
X273945Y217303D01*
X276055Y217303D01*
X278004Y216495D01*
X279293Y215206D01*
X279319Y215186D01*
X279340Y215162D01*
X279406Y215119D01*
X279411Y215114D01*
X279418Y215111D01*
X279432Y215102D01*
X279519Y215036D01*
X279549Y215025D01*
X279576Y215007D01*
X279681Y214976D01*
X279783Y214937D01*
X279815Y214934D01*
X279846Y214925D01*
X279955Y214924D01*
X280064Y214915D01*
X280096Y214922D01*
X280128Y214921D01*
X280233Y214951D01*
X280340Y214973D01*
X280369Y214988D01*
X280400Y214997D01*
X280493Y215054D01*
X280589Y215105D01*
X280612Y215128D01*
X280640Y215145D01*
X280713Y215226D01*
X280791Y215302D01*
X280807Y215330D01*
X280829Y215354D01*
X280876Y215452D01*
X280930Y215547D01*
X280938Y215579D01*
X280952Y215608D01*
X280966Y215697D01*
X280995Y215822D01*
X280993Y215870D01*
X280999Y215912D01*
X280999Y224895D01*
X280986Y224990D01*
X280981Y225086D01*
X280966Y225129D01*
X280959Y225174D01*
X280920Y225262D01*
X280888Y225353D01*
X280863Y225387D01*
X280843Y225431D01*
X280760Y225529D01*
X280733Y225566D01*
X280726Y225576D01*
X280723Y225579D01*
X280707Y225602D01*
X255602Y250707D01*
X255525Y250764D01*
X255453Y250829D01*
X255412Y250849D01*
X255376Y250876D01*
X255286Y250910D01*
X255200Y250952D01*
X255158Y250958D01*
X255112Y250975D01*
X254985Y250985D01*
X254895Y250999D01*
X236302Y250999D01*
X236238Y250990D01*
X236174Y250991D01*
X236099Y250970D01*
X236023Y250959D01*
X235964Y250933D01*
X235902Y250916D01*
X235836Y250875D01*
X235766Y250843D01*
X235717Y250801D01*
X235662Y250768D01*
X235610Y250710D01*
X235552Y250660D01*
X235516Y250606D01*
X235473Y250558D01*
X235440Y250489D01*
X235397Y250424D01*
X235378Y250362D01*
X235350Y250305D01*
X235339Y250235D01*
X235315Y250154D01*
X235314Y250069D01*
X235303Y250000D01*
X235303Y248945D01*
X234495Y246996D01*
X233004Y245505D01*
X231055Y244697D01*
X228945Y244697D01*
X226996Y245505D01*
X225505Y246996D01*
X224697Y248945D01*
X224697Y250000D01*
X224688Y250064D01*
X224689Y250128D01*
X224668Y250203D01*
X224657Y250279D01*
X224631Y250338D01*
X224614Y250400D01*
X224573Y250466D01*
X224541Y250536D01*
X224499Y250585D01*
X224466Y250640D01*
X224408Y250692D01*
X224358Y250750D01*
X224304Y250786D01*
X224256Y250829D01*
X224187Y250862D01*
X224122Y250905D01*
X224060Y250924D01*
X224003Y250952D01*
X223933Y250963D01*
X223852Y250987D01*
X223767Y250988D01*
X223698Y250999D01*
X153484Y250999D01*
X153389Y250986D01*
X153293Y250981D01*
X153250Y250966D01*
X153204Y250959D01*
X153117Y250920D01*
X153026Y250888D01*
X152992Y250863D01*
X152948Y250843D01*
X152850Y250760D01*
X152777Y250707D01*
X150817Y248747D01*
X150760Y248670D01*
X150695Y248599D01*
X150675Y248558D01*
X150648Y248521D01*
X150614Y248431D01*
X150572Y248345D01*
X150566Y248303D01*
X150549Y248257D01*
X150539Y248130D01*
X150525Y248040D01*
X150525Y239368D01*
X149632Y238475D01*
X140008Y238475D01*
X139976Y238471D01*
X139944Y238473D01*
X139837Y238451D01*
X139728Y238435D01*
X139699Y238422D01*
X139667Y238416D01*
X139571Y238364D01*
X139471Y238319D01*
X139447Y238298D01*
X139418Y238283D01*
X139340Y238207D01*
X139257Y238136D01*
X139240Y238109D01*
X139216Y238086D01*
X139163Y237991D01*
X139103Y237900D01*
X139093Y237869D01*
X139077Y237841D01*
X139052Y237735D01*
X139020Y237630D01*
X139020Y237598D01*
X139012Y237567D01*
X139018Y237457D01*
X139017Y237348D01*
X139025Y237317D01*
X139027Y237285D01*
X139063Y237182D01*
X139092Y237076D01*
X139109Y237049D01*
X139119Y237018D01*
X139173Y236945D01*
X139240Y236836D01*
X139276Y236804D01*
X139301Y236769D01*
X140253Y235817D01*
X140330Y235760D01*
X140401Y235695D01*
X140442Y235675D01*
X140479Y235648D01*
X140569Y235614D01*
X140655Y235572D01*
X140697Y235566D01*
X140743Y235549D01*
X140870Y235539D01*
X140960Y235525D01*
X149632Y235525D01*
X150525Y234632D01*
X150525Y222368D01*
X149632Y221475D01*
X146460Y221475D01*
X146365Y221462D01*
X146269Y221457D01*
X146225Y221442D01*
X146180Y221435D01*
X146093Y221396D01*
X146002Y221364D01*
X145968Y221339D01*
X145924Y221319D01*
X145826Y221236D01*
X145753Y221183D01*
X144753Y220183D01*
X140801Y216231D01*
X140782Y216205D01*
X140757Y216184D01*
X140697Y216092D01*
X140632Y216005D01*
X140620Y215975D01*
X140603Y215948D01*
X140571Y215843D01*
X140532Y215741D01*
X140530Y215709D01*
X140520Y215678D01*
X140519Y215569D01*
X140510Y215460D01*
X140517Y215428D01*
X140517Y215396D01*
X140546Y215291D01*
X140568Y215184D01*
X140583Y215155D01*
X140592Y215124D01*
X140649Y215031D01*
X140701Y214935D01*
X140723Y214912D01*
X140740Y214884D01*
X140821Y214811D01*
X140897Y214733D01*
X140925Y214717D01*
X140949Y214695D01*
X141048Y214648D01*
X141143Y214594D01*
X141174Y214586D01*
X141203Y214572D01*
X141292Y214558D01*
X141417Y214529D01*
X141466Y214531D01*
X141508Y214525D01*
X158540Y214525D01*
X158635Y214538D01*
X158731Y214543D01*
X158775Y214558D01*
X158820Y214565D01*
X158907Y214604D01*
X158998Y214636D01*
X159032Y214661D01*
X159076Y214681D01*
X159174Y214764D01*
X159247Y214817D01*
X164199Y219769D01*
X164218Y219795D01*
X164243Y219816D01*
X164303Y219908D01*
X164368Y219995D01*
X164380Y220025D01*
X164397Y220052D01*
X164429Y220157D01*
X164468Y220259D01*
X164470Y220291D01*
X164480Y220322D01*
X164481Y220431D01*
X164490Y220540D01*
X164483Y220572D01*
X164483Y220604D01*
X164454Y220709D01*
X164432Y220816D01*
X164417Y220845D01*
X164408Y220876D01*
X164351Y220969D01*
X164299Y221065D01*
X164277Y221088D01*
X164260Y221116D01*
X164179Y221189D01*
X164103Y221267D01*
X164075Y221283D01*
X164051Y221305D01*
X163952Y221352D01*
X163857Y221406D01*
X163826Y221414D01*
X163797Y221428D01*
X163708Y221442D01*
X163583Y221471D01*
X163534Y221469D01*
X163492Y221475D01*
X161368Y221475D01*
X160475Y222368D01*
X160475Y234632D01*
X161368Y235525D01*
X170040Y235525D01*
X170135Y235538D01*
X170231Y235543D01*
X170275Y235558D01*
X170320Y235565D01*
X170407Y235604D01*
X170498Y235636D01*
X170532Y235661D01*
X170576Y235681D01*
X170674Y235764D01*
X170747Y235817D01*
X174930Y240001D01*
X216728Y240001D01*
X226149Y230580D01*
X226149Y230010D01*
X226162Y229915D01*
X226167Y229819D01*
X226182Y229776D01*
X226189Y229731D01*
X226228Y229644D01*
X226260Y229553D01*
X226285Y229518D01*
X226305Y229474D01*
X226388Y229377D01*
X226441Y229304D01*
X226625Y229121D01*
X226625Y221779D01*
X225571Y220725D01*
X222139Y220725D01*
X222091Y220737D01*
X222014Y220733D01*
X221937Y220739D01*
X221874Y220726D01*
X221864Y220725D01*
X220274Y220725D01*
X220210Y220716D01*
X220146Y220717D01*
X220071Y220696D01*
X219995Y220685D01*
X219936Y220659D01*
X219874Y220642D01*
X219808Y220601D01*
X219738Y220569D01*
X219689Y220527D01*
X219634Y220494D01*
X219582Y220436D01*
X219524Y220386D01*
X219488Y220332D01*
X219445Y220284D01*
X219412Y220215D01*
X219369Y220150D01*
X219350Y220088D01*
X219322Y220031D01*
X219311Y219961D01*
X219287Y219880D01*
X219286Y219795D01*
X219275Y219726D01*
X219275Y218139D01*
X219263Y218091D01*
X219267Y218014D01*
X219261Y217937D01*
X219274Y217874D01*
X219275Y217864D01*
X219275Y214139D01*
X219263Y214091D01*
X219267Y214014D01*
X219261Y213937D01*
X219274Y213874D01*
X219275Y213864D01*
X219275Y210139D01*
X219263Y210091D01*
X219267Y210014D01*
X219261Y209937D01*
X219274Y209874D01*
X219275Y209864D01*
X219275Y206139D01*
X219263Y206091D01*
X219267Y206014D01*
X219261Y205937D01*
X219274Y205874D01*
X219275Y205864D01*
X219275Y202139D01*
X219263Y202091D01*
X219267Y202014D01*
X219261Y201937D01*
X219274Y201874D01*
X219275Y201864D01*
X219275Y200274D01*
X219284Y200210D01*
X219283Y200146D01*
X219304Y200071D01*
X219315Y199995D01*
X219341Y199936D01*
X219358Y199874D01*
X219399Y199808D01*
X219431Y199738D01*
X219473Y199689D01*
X219506Y199634D01*
X219564Y199582D01*
X219614Y199524D01*
X219668Y199488D01*
X219716Y199445D01*
X219785Y199412D01*
X219850Y199369D01*
X219912Y199350D01*
X219969Y199322D01*
X220039Y199311D01*
X220120Y199287D01*
X220205Y199286D01*
X220274Y199275D01*
X221571Y199275D01*
X222625Y198221D01*
X222625Y190879D01*
X221571Y189825D01*
X218429Y189825D01*
X217375Y190879D01*
X217375Y196376D01*
X217366Y196440D01*
X217367Y196504D01*
X217346Y196579D01*
X217335Y196655D01*
X217309Y196714D01*
X217292Y196776D01*
X217251Y196842D01*
X217219Y196912D01*
X217177Y196961D01*
X217144Y197016D01*
X217086Y197068D01*
X217036Y197126D01*
X216982Y197162D01*
X216934Y197205D01*
X216865Y197238D01*
X216800Y197281D01*
X216738Y197300D01*
X216681Y197328D01*
X216611Y197339D01*
X216530Y197363D01*
X216445Y197364D01*
X216376Y197375D01*
X210879Y197375D01*
X209825Y198429D01*
X209825Y201861D01*
X209837Y201910D01*
X209833Y201987D01*
X209839Y202064D01*
X209826Y202128D01*
X209825Y202134D01*
X209825Y205861D01*
X209837Y205910D01*
X209833Y205987D01*
X209839Y206064D01*
X209826Y206128D01*
X209825Y206134D01*
X209825Y209861D01*
X209837Y209910D01*
X209833Y209987D01*
X209839Y210064D01*
X209826Y210128D01*
X209825Y210134D01*
X209825Y213861D01*
X209837Y213910D01*
X209833Y213987D01*
X209839Y214064D01*
X209826Y214128D01*
X209825Y214134D01*
X209825Y217861D01*
X209837Y217910D01*
X209833Y217987D01*
X209839Y218064D01*
X209826Y218128D01*
X209825Y218134D01*
X209825Y221571D01*
X210879Y222625D01*
X216376Y222625D01*
X216440Y222634D01*
X216504Y222633D01*
X216579Y222654D01*
X216655Y222665D01*
X216714Y222691D01*
X216776Y222708D01*
X216842Y222749D01*
X216912Y222781D01*
X216961Y222823D01*
X217016Y222856D01*
X217068Y222914D01*
X217126Y222964D01*
X217162Y223018D01*
X217205Y223066D01*
X217238Y223135D01*
X217281Y223200D01*
X217300Y223262D01*
X217328Y223319D01*
X217339Y223389D01*
X217363Y223470D01*
X217364Y223555D01*
X217375Y223624D01*
X217375Y224090D01*
X217362Y224185D01*
X217357Y224281D01*
X217342Y224325D01*
X217335Y224370D01*
X217296Y224457D01*
X217264Y224548D01*
X217239Y224582D01*
X217219Y224626D01*
X217136Y224724D01*
X217083Y224797D01*
X216197Y225683D01*
X216120Y225740D01*
X216049Y225805D01*
X216008Y225825D01*
X215971Y225852D01*
X215881Y225886D01*
X215795Y225928D01*
X215753Y225934D01*
X215707Y225951D01*
X215580Y225961D01*
X215490Y225975D01*
X196524Y225975D01*
X196460Y225966D01*
X196396Y225967D01*
X196321Y225946D01*
X196245Y225935D01*
X196186Y225909D01*
X196124Y225892D01*
X196058Y225851D01*
X195988Y225819D01*
X195939Y225777D01*
X195884Y225744D01*
X195832Y225686D01*
X195774Y225636D01*
X195738Y225582D01*
X195695Y225534D01*
X195662Y225465D01*
X195619Y225400D01*
X195600Y225338D01*
X195572Y225281D01*
X195561Y225211D01*
X195537Y225130D01*
X195536Y225045D01*
X195525Y224976D01*
X195525Y222368D01*
X194632Y221475D01*
X184460Y221475D01*
X184365Y221462D01*
X184269Y221457D01*
X184225Y221442D01*
X184180Y221435D01*
X184093Y221396D01*
X184002Y221364D01*
X183968Y221339D01*
X183924Y221319D01*
X183826Y221236D01*
X183753Y221183D01*
X156546Y193975D01*
X147093Y193975D01*
X147061Y193971D01*
X147029Y193973D01*
X146922Y193951D01*
X146814Y193935D01*
X146785Y193922D01*
X146753Y193916D01*
X146657Y193864D01*
X146557Y193819D01*
X146533Y193798D01*
X146504Y193783D01*
X146426Y193707D01*
X146343Y193636D01*
X146325Y193609D01*
X146302Y193586D01*
X146248Y193491D01*
X146189Y193400D01*
X146179Y193369D01*
X146163Y193341D01*
X146138Y193235D01*
X146106Y193130D01*
X146106Y193098D01*
X146098Y193066D01*
X146104Y192957D01*
X146102Y192848D01*
X146111Y192817D01*
X146113Y192785D01*
X146148Y192682D01*
X146178Y192576D01*
X146195Y192549D01*
X146205Y192518D01*
X146259Y192445D01*
X146326Y192336D01*
X146339Y192324D01*
X146342Y192321D01*
X146365Y192299D01*
X146387Y192269D01*
X146525Y192132D01*
X146525Y187868D01*
X145632Y186975D01*
X128368Y186975D01*
X128161Y187183D01*
X128084Y187240D01*
X128013Y187305D01*
X127972Y187325D01*
X127936Y187352D01*
X127846Y187386D01*
X127759Y187428D01*
X127717Y187434D01*
X127672Y187451D01*
X127544Y187461D01*
X127455Y187475D01*
X125954Y187475D01*
X121475Y191954D01*
X121475Y206046D01*
X127199Y211769D01*
X127218Y211795D01*
X127243Y211816D01*
X127303Y211908D01*
X127368Y211995D01*
X127380Y212025D01*
X127397Y212052D01*
X127429Y212157D01*
X127468Y212259D01*
X127470Y212291D01*
X127480Y212322D01*
X127481Y212431D01*
X127490Y212540D01*
X127483Y212572D01*
X127483Y212604D01*
X127454Y212709D01*
X127432Y212816D01*
X127417Y212845D01*
X127408Y212876D01*
X127351Y212969D01*
X127299Y213065D01*
X127277Y213088D01*
X127260Y213116D01*
X127179Y213189D01*
X127103Y213267D01*
X127075Y213283D01*
X127051Y213305D01*
X126952Y213352D01*
X126857Y213406D01*
X126826Y213414D01*
X126797Y213428D01*
X126708Y213442D01*
X126583Y213471D01*
X126534Y213469D01*
X126492Y213475D01*
X115960Y213475D01*
X115865Y213462D01*
X115769Y213457D01*
X115725Y213442D01*
X115680Y213435D01*
X115593Y213396D01*
X115502Y213364D01*
X115468Y213339D01*
X115424Y213319D01*
X115326Y213236D01*
X115253Y213183D01*
X105817Y203747D01*
X105760Y203670D01*
X105695Y203599D01*
X105675Y203558D01*
X105648Y203521D01*
X105614Y203431D01*
X105572Y203345D01*
X105566Y203303D01*
X105549Y203257D01*
X105539Y203130D01*
X105525Y203040D01*
X105525Y200524D01*
X105534Y200460D01*
X105533Y200396D01*
X105554Y200321D01*
X105565Y200245D01*
X105591Y200186D01*
X105608Y200124D01*
X105649Y200058D01*
X105681Y199988D01*
X105723Y199939D01*
X105756Y199884D01*
X105814Y199832D01*
X105864Y199774D01*
X105918Y199738D01*
X105966Y199695D01*
X106035Y199662D01*
X106100Y199619D01*
X106162Y199600D01*
X106219Y199572D01*
X106289Y199561D01*
X106370Y199537D01*
X106455Y199536D01*
X106524Y199525D01*
X111632Y199525D01*
X112525Y198632D01*
X112525Y194368D01*
X112113Y193957D01*
X112074Y193905D01*
X112028Y193860D01*
X111990Y193793D01*
X111944Y193731D01*
X111921Y193671D01*
X111889Y193615D01*
X111871Y193540D01*
X111844Y193467D01*
X111839Y193403D01*
X111824Y193341D01*
X111828Y193263D01*
X111822Y193186D01*
X111835Y193123D01*
X111839Y193059D01*
X111864Y192986D01*
X111880Y192910D01*
X111910Y192853D01*
X111931Y192792D01*
X111972Y192736D01*
X112012Y192661D01*
X112072Y192600D01*
X112113Y192543D01*
X112525Y192132D01*
X112525Y187868D01*
X112113Y187457D01*
X112074Y187405D01*
X112028Y187360D01*
X111990Y187293D01*
X111944Y187231D01*
X111921Y187171D01*
X111889Y187115D01*
X111871Y187040D01*
X111844Y186967D01*
X111839Y186903D01*
X111824Y186841D01*
X111828Y186763D01*
X111822Y186686D01*
X111835Y186623D01*
X111839Y186559D01*
X111864Y186486D01*
X111880Y186410D01*
X111910Y186353D01*
X111931Y186292D01*
X111972Y186236D01*
X112012Y186161D01*
X112072Y186100D01*
X112113Y186043D01*
X112525Y185632D01*
X112525Y181368D01*
X112113Y180957D01*
X112074Y180905D01*
X112028Y180860D01*
X111990Y180793D01*
X111944Y180731D01*
X111921Y180671D01*
X111889Y180615D01*
X111871Y180540D01*
X111844Y180467D01*
X111839Y180403D01*
X111824Y180341D01*
X111828Y180263D01*
X111822Y180186D01*
X111835Y180123D01*
X111839Y180059D01*
X111864Y179986D01*
X111880Y179910D01*
X111910Y179853D01*
X111931Y179792D01*
X111972Y179736D01*
X112012Y179661D01*
X112072Y179600D01*
X112113Y179543D01*
X112525Y179132D01*
X112525Y174868D01*
X111632Y173975D01*
X100000Y173975D01*
X99936Y173966D01*
X99872Y173967D01*
X99797Y173946D01*
X99721Y173935D01*
X99662Y173909D01*
X99600Y173892D01*
X99534Y173851D01*
X99464Y173819D01*
X99415Y173777D01*
X99360Y173744D01*
X99308Y173686D01*
X99250Y173636D01*
X99214Y173582D01*
X99171Y173534D01*
X99138Y173465D01*
X99095Y173400D01*
X99076Y173338D01*
X99048Y173281D01*
X99037Y173211D01*
X99013Y173130D01*
X99012Y173045D01*
X99001Y172976D01*
X99001Y140000D01*
X99010Y139936D01*
X99009Y139872D01*
X99030Y139797D01*
X99041Y139721D01*
X99067Y139662D01*
X99084Y139600D01*
X99125Y139534D01*
X99157Y139464D01*
X99199Y139415D01*
X99232Y139360D01*
X99290Y139308D01*
X99340Y139250D01*
X99394Y139214D01*
X99442Y139171D01*
X99511Y139138D01*
X99576Y139095D01*
X99638Y139076D01*
X99695Y139048D01*
X99765Y139037D01*
X99846Y139013D01*
X99931Y139012D01*
X100000Y139001D01*
X232017Y139001D01*
X232059Y139007D01*
G37*
%LPC*%
G36*
X218368Y166475D02*
X218368Y166475D01*
X217475Y167368D01*
X217475Y178476D01*
X217466Y178540D01*
X217467Y178604D01*
X217446Y178679D01*
X217435Y178755D01*
X217409Y178814D01*
X217392Y178876D01*
X217351Y178942D01*
X217319Y179012D01*
X217277Y179061D01*
X217244Y179116D01*
X217186Y179168D01*
X217136Y179226D01*
X217082Y179262D01*
X217034Y179305D01*
X216965Y179338D01*
X216900Y179381D01*
X216838Y179400D01*
X216781Y179428D01*
X216711Y179439D01*
X216630Y179463D01*
X216545Y179464D01*
X216476Y179475D01*
X216362Y179475D01*
X216352Y179474D01*
X216343Y179475D01*
X216212Y179454D01*
X216082Y179435D01*
X216074Y179432D01*
X216064Y179430D01*
X215945Y179373D01*
X215825Y179319D01*
X215818Y179313D01*
X215810Y179309D01*
X215711Y179221D01*
X215611Y179136D01*
X215606Y179128D01*
X215599Y179122D01*
X215564Y179065D01*
X214004Y177505D01*
X212055Y176697D01*
X209945Y176697D01*
X207996Y177505D01*
X206505Y178996D01*
X205697Y180945D01*
X205697Y183055D01*
X206505Y185004D01*
X207996Y186495D01*
X209945Y187303D01*
X212055Y187303D01*
X214004Y186495D01*
X215555Y184944D01*
X215582Y184899D01*
X215589Y184892D01*
X215594Y184884D01*
X215692Y184796D01*
X215788Y184706D01*
X215796Y184702D01*
X215803Y184695D01*
X215922Y184638D01*
X216039Y184578D01*
X216048Y184576D01*
X216057Y184572D01*
X216133Y184560D01*
X216316Y184526D01*
X216340Y184528D01*
X216362Y184525D01*
X223540Y184525D01*
X223635Y184538D01*
X223731Y184543D01*
X223775Y184558D01*
X223820Y184565D01*
X223907Y184604D01*
X223998Y184636D01*
X224032Y184661D01*
X224076Y184681D01*
X224174Y184764D01*
X224247Y184817D01*
X225183Y185753D01*
X225240Y185830D01*
X225305Y185901D01*
X225325Y185942D01*
X225352Y185979D01*
X225386Y186069D01*
X225428Y186155D01*
X225434Y186197D01*
X225451Y186243D01*
X225461Y186370D01*
X225475Y186460D01*
X225475Y190366D01*
X225462Y190461D01*
X225457Y190557D01*
X225442Y190600D01*
X225435Y190645D01*
X225396Y190732D01*
X225375Y190792D01*
X225375Y198221D01*
X226429Y199275D01*
X229861Y199275D01*
X229909Y199263D01*
X229986Y199267D01*
X230063Y199261D01*
X230126Y199274D01*
X230136Y199275D01*
X233861Y199275D01*
X233909Y199263D01*
X233986Y199267D01*
X234063Y199261D01*
X234126Y199274D01*
X234136Y199275D01*
X237861Y199275D01*
X237909Y199263D01*
X237986Y199267D01*
X238063Y199261D01*
X238126Y199274D01*
X238136Y199275D01*
X241571Y199275D01*
X242625Y198221D01*
X242625Y190879D01*
X241571Y189825D01*
X239524Y189825D01*
X239460Y189816D01*
X239396Y189817D01*
X239321Y189796D01*
X239245Y189785D01*
X239186Y189759D01*
X239124Y189742D01*
X239058Y189701D01*
X238988Y189669D01*
X238939Y189627D01*
X238884Y189594D01*
X238832Y189536D01*
X238774Y189486D01*
X238738Y189432D01*
X238695Y189384D01*
X238662Y189315D01*
X238619Y189250D01*
X238600Y189188D01*
X238572Y189131D01*
X238561Y189061D01*
X238537Y188980D01*
X238536Y188895D01*
X238525Y188826D01*
X238525Y180524D01*
X238534Y180460D01*
X238533Y180396D01*
X238554Y180321D01*
X238565Y180245D01*
X238591Y180186D01*
X238608Y180124D01*
X238649Y180058D01*
X238681Y179988D01*
X238723Y179939D01*
X238756Y179884D01*
X238814Y179832D01*
X238864Y179774D01*
X238918Y179738D01*
X238966Y179695D01*
X239035Y179662D01*
X239100Y179619D01*
X239162Y179600D01*
X239219Y179572D01*
X239289Y179561D01*
X239370Y179537D01*
X239455Y179536D01*
X239524Y179525D01*
X247632Y179525D01*
X248758Y178398D01*
X248853Y178327D01*
X248945Y178252D01*
X248966Y178242D01*
X248984Y178229D01*
X249094Y178187D01*
X249204Y178140D01*
X249226Y178137D01*
X249248Y178129D01*
X249366Y178120D01*
X249484Y178106D01*
X249506Y178109D01*
X249529Y178107D01*
X249645Y178132D01*
X249762Y178151D01*
X249783Y178160D01*
X249805Y178165D01*
X249910Y178221D01*
X250017Y178272D01*
X250034Y178287D01*
X250054Y178298D01*
X250139Y178380D01*
X250227Y178459D01*
X250239Y178477D01*
X250256Y178494D01*
X250348Y178657D01*
X250388Y178722D01*
X250505Y179004D01*
X251794Y180293D01*
X251804Y180307D01*
X251807Y180309D01*
X251815Y180321D01*
X251833Y180345D01*
X251879Y180390D01*
X251917Y180457D01*
X251963Y180519D01*
X251986Y180579D01*
X252018Y180635D01*
X252036Y180710D01*
X252063Y180783D01*
X252068Y180847D01*
X252083Y180909D01*
X252079Y180987D01*
X252085Y181064D01*
X252072Y181127D01*
X252068Y181191D01*
X252043Y181264D01*
X252027Y181340D01*
X251997Y181397D01*
X251976Y181458D01*
X251935Y181514D01*
X251895Y181589D01*
X251836Y181650D01*
X251794Y181707D01*
X250505Y182996D01*
X249697Y184945D01*
X249697Y187055D01*
X250505Y189004D01*
X251996Y190495D01*
X253945Y191303D01*
X256055Y191303D01*
X258004Y190495D01*
X259495Y189004D01*
X260303Y187055D01*
X260303Y184945D01*
X259495Y182996D01*
X258206Y181707D01*
X258167Y181655D01*
X258121Y181610D01*
X258083Y181543D01*
X258036Y181481D01*
X258014Y181421D01*
X257982Y181365D01*
X257964Y181290D01*
X257937Y181217D01*
X257932Y181153D01*
X257917Y181090D01*
X257921Y181013D01*
X257915Y180936D01*
X257928Y180873D01*
X257932Y180809D01*
X257957Y180736D01*
X257973Y180660D01*
X258003Y180603D01*
X258024Y180542D01*
X258065Y180486D01*
X258105Y180411D01*
X258160Y180355D01*
X258175Y180330D01*
X258187Y180319D01*
X258206Y180293D01*
X259495Y179004D01*
X260303Y177055D01*
X260303Y174945D01*
X259495Y172996D01*
X258004Y171505D01*
X256055Y170697D01*
X253861Y170697D01*
X253811Y170710D01*
X253801Y170710D01*
X253791Y170712D01*
X253660Y170705D01*
X253529Y170701D01*
X253519Y170698D01*
X253509Y170698D01*
X253386Y170655D01*
X253260Y170614D01*
X253252Y170609D01*
X253243Y170605D01*
X253180Y170559D01*
X253057Y170475D01*
X249524Y170475D01*
X249460Y170466D01*
X249396Y170467D01*
X249321Y170446D01*
X249245Y170435D01*
X249186Y170409D01*
X249124Y170392D01*
X249058Y170351D01*
X248988Y170319D01*
X248939Y170277D01*
X248884Y170244D01*
X248832Y170186D01*
X248774Y170136D01*
X248738Y170082D01*
X248695Y170034D01*
X248662Y169965D01*
X248619Y169900D01*
X248600Y169838D01*
X248572Y169781D01*
X248561Y169711D01*
X248537Y169630D01*
X248536Y169545D01*
X248525Y169476D01*
X248525Y167368D01*
X247632Y166475D01*
X235368Y166475D01*
X234475Y167368D01*
X234475Y176040D01*
X234467Y176098D01*
X234467Y176101D01*
X234466Y176104D01*
X234462Y176135D01*
X234457Y176231D01*
X234442Y176275D01*
X234435Y176320D01*
X234396Y176407D01*
X234364Y176498D01*
X234339Y176532D01*
X234319Y176576D01*
X234236Y176674D01*
X234183Y176747D01*
X233231Y177699D01*
X233205Y177718D01*
X233184Y177743D01*
X233122Y177783D01*
X233102Y177801D01*
X233080Y177812D01*
X233005Y177868D01*
X232975Y177880D01*
X232948Y177897D01*
X232843Y177929D01*
X232741Y177968D01*
X232709Y177970D01*
X232678Y177980D01*
X232569Y177981D01*
X232460Y177990D01*
X232428Y177983D01*
X232396Y177983D01*
X232291Y177954D01*
X232184Y177932D01*
X232155Y177917D01*
X232124Y177908D01*
X232031Y177851D01*
X231935Y177799D01*
X231912Y177777D01*
X231884Y177760D01*
X231811Y177679D01*
X231733Y177603D01*
X231717Y177575D01*
X231695Y177551D01*
X231648Y177453D01*
X231594Y177357D01*
X231586Y177326D01*
X231572Y177297D01*
X231558Y177208D01*
X231548Y177162D01*
X231537Y177126D01*
X231537Y177115D01*
X231529Y177083D01*
X231531Y177035D01*
X231525Y176992D01*
X231525Y167368D01*
X230632Y166475D01*
X218368Y166475D01*
G37*
%LPD*%
%LPC*%
G36*
X241779Y201375D02*
X241779Y201375D01*
X240725Y202429D01*
X240725Y205861D01*
X240737Y205909D01*
X240733Y205986D01*
X240739Y206063D01*
X240726Y206126D01*
X240725Y206136D01*
X240725Y209861D01*
X240737Y209909D01*
X240733Y209986D01*
X240739Y210063D01*
X240726Y210126D01*
X240725Y210136D01*
X240725Y213861D01*
X240737Y213909D01*
X240733Y213986D01*
X240739Y214063D01*
X240726Y214126D01*
X240725Y214136D01*
X240725Y217861D01*
X240737Y217909D01*
X240733Y217986D01*
X240739Y218063D01*
X240726Y218126D01*
X240725Y218136D01*
X240725Y219726D01*
X240716Y219790D01*
X240717Y219854D01*
X240696Y219929D01*
X240685Y220005D01*
X240659Y220064D01*
X240642Y220126D01*
X240601Y220192D01*
X240569Y220262D01*
X240527Y220311D01*
X240494Y220366D01*
X240436Y220418D01*
X240386Y220476D01*
X240332Y220512D01*
X240284Y220555D01*
X240215Y220588D01*
X240150Y220631D01*
X240088Y220650D01*
X240031Y220678D01*
X239961Y220689D01*
X239880Y220713D01*
X239795Y220714D01*
X239726Y220725D01*
X238139Y220725D01*
X238091Y220737D01*
X238014Y220733D01*
X237937Y220739D01*
X237874Y220726D01*
X237864Y220725D01*
X234139Y220725D01*
X234091Y220737D01*
X234014Y220733D01*
X233937Y220739D01*
X233874Y220726D01*
X233864Y220725D01*
X230429Y220725D01*
X229375Y221779D01*
X229375Y229121D01*
X230429Y230175D01*
X232476Y230175D01*
X232540Y230184D01*
X232604Y230183D01*
X232679Y230204D01*
X232755Y230215D01*
X232814Y230241D01*
X232876Y230258D01*
X232942Y230299D01*
X233012Y230331D01*
X233061Y230373D01*
X233116Y230406D01*
X233168Y230464D01*
X233226Y230514D01*
X233262Y230568D01*
X233305Y230616D01*
X233338Y230685D01*
X233381Y230750D01*
X233400Y230812D01*
X233428Y230869D01*
X233439Y230939D01*
X233463Y231020D01*
X233464Y231105D01*
X233475Y231174D01*
X233475Y233046D01*
X237954Y237525D01*
X242638Y237525D01*
X242648Y237526D01*
X242657Y237525D01*
X242788Y237546D01*
X242918Y237565D01*
X242926Y237568D01*
X242936Y237570D01*
X243055Y237627D01*
X243175Y237681D01*
X243182Y237687D01*
X243190Y237691D01*
X243289Y237778D01*
X243389Y237864D01*
X243394Y237872D01*
X243401Y237878D01*
X243436Y237935D01*
X244996Y239495D01*
X246945Y240303D01*
X249055Y240303D01*
X251004Y239495D01*
X252495Y238004D01*
X253303Y236055D01*
X253303Y233945D01*
X252495Y231996D01*
X251132Y230632D01*
X251114Y230609D01*
X251094Y230592D01*
X251065Y230548D01*
X251020Y230500D01*
X250995Y230451D01*
X250962Y230407D01*
X250948Y230368D01*
X250940Y230356D01*
X250929Y230320D01*
X250892Y230248D01*
X250882Y230194D01*
X250863Y230143D01*
X250859Y230090D01*
X250858Y230087D01*
X250857Y230075D01*
X250856Y230056D01*
X250840Y229971D01*
X250845Y229916D01*
X250841Y229862D01*
X250859Y229777D01*
X250867Y229690D01*
X250887Y229639D01*
X250899Y229586D01*
X250939Y229509D01*
X250971Y229428D01*
X251005Y229385D01*
X251031Y229337D01*
X251092Y229274D01*
X251145Y229206D01*
X251189Y229174D01*
X251228Y229135D01*
X251303Y229092D01*
X251374Y229041D01*
X251425Y229023D01*
X251473Y228995D01*
X251558Y228975D01*
X251639Y228946D01*
X251694Y228943D01*
X251748Y228931D01*
X251834Y228935D01*
X251845Y228933D01*
X251855Y228933D01*
X251857Y228934D01*
X251921Y228930D01*
X251970Y228942D01*
X252029Y228945D01*
X252094Y228967D01*
X252134Y228973D01*
X252174Y228991D01*
X252220Y229003D01*
X252945Y229303D01*
X255055Y229303D01*
X257004Y228495D01*
X258495Y227004D01*
X259303Y225055D01*
X259303Y222945D01*
X258495Y220996D01*
X257004Y219505D01*
X255055Y218697D01*
X252945Y218697D01*
X251556Y219273D01*
X251442Y219302D01*
X251328Y219337D01*
X251305Y219337D01*
X251283Y219343D01*
X251165Y219339D01*
X251046Y219340D01*
X251024Y219334D01*
X251001Y219334D01*
X250889Y219297D01*
X250774Y219265D01*
X250755Y219253D01*
X250733Y219246D01*
X250635Y219179D01*
X250534Y219117D01*
X250519Y219100D01*
X250500Y219087D01*
X250425Y218996D01*
X250345Y218908D01*
X250335Y218887D01*
X250321Y218870D01*
X250274Y218761D01*
X250222Y218654D01*
X250219Y218633D01*
X250209Y218610D01*
X250187Y218426D01*
X250175Y218349D01*
X250175Y218139D01*
X250163Y218090D01*
X250167Y218013D01*
X250161Y217936D01*
X250174Y217872D01*
X250175Y217866D01*
X250175Y214139D01*
X250163Y214090D01*
X250167Y214013D01*
X250161Y213936D01*
X250174Y213872D01*
X250175Y213866D01*
X250175Y210139D01*
X250163Y210090D01*
X250167Y210013D01*
X250161Y209936D01*
X250174Y209872D01*
X250175Y209866D01*
X250175Y206139D01*
X250163Y206090D01*
X250167Y206013D01*
X250161Y205936D01*
X250174Y205872D01*
X250175Y205866D01*
X250175Y202429D01*
X249121Y201375D01*
X241779Y201375D01*
G37*
%LPD*%
%LPC*%
G36*
X155945Y153697D02*
X155945Y153697D01*
X153996Y154505D01*
X152505Y155996D01*
X151697Y157945D01*
X151697Y160055D01*
X152505Y162004D01*
X153996Y163495D01*
X155987Y164320D01*
X156009Y164321D01*
X156053Y164336D01*
X156098Y164343D01*
X156185Y164382D01*
X156276Y164414D01*
X156310Y164439D01*
X156354Y164459D01*
X156452Y164542D01*
X156525Y164595D01*
X163183Y171253D01*
X163240Y171330D01*
X163305Y171401D01*
X163325Y171442D01*
X163352Y171479D01*
X163378Y171547D01*
X163381Y171552D01*
X163386Y171570D01*
X163428Y171655D01*
X163434Y171697D01*
X163451Y171743D01*
X163456Y171797D01*
X163463Y171822D01*
X163464Y171889D01*
X163475Y171960D01*
X163475Y180632D01*
X164368Y181525D01*
X175632Y181525D01*
X176525Y180632D01*
X176525Y168368D01*
X175632Y167475D01*
X166960Y167475D01*
X166865Y167462D01*
X166769Y167457D01*
X166725Y167442D01*
X166680Y167435D01*
X166593Y167396D01*
X166502Y167364D01*
X166468Y167339D01*
X166424Y167319D01*
X166326Y167236D01*
X166253Y167183D01*
X161844Y162774D01*
X161839Y162766D01*
X161831Y162760D01*
X161754Y162654D01*
X161675Y162548D01*
X161672Y162539D01*
X161666Y162532D01*
X161622Y162408D01*
X161575Y162284D01*
X161575Y162275D01*
X161571Y162266D01*
X161564Y162134D01*
X161554Y162003D01*
X161556Y161994D01*
X161555Y161984D01*
X161573Y161909D01*
X161611Y161727D01*
X161622Y161706D01*
X161628Y161685D01*
X162303Y160055D01*
X162303Y157945D01*
X161495Y155996D01*
X160004Y154505D01*
X158055Y153697D01*
X155945Y153697D01*
G37*
%LPD*%
%LPC*%
G36*
X149945Y165697D02*
X149945Y165697D01*
X147996Y166505D01*
X146445Y168056D01*
X146418Y168101D01*
X146411Y168108D01*
X146406Y168116D01*
X146308Y168204D01*
X146212Y168294D01*
X146204Y168298D01*
X146197Y168305D01*
X146078Y168362D01*
X145961Y168422D01*
X145952Y168424D01*
X145943Y168428D01*
X145867Y168440D01*
X145684Y168474D01*
X145660Y168472D01*
X145638Y168475D01*
X141954Y168475D01*
X136747Y173683D01*
X136670Y173740D01*
X136599Y173805D01*
X136558Y173825D01*
X136521Y173852D01*
X136431Y173886D01*
X136345Y173928D01*
X136303Y173934D01*
X136257Y173951D01*
X136130Y173961D01*
X136040Y173975D01*
X128368Y173975D01*
X127475Y174868D01*
X127475Y179132D01*
X128368Y180025D01*
X145632Y180025D01*
X146525Y179132D01*
X146525Y176381D01*
X146541Y176264D01*
X146553Y176146D01*
X146561Y176125D01*
X146565Y176102D01*
X146613Y175994D01*
X146657Y175884D01*
X146671Y175866D01*
X146681Y175845D01*
X146758Y175755D01*
X146831Y175662D01*
X146849Y175648D01*
X146864Y175631D01*
X146964Y175566D01*
X147060Y175497D01*
X147081Y175489D01*
X147100Y175476D01*
X147214Y175442D01*
X147325Y175402D01*
X147348Y175401D01*
X147370Y175394D01*
X147488Y175393D01*
X147607Y175386D01*
X147628Y175391D01*
X147652Y175390D01*
X147831Y175440D01*
X147906Y175458D01*
X149945Y176303D01*
X152055Y176303D01*
X154004Y175495D01*
X155495Y174004D01*
X156303Y172055D01*
X156303Y169945D01*
X155495Y167996D01*
X154004Y166505D01*
X152055Y165697D01*
X149945Y165697D01*
G37*
%LPD*%
D10*
X-99400Y303800D03*
X-74000Y303800D03*
X-48600Y303800D03*
X-23200Y303800D03*
X2200Y303800D03*
X27600Y303800D03*
X53000Y303800D03*
X78400Y303800D03*
X103800Y303800D03*
X129200Y303800D03*
X154600Y303800D03*
X180000Y303800D03*
X205400Y303800D03*
X230800Y303800D03*
X281600Y303800D03*
X307000Y303800D03*
X332400Y303800D03*
X357800Y303800D03*
X230800Y456200D03*
X205400Y456200D03*
X180000Y456200D03*
X154600Y456200D03*
X129200Y456200D03*
X103800Y456200D03*
X78400Y456200D03*
X53000Y456200D03*
X27600Y456200D03*
X2200Y456200D03*
X-23200Y456200D03*
X-48600Y456200D03*
X-74000Y456200D03*
X-99400Y456200D03*
X256200Y303800D03*
X357800Y456200D03*
X332400Y456200D03*
X307000Y456200D03*
X281600Y456200D03*
X256200Y456200D03*
X383200Y303800D03*
X408600Y303800D03*
X434000Y303800D03*
X459400Y303800D03*
X484800Y303800D03*
X484800Y456200D03*
X383200Y456200D03*
X408600Y456200D03*
X434000Y456200D03*
X459400Y456200D03*
D11*
X63000Y166500D03*
X63000Y183500D03*
D12*
X308500Y166000D03*
X325500Y166000D03*
X206500Y540000D03*
X189500Y540000D03*
D13*
X167000Y89750D03*
X190000Y89750D03*
X213000Y89750D03*
D14*
X190000Y150250D03*
D13*
X187000Y359750D03*
X210000Y359750D03*
X233000Y359750D03*
D14*
X210000Y420250D03*
D12*
X-64500Y423000D03*
X-81500Y423000D03*
D11*
X259000Y364500D03*
X259000Y347500D03*
D12*
X241500Y420000D03*
X258500Y420000D03*
D11*
X237000Y103500D03*
X237000Y120500D03*
X144000Y120500D03*
X144000Y103500D03*
X144000Y228500D03*
X144000Y245500D03*
X120000Y228500D03*
X120000Y245500D03*
D12*
X224500Y173000D03*
X241500Y173000D03*
X262500Y199000D03*
X279500Y199000D03*
D11*
X170000Y191500D03*
X170000Y174500D03*
D15*
X211625Y219175D02*
X217475Y219175D01*
X211625Y219175D02*
X211625Y220825D01*
X217475Y220825D01*
X217475Y219175D01*
X217475Y219697D02*
X211625Y219697D01*
X211625Y220219D02*
X217475Y220219D01*
X217475Y220741D02*
X211625Y220741D01*
X211625Y215175D02*
X217475Y215175D01*
X211625Y215175D02*
X211625Y216825D01*
X217475Y216825D01*
X217475Y215175D01*
X217475Y215697D02*
X211625Y215697D01*
X211625Y216219D02*
X217475Y216219D01*
X217475Y216741D02*
X211625Y216741D01*
X211625Y211175D02*
X217475Y211175D01*
X211625Y211175D02*
X211625Y212825D01*
X217475Y212825D01*
X217475Y211175D01*
X217475Y211697D02*
X211625Y211697D01*
X211625Y212219D02*
X217475Y212219D01*
X217475Y212741D02*
X211625Y212741D01*
X211625Y207175D02*
X217475Y207175D01*
X211625Y207175D02*
X211625Y208825D01*
X217475Y208825D01*
X217475Y207175D01*
X217475Y207697D02*
X211625Y207697D01*
X211625Y208219D02*
X217475Y208219D01*
X217475Y208741D02*
X211625Y208741D01*
X211625Y203175D02*
X217475Y203175D01*
X211625Y203175D02*
X211625Y204825D01*
X217475Y204825D01*
X217475Y203175D01*
X217475Y203697D02*
X211625Y203697D01*
X211625Y204219D02*
X217475Y204219D01*
X217475Y204741D02*
X211625Y204741D01*
X211625Y199175D02*
X217475Y199175D01*
X211625Y199175D02*
X211625Y200825D01*
X217475Y200825D01*
X217475Y199175D01*
X217475Y199697D02*
X211625Y199697D01*
X211625Y200219D02*
X217475Y200219D01*
X217475Y200741D02*
X211625Y200741D01*
X220825Y197475D02*
X220825Y191625D01*
X219175Y191625D01*
X219175Y197475D01*
X220825Y197475D01*
X220825Y192147D02*
X219175Y192147D01*
X219175Y192669D02*
X220825Y192669D01*
X220825Y193191D02*
X219175Y193191D01*
X219175Y193713D02*
X220825Y193713D01*
X220825Y194235D02*
X219175Y194235D01*
X219175Y194757D02*
X220825Y194757D01*
X220825Y195279D02*
X219175Y195279D01*
X219175Y195801D02*
X220825Y195801D01*
X220825Y196323D02*
X219175Y196323D01*
X219175Y196845D02*
X220825Y196845D01*
X220825Y197367D02*
X219175Y197367D01*
X224825Y197475D02*
X224825Y191625D01*
X223175Y191625D01*
X223175Y197475D01*
X224825Y197475D01*
X224825Y192147D02*
X223175Y192147D01*
X223175Y192669D02*
X224825Y192669D01*
X224825Y193191D02*
X223175Y193191D01*
X223175Y193713D02*
X224825Y193713D01*
X224825Y194235D02*
X223175Y194235D01*
X223175Y194757D02*
X224825Y194757D01*
X224825Y195279D02*
X223175Y195279D01*
X223175Y195801D02*
X224825Y195801D01*
X224825Y196323D02*
X223175Y196323D01*
X223175Y196845D02*
X224825Y196845D01*
X224825Y197367D02*
X223175Y197367D01*
X228825Y197475D02*
X228825Y191625D01*
X227175Y191625D01*
X227175Y197475D01*
X228825Y197475D01*
X228825Y192147D02*
X227175Y192147D01*
X227175Y192669D02*
X228825Y192669D01*
X228825Y193191D02*
X227175Y193191D01*
X227175Y193713D02*
X228825Y193713D01*
X228825Y194235D02*
X227175Y194235D01*
X227175Y194757D02*
X228825Y194757D01*
X228825Y195279D02*
X227175Y195279D01*
X227175Y195801D02*
X228825Y195801D01*
X228825Y196323D02*
X227175Y196323D01*
X227175Y196845D02*
X228825Y196845D01*
X228825Y197367D02*
X227175Y197367D01*
X232825Y197475D02*
X232825Y191625D01*
X231175Y191625D01*
X231175Y197475D01*
X232825Y197475D01*
X232825Y192147D02*
X231175Y192147D01*
X231175Y192669D02*
X232825Y192669D01*
X232825Y193191D02*
X231175Y193191D01*
X231175Y193713D02*
X232825Y193713D01*
X232825Y194235D02*
X231175Y194235D01*
X231175Y194757D02*
X232825Y194757D01*
X232825Y195279D02*
X231175Y195279D01*
X231175Y195801D02*
X232825Y195801D01*
X232825Y196323D02*
X231175Y196323D01*
X231175Y196845D02*
X232825Y196845D01*
X232825Y197367D02*
X231175Y197367D01*
X236825Y197475D02*
X236825Y191625D01*
X235175Y191625D01*
X235175Y197475D01*
X236825Y197475D01*
X236825Y192147D02*
X235175Y192147D01*
X235175Y192669D02*
X236825Y192669D01*
X236825Y193191D02*
X235175Y193191D01*
X235175Y193713D02*
X236825Y193713D01*
X236825Y194235D02*
X235175Y194235D01*
X235175Y194757D02*
X236825Y194757D01*
X236825Y195279D02*
X235175Y195279D01*
X235175Y195801D02*
X236825Y195801D01*
X236825Y196323D02*
X235175Y196323D01*
X235175Y196845D02*
X236825Y196845D01*
X236825Y197367D02*
X235175Y197367D01*
X240825Y197475D02*
X240825Y191625D01*
X239175Y191625D01*
X239175Y197475D01*
X240825Y197475D01*
X240825Y192147D02*
X239175Y192147D01*
X239175Y192669D02*
X240825Y192669D01*
X240825Y193191D02*
X239175Y193191D01*
X239175Y193713D02*
X240825Y193713D01*
X240825Y194235D02*
X239175Y194235D01*
X239175Y194757D02*
X240825Y194757D01*
X240825Y195279D02*
X239175Y195279D01*
X239175Y195801D02*
X240825Y195801D01*
X240825Y196323D02*
X239175Y196323D01*
X239175Y196845D02*
X240825Y196845D01*
X240825Y197367D02*
X239175Y197367D01*
X242525Y200825D02*
X248375Y200825D01*
X248375Y199175D01*
X242525Y199175D01*
X242525Y200825D01*
X242525Y199697D02*
X248375Y199697D01*
X248375Y200219D02*
X242525Y200219D01*
X242525Y200741D02*
X248375Y200741D01*
X248375Y204825D02*
X242525Y204825D01*
X248375Y204825D02*
X248375Y203175D01*
X242525Y203175D01*
X242525Y204825D01*
X242525Y203697D02*
X248375Y203697D01*
X248375Y204219D02*
X242525Y204219D01*
X242525Y204741D02*
X248375Y204741D01*
X248375Y208825D02*
X242525Y208825D01*
X248375Y208825D02*
X248375Y207175D01*
X242525Y207175D01*
X242525Y208825D01*
X242525Y207697D02*
X248375Y207697D01*
X248375Y208219D02*
X242525Y208219D01*
X242525Y208741D02*
X248375Y208741D01*
X248375Y212825D02*
X242525Y212825D01*
X248375Y212825D02*
X248375Y211175D01*
X242525Y211175D01*
X242525Y212825D01*
X242525Y211697D02*
X248375Y211697D01*
X248375Y212219D02*
X242525Y212219D01*
X242525Y212741D02*
X248375Y212741D01*
X248375Y216825D02*
X242525Y216825D01*
X248375Y216825D02*
X248375Y215175D01*
X242525Y215175D01*
X242525Y216825D01*
X242525Y215697D02*
X248375Y215697D01*
X248375Y216219D02*
X242525Y216219D01*
X242525Y216741D02*
X248375Y216741D01*
X248375Y220825D02*
X242525Y220825D01*
X248375Y220825D02*
X248375Y219175D01*
X242525Y219175D01*
X242525Y220825D01*
X242525Y219697D02*
X248375Y219697D01*
X248375Y220219D02*
X242525Y220219D01*
X242525Y220741D02*
X248375Y220741D01*
X239175Y222525D02*
X239175Y228375D01*
X240825Y228375D01*
X240825Y222525D01*
X239175Y222525D01*
X239175Y223047D02*
X240825Y223047D01*
X240825Y223569D02*
X239175Y223569D01*
X239175Y224091D02*
X240825Y224091D01*
X240825Y224613D02*
X239175Y224613D01*
X239175Y225135D02*
X240825Y225135D01*
X240825Y225657D02*
X239175Y225657D01*
X239175Y226179D02*
X240825Y226179D01*
X240825Y226701D02*
X239175Y226701D01*
X239175Y227223D02*
X240825Y227223D01*
X240825Y227745D02*
X239175Y227745D01*
X239175Y228267D02*
X240825Y228267D01*
X235175Y228375D02*
X235175Y222525D01*
X235175Y228375D02*
X236825Y228375D01*
X236825Y222525D01*
X235175Y222525D01*
X235175Y223047D02*
X236825Y223047D01*
X236825Y223569D02*
X235175Y223569D01*
X235175Y224091D02*
X236825Y224091D01*
X236825Y224613D02*
X235175Y224613D01*
X235175Y225135D02*
X236825Y225135D01*
X236825Y225657D02*
X235175Y225657D01*
X235175Y226179D02*
X236825Y226179D01*
X236825Y226701D02*
X235175Y226701D01*
X235175Y227223D02*
X236825Y227223D01*
X236825Y227745D02*
X235175Y227745D01*
X235175Y228267D02*
X236825Y228267D01*
X231175Y228375D02*
X231175Y222525D01*
X231175Y228375D02*
X232825Y228375D01*
X232825Y222525D01*
X231175Y222525D01*
X231175Y223047D02*
X232825Y223047D01*
X232825Y223569D02*
X231175Y223569D01*
X231175Y224091D02*
X232825Y224091D01*
X232825Y224613D02*
X231175Y224613D01*
X231175Y225135D02*
X232825Y225135D01*
X232825Y225657D02*
X231175Y225657D01*
X231175Y226179D02*
X232825Y226179D01*
X232825Y226701D02*
X231175Y226701D01*
X231175Y227223D02*
X232825Y227223D01*
X232825Y227745D02*
X231175Y227745D01*
X231175Y228267D02*
X232825Y228267D01*
X227175Y228375D02*
X227175Y222525D01*
X227175Y228375D02*
X228825Y228375D01*
X228825Y222525D01*
X227175Y222525D01*
X227175Y223047D02*
X228825Y223047D01*
X228825Y223569D02*
X227175Y223569D01*
X227175Y224091D02*
X228825Y224091D01*
X228825Y224613D02*
X227175Y224613D01*
X227175Y225135D02*
X228825Y225135D01*
X228825Y225657D02*
X227175Y225657D01*
X227175Y226179D02*
X228825Y226179D01*
X228825Y226701D02*
X227175Y226701D01*
X227175Y227223D02*
X228825Y227223D01*
X228825Y227745D02*
X227175Y227745D01*
X227175Y228267D02*
X228825Y228267D01*
X223175Y228375D02*
X223175Y222525D01*
X223175Y228375D02*
X224825Y228375D01*
X224825Y222525D01*
X223175Y222525D01*
X223175Y223047D02*
X224825Y223047D01*
X224825Y223569D02*
X223175Y223569D01*
X223175Y224091D02*
X224825Y224091D01*
X224825Y224613D02*
X223175Y224613D01*
X223175Y225135D02*
X224825Y225135D01*
X224825Y225657D02*
X223175Y225657D01*
X223175Y226179D02*
X224825Y226179D01*
X224825Y226701D02*
X223175Y226701D01*
X223175Y227223D02*
X224825Y227223D01*
X224825Y227745D02*
X223175Y227745D01*
X223175Y228267D02*
X224825Y228267D01*
X219175Y228375D02*
X219175Y222525D01*
X219175Y228375D02*
X220825Y228375D01*
X220825Y222525D01*
X219175Y222525D01*
X219175Y223047D02*
X220825Y223047D01*
X220825Y223569D02*
X219175Y223569D01*
X219175Y224091D02*
X220825Y224091D01*
X220825Y224613D02*
X219175Y224613D01*
X219175Y225135D02*
X220825Y225135D01*
X220825Y225657D02*
X219175Y225657D01*
X219175Y226179D02*
X220825Y226179D01*
X220825Y226701D02*
X219175Y226701D01*
X219175Y227223D02*
X220825Y227223D01*
X220825Y227745D02*
X219175Y227745D01*
X219175Y228267D02*
X220825Y228267D01*
D11*
X284000Y364500D03*
X284000Y347500D03*
X-83000Y391500D03*
X-83000Y374500D03*
X-63000Y391500D03*
X-63000Y374500D03*
D16*
X137000Y177000D03*
X137000Y183500D03*
X137000Y190000D03*
X137000Y196500D03*
X103000Y196500D03*
X103000Y190000D03*
X103000Y183500D03*
X103000Y177000D03*
D11*
X84000Y183500D03*
X84000Y166500D03*
X189000Y228500D03*
X189000Y245500D03*
X167000Y228500D03*
X167000Y245500D03*
D17*
X322700Y122700D03*
X322700Y97300D03*
X297300Y122700D03*
X297300Y97300D03*
X82700Y122700D03*
X82700Y97300D03*
X57300Y122700D03*
X57300Y97300D03*
D18*
X100000Y402050D03*
X100000Y389350D03*
X100000Y376650D03*
X100000Y363950D03*
X154000Y363950D03*
X154000Y376650D03*
X154000Y389350D03*
X154000Y402050D03*
D12*
X101500Y423000D03*
X84500Y423000D03*
X189500Y511000D03*
X206500Y511000D03*
X140500Y423000D03*
X123500Y423000D03*
X190500Y484000D03*
X207500Y484000D03*
D19*
X267300Y507300D03*
X267300Y532700D03*
X292700Y507300D03*
X292700Y532700D03*
D20*
X11750Y21000D03*
X100250Y21000D03*
D21*
X37250Y50000D03*
X62250Y50000D03*
X49750Y50000D03*
X74750Y50000D03*
D20*
X280750Y21000D03*
X369250Y21000D03*
D21*
X306250Y50000D03*
X331250Y50000D03*
X318750Y50000D03*
X343750Y50000D03*
D20*
G36*
X-104652Y112777D02*
X-119708Y127417D01*
X-98794Y148923D01*
X-83738Y134283D01*
X-104652Y112777D01*
G37*
G36*
X-41206Y51077D02*
X-56262Y65717D01*
X-35348Y87223D01*
X-20292Y72583D01*
X-41206Y51077D01*
G37*
D22*
G36*
X-54780Y136808D02*
X-65933Y125339D01*
X-71668Y130916D01*
X-60515Y142385D01*
X-54780Y136808D01*
G37*
G36*
X-36858Y119379D02*
X-48011Y107910D01*
X-53746Y113487D01*
X-42593Y124956D01*
X-36858Y119379D01*
G37*
G36*
X-45819Y128094D02*
X-56972Y116625D01*
X-62707Y122202D01*
X-51554Y133671D01*
X-45819Y128094D01*
G37*
G36*
X-27896Y110665D02*
X-39049Y99196D01*
X-44784Y104773D01*
X-33631Y116242D01*
X-27896Y110665D01*
G37*
D20*
G36*
X435963Y65838D02*
X420781Y51330D01*
X400055Y73018D01*
X415237Y87526D01*
X435963Y65838D01*
G37*
G36*
X499945Y126982D02*
X484763Y112474D01*
X464037Y134162D01*
X479219Y148670D01*
X499945Y126982D01*
G37*
D22*
G36*
X413774Y116559D02*
X424827Y104992D01*
X419044Y99465D01*
X407991Y111032D01*
X413774Y116559D01*
G37*
G36*
X431848Y133831D02*
X442901Y122264D01*
X437118Y116737D01*
X426065Y128304D01*
X431848Y133831D01*
G37*
G36*
X422811Y125195D02*
X433864Y113628D01*
X428081Y108101D01*
X417028Y119668D01*
X422811Y125195D01*
G37*
G36*
X440885Y142467D02*
X451938Y130900D01*
X446155Y125373D01*
X435102Y136940D01*
X440885Y142467D01*
G37*
D23*
X500000Y175750D03*
X500000Y264250D03*
D22*
X471000Y201250D03*
X471000Y226250D03*
X471000Y213750D03*
X471000Y238750D03*
D23*
X-120000Y264250D03*
X-120000Y175750D03*
D22*
X-91000Y238750D03*
X-91000Y213750D03*
X-91000Y226250D03*
X-91000Y201250D03*
D24*
X-20000Y191250D03*
X-20000Y168750D03*
X-29500Y191250D03*
X-10500Y168750D03*
X-29500Y168750D03*
X-10500Y191250D03*
X400000Y191250D03*
X400000Y168750D03*
X390500Y191250D03*
X409500Y168750D03*
X390500Y168750D03*
X409500Y191250D03*
X30000Y191250D03*
X30000Y168750D03*
X20500Y191250D03*
X39500Y168750D03*
X20500Y168750D03*
X39500Y191250D03*
X350000Y191250D03*
X350000Y168750D03*
X340500Y191250D03*
X359500Y168750D03*
X340500Y168750D03*
X359500Y191250D03*
D25*
X190000Y20000D03*
D12*
G36*
X474973Y259956D02*
X474877Y248957D01*
X464879Y249044D01*
X464975Y260043D01*
X474973Y259956D01*
G37*
G36*
X475121Y276956D02*
X475025Y265957D01*
X465027Y266044D01*
X465123Y277043D01*
X475121Y276956D01*
G37*
G36*
X461414Y150343D02*
X453637Y142566D01*
X446566Y149637D01*
X454343Y157414D01*
X461414Y150343D01*
G37*
G36*
X473434Y162363D02*
X465657Y154586D01*
X458586Y161657D01*
X466363Y169434D01*
X473434Y162363D01*
G37*
D11*
X-86000Y178500D03*
X-86000Y161500D03*
D12*
G36*
X-16657Y88586D02*
X-24434Y96363D01*
X-17363Y103434D01*
X-9586Y95657D01*
X-16657Y88586D01*
G37*
G36*
X-4637Y76566D02*
X-12414Y84343D01*
X-5343Y91414D01*
X2434Y83637D01*
X-4637Y76566D01*
G37*
X361500Y51000D03*
X378500Y51000D03*
X91500Y51000D03*
X108500Y51000D03*
D26*
X-26900Y417000D03*
X14900Y417000D03*
D12*
X91500Y337000D03*
X108500Y337000D03*
X146500Y337000D03*
X163500Y337000D03*
D27*
X192000Y171000D03*
D28*
X192000Y196500D03*
D29*
X311000Y420000D03*
D30*
X285500Y420000D03*
D12*
X278500Y50000D03*
X261500Y50000D03*
D11*
X-44000Y236500D03*
X-44000Y219500D03*
D12*
X334500Y270000D03*
X351500Y270000D03*
X297500Y270000D03*
X314500Y270000D03*
D31*
X-60000Y526000D03*
X-25000Y526000D03*
X-95000Y526000D03*
D32*
X-90730Y483500D02*
X-90730Y476500D01*
X-90730Y483500D02*
X-83730Y483500D01*
X-83730Y476500D01*
X-90730Y476500D01*
X-90730Y479350D02*
X-83730Y479350D01*
X-83730Y482200D02*
X-90730Y482200D01*
X-108270Y483500D02*
X-108270Y476500D01*
X-108270Y483500D02*
X-101270Y483500D01*
X-101270Y476500D01*
X-108270Y476500D01*
X-108270Y479350D02*
X-101270Y479350D01*
X-101270Y482200D02*
X-108270Y482200D01*
D12*
X-50500Y480000D03*
X-67500Y480000D03*
D33*
X56600Y532700D03*
X82000Y532700D03*
X107400Y532700D03*
X56600Y507300D03*
X82000Y507300D03*
X107400Y507300D03*
D34*
X-81500Y423000D02*
X-82500Y424000D01*
X-95000Y424000D01*
D35*
X-95000Y424000D03*
X154000Y82000D03*
D34*
X143000Y171000D02*
X137000Y177000D01*
X241500Y173000D02*
X252000Y173000D01*
X255000Y176000D01*
D35*
X255000Y176000D03*
D34*
X236000Y225450D02*
X236000Y232000D01*
X237000Y134000D02*
X237000Y120500D01*
X237000Y134000D02*
X234000Y134000D01*
D35*
X234000Y134000D03*
D34*
X236000Y178500D02*
X236000Y194550D01*
X236000Y178500D02*
X241500Y173000D01*
X228000Y185000D02*
X228000Y194550D01*
X37250Y50000D02*
X25272Y50000D01*
X23328Y51944D01*
D35*
X23328Y51944D03*
D34*
X306250Y50000D02*
X306250Y33750D01*
X308000Y32000D01*
D35*
X308000Y32000D03*
D34*
X187000Y344000D02*
X187000Y359750D01*
X187000Y344000D02*
X183000Y340000D01*
D35*
X183000Y340000D03*
X38000Y149000D03*
X349000Y147000D03*
X84000Y357000D03*
D34*
X-20000Y168750D02*
X-20000Y157000D01*
D35*
X-20000Y157000D03*
D34*
X30000Y157000D02*
X38000Y149000D01*
X30000Y157000D02*
X30000Y168750D01*
X398000Y166750D02*
X400000Y168750D01*
X398000Y166750D02*
X398000Y157556D01*
D35*
X398000Y157556D03*
D34*
X350000Y148000D02*
X350000Y168750D01*
X350000Y148000D02*
X349000Y147000D01*
X471000Y191000D02*
X471000Y201250D01*
X471000Y191000D02*
X470000Y190000D01*
D35*
X470000Y190000D03*
D34*
X416409Y108012D02*
X401629Y93232D01*
X401629Y88345D01*
D35*
X401629Y88345D03*
D34*
X-63224Y133862D02*
X-73362Y144000D01*
X-74000Y144000D01*
D35*
X-74000Y144000D03*
D34*
X-91000Y238750D02*
X-91000Y249000D01*
X-90000Y250000D01*
D35*
X-90000Y250000D03*
D34*
X159250Y82000D02*
X167000Y89750D01*
X159250Y82000D02*
X154000Y82000D01*
X-86000Y161500D02*
X-87500Y160000D01*
X-100000Y160000D01*
D35*
X-100000Y160000D03*
X392000Y36000D03*
D34*
X236000Y232000D02*
X239000Y235000D01*
X248000Y235000D01*
D35*
X248000Y235000D03*
D34*
X144000Y103500D02*
X144000Y96000D01*
X137000Y89000D01*
D35*
X137000Y89000D03*
D34*
X-4990Y83990D02*
X-4990Y75010D01*
X-10000Y70000D01*
D35*
X-10000Y70000D03*
D34*
X325500Y155500D02*
X334000Y147000D01*
X325500Y155500D02*
X325500Y166000D01*
D35*
X334000Y147000D03*
D34*
X392000Y37500D02*
X392000Y36000D01*
X392000Y37500D02*
X378500Y51000D01*
X470074Y271500D02*
X482000Y283426D01*
X482000Y285000D01*
D35*
X482000Y285000D03*
D34*
X467010Y162010D02*
X466010Y162010D01*
X467010Y162010D02*
X476000Y171000D01*
D35*
X476000Y171000D03*
D34*
X117000Y42500D02*
X108500Y51000D01*
X117000Y42500D02*
X117000Y31000D01*
D35*
X117000Y31000D03*
D34*
X143000Y171000D02*
X151000Y171000D01*
D35*
X151000Y171000D03*
D34*
X157000Y161500D02*
X157000Y159000D01*
X157000Y161500D02*
X170000Y174500D01*
D35*
X157000Y159000D03*
D34*
X225000Y182000D02*
X228000Y185000D01*
X225000Y182000D02*
X211000Y182000D01*
D35*
X211000Y182000D03*
D34*
X279500Y199000D02*
X279500Y207500D01*
X275000Y212000D01*
D35*
X275000Y212000D03*
D34*
X249450Y224000D02*
X245450Y220000D01*
X249450Y224000D02*
X254000Y224000D01*
D35*
X254000Y224000D03*
D34*
X68000Y188500D02*
X63000Y183500D01*
X68000Y188500D02*
X68000Y206000D01*
D35*
X68000Y206000D03*
D34*
X258500Y420000D02*
X264000Y425500D01*
X264000Y434000D01*
D35*
X264000Y434000D03*
D34*
X177000Y527500D02*
X189500Y540000D01*
X177000Y527500D02*
X177000Y526000D01*
D35*
X177000Y526000D03*
D34*
X-74000Y456500D02*
X-74000Y456200D01*
X-74000Y456500D02*
X-50500Y480000D01*
X-44000Y244000D02*
X-44000Y236500D01*
X-44000Y244000D02*
X-50000Y250000D01*
D35*
X-50000Y250000D03*
D34*
X330500Y270000D02*
X334500Y270000D01*
X330500Y270000D02*
X324500Y264000D01*
X324500Y258500D01*
X324000Y258000D01*
D35*
X324000Y258000D03*
D34*
X297500Y262500D02*
X297500Y270000D01*
X297500Y262500D02*
X293000Y258000D01*
D35*
X293000Y258000D03*
D34*
X100000Y363950D02*
X93050Y357000D01*
X84000Y357000D01*
D35*
X469000Y356000D03*
D36*
X-9000Y346000D03*
D35*
X77000Y23000D03*
X138000Y263000D03*
X227000Y268000D03*
X323000Y286302D03*
X141000Y56000D03*
X-66000Y240000D03*
X255000Y186000D03*
X150000Y205698D03*
D34*
X-83000Y374500D02*
X-97500Y374500D01*
X-98000Y375000D01*
D35*
X-98000Y375000D03*
D34*
X-63000Y374500D02*
X-51500Y374500D01*
X-51000Y375000D01*
D35*
X-51000Y375000D03*
D34*
X259000Y347500D02*
X271500Y347500D01*
X272000Y348000D01*
D35*
X272000Y348000D03*
D34*
X284000Y347500D02*
X296500Y347500D01*
X297000Y348000D01*
D35*
X297000Y348000D03*
D34*
X123500Y423000D02*
X118620Y427880D01*
X118620Y436000D01*
D35*
X118620Y436000D03*
D34*
X84500Y423000D02*
X78456Y429044D01*
X78456Y435456D01*
D35*
X78456Y435456D03*
D34*
X471000Y238750D02*
X473750Y236000D01*
X490000Y236000D01*
D35*
X490000Y236000D03*
D34*
X-64500Y407500D02*
X-64500Y423000D01*
X-64500Y407500D02*
X-66000Y406000D01*
D35*
X-66000Y406000D03*
D34*
X-99400Y474630D02*
X-104770Y480000D01*
X-99400Y474630D02*
X-99400Y456200D01*
X443520Y133920D02*
X453000Y124440D01*
X453000Y120000D01*
D35*
X453000Y120000D03*
D34*
X343750Y50000D02*
X343750Y29000D01*
X343620Y29000D01*
D35*
X343620Y29000D03*
D34*
X-91000Y201250D02*
X-105250Y201250D01*
X-106000Y202000D01*
D35*
X-106000Y202000D03*
X230000Y250000D03*
D34*
X319000Y420000D02*
X325000Y426000D01*
X319000Y420000D02*
X311000Y420000D01*
D35*
X325000Y426000D03*
D34*
X241620Y351130D02*
X233000Y359750D01*
X241620Y351130D02*
X241620Y340000D01*
D35*
X241620Y340000D03*
D34*
X154000Y402050D02*
X154000Y416288D01*
X162356Y424644D01*
D35*
X162356Y424644D03*
D34*
X74750Y50000D02*
X74750Y38183D01*
X70552Y33985D01*
D35*
X70552Y33985D03*
D34*
X83940Y43440D02*
X91500Y51000D01*
X83940Y43440D02*
X83940Y34000D01*
D35*
X83940Y34000D03*
D34*
X-36340Y107719D02*
X-44059Y100000D01*
X-50000Y100000D01*
D35*
X-50000Y100000D03*
D34*
X-22645Y90376D02*
X-17010Y96010D01*
X-22645Y90376D02*
X-40386Y90376D01*
D35*
X-40386Y90376D03*
D34*
X-65500Y178500D02*
X-86000Y178500D01*
X-65500Y178500D02*
X-65000Y179000D01*
D35*
X-65000Y179000D03*
X352940Y35000D03*
D34*
X352940Y42440D01*
X453990Y135921D02*
X461420Y128490D01*
D35*
X461420Y128490D03*
D34*
X476486Y247940D02*
X469926Y254500D01*
X476486Y247940D02*
X490000Y247940D01*
D35*
X490000Y247940D03*
D34*
X453990Y149990D02*
X453990Y135921D01*
X361500Y51000D02*
X352940Y42440D01*
D35*
X80000Y261620D03*
D34*
X-83000Y391500D02*
X-83000Y405000D01*
X-82000Y406000D01*
D35*
X-82000Y406000D03*
D34*
X-63000Y398000D02*
X-63000Y391500D01*
X-63000Y398000D02*
X-52000Y409000D01*
D35*
X-52000Y409000D03*
D34*
X259000Y364500D02*
X261802Y361698D01*
X272000Y361698D01*
D35*
X272000Y361698D03*
D34*
X296802Y361500D02*
X297000Y361698D01*
X296802Y361500D02*
X287000Y361500D01*
X284000Y364500D01*
D35*
X297000Y361698D03*
D34*
X241500Y420000D02*
X241250Y420250D01*
D32*
X210000Y420250D01*
D34*
X154250Y255750D02*
X144000Y245500D01*
X120000Y245500D01*
D37*
X82700Y122700D02*
X125400Y70000D01*
X220000Y70000D02*
X228133Y70000D01*
X220000Y70000D02*
X125400Y70000D01*
X213000Y77000D02*
X213000Y89750D01*
X213000Y77000D02*
X220000Y70000D01*
D34*
X213000Y89750D02*
X226750Y103500D01*
X237000Y103500D01*
D35*
X157000Y265000D03*
D34*
X320524Y180524D02*
X343000Y180524D01*
X308500Y168500D02*
X308500Y166000D01*
X308500Y168500D02*
X320524Y180524D01*
X350000Y187524D02*
X350000Y191250D01*
X350000Y187524D02*
X343476Y181000D01*
X343000Y180524D01*
X393963Y181000D02*
X400000Y187037D01*
X400000Y191250D01*
X393963Y181000D02*
X343476Y181000D01*
D37*
X292000Y220000D02*
X241000Y271000D01*
X236000Y276000D01*
X214000Y276000D01*
X193010Y296990D01*
X193010Y342760D02*
X210000Y359750D01*
X193010Y320000D02*
X193010Y296990D01*
X193010Y320000D02*
X193010Y342760D01*
D34*
X225750Y255750D02*
X154250Y255750D01*
X225750Y255750D02*
X241000Y271000D01*
X30000Y191250D02*
X30000Y189431D01*
X-20000Y189431D02*
X-20000Y191250D01*
X-20000Y189431D02*
X-14546Y183976D01*
X35455Y183976D02*
X40000Y183976D01*
X35455Y183976D02*
X30000Y189431D01*
X35455Y183976D02*
X-14546Y183976D01*
D37*
X210000Y359750D02*
X210000Y420250D01*
D34*
X144000Y252000D02*
X144000Y245500D01*
X144000Y252000D02*
X157000Y265000D01*
X120000Y245500D02*
X117750Y247750D01*
X117750Y327750D02*
X108500Y337000D01*
X117750Y327750D02*
X117750Y247750D01*
X180500Y320000D02*
X163500Y337000D01*
X180500Y320000D02*
X193010Y320000D01*
D37*
X285626Y127493D02*
X229066Y70934D01*
X228133Y70000D01*
X285626Y127536D02*
X292464Y134374D01*
X285626Y127536D02*
X285626Y127493D01*
X311026Y134374D02*
X322700Y122700D01*
X311026Y134374D02*
X292464Y134374D01*
D35*
X330000Y190000D03*
D34*
X320524Y180524D01*
X308500Y166000D02*
X322700Y151800D01*
X322700Y122700D01*
X57476Y166500D02*
X40000Y183976D01*
X57476Y166500D02*
X63000Y166500D01*
X84000Y166500D01*
X82700Y165200D01*
X82700Y122700D01*
D32*
X285500Y420000D02*
X285500Y428000D01*
X270500Y443000D01*
X223500Y443000D01*
X206500Y511000D02*
X206500Y540000D01*
X206500Y511000D02*
X207500Y510000D01*
X207500Y484000D01*
X223500Y443000D02*
X220250Y439750D01*
X210000Y429500D01*
X210000Y420250D01*
X215750Y475750D02*
X207500Y484000D01*
X215750Y475750D02*
X220250Y471250D01*
X220250Y439750D01*
X261150Y475750D02*
X292700Y507300D01*
X261150Y475750D02*
X215750Y475750D01*
D34*
X240566Y70934D02*
X261500Y50000D01*
X240566Y70934D02*
X229066Y70934D01*
D37*
X292464Y134374D02*
X292000Y134838D01*
X292000Y170000D02*
X292000Y220000D01*
X292000Y170000D02*
X292000Y134838D01*
D34*
X279000Y157000D02*
X292000Y170000D01*
X211790Y157000D02*
X197790Y171000D01*
X192000Y171000D01*
X211790Y157000D02*
X279000Y157000D01*
X162950Y363950D02*
X154000Y363950D01*
X162950Y363950D02*
X168000Y369000D01*
D35*
X168000Y369000D03*
D34*
X100000Y376650D02*
X86650Y376650D01*
X80000Y370000D01*
D35*
X80000Y370000D03*
D34*
X223624Y225826D02*
X224000Y225450D01*
X223624Y225826D02*
X223624Y229534D01*
X215682Y237476D01*
X175976Y237476D02*
X167750Y229250D01*
X167000Y228500D01*
X175976Y237476D02*
X215682Y237476D01*
X137000Y190000D02*
X127000Y190000D01*
X124000Y193000D01*
X124000Y205000D01*
X131000Y212000D02*
X160000Y212000D01*
X167750Y219750D01*
X167750Y229250D01*
X131000Y212000D02*
X124000Y205000D01*
X216950Y228500D02*
X220000Y225450D01*
X216950Y228500D02*
X189000Y228500D01*
X155500Y196500D02*
X137000Y196500D01*
X187500Y228500D02*
X189000Y228500D01*
X187500Y228500D02*
X155500Y196500D01*
D37*
X190000Y110000D02*
X190000Y89750D01*
X190000Y110000D02*
X190000Y150250D01*
D34*
X179500Y120500D02*
X144000Y120500D01*
X179500Y120500D02*
X190000Y110000D01*
D35*
X240000Y260556D03*
D34*
X228376Y229534D02*
X228376Y225826D01*
X228000Y225450D01*
X240000Y241158D02*
X240000Y260556D01*
X240000Y241158D02*
X228376Y229534D01*
X224500Y173000D02*
X223054Y173054D01*
X232000Y182000D01*
X232000Y194550D01*
X189500Y511000D02*
X166000Y511000D01*
X154600Y499600D01*
X154600Y456200D01*
X101500Y423000D02*
X101500Y403550D01*
X100000Y402050D01*
X116309Y449261D02*
X116309Y461309D01*
X154600Y499600D01*
X101500Y434452D02*
X101500Y423000D01*
X101500Y434452D02*
X116309Y449261D01*
X150650Y389350D02*
X154000Y389350D01*
X150650Y389350D02*
X140000Y400000D01*
X180000Y473500D02*
X190500Y484000D01*
X180000Y473500D02*
X180000Y456200D01*
X180000Y451200D01*
X151800Y423000D02*
X140500Y423000D01*
X151800Y423000D02*
X180000Y451200D01*
X140000Y422500D02*
X140000Y400000D01*
X140000Y422500D02*
X140500Y423000D01*
X154000Y376650D02*
X123350Y376650D01*
X110650Y389350D02*
X100000Y389350D01*
D35*
X175000Y425000D03*
D34*
X175000Y388650D01*
X163000Y376650D01*
X154000Y376650D01*
X123350Y376650D02*
X110650Y389350D01*
X103000Y190000D02*
X94000Y190000D01*
X6200Y303800D02*
X2200Y303800D01*
X81500Y228500D02*
X120000Y228500D01*
X81500Y228500D02*
X70000Y240000D01*
X60000Y250000D01*
X50000Y260000D01*
X6200Y303800D01*
X70000Y240000D02*
X70000Y214000D01*
X94000Y190000D01*
X103000Y204500D02*
X114500Y216000D01*
X137000Y216000D01*
X144000Y223000D01*
X103000Y204500D02*
X103000Y196500D01*
X135976Y236524D02*
X144000Y228500D01*
X144000Y223000D01*
X135976Y236524D02*
X81876Y236524D01*
X27600Y290800D01*
X27600Y303800D01*
X103000Y183500D02*
X103000Y177000D01*
X90500Y177000D02*
X84000Y183500D01*
X90500Y177000D02*
X103000Y177000D01*
D35*
X107000Y260000D03*
D34*
X78400Y288600D01*
X78400Y303800D01*
D35*
X306000Y187000D03*
D34*
X306000Y220000D01*
X230800Y295200D02*
X230800Y303800D01*
X230800Y295200D02*
X306000Y220000D01*
D35*
X230000Y340000D03*
D34*
X230800Y339200D01*
X230800Y303800D01*
D35*
X302000Y147000D03*
D34*
X298024Y150976D01*
X298024Y222081D01*
X216081Y304024D01*
X210176Y304024D01*
X210000Y303848D01*
X209952Y303800D02*
X205400Y303800D01*
D35*
X210000Y340000D03*
D34*
X210000Y303848D01*
X209952Y303800D01*
D35*
X456066Y274000D03*
D34*
X434000Y296066D01*
X434000Y303800D01*
X277750Y50750D02*
X278500Y50000D01*
X277750Y50750D02*
X297000Y70000D01*
D35*
X297000Y70000D03*
X80000Y250000D03*
D34*
X40000Y290000D01*
X40000Y423000D01*
X6800Y456200D01*
X2200Y456200D01*
X-54263Y125737D02*
X-54263Y125148D01*
X-29500Y150500D02*
X-29500Y168750D01*
X-29500Y150500D02*
X-54263Y125737D01*
D35*
X-65000Y112000D03*
D34*
X-65000Y115000D01*
X-54263Y125737D01*
X-45302Y119433D02*
X-45302Y116433D01*
X19875Y168750D02*
X20500Y168750D01*
X12000Y152000D02*
X-12735Y152000D01*
X12000Y152000D02*
X19875Y159875D01*
X19875Y168125D01*
X19875Y168750D01*
X-12735Y152000D02*
X-45302Y119433D01*
X-74250Y226250D02*
X-91000Y226250D01*
X-50000Y187000D02*
X-39000Y176000D01*
X-33570Y176000D01*
X-33546Y176024D01*
X-15955Y176024D02*
X-15931Y176000D01*
X-12000Y176000D01*
X-15955Y176024D02*
X-33546Y176024D01*
X-12000Y176000D02*
X-10500Y174500D01*
X-10500Y168750D01*
X-50000Y202000D02*
X-74250Y226250D01*
X-50000Y202000D02*
X-50000Y187000D01*
X-10500Y168750D02*
X-1750Y160000D01*
X0Y160000D01*
D35*
X0Y160000D03*
D34*
X-79750Y213750D02*
X-91000Y213750D01*
X-79750Y213750D02*
X-76000Y210000D01*
D35*
X-76000Y210000D03*
X-40000Y190000D03*
D34*
X-30000Y180000D01*
X30070Y180000D02*
X39500Y170570D01*
X39500Y168750D01*
X30070Y180000D02*
X-30000Y180000D01*
X-29500Y191250D02*
X-29500Y210000D01*
X-29500Y297500D01*
X-23200Y303800D01*
X-44000Y219500D02*
X-34500Y210000D01*
X-29500Y210000D01*
X-4251Y216001D02*
X20500Y191250D01*
X-4251Y216001D02*
X-7000Y216000D01*
D35*
X-7000Y216000D03*
D34*
X338500Y191250D02*
X340500Y191250D01*
X338500Y191250D02*
X314500Y215250D01*
X307000Y283269D02*
X307000Y293000D01*
X320000Y280000D02*
X344278Y280000D01*
X320000Y280000D02*
X307000Y293000D01*
X307000Y303800D01*
X344278Y280000D02*
X351500Y270000D01*
X314500Y270000D02*
X314500Y215250D01*
X314500Y270000D02*
X309127Y279506D01*
X307000Y283269D01*
X351500Y270000D02*
X361000Y270000D01*
X390500Y240500D01*
X390500Y191250D01*
D35*
X30000Y268000D03*
D34*
X61770Y213225D02*
X39795Y191250D01*
X39500Y191250D01*
X37000Y268000D02*
X30000Y268000D01*
X37000Y268000D02*
X61770Y243230D01*
X61770Y213225D01*
X103800Y324700D02*
X91500Y337000D01*
X103800Y324700D02*
X103800Y303800D01*
X465024Y207774D02*
X471000Y213750D01*
X465024Y207774D02*
X461955Y207774D01*
X430000Y175820D01*
X430000Y160000D01*
X420000Y150000D01*
X396284Y150000D01*
X389284Y157000D01*
X389284Y168534D01*
X390284Y168534D02*
X390500Y168750D01*
D35*
X379000Y168000D03*
D34*
X379534Y168534D01*
X389284Y168534D01*
X390284Y168534D01*
X404094Y138000D02*
X425446Y116648D01*
X404094Y138000D02*
X390000Y138000D01*
D35*
X390000Y138000D03*
X411000Y157000D03*
D34*
X409000Y159000D01*
X409000Y168250D02*
X409500Y168750D01*
X409000Y168250D02*
X409000Y159000D01*
X374250Y206000D02*
X359500Y191250D01*
X374250Y206000D02*
X380000Y206000D01*
D35*
X380000Y206000D03*
D34*
X146500Y333500D02*
X146500Y337000D01*
X150600Y329400D02*
X150600Y307800D01*
X154600Y303800D01*
X150600Y329400D02*
X146500Y333500D01*
X2000Y194000D02*
X-750Y191250D01*
X-10500Y191250D01*
D35*
X2000Y194000D03*
D34*
X432483Y125284D02*
X434483Y125284D01*
X432483Y125284D02*
X411767Y146000D01*
X388250Y146000D01*
X365500Y168750D01*
X359500Y168750D01*
X470976Y226274D02*
X471000Y226250D01*
X470976Y226274D02*
X467955Y226274D01*
X418681Y177000D01*
X346931Y177000D02*
X340500Y170570D01*
X340500Y168750D01*
X346931Y177000D02*
X418681Y177000D01*
D35*
X340000Y320000D03*
D34*
X409500Y230500D02*
X409500Y191250D01*
X346000Y294000D02*
X346000Y315000D01*
X341000Y320000D01*
X340000Y320000D01*
X346000Y294000D02*
X409500Y230500D01*
D35*
X50000Y30000D03*
D34*
X49750Y30250D01*
X49750Y50000D01*
D35*
X58000Y13000D03*
D34*
X62250Y17250D02*
X62250Y50000D01*
X62250Y17250D02*
X58000Y13000D01*
X318750Y21250D02*
X320000Y20000D01*
D35*
X320000Y20000D03*
D34*
X318750Y21250D02*
X318750Y50000D01*
D35*
X331000Y29000D03*
D34*
X331250Y29250D01*
X331250Y50000D01*
D35*
X287000Y80000D03*
X362000Y106000D03*
D34*
X336000Y80000D01*
X287000Y80000D01*
D36*
X-46000Y392968D03*
D38*
X-46000Y397900D01*
X-26900Y417000D01*
X-10000Y441900D02*
X14900Y417000D01*
X-10000Y511000D02*
X-25000Y526000D01*
X-10000Y511000D02*
X-10000Y441900D01*
D34*
X-67500Y480000D02*
X-87230Y480000D01*
X56600Y532700D02*
X70000Y519300D01*
X70000Y464600D02*
X78400Y456200D01*
X70000Y464600D02*
X70000Y519300D01*
X82000Y532700D02*
X84300Y532700D01*
X95000Y475000D02*
X103800Y466200D01*
X103800Y456200D01*
X95000Y522000D02*
X84300Y532700D01*
X95000Y522000D02*
X95000Y475000D01*
M02*
