G04 EAGLE Gerber RS-274X export*
G75*
%MOMM*%
%FSLAX34Y34*%
%LPD*%
%INCopper Layer 15*%
%IPPOS*%
%AMOC8*
5,1,8,0,0,1.08239X$1,22.5*%
G01*
%ADD10C,1.447800*%
%ADD11C,1.530000*%
%ADD12C,1.524000*%
%ADD13C,1.800000*%
%ADD14C,0.654000*%
%ADD15C,1.200000*%

G36*
X378852Y2014D02*
X378852Y2014D01*
X378949Y2019D01*
X378992Y2034D01*
X379037Y2041D01*
X379124Y2080D01*
X379215Y2112D01*
X379249Y2137D01*
X379294Y2157D01*
X379391Y2240D01*
X379464Y2293D01*
X517707Y140536D01*
X517764Y140613D01*
X517829Y140684D01*
X517849Y140725D01*
X517876Y140762D01*
X517910Y140852D01*
X517952Y140938D01*
X517958Y140980D01*
X517975Y141026D01*
X517985Y141153D01*
X517999Y141243D01*
X517999Y557000D01*
X517990Y557064D01*
X517991Y557128D01*
X517970Y557203D01*
X517959Y557279D01*
X517933Y557338D01*
X517916Y557400D01*
X517875Y557466D01*
X517843Y557536D01*
X517801Y557585D01*
X517768Y557640D01*
X517710Y557692D01*
X517660Y557750D01*
X517606Y557786D01*
X517558Y557829D01*
X517489Y557862D01*
X517424Y557905D01*
X517362Y557924D01*
X517305Y557952D01*
X517235Y557963D01*
X517154Y557987D01*
X517069Y557988D01*
X517000Y557999D01*
X-137000Y557999D01*
X-137064Y557990D01*
X-137128Y557991D01*
X-137203Y557970D01*
X-137279Y557959D01*
X-137338Y557933D01*
X-137400Y557916D01*
X-137466Y557875D01*
X-137536Y557843D01*
X-137585Y557801D01*
X-137640Y557768D01*
X-137692Y557710D01*
X-137750Y557660D01*
X-137786Y557606D01*
X-137829Y557558D01*
X-137862Y557489D01*
X-137905Y557424D01*
X-137924Y557362D01*
X-137952Y557305D01*
X-137963Y557235D01*
X-137987Y557154D01*
X-137988Y557069D01*
X-137999Y557000D01*
X-137999Y141243D01*
X-137986Y141148D01*
X-137981Y141051D01*
X-137966Y141008D01*
X-137959Y140963D01*
X-137920Y140876D01*
X-137888Y140785D01*
X-137863Y140751D01*
X-137843Y140706D01*
X-137760Y140609D01*
X-137707Y140536D01*
X536Y2293D01*
X613Y2236D01*
X684Y2171D01*
X725Y2151D01*
X762Y2124D01*
X852Y2090D01*
X938Y2048D01*
X980Y2042D01*
X1026Y2025D01*
X1153Y2015D01*
X1243Y2001D01*
X378757Y2001D01*
X378852Y2014D01*
G37*
%LPC*%
G36*
X-119779Y387699D02*
X-119779Y387699D01*
X-126763Y390592D01*
X-132108Y395937D01*
X-135001Y402920D01*
X-135001Y410479D01*
X-132108Y417463D01*
X-126763Y422808D01*
X-119779Y425701D01*
X-112221Y425701D01*
X-105237Y422808D01*
X-99892Y417463D01*
X-96999Y410479D01*
X-96999Y402920D01*
X-99892Y395937D01*
X-105237Y390592D01*
X-112221Y387699D01*
X-119779Y387699D01*
G37*
%LPD*%
%LPC*%
G36*
X-119779Y334299D02*
X-119779Y334299D01*
X-126763Y337192D01*
X-132108Y342537D01*
X-135001Y349520D01*
X-135001Y357079D01*
X-132108Y364063D01*
X-126763Y369408D01*
X-119779Y372301D01*
X-112221Y372301D01*
X-105237Y369408D01*
X-99892Y364063D01*
X-96999Y357079D01*
X-96999Y349520D01*
X-99892Y342537D01*
X-105237Y337192D01*
X-112221Y334299D01*
X-119779Y334299D01*
G37*
%LPD*%
%LPC*%
G36*
X26320Y211499D02*
X26320Y211499D01*
X19520Y214316D01*
X14316Y219520D01*
X11499Y226320D01*
X11499Y233680D01*
X14316Y240480D01*
X19520Y245684D01*
X26320Y248501D01*
X33680Y248501D01*
X40480Y245684D01*
X45684Y240480D01*
X48501Y233680D01*
X48501Y226320D01*
X45684Y219520D01*
X40480Y214316D01*
X33680Y211499D01*
X26320Y211499D01*
G37*
%LPD*%
%LPC*%
G36*
X346320Y211499D02*
X346320Y211499D01*
X339520Y214316D01*
X334316Y219520D01*
X331499Y226320D01*
X331499Y233680D01*
X334316Y240480D01*
X339520Y245684D01*
X346320Y248501D01*
X353680Y248501D01*
X360480Y245684D01*
X365684Y240480D01*
X368501Y233680D01*
X368501Y226320D01*
X365684Y219520D01*
X360480Y214316D01*
X353680Y211499D01*
X346320Y211499D01*
G37*
%LPD*%
%LPC*%
G36*
X-27043Y515729D02*
X-27043Y515729D01*
X-30818Y517293D01*
X-33707Y520182D01*
X-35271Y523957D01*
X-35271Y528043D01*
X-33707Y531818D01*
X-30818Y534707D01*
X-27043Y536271D01*
X-22957Y536271D01*
X-19182Y534707D01*
X-16293Y531818D01*
X-14729Y528043D01*
X-14729Y523957D01*
X-16293Y520182D01*
X-19182Y517293D01*
X-22957Y515729D01*
X-27043Y515729D01*
G37*
%LPD*%
%LPC*%
G36*
X-97043Y515729D02*
X-97043Y515729D01*
X-100818Y517293D01*
X-103707Y520182D01*
X-105271Y523957D01*
X-105271Y528043D01*
X-103707Y531818D01*
X-100818Y534707D01*
X-97043Y536271D01*
X-92957Y536271D01*
X-89182Y534707D01*
X-86293Y531818D01*
X-84729Y528043D01*
X-84729Y523957D01*
X-86293Y520182D01*
X-89182Y517293D01*
X-92957Y515729D01*
X-97043Y515729D01*
G37*
%LPD*%
%LPC*%
G36*
X290926Y523779D02*
X290926Y523779D01*
X287647Y525137D01*
X285137Y527647D01*
X283779Y530926D01*
X283779Y534474D01*
X285137Y537753D01*
X287647Y540263D01*
X290926Y541621D01*
X294474Y541621D01*
X297753Y540263D01*
X300263Y537753D01*
X301621Y534474D01*
X301621Y530926D01*
X300263Y527647D01*
X297753Y525137D01*
X294474Y523779D01*
X290926Y523779D01*
G37*
%LPD*%
%LPC*%
G36*
X265526Y523779D02*
X265526Y523779D01*
X262247Y525137D01*
X259737Y527647D01*
X258379Y530926D01*
X258379Y534474D01*
X259737Y537753D01*
X262247Y540263D01*
X265526Y541621D01*
X269074Y541621D01*
X272353Y540263D01*
X274863Y537753D01*
X276221Y534474D01*
X276221Y530926D01*
X274863Y527647D01*
X272353Y525137D01*
X269074Y523779D01*
X265526Y523779D01*
G37*
%LPD*%
%LPC*%
G36*
X105626Y523779D02*
X105626Y523779D01*
X102347Y525137D01*
X99837Y527647D01*
X98479Y530926D01*
X98479Y534474D01*
X99837Y537753D01*
X102347Y540263D01*
X105626Y541621D01*
X109174Y541621D01*
X112453Y540263D01*
X114963Y537753D01*
X116321Y534474D01*
X116321Y530926D01*
X114963Y527647D01*
X112453Y525137D01*
X109174Y523779D01*
X105626Y523779D01*
G37*
%LPD*%
%LPC*%
G36*
X80226Y523779D02*
X80226Y523779D01*
X76947Y525137D01*
X74437Y527647D01*
X73079Y530926D01*
X73079Y534474D01*
X74437Y537753D01*
X76947Y540263D01*
X80226Y541621D01*
X83774Y541621D01*
X87053Y540263D01*
X89563Y537753D01*
X90921Y534474D01*
X90921Y530926D01*
X89563Y527647D01*
X87053Y525137D01*
X83774Y523779D01*
X80226Y523779D01*
G37*
%LPD*%
%LPC*%
G36*
X54826Y523779D02*
X54826Y523779D01*
X51547Y525137D01*
X49037Y527647D01*
X47679Y530926D01*
X47679Y534474D01*
X49037Y537753D01*
X51547Y540263D01*
X54826Y541621D01*
X58374Y541621D01*
X61653Y540263D01*
X64163Y537753D01*
X65521Y534474D01*
X65521Y530926D01*
X64163Y527647D01*
X61653Y525137D01*
X58374Y523779D01*
X54826Y523779D01*
G37*
%LPD*%
%LPC*%
G36*
X105626Y498379D02*
X105626Y498379D01*
X102347Y499737D01*
X99837Y502247D01*
X98479Y505526D01*
X98479Y509074D01*
X99837Y512353D01*
X102347Y514863D01*
X105626Y516221D01*
X109174Y516221D01*
X112453Y514863D01*
X114963Y512353D01*
X116321Y509074D01*
X116321Y505526D01*
X114963Y502247D01*
X112453Y499737D01*
X109174Y498379D01*
X105626Y498379D01*
G37*
%LPD*%
%LPC*%
G36*
X80226Y498379D02*
X80226Y498379D01*
X76947Y499737D01*
X74437Y502247D01*
X73079Y505526D01*
X73079Y509074D01*
X74437Y512353D01*
X76947Y514863D01*
X80226Y516221D01*
X83774Y516221D01*
X87053Y514863D01*
X89563Y512353D01*
X90921Y509074D01*
X90921Y505526D01*
X89563Y502247D01*
X87053Y499737D01*
X83774Y498379D01*
X80226Y498379D01*
G37*
%LPD*%
%LPC*%
G36*
X54826Y498379D02*
X54826Y498379D01*
X51547Y499737D01*
X49037Y502247D01*
X47679Y505526D01*
X47679Y509074D01*
X49037Y512353D01*
X51547Y514863D01*
X54826Y516221D01*
X58374Y516221D01*
X61653Y514863D01*
X64163Y512353D01*
X65521Y509074D01*
X65521Y505526D01*
X64163Y502247D01*
X61653Y499737D01*
X58374Y498379D01*
X54826Y498379D01*
G37*
%LPD*%
%LPC*%
G36*
X290926Y498379D02*
X290926Y498379D01*
X287647Y499737D01*
X285137Y502247D01*
X283779Y505526D01*
X283779Y509074D01*
X285137Y512353D01*
X287647Y514863D01*
X290926Y516221D01*
X294474Y516221D01*
X297753Y514863D01*
X300263Y512353D01*
X301621Y509074D01*
X301621Y505526D01*
X300263Y502247D01*
X297753Y499737D01*
X294474Y498379D01*
X290926Y498379D01*
G37*
%LPD*%
%LPC*%
G36*
X265526Y498379D02*
X265526Y498379D01*
X262247Y499737D01*
X259737Y502247D01*
X258379Y505526D01*
X258379Y509074D01*
X259737Y512353D01*
X262247Y514863D01*
X265526Y516221D01*
X269074Y516221D01*
X272353Y514863D01*
X274863Y512353D01*
X276221Y509074D01*
X276221Y505526D01*
X274863Y502247D01*
X272353Y499737D01*
X269074Y498379D01*
X265526Y498379D01*
G37*
%LPD*%
%LPC*%
G36*
X320926Y88379D02*
X320926Y88379D01*
X317647Y89737D01*
X315137Y92247D01*
X313779Y95526D01*
X313779Y99074D01*
X315137Y102353D01*
X317647Y104863D01*
X320926Y106221D01*
X324474Y106221D01*
X327753Y104863D01*
X330263Y102353D01*
X331621Y99074D01*
X331621Y95526D01*
X330263Y92247D01*
X327753Y89737D01*
X324474Y88379D01*
X320926Y88379D01*
G37*
%LPD*%
%LPC*%
G36*
X320926Y113779D02*
X320926Y113779D01*
X317647Y115137D01*
X315137Y117647D01*
X313779Y120926D01*
X313779Y124474D01*
X315137Y127753D01*
X317647Y130263D01*
X320926Y131621D01*
X324474Y131621D01*
X327753Y130263D01*
X330263Y127753D01*
X331621Y124474D01*
X331621Y120926D01*
X330263Y117647D01*
X327753Y115137D01*
X324474Y113779D01*
X320926Y113779D01*
G37*
%LPD*%
%LPC*%
G36*
X295526Y113779D02*
X295526Y113779D01*
X292247Y115137D01*
X289737Y117647D01*
X288379Y120926D01*
X288379Y124474D01*
X289737Y127753D01*
X292247Y130263D01*
X295526Y131621D01*
X299074Y131621D01*
X302353Y130263D01*
X304863Y127753D01*
X306221Y124474D01*
X306221Y120926D01*
X304863Y117647D01*
X302353Y115137D01*
X299074Y113779D01*
X295526Y113779D01*
G37*
%LPD*%
%LPC*%
G36*
X80926Y113779D02*
X80926Y113779D01*
X77647Y115137D01*
X75137Y117647D01*
X73779Y120926D01*
X73779Y124474D01*
X75137Y127753D01*
X77647Y130263D01*
X80926Y131621D01*
X84474Y131621D01*
X87753Y130263D01*
X90263Y127753D01*
X91621Y124474D01*
X91621Y120926D01*
X90263Y117647D01*
X87753Y115137D01*
X84474Y113779D01*
X80926Y113779D01*
G37*
%LPD*%
%LPC*%
G36*
X55526Y113779D02*
X55526Y113779D01*
X52247Y115137D01*
X49737Y117647D01*
X48379Y120926D01*
X48379Y124474D01*
X49737Y127753D01*
X52247Y130263D01*
X55526Y131621D01*
X59074Y131621D01*
X62353Y130263D01*
X64863Y127753D01*
X66221Y124474D01*
X66221Y120926D01*
X64863Y117647D01*
X62353Y115137D01*
X59074Y113779D01*
X55526Y113779D01*
G37*
%LPD*%
%LPC*%
G36*
X295526Y88379D02*
X295526Y88379D01*
X292247Y89737D01*
X289737Y92247D01*
X288379Y95526D01*
X288379Y99074D01*
X289737Y102353D01*
X292247Y104863D01*
X295526Y106221D01*
X299074Y106221D01*
X302353Y104863D01*
X304863Y102353D01*
X306221Y99074D01*
X306221Y95526D01*
X304863Y92247D01*
X302353Y89737D01*
X299074Y88379D01*
X295526Y88379D01*
G37*
%LPD*%
%LPC*%
G36*
X80926Y88379D02*
X80926Y88379D01*
X77647Y89737D01*
X75137Y92247D01*
X73779Y95526D01*
X73779Y99074D01*
X75137Y102353D01*
X77647Y104863D01*
X80926Y106221D01*
X84474Y106221D01*
X87753Y104863D01*
X90263Y102353D01*
X91621Y99074D01*
X91621Y95526D01*
X90263Y92247D01*
X87753Y89737D01*
X84474Y88379D01*
X80926Y88379D01*
G37*
%LPD*%
%LPC*%
G36*
X55526Y88379D02*
X55526Y88379D01*
X52247Y89737D01*
X49737Y92247D01*
X48379Y95526D01*
X48379Y99074D01*
X49737Y102353D01*
X52247Y104863D01*
X55526Y106221D01*
X59074Y106221D01*
X62353Y104863D01*
X64863Y102353D01*
X66221Y99074D01*
X66221Y95526D01*
X64863Y92247D01*
X62353Y89737D01*
X59074Y88379D01*
X55526Y88379D01*
G37*
%LPD*%
%LPC*%
G36*
X188232Y11109D02*
X188232Y11109D01*
X184964Y12463D01*
X182463Y14964D01*
X181109Y18231D01*
X181109Y21768D01*
X182463Y25036D01*
X184964Y27537D01*
X188232Y28891D01*
X191768Y28891D01*
X195036Y27537D01*
X197537Y25036D01*
X198891Y21768D01*
X198891Y18231D01*
X197537Y14964D01*
X195036Y12463D01*
X191768Y11109D01*
X188232Y11109D01*
G37*
%LPD*%
%LPC*%
G36*
X356107Y447690D02*
X356107Y447690D01*
X352980Y448986D01*
X350586Y451380D01*
X349290Y454507D01*
X349290Y457893D01*
X350586Y461020D01*
X352980Y463414D01*
X356107Y464710D01*
X359493Y464710D01*
X362620Y463414D01*
X365014Y461020D01*
X366310Y457893D01*
X366310Y454507D01*
X365014Y451380D01*
X362620Y448986D01*
X359493Y447690D01*
X356107Y447690D01*
G37*
%LPD*%
%LPC*%
G36*
X330707Y447690D02*
X330707Y447690D01*
X327580Y448986D01*
X325186Y451380D01*
X323890Y454507D01*
X323890Y457893D01*
X325186Y461020D01*
X327580Y463414D01*
X330707Y464710D01*
X334093Y464710D01*
X337220Y463414D01*
X339614Y461020D01*
X340910Y457893D01*
X340910Y454507D01*
X339614Y451380D01*
X337220Y448986D01*
X334093Y447690D01*
X330707Y447690D01*
G37*
%LPD*%
%LPC*%
G36*
X305307Y447690D02*
X305307Y447690D01*
X302180Y448986D01*
X299786Y451380D01*
X298490Y454507D01*
X298490Y457893D01*
X299786Y461020D01*
X302180Y463414D01*
X305307Y464710D01*
X308693Y464710D01*
X311820Y463414D01*
X314214Y461020D01*
X315510Y457893D01*
X315510Y454507D01*
X314214Y451380D01*
X311820Y448986D01*
X308693Y447690D01*
X305307Y447690D01*
G37*
%LPD*%
%LPC*%
G36*
X279907Y447690D02*
X279907Y447690D01*
X276780Y448986D01*
X274386Y451380D01*
X273090Y454507D01*
X273090Y457893D01*
X274386Y461020D01*
X276780Y463414D01*
X279907Y464710D01*
X283293Y464710D01*
X286420Y463414D01*
X288814Y461020D01*
X290110Y457893D01*
X290110Y454507D01*
X288814Y451380D01*
X286420Y448986D01*
X283293Y447690D01*
X279907Y447690D01*
G37*
%LPD*%
%LPC*%
G36*
X254507Y447690D02*
X254507Y447690D01*
X251380Y448986D01*
X248986Y451380D01*
X247690Y454507D01*
X247690Y457893D01*
X248986Y461020D01*
X251380Y463414D01*
X254507Y464710D01*
X257893Y464710D01*
X261020Y463414D01*
X263414Y461020D01*
X264710Y457893D01*
X264710Y454507D01*
X263414Y451380D01*
X261020Y448986D01*
X257893Y447690D01*
X254507Y447690D01*
G37*
%LPD*%
%LPC*%
G36*
X229107Y447690D02*
X229107Y447690D01*
X225980Y448986D01*
X223586Y451380D01*
X222290Y454507D01*
X222290Y457893D01*
X223586Y461020D01*
X225980Y463414D01*
X229107Y464710D01*
X232493Y464710D01*
X235620Y463414D01*
X238014Y461020D01*
X239310Y457893D01*
X239310Y454507D01*
X238014Y451380D01*
X235620Y448986D01*
X232493Y447690D01*
X229107Y447690D01*
G37*
%LPD*%
%LPC*%
G36*
X203707Y447690D02*
X203707Y447690D01*
X200580Y448986D01*
X198186Y451380D01*
X196890Y454507D01*
X196890Y457893D01*
X198186Y461020D01*
X200580Y463414D01*
X203707Y464710D01*
X207093Y464710D01*
X210220Y463414D01*
X212614Y461020D01*
X213910Y457893D01*
X213910Y454507D01*
X212614Y451380D01*
X210220Y448986D01*
X207093Y447690D01*
X203707Y447690D01*
G37*
%LPD*%
%LPC*%
G36*
X178307Y447690D02*
X178307Y447690D01*
X175180Y448986D01*
X172786Y451380D01*
X171490Y454507D01*
X171490Y457893D01*
X172786Y461020D01*
X175180Y463414D01*
X178307Y464710D01*
X181693Y464710D01*
X184820Y463414D01*
X187214Y461020D01*
X188510Y457893D01*
X188510Y454507D01*
X187214Y451380D01*
X184820Y448986D01*
X181693Y447690D01*
X178307Y447690D01*
G37*
%LPD*%
%LPC*%
G36*
X152907Y447690D02*
X152907Y447690D01*
X149780Y448986D01*
X147386Y451380D01*
X146090Y454507D01*
X146090Y457893D01*
X147386Y461020D01*
X149780Y463414D01*
X152907Y464710D01*
X156293Y464710D01*
X159420Y463414D01*
X161814Y461020D01*
X163110Y457893D01*
X163110Y454507D01*
X161814Y451380D01*
X159420Y448986D01*
X156293Y447690D01*
X152907Y447690D01*
G37*
%LPD*%
%LPC*%
G36*
X127507Y447690D02*
X127507Y447690D01*
X124380Y448986D01*
X121986Y451380D01*
X120690Y454507D01*
X120690Y457893D01*
X121986Y461020D01*
X124380Y463414D01*
X127507Y464710D01*
X130893Y464710D01*
X134020Y463414D01*
X136414Y461020D01*
X137710Y457893D01*
X137710Y454507D01*
X136414Y451380D01*
X134020Y448986D01*
X130893Y447690D01*
X127507Y447690D01*
G37*
%LPD*%
%LPC*%
G36*
X102107Y447690D02*
X102107Y447690D01*
X98980Y448986D01*
X96586Y451380D01*
X95290Y454507D01*
X95290Y457893D01*
X96586Y461020D01*
X98980Y463414D01*
X102107Y464710D01*
X105493Y464710D01*
X108620Y463414D01*
X111014Y461020D01*
X112310Y457893D01*
X112310Y454507D01*
X111014Y451380D01*
X108620Y448986D01*
X105493Y447690D01*
X102107Y447690D01*
G37*
%LPD*%
%LPC*%
G36*
X76707Y447690D02*
X76707Y447690D01*
X73580Y448986D01*
X71186Y451380D01*
X69890Y454507D01*
X69890Y457893D01*
X71186Y461020D01*
X73580Y463414D01*
X76707Y464710D01*
X80093Y464710D01*
X83220Y463414D01*
X85614Y461020D01*
X86910Y457893D01*
X86910Y454507D01*
X85614Y451380D01*
X83220Y448986D01*
X80093Y447690D01*
X76707Y447690D01*
G37*
%LPD*%
%LPC*%
G36*
X51307Y447690D02*
X51307Y447690D01*
X48180Y448986D01*
X45786Y451380D01*
X44490Y454507D01*
X44490Y457893D01*
X45786Y461020D01*
X48180Y463414D01*
X51307Y464710D01*
X54693Y464710D01*
X57820Y463414D01*
X60214Y461020D01*
X61510Y457893D01*
X61510Y454507D01*
X60214Y451380D01*
X57820Y448986D01*
X54693Y447690D01*
X51307Y447690D01*
G37*
%LPD*%
%LPC*%
G36*
X25907Y447690D02*
X25907Y447690D01*
X22780Y448986D01*
X20386Y451380D01*
X19090Y454507D01*
X19090Y457893D01*
X20386Y461020D01*
X22780Y463414D01*
X25907Y464710D01*
X29293Y464710D01*
X32420Y463414D01*
X34814Y461020D01*
X36110Y457893D01*
X36110Y454507D01*
X34814Y451380D01*
X32420Y448986D01*
X29293Y447690D01*
X25907Y447690D01*
G37*
%LPD*%
%LPC*%
G36*
X-24893Y447690D02*
X-24893Y447690D01*
X-28020Y448986D01*
X-30414Y451380D01*
X-31710Y454507D01*
X-31710Y457893D01*
X-30414Y461020D01*
X-28020Y463414D01*
X-24893Y464710D01*
X-21507Y464710D01*
X-18380Y463414D01*
X-15986Y461020D01*
X-14690Y457893D01*
X-14690Y454507D01*
X-15986Y451380D01*
X-18380Y448986D01*
X-21507Y447690D01*
X-24893Y447690D01*
G37*
%LPD*%
%LPC*%
G36*
X-50293Y447690D02*
X-50293Y447690D01*
X-53420Y448986D01*
X-55814Y451380D01*
X-57110Y454507D01*
X-57110Y457893D01*
X-55814Y461020D01*
X-53420Y463414D01*
X-50293Y464710D01*
X-46907Y464710D01*
X-43780Y463414D01*
X-41386Y461020D01*
X-40090Y457893D01*
X-40090Y454507D01*
X-41386Y451380D01*
X-43780Y448986D01*
X-46907Y447690D01*
X-50293Y447690D01*
G37*
%LPD*%
%LPC*%
G36*
X-75693Y447690D02*
X-75693Y447690D01*
X-78820Y448986D01*
X-81214Y451380D01*
X-82510Y454507D01*
X-82510Y457893D01*
X-81214Y461020D01*
X-78820Y463414D01*
X-75693Y464710D01*
X-72307Y464710D01*
X-69180Y463414D01*
X-66786Y461020D01*
X-65490Y457893D01*
X-65490Y454507D01*
X-66786Y451380D01*
X-69180Y448986D01*
X-72307Y447690D01*
X-75693Y447690D01*
G37*
%LPD*%
%LPC*%
G36*
X25907Y295290D02*
X25907Y295290D01*
X22780Y296586D01*
X20386Y298980D01*
X19090Y302107D01*
X19090Y305493D01*
X20386Y308620D01*
X22780Y311014D01*
X25907Y312310D01*
X29293Y312310D01*
X32420Y311014D01*
X34814Y308620D01*
X36110Y305493D01*
X36110Y302107D01*
X34814Y298980D01*
X32420Y296586D01*
X29293Y295290D01*
X25907Y295290D01*
G37*
%LPD*%
%LPC*%
G36*
X51307Y295290D02*
X51307Y295290D01*
X48180Y296586D01*
X45786Y298980D01*
X44490Y302107D01*
X44490Y305493D01*
X45786Y308620D01*
X48180Y311014D01*
X51307Y312310D01*
X54693Y312310D01*
X57820Y311014D01*
X60214Y308620D01*
X61510Y305493D01*
X61510Y302107D01*
X60214Y298980D01*
X57820Y296586D01*
X54693Y295290D01*
X51307Y295290D01*
G37*
%LPD*%
%LPC*%
G36*
X76707Y295290D02*
X76707Y295290D01*
X73580Y296586D01*
X71186Y298980D01*
X69890Y302107D01*
X69890Y305493D01*
X71186Y308620D01*
X73580Y311014D01*
X76707Y312310D01*
X80093Y312310D01*
X83220Y311014D01*
X85614Y308620D01*
X86910Y305493D01*
X86910Y302107D01*
X85614Y298980D01*
X83220Y296586D01*
X80093Y295290D01*
X76707Y295290D01*
G37*
%LPD*%
%LPC*%
G36*
X127507Y295290D02*
X127507Y295290D01*
X124380Y296586D01*
X121986Y298980D01*
X120690Y302107D01*
X120690Y305493D01*
X121986Y308620D01*
X124380Y311014D01*
X127507Y312310D01*
X130893Y312310D01*
X134020Y311014D01*
X136414Y308620D01*
X137710Y305493D01*
X137710Y302107D01*
X136414Y298980D01*
X134020Y296586D01*
X130893Y295290D01*
X127507Y295290D01*
G37*
%LPD*%
%LPC*%
G36*
X483107Y295290D02*
X483107Y295290D01*
X479980Y296586D01*
X477586Y298980D01*
X476290Y302107D01*
X476290Y305493D01*
X477586Y308620D01*
X479980Y311014D01*
X483107Y312310D01*
X486493Y312310D01*
X489620Y311014D01*
X492014Y308620D01*
X493310Y305493D01*
X493310Y302107D01*
X492014Y298980D01*
X489620Y296586D01*
X486493Y295290D01*
X483107Y295290D01*
G37*
%LPD*%
%LPC*%
G36*
X457707Y295290D02*
X457707Y295290D01*
X454580Y296586D01*
X452186Y298980D01*
X450890Y302107D01*
X450890Y305493D01*
X452186Y308620D01*
X454580Y311014D01*
X457707Y312310D01*
X461093Y312310D01*
X464220Y311014D01*
X466614Y308620D01*
X467910Y305493D01*
X467910Y302107D01*
X466614Y298980D01*
X464220Y296586D01*
X461093Y295290D01*
X457707Y295290D01*
G37*
%LPD*%
%LPC*%
G36*
X432307Y295290D02*
X432307Y295290D01*
X429180Y296586D01*
X426786Y298980D01*
X425490Y302107D01*
X425490Y305493D01*
X426786Y308620D01*
X429180Y311014D01*
X432307Y312310D01*
X435693Y312310D01*
X438820Y311014D01*
X441214Y308620D01*
X442510Y305493D01*
X442510Y302107D01*
X441214Y298980D01*
X438820Y296586D01*
X435693Y295290D01*
X432307Y295290D01*
G37*
%LPD*%
%LPC*%
G36*
X406907Y295290D02*
X406907Y295290D01*
X403780Y296586D01*
X401386Y298980D01*
X400090Y302107D01*
X400090Y305493D01*
X401386Y308620D01*
X403780Y311014D01*
X406907Y312310D01*
X410293Y312310D01*
X413420Y311014D01*
X415814Y308620D01*
X417110Y305493D01*
X417110Y302107D01*
X415814Y298980D01*
X413420Y296586D01*
X410293Y295290D01*
X406907Y295290D01*
G37*
%LPD*%
%LPC*%
G36*
X381507Y295290D02*
X381507Y295290D01*
X378380Y296586D01*
X375986Y298980D01*
X374690Y302107D01*
X374690Y305493D01*
X375986Y308620D01*
X378380Y311014D01*
X381507Y312310D01*
X384893Y312310D01*
X388020Y311014D01*
X390414Y308620D01*
X391710Y305493D01*
X391710Y302107D01*
X390414Y298980D01*
X388020Y296586D01*
X384893Y295290D01*
X381507Y295290D01*
G37*
%LPD*%
%LPC*%
G36*
X356107Y295290D02*
X356107Y295290D01*
X352980Y296586D01*
X350586Y298980D01*
X349290Y302107D01*
X349290Y305493D01*
X350586Y308620D01*
X352980Y311014D01*
X356107Y312310D01*
X359493Y312310D01*
X362620Y311014D01*
X365014Y308620D01*
X366310Y305493D01*
X366310Y302107D01*
X365014Y298980D01*
X362620Y296586D01*
X359493Y295290D01*
X356107Y295290D01*
G37*
%LPD*%
%LPC*%
G36*
X330707Y295290D02*
X330707Y295290D01*
X327580Y296586D01*
X325186Y298980D01*
X323890Y302107D01*
X323890Y305493D01*
X325186Y308620D01*
X327580Y311014D01*
X330707Y312310D01*
X334093Y312310D01*
X337220Y311014D01*
X339614Y308620D01*
X340910Y305493D01*
X340910Y302107D01*
X339614Y298980D01*
X337220Y296586D01*
X334093Y295290D01*
X330707Y295290D01*
G37*
%LPD*%
%LPC*%
G36*
X305307Y295290D02*
X305307Y295290D01*
X302180Y296586D01*
X299786Y298980D01*
X298490Y302107D01*
X298490Y305493D01*
X299786Y308620D01*
X302180Y311014D01*
X305307Y312310D01*
X308693Y312310D01*
X311820Y311014D01*
X314214Y308620D01*
X315510Y305493D01*
X315510Y302107D01*
X314214Y298980D01*
X311820Y296586D01*
X308693Y295290D01*
X305307Y295290D01*
G37*
%LPD*%
%LPC*%
G36*
X152907Y295290D02*
X152907Y295290D01*
X149780Y296586D01*
X147386Y298980D01*
X146090Y302107D01*
X146090Y305493D01*
X147386Y308620D01*
X149780Y311014D01*
X152907Y312310D01*
X156293Y312310D01*
X159420Y311014D01*
X161814Y308620D01*
X163110Y305493D01*
X163110Y302107D01*
X161814Y298980D01*
X159420Y296586D01*
X156293Y295290D01*
X152907Y295290D01*
G37*
%LPD*%
%LPC*%
G36*
X-101093Y295290D02*
X-101093Y295290D01*
X-104220Y296586D01*
X-106614Y298980D01*
X-107910Y302107D01*
X-107910Y305493D01*
X-106614Y308620D01*
X-104220Y311014D01*
X-101093Y312310D01*
X-97707Y312310D01*
X-94580Y311014D01*
X-92186Y308620D01*
X-90890Y305493D01*
X-90890Y302107D01*
X-92186Y298980D01*
X-94580Y296586D01*
X-97707Y295290D01*
X-101093Y295290D01*
G37*
%LPD*%
%LPC*%
G36*
X254507Y295290D02*
X254507Y295290D01*
X251380Y296586D01*
X248986Y298980D01*
X247690Y302107D01*
X247690Y305493D01*
X248986Y308620D01*
X251380Y311014D01*
X254507Y312310D01*
X257893Y312310D01*
X261020Y311014D01*
X263414Y308620D01*
X264710Y305493D01*
X264710Y302107D01*
X263414Y298980D01*
X261020Y296586D01*
X257893Y295290D01*
X254507Y295290D01*
G37*
%LPD*%
%LPC*%
G36*
X229107Y295290D02*
X229107Y295290D01*
X225980Y296586D01*
X223586Y298980D01*
X222290Y302107D01*
X222290Y305493D01*
X223586Y308620D01*
X225980Y311014D01*
X229107Y312310D01*
X232493Y312310D01*
X235620Y311014D01*
X238014Y308620D01*
X239310Y305493D01*
X239310Y302107D01*
X238014Y298980D01*
X235620Y296586D01*
X232493Y295290D01*
X229107Y295290D01*
G37*
%LPD*%
%LPC*%
G36*
X102107Y295290D02*
X102107Y295290D01*
X98980Y296586D01*
X96586Y298980D01*
X95290Y302107D01*
X95290Y305493D01*
X96586Y308620D01*
X98980Y311014D01*
X102107Y312310D01*
X105493Y312310D01*
X108620Y311014D01*
X111014Y308620D01*
X112310Y305493D01*
X112310Y302107D01*
X111014Y298980D01*
X108620Y296586D01*
X105493Y295290D01*
X102107Y295290D01*
G37*
%LPD*%
%LPC*%
G36*
X203707Y295290D02*
X203707Y295290D01*
X200580Y296586D01*
X198186Y298980D01*
X196890Y302107D01*
X196890Y305493D01*
X198186Y308620D01*
X200580Y311014D01*
X203707Y312310D01*
X207093Y312310D01*
X210220Y311014D01*
X212614Y308620D01*
X213910Y305493D01*
X213910Y302107D01*
X212614Y298980D01*
X210220Y296586D01*
X207093Y295290D01*
X203707Y295290D01*
G37*
%LPD*%
%LPC*%
G36*
X178307Y295290D02*
X178307Y295290D01*
X175180Y296586D01*
X172786Y298980D01*
X171490Y302107D01*
X171490Y305493D01*
X172786Y308620D01*
X175180Y311014D01*
X178307Y312310D01*
X181693Y312310D01*
X184820Y311014D01*
X187214Y308620D01*
X188510Y305493D01*
X188510Y302107D01*
X187214Y298980D01*
X184820Y296586D01*
X181693Y295290D01*
X178307Y295290D01*
G37*
%LPD*%
%LPC*%
G36*
X279907Y295290D02*
X279907Y295290D01*
X276780Y296586D01*
X274386Y298980D01*
X273090Y302107D01*
X273090Y305493D01*
X274386Y308620D01*
X276780Y311014D01*
X279907Y312310D01*
X283293Y312310D01*
X286420Y311014D01*
X288814Y308620D01*
X290110Y305493D01*
X290110Y302107D01*
X288814Y298980D01*
X286420Y296586D01*
X283293Y295290D01*
X279907Y295290D01*
G37*
%LPD*%
%LPC*%
G36*
X-75693Y295290D02*
X-75693Y295290D01*
X-78820Y296586D01*
X-81214Y298980D01*
X-82510Y302107D01*
X-82510Y305493D01*
X-81214Y308620D01*
X-78820Y311014D01*
X-75693Y312310D01*
X-72307Y312310D01*
X-69180Y311014D01*
X-66786Y308620D01*
X-65490Y305493D01*
X-65490Y302107D01*
X-66786Y298980D01*
X-69180Y296586D01*
X-72307Y295290D01*
X-75693Y295290D01*
G37*
%LPD*%
%LPC*%
G36*
X-50293Y295290D02*
X-50293Y295290D01*
X-53420Y296586D01*
X-55814Y298980D01*
X-57110Y302107D01*
X-57110Y305493D01*
X-55814Y308620D01*
X-53420Y311014D01*
X-50293Y312310D01*
X-46907Y312310D01*
X-43780Y311014D01*
X-41386Y308620D01*
X-40090Y305493D01*
X-40090Y302107D01*
X-41386Y298980D01*
X-43780Y296586D01*
X-46907Y295290D01*
X-50293Y295290D01*
G37*
%LPD*%
%LPC*%
G36*
X-24893Y295290D02*
X-24893Y295290D01*
X-28020Y296586D01*
X-30414Y298980D01*
X-31710Y302107D01*
X-31710Y305493D01*
X-30414Y308620D01*
X-28020Y311014D01*
X-24893Y312310D01*
X-21507Y312310D01*
X-18380Y311014D01*
X-15986Y308620D01*
X-14690Y305493D01*
X-14690Y302107D01*
X-15986Y298980D01*
X-18380Y296586D01*
X-21507Y295290D01*
X-24893Y295290D01*
G37*
%LPD*%
%LPC*%
G36*
X483107Y447690D02*
X483107Y447690D01*
X479980Y448986D01*
X477586Y451380D01*
X476290Y454507D01*
X476290Y457893D01*
X477586Y461020D01*
X479980Y463414D01*
X483107Y464710D01*
X486493Y464710D01*
X489620Y463414D01*
X492014Y461020D01*
X493310Y457893D01*
X493310Y454507D01*
X492014Y451380D01*
X489620Y448986D01*
X486493Y447690D01*
X483107Y447690D01*
G37*
%LPD*%
%LPC*%
G36*
X457707Y447690D02*
X457707Y447690D01*
X454580Y448986D01*
X452186Y451380D01*
X450890Y454507D01*
X450890Y457893D01*
X452186Y461020D01*
X454580Y463414D01*
X457707Y464710D01*
X461093Y464710D01*
X464220Y463414D01*
X466614Y461020D01*
X467910Y457893D01*
X467910Y454507D01*
X466614Y451380D01*
X464220Y448986D01*
X461093Y447690D01*
X457707Y447690D01*
G37*
%LPD*%
%LPC*%
G36*
X432307Y447690D02*
X432307Y447690D01*
X429180Y448986D01*
X426786Y451380D01*
X425490Y454507D01*
X425490Y457893D01*
X426786Y461020D01*
X429180Y463414D01*
X432307Y464710D01*
X435693Y464710D01*
X438820Y463414D01*
X441214Y461020D01*
X442510Y457893D01*
X442510Y454507D01*
X441214Y451380D01*
X438820Y448986D01*
X435693Y447690D01*
X432307Y447690D01*
G37*
%LPD*%
%LPC*%
G36*
X406907Y447690D02*
X406907Y447690D01*
X403780Y448986D01*
X401386Y451380D01*
X400090Y454507D01*
X400090Y457893D01*
X401386Y461020D01*
X403780Y463414D01*
X406907Y464710D01*
X410293Y464710D01*
X413420Y463414D01*
X415814Y461020D01*
X417110Y457893D01*
X417110Y454507D01*
X415814Y451380D01*
X413420Y448986D01*
X410293Y447690D01*
X406907Y447690D01*
G37*
%LPD*%
%LPC*%
G36*
X381507Y447690D02*
X381507Y447690D01*
X378380Y448986D01*
X375986Y451380D01*
X374690Y454507D01*
X374690Y457893D01*
X375986Y461020D01*
X378380Y463414D01*
X381507Y464710D01*
X384893Y464710D01*
X388020Y463414D01*
X390414Y461020D01*
X391710Y457893D01*
X391710Y454507D01*
X390414Y451380D01*
X388020Y448986D01*
X384893Y447690D01*
X381507Y447690D01*
G37*
%LPD*%
%LPC*%
G36*
X507Y447690D02*
X507Y447690D01*
X-2620Y448986D01*
X-5014Y451380D01*
X-6310Y454507D01*
X-6310Y457893D01*
X-5014Y461020D01*
X-2620Y463414D01*
X507Y464710D01*
X3893Y464710D01*
X7020Y463414D01*
X9414Y461020D01*
X10710Y457893D01*
X10710Y454507D01*
X9414Y451380D01*
X7020Y448986D01*
X3893Y447690D01*
X507Y447690D01*
G37*
%LPD*%
%LPC*%
G36*
X507Y295290D02*
X507Y295290D01*
X-2620Y296586D01*
X-5014Y298980D01*
X-6310Y302107D01*
X-6310Y305493D01*
X-5014Y308620D01*
X-2620Y311014D01*
X507Y312310D01*
X3893Y312310D01*
X7020Y311014D01*
X9414Y308620D01*
X10710Y305493D01*
X10710Y302107D01*
X9414Y298980D01*
X7020Y296586D01*
X3893Y295290D01*
X507Y295290D01*
G37*
%LPD*%
%LPC*%
G36*
X-47598Y384935D02*
X-47598Y384935D01*
X-50550Y386158D01*
X-52810Y388418D01*
X-54033Y391370D01*
X-54033Y394566D01*
X-52810Y397518D01*
X-50550Y399778D01*
X-47598Y401001D01*
X-44402Y401001D01*
X-41450Y399778D01*
X-39190Y397518D01*
X-37967Y394566D01*
X-37967Y391370D01*
X-39190Y388418D01*
X-41450Y386158D01*
X-44402Y384935D01*
X-47598Y384935D01*
G37*
%LPD*%
%LPC*%
G36*
X-10598Y337967D02*
X-10598Y337967D01*
X-13550Y339190D01*
X-15810Y341450D01*
X-17033Y344402D01*
X-17033Y347598D01*
X-15810Y350550D01*
X-13550Y352810D01*
X-10598Y354033D01*
X-7402Y354033D01*
X-4450Y352810D01*
X-2190Y350550D01*
X-967Y347598D01*
X-967Y344402D01*
X-2190Y341450D01*
X-4450Y339190D01*
X-7402Y337967D01*
X-10598Y337967D01*
G37*
%LPD*%
%LPC*%
G36*
X253945Y170697D02*
X253945Y170697D01*
X251996Y171505D01*
X250505Y172996D01*
X249697Y174945D01*
X249697Y177055D01*
X250505Y179004D01*
X251794Y180293D01*
X251833Y180345D01*
X251879Y180390D01*
X251917Y180457D01*
X251963Y180519D01*
X251986Y180579D01*
X252018Y180635D01*
X252036Y180710D01*
X252063Y180783D01*
X252068Y180847D01*
X252083Y180909D01*
X252079Y180987D01*
X252085Y181064D01*
X252072Y181127D01*
X252068Y181191D01*
X252043Y181264D01*
X252027Y181340D01*
X251997Y181397D01*
X251976Y181458D01*
X251935Y181514D01*
X251895Y181589D01*
X251836Y181650D01*
X251794Y181707D01*
X250505Y182996D01*
X249697Y184945D01*
X249697Y187055D01*
X250505Y189004D01*
X251996Y190495D01*
X253945Y191303D01*
X256055Y191303D01*
X258004Y190495D01*
X259495Y189004D01*
X260303Y187055D01*
X260303Y184945D01*
X259495Y182996D01*
X258206Y181707D01*
X258167Y181655D01*
X258121Y181610D01*
X258083Y181543D01*
X258036Y181481D01*
X258014Y181421D01*
X257982Y181365D01*
X257964Y181290D01*
X257937Y181217D01*
X257932Y181153D01*
X257917Y181090D01*
X257921Y181013D01*
X257915Y180936D01*
X257928Y180873D01*
X257932Y180809D01*
X257957Y180736D01*
X257973Y180660D01*
X258003Y180603D01*
X258024Y180542D01*
X258065Y180486D01*
X258105Y180411D01*
X258164Y180350D01*
X258206Y180293D01*
X259495Y179004D01*
X260303Y177055D01*
X260303Y174945D01*
X259495Y172996D01*
X258004Y171505D01*
X256055Y170697D01*
X253945Y170697D01*
G37*
%LPD*%
%LPC*%
G36*
X246945Y229697D02*
X246945Y229697D01*
X244996Y230505D01*
X243505Y231996D01*
X242697Y233945D01*
X242697Y236055D01*
X243505Y238004D01*
X244996Y239495D01*
X246945Y240303D01*
X249055Y240303D01*
X251004Y239495D01*
X252495Y238004D01*
X253303Y236055D01*
X253303Y233945D01*
X252495Y231996D01*
X251132Y230632D01*
X251080Y230563D01*
X251020Y230500D01*
X250995Y230451D01*
X250962Y230407D01*
X250932Y230325D01*
X250892Y230248D01*
X250882Y230194D01*
X250863Y230143D01*
X250856Y230056D01*
X250840Y229971D01*
X250845Y229916D01*
X250841Y229862D01*
X250855Y229794D01*
X250811Y229826D01*
X250772Y229865D01*
X250697Y229908D01*
X250626Y229959D01*
X250575Y229977D01*
X250527Y230005D01*
X250442Y230025D01*
X250361Y230054D01*
X250306Y230057D01*
X250252Y230069D01*
X250166Y230065D01*
X250079Y230070D01*
X250030Y230058D01*
X249971Y230055D01*
X249863Y230018D01*
X249780Y229997D01*
X249055Y229697D01*
X246945Y229697D01*
G37*
%LPD*%
%LPC*%
G36*
X252945Y218697D02*
X252945Y218697D01*
X250996Y219505D01*
X249505Y220996D01*
X248697Y222945D01*
X248697Y225055D01*
X249505Y227004D01*
X250869Y228368D01*
X250921Y228437D01*
X250980Y228500D01*
X251005Y228550D01*
X251038Y228593D01*
X251068Y228674D01*
X251108Y228752D01*
X251118Y228806D01*
X251137Y228857D01*
X251144Y228944D01*
X251160Y229029D01*
X251155Y229084D01*
X251159Y229138D01*
X251145Y229206D01*
X251189Y229174D01*
X251228Y229135D01*
X251303Y229092D01*
X251374Y229041D01*
X251425Y229023D01*
X251473Y228995D01*
X251558Y228975D01*
X251639Y228946D01*
X251694Y228943D01*
X251748Y228931D01*
X251834Y228935D01*
X251921Y228930D01*
X251970Y228942D01*
X252029Y228945D01*
X252137Y228982D01*
X252220Y229003D01*
X252945Y229303D01*
X255055Y229303D01*
X257004Y228495D01*
X258495Y227004D01*
X259303Y225055D01*
X259303Y222945D01*
X258495Y220996D01*
X257004Y219505D01*
X255055Y218697D01*
X252945Y218697D01*
G37*
%LPD*%
%LPC*%
G36*
X295945Y342697D02*
X295945Y342697D01*
X293996Y343505D01*
X292505Y344996D01*
X291697Y346945D01*
X291697Y349055D01*
X292505Y351004D01*
X293996Y352495D01*
X295945Y353303D01*
X298055Y353303D01*
X300004Y352495D01*
X301495Y351004D01*
X302303Y349055D01*
X302303Y346945D01*
X301495Y344996D01*
X300004Y343505D01*
X298055Y342697D01*
X295945Y342697D01*
G37*
%LPD*%
%LPC*%
G36*
X228945Y334697D02*
X228945Y334697D01*
X226996Y335505D01*
X225505Y336996D01*
X224697Y338945D01*
X224697Y341055D01*
X225505Y343004D01*
X226996Y344495D01*
X228945Y345303D01*
X231055Y345303D01*
X233004Y344495D01*
X234495Y343004D01*
X235303Y341055D01*
X235303Y338945D01*
X234495Y336996D01*
X233004Y335505D01*
X231055Y334697D01*
X228945Y334697D01*
G37*
%LPD*%
%LPC*%
G36*
X208945Y334697D02*
X208945Y334697D01*
X206996Y335505D01*
X205505Y336996D01*
X204697Y338945D01*
X204697Y341055D01*
X205505Y343004D01*
X206996Y344495D01*
X208945Y345303D01*
X211055Y345303D01*
X213004Y344495D01*
X214495Y343004D01*
X215303Y341055D01*
X215303Y338945D01*
X214495Y336996D01*
X213004Y335505D01*
X211055Y334697D01*
X208945Y334697D01*
G37*
%LPD*%
%LPC*%
G36*
X181945Y334697D02*
X181945Y334697D01*
X179996Y335505D01*
X178505Y336996D01*
X177697Y338945D01*
X177697Y341055D01*
X178505Y343004D01*
X179996Y344495D01*
X181945Y345303D01*
X184055Y345303D01*
X186004Y344495D01*
X187495Y343004D01*
X188303Y341055D01*
X188303Y338945D01*
X187495Y336996D01*
X186004Y335505D01*
X184055Y334697D01*
X181945Y334697D01*
G37*
%LPD*%
%LPC*%
G36*
X338945Y314697D02*
X338945Y314697D01*
X336996Y315505D01*
X335505Y316996D01*
X334697Y318945D01*
X334697Y321055D01*
X335505Y323004D01*
X336996Y324495D01*
X338945Y325303D01*
X341055Y325303D01*
X343004Y324495D01*
X344495Y323004D01*
X345303Y321055D01*
X345303Y318945D01*
X344495Y316996D01*
X343004Y315505D01*
X341055Y314697D01*
X338945Y314697D01*
G37*
%LPD*%
%LPC*%
G36*
X270945Y342697D02*
X270945Y342697D01*
X268996Y343505D01*
X267505Y344996D01*
X266697Y346945D01*
X266697Y349055D01*
X267505Y351004D01*
X268996Y352495D01*
X270945Y353303D01*
X273055Y353303D01*
X275004Y352495D01*
X276495Y351004D01*
X277303Y349055D01*
X277303Y346945D01*
X276495Y344996D01*
X275004Y343505D01*
X273055Y342697D01*
X270945Y342697D01*
G37*
%LPD*%
%LPC*%
G36*
X321945Y280999D02*
X321945Y280999D01*
X319996Y281807D01*
X318505Y283298D01*
X317697Y285247D01*
X317697Y287357D01*
X318505Y289306D01*
X319996Y290797D01*
X321945Y291605D01*
X324055Y291605D01*
X326004Y290797D01*
X327495Y289306D01*
X328303Y287357D01*
X328303Y285247D01*
X327495Y283298D01*
X326004Y281807D01*
X324055Y280999D01*
X321945Y280999D01*
G37*
%LPD*%
%LPC*%
G36*
X480945Y279697D02*
X480945Y279697D01*
X478996Y280505D01*
X477505Y281996D01*
X476697Y283945D01*
X476697Y286055D01*
X477505Y288004D01*
X478996Y289495D01*
X480945Y290303D01*
X483055Y290303D01*
X485004Y289495D01*
X486495Y288004D01*
X487303Y286055D01*
X487303Y283945D01*
X486495Y281996D01*
X485004Y280505D01*
X483055Y279697D01*
X480945Y279697D01*
G37*
%LPD*%
%LPC*%
G36*
X455011Y268697D02*
X455011Y268697D01*
X453062Y269505D01*
X451571Y270996D01*
X450763Y272945D01*
X450763Y275055D01*
X451571Y277004D01*
X453062Y278495D01*
X455011Y279303D01*
X457121Y279303D01*
X459070Y278495D01*
X460561Y277004D01*
X461369Y275055D01*
X461369Y272945D01*
X460561Y270996D01*
X459070Y269505D01*
X457121Y268697D01*
X455011Y268697D01*
G37*
%LPD*%
%LPC*%
G36*
X225945Y262697D02*
X225945Y262697D01*
X223996Y263505D01*
X222505Y264996D01*
X221697Y266945D01*
X221697Y269055D01*
X222505Y271004D01*
X223996Y272495D01*
X225945Y273303D01*
X228055Y273303D01*
X230004Y272495D01*
X231495Y271004D01*
X232303Y269055D01*
X232303Y266945D01*
X231495Y264996D01*
X230004Y263505D01*
X228055Y262697D01*
X225945Y262697D01*
G37*
%LPD*%
%LPC*%
G36*
X28945Y262697D02*
X28945Y262697D01*
X26996Y263505D01*
X25505Y264996D01*
X24697Y266945D01*
X24697Y269055D01*
X25505Y271004D01*
X26996Y272495D01*
X28945Y273303D01*
X31055Y273303D01*
X33004Y272495D01*
X34495Y271004D01*
X35303Y269055D01*
X35303Y266945D01*
X34495Y264996D01*
X33004Y263505D01*
X31055Y262697D01*
X28945Y262697D01*
G37*
%LPD*%
%LPC*%
G36*
X155945Y259697D02*
X155945Y259697D01*
X153996Y260505D01*
X152505Y261996D01*
X151697Y263945D01*
X151697Y266055D01*
X152505Y268004D01*
X153996Y269495D01*
X155945Y270303D01*
X158055Y270303D01*
X160004Y269495D01*
X161495Y268004D01*
X162303Y266055D01*
X162303Y263945D01*
X161495Y261996D01*
X160004Y260505D01*
X158055Y259697D01*
X155945Y259697D01*
G37*
%LPD*%
%LPC*%
G36*
X136945Y257697D02*
X136945Y257697D01*
X134996Y258505D01*
X133505Y259996D01*
X132697Y261945D01*
X132697Y264055D01*
X133505Y266004D01*
X134996Y267495D01*
X136945Y268303D01*
X139055Y268303D01*
X141004Y267495D01*
X142495Y266004D01*
X143303Y264055D01*
X143303Y261945D01*
X142495Y259996D01*
X141004Y258505D01*
X139055Y257697D01*
X136945Y257697D01*
G37*
%LPD*%
%LPC*%
G36*
X238945Y255253D02*
X238945Y255253D01*
X236996Y256061D01*
X235505Y257552D01*
X234697Y259501D01*
X234697Y261611D01*
X235505Y263560D01*
X236996Y265051D01*
X238945Y265859D01*
X241055Y265859D01*
X243004Y265051D01*
X244495Y263560D01*
X245303Y261611D01*
X245303Y259501D01*
X244495Y257552D01*
X243004Y256061D01*
X241055Y255253D01*
X238945Y255253D01*
G37*
%LPD*%
%LPC*%
G36*
X105945Y254697D02*
X105945Y254697D01*
X103996Y255505D01*
X102505Y256996D01*
X101697Y258945D01*
X101697Y261055D01*
X102505Y263004D01*
X103996Y264495D01*
X105945Y265303D01*
X108055Y265303D01*
X110004Y264495D01*
X111495Y263004D01*
X112303Y261055D01*
X112303Y258945D01*
X111495Y256996D01*
X110004Y255505D01*
X108055Y254697D01*
X105945Y254697D01*
G37*
%LPD*%
%LPC*%
G36*
X322945Y252697D02*
X322945Y252697D01*
X320996Y253505D01*
X319505Y254996D01*
X318697Y256945D01*
X318697Y259055D01*
X319505Y261004D01*
X320996Y262495D01*
X322945Y263303D01*
X325055Y263303D01*
X327004Y262495D01*
X328495Y261004D01*
X329303Y259055D01*
X329303Y256945D01*
X328495Y254996D01*
X327004Y253505D01*
X325055Y252697D01*
X322945Y252697D01*
G37*
%LPD*%
%LPC*%
G36*
X291945Y252697D02*
X291945Y252697D01*
X289996Y253505D01*
X288505Y254996D01*
X287697Y256945D01*
X287697Y259055D01*
X288505Y261004D01*
X289996Y262495D01*
X291945Y263303D01*
X294055Y263303D01*
X296004Y262495D01*
X297495Y261004D01*
X298303Y259055D01*
X298303Y256945D01*
X297495Y254996D01*
X296004Y253505D01*
X294055Y252697D01*
X291945Y252697D01*
G37*
%LPD*%
%LPC*%
G36*
X78945Y244697D02*
X78945Y244697D01*
X76996Y245505D01*
X75505Y246996D01*
X74697Y248945D01*
X74697Y251055D01*
X75505Y253004D01*
X76996Y254495D01*
X78945Y255303D01*
X81055Y255303D01*
X83004Y254495D01*
X84495Y253004D01*
X85303Y251055D01*
X85303Y248945D01*
X84495Y246996D01*
X83004Y245505D01*
X81055Y244697D01*
X78945Y244697D01*
G37*
%LPD*%
%LPC*%
G36*
X-51055Y244697D02*
X-51055Y244697D01*
X-53004Y245505D01*
X-54495Y246996D01*
X-55303Y248945D01*
X-55303Y251055D01*
X-54495Y253004D01*
X-53004Y254495D01*
X-51055Y255303D01*
X-48945Y255303D01*
X-46996Y254495D01*
X-45505Y253004D01*
X-44697Y251055D01*
X-44697Y248945D01*
X-45505Y246996D01*
X-46996Y245505D01*
X-48945Y244697D01*
X-51055Y244697D01*
G37*
%LPD*%
%LPC*%
G36*
X-91055Y244697D02*
X-91055Y244697D01*
X-93004Y245505D01*
X-94495Y246996D01*
X-95303Y248945D01*
X-95303Y251055D01*
X-94495Y253004D01*
X-93004Y254495D01*
X-91055Y255303D01*
X-88945Y255303D01*
X-86996Y254495D01*
X-85505Y253004D01*
X-84697Y251055D01*
X-84697Y248945D01*
X-85505Y246996D01*
X-86996Y245505D01*
X-88945Y244697D01*
X-91055Y244697D01*
G37*
%LPD*%
%LPC*%
G36*
X-67055Y234697D02*
X-67055Y234697D01*
X-69004Y235505D01*
X-70495Y236996D01*
X-71303Y238945D01*
X-71303Y241055D01*
X-70495Y243004D01*
X-69004Y244495D01*
X-67055Y245303D01*
X-64945Y245303D01*
X-62996Y244495D01*
X-61505Y243004D01*
X-60697Y241055D01*
X-60697Y238945D01*
X-61505Y236996D01*
X-62996Y235505D01*
X-64945Y234697D01*
X-67055Y234697D01*
G37*
%LPD*%
%LPC*%
G36*
X175945Y520697D02*
X175945Y520697D01*
X173996Y521505D01*
X172505Y522996D01*
X171697Y524945D01*
X171697Y527055D01*
X172505Y529004D01*
X173996Y530495D01*
X175945Y531303D01*
X178055Y531303D01*
X180004Y530495D01*
X181495Y529004D01*
X182303Y527055D01*
X182303Y524945D01*
X181495Y522996D01*
X180004Y521505D01*
X178055Y520697D01*
X175945Y520697D01*
G37*
%LPD*%
%LPC*%
G36*
X117565Y430697D02*
X117565Y430697D01*
X115616Y431505D01*
X114125Y432996D01*
X113317Y434945D01*
X113317Y437055D01*
X114125Y439004D01*
X115616Y440495D01*
X117565Y441303D01*
X119675Y441303D01*
X121624Y440495D01*
X123115Y439004D01*
X123923Y437055D01*
X123923Y434945D01*
X123115Y432996D01*
X121624Y431505D01*
X119675Y430697D01*
X117565Y430697D01*
G37*
%LPD*%
%LPC*%
G36*
X-8055Y210697D02*
X-8055Y210697D01*
X-10004Y211505D01*
X-11495Y212996D01*
X-12303Y214945D01*
X-12303Y217055D01*
X-11495Y219004D01*
X-10004Y220495D01*
X-8055Y221303D01*
X-5945Y221303D01*
X-3996Y220495D01*
X-2505Y219004D01*
X-1697Y217055D01*
X-1697Y214945D01*
X-2505Y212996D01*
X-3996Y211505D01*
X-5945Y210697D01*
X-8055Y210697D01*
G37*
%LPD*%
%LPC*%
G36*
X273945Y206697D02*
X273945Y206697D01*
X271996Y207505D01*
X270505Y208996D01*
X269697Y210945D01*
X269697Y213055D01*
X270505Y215004D01*
X271996Y216495D01*
X273945Y217303D01*
X276055Y217303D01*
X278004Y216495D01*
X279495Y215004D01*
X280303Y213055D01*
X280303Y210945D01*
X279495Y208996D01*
X278004Y207505D01*
X276055Y206697D01*
X273945Y206697D01*
G37*
%LPD*%
%LPC*%
G36*
X-77055Y204697D02*
X-77055Y204697D01*
X-79004Y205505D01*
X-80495Y206996D01*
X-81303Y208945D01*
X-81303Y211055D01*
X-80495Y213004D01*
X-79004Y214495D01*
X-77055Y215303D01*
X-74945Y215303D01*
X-72996Y214495D01*
X-71505Y213004D01*
X-70697Y211055D01*
X-70697Y208945D01*
X-71505Y206996D01*
X-72996Y205505D01*
X-74945Y204697D01*
X-77055Y204697D01*
G37*
%LPD*%
%LPC*%
G36*
X378945Y200697D02*
X378945Y200697D01*
X376996Y201505D01*
X375505Y202996D01*
X374697Y204945D01*
X374697Y207055D01*
X375505Y209004D01*
X376996Y210495D01*
X378945Y211303D01*
X381055Y211303D01*
X383004Y210495D01*
X384495Y209004D01*
X385303Y207055D01*
X385303Y204945D01*
X384495Y202996D01*
X383004Y201505D01*
X381055Y200697D01*
X378945Y200697D01*
G37*
%LPD*%
%LPC*%
G36*
X66945Y200697D02*
X66945Y200697D01*
X64996Y201505D01*
X63505Y202996D01*
X62697Y204945D01*
X62697Y207055D01*
X63505Y209004D01*
X64996Y210495D01*
X66945Y211303D01*
X69055Y211303D01*
X71004Y210495D01*
X72495Y209004D01*
X73303Y207055D01*
X73303Y204945D01*
X72495Y202996D01*
X71004Y201505D01*
X69055Y200697D01*
X66945Y200697D01*
G37*
%LPD*%
%LPC*%
G36*
X148945Y200395D02*
X148945Y200395D01*
X146996Y201203D01*
X145505Y202694D01*
X144697Y204643D01*
X144697Y206753D01*
X145505Y208702D01*
X146996Y210193D01*
X148945Y211001D01*
X151055Y211001D01*
X153004Y210193D01*
X154495Y208702D01*
X155303Y206753D01*
X155303Y204643D01*
X154495Y202694D01*
X153004Y201203D01*
X151055Y200395D01*
X148945Y200395D01*
G37*
%LPD*%
%LPC*%
G36*
X468945Y184697D02*
X468945Y184697D01*
X466996Y185505D01*
X465505Y186996D01*
X464697Y188945D01*
X464697Y191055D01*
X465505Y193004D01*
X466996Y194495D01*
X468945Y195303D01*
X471055Y195303D01*
X473004Y194495D01*
X474495Y193004D01*
X475303Y191055D01*
X475303Y188945D01*
X474495Y186996D01*
X473004Y185505D01*
X471055Y184697D01*
X468945Y184697D01*
G37*
%LPD*%
%LPC*%
G36*
X328945Y184697D02*
X328945Y184697D01*
X326996Y185505D01*
X325505Y186996D01*
X324697Y188945D01*
X324697Y191055D01*
X325505Y193004D01*
X326996Y194495D01*
X328945Y195303D01*
X331055Y195303D01*
X333004Y194495D01*
X334495Y193004D01*
X335303Y191055D01*
X335303Y188945D01*
X334495Y186996D01*
X333004Y185505D01*
X331055Y184697D01*
X328945Y184697D01*
G37*
%LPD*%
%LPC*%
G36*
X-41055Y184697D02*
X-41055Y184697D01*
X-43004Y185505D01*
X-44495Y186996D01*
X-45303Y188945D01*
X-45303Y191055D01*
X-44495Y193004D01*
X-43004Y194495D01*
X-41055Y195303D01*
X-38945Y195303D01*
X-36996Y194495D01*
X-35505Y193004D01*
X-34697Y191055D01*
X-34697Y188945D01*
X-35505Y186996D01*
X-36996Y185505D01*
X-38945Y184697D01*
X-41055Y184697D01*
G37*
%LPD*%
%LPC*%
G36*
X304945Y181697D02*
X304945Y181697D01*
X302996Y182505D01*
X301505Y183996D01*
X300697Y185945D01*
X300697Y188055D01*
X301505Y190004D01*
X302996Y191495D01*
X304945Y192303D01*
X307055Y192303D01*
X309004Y191495D01*
X310495Y190004D01*
X311303Y188055D01*
X311303Y185945D01*
X310495Y183996D01*
X309004Y182505D01*
X307055Y181697D01*
X304945Y181697D01*
G37*
%LPD*%
%LPC*%
G36*
X77401Y430153D02*
X77401Y430153D01*
X75452Y430961D01*
X73961Y432452D01*
X73153Y434401D01*
X73153Y436511D01*
X73961Y438460D01*
X75452Y439952D01*
X77401Y440759D01*
X79511Y440759D01*
X81460Y439952D01*
X82952Y438460D01*
X83759Y436511D01*
X83759Y434401D01*
X82952Y432452D01*
X81460Y430961D01*
X79511Y430153D01*
X77401Y430153D01*
G37*
%LPD*%
%LPC*%
G36*
X209945Y176697D02*
X209945Y176697D01*
X207996Y177505D01*
X206505Y178996D01*
X205697Y180945D01*
X205697Y183055D01*
X206505Y185004D01*
X207996Y186495D01*
X209945Y187303D01*
X212055Y187303D01*
X214004Y186495D01*
X215495Y185004D01*
X216303Y183055D01*
X216303Y180945D01*
X215495Y178996D01*
X214004Y177505D01*
X212055Y176697D01*
X209945Y176697D01*
G37*
%LPD*%
%LPC*%
G36*
X474945Y165697D02*
X474945Y165697D01*
X472996Y166505D01*
X471505Y167996D01*
X470697Y169945D01*
X470697Y172055D01*
X471505Y174004D01*
X472996Y175495D01*
X474945Y176303D01*
X477055Y176303D01*
X479004Y175495D01*
X480495Y174004D01*
X481303Y172055D01*
X481303Y169945D01*
X480495Y167996D01*
X479004Y166505D01*
X477055Y165697D01*
X474945Y165697D01*
G37*
%LPD*%
%LPC*%
G36*
X149945Y165697D02*
X149945Y165697D01*
X147996Y166505D01*
X146505Y167996D01*
X145697Y169945D01*
X145697Y172055D01*
X146505Y174004D01*
X147996Y175495D01*
X149945Y176303D01*
X152055Y176303D01*
X154004Y175495D01*
X155495Y174004D01*
X156303Y172055D01*
X156303Y169945D01*
X155495Y167996D01*
X154004Y166505D01*
X152055Y165697D01*
X149945Y165697D01*
G37*
%LPD*%
%LPC*%
G36*
X262945Y428697D02*
X262945Y428697D01*
X260996Y429505D01*
X259505Y430996D01*
X258697Y432945D01*
X258697Y435055D01*
X259505Y437004D01*
X260996Y438495D01*
X262945Y439303D01*
X265055Y439303D01*
X267004Y438495D01*
X268495Y437004D01*
X269303Y435055D01*
X269303Y432945D01*
X268495Y430996D01*
X267004Y429505D01*
X265055Y428697D01*
X262945Y428697D01*
G37*
%LPD*%
%LPC*%
G36*
X-101055Y154697D02*
X-101055Y154697D01*
X-103004Y155505D01*
X-104495Y156996D01*
X-105303Y158945D01*
X-105303Y161055D01*
X-104495Y163004D01*
X-103004Y164495D01*
X-101055Y165303D01*
X-98945Y165303D01*
X-96996Y164495D01*
X-95505Y163004D01*
X-94697Y161055D01*
X-94697Y158945D01*
X-95505Y156996D01*
X-96996Y155505D01*
X-98945Y154697D01*
X-101055Y154697D01*
G37*
%LPD*%
%LPC*%
G36*
X155945Y153697D02*
X155945Y153697D01*
X153996Y154505D01*
X152505Y155996D01*
X151697Y157945D01*
X151697Y160055D01*
X152505Y162004D01*
X153996Y163495D01*
X155945Y164303D01*
X158055Y164303D01*
X160004Y163495D01*
X161495Y162004D01*
X162303Y160055D01*
X162303Y157945D01*
X161495Y155996D01*
X160004Y154505D01*
X158055Y153697D01*
X155945Y153697D01*
G37*
%LPD*%
%LPC*%
G36*
X396945Y152253D02*
X396945Y152253D01*
X394996Y153061D01*
X393505Y154552D01*
X392697Y156501D01*
X392697Y158611D01*
X393505Y160560D01*
X394996Y162051D01*
X396945Y162859D01*
X399055Y162859D01*
X401004Y162051D01*
X402495Y160560D01*
X403303Y158611D01*
X403303Y156501D01*
X402495Y154552D01*
X401004Y153061D01*
X399055Y152253D01*
X396945Y152253D01*
G37*
%LPD*%
%LPC*%
G36*
X409945Y151697D02*
X409945Y151697D01*
X407996Y152505D01*
X406505Y153996D01*
X405697Y155945D01*
X405697Y158055D01*
X406505Y160004D01*
X407996Y161495D01*
X409945Y162303D01*
X412055Y162303D01*
X414004Y161495D01*
X415495Y160004D01*
X416303Y158055D01*
X416303Y155945D01*
X415495Y153996D01*
X414004Y152505D01*
X412055Y151697D01*
X409945Y151697D01*
G37*
%LPD*%
%LPC*%
G36*
X-21055Y151697D02*
X-21055Y151697D01*
X-23004Y152505D01*
X-24495Y153996D01*
X-25303Y155945D01*
X-25303Y158055D01*
X-24495Y160004D01*
X-23004Y161495D01*
X-21055Y162303D01*
X-18945Y162303D01*
X-16996Y161495D01*
X-15505Y160004D01*
X-14697Y158055D01*
X-14697Y155945D01*
X-15505Y153996D01*
X-16996Y152505D01*
X-18945Y151697D01*
X-21055Y151697D01*
G37*
%LPD*%
%LPC*%
G36*
X36945Y143697D02*
X36945Y143697D01*
X34996Y144505D01*
X33505Y145996D01*
X32697Y147945D01*
X32697Y150055D01*
X33505Y152004D01*
X34996Y153495D01*
X36945Y154303D01*
X39055Y154303D01*
X41004Y153495D01*
X42495Y152004D01*
X43303Y150055D01*
X43303Y147945D01*
X42495Y145996D01*
X41004Y144505D01*
X39055Y143697D01*
X36945Y143697D01*
G37*
%LPD*%
%LPC*%
G36*
X347945Y141697D02*
X347945Y141697D01*
X345996Y142505D01*
X344505Y143996D01*
X343697Y145945D01*
X343697Y148055D01*
X344505Y150004D01*
X345996Y151495D01*
X347945Y152303D01*
X350055Y152303D01*
X352004Y151495D01*
X353495Y150004D01*
X354303Y148055D01*
X354303Y145945D01*
X353495Y143996D01*
X352004Y142505D01*
X350055Y141697D01*
X347945Y141697D01*
G37*
%LPD*%
%LPC*%
G36*
X332945Y141697D02*
X332945Y141697D01*
X330996Y142505D01*
X329505Y143996D01*
X328697Y145945D01*
X328697Y148055D01*
X329505Y150004D01*
X330996Y151495D01*
X332945Y152303D01*
X335055Y152303D01*
X337004Y151495D01*
X338495Y150004D01*
X339303Y148055D01*
X339303Y145945D01*
X338495Y143996D01*
X337004Y142505D01*
X335055Y141697D01*
X332945Y141697D01*
G37*
%LPD*%
%LPC*%
G36*
X300945Y141697D02*
X300945Y141697D01*
X298996Y142505D01*
X297505Y143996D01*
X296697Y145945D01*
X296697Y148055D01*
X297505Y150004D01*
X298996Y151495D01*
X300945Y152303D01*
X303055Y152303D01*
X305004Y151495D01*
X306495Y150004D01*
X307303Y148055D01*
X307303Y145945D01*
X306495Y143996D01*
X305004Y142505D01*
X303055Y141697D01*
X300945Y141697D01*
G37*
%LPD*%
%LPC*%
G36*
X-75055Y138697D02*
X-75055Y138697D01*
X-77004Y139505D01*
X-78495Y140996D01*
X-79303Y142945D01*
X-79303Y145055D01*
X-78495Y147004D01*
X-77004Y148495D01*
X-75055Y149303D01*
X-72945Y149303D01*
X-70996Y148495D01*
X-69505Y147004D01*
X-68697Y145055D01*
X-68697Y142945D01*
X-69505Y140996D01*
X-70996Y139505D01*
X-72945Y138697D01*
X-75055Y138697D01*
G37*
%LPD*%
%LPC*%
G36*
X388945Y132697D02*
X388945Y132697D01*
X386996Y133505D01*
X385505Y134996D01*
X384697Y136945D01*
X384697Y139055D01*
X385505Y141004D01*
X386996Y142495D01*
X388945Y143303D01*
X391055Y143303D01*
X393004Y142495D01*
X394495Y141004D01*
X395303Y139055D01*
X395303Y136945D01*
X394495Y134996D01*
X393004Y133505D01*
X391055Y132697D01*
X388945Y132697D01*
G37*
%LPD*%
%LPC*%
G36*
X232945Y128697D02*
X232945Y128697D01*
X230996Y129505D01*
X229505Y130996D01*
X228697Y132945D01*
X228697Y135055D01*
X229505Y137004D01*
X230996Y138495D01*
X232945Y139303D01*
X235055Y139303D01*
X237004Y138495D01*
X238495Y137004D01*
X239303Y135055D01*
X239303Y132945D01*
X238495Y130996D01*
X237004Y129505D01*
X235055Y128697D01*
X232945Y128697D01*
G37*
%LPD*%
%LPC*%
G36*
X173945Y419697D02*
X173945Y419697D01*
X171996Y420505D01*
X170505Y421996D01*
X169697Y423945D01*
X169697Y426055D01*
X170505Y428004D01*
X171996Y429495D01*
X173945Y430303D01*
X176055Y430303D01*
X178004Y429495D01*
X179495Y428004D01*
X180303Y426055D01*
X180303Y423945D01*
X179495Y421996D01*
X178004Y420505D01*
X176055Y419697D01*
X173945Y419697D01*
G37*
%LPD*%
%LPC*%
G36*
X-96055Y418697D02*
X-96055Y418697D01*
X-98004Y419505D01*
X-99495Y420996D01*
X-100303Y422945D01*
X-100303Y425055D01*
X-99495Y427004D01*
X-98004Y428495D01*
X-96055Y429303D01*
X-93945Y429303D01*
X-91996Y428495D01*
X-90505Y427004D01*
X-89697Y425055D01*
X-89697Y422945D01*
X-90505Y420996D01*
X-91996Y419505D01*
X-93945Y418697D01*
X-96055Y418697D01*
G37*
%LPD*%
%LPC*%
G36*
X-52055Y369697D02*
X-52055Y369697D01*
X-54004Y370505D01*
X-55495Y371996D01*
X-56303Y373945D01*
X-56303Y376055D01*
X-55495Y378004D01*
X-54004Y379495D01*
X-52055Y380303D01*
X-49945Y380303D01*
X-47996Y379495D01*
X-46505Y378004D01*
X-45697Y376055D01*
X-45697Y373945D01*
X-46505Y371996D01*
X-47996Y370505D01*
X-49945Y369697D01*
X-52055Y369697D01*
G37*
%LPD*%
%LPC*%
G36*
X-99055Y369697D02*
X-99055Y369697D01*
X-101004Y370505D01*
X-102495Y371996D01*
X-103303Y373945D01*
X-103303Y376055D01*
X-102495Y378004D01*
X-101004Y379495D01*
X-99055Y380303D01*
X-96945Y380303D01*
X-94996Y379495D01*
X-93505Y378004D01*
X-92697Y376055D01*
X-92697Y373945D01*
X-93505Y371996D01*
X-94996Y370505D01*
X-96945Y369697D01*
X-99055Y369697D01*
G37*
%LPD*%
%LPC*%
G36*
X-66055Y106697D02*
X-66055Y106697D01*
X-68004Y107505D01*
X-69495Y108996D01*
X-70303Y110945D01*
X-70303Y113055D01*
X-69495Y115004D01*
X-68004Y116495D01*
X-66055Y117303D01*
X-63945Y117303D01*
X-61996Y116495D01*
X-60505Y115004D01*
X-59697Y113055D01*
X-59697Y110945D01*
X-60505Y108996D01*
X-61996Y107505D01*
X-63945Y106697D01*
X-66055Y106697D01*
G37*
%LPD*%
%LPC*%
G36*
X360945Y100697D02*
X360945Y100697D01*
X358996Y101505D01*
X357505Y102996D01*
X356697Y104945D01*
X356697Y107055D01*
X357505Y109004D01*
X358996Y110495D01*
X360945Y111303D01*
X363055Y111303D01*
X365004Y110495D01*
X366495Y109004D01*
X367303Y107055D01*
X367303Y104945D01*
X366495Y102996D01*
X365004Y101505D01*
X363055Y100697D01*
X360945Y100697D01*
G37*
%LPD*%
%LPC*%
G36*
X377945Y162697D02*
X377945Y162697D01*
X375996Y163505D01*
X374505Y164996D01*
X373697Y166945D01*
X373697Y169055D01*
X374505Y171004D01*
X375996Y172495D01*
X377945Y173303D01*
X380055Y173303D01*
X382004Y172495D01*
X383495Y171004D01*
X384303Y169055D01*
X384303Y166945D01*
X383495Y164996D01*
X382004Y163505D01*
X380055Y162697D01*
X377945Y162697D01*
G37*
%LPD*%
%LPC*%
G36*
X78945Y364697D02*
X78945Y364697D01*
X76996Y365505D01*
X75505Y366996D01*
X74697Y368945D01*
X74697Y371055D01*
X75505Y373004D01*
X76996Y374495D01*
X78945Y375303D01*
X81055Y375303D01*
X83004Y374495D01*
X84495Y373004D01*
X85303Y371055D01*
X85303Y368945D01*
X84495Y366996D01*
X83004Y365505D01*
X81055Y364697D01*
X78945Y364697D01*
G37*
%LPD*%
%LPC*%
G36*
X166945Y363697D02*
X166945Y363697D01*
X164996Y364505D01*
X163505Y365996D01*
X162697Y367945D01*
X162697Y370055D01*
X163505Y372004D01*
X164996Y373495D01*
X166945Y374303D01*
X169055Y374303D01*
X171004Y373495D01*
X172495Y372004D01*
X173303Y370055D01*
X173303Y367945D01*
X172495Y365996D01*
X171004Y364505D01*
X169055Y363697D01*
X166945Y363697D01*
G37*
%LPD*%
%LPC*%
G36*
X82945Y351697D02*
X82945Y351697D01*
X80996Y352505D01*
X79505Y353996D01*
X78697Y355945D01*
X78697Y358055D01*
X79505Y360004D01*
X80996Y361495D01*
X82945Y362303D01*
X85055Y362303D01*
X87004Y361495D01*
X88495Y360004D01*
X89303Y358055D01*
X89303Y355945D01*
X88495Y353996D01*
X87004Y352505D01*
X85055Y351697D01*
X82945Y351697D01*
G37*
%LPD*%
%LPC*%
G36*
X135945Y83697D02*
X135945Y83697D01*
X133996Y84505D01*
X132505Y85996D01*
X131697Y87945D01*
X131697Y90055D01*
X132505Y92004D01*
X133996Y93495D01*
X135945Y94303D01*
X138055Y94303D01*
X140004Y93495D01*
X141495Y92004D01*
X142303Y90055D01*
X142303Y87945D01*
X141495Y85996D01*
X140004Y84505D01*
X138055Y83697D01*
X135945Y83697D01*
G37*
%LPD*%
%LPC*%
G36*
X400574Y83042D02*
X400574Y83042D01*
X398625Y83849D01*
X397134Y85341D01*
X396326Y87290D01*
X396326Y89399D01*
X397134Y91349D01*
X398625Y92840D01*
X400574Y93647D01*
X402684Y93647D01*
X404633Y92840D01*
X406125Y91349D01*
X406932Y89399D01*
X406932Y87290D01*
X406125Y85341D01*
X404633Y83849D01*
X402684Y83042D01*
X400574Y83042D01*
G37*
%LPD*%
%LPC*%
G36*
X152945Y76697D02*
X152945Y76697D01*
X150996Y77505D01*
X149505Y78996D01*
X148697Y80945D01*
X148697Y83055D01*
X149505Y85004D01*
X150996Y86495D01*
X152945Y87303D01*
X155055Y87303D01*
X157004Y86495D01*
X158495Y85004D01*
X159303Y83055D01*
X159303Y80945D01*
X158495Y78996D01*
X157004Y77505D01*
X155055Y76697D01*
X152945Y76697D01*
G37*
%LPD*%
%LPC*%
G36*
X285945Y74697D02*
X285945Y74697D01*
X283996Y75505D01*
X282505Y76996D01*
X281697Y78945D01*
X281697Y81055D01*
X282505Y83004D01*
X283996Y84495D01*
X285945Y85303D01*
X288055Y85303D01*
X290004Y84495D01*
X291495Y83004D01*
X292303Y81055D01*
X292303Y78945D01*
X291495Y76996D01*
X290004Y75505D01*
X288055Y74697D01*
X285945Y74697D01*
G37*
%LPD*%
%LPC*%
G36*
X295945Y64697D02*
X295945Y64697D01*
X293996Y65505D01*
X292505Y66996D01*
X291697Y68945D01*
X291697Y71055D01*
X292505Y73004D01*
X293996Y74495D01*
X295945Y75303D01*
X298055Y75303D01*
X300004Y74495D01*
X301495Y73004D01*
X302303Y71055D01*
X302303Y68945D01*
X301495Y66996D01*
X300004Y65505D01*
X298055Y64697D01*
X295945Y64697D01*
G37*
%LPD*%
%LPC*%
G36*
X-11055Y64697D02*
X-11055Y64697D01*
X-13004Y65505D01*
X-14495Y66996D01*
X-15303Y68945D01*
X-15303Y71055D01*
X-14495Y73004D01*
X-13004Y74495D01*
X-11055Y75303D01*
X-8945Y75303D01*
X-6996Y74495D01*
X-5505Y73004D01*
X-4697Y71055D01*
X-4697Y68945D01*
X-5505Y66996D01*
X-6996Y65505D01*
X-8945Y64697D01*
X-11055Y64697D01*
G37*
%LPD*%
%LPC*%
G36*
X139945Y50697D02*
X139945Y50697D01*
X137996Y51505D01*
X136505Y52996D01*
X135697Y54945D01*
X135697Y57055D01*
X136505Y59004D01*
X137996Y60495D01*
X139945Y61303D01*
X142055Y61303D01*
X144004Y60495D01*
X145495Y59004D01*
X146303Y57055D01*
X146303Y54945D01*
X145495Y52996D01*
X144004Y51505D01*
X142055Y50697D01*
X139945Y50697D01*
G37*
%LPD*%
%LPC*%
G36*
X22273Y46641D02*
X22273Y46641D01*
X20324Y47449D01*
X18832Y48940D01*
X18025Y50889D01*
X18025Y52999D01*
X18832Y54948D01*
X20324Y56439D01*
X22273Y57247D01*
X24382Y57247D01*
X26331Y56439D01*
X27823Y54948D01*
X28630Y52999D01*
X28630Y50889D01*
X27823Y48940D01*
X26331Y47449D01*
X24382Y46641D01*
X22273Y46641D01*
G37*
%LPD*%
%LPC*%
G36*
X390945Y30697D02*
X390945Y30697D01*
X388996Y31505D01*
X387505Y32996D01*
X386697Y34945D01*
X386697Y37055D01*
X387505Y39004D01*
X388996Y40495D01*
X390945Y41303D01*
X393055Y41303D01*
X395004Y40495D01*
X396495Y39004D01*
X397303Y37055D01*
X397303Y34945D01*
X396495Y32996D01*
X395004Y31505D01*
X393055Y30697D01*
X390945Y30697D01*
G37*
%LPD*%
%LPC*%
G36*
X306945Y26697D02*
X306945Y26697D01*
X304996Y27505D01*
X303505Y28996D01*
X302697Y30945D01*
X302697Y33055D01*
X303505Y35004D01*
X304996Y36495D01*
X306945Y37303D01*
X309055Y37303D01*
X311004Y36495D01*
X312495Y35004D01*
X313303Y33055D01*
X313303Y30945D01*
X312495Y28996D01*
X311004Y27505D01*
X309055Y26697D01*
X306945Y26697D01*
G37*
%LPD*%
%LPC*%
G36*
X115945Y25697D02*
X115945Y25697D01*
X113996Y26505D01*
X112505Y27996D01*
X111697Y29945D01*
X111697Y32055D01*
X112505Y34004D01*
X113996Y35495D01*
X115945Y36303D01*
X118055Y36303D01*
X120004Y35495D01*
X121495Y34004D01*
X122303Y32055D01*
X122303Y29945D01*
X121495Y27996D01*
X120004Y26505D01*
X118055Y25697D01*
X115945Y25697D01*
G37*
%LPD*%
%LPC*%
G36*
X48945Y24697D02*
X48945Y24697D01*
X46996Y25505D01*
X45505Y26996D01*
X44697Y28945D01*
X44697Y31055D01*
X45505Y33004D01*
X46996Y34495D01*
X48945Y35303D01*
X51055Y35303D01*
X53004Y34495D01*
X54495Y33004D01*
X55303Y31055D01*
X55303Y28945D01*
X54495Y26996D01*
X53004Y25505D01*
X51055Y24697D01*
X48945Y24697D01*
G37*
%LPD*%
%LPC*%
G36*
X329945Y23697D02*
X329945Y23697D01*
X327996Y24505D01*
X326505Y25996D01*
X325697Y27945D01*
X325697Y30055D01*
X326505Y32004D01*
X327996Y33495D01*
X329945Y34303D01*
X332055Y34303D01*
X334004Y33495D01*
X335495Y32004D01*
X336303Y30055D01*
X336303Y27945D01*
X335495Y25996D01*
X334004Y24505D01*
X332055Y23697D01*
X329945Y23697D01*
G37*
%LPD*%
%LPC*%
G36*
X467945Y350697D02*
X467945Y350697D01*
X465996Y351505D01*
X464505Y352996D01*
X463697Y354945D01*
X463697Y357055D01*
X464505Y359004D01*
X465996Y360495D01*
X467945Y361303D01*
X470055Y361303D01*
X472004Y360495D01*
X473495Y359004D01*
X474303Y357055D01*
X474303Y354945D01*
X473495Y352996D01*
X472004Y351505D01*
X470055Y350697D01*
X467945Y350697D01*
G37*
%LPD*%
%LPC*%
G36*
X75945Y17697D02*
X75945Y17697D01*
X73996Y18505D01*
X72505Y19996D01*
X71697Y21945D01*
X71697Y24055D01*
X72505Y26004D01*
X73996Y27495D01*
X75945Y28303D01*
X78055Y28303D01*
X80004Y27495D01*
X81495Y26004D01*
X82303Y24055D01*
X82303Y21945D01*
X81495Y19996D01*
X80004Y18505D01*
X78055Y17697D01*
X75945Y17697D01*
G37*
%LPD*%
%LPC*%
G36*
X318945Y14697D02*
X318945Y14697D01*
X316996Y15505D01*
X315505Y16996D01*
X314697Y18945D01*
X314697Y21055D01*
X315505Y23004D01*
X316996Y24495D01*
X318945Y25303D01*
X321055Y25303D01*
X323004Y24495D01*
X324495Y23004D01*
X325303Y21055D01*
X325303Y18945D01*
X324495Y16996D01*
X323004Y15505D01*
X321055Y14697D01*
X318945Y14697D01*
G37*
%LPD*%
%LPC*%
G36*
X56945Y7697D02*
X56945Y7697D01*
X54996Y8505D01*
X53505Y9996D01*
X52697Y11945D01*
X52697Y14055D01*
X53505Y16004D01*
X54996Y17495D01*
X56945Y18303D01*
X59055Y18303D01*
X61004Y17495D01*
X62495Y16004D01*
X63303Y14055D01*
X63303Y11945D01*
X62495Y9996D01*
X61004Y8505D01*
X59055Y7697D01*
X56945Y7697D01*
G37*
%LPD*%
%LPC*%
G36*
X945Y188697D02*
X945Y188697D01*
X-1004Y189505D01*
X-2495Y190996D01*
X-3303Y192945D01*
X-3303Y195055D01*
X-2495Y197004D01*
X-1004Y198495D01*
X945Y199303D01*
X3055Y199303D01*
X5004Y198495D01*
X6495Y197004D01*
X7303Y195055D01*
X7303Y192945D01*
X6495Y190996D01*
X5004Y189505D01*
X3055Y188697D01*
X945Y188697D01*
G37*
%LPD*%
%LPC*%
G36*
X-1055Y154697D02*
X-1055Y154697D01*
X-3004Y155505D01*
X-4495Y156996D01*
X-5303Y158945D01*
X-5303Y161055D01*
X-4495Y163004D01*
X-3004Y164495D01*
X-1055Y165303D01*
X1055Y165303D01*
X3004Y164495D01*
X4495Y163004D01*
X5303Y161055D01*
X5303Y158945D01*
X4495Y156996D01*
X3004Y155505D01*
X1055Y154697D01*
X-1055Y154697D01*
G37*
%LPD*%
%LPC*%
G36*
X-71368Y527999D02*
X-71368Y527999D01*
X-71257Y528702D01*
X-70695Y530430D01*
X-69870Y532049D01*
X-68803Y533518D01*
X-67518Y534803D01*
X-66049Y535870D01*
X-64430Y536695D01*
X-62702Y537257D01*
X-61999Y537368D01*
X-61999Y527999D01*
X-71368Y527999D01*
G37*
%LPD*%
%LPC*%
G36*
X-62702Y514743D02*
X-62702Y514743D01*
X-64430Y515305D01*
X-66049Y516130D01*
X-67518Y517197D01*
X-68803Y518482D01*
X-69870Y519951D01*
X-70695Y521570D01*
X-71257Y523298D01*
X-71368Y524001D01*
X-61999Y524001D01*
X-61999Y514632D01*
X-62702Y514743D01*
G37*
%LPD*%
%LPC*%
G36*
X-58001Y527999D02*
X-58001Y527999D01*
X-58001Y537368D01*
X-57298Y537257D01*
X-55570Y536695D01*
X-53951Y535870D01*
X-52482Y534803D01*
X-51197Y533518D01*
X-50130Y532049D01*
X-49305Y530430D01*
X-48743Y528702D01*
X-48632Y527999D01*
X-58001Y527999D01*
G37*
%LPD*%
%LPC*%
G36*
X-58001Y524001D02*
X-58001Y524001D01*
X-48632Y524001D01*
X-48670Y523764D01*
X-48670Y523763D01*
X-48743Y523298D01*
X-49305Y521570D01*
X-50130Y519951D01*
X-51197Y518482D01*
X-52482Y517197D01*
X-53951Y516130D01*
X-55570Y515305D01*
X-57298Y514743D01*
X-58001Y514632D01*
X-58001Y524001D01*
G37*
%LPD*%
%LPC*%
G36*
X-108985Y458199D02*
X-108985Y458199D01*
X-108939Y458490D01*
X-108463Y459954D01*
X-107764Y461326D01*
X-106860Y462571D01*
X-105771Y463660D01*
X-104526Y464564D01*
X-103154Y465263D01*
X-101690Y465739D01*
X-101399Y465785D01*
X-101399Y458199D01*
X-108985Y458199D01*
G37*
%LPD*%
%LPC*%
G36*
X-101690Y446661D02*
X-101690Y446661D01*
X-103154Y447137D01*
X-104526Y447836D01*
X-105771Y448740D01*
X-106860Y449829D01*
X-107764Y451074D01*
X-108463Y452446D01*
X-108939Y453910D01*
X-108985Y454201D01*
X-101399Y454201D01*
X-101399Y446615D01*
X-101690Y446661D01*
G37*
%LPD*%
%LPC*%
G36*
X-97401Y458199D02*
X-97401Y458199D01*
X-97401Y465785D01*
X-97110Y465739D01*
X-95646Y465263D01*
X-94274Y464564D01*
X-93029Y463660D01*
X-91940Y462571D01*
X-91036Y461326D01*
X-90337Y459954D01*
X-89861Y458490D01*
X-89815Y458199D01*
X-97401Y458199D01*
G37*
%LPD*%
%LPC*%
G36*
X-97401Y454201D02*
X-97401Y454201D01*
X-89815Y454201D01*
X-89861Y453910D01*
X-90337Y452446D01*
X-91036Y451074D01*
X-91940Y449829D01*
X-93029Y448740D01*
X-94274Y447836D01*
X-95646Y447137D01*
X-97110Y446661D01*
X-97401Y446615D01*
X-97401Y454201D01*
G37*
%LPD*%
%LPC*%
G36*
X-60001Y525999D02*
X-60001Y525999D01*
X-60001Y526001D01*
X-59999Y526001D01*
X-59999Y525999D01*
X-60001Y525999D01*
G37*
%LPD*%
%LPC*%
G36*
X-99401Y456199D02*
X-99401Y456199D01*
X-99401Y456201D01*
X-99399Y456201D01*
X-99399Y456199D01*
X-99401Y456199D01*
G37*
%LPD*%
D10*
X-99400Y303800D03*
X-74000Y303800D03*
X-48600Y303800D03*
X-23200Y303800D03*
X2200Y303800D03*
X27600Y303800D03*
X53000Y303800D03*
X78400Y303800D03*
X103800Y303800D03*
X129200Y303800D03*
X154600Y303800D03*
X180000Y303800D03*
X205400Y303800D03*
X230800Y303800D03*
X281600Y303800D03*
X307000Y303800D03*
X332400Y303800D03*
X357800Y303800D03*
X230800Y456200D03*
X205400Y456200D03*
X180000Y456200D03*
X154600Y456200D03*
X129200Y456200D03*
X103800Y456200D03*
X78400Y456200D03*
X53000Y456200D03*
X27600Y456200D03*
X2200Y456200D03*
X-23200Y456200D03*
X-48600Y456200D03*
X-74000Y456200D03*
X-99400Y456200D03*
X256200Y303800D03*
X357800Y456200D03*
X332400Y456200D03*
X307000Y456200D03*
X281600Y456200D03*
X256200Y456200D03*
X383200Y303800D03*
X408600Y303800D03*
X434000Y303800D03*
X459400Y303800D03*
X484800Y303800D03*
X484800Y456200D03*
X383200Y456200D03*
X408600Y456200D03*
X434000Y456200D03*
X459400Y456200D03*
D11*
X322700Y122700D03*
X322700Y97300D03*
X297300Y122700D03*
X297300Y97300D03*
X82700Y122700D03*
X82700Y97300D03*
X57300Y122700D03*
X57300Y97300D03*
X267300Y507300D03*
X267300Y532700D03*
X292700Y507300D03*
X292700Y532700D03*
D12*
X190000Y20000D03*
D13*
X-60000Y526000D03*
X-25000Y526000D03*
X-95000Y526000D03*
D11*
X56600Y532700D03*
X82000Y532700D03*
X107400Y532700D03*
X56600Y507300D03*
X82000Y507300D03*
X107400Y507300D03*
D14*
X-95000Y424000D03*
X154000Y82000D03*
X255000Y176000D03*
X234000Y134000D03*
X23328Y51944D03*
X308000Y32000D03*
X183000Y340000D03*
X38000Y149000D03*
X349000Y147000D03*
X84000Y357000D03*
X-20000Y157000D03*
X398000Y157556D03*
X470000Y190000D03*
X401629Y88345D03*
X-74000Y144000D03*
X-90000Y250000D03*
X-100000Y160000D03*
X392000Y36000D03*
X248000Y235000D03*
X137000Y89000D03*
X-10000Y70000D03*
X334000Y147000D03*
X482000Y285000D03*
X476000Y171000D03*
X117000Y31000D03*
X151000Y171000D03*
X157000Y159000D03*
X211000Y182000D03*
X275000Y212000D03*
X254000Y224000D03*
X68000Y206000D03*
X264000Y434000D03*
X177000Y526000D03*
X-50000Y250000D03*
X324000Y258000D03*
X293000Y258000D03*
X469000Y356000D03*
D15*
X-9000Y346000D03*
D14*
X77000Y23000D03*
X138000Y263000D03*
X227000Y268000D03*
X323000Y286302D03*
X141000Y56000D03*
X-66000Y240000D03*
X255000Y186000D03*
X150000Y205698D03*
X-98000Y375000D03*
X-51000Y375000D03*
X272000Y348000D03*
X297000Y348000D03*
X118620Y436000D03*
X78456Y435456D03*
X490000Y236000D03*
X-66000Y406000D03*
X453000Y120000D03*
X343620Y29000D03*
X-106000Y202000D03*
X230000Y250000D03*
X325000Y426000D03*
X241620Y340000D03*
X162356Y424644D03*
X70552Y33985D03*
X83940Y34000D03*
X-50000Y100000D03*
X-40386Y90376D03*
X-65000Y179000D03*
X352940Y35000D03*
X461420Y128490D03*
X490000Y247940D03*
X80000Y261620D03*
X-82000Y406000D03*
X-52000Y409000D03*
X272000Y361698D03*
X297000Y361698D03*
X157000Y265000D03*
X330000Y190000D03*
X168000Y369000D03*
X80000Y370000D03*
X240000Y260556D03*
X175000Y425000D03*
X107000Y260000D03*
X306000Y187000D03*
X230000Y340000D03*
X302000Y147000D03*
X210000Y340000D03*
X456066Y274000D03*
X297000Y70000D03*
X80000Y250000D03*
X-65000Y112000D03*
X0Y160000D03*
X-76000Y210000D03*
X-40000Y190000D03*
X-7000Y216000D03*
X30000Y268000D03*
X379000Y168000D03*
X390000Y138000D03*
X411000Y157000D03*
X380000Y206000D03*
X2000Y194000D03*
X340000Y320000D03*
X50000Y30000D03*
X58000Y13000D03*
X320000Y20000D03*
X331000Y29000D03*
X287000Y80000D03*
X362000Y106000D03*
D15*
X-46000Y392968D03*
M02*
