G04 EAGLE Gerber RS-274X export*
G75*
%MOMM*%
%FSLAX34Y34*%
%LPD*%
%INSilkscreen Bottom*%
%IPPOS*%
%AMOC8*
5,1,8,0,0,1.08239X$1,22.5*%
G01*
%ADD10C,0.127000*%
%ADD11C,0.152400*%
%ADD12C,0.100000*%
%ADD13C,0.076200*%
%ADD14C,0.609600*%
%ADD15C,0.228600*%


D10*
X327365Y316635D02*
X327365Y330365D01*
X319737Y330365D02*
X327365Y321974D01*
X324314Y325026D02*
X319737Y316635D01*
X314757Y316635D02*
X314757Y325788D01*
X315138Y329602D02*
X315138Y330365D01*
X314376Y330365D01*
X314376Y329602D01*
X315138Y329602D01*
X308727Y325788D02*
X308727Y316635D01*
X308727Y325788D02*
X304151Y325788D01*
X304151Y324263D01*
X299287Y330365D02*
X299287Y316635D01*
X295473Y316635D01*
X295378Y316637D01*
X295284Y316643D01*
X295190Y316653D01*
X295096Y316666D01*
X295003Y316684D01*
X294911Y316705D01*
X294820Y316730D01*
X294730Y316759D01*
X294641Y316792D01*
X294554Y316828D01*
X294468Y316867D01*
X294384Y316911D01*
X294302Y316957D01*
X294222Y317008D01*
X294144Y317061D01*
X294068Y317117D01*
X293994Y317177D01*
X293923Y317240D01*
X293855Y317305D01*
X293790Y317373D01*
X293727Y317444D01*
X293667Y317518D01*
X293611Y317593D01*
X293558Y317672D01*
X293508Y317752D01*
X293461Y317834D01*
X293418Y317918D01*
X293378Y318004D01*
X293342Y318091D01*
X293309Y318180D01*
X293280Y318270D01*
X293255Y318361D01*
X293234Y318453D01*
X293216Y318546D01*
X293203Y318640D01*
X293193Y318734D01*
X293187Y318828D01*
X293185Y318923D01*
X293184Y318923D02*
X293184Y323500D01*
X293185Y323500D02*
X293187Y323595D01*
X293193Y323689D01*
X293203Y323783D01*
X293216Y323877D01*
X293234Y323970D01*
X293255Y324062D01*
X293280Y324153D01*
X293309Y324243D01*
X293342Y324332D01*
X293378Y324419D01*
X293417Y324505D01*
X293461Y324589D01*
X293507Y324671D01*
X293558Y324751D01*
X293611Y324830D01*
X293667Y324905D01*
X293727Y324979D01*
X293790Y325050D01*
X293855Y325118D01*
X293923Y325183D01*
X293994Y325246D01*
X294068Y325306D01*
X294144Y325362D01*
X294222Y325415D01*
X294302Y325466D01*
X294384Y325512D01*
X294468Y325556D01*
X294554Y325595D01*
X294641Y325631D01*
X294730Y325664D01*
X294820Y325693D01*
X294911Y325718D01*
X295003Y325739D01*
X295096Y325757D01*
X295190Y325770D01*
X295284Y325780D01*
X295378Y325786D01*
X295473Y325788D01*
X299287Y325788D01*
X287757Y325788D02*
X287757Y316635D01*
X288138Y329602D02*
X288138Y330365D01*
X287376Y330365D01*
X287376Y329602D01*
X288138Y329602D01*
X271910Y316635D02*
X268859Y316635D01*
X271910Y316635D02*
X272019Y316637D01*
X272128Y316643D01*
X272236Y316652D01*
X272344Y316666D01*
X272452Y316683D01*
X272559Y316705D01*
X272665Y316730D01*
X272770Y316759D01*
X272874Y316791D01*
X272976Y316827D01*
X273078Y316867D01*
X273177Y316911D01*
X273276Y316958D01*
X273372Y317008D01*
X273467Y317062D01*
X273560Y317119D01*
X273650Y317180D01*
X273738Y317244D01*
X273824Y317310D01*
X273908Y317380D01*
X273989Y317453D01*
X274067Y317529D01*
X274143Y317607D01*
X274216Y317688D01*
X274286Y317772D01*
X274352Y317858D01*
X274416Y317946D01*
X274477Y318037D01*
X274534Y318129D01*
X274588Y318224D01*
X274638Y318320D01*
X274685Y318419D01*
X274729Y318518D01*
X274769Y318620D01*
X274805Y318723D01*
X274837Y318826D01*
X274866Y318931D01*
X274891Y319037D01*
X274913Y319144D01*
X274930Y319252D01*
X274944Y319360D01*
X274953Y319468D01*
X274959Y319577D01*
X274961Y319686D01*
X274961Y327314D01*
X274959Y327423D01*
X274953Y327532D01*
X274944Y327640D01*
X274930Y327748D01*
X274913Y327856D01*
X274891Y327963D01*
X274866Y328069D01*
X274837Y328174D01*
X274805Y328277D01*
X274769Y328380D01*
X274729Y328482D01*
X274685Y328581D01*
X274638Y328680D01*
X274588Y328776D01*
X274534Y328871D01*
X274477Y328963D01*
X274416Y329054D01*
X274352Y329142D01*
X274286Y329228D01*
X274216Y329312D01*
X274143Y329393D01*
X274067Y329471D01*
X273989Y329547D01*
X273908Y329620D01*
X273824Y329690D01*
X273738Y329756D01*
X273650Y329820D01*
X273560Y329881D01*
X273467Y329938D01*
X273372Y329992D01*
X273276Y330042D01*
X273177Y330089D01*
X273078Y330133D01*
X272976Y330173D01*
X272874Y330209D01*
X272770Y330241D01*
X272665Y330270D01*
X272559Y330295D01*
X272452Y330317D01*
X272344Y330334D01*
X272236Y330348D01*
X272128Y330357D01*
X272019Y330363D01*
X271910Y330365D01*
X268859Y330365D01*
X263808Y322737D02*
X263808Y319686D01*
X263808Y322737D02*
X263806Y322846D01*
X263800Y322955D01*
X263791Y323063D01*
X263777Y323171D01*
X263760Y323279D01*
X263738Y323386D01*
X263713Y323492D01*
X263684Y323597D01*
X263652Y323701D01*
X263616Y323803D01*
X263576Y323905D01*
X263532Y324004D01*
X263485Y324103D01*
X263435Y324199D01*
X263381Y324294D01*
X263324Y324386D01*
X263263Y324477D01*
X263199Y324565D01*
X263133Y324651D01*
X263063Y324735D01*
X262990Y324816D01*
X262914Y324894D01*
X262836Y324970D01*
X262755Y325043D01*
X262671Y325113D01*
X262585Y325179D01*
X262497Y325243D01*
X262406Y325304D01*
X262314Y325361D01*
X262219Y325415D01*
X262123Y325465D01*
X262024Y325512D01*
X261925Y325556D01*
X261823Y325596D01*
X261721Y325632D01*
X261617Y325664D01*
X261512Y325693D01*
X261406Y325718D01*
X261299Y325740D01*
X261191Y325757D01*
X261083Y325771D01*
X260975Y325780D01*
X260866Y325786D01*
X260757Y325788D01*
X260648Y325786D01*
X260539Y325780D01*
X260431Y325771D01*
X260323Y325757D01*
X260215Y325740D01*
X260108Y325718D01*
X260002Y325693D01*
X259897Y325664D01*
X259793Y325632D01*
X259691Y325596D01*
X259589Y325556D01*
X259490Y325512D01*
X259391Y325465D01*
X259295Y325415D01*
X259200Y325361D01*
X259108Y325304D01*
X259017Y325243D01*
X258929Y325179D01*
X258843Y325113D01*
X258759Y325043D01*
X258678Y324970D01*
X258600Y324894D01*
X258524Y324816D01*
X258451Y324735D01*
X258381Y324651D01*
X258315Y324565D01*
X258251Y324477D01*
X258190Y324386D01*
X258133Y324294D01*
X258079Y324199D01*
X258029Y324103D01*
X257982Y324004D01*
X257938Y323905D01*
X257898Y323803D01*
X257862Y323701D01*
X257830Y323597D01*
X257801Y323492D01*
X257776Y323386D01*
X257754Y323279D01*
X257737Y323171D01*
X257723Y323063D01*
X257714Y322955D01*
X257708Y322846D01*
X257706Y322737D01*
X257706Y319686D01*
X257708Y319577D01*
X257714Y319468D01*
X257723Y319360D01*
X257737Y319252D01*
X257754Y319144D01*
X257776Y319037D01*
X257801Y318931D01*
X257830Y318826D01*
X257862Y318722D01*
X257898Y318620D01*
X257938Y318518D01*
X257982Y318419D01*
X258029Y318320D01*
X258079Y318224D01*
X258133Y318129D01*
X258190Y318037D01*
X258251Y317946D01*
X258315Y317858D01*
X258381Y317772D01*
X258451Y317688D01*
X258524Y317607D01*
X258600Y317529D01*
X258678Y317453D01*
X258759Y317380D01*
X258843Y317310D01*
X258929Y317244D01*
X259017Y317180D01*
X259108Y317119D01*
X259200Y317062D01*
X259295Y317008D01*
X259391Y316958D01*
X259490Y316911D01*
X259589Y316867D01*
X259691Y316827D01*
X259793Y316791D01*
X259897Y316759D01*
X260002Y316730D01*
X260108Y316705D01*
X260215Y316683D01*
X260323Y316666D01*
X260431Y316652D01*
X260539Y316643D01*
X260648Y316637D01*
X260757Y316635D01*
X260866Y316637D01*
X260975Y316643D01*
X261083Y316652D01*
X261191Y316666D01*
X261299Y316683D01*
X261406Y316705D01*
X261512Y316730D01*
X261617Y316759D01*
X261721Y316791D01*
X261823Y316827D01*
X261925Y316867D01*
X262024Y316911D01*
X262123Y316958D01*
X262219Y317008D01*
X262314Y317062D01*
X262406Y317119D01*
X262497Y317180D01*
X262585Y317244D01*
X262671Y317310D01*
X262755Y317380D01*
X262836Y317453D01*
X262914Y317529D01*
X262990Y317607D01*
X263063Y317688D01*
X263133Y317772D01*
X263199Y317858D01*
X263263Y317946D01*
X263324Y318037D01*
X263381Y318129D01*
X263435Y318224D01*
X263485Y318320D01*
X263532Y318419D01*
X263576Y318518D01*
X263616Y318620D01*
X263652Y318722D01*
X263684Y318826D01*
X263713Y318931D01*
X263738Y319037D01*
X263760Y319144D01*
X263777Y319252D01*
X263791Y319360D01*
X263800Y319468D01*
X263806Y319577D01*
X263808Y319686D01*
X251658Y316635D02*
X251658Y325788D01*
X247844Y325788D01*
X247749Y325786D01*
X247655Y325780D01*
X247561Y325770D01*
X247467Y325757D01*
X247374Y325739D01*
X247282Y325718D01*
X247191Y325693D01*
X247101Y325664D01*
X247012Y325631D01*
X246925Y325595D01*
X246839Y325556D01*
X246755Y325512D01*
X246673Y325466D01*
X246593Y325415D01*
X246515Y325362D01*
X246439Y325306D01*
X246365Y325246D01*
X246294Y325183D01*
X246226Y325118D01*
X246161Y325050D01*
X246098Y324979D01*
X246038Y324905D01*
X245982Y324830D01*
X245929Y324751D01*
X245879Y324671D01*
X245832Y324589D01*
X245789Y324505D01*
X245749Y324419D01*
X245713Y324332D01*
X245680Y324243D01*
X245651Y324153D01*
X245626Y324062D01*
X245605Y323970D01*
X245587Y323877D01*
X245574Y323783D01*
X245564Y323689D01*
X245558Y323595D01*
X245556Y323500D01*
X245556Y316635D01*
X240658Y325788D02*
X236081Y325788D01*
X239132Y330365D02*
X239132Y318923D01*
X239130Y318828D01*
X239124Y318734D01*
X239114Y318640D01*
X239101Y318546D01*
X239083Y318453D01*
X239062Y318361D01*
X239037Y318270D01*
X239008Y318180D01*
X238975Y318091D01*
X238939Y318004D01*
X238900Y317918D01*
X238856Y317834D01*
X238810Y317752D01*
X238759Y317672D01*
X238706Y317593D01*
X238650Y317518D01*
X238590Y317444D01*
X238527Y317373D01*
X238462Y317305D01*
X238394Y317240D01*
X238323Y317177D01*
X238249Y317117D01*
X238174Y317061D01*
X238095Y317008D01*
X238015Y316957D01*
X237933Y316911D01*
X237849Y316867D01*
X237763Y316828D01*
X237676Y316792D01*
X237587Y316759D01*
X237497Y316730D01*
X237406Y316705D01*
X237314Y316684D01*
X237221Y316666D01*
X237127Y316653D01*
X237033Y316643D01*
X236939Y316637D01*
X236844Y316635D01*
X236081Y316635D01*
X230428Y316635D02*
X230428Y325788D01*
X225851Y325788D01*
X225851Y324263D01*
X221508Y322737D02*
X221508Y319686D01*
X221508Y322737D02*
X221506Y322846D01*
X221500Y322955D01*
X221491Y323063D01*
X221477Y323171D01*
X221460Y323279D01*
X221438Y323386D01*
X221413Y323492D01*
X221384Y323597D01*
X221352Y323701D01*
X221316Y323803D01*
X221276Y323905D01*
X221232Y324004D01*
X221185Y324103D01*
X221135Y324199D01*
X221081Y324294D01*
X221024Y324386D01*
X220963Y324477D01*
X220899Y324565D01*
X220833Y324651D01*
X220763Y324735D01*
X220690Y324816D01*
X220614Y324894D01*
X220536Y324970D01*
X220455Y325043D01*
X220371Y325113D01*
X220285Y325179D01*
X220197Y325243D01*
X220106Y325304D01*
X220014Y325361D01*
X219919Y325415D01*
X219823Y325465D01*
X219724Y325512D01*
X219625Y325556D01*
X219523Y325596D01*
X219421Y325632D01*
X219317Y325664D01*
X219212Y325693D01*
X219106Y325718D01*
X218999Y325740D01*
X218891Y325757D01*
X218783Y325771D01*
X218675Y325780D01*
X218566Y325786D01*
X218457Y325788D01*
X218348Y325786D01*
X218239Y325780D01*
X218131Y325771D01*
X218023Y325757D01*
X217915Y325740D01*
X217808Y325718D01*
X217702Y325693D01*
X217597Y325664D01*
X217493Y325632D01*
X217391Y325596D01*
X217289Y325556D01*
X217190Y325512D01*
X217091Y325465D01*
X216995Y325415D01*
X216900Y325361D01*
X216808Y325304D01*
X216717Y325243D01*
X216629Y325179D01*
X216543Y325113D01*
X216459Y325043D01*
X216378Y324970D01*
X216300Y324894D01*
X216224Y324816D01*
X216151Y324735D01*
X216081Y324651D01*
X216015Y324565D01*
X215951Y324477D01*
X215890Y324386D01*
X215833Y324294D01*
X215779Y324199D01*
X215729Y324103D01*
X215682Y324004D01*
X215638Y323905D01*
X215598Y323803D01*
X215562Y323701D01*
X215530Y323597D01*
X215501Y323492D01*
X215476Y323386D01*
X215454Y323279D01*
X215437Y323171D01*
X215423Y323063D01*
X215414Y322955D01*
X215408Y322846D01*
X215406Y322737D01*
X215406Y319686D01*
X215408Y319577D01*
X215414Y319468D01*
X215423Y319360D01*
X215437Y319252D01*
X215454Y319144D01*
X215476Y319037D01*
X215501Y318931D01*
X215530Y318826D01*
X215562Y318722D01*
X215598Y318620D01*
X215638Y318518D01*
X215682Y318419D01*
X215729Y318320D01*
X215779Y318224D01*
X215833Y318129D01*
X215890Y318037D01*
X215951Y317946D01*
X216015Y317858D01*
X216081Y317772D01*
X216151Y317688D01*
X216224Y317607D01*
X216300Y317529D01*
X216378Y317453D01*
X216459Y317380D01*
X216543Y317310D01*
X216629Y317244D01*
X216717Y317180D01*
X216808Y317119D01*
X216900Y317062D01*
X216995Y317008D01*
X217091Y316958D01*
X217190Y316911D01*
X217289Y316867D01*
X217391Y316827D01*
X217493Y316791D01*
X217597Y316759D01*
X217702Y316730D01*
X217808Y316705D01*
X217915Y316683D01*
X218023Y316666D01*
X218131Y316652D01*
X218239Y316643D01*
X218348Y316637D01*
X218457Y316635D01*
X218566Y316637D01*
X218675Y316643D01*
X218783Y316652D01*
X218891Y316666D01*
X218999Y316683D01*
X219106Y316705D01*
X219212Y316730D01*
X219317Y316759D01*
X219421Y316791D01*
X219523Y316827D01*
X219625Y316867D01*
X219724Y316911D01*
X219823Y316958D01*
X219919Y317008D01*
X220014Y317062D01*
X220106Y317119D01*
X220197Y317180D01*
X220285Y317244D01*
X220371Y317310D01*
X220455Y317380D01*
X220536Y317453D01*
X220614Y317529D01*
X220690Y317607D01*
X220763Y317688D01*
X220833Y317772D01*
X220899Y317858D01*
X220963Y317946D01*
X221024Y318037D01*
X221081Y318129D01*
X221135Y318224D01*
X221185Y318320D01*
X221232Y318419D01*
X221276Y318518D01*
X221316Y318620D01*
X221352Y318722D01*
X221384Y318826D01*
X221413Y318931D01*
X221438Y319037D01*
X221460Y319144D01*
X221477Y319252D01*
X221491Y319360D01*
X221500Y319468D01*
X221506Y319577D01*
X221508Y319686D01*
X209640Y318923D02*
X209640Y330365D01*
X209639Y318923D02*
X209637Y318828D01*
X209631Y318734D01*
X209621Y318640D01*
X209608Y318546D01*
X209590Y318453D01*
X209569Y318361D01*
X209544Y318270D01*
X209515Y318180D01*
X209482Y318091D01*
X209446Y318004D01*
X209407Y317918D01*
X209363Y317834D01*
X209317Y317752D01*
X209266Y317672D01*
X209213Y317593D01*
X209157Y317518D01*
X209097Y317444D01*
X209034Y317373D01*
X208969Y317305D01*
X208901Y317240D01*
X208830Y317177D01*
X208756Y317117D01*
X208681Y317061D01*
X208602Y317008D01*
X208522Y316957D01*
X208440Y316911D01*
X208356Y316867D01*
X208270Y316828D01*
X208183Y316792D01*
X208094Y316759D01*
X208004Y316730D01*
X207913Y316705D01*
X207821Y316684D01*
X207728Y316666D01*
X207634Y316653D01*
X207540Y316643D01*
X207446Y316637D01*
X207351Y316635D01*
X202440Y318923D02*
X202440Y330365D01*
X202439Y318923D02*
X202437Y318828D01*
X202431Y318734D01*
X202421Y318640D01*
X202408Y318546D01*
X202390Y318453D01*
X202369Y318361D01*
X202344Y318270D01*
X202315Y318180D01*
X202282Y318091D01*
X202246Y318004D01*
X202207Y317918D01*
X202163Y317834D01*
X202117Y317752D01*
X202066Y317672D01*
X202013Y317593D01*
X201957Y317518D01*
X201897Y317444D01*
X201834Y317373D01*
X201769Y317305D01*
X201701Y317240D01*
X201630Y317177D01*
X201556Y317117D01*
X201481Y317061D01*
X201402Y317008D01*
X201322Y316957D01*
X201240Y316911D01*
X201156Y316867D01*
X201070Y316828D01*
X200983Y316792D01*
X200894Y316759D01*
X200804Y316730D01*
X200713Y316705D01*
X200621Y316684D01*
X200528Y316666D01*
X200434Y316653D01*
X200340Y316643D01*
X200246Y316637D01*
X200151Y316635D01*
X193120Y316635D02*
X189306Y316635D01*
X193120Y316635D02*
X193215Y316637D01*
X193309Y316643D01*
X193403Y316653D01*
X193497Y316666D01*
X193590Y316684D01*
X193682Y316705D01*
X193773Y316730D01*
X193863Y316759D01*
X193952Y316792D01*
X194039Y316828D01*
X194125Y316867D01*
X194209Y316911D01*
X194291Y316957D01*
X194371Y317008D01*
X194450Y317061D01*
X194525Y317117D01*
X194599Y317177D01*
X194670Y317240D01*
X194738Y317305D01*
X194803Y317373D01*
X194866Y317444D01*
X194926Y317518D01*
X194982Y317593D01*
X195035Y317672D01*
X195086Y317752D01*
X195132Y317834D01*
X195176Y317918D01*
X195215Y318004D01*
X195251Y318091D01*
X195284Y318180D01*
X195313Y318270D01*
X195338Y318361D01*
X195359Y318453D01*
X195377Y318546D01*
X195390Y318640D01*
X195400Y318734D01*
X195406Y318828D01*
X195408Y318923D01*
X195408Y322737D01*
X195406Y322846D01*
X195400Y322955D01*
X195391Y323063D01*
X195377Y323171D01*
X195360Y323279D01*
X195338Y323386D01*
X195313Y323492D01*
X195284Y323597D01*
X195252Y323701D01*
X195216Y323803D01*
X195176Y323905D01*
X195132Y324004D01*
X195085Y324103D01*
X195035Y324199D01*
X194981Y324294D01*
X194924Y324386D01*
X194863Y324477D01*
X194799Y324565D01*
X194733Y324651D01*
X194663Y324735D01*
X194590Y324816D01*
X194514Y324894D01*
X194436Y324970D01*
X194355Y325043D01*
X194271Y325113D01*
X194185Y325179D01*
X194097Y325243D01*
X194006Y325304D01*
X193914Y325361D01*
X193819Y325415D01*
X193723Y325465D01*
X193624Y325512D01*
X193525Y325556D01*
X193423Y325596D01*
X193321Y325632D01*
X193217Y325664D01*
X193112Y325693D01*
X193006Y325718D01*
X192899Y325740D01*
X192791Y325757D01*
X192683Y325771D01*
X192575Y325780D01*
X192466Y325786D01*
X192357Y325788D01*
X192248Y325786D01*
X192139Y325780D01*
X192031Y325771D01*
X191923Y325757D01*
X191815Y325740D01*
X191708Y325718D01*
X191602Y325693D01*
X191497Y325664D01*
X191393Y325632D01*
X191291Y325596D01*
X191189Y325556D01*
X191090Y325512D01*
X190991Y325465D01*
X190895Y325415D01*
X190800Y325361D01*
X190708Y325304D01*
X190617Y325243D01*
X190529Y325179D01*
X190443Y325113D01*
X190359Y325043D01*
X190278Y324970D01*
X190200Y324894D01*
X190124Y324816D01*
X190051Y324735D01*
X189981Y324651D01*
X189915Y324565D01*
X189851Y324477D01*
X189790Y324386D01*
X189733Y324294D01*
X189679Y324199D01*
X189629Y324103D01*
X189582Y324004D01*
X189538Y323905D01*
X189498Y323803D01*
X189462Y323701D01*
X189430Y323597D01*
X189401Y323492D01*
X189376Y323386D01*
X189354Y323279D01*
X189337Y323171D01*
X189323Y323063D01*
X189314Y322955D01*
X189308Y322846D01*
X189306Y322737D01*
X189306Y321212D01*
X195408Y321212D01*
X183178Y316635D02*
X183178Y325788D01*
X178601Y325788D01*
X178601Y324263D01*
X166265Y324263D02*
X162452Y324263D01*
X162330Y324261D01*
X162208Y324255D01*
X162086Y324245D01*
X161964Y324232D01*
X161843Y324214D01*
X161723Y324193D01*
X161603Y324167D01*
X161485Y324138D01*
X161367Y324105D01*
X161250Y324069D01*
X161135Y324028D01*
X161021Y323984D01*
X160908Y323937D01*
X160797Y323885D01*
X160688Y323830D01*
X160580Y323772D01*
X160475Y323711D01*
X160371Y323645D01*
X160270Y323577D01*
X160171Y323506D01*
X160074Y323431D01*
X159980Y323353D01*
X159888Y323272D01*
X159799Y323189D01*
X159712Y323102D01*
X159629Y323013D01*
X159548Y322921D01*
X159470Y322827D01*
X159395Y322730D01*
X159324Y322631D01*
X159256Y322530D01*
X159190Y322426D01*
X159129Y322321D01*
X159071Y322213D01*
X159016Y322104D01*
X158964Y321993D01*
X158917Y321880D01*
X158873Y321766D01*
X158832Y321651D01*
X158796Y321534D01*
X158763Y321416D01*
X158734Y321298D01*
X158708Y321178D01*
X158687Y321058D01*
X158669Y320937D01*
X158656Y320815D01*
X158646Y320693D01*
X158640Y320571D01*
X158638Y320449D01*
X158640Y320327D01*
X158646Y320205D01*
X158656Y320083D01*
X158669Y319961D01*
X158687Y319840D01*
X158708Y319720D01*
X158734Y319600D01*
X158763Y319482D01*
X158796Y319364D01*
X158832Y319247D01*
X158873Y319132D01*
X158917Y319018D01*
X158964Y318905D01*
X159016Y318794D01*
X159071Y318685D01*
X159129Y318577D01*
X159190Y318472D01*
X159256Y318368D01*
X159324Y318267D01*
X159395Y318168D01*
X159470Y318071D01*
X159548Y317977D01*
X159629Y317885D01*
X159712Y317796D01*
X159799Y317709D01*
X159888Y317626D01*
X159980Y317545D01*
X160074Y317467D01*
X160171Y317392D01*
X160270Y317321D01*
X160371Y317253D01*
X160475Y317187D01*
X160580Y317126D01*
X160688Y317068D01*
X160797Y317013D01*
X160908Y316961D01*
X161021Y316914D01*
X161135Y316870D01*
X161250Y316829D01*
X161367Y316793D01*
X161485Y316760D01*
X161603Y316731D01*
X161723Y316705D01*
X161843Y316684D01*
X161964Y316666D01*
X162086Y316653D01*
X162208Y316643D01*
X162330Y316637D01*
X162452Y316635D01*
X166265Y316635D01*
X166265Y330365D01*
X162452Y330365D01*
X162343Y330363D01*
X162234Y330357D01*
X162126Y330348D01*
X162018Y330334D01*
X161910Y330317D01*
X161803Y330295D01*
X161697Y330270D01*
X161592Y330241D01*
X161488Y330209D01*
X161386Y330173D01*
X161284Y330133D01*
X161185Y330089D01*
X161086Y330042D01*
X160990Y329992D01*
X160895Y329938D01*
X160803Y329881D01*
X160712Y329820D01*
X160624Y329756D01*
X160538Y329690D01*
X160454Y329620D01*
X160373Y329547D01*
X160295Y329471D01*
X160219Y329393D01*
X160146Y329312D01*
X160076Y329228D01*
X160010Y329142D01*
X159946Y329054D01*
X159885Y328963D01*
X159828Y328871D01*
X159774Y328776D01*
X159724Y328680D01*
X159677Y328581D01*
X159633Y328482D01*
X159593Y328380D01*
X159557Y328278D01*
X159525Y328174D01*
X159496Y328069D01*
X159471Y327963D01*
X159449Y327856D01*
X159432Y327748D01*
X159418Y327640D01*
X159409Y327532D01*
X159403Y327423D01*
X159401Y327314D01*
X159403Y327205D01*
X159409Y327096D01*
X159418Y326988D01*
X159432Y326880D01*
X159449Y326772D01*
X159471Y326665D01*
X159496Y326559D01*
X159525Y326454D01*
X159557Y326350D01*
X159593Y326248D01*
X159633Y326146D01*
X159677Y326047D01*
X159724Y325948D01*
X159774Y325852D01*
X159828Y325757D01*
X159885Y325665D01*
X159946Y325574D01*
X160010Y325486D01*
X160076Y325400D01*
X160146Y325316D01*
X160219Y325235D01*
X160295Y325157D01*
X160373Y325081D01*
X160454Y325008D01*
X160538Y324938D01*
X160624Y324872D01*
X160712Y324808D01*
X160803Y324747D01*
X160895Y324690D01*
X160990Y324636D01*
X161086Y324586D01*
X161185Y324539D01*
X161284Y324495D01*
X161386Y324455D01*
X161488Y324419D01*
X161592Y324387D01*
X161697Y324358D01*
X161803Y324333D01*
X161910Y324311D01*
X162018Y324294D01*
X162126Y324280D01*
X162234Y324271D01*
X162343Y324265D01*
X162452Y324263D01*
X153559Y322737D02*
X153559Y319686D01*
X153558Y322737D02*
X153556Y322846D01*
X153550Y322955D01*
X153541Y323063D01*
X153527Y323171D01*
X153510Y323279D01*
X153488Y323386D01*
X153463Y323492D01*
X153434Y323597D01*
X153402Y323701D01*
X153366Y323803D01*
X153326Y323905D01*
X153282Y324004D01*
X153235Y324103D01*
X153185Y324199D01*
X153131Y324294D01*
X153074Y324386D01*
X153013Y324477D01*
X152949Y324565D01*
X152883Y324651D01*
X152813Y324735D01*
X152740Y324816D01*
X152664Y324894D01*
X152586Y324970D01*
X152505Y325043D01*
X152421Y325113D01*
X152335Y325179D01*
X152247Y325243D01*
X152156Y325304D01*
X152064Y325361D01*
X151969Y325415D01*
X151873Y325465D01*
X151774Y325512D01*
X151675Y325556D01*
X151573Y325596D01*
X151471Y325632D01*
X151367Y325664D01*
X151262Y325693D01*
X151156Y325718D01*
X151049Y325740D01*
X150941Y325757D01*
X150833Y325771D01*
X150725Y325780D01*
X150616Y325786D01*
X150507Y325788D01*
X150398Y325786D01*
X150289Y325780D01*
X150181Y325771D01*
X150073Y325757D01*
X149965Y325740D01*
X149858Y325718D01*
X149752Y325693D01*
X149647Y325664D01*
X149543Y325632D01*
X149441Y325596D01*
X149339Y325556D01*
X149240Y325512D01*
X149141Y325465D01*
X149045Y325415D01*
X148950Y325361D01*
X148858Y325304D01*
X148767Y325243D01*
X148679Y325179D01*
X148593Y325113D01*
X148509Y325043D01*
X148428Y324970D01*
X148350Y324894D01*
X148274Y324816D01*
X148201Y324735D01*
X148131Y324651D01*
X148065Y324565D01*
X148001Y324477D01*
X147940Y324386D01*
X147883Y324294D01*
X147829Y324199D01*
X147779Y324103D01*
X147732Y324004D01*
X147688Y323905D01*
X147648Y323803D01*
X147612Y323701D01*
X147580Y323597D01*
X147551Y323492D01*
X147526Y323386D01*
X147504Y323279D01*
X147487Y323171D01*
X147473Y323063D01*
X147464Y322955D01*
X147458Y322846D01*
X147456Y322737D01*
X147456Y319686D01*
X147458Y319577D01*
X147464Y319468D01*
X147473Y319360D01*
X147487Y319252D01*
X147504Y319144D01*
X147526Y319037D01*
X147551Y318931D01*
X147580Y318826D01*
X147612Y318722D01*
X147648Y318620D01*
X147688Y318518D01*
X147732Y318419D01*
X147779Y318320D01*
X147829Y318224D01*
X147883Y318129D01*
X147940Y318037D01*
X148001Y317946D01*
X148065Y317858D01*
X148131Y317772D01*
X148201Y317688D01*
X148274Y317607D01*
X148350Y317529D01*
X148428Y317453D01*
X148509Y317380D01*
X148593Y317310D01*
X148679Y317244D01*
X148767Y317180D01*
X148858Y317119D01*
X148950Y317062D01*
X149045Y317008D01*
X149141Y316958D01*
X149240Y316911D01*
X149339Y316867D01*
X149441Y316827D01*
X149543Y316791D01*
X149647Y316759D01*
X149752Y316730D01*
X149858Y316705D01*
X149965Y316683D01*
X150073Y316666D01*
X150181Y316652D01*
X150289Y316643D01*
X150398Y316637D01*
X150507Y316635D01*
X150616Y316637D01*
X150725Y316643D01*
X150833Y316652D01*
X150941Y316666D01*
X151049Y316683D01*
X151156Y316705D01*
X151262Y316730D01*
X151367Y316759D01*
X151471Y316791D01*
X151573Y316827D01*
X151675Y316867D01*
X151774Y316911D01*
X151873Y316958D01*
X151969Y317008D01*
X152064Y317062D01*
X152156Y317119D01*
X152247Y317180D01*
X152335Y317244D01*
X152421Y317310D01*
X152505Y317380D01*
X152586Y317453D01*
X152664Y317529D01*
X152740Y317607D01*
X152813Y317688D01*
X152883Y317772D01*
X152949Y317858D01*
X153013Y317946D01*
X153074Y318037D01*
X153131Y318129D01*
X153185Y318224D01*
X153235Y318320D01*
X153282Y318419D01*
X153326Y318518D01*
X153366Y318620D01*
X153402Y318722D01*
X153434Y318826D01*
X153463Y318931D01*
X153488Y319037D01*
X153510Y319144D01*
X153527Y319252D01*
X153541Y319360D01*
X153550Y319468D01*
X153556Y319577D01*
X153558Y319686D01*
X139260Y321974D02*
X135828Y321974D01*
X139260Y321975D02*
X139362Y321973D01*
X139464Y321967D01*
X139566Y321957D01*
X139668Y321944D01*
X139768Y321926D01*
X139868Y321905D01*
X139968Y321880D01*
X140066Y321851D01*
X140163Y321818D01*
X140258Y321781D01*
X140352Y321741D01*
X140445Y321698D01*
X140536Y321651D01*
X140624Y321600D01*
X140711Y321546D01*
X140796Y321489D01*
X140879Y321428D01*
X140959Y321365D01*
X141036Y321298D01*
X141111Y321229D01*
X141184Y321156D01*
X141253Y321081D01*
X141320Y321004D01*
X141383Y320924D01*
X141444Y320841D01*
X141501Y320756D01*
X141555Y320669D01*
X141606Y320581D01*
X141653Y320490D01*
X141696Y320397D01*
X141736Y320303D01*
X141773Y320208D01*
X141806Y320111D01*
X141835Y320013D01*
X141860Y319913D01*
X141881Y319813D01*
X141899Y319713D01*
X141912Y319611D01*
X141922Y319509D01*
X141928Y319407D01*
X141930Y319305D01*
X141928Y319203D01*
X141922Y319101D01*
X141912Y318999D01*
X141899Y318897D01*
X141881Y318797D01*
X141860Y318697D01*
X141835Y318597D01*
X141806Y318499D01*
X141773Y318402D01*
X141736Y318307D01*
X141696Y318213D01*
X141653Y318120D01*
X141606Y318029D01*
X141555Y317941D01*
X141501Y317854D01*
X141444Y317769D01*
X141383Y317686D01*
X141320Y317606D01*
X141253Y317529D01*
X141184Y317454D01*
X141111Y317381D01*
X141036Y317312D01*
X140959Y317245D01*
X140879Y317182D01*
X140796Y317121D01*
X140711Y317064D01*
X140624Y317010D01*
X140536Y316959D01*
X140445Y316912D01*
X140352Y316869D01*
X140258Y316829D01*
X140163Y316792D01*
X140066Y316759D01*
X139968Y316730D01*
X139868Y316705D01*
X139768Y316684D01*
X139668Y316666D01*
X139566Y316653D01*
X139464Y316643D01*
X139362Y316637D01*
X139260Y316635D01*
X135828Y316635D01*
X135828Y323500D01*
X135830Y323595D01*
X135836Y323689D01*
X135846Y323783D01*
X135859Y323877D01*
X135877Y323970D01*
X135898Y324062D01*
X135923Y324153D01*
X135952Y324243D01*
X135985Y324332D01*
X136021Y324419D01*
X136060Y324505D01*
X136104Y324589D01*
X136150Y324671D01*
X136201Y324751D01*
X136254Y324830D01*
X136310Y324905D01*
X136370Y324979D01*
X136433Y325050D01*
X136498Y325118D01*
X136566Y325183D01*
X136637Y325246D01*
X136711Y325306D01*
X136787Y325362D01*
X136865Y325415D01*
X136945Y325466D01*
X137027Y325512D01*
X137111Y325556D01*
X137197Y325595D01*
X137284Y325631D01*
X137373Y325664D01*
X137463Y325693D01*
X137554Y325718D01*
X137646Y325739D01*
X137739Y325757D01*
X137833Y325770D01*
X137927Y325780D01*
X138021Y325786D01*
X138116Y325788D01*
X141167Y325788D01*
X129178Y325788D02*
X129178Y316635D01*
X129178Y325788D02*
X124601Y325788D01*
X124601Y324263D01*
X114228Y330365D02*
X114228Y316635D01*
X118042Y316635D01*
X118137Y316637D01*
X118231Y316643D01*
X118325Y316653D01*
X118419Y316666D01*
X118512Y316684D01*
X118604Y316705D01*
X118695Y316730D01*
X118785Y316759D01*
X118874Y316792D01*
X118961Y316828D01*
X119047Y316867D01*
X119131Y316911D01*
X119213Y316957D01*
X119293Y317008D01*
X119372Y317061D01*
X119447Y317117D01*
X119521Y317177D01*
X119592Y317240D01*
X119660Y317305D01*
X119725Y317373D01*
X119788Y317444D01*
X119848Y317518D01*
X119904Y317593D01*
X119957Y317672D01*
X120008Y317752D01*
X120054Y317834D01*
X120098Y317918D01*
X120137Y318004D01*
X120173Y318091D01*
X120206Y318180D01*
X120235Y318270D01*
X120260Y318361D01*
X120281Y318453D01*
X120299Y318546D01*
X120312Y318640D01*
X120322Y318734D01*
X120328Y318828D01*
X120330Y318923D01*
X120330Y323500D01*
X120328Y323595D01*
X120322Y323689D01*
X120312Y323783D01*
X120299Y323877D01*
X120281Y323970D01*
X120260Y324062D01*
X120235Y324153D01*
X120206Y324243D01*
X120173Y324332D01*
X120137Y324419D01*
X120098Y324505D01*
X120054Y324589D01*
X120008Y324671D01*
X119957Y324751D01*
X119904Y324830D01*
X119848Y324905D01*
X119788Y324979D01*
X119725Y325050D01*
X119660Y325118D01*
X119592Y325183D01*
X119521Y325246D01*
X119447Y325306D01*
X119372Y325362D01*
X119293Y325415D01*
X119213Y325466D01*
X119131Y325512D01*
X119047Y325556D01*
X118961Y325595D01*
X118874Y325631D01*
X118785Y325664D01*
X118695Y325693D01*
X118604Y325718D01*
X118512Y325739D01*
X118419Y325757D01*
X118325Y325770D01*
X118231Y325780D01*
X118137Y325786D01*
X118042Y325788D01*
X114228Y325788D01*
X101534Y330365D02*
X96958Y316635D01*
X92381Y330365D01*
X83076Y330366D02*
X82961Y330364D01*
X82847Y330358D01*
X82732Y330349D01*
X82618Y330335D01*
X82505Y330318D01*
X82392Y330297D01*
X82280Y330272D01*
X82169Y330244D01*
X82059Y330212D01*
X81950Y330176D01*
X81842Y330137D01*
X81736Y330094D01*
X81631Y330047D01*
X81528Y329997D01*
X81426Y329944D01*
X81326Y329887D01*
X81229Y329827D01*
X81133Y329763D01*
X81040Y329697D01*
X80948Y329627D01*
X80860Y329555D01*
X80773Y329479D01*
X80689Y329401D01*
X80608Y329320D01*
X80530Y329236D01*
X80454Y329149D01*
X80382Y329061D01*
X80312Y328969D01*
X80246Y328876D01*
X80182Y328780D01*
X80122Y328683D01*
X80065Y328583D01*
X80012Y328481D01*
X79962Y328378D01*
X79915Y328273D01*
X79872Y328167D01*
X79833Y328059D01*
X79797Y327950D01*
X79765Y327840D01*
X79737Y327729D01*
X79712Y327617D01*
X79691Y327504D01*
X79674Y327391D01*
X79660Y327277D01*
X79651Y327162D01*
X79645Y327048D01*
X79643Y326933D01*
X83076Y330365D02*
X83208Y330363D01*
X83340Y330357D01*
X83472Y330347D01*
X83603Y330333D01*
X83734Y330316D01*
X83864Y330294D01*
X83994Y330268D01*
X84122Y330239D01*
X84250Y330206D01*
X84377Y330169D01*
X84502Y330128D01*
X84627Y330083D01*
X84750Y330035D01*
X84871Y329983D01*
X84991Y329928D01*
X85109Y329869D01*
X85225Y329806D01*
X85339Y329740D01*
X85452Y329670D01*
X85562Y329598D01*
X85670Y329522D01*
X85775Y329442D01*
X85879Y329360D01*
X85979Y329274D01*
X86077Y329186D01*
X86173Y329095D01*
X86265Y329001D01*
X86355Y328904D01*
X86442Y328804D01*
X86526Y328702D01*
X86606Y328598D01*
X86684Y328491D01*
X86758Y328382D01*
X86829Y328270D01*
X86897Y328157D01*
X86961Y328042D01*
X87022Y327924D01*
X87079Y327805D01*
X87133Y327685D01*
X87183Y327562D01*
X87229Y327439D01*
X87271Y327314D01*
X80788Y324263D02*
X80703Y324347D01*
X80621Y324433D01*
X80541Y324522D01*
X80465Y324614D01*
X80391Y324708D01*
X80320Y324804D01*
X80253Y324903D01*
X80189Y325004D01*
X80128Y325107D01*
X80071Y325211D01*
X80017Y325318D01*
X79966Y325426D01*
X79919Y325536D01*
X79876Y325647D01*
X79836Y325760D01*
X79800Y325873D01*
X79767Y325988D01*
X79738Y326104D01*
X79713Y326221D01*
X79692Y326338D01*
X79675Y326457D01*
X79661Y326575D01*
X79652Y326694D01*
X79646Y326814D01*
X79644Y326933D01*
X80788Y324263D02*
X87271Y316635D01*
X79644Y316635D01*
X74389Y316635D02*
X74389Y317398D01*
X73626Y317398D01*
X73626Y316635D01*
X74389Y316635D01*
X68371Y323500D02*
X68368Y323770D01*
X68358Y324040D01*
X68342Y324310D01*
X68319Y324579D01*
X68290Y324847D01*
X68255Y325115D01*
X68213Y325382D01*
X68165Y325648D01*
X68111Y325912D01*
X68050Y326175D01*
X67983Y326437D01*
X67910Y326697D01*
X67830Y326955D01*
X67745Y327211D01*
X67653Y327466D01*
X67556Y327717D01*
X67452Y327967D01*
X67342Y328214D01*
X67227Y328458D01*
X67191Y328558D01*
X67151Y328656D01*
X67108Y328753D01*
X67060Y328848D01*
X67009Y328941D01*
X66955Y329032D01*
X66898Y329121D01*
X66837Y329208D01*
X66772Y329292D01*
X66705Y329374D01*
X66635Y329454D01*
X66561Y329530D01*
X66485Y329604D01*
X66407Y329675D01*
X66325Y329743D01*
X66241Y329808D01*
X66155Y329870D01*
X66066Y329928D01*
X65976Y329983D01*
X65883Y330035D01*
X65788Y330083D01*
X65692Y330127D01*
X65594Y330168D01*
X65495Y330205D01*
X65394Y330238D01*
X65292Y330268D01*
X65189Y330294D01*
X65085Y330315D01*
X64981Y330333D01*
X64876Y330347D01*
X64770Y330357D01*
X64664Y330363D01*
X64558Y330365D01*
X64452Y330363D01*
X64346Y330357D01*
X64240Y330347D01*
X64135Y330333D01*
X64031Y330315D01*
X63927Y330294D01*
X63824Y330268D01*
X63722Y330238D01*
X63621Y330205D01*
X63522Y330168D01*
X63424Y330127D01*
X63328Y330083D01*
X63233Y330035D01*
X63140Y329983D01*
X63050Y329928D01*
X62961Y329870D01*
X62875Y329808D01*
X62791Y329743D01*
X62710Y329675D01*
X62631Y329604D01*
X62555Y329530D01*
X62481Y329454D01*
X62411Y329374D01*
X62344Y329292D01*
X62279Y329208D01*
X62218Y329121D01*
X62161Y329032D01*
X62107Y328941D01*
X62056Y328848D01*
X62008Y328753D01*
X61965Y328656D01*
X61925Y328558D01*
X61889Y328458D01*
X61888Y328458D02*
X61773Y328214D01*
X61663Y327967D01*
X61559Y327717D01*
X61462Y327466D01*
X61370Y327211D01*
X61285Y326955D01*
X61205Y326697D01*
X61132Y326437D01*
X61065Y326175D01*
X61004Y325912D01*
X60950Y325648D01*
X60902Y325382D01*
X60860Y325115D01*
X60825Y324847D01*
X60796Y324579D01*
X60773Y324310D01*
X60757Y324040D01*
X60747Y323770D01*
X60744Y323500D01*
X68372Y323500D02*
X68369Y323230D01*
X68359Y322960D01*
X68343Y322690D01*
X68320Y322421D01*
X68291Y322153D01*
X68256Y321885D01*
X68214Y321618D01*
X68166Y321352D01*
X68112Y321088D01*
X68051Y320824D01*
X67984Y320563D01*
X67911Y320303D01*
X67831Y320044D01*
X67746Y319788D01*
X67654Y319534D01*
X67557Y319282D01*
X67453Y319033D01*
X67343Y318786D01*
X67228Y318542D01*
X67227Y318542D02*
X67191Y318442D01*
X67151Y318344D01*
X67108Y318247D01*
X67060Y318152D01*
X67009Y318059D01*
X66955Y317968D01*
X66898Y317879D01*
X66837Y317792D01*
X66772Y317708D01*
X66705Y317626D01*
X66635Y317546D01*
X66561Y317470D01*
X66485Y317396D01*
X66407Y317325D01*
X66325Y317257D01*
X66241Y317192D01*
X66155Y317130D01*
X66066Y317072D01*
X65976Y317017D01*
X65883Y316965D01*
X65788Y316917D01*
X65692Y316873D01*
X65594Y316832D01*
X65495Y316795D01*
X65394Y316762D01*
X65292Y316732D01*
X65189Y316706D01*
X65085Y316685D01*
X64981Y316667D01*
X64876Y316653D01*
X64770Y316643D01*
X64664Y316637D01*
X64558Y316635D01*
X61887Y318542D02*
X61772Y318786D01*
X61662Y319033D01*
X61558Y319282D01*
X61461Y319534D01*
X61369Y319788D01*
X61284Y320044D01*
X61204Y320303D01*
X61131Y320563D01*
X61064Y320824D01*
X61003Y321088D01*
X60949Y321352D01*
X60901Y321618D01*
X60859Y321885D01*
X60824Y322153D01*
X60795Y322421D01*
X60772Y322690D01*
X60756Y322960D01*
X60746Y323230D01*
X60743Y323500D01*
X61889Y318542D02*
X61925Y318442D01*
X61965Y318344D01*
X62009Y318247D01*
X62056Y318152D01*
X62107Y318059D01*
X62161Y317968D01*
X62219Y317879D01*
X62279Y317792D01*
X62344Y317708D01*
X62411Y317626D01*
X62481Y317546D01*
X62555Y317470D01*
X62631Y317396D01*
X62710Y317325D01*
X62791Y317257D01*
X62875Y317192D01*
X62961Y317130D01*
X63050Y317072D01*
X63140Y317017D01*
X63233Y316965D01*
X63328Y316917D01*
X63424Y316873D01*
X63522Y316832D01*
X63621Y316795D01*
X63722Y316762D01*
X63824Y316732D01*
X63927Y316706D01*
X64031Y316685D01*
X64135Y316667D01*
X64240Y316653D01*
X64346Y316643D01*
X64452Y316637D01*
X64558Y316635D01*
X67609Y319686D02*
X61506Y327314D01*
D11*
X129110Y271618D02*
X129110Y265014D01*
X129110Y271618D02*
X127276Y271618D01*
X127191Y271616D01*
X127107Y271610D01*
X127023Y271600D01*
X126939Y271587D01*
X126856Y271569D01*
X126774Y271548D01*
X126693Y271523D01*
X126613Y271494D01*
X126535Y271462D01*
X126459Y271426D01*
X126384Y271386D01*
X126311Y271343D01*
X126240Y271297D01*
X126171Y271248D01*
X126104Y271195D01*
X126040Y271139D01*
X125979Y271081D01*
X125921Y271020D01*
X125865Y270956D01*
X125812Y270889D01*
X125763Y270820D01*
X125717Y270749D01*
X125674Y270676D01*
X125634Y270601D01*
X125598Y270525D01*
X125566Y270447D01*
X125537Y270367D01*
X125512Y270286D01*
X125491Y270204D01*
X125473Y270121D01*
X125460Y270037D01*
X125450Y269953D01*
X125444Y269869D01*
X125442Y269784D01*
X125444Y269699D01*
X125450Y269615D01*
X125460Y269531D01*
X125473Y269447D01*
X125491Y269364D01*
X125512Y269282D01*
X125537Y269201D01*
X125566Y269121D01*
X125598Y269043D01*
X125634Y268967D01*
X125674Y268892D01*
X125717Y268819D01*
X125763Y268748D01*
X125812Y268679D01*
X125865Y268612D01*
X125921Y268548D01*
X125979Y268487D01*
X126040Y268429D01*
X126104Y268373D01*
X126171Y268320D01*
X126240Y268271D01*
X126311Y268225D01*
X126384Y268182D01*
X126459Y268142D01*
X126535Y268106D01*
X126613Y268074D01*
X126693Y268045D01*
X126774Y268020D01*
X126856Y267999D01*
X126939Y267981D01*
X127023Y267968D01*
X127107Y267958D01*
X127191Y267952D01*
X127276Y267950D01*
X127276Y267949D02*
X129110Y267949D01*
X126909Y267949D02*
X125441Y265014D01*
X121874Y270150D02*
X120039Y271618D01*
X120039Y265014D01*
X118205Y265014D02*
X121874Y265014D01*
X113091Y267949D02*
X110890Y267949D01*
X113091Y267949D02*
X113165Y267951D01*
X113240Y267957D01*
X113313Y267966D01*
X113387Y267979D01*
X113459Y267996D01*
X113530Y268016D01*
X113601Y268040D01*
X113670Y268068D01*
X113738Y268099D01*
X113803Y268133D01*
X113868Y268171D01*
X113930Y268212D01*
X113990Y268256D01*
X114047Y268303D01*
X114102Y268353D01*
X114155Y268406D01*
X114205Y268461D01*
X114252Y268518D01*
X114296Y268578D01*
X114337Y268640D01*
X114375Y268705D01*
X114409Y268771D01*
X114440Y268838D01*
X114468Y268907D01*
X114492Y268978D01*
X114512Y269049D01*
X114529Y269122D01*
X114542Y269195D01*
X114551Y269269D01*
X114557Y269343D01*
X114559Y269417D01*
X114559Y269784D01*
X114558Y269784D02*
X114556Y269869D01*
X114550Y269953D01*
X114540Y270037D01*
X114527Y270121D01*
X114509Y270204D01*
X114488Y270286D01*
X114463Y270367D01*
X114434Y270447D01*
X114402Y270525D01*
X114366Y270601D01*
X114326Y270676D01*
X114283Y270749D01*
X114237Y270820D01*
X114188Y270889D01*
X114135Y270956D01*
X114079Y271020D01*
X114021Y271081D01*
X113960Y271139D01*
X113896Y271195D01*
X113829Y271248D01*
X113760Y271297D01*
X113689Y271343D01*
X113616Y271386D01*
X113541Y271426D01*
X113465Y271462D01*
X113387Y271494D01*
X113307Y271523D01*
X113226Y271548D01*
X113144Y271569D01*
X113061Y271587D01*
X112977Y271600D01*
X112893Y271610D01*
X112809Y271616D01*
X112724Y271618D01*
X112639Y271616D01*
X112555Y271610D01*
X112471Y271600D01*
X112387Y271587D01*
X112304Y271569D01*
X112222Y271548D01*
X112141Y271523D01*
X112061Y271494D01*
X111983Y271462D01*
X111907Y271426D01*
X111832Y271386D01*
X111759Y271343D01*
X111688Y271297D01*
X111619Y271248D01*
X111552Y271195D01*
X111488Y271139D01*
X111427Y271081D01*
X111369Y271020D01*
X111313Y270956D01*
X111260Y270889D01*
X111211Y270820D01*
X111165Y270749D01*
X111122Y270676D01*
X111082Y270601D01*
X111046Y270525D01*
X111014Y270447D01*
X110985Y270367D01*
X110960Y270286D01*
X110939Y270204D01*
X110921Y270121D01*
X110908Y270037D01*
X110898Y269953D01*
X110892Y269869D01*
X110890Y269784D01*
X110890Y267949D01*
X110892Y267842D01*
X110898Y267735D01*
X110908Y267628D01*
X110921Y267522D01*
X110939Y267416D01*
X110960Y267311D01*
X110985Y267207D01*
X111014Y267103D01*
X111047Y267001D01*
X111084Y266901D01*
X111124Y266801D01*
X111168Y266703D01*
X111215Y266607D01*
X111266Y266513D01*
X111320Y266420D01*
X111377Y266330D01*
X111438Y266241D01*
X111502Y266155D01*
X111569Y266072D01*
X111639Y265990D01*
X111712Y265912D01*
X111788Y265836D01*
X111866Y265763D01*
X111948Y265693D01*
X112031Y265626D01*
X112117Y265562D01*
X112206Y265501D01*
X112296Y265444D01*
X112389Y265390D01*
X112483Y265339D01*
X112579Y265292D01*
X112677Y265248D01*
X112777Y265208D01*
X112877Y265171D01*
X112979Y265138D01*
X113083Y265109D01*
X113187Y265084D01*
X113292Y265063D01*
X113398Y265045D01*
X113504Y265032D01*
X113611Y265022D01*
X113718Y265016D01*
X113825Y265014D01*
X219110Y265254D02*
X219110Y271858D01*
X217276Y271858D01*
X217191Y271856D01*
X217107Y271850D01*
X217023Y271840D01*
X216939Y271827D01*
X216856Y271809D01*
X216774Y271788D01*
X216693Y271763D01*
X216613Y271734D01*
X216535Y271702D01*
X216459Y271666D01*
X216384Y271626D01*
X216311Y271583D01*
X216240Y271537D01*
X216171Y271488D01*
X216104Y271435D01*
X216040Y271379D01*
X215979Y271321D01*
X215921Y271260D01*
X215865Y271196D01*
X215812Y271129D01*
X215763Y271060D01*
X215717Y270989D01*
X215674Y270916D01*
X215634Y270841D01*
X215598Y270765D01*
X215566Y270687D01*
X215537Y270607D01*
X215512Y270526D01*
X215491Y270444D01*
X215473Y270361D01*
X215460Y270277D01*
X215450Y270193D01*
X215444Y270109D01*
X215442Y270024D01*
X215444Y269939D01*
X215450Y269855D01*
X215460Y269771D01*
X215473Y269687D01*
X215491Y269604D01*
X215512Y269522D01*
X215537Y269441D01*
X215566Y269361D01*
X215598Y269283D01*
X215634Y269207D01*
X215674Y269132D01*
X215717Y269059D01*
X215763Y268988D01*
X215812Y268919D01*
X215865Y268852D01*
X215921Y268788D01*
X215979Y268727D01*
X216040Y268669D01*
X216104Y268613D01*
X216171Y268560D01*
X216240Y268511D01*
X216311Y268465D01*
X216384Y268422D01*
X216459Y268382D01*
X216535Y268346D01*
X216613Y268314D01*
X216693Y268285D01*
X216774Y268260D01*
X216856Y268239D01*
X216939Y268221D01*
X217023Y268208D01*
X217107Y268198D01*
X217191Y268192D01*
X217276Y268190D01*
X217276Y268189D02*
X219110Y268189D01*
X216909Y268189D02*
X215441Y265254D01*
X209856Y271858D02*
X209777Y271856D01*
X209699Y271851D01*
X209621Y271841D01*
X209544Y271828D01*
X209467Y271811D01*
X209391Y271791D01*
X209316Y271767D01*
X209242Y271740D01*
X209170Y271709D01*
X209099Y271674D01*
X209031Y271637D01*
X208963Y271596D01*
X208898Y271552D01*
X208835Y271505D01*
X208775Y271455D01*
X208717Y271402D01*
X208661Y271346D01*
X208608Y271288D01*
X208558Y271228D01*
X208511Y271165D01*
X208467Y271100D01*
X208426Y271033D01*
X208389Y270964D01*
X208354Y270893D01*
X208323Y270821D01*
X208296Y270747D01*
X208272Y270672D01*
X208252Y270596D01*
X208235Y270519D01*
X208222Y270442D01*
X208212Y270364D01*
X208207Y270286D01*
X208205Y270207D01*
X209856Y271858D02*
X209945Y271856D01*
X210034Y271851D01*
X210122Y271841D01*
X210210Y271828D01*
X210297Y271812D01*
X210384Y271791D01*
X210469Y271767D01*
X210554Y271740D01*
X210637Y271709D01*
X210719Y271674D01*
X210800Y271636D01*
X210879Y271595D01*
X210955Y271551D01*
X211031Y271503D01*
X211104Y271452D01*
X211174Y271399D01*
X211243Y271342D01*
X211309Y271282D01*
X211372Y271220D01*
X211433Y271155D01*
X211491Y271088D01*
X211546Y271018D01*
X211599Y270946D01*
X211648Y270872D01*
X211694Y270796D01*
X211736Y270718D01*
X211776Y270638D01*
X211812Y270557D01*
X211845Y270474D01*
X211874Y270390D01*
X208755Y268923D02*
X208699Y268979D01*
X208645Y269038D01*
X208594Y269099D01*
X208545Y269163D01*
X208500Y269228D01*
X208457Y269296D01*
X208418Y269365D01*
X208381Y269436D01*
X208348Y269509D01*
X208319Y269583D01*
X208292Y269658D01*
X208269Y269734D01*
X208250Y269812D01*
X208234Y269890D01*
X208221Y269968D01*
X208212Y270048D01*
X208207Y270127D01*
X208205Y270207D01*
X208755Y268923D02*
X211874Y265254D01*
X208205Y265254D01*
X204558Y268556D02*
X204556Y268701D01*
X204550Y268846D01*
X204541Y268991D01*
X204527Y269136D01*
X204510Y269280D01*
X204488Y269423D01*
X204463Y269567D01*
X204434Y269709D01*
X204402Y269850D01*
X204365Y269991D01*
X204325Y270130D01*
X204281Y270269D01*
X204234Y270406D01*
X204183Y270542D01*
X204128Y270676D01*
X204070Y270809D01*
X204008Y270941D01*
X204009Y270941D02*
X203983Y271010D01*
X203954Y271077D01*
X203921Y271143D01*
X203885Y271206D01*
X203845Y271268D01*
X203802Y271327D01*
X203756Y271384D01*
X203707Y271438D01*
X203655Y271490D01*
X203600Y271539D01*
X203543Y271584D01*
X203483Y271627D01*
X203421Y271666D01*
X203358Y271702D01*
X203292Y271735D01*
X203225Y271763D01*
X203156Y271789D01*
X203086Y271810D01*
X203015Y271828D01*
X202943Y271841D01*
X202870Y271851D01*
X202797Y271857D01*
X202724Y271859D01*
X202724Y271858D02*
X202651Y271856D01*
X202578Y271850D01*
X202505Y271840D01*
X202434Y271827D01*
X202362Y271809D01*
X202292Y271788D01*
X202224Y271762D01*
X202156Y271734D01*
X202091Y271701D01*
X202027Y271665D01*
X201965Y271626D01*
X201906Y271584D01*
X201849Y271538D01*
X201794Y271489D01*
X201742Y271438D01*
X201693Y271383D01*
X201647Y271326D01*
X201604Y271267D01*
X201564Y271206D01*
X201528Y271142D01*
X201495Y271077D01*
X201466Y271010D01*
X201440Y270941D01*
X201378Y270809D01*
X201320Y270676D01*
X201265Y270542D01*
X201214Y270406D01*
X201167Y270269D01*
X201123Y270130D01*
X201083Y269991D01*
X201046Y269850D01*
X201014Y269709D01*
X200985Y269567D01*
X200960Y269424D01*
X200938Y269280D01*
X200921Y269136D01*
X200907Y268991D01*
X200898Y268846D01*
X200892Y268701D01*
X200890Y268556D01*
X204558Y268556D02*
X204556Y268411D01*
X204550Y268266D01*
X204541Y268121D01*
X204527Y267976D01*
X204510Y267832D01*
X204488Y267689D01*
X204463Y267546D01*
X204435Y267403D01*
X204402Y267262D01*
X204365Y267121D01*
X204325Y266982D01*
X204281Y266843D01*
X204234Y266706D01*
X204183Y266570D01*
X204128Y266436D01*
X204070Y266303D01*
X204008Y266171D01*
X204009Y266172D02*
X203983Y266103D01*
X203954Y266036D01*
X203921Y265970D01*
X203885Y265907D01*
X203845Y265845D01*
X203802Y265786D01*
X203756Y265729D01*
X203707Y265675D01*
X203655Y265623D01*
X203600Y265574D01*
X203543Y265529D01*
X203483Y265486D01*
X203421Y265447D01*
X203358Y265411D01*
X203292Y265378D01*
X203225Y265350D01*
X203156Y265324D01*
X203086Y265303D01*
X203015Y265285D01*
X202943Y265272D01*
X202870Y265262D01*
X202797Y265256D01*
X202724Y265254D01*
X201440Y266171D02*
X201378Y266303D01*
X201320Y266436D01*
X201265Y266570D01*
X201214Y266706D01*
X201167Y266843D01*
X201123Y266982D01*
X201083Y267121D01*
X201046Y267262D01*
X201014Y267403D01*
X200985Y267545D01*
X200960Y267688D01*
X200938Y267832D01*
X200921Y267976D01*
X200907Y268121D01*
X200898Y268266D01*
X200892Y268411D01*
X200890Y268556D01*
X201440Y266171D02*
X201466Y266102D01*
X201495Y266035D01*
X201528Y265970D01*
X201564Y265906D01*
X201604Y265845D01*
X201647Y265786D01*
X201693Y265729D01*
X201742Y265674D01*
X201794Y265623D01*
X201849Y265574D01*
X201906Y265528D01*
X201965Y265486D01*
X202027Y265447D01*
X202091Y265411D01*
X202156Y265378D01*
X202224Y265350D01*
X202292Y265324D01*
X202362Y265303D01*
X202434Y265285D01*
X202505Y265272D01*
X202578Y265262D01*
X202651Y265256D01*
X202724Y265254D01*
X204192Y266722D02*
X201257Y270390D01*
D10*
X95875Y275238D02*
X95875Y284763D01*
D11*
X85614Y272888D02*
X85614Y266284D01*
X85614Y272888D02*
X83780Y272888D01*
X83695Y272886D01*
X83611Y272880D01*
X83527Y272870D01*
X83443Y272857D01*
X83360Y272839D01*
X83278Y272818D01*
X83197Y272793D01*
X83117Y272764D01*
X83039Y272732D01*
X82963Y272696D01*
X82888Y272656D01*
X82815Y272613D01*
X82744Y272567D01*
X82675Y272518D01*
X82608Y272465D01*
X82544Y272409D01*
X82483Y272351D01*
X82425Y272290D01*
X82369Y272226D01*
X82316Y272159D01*
X82267Y272090D01*
X82221Y272019D01*
X82178Y271946D01*
X82138Y271871D01*
X82102Y271795D01*
X82070Y271717D01*
X82041Y271637D01*
X82016Y271556D01*
X81995Y271474D01*
X81977Y271391D01*
X81964Y271307D01*
X81954Y271223D01*
X81948Y271139D01*
X81946Y271054D01*
X81945Y271054D02*
X81945Y268118D01*
X81946Y268118D02*
X81948Y268033D01*
X81954Y267949D01*
X81964Y267865D01*
X81977Y267781D01*
X81995Y267698D01*
X82016Y267616D01*
X82041Y267535D01*
X82070Y267455D01*
X82102Y267377D01*
X82138Y267301D01*
X82178Y267226D01*
X82221Y267153D01*
X82267Y267082D01*
X82316Y267013D01*
X82369Y266946D01*
X82425Y266882D01*
X82483Y266821D01*
X82544Y266763D01*
X82608Y266707D01*
X82675Y266654D01*
X82744Y266605D01*
X82815Y266559D01*
X82888Y266516D01*
X82963Y266476D01*
X83039Y266440D01*
X83117Y266408D01*
X83197Y266379D01*
X83278Y266354D01*
X83360Y266333D01*
X83443Y266315D01*
X83527Y266302D01*
X83611Y266292D01*
X83695Y266286D01*
X83780Y266284D01*
X85614Y266284D01*
X76037Y272888D02*
X75958Y272886D01*
X75880Y272881D01*
X75802Y272871D01*
X75725Y272858D01*
X75648Y272841D01*
X75572Y272821D01*
X75497Y272797D01*
X75423Y272770D01*
X75351Y272739D01*
X75280Y272704D01*
X75212Y272667D01*
X75144Y272626D01*
X75079Y272582D01*
X75016Y272535D01*
X74956Y272485D01*
X74898Y272432D01*
X74842Y272376D01*
X74789Y272318D01*
X74739Y272258D01*
X74692Y272195D01*
X74648Y272130D01*
X74607Y272063D01*
X74570Y271994D01*
X74535Y271923D01*
X74504Y271851D01*
X74477Y271777D01*
X74453Y271702D01*
X74433Y271626D01*
X74416Y271549D01*
X74403Y271472D01*
X74393Y271394D01*
X74388Y271316D01*
X74386Y271237D01*
X76037Y272888D02*
X76126Y272886D01*
X76215Y272881D01*
X76303Y272871D01*
X76391Y272858D01*
X76478Y272842D01*
X76565Y272821D01*
X76650Y272797D01*
X76735Y272770D01*
X76818Y272739D01*
X76900Y272704D01*
X76981Y272666D01*
X77060Y272625D01*
X77136Y272581D01*
X77212Y272533D01*
X77285Y272482D01*
X77355Y272429D01*
X77424Y272372D01*
X77490Y272312D01*
X77553Y272250D01*
X77614Y272185D01*
X77672Y272118D01*
X77727Y272048D01*
X77780Y271976D01*
X77829Y271902D01*
X77875Y271826D01*
X77917Y271748D01*
X77957Y271668D01*
X77993Y271587D01*
X78026Y271504D01*
X78055Y271420D01*
X74936Y269953D02*
X74880Y270009D01*
X74826Y270068D01*
X74775Y270129D01*
X74726Y270193D01*
X74681Y270258D01*
X74638Y270326D01*
X74599Y270395D01*
X74562Y270466D01*
X74529Y270539D01*
X74500Y270613D01*
X74473Y270688D01*
X74450Y270764D01*
X74431Y270842D01*
X74415Y270920D01*
X74402Y270998D01*
X74393Y271078D01*
X74388Y271157D01*
X74386Y271237D01*
X74936Y269953D02*
X78055Y266284D01*
X74386Y266284D01*
X55634Y276675D02*
X55634Y278876D01*
X55636Y278950D01*
X55642Y279025D01*
X55651Y279098D01*
X55664Y279172D01*
X55681Y279244D01*
X55701Y279315D01*
X55725Y279386D01*
X55753Y279455D01*
X55784Y279522D01*
X55818Y279588D01*
X55856Y279653D01*
X55897Y279715D01*
X55941Y279775D01*
X55988Y279832D01*
X56038Y279887D01*
X56091Y279940D01*
X56146Y279990D01*
X56203Y280037D01*
X56263Y280081D01*
X56325Y280122D01*
X56390Y280160D01*
X56455Y280194D01*
X56523Y280225D01*
X56592Y280253D01*
X56663Y280277D01*
X56734Y280297D01*
X56806Y280314D01*
X56880Y280327D01*
X56953Y280336D01*
X57028Y280342D01*
X57102Y280344D01*
X57102Y280343D02*
X57835Y280343D01*
X57835Y280344D02*
X57909Y280342D01*
X57984Y280336D01*
X58057Y280327D01*
X58131Y280314D01*
X58203Y280297D01*
X58274Y280277D01*
X58345Y280253D01*
X58414Y280225D01*
X58481Y280194D01*
X58547Y280160D01*
X58612Y280122D01*
X58674Y280081D01*
X58734Y280037D01*
X58791Y279990D01*
X58846Y279940D01*
X58899Y279887D01*
X58949Y279832D01*
X58996Y279775D01*
X59040Y279715D01*
X59081Y279653D01*
X59119Y279588D01*
X59153Y279522D01*
X59184Y279455D01*
X59212Y279386D01*
X59236Y279315D01*
X59256Y279244D01*
X59273Y279172D01*
X59286Y279098D01*
X59295Y279025D01*
X59301Y278950D01*
X59303Y278876D01*
X59303Y276675D01*
X62238Y276675D01*
X62238Y280343D01*
X62238Y283623D02*
X55634Y285824D01*
X62238Y288025D01*
D10*
X185875Y284763D02*
X185875Y275238D01*
D11*
X175614Y273016D02*
X175614Y266412D01*
X175614Y273016D02*
X173780Y273016D01*
X173695Y273014D01*
X173611Y273008D01*
X173527Y272998D01*
X173443Y272985D01*
X173360Y272967D01*
X173278Y272946D01*
X173197Y272921D01*
X173117Y272892D01*
X173039Y272860D01*
X172963Y272824D01*
X172888Y272784D01*
X172815Y272741D01*
X172744Y272695D01*
X172675Y272646D01*
X172608Y272593D01*
X172544Y272537D01*
X172483Y272479D01*
X172425Y272418D01*
X172369Y272354D01*
X172316Y272287D01*
X172267Y272218D01*
X172221Y272147D01*
X172178Y272074D01*
X172138Y271999D01*
X172102Y271923D01*
X172070Y271845D01*
X172041Y271765D01*
X172016Y271684D01*
X171995Y271602D01*
X171977Y271519D01*
X171964Y271435D01*
X171954Y271351D01*
X171948Y271267D01*
X171946Y271182D01*
X171945Y271182D02*
X171945Y268246D01*
X171946Y268246D02*
X171948Y268161D01*
X171954Y268077D01*
X171964Y267993D01*
X171977Y267909D01*
X171995Y267826D01*
X172016Y267744D01*
X172041Y267663D01*
X172070Y267583D01*
X172102Y267505D01*
X172138Y267429D01*
X172178Y267354D01*
X172221Y267281D01*
X172267Y267210D01*
X172316Y267141D01*
X172369Y267074D01*
X172425Y267010D01*
X172483Y266949D01*
X172544Y266891D01*
X172608Y266835D01*
X172675Y266782D01*
X172744Y266733D01*
X172815Y266687D01*
X172888Y266644D01*
X172963Y266604D01*
X173039Y266568D01*
X173117Y266536D01*
X173197Y266507D01*
X173278Y266482D01*
X173360Y266461D01*
X173443Y266443D01*
X173527Y266430D01*
X173611Y266420D01*
X173695Y266414D01*
X173780Y266412D01*
X175614Y266412D01*
X168055Y266412D02*
X166220Y266412D01*
X166135Y266414D01*
X166051Y266420D01*
X165967Y266430D01*
X165883Y266443D01*
X165800Y266461D01*
X165718Y266482D01*
X165637Y266507D01*
X165557Y266536D01*
X165479Y266568D01*
X165403Y266604D01*
X165328Y266644D01*
X165255Y266687D01*
X165184Y266733D01*
X165115Y266782D01*
X165048Y266835D01*
X164984Y266891D01*
X164923Y266949D01*
X164865Y267010D01*
X164809Y267074D01*
X164756Y267141D01*
X164707Y267210D01*
X164661Y267281D01*
X164618Y267354D01*
X164578Y267429D01*
X164542Y267505D01*
X164510Y267583D01*
X164481Y267663D01*
X164456Y267744D01*
X164435Y267826D01*
X164417Y267909D01*
X164404Y267993D01*
X164394Y268077D01*
X164388Y268161D01*
X164386Y268246D01*
X164388Y268331D01*
X164394Y268415D01*
X164404Y268499D01*
X164417Y268583D01*
X164435Y268666D01*
X164456Y268748D01*
X164481Y268829D01*
X164510Y268909D01*
X164542Y268987D01*
X164578Y269063D01*
X164618Y269138D01*
X164661Y269211D01*
X164707Y269282D01*
X164756Y269351D01*
X164809Y269418D01*
X164865Y269482D01*
X164923Y269543D01*
X164984Y269601D01*
X165048Y269657D01*
X165115Y269710D01*
X165184Y269759D01*
X165255Y269805D01*
X165328Y269848D01*
X165403Y269888D01*
X165479Y269924D01*
X165557Y269956D01*
X165637Y269985D01*
X165718Y270010D01*
X165800Y270031D01*
X165883Y270049D01*
X165967Y270062D01*
X166051Y270072D01*
X166135Y270078D01*
X166220Y270080D01*
X165854Y273016D02*
X168055Y273016D01*
X165854Y273016D02*
X165778Y273014D01*
X165703Y273008D01*
X165628Y272999D01*
X165554Y272985D01*
X165480Y272968D01*
X165408Y272946D01*
X165336Y272922D01*
X165266Y272893D01*
X165198Y272861D01*
X165131Y272826D01*
X165066Y272787D01*
X165003Y272744D01*
X164943Y272699D01*
X164885Y272651D01*
X164829Y272599D01*
X164777Y272545D01*
X164727Y272488D01*
X164680Y272429D01*
X164636Y272368D01*
X164595Y272304D01*
X164558Y272238D01*
X164524Y272170D01*
X164494Y272101D01*
X164467Y272030D01*
X164444Y271958D01*
X164425Y271885D01*
X164410Y271811D01*
X164398Y271736D01*
X164390Y271661D01*
X164386Y271586D01*
X164386Y271510D01*
X164390Y271435D01*
X164398Y271360D01*
X164410Y271285D01*
X164425Y271211D01*
X164444Y271138D01*
X164467Y271066D01*
X164494Y270995D01*
X164524Y270926D01*
X164558Y270858D01*
X164595Y270792D01*
X164636Y270728D01*
X164680Y270667D01*
X164727Y270608D01*
X164777Y270551D01*
X164829Y270497D01*
X164885Y270445D01*
X164943Y270397D01*
X165003Y270352D01*
X165066Y270309D01*
X165131Y270270D01*
X165198Y270235D01*
X165266Y270203D01*
X165336Y270174D01*
X165408Y270150D01*
X165480Y270128D01*
X165554Y270111D01*
X165628Y270097D01*
X165703Y270088D01*
X165778Y270082D01*
X165854Y270080D01*
X165854Y270081D02*
X167321Y270081D01*
X144762Y268388D02*
X144762Y266554D01*
X144762Y268388D02*
X144764Y268473D01*
X144770Y268557D01*
X144780Y268641D01*
X144793Y268725D01*
X144811Y268808D01*
X144832Y268890D01*
X144857Y268971D01*
X144886Y269051D01*
X144918Y269129D01*
X144954Y269205D01*
X144994Y269280D01*
X145037Y269353D01*
X145083Y269424D01*
X145132Y269493D01*
X145185Y269560D01*
X145241Y269624D01*
X145299Y269685D01*
X145360Y269743D01*
X145424Y269799D01*
X145491Y269852D01*
X145560Y269901D01*
X145631Y269947D01*
X145704Y269990D01*
X145779Y270030D01*
X145855Y270066D01*
X145933Y270098D01*
X146013Y270127D01*
X146094Y270152D01*
X146176Y270173D01*
X146259Y270191D01*
X146343Y270204D01*
X146427Y270214D01*
X146511Y270220D01*
X146596Y270222D01*
X146681Y270220D01*
X146765Y270214D01*
X146849Y270204D01*
X146933Y270191D01*
X147016Y270173D01*
X147098Y270152D01*
X147179Y270127D01*
X147259Y270098D01*
X147337Y270066D01*
X147413Y270030D01*
X147488Y269990D01*
X147561Y269947D01*
X147632Y269901D01*
X147701Y269852D01*
X147768Y269799D01*
X147832Y269743D01*
X147893Y269685D01*
X147951Y269624D01*
X148007Y269560D01*
X148060Y269493D01*
X148109Y269424D01*
X148155Y269353D01*
X148198Y269280D01*
X148238Y269205D01*
X148274Y269129D01*
X148306Y269051D01*
X148335Y268971D01*
X148360Y268890D01*
X148381Y268808D01*
X148399Y268725D01*
X148412Y268641D01*
X148422Y268557D01*
X148428Y268473D01*
X148430Y268388D01*
X151366Y268755D02*
X151366Y266554D01*
X151366Y268755D02*
X151364Y268831D01*
X151358Y268906D01*
X151349Y268981D01*
X151335Y269055D01*
X151318Y269129D01*
X151296Y269201D01*
X151272Y269273D01*
X151243Y269343D01*
X151211Y269411D01*
X151176Y269478D01*
X151137Y269543D01*
X151094Y269606D01*
X151049Y269666D01*
X151001Y269724D01*
X150949Y269780D01*
X150895Y269832D01*
X150838Y269882D01*
X150779Y269929D01*
X150718Y269973D01*
X150654Y270014D01*
X150588Y270051D01*
X150520Y270085D01*
X150451Y270115D01*
X150380Y270142D01*
X150308Y270165D01*
X150235Y270184D01*
X150161Y270199D01*
X150086Y270211D01*
X150011Y270219D01*
X149936Y270223D01*
X149860Y270223D01*
X149785Y270219D01*
X149710Y270211D01*
X149635Y270199D01*
X149561Y270184D01*
X149488Y270165D01*
X149416Y270142D01*
X149345Y270115D01*
X149276Y270085D01*
X149208Y270051D01*
X149142Y270014D01*
X149078Y269973D01*
X149017Y269929D01*
X148958Y269882D01*
X148901Y269832D01*
X148847Y269780D01*
X148795Y269724D01*
X148747Y269666D01*
X148702Y269606D01*
X148659Y269543D01*
X148620Y269478D01*
X148585Y269411D01*
X148553Y269343D01*
X148524Y269273D01*
X148500Y269201D01*
X148478Y269129D01*
X148461Y269055D01*
X148447Y268981D01*
X148438Y268906D01*
X148432Y268831D01*
X148430Y268755D01*
X148431Y268755D02*
X148431Y267288D01*
X145129Y273326D02*
X144762Y273326D01*
X145129Y273326D02*
X145129Y273692D01*
X144762Y273692D01*
X144762Y273326D01*
X144762Y276795D02*
X144762Y278630D01*
X144764Y278715D01*
X144770Y278799D01*
X144780Y278883D01*
X144793Y278967D01*
X144811Y279050D01*
X144832Y279132D01*
X144857Y279213D01*
X144886Y279293D01*
X144918Y279371D01*
X144954Y279447D01*
X144994Y279522D01*
X145037Y279595D01*
X145083Y279666D01*
X145132Y279735D01*
X145185Y279802D01*
X145241Y279866D01*
X145299Y279927D01*
X145360Y279985D01*
X145424Y280041D01*
X145491Y280094D01*
X145560Y280143D01*
X145631Y280189D01*
X145704Y280232D01*
X145779Y280272D01*
X145855Y280308D01*
X145933Y280340D01*
X146013Y280369D01*
X146094Y280394D01*
X146176Y280415D01*
X146259Y280433D01*
X146343Y280446D01*
X146427Y280456D01*
X146511Y280462D01*
X146596Y280464D01*
X146681Y280462D01*
X146765Y280456D01*
X146849Y280446D01*
X146933Y280433D01*
X147016Y280415D01*
X147098Y280394D01*
X147179Y280369D01*
X147259Y280340D01*
X147337Y280308D01*
X147413Y280272D01*
X147488Y280232D01*
X147561Y280189D01*
X147632Y280143D01*
X147701Y280094D01*
X147768Y280041D01*
X147832Y279985D01*
X147893Y279927D01*
X147951Y279866D01*
X148007Y279802D01*
X148060Y279735D01*
X148109Y279666D01*
X148155Y279595D01*
X148198Y279522D01*
X148238Y279447D01*
X148274Y279371D01*
X148306Y279293D01*
X148335Y279213D01*
X148360Y279132D01*
X148381Y279050D01*
X148399Y278967D01*
X148412Y278883D01*
X148422Y278799D01*
X148428Y278715D01*
X148430Y278630D01*
X151366Y278996D02*
X151366Y276795D01*
X151366Y278996D02*
X151364Y279072D01*
X151358Y279147D01*
X151349Y279222D01*
X151335Y279296D01*
X151318Y279370D01*
X151296Y279442D01*
X151272Y279514D01*
X151243Y279584D01*
X151211Y279652D01*
X151176Y279719D01*
X151137Y279784D01*
X151094Y279847D01*
X151049Y279907D01*
X151001Y279965D01*
X150949Y280021D01*
X150895Y280073D01*
X150838Y280123D01*
X150779Y280170D01*
X150718Y280214D01*
X150654Y280255D01*
X150588Y280292D01*
X150520Y280326D01*
X150451Y280356D01*
X150380Y280383D01*
X150308Y280406D01*
X150235Y280425D01*
X150161Y280440D01*
X150086Y280452D01*
X150011Y280460D01*
X149936Y280464D01*
X149860Y280464D01*
X149785Y280460D01*
X149710Y280452D01*
X149635Y280440D01*
X149561Y280425D01*
X149488Y280406D01*
X149416Y280383D01*
X149345Y280356D01*
X149276Y280326D01*
X149208Y280292D01*
X149142Y280255D01*
X149078Y280214D01*
X149017Y280170D01*
X148958Y280123D01*
X148901Y280073D01*
X148847Y280021D01*
X148795Y279965D01*
X148747Y279907D01*
X148702Y279847D01*
X148659Y279784D01*
X148620Y279719D01*
X148585Y279652D01*
X148553Y279584D01*
X148524Y279514D01*
X148500Y279442D01*
X148478Y279370D01*
X148461Y279296D01*
X148447Y279222D01*
X148438Y279147D01*
X148432Y279072D01*
X148430Y278996D01*
X148431Y278996D02*
X148431Y277529D01*
X151366Y283743D02*
X144762Y285945D01*
X151366Y288146D01*
D12*
X228184Y399650D02*
X232881Y399650D01*
X228184Y399650D02*
X226291Y397757D01*
X226291Y393060D01*
X228184Y391168D01*
X232881Y391168D01*
X234773Y393060D01*
X234773Y397757D01*
X232881Y399650D01*
X274223Y399650D02*
X278920Y399650D01*
X274223Y399650D02*
X272331Y397757D01*
X272331Y393060D01*
X274223Y391168D01*
X278920Y391168D01*
X280812Y393060D01*
X280812Y397757D01*
X278920Y399650D01*
X297243Y406550D02*
X303832Y406550D01*
X297243Y406550D02*
X295350Y404657D01*
X295350Y399960D01*
X297243Y398068D01*
X303832Y398068D01*
X303832Y406550D01*
X249311Y397757D02*
X249311Y393060D01*
X251203Y391168D01*
X257793Y391168D01*
X257793Y399650D01*
X251203Y399650D01*
X249311Y397757D01*
X186841Y391168D02*
X180252Y391168D01*
X186841Y391168D02*
X187632Y391959D01*
X186841Y392750D01*
X180252Y392750D01*
X180252Y391168D01*
X121619Y399650D02*
X116922Y399650D01*
X115340Y398068D01*
X123201Y398068D01*
X121619Y399650D01*
X51000Y418100D02*
X330000Y418100D01*
X51000Y418100D02*
X51000Y380000D01*
X330000Y380000D01*
X330000Y418100D01*
X114719Y385850D02*
X113162Y387408D01*
X113162Y389610D01*
X114719Y391168D01*
X121619Y391168D01*
X123201Y392750D01*
X111269Y392750D01*
X109712Y394307D01*
X109712Y399960D01*
X111269Y401518D01*
X114719Y404968D01*
X123822Y404968D01*
X125379Y403410D01*
X128829Y399960D01*
X128829Y390858D01*
X127272Y389300D01*
X123822Y385850D01*
X121619Y385850D01*
X114719Y385850D01*
X148012Y396214D02*
X148012Y410310D01*
X148012Y396214D02*
X148177Y395967D01*
X148065Y395409D01*
X148177Y394850D01*
X148012Y394604D01*
X148012Y387408D01*
X146455Y385850D01*
X144252Y385850D01*
X142694Y387408D01*
X142694Y390441D01*
X135562Y385686D01*
X133402Y386118D01*
X132180Y387950D01*
X132612Y390110D01*
X140560Y395409D01*
X132612Y400707D01*
X132180Y402867D01*
X133402Y404700D01*
X135562Y405132D01*
X142694Y400377D01*
X142694Y410310D01*
X144252Y411868D01*
X146455Y411868D01*
X148012Y410310D01*
X151914Y401207D02*
X153472Y399650D01*
X151914Y401207D02*
X151914Y403410D01*
X153472Y404968D01*
X166025Y404968D01*
X169474Y401518D01*
X171032Y399960D01*
X171032Y390858D01*
X167582Y387408D01*
X166025Y385850D01*
X153472Y385850D01*
X151914Y387408D01*
X151914Y389610D01*
X153472Y391168D01*
X163822Y391168D01*
X165714Y393060D01*
X165714Y397757D01*
X163822Y399650D01*
X153472Y399650D01*
X189044Y404968D02*
X190602Y403410D01*
X190602Y401207D01*
X189044Y399650D01*
X182144Y399650D01*
X180562Y398068D01*
X189044Y398068D01*
X190602Y396510D01*
X194052Y393060D01*
X194052Y390858D01*
X192494Y389300D01*
X189044Y385850D01*
X176492Y385850D01*
X174934Y387408D01*
X174934Y399960D01*
X176492Y401518D01*
X179941Y404968D01*
X182144Y404968D01*
X189044Y404968D01*
X213311Y394618D02*
X215514Y394618D01*
X217071Y393060D01*
X217071Y390858D01*
X213621Y387408D01*
X212064Y385850D01*
X206411Y385850D01*
X201404Y390857D01*
X201404Y406550D01*
X199511Y406550D01*
X197954Y408107D01*
X197954Y410310D01*
X199511Y411868D01*
X208614Y411868D01*
X210171Y410310D01*
X210171Y408107D01*
X208614Y406550D01*
X206722Y406550D01*
X206722Y393060D01*
X208614Y391168D01*
X209861Y391168D01*
X213311Y394618D01*
X257793Y410310D02*
X259350Y411868D01*
X261553Y411868D01*
X263111Y410310D01*
X263111Y387408D01*
X261553Y385850D01*
X249000Y385850D01*
X245551Y389300D01*
X243993Y390858D01*
X243993Y399960D01*
X247443Y403410D01*
X249000Y404968D01*
X257793Y404968D01*
X257793Y410310D01*
X307592Y385850D02*
X309150Y387408D01*
X307592Y385850D02*
X305390Y385850D01*
X303832Y387408D01*
X303832Y392750D01*
X300693Y392750D01*
X293793Y385850D01*
X291590Y385850D01*
X290032Y387408D01*
X290032Y389610D01*
X294106Y393684D01*
X290032Y397757D01*
X290032Y406860D01*
X290069Y406896D01*
X295040Y411868D01*
X307592Y411868D01*
X309150Y410310D01*
X309150Y394307D01*
X309150Y387408D01*
X274223Y385850D02*
X272020Y385850D01*
X268570Y389300D01*
X267013Y390858D01*
X267013Y399960D01*
X270463Y403410D01*
X272020Y404968D01*
X281123Y404968D01*
X284573Y401518D01*
X286130Y399960D01*
X286130Y390858D01*
X281123Y385850D01*
X278920Y385850D01*
X274223Y385850D01*
X228184Y385850D02*
X225981Y385850D01*
X222531Y389300D01*
X220973Y390858D01*
X220973Y399960D01*
X224423Y403410D01*
X225981Y404968D01*
X235083Y404968D01*
X238533Y401518D01*
X240091Y399960D01*
X240091Y390858D01*
X235083Y385850D01*
X232881Y385850D01*
X228184Y385850D01*
X98599Y408418D02*
X97042Y406860D01*
X98599Y408418D02*
X100802Y408418D01*
X102360Y406860D01*
X102360Y404968D01*
X104252Y404968D01*
X105810Y403410D01*
X105810Y401207D01*
X104252Y399650D01*
X102360Y399650D01*
X102360Y390858D01*
X97352Y385850D01*
X95149Y385850D01*
X93592Y387408D01*
X93592Y389610D01*
X97042Y393060D01*
X97042Y399650D01*
X95149Y399650D01*
X93592Y401207D01*
X93592Y403410D01*
X95149Y404968D01*
X97042Y404968D01*
X97042Y406860D01*
X88906Y391168D02*
X90463Y389610D01*
X90463Y387408D01*
X88906Y385850D01*
X76353Y385850D01*
X72903Y389300D01*
X71346Y390858D01*
X71346Y393060D01*
X74795Y396510D01*
X76353Y398068D01*
X83253Y398068D01*
X84044Y398859D01*
X83253Y399650D01*
X72903Y399650D01*
X71346Y401207D01*
X71346Y403410D01*
X72903Y404968D01*
X85456Y404968D01*
X87013Y403410D01*
X88928Y401495D01*
X90463Y399960D01*
X90463Y397757D01*
X90427Y397721D01*
X85456Y392750D01*
X78556Y392750D01*
X77765Y391959D01*
X78556Y391168D01*
X88906Y391168D01*
X51000Y380000D02*
X330000Y380000D01*
X330000Y381000D02*
X51000Y381000D01*
X51000Y382000D02*
X330000Y382000D01*
X330000Y383000D02*
X51000Y383000D01*
X51000Y384000D02*
X330000Y384000D01*
X330000Y385000D02*
X51000Y385000D01*
X307742Y386000D02*
X330000Y386000D01*
X305240Y386000D02*
X293943Y386000D01*
X291440Y386000D02*
X281273Y386000D01*
X271870Y386000D02*
X261703Y386000D01*
X248850Y386000D02*
X235233Y386000D01*
X225831Y386000D02*
X212214Y386000D01*
X206261Y386000D02*
X189194Y386000D01*
X176342Y386000D02*
X166175Y386000D01*
X153322Y386000D02*
X146605Y386000D01*
X144102Y386000D02*
X136034Y386000D01*
X133990Y386000D02*
X123972Y386000D01*
X114569Y386000D02*
X97502Y386000D01*
X94999Y386000D02*
X89056Y386000D01*
X76203Y386000D02*
X51000Y386000D01*
X308742Y387000D02*
X330000Y387000D01*
X304240Y387000D02*
X294943Y387000D01*
X290440Y387000D02*
X282273Y387000D01*
X270870Y387000D02*
X262703Y387000D01*
X247850Y387000D02*
X236233Y387000D01*
X224831Y387000D02*
X213214Y387000D01*
X205261Y387000D02*
X190194Y387000D01*
X175342Y387000D02*
X167175Y387000D01*
X152322Y387000D02*
X147605Y387000D01*
X143102Y387000D02*
X137534Y387000D01*
X132814Y387000D02*
X124972Y387000D01*
X113569Y387000D02*
X98502Y387000D01*
X93999Y387000D02*
X90056Y387000D01*
X75203Y387000D02*
X51000Y387000D01*
X309150Y388000D02*
X330000Y388000D01*
X303832Y388000D02*
X295943Y388000D01*
X290032Y388000D02*
X283273Y388000D01*
X269870Y388000D02*
X263111Y388000D01*
X246850Y388000D02*
X237233Y388000D01*
X223831Y388000D02*
X214214Y388000D01*
X204261Y388000D02*
X191194Y388000D01*
X174934Y388000D02*
X168175Y388000D01*
X151914Y388000D02*
X148012Y388000D01*
X142694Y388000D02*
X139034Y388000D01*
X132190Y388000D02*
X125972Y388000D01*
X113162Y388000D02*
X99502Y388000D01*
X93592Y388000D02*
X90463Y388000D01*
X74203Y388000D02*
X51000Y388000D01*
X309150Y389000D02*
X330000Y389000D01*
X303832Y389000D02*
X296943Y389000D01*
X290032Y389000D02*
X284273Y389000D01*
X268870Y389000D02*
X263111Y389000D01*
X245850Y389000D02*
X238233Y389000D01*
X222831Y389000D02*
X215214Y389000D01*
X203261Y389000D02*
X192194Y389000D01*
X174934Y389000D02*
X169175Y389000D01*
X151914Y389000D02*
X148012Y389000D01*
X142694Y389000D02*
X140534Y389000D01*
X132390Y389000D02*
X126972Y389000D01*
X113162Y389000D02*
X100502Y389000D01*
X93592Y389000D02*
X90463Y389000D01*
X73203Y389000D02*
X51000Y389000D01*
X309150Y390000D02*
X330000Y390000D01*
X303832Y390000D02*
X297943Y390000D01*
X290422Y390000D02*
X285273Y390000D01*
X267870Y390000D02*
X263111Y390000D01*
X244850Y390000D02*
X239233Y390000D01*
X221831Y390000D02*
X216214Y390000D01*
X202261Y390000D02*
X193194Y390000D01*
X174934Y390000D02*
X170175Y390000D01*
X152304Y390000D02*
X148012Y390000D01*
X142694Y390000D02*
X142034Y390000D01*
X132590Y390000D02*
X127972Y390000D01*
X113551Y390000D02*
X101502Y390000D01*
X93981Y390000D02*
X90074Y390000D01*
X72203Y390000D02*
X51000Y390000D01*
X309150Y391000D02*
X330000Y391000D01*
X303832Y391000D02*
X298943Y391000D01*
X291422Y391000D02*
X286130Y391000D01*
X267013Y391000D02*
X263111Y391000D01*
X243993Y391000D02*
X240091Y391000D01*
X220973Y391000D02*
X217071Y391000D01*
X201404Y391000D02*
X194052Y391000D01*
X174934Y391000D02*
X171032Y391000D01*
X153304Y391000D02*
X148012Y391000D01*
X133946Y391000D02*
X128829Y391000D01*
X114551Y391000D02*
X102360Y391000D01*
X94981Y391000D02*
X89074Y391000D01*
X71346Y391000D02*
X51000Y391000D01*
X309150Y392000D02*
X330000Y392000D01*
X303832Y392000D02*
X299943Y392000D01*
X292422Y392000D02*
X286130Y392000D01*
X279752Y392000D02*
X273391Y392000D01*
X267013Y392000D02*
X263111Y392000D01*
X257793Y392000D02*
X250371Y392000D01*
X243993Y392000D02*
X240091Y392000D01*
X233713Y392000D02*
X227352Y392000D01*
X220973Y392000D02*
X217071Y392000D01*
X210693Y392000D02*
X207782Y392000D01*
X201404Y392000D02*
X194052Y392000D01*
X187591Y392000D02*
X180252Y392000D01*
X174934Y392000D02*
X171032Y392000D01*
X164654Y392000D02*
X148012Y392000D01*
X135447Y392000D02*
X128829Y392000D01*
X122451Y392000D02*
X102360Y392000D01*
X95982Y392000D02*
X77806Y392000D01*
X71346Y392000D02*
X51000Y392000D01*
X309150Y393000D02*
X330000Y393000D01*
X293422Y393000D02*
X286130Y393000D01*
X280752Y393000D02*
X272391Y393000D01*
X267013Y393000D02*
X263111Y393000D01*
X257793Y393000D02*
X249371Y393000D01*
X243993Y393000D02*
X240091Y393000D01*
X234713Y393000D02*
X226352Y393000D01*
X220973Y393000D02*
X217071Y393000D01*
X211693Y393000D02*
X206782Y393000D01*
X201404Y393000D02*
X194052Y393000D01*
X174934Y393000D02*
X171032Y393000D01*
X165654Y393000D02*
X148012Y393000D01*
X136947Y393000D02*
X128829Y393000D01*
X111019Y393000D02*
X102360Y393000D01*
X96981Y393000D02*
X85706Y393000D01*
X71346Y393000D02*
X51000Y393000D01*
X309150Y394000D02*
X330000Y394000D01*
X293790Y394000D02*
X286130Y394000D01*
X280812Y394000D02*
X272331Y394000D01*
X267013Y394000D02*
X263111Y394000D01*
X257793Y394000D02*
X249311Y394000D01*
X243993Y394000D02*
X240091Y394000D01*
X234773Y394000D02*
X226291Y394000D01*
X220973Y394000D02*
X216132Y394000D01*
X212693Y394000D02*
X206722Y394000D01*
X201404Y394000D02*
X193112Y394000D01*
X174934Y394000D02*
X171032Y394000D01*
X165714Y394000D02*
X148012Y394000D01*
X138447Y394000D02*
X128829Y394000D01*
X110019Y394000D02*
X102360Y394000D01*
X97042Y394000D02*
X86706Y394000D01*
X72285Y394000D02*
X51000Y394000D01*
X309150Y395000D02*
X330000Y395000D01*
X292790Y395000D02*
X286130Y395000D01*
X280812Y395000D02*
X272331Y395000D01*
X267013Y395000D02*
X263111Y395000D01*
X257793Y395000D02*
X249311Y395000D01*
X243993Y395000D02*
X240091Y395000D01*
X234773Y395000D02*
X226291Y395000D01*
X220973Y395000D02*
X206722Y395000D01*
X201404Y395000D02*
X192112Y395000D01*
X174934Y395000D02*
X171032Y395000D01*
X165714Y395000D02*
X148147Y395000D01*
X139947Y395000D02*
X128829Y395000D01*
X109712Y395000D02*
X102360Y395000D01*
X97042Y395000D02*
X87706Y395000D01*
X73285Y395000D02*
X51000Y395000D01*
X309150Y396000D02*
X330000Y396000D01*
X291790Y396000D02*
X286130Y396000D01*
X280812Y396000D02*
X272331Y396000D01*
X267013Y396000D02*
X263111Y396000D01*
X257793Y396000D02*
X249311Y396000D01*
X243993Y396000D02*
X240091Y396000D01*
X234773Y396000D02*
X226291Y396000D01*
X220973Y396000D02*
X206722Y396000D01*
X201404Y396000D02*
X191112Y396000D01*
X174934Y396000D02*
X171032Y396000D01*
X165714Y396000D02*
X148155Y396000D01*
X139673Y396000D02*
X128829Y396000D01*
X109712Y396000D02*
X102360Y396000D01*
X97042Y396000D02*
X88706Y396000D01*
X74285Y396000D02*
X51000Y396000D01*
X309150Y397000D02*
X330000Y397000D01*
X290790Y397000D02*
X286130Y397000D01*
X280812Y397000D02*
X272331Y397000D01*
X267013Y397000D02*
X263111Y397000D01*
X257793Y397000D02*
X249311Y397000D01*
X243993Y397000D02*
X240091Y397000D01*
X234773Y397000D02*
X226291Y397000D01*
X220973Y397000D02*
X206722Y397000D01*
X201404Y397000D02*
X190112Y397000D01*
X174934Y397000D02*
X171032Y397000D01*
X165714Y397000D02*
X148012Y397000D01*
X138173Y397000D02*
X128829Y397000D01*
X109712Y397000D02*
X102360Y397000D01*
X97042Y397000D02*
X89706Y397000D01*
X75285Y397000D02*
X51000Y397000D01*
X309150Y398000D02*
X330000Y398000D01*
X290032Y398000D02*
X286130Y398000D01*
X280570Y398000D02*
X272573Y398000D01*
X267013Y398000D02*
X263111Y398000D01*
X257793Y398000D02*
X249553Y398000D01*
X243993Y398000D02*
X240091Y398000D01*
X234530Y398000D02*
X226534Y398000D01*
X220973Y398000D02*
X206722Y398000D01*
X201404Y398000D02*
X189112Y398000D01*
X174934Y398000D02*
X171032Y398000D01*
X165472Y398000D02*
X148012Y398000D01*
X136673Y398000D02*
X128829Y398000D01*
X109712Y398000D02*
X102360Y398000D01*
X97042Y398000D02*
X90463Y398000D01*
X76285Y398000D02*
X51000Y398000D01*
X309150Y399000D02*
X330000Y399000D01*
X303832Y399000D02*
X296310Y399000D01*
X290032Y399000D02*
X286130Y399000D01*
X279570Y399000D02*
X273573Y399000D01*
X267013Y399000D02*
X263111Y399000D01*
X257793Y399000D02*
X250553Y399000D01*
X243993Y399000D02*
X240091Y399000D01*
X233530Y399000D02*
X227534Y399000D01*
X220973Y399000D02*
X206722Y399000D01*
X201404Y399000D02*
X181494Y399000D01*
X174934Y399000D02*
X171032Y399000D01*
X164472Y399000D02*
X148012Y399000D01*
X135173Y399000D02*
X128829Y399000D01*
X122269Y399000D02*
X116272Y399000D01*
X109712Y399000D02*
X102360Y399000D01*
X97042Y399000D02*
X90463Y399000D01*
X83903Y399000D02*
X51000Y399000D01*
X309150Y400000D02*
X330000Y400000D01*
X303832Y400000D02*
X295350Y400000D01*
X290032Y400000D02*
X286091Y400000D01*
X267052Y400000D02*
X263111Y400000D01*
X244033Y400000D02*
X240051Y400000D01*
X221013Y400000D02*
X206722Y400000D01*
X201404Y400000D02*
X189394Y400000D01*
X174974Y400000D02*
X170992Y400000D01*
X153122Y400000D02*
X148012Y400000D01*
X133673Y400000D02*
X128790Y400000D01*
X109751Y400000D02*
X104602Y400000D01*
X94799Y400000D02*
X90423Y400000D01*
X72553Y400000D02*
X51000Y400000D01*
X309150Y401000D02*
X330000Y401000D01*
X303832Y401000D02*
X295350Y401000D01*
X290032Y401000D02*
X285091Y401000D01*
X268052Y401000D02*
X263111Y401000D01*
X245033Y401000D02*
X239051Y401000D01*
X222013Y401000D02*
X206722Y401000D01*
X201404Y401000D02*
X190394Y401000D01*
X175974Y401000D02*
X169992Y401000D01*
X152122Y401000D02*
X148012Y401000D01*
X142694Y401000D02*
X141760Y401000D01*
X132554Y401000D02*
X127790Y401000D01*
X110751Y401000D02*
X105602Y401000D01*
X93799Y401000D02*
X89423Y401000D01*
X71553Y401000D02*
X51000Y401000D01*
X309150Y402000D02*
X330000Y402000D01*
X303832Y402000D02*
X295350Y402000D01*
X290032Y402000D02*
X284091Y402000D01*
X269052Y402000D02*
X263111Y402000D01*
X246033Y402000D02*
X238051Y402000D01*
X223013Y402000D02*
X206722Y402000D01*
X201404Y402000D02*
X190602Y402000D01*
X176974Y402000D02*
X168992Y402000D01*
X151914Y402000D02*
X148012Y402000D01*
X142694Y402000D02*
X140260Y402000D01*
X132354Y402000D02*
X126790Y402000D01*
X111751Y402000D02*
X105810Y402000D01*
X93592Y402000D02*
X88423Y402000D01*
X71346Y402000D02*
X51000Y402000D01*
X309150Y403000D02*
X330000Y403000D01*
X303832Y403000D02*
X295350Y403000D01*
X290032Y403000D02*
X283091Y403000D01*
X270052Y403000D02*
X263111Y403000D01*
X247033Y403000D02*
X237051Y403000D01*
X224013Y403000D02*
X206722Y403000D01*
X201404Y403000D02*
X190602Y403000D01*
X177974Y403000D02*
X167992Y403000D01*
X151914Y403000D02*
X148012Y403000D01*
X142694Y403000D02*
X138760Y403000D01*
X132269Y403000D02*
X125790Y403000D01*
X112751Y403000D02*
X105810Y403000D01*
X93592Y403000D02*
X87423Y403000D01*
X71346Y403000D02*
X51000Y403000D01*
X309150Y404000D02*
X330000Y404000D01*
X303832Y404000D02*
X295350Y404000D01*
X290032Y404000D02*
X282091Y404000D01*
X271052Y404000D02*
X263111Y404000D01*
X248033Y404000D02*
X236051Y404000D01*
X225013Y404000D02*
X206722Y404000D01*
X201404Y404000D02*
X190012Y404000D01*
X178974Y404000D02*
X166992Y404000D01*
X152504Y404000D02*
X148012Y404000D01*
X142694Y404000D02*
X137260Y404000D01*
X132935Y404000D02*
X124790Y404000D01*
X113751Y404000D02*
X105220Y404000D01*
X94182Y404000D02*
X86424Y404000D01*
X71935Y404000D02*
X51000Y404000D01*
X309150Y405000D02*
X330000Y405000D01*
X303832Y405000D02*
X295693Y405000D01*
X290032Y405000D02*
X263111Y405000D01*
X257793Y405000D02*
X206722Y405000D01*
X201404Y405000D02*
X148012Y405000D01*
X142694Y405000D02*
X135760Y405000D01*
X134901Y405000D02*
X102360Y405000D01*
X97042Y405000D02*
X51000Y405000D01*
X309150Y406000D02*
X330000Y406000D01*
X303832Y406000D02*
X296693Y406000D01*
X290032Y406000D02*
X263111Y406000D01*
X257793Y406000D02*
X206722Y406000D01*
X201404Y406000D02*
X148012Y406000D01*
X142694Y406000D02*
X102360Y406000D01*
X97042Y406000D02*
X51000Y406000D01*
X309150Y407000D02*
X330000Y407000D01*
X290172Y407000D02*
X263111Y407000D01*
X257793Y407000D02*
X209064Y407000D01*
X199061Y407000D02*
X148012Y407000D01*
X142694Y407000D02*
X102220Y407000D01*
X97182Y407000D02*
X51000Y407000D01*
X309150Y408000D02*
X330000Y408000D01*
X291172Y408000D02*
X263111Y408000D01*
X257793Y408000D02*
X210064Y408000D01*
X198061Y408000D02*
X148012Y408000D01*
X142694Y408000D02*
X101220Y408000D01*
X98182Y408000D02*
X51000Y408000D01*
X309150Y409000D02*
X330000Y409000D01*
X292172Y409000D02*
X263111Y409000D01*
X257793Y409000D02*
X210171Y409000D01*
X197954Y409000D02*
X148012Y409000D01*
X142694Y409000D02*
X51000Y409000D01*
X309150Y410000D02*
X330000Y410000D01*
X293172Y410000D02*
X263111Y410000D01*
X257793Y410000D02*
X210171Y410000D01*
X197954Y410000D02*
X148012Y410000D01*
X142694Y410000D02*
X51000Y410000D01*
X308460Y411000D02*
X330000Y411000D01*
X294172Y411000D02*
X262421Y411000D01*
X258483Y411000D02*
X209482Y411000D01*
X198644Y411000D02*
X147322Y411000D01*
X143384Y411000D02*
X51000Y411000D01*
X51000Y412000D02*
X330000Y412000D01*
X330000Y413000D02*
X51000Y413000D01*
X51000Y414000D02*
X330000Y414000D01*
X330000Y415000D02*
X51000Y415000D01*
X51000Y416000D02*
X330000Y416000D01*
X330000Y417000D02*
X51000Y417000D01*
X51000Y418000D02*
X330000Y418000D01*
D10*
X275875Y284763D02*
X275875Y275238D01*
D11*
X265614Y272888D02*
X265614Y266284D01*
X265614Y272888D02*
X263780Y272888D01*
X263695Y272886D01*
X263611Y272880D01*
X263527Y272870D01*
X263443Y272857D01*
X263360Y272839D01*
X263278Y272818D01*
X263197Y272793D01*
X263117Y272764D01*
X263039Y272732D01*
X262963Y272696D01*
X262888Y272656D01*
X262815Y272613D01*
X262744Y272567D01*
X262675Y272518D01*
X262608Y272465D01*
X262544Y272409D01*
X262483Y272351D01*
X262425Y272290D01*
X262369Y272226D01*
X262316Y272159D01*
X262267Y272090D01*
X262221Y272019D01*
X262178Y271946D01*
X262138Y271871D01*
X262102Y271795D01*
X262070Y271717D01*
X262041Y271637D01*
X262016Y271556D01*
X261995Y271474D01*
X261977Y271391D01*
X261964Y271307D01*
X261954Y271223D01*
X261948Y271139D01*
X261946Y271054D01*
X261945Y271054D02*
X261945Y268118D01*
X261946Y268118D02*
X261948Y268033D01*
X261954Y267949D01*
X261964Y267865D01*
X261977Y267781D01*
X261995Y267698D01*
X262016Y267616D01*
X262041Y267535D01*
X262070Y267455D01*
X262102Y267377D01*
X262138Y267301D01*
X262178Y267226D01*
X262221Y267153D01*
X262267Y267082D01*
X262316Y267013D01*
X262369Y266946D01*
X262425Y266882D01*
X262483Y266821D01*
X262544Y266763D01*
X262608Y266707D01*
X262675Y266654D01*
X262744Y266605D01*
X262815Y266559D01*
X262888Y266516D01*
X262963Y266476D01*
X263039Y266440D01*
X263117Y266408D01*
X263197Y266379D01*
X263278Y266354D01*
X263360Y266333D01*
X263443Y266315D01*
X263527Y266302D01*
X263611Y266292D01*
X263695Y266286D01*
X263780Y266284D01*
X265614Y266284D01*
X258055Y267752D02*
X256587Y272888D01*
X258055Y267752D02*
X254386Y267752D01*
X255487Y269219D02*
X255487Y266284D01*
X242238Y268388D02*
X240770Y266554D01*
X242238Y268388D02*
X235634Y268388D01*
X235634Y266554D02*
X235634Y270223D01*
X235634Y273326D02*
X236001Y273326D01*
X236001Y273692D01*
X235634Y273692D01*
X235634Y273326D01*
X237468Y276796D02*
X237553Y276798D01*
X237637Y276804D01*
X237721Y276814D01*
X237805Y276827D01*
X237888Y276845D01*
X237970Y276866D01*
X238051Y276891D01*
X238131Y276920D01*
X238209Y276952D01*
X238285Y276988D01*
X238360Y277028D01*
X238433Y277071D01*
X238504Y277117D01*
X238573Y277166D01*
X238640Y277219D01*
X238704Y277275D01*
X238765Y277333D01*
X238823Y277394D01*
X238879Y277458D01*
X238932Y277525D01*
X238981Y277594D01*
X239027Y277665D01*
X239070Y277738D01*
X239110Y277813D01*
X239146Y277889D01*
X239178Y277967D01*
X239207Y278047D01*
X239232Y278128D01*
X239253Y278210D01*
X239271Y278293D01*
X239284Y278377D01*
X239294Y278461D01*
X239300Y278545D01*
X239302Y278630D01*
X239300Y278715D01*
X239294Y278799D01*
X239284Y278883D01*
X239271Y278967D01*
X239253Y279050D01*
X239232Y279132D01*
X239207Y279213D01*
X239178Y279293D01*
X239146Y279371D01*
X239110Y279447D01*
X239070Y279522D01*
X239027Y279595D01*
X238981Y279666D01*
X238932Y279735D01*
X238879Y279802D01*
X238823Y279866D01*
X238765Y279927D01*
X238704Y279985D01*
X238640Y280041D01*
X238573Y280094D01*
X238504Y280143D01*
X238433Y280189D01*
X238360Y280232D01*
X238285Y280272D01*
X238209Y280308D01*
X238131Y280340D01*
X238051Y280369D01*
X237970Y280394D01*
X237888Y280415D01*
X237805Y280433D01*
X237721Y280446D01*
X237637Y280456D01*
X237553Y280462D01*
X237468Y280464D01*
X237383Y280462D01*
X237299Y280456D01*
X237215Y280446D01*
X237131Y280433D01*
X237048Y280415D01*
X236966Y280394D01*
X236885Y280369D01*
X236805Y280340D01*
X236727Y280308D01*
X236651Y280272D01*
X236576Y280232D01*
X236503Y280189D01*
X236432Y280143D01*
X236363Y280094D01*
X236296Y280041D01*
X236232Y279985D01*
X236171Y279927D01*
X236113Y279866D01*
X236057Y279802D01*
X236004Y279735D01*
X235955Y279666D01*
X235909Y279595D01*
X235866Y279522D01*
X235826Y279447D01*
X235790Y279371D01*
X235758Y279293D01*
X235729Y279213D01*
X235704Y279132D01*
X235683Y279050D01*
X235665Y278967D01*
X235652Y278883D01*
X235642Y278799D01*
X235636Y278715D01*
X235634Y278630D01*
X235636Y278545D01*
X235642Y278461D01*
X235652Y278377D01*
X235665Y278293D01*
X235683Y278210D01*
X235704Y278128D01*
X235729Y278047D01*
X235758Y277967D01*
X235790Y277889D01*
X235826Y277813D01*
X235866Y277738D01*
X235909Y277665D01*
X235955Y277594D01*
X236004Y277525D01*
X236057Y277458D01*
X236113Y277394D01*
X236171Y277333D01*
X236232Y277275D01*
X236296Y277219D01*
X236363Y277166D01*
X236432Y277117D01*
X236503Y277071D01*
X236576Y277028D01*
X236651Y276988D01*
X236727Y276952D01*
X236805Y276920D01*
X236885Y276891D01*
X236966Y276866D01*
X237048Y276845D01*
X237131Y276827D01*
X237215Y276814D01*
X237299Y276804D01*
X237383Y276798D01*
X237468Y276796D01*
X240770Y277162D02*
X240846Y277164D01*
X240921Y277170D01*
X240996Y277179D01*
X241070Y277193D01*
X241144Y277210D01*
X241216Y277232D01*
X241288Y277256D01*
X241358Y277285D01*
X241426Y277317D01*
X241493Y277352D01*
X241558Y277391D01*
X241621Y277434D01*
X241681Y277479D01*
X241739Y277527D01*
X241795Y277579D01*
X241847Y277633D01*
X241897Y277690D01*
X241944Y277749D01*
X241988Y277810D01*
X242029Y277874D01*
X242066Y277940D01*
X242100Y278008D01*
X242130Y278077D01*
X242157Y278148D01*
X242180Y278220D01*
X242199Y278293D01*
X242214Y278367D01*
X242226Y278442D01*
X242234Y278517D01*
X242238Y278592D01*
X242238Y278668D01*
X242234Y278743D01*
X242226Y278818D01*
X242214Y278893D01*
X242199Y278967D01*
X242180Y279040D01*
X242157Y279112D01*
X242130Y279183D01*
X242100Y279252D01*
X242066Y279320D01*
X242029Y279386D01*
X241988Y279450D01*
X241944Y279511D01*
X241897Y279570D01*
X241847Y279627D01*
X241795Y279681D01*
X241739Y279733D01*
X241681Y279781D01*
X241621Y279826D01*
X241558Y279869D01*
X241493Y279908D01*
X241426Y279943D01*
X241358Y279975D01*
X241288Y280004D01*
X241216Y280028D01*
X241144Y280050D01*
X241070Y280067D01*
X240996Y280081D01*
X240921Y280090D01*
X240846Y280096D01*
X240770Y280098D01*
X240694Y280096D01*
X240619Y280090D01*
X240544Y280081D01*
X240470Y280067D01*
X240396Y280050D01*
X240324Y280028D01*
X240252Y280004D01*
X240182Y279975D01*
X240114Y279943D01*
X240047Y279908D01*
X239982Y279869D01*
X239919Y279826D01*
X239859Y279781D01*
X239801Y279733D01*
X239745Y279681D01*
X239693Y279627D01*
X239643Y279570D01*
X239596Y279511D01*
X239552Y279450D01*
X239511Y279386D01*
X239474Y279320D01*
X239440Y279252D01*
X239410Y279183D01*
X239383Y279112D01*
X239360Y279040D01*
X239341Y278967D01*
X239326Y278893D01*
X239314Y278818D01*
X239306Y278743D01*
X239302Y278668D01*
X239302Y278592D01*
X239306Y278517D01*
X239314Y278442D01*
X239326Y278367D01*
X239341Y278293D01*
X239360Y278220D01*
X239383Y278148D01*
X239410Y278077D01*
X239440Y278008D01*
X239474Y277940D01*
X239511Y277874D01*
X239552Y277810D01*
X239596Y277749D01*
X239643Y277690D01*
X239693Y277633D01*
X239745Y277579D01*
X239801Y277527D01*
X239859Y277479D01*
X239919Y277434D01*
X239982Y277391D01*
X240047Y277352D01*
X240114Y277317D01*
X240182Y277285D01*
X240252Y277256D01*
X240324Y277232D01*
X240396Y277210D01*
X240470Y277193D01*
X240544Y277179D01*
X240619Y277170D01*
X240694Y277164D01*
X240770Y277162D01*
X242238Y283743D02*
X235634Y285945D01*
X242238Y288146D01*
D10*
X214000Y261000D02*
X164000Y261000D01*
X164000Y220000D01*
X164000Y211000D01*
X173000Y211000D01*
X214000Y211000D01*
X214000Y261000D01*
X164000Y220000D02*
X173000Y211000D01*
X176000Y208000D01*
X172000Y204000D01*
X164000Y211000D01*
X171795Y236000D02*
X171800Y236422D01*
X171816Y236844D01*
X171842Y237266D01*
X171878Y237686D01*
X171924Y238106D01*
X171981Y238524D01*
X172048Y238941D01*
X172126Y239357D01*
X172213Y239770D01*
X172311Y240180D01*
X172418Y240589D01*
X172536Y240994D01*
X172663Y241397D01*
X172801Y241796D01*
X172948Y242192D01*
X173105Y242584D01*
X173271Y242972D01*
X173447Y243356D01*
X173632Y243736D01*
X173827Y244110D01*
X174030Y244480D01*
X174243Y244845D01*
X174464Y245205D01*
X174695Y245559D01*
X174933Y245907D01*
X175181Y246249D01*
X175436Y246585D01*
X175700Y246915D01*
X175972Y247238D01*
X176252Y247554D01*
X176539Y247864D01*
X176834Y248166D01*
X177136Y248461D01*
X177446Y248748D01*
X177762Y249028D01*
X178085Y249300D01*
X178415Y249564D01*
X178751Y249819D01*
X179093Y250067D01*
X179441Y250305D01*
X179795Y250536D01*
X180155Y250757D01*
X180520Y250970D01*
X180890Y251173D01*
X181264Y251368D01*
X181644Y251553D01*
X182028Y251729D01*
X182416Y251895D01*
X182808Y252052D01*
X183204Y252199D01*
X183603Y252337D01*
X184006Y252464D01*
X184411Y252582D01*
X184820Y252689D01*
X185230Y252787D01*
X185643Y252874D01*
X186059Y252952D01*
X186476Y253019D01*
X186894Y253076D01*
X187314Y253122D01*
X187734Y253158D01*
X188156Y253184D01*
X188578Y253200D01*
X189000Y253205D01*
X189422Y253200D01*
X189844Y253184D01*
X190266Y253158D01*
X190686Y253122D01*
X191106Y253076D01*
X191524Y253019D01*
X191941Y252952D01*
X192357Y252874D01*
X192770Y252787D01*
X193180Y252689D01*
X193589Y252582D01*
X193994Y252464D01*
X194397Y252337D01*
X194796Y252199D01*
X195192Y252052D01*
X195584Y251895D01*
X195972Y251729D01*
X196356Y251553D01*
X196736Y251368D01*
X197110Y251173D01*
X197480Y250970D01*
X197845Y250757D01*
X198205Y250536D01*
X198559Y250305D01*
X198907Y250067D01*
X199249Y249819D01*
X199585Y249564D01*
X199915Y249300D01*
X200238Y249028D01*
X200554Y248748D01*
X200864Y248461D01*
X201166Y248166D01*
X201461Y247864D01*
X201748Y247554D01*
X202028Y247238D01*
X202300Y246915D01*
X202564Y246585D01*
X202819Y246249D01*
X203067Y245907D01*
X203305Y245559D01*
X203536Y245205D01*
X203757Y244845D01*
X203970Y244480D01*
X204173Y244110D01*
X204368Y243736D01*
X204553Y243356D01*
X204729Y242972D01*
X204895Y242584D01*
X205052Y242192D01*
X205199Y241796D01*
X205337Y241397D01*
X205464Y240994D01*
X205582Y240589D01*
X205689Y240180D01*
X205787Y239770D01*
X205874Y239357D01*
X205952Y238941D01*
X206019Y238524D01*
X206076Y238106D01*
X206122Y237686D01*
X206158Y237266D01*
X206184Y236844D01*
X206200Y236422D01*
X206205Y236000D01*
X206200Y235578D01*
X206184Y235156D01*
X206158Y234734D01*
X206122Y234314D01*
X206076Y233894D01*
X206019Y233476D01*
X205952Y233059D01*
X205874Y232643D01*
X205787Y232230D01*
X205689Y231820D01*
X205582Y231411D01*
X205464Y231006D01*
X205337Y230603D01*
X205199Y230204D01*
X205052Y229808D01*
X204895Y229416D01*
X204729Y229028D01*
X204553Y228644D01*
X204368Y228264D01*
X204173Y227890D01*
X203970Y227520D01*
X203757Y227155D01*
X203536Y226795D01*
X203305Y226441D01*
X203067Y226093D01*
X202819Y225751D01*
X202564Y225415D01*
X202300Y225085D01*
X202028Y224762D01*
X201748Y224446D01*
X201461Y224136D01*
X201166Y223834D01*
X200864Y223539D01*
X200554Y223252D01*
X200238Y222972D01*
X199915Y222700D01*
X199585Y222436D01*
X199249Y222181D01*
X198907Y221933D01*
X198559Y221695D01*
X198205Y221464D01*
X197845Y221243D01*
X197480Y221030D01*
X197110Y220827D01*
X196736Y220632D01*
X196356Y220447D01*
X195972Y220271D01*
X195584Y220105D01*
X195192Y219948D01*
X194796Y219801D01*
X194397Y219663D01*
X193994Y219536D01*
X193589Y219418D01*
X193180Y219311D01*
X192770Y219213D01*
X192357Y219126D01*
X191941Y219048D01*
X191524Y218981D01*
X191106Y218924D01*
X190686Y218878D01*
X190266Y218842D01*
X189844Y218816D01*
X189422Y218800D01*
X189000Y218795D01*
X188578Y218800D01*
X188156Y218816D01*
X187734Y218842D01*
X187314Y218878D01*
X186894Y218924D01*
X186476Y218981D01*
X186059Y219048D01*
X185643Y219126D01*
X185230Y219213D01*
X184820Y219311D01*
X184411Y219418D01*
X184006Y219536D01*
X183603Y219663D01*
X183204Y219801D01*
X182808Y219948D01*
X182416Y220105D01*
X182028Y220271D01*
X181644Y220447D01*
X181264Y220632D01*
X180890Y220827D01*
X180520Y221030D01*
X180155Y221243D01*
X179795Y221464D01*
X179441Y221695D01*
X179093Y221933D01*
X178751Y222181D01*
X178415Y222436D01*
X178085Y222700D01*
X177762Y222972D01*
X177446Y223252D01*
X177136Y223539D01*
X176834Y223834D01*
X176539Y224136D01*
X176252Y224446D01*
X175972Y224762D01*
X175700Y225085D01*
X175436Y225415D01*
X175181Y225751D01*
X174933Y226093D01*
X174695Y226441D01*
X174464Y226795D01*
X174243Y227155D01*
X174030Y227520D01*
X173827Y227890D01*
X173632Y228264D01*
X173447Y228644D01*
X173271Y229028D01*
X173105Y229416D01*
X172948Y229808D01*
X172801Y230204D01*
X172663Y230603D01*
X172536Y231006D01*
X172418Y231411D01*
X172311Y231820D01*
X172213Y232230D01*
X172126Y232643D01*
X172048Y233059D01*
X171981Y233476D01*
X171924Y233894D01*
X171878Y234314D01*
X171842Y234734D01*
X171816Y235156D01*
X171800Y235578D01*
X171795Y236000D01*
D13*
X224306Y220506D02*
X231672Y220506D01*
X224306Y220506D02*
X224306Y223780D01*
X224306Y226846D02*
X224306Y230120D01*
X224306Y226846D02*
X231672Y226846D01*
X231672Y230120D01*
X228398Y229301D02*
X228398Y226846D01*
X231672Y233170D02*
X224306Y233170D01*
X231672Y233170D02*
X231672Y235216D01*
X231670Y235305D01*
X231664Y235394D01*
X231654Y235483D01*
X231641Y235571D01*
X231624Y235659D01*
X231602Y235746D01*
X231577Y235831D01*
X231549Y235916D01*
X231516Y235999D01*
X231480Y236081D01*
X231441Y236161D01*
X231398Y236239D01*
X231352Y236315D01*
X231302Y236390D01*
X231249Y236462D01*
X231193Y236531D01*
X231134Y236598D01*
X231073Y236663D01*
X231008Y236724D01*
X230941Y236783D01*
X230872Y236839D01*
X230800Y236892D01*
X230725Y236942D01*
X230649Y236988D01*
X230571Y237031D01*
X230491Y237070D01*
X230409Y237106D01*
X230326Y237139D01*
X230241Y237167D01*
X230156Y237192D01*
X230069Y237214D01*
X229981Y237231D01*
X229893Y237244D01*
X229804Y237254D01*
X229715Y237260D01*
X229626Y237262D01*
X226352Y237262D01*
X226263Y237260D01*
X226174Y237254D01*
X226085Y237244D01*
X225997Y237231D01*
X225909Y237214D01*
X225822Y237192D01*
X225737Y237167D01*
X225652Y237139D01*
X225569Y237106D01*
X225487Y237070D01*
X225407Y237031D01*
X225329Y236988D01*
X225253Y236942D01*
X225178Y236892D01*
X225106Y236839D01*
X225037Y236783D01*
X224970Y236724D01*
X224905Y236663D01*
X224844Y236598D01*
X224785Y236531D01*
X224729Y236462D01*
X224676Y236390D01*
X224626Y236315D01*
X224580Y236239D01*
X224537Y236161D01*
X224498Y236081D01*
X224462Y235999D01*
X224429Y235916D01*
X224401Y235831D01*
X224376Y235746D01*
X224354Y235659D01*
X224337Y235571D01*
X224324Y235483D01*
X224314Y235394D01*
X224308Y235305D01*
X224306Y235216D01*
X224306Y233170D01*
X230035Y240729D02*
X231672Y242775D01*
X224306Y242775D01*
X224306Y240729D02*
X224306Y244821D01*
D14*
X98700Y35300D02*
X98702Y35409D01*
X98708Y35518D01*
X98718Y35626D01*
X98732Y35734D01*
X98749Y35842D01*
X98771Y35949D01*
X98796Y36055D01*
X98826Y36159D01*
X98859Y36263D01*
X98896Y36366D01*
X98936Y36467D01*
X98980Y36566D01*
X99028Y36664D01*
X99080Y36761D01*
X99134Y36855D01*
X99192Y36947D01*
X99254Y37037D01*
X99319Y37124D01*
X99386Y37210D01*
X99457Y37293D01*
X99531Y37373D01*
X99608Y37450D01*
X99687Y37525D01*
X99769Y37596D01*
X99854Y37665D01*
X99941Y37730D01*
X100030Y37793D01*
X100122Y37851D01*
X100216Y37907D01*
X100311Y37959D01*
X100409Y38008D01*
X100508Y38053D01*
X100609Y38095D01*
X100711Y38132D01*
X100814Y38166D01*
X100919Y38197D01*
X101025Y38223D01*
X101131Y38246D01*
X101239Y38264D01*
X101347Y38279D01*
X101455Y38290D01*
X101564Y38297D01*
X101673Y38300D01*
X101782Y38299D01*
X101891Y38294D01*
X101999Y38285D01*
X102107Y38272D01*
X102215Y38255D01*
X102322Y38235D01*
X102428Y38210D01*
X102533Y38182D01*
X102637Y38150D01*
X102740Y38114D01*
X102842Y38074D01*
X102942Y38031D01*
X103040Y37984D01*
X103137Y37934D01*
X103231Y37880D01*
X103324Y37822D01*
X103415Y37762D01*
X103503Y37698D01*
X103589Y37631D01*
X103672Y37561D01*
X103753Y37488D01*
X103831Y37412D01*
X103906Y37333D01*
X103979Y37251D01*
X104048Y37167D01*
X104114Y37081D01*
X104177Y36992D01*
X104237Y36901D01*
X104294Y36808D01*
X104347Y36713D01*
X104396Y36616D01*
X104442Y36517D01*
X104484Y36417D01*
X104523Y36315D01*
X104558Y36211D01*
X104589Y36107D01*
X104617Y36002D01*
X104640Y35895D01*
X104660Y35788D01*
X104676Y35680D01*
X104688Y35572D01*
X104696Y35463D01*
X104700Y35354D01*
X104700Y35246D01*
X104696Y35137D01*
X104688Y35028D01*
X104676Y34920D01*
X104660Y34812D01*
X104640Y34705D01*
X104617Y34598D01*
X104589Y34493D01*
X104558Y34389D01*
X104523Y34285D01*
X104484Y34183D01*
X104442Y34083D01*
X104396Y33984D01*
X104347Y33887D01*
X104294Y33792D01*
X104237Y33699D01*
X104177Y33608D01*
X104114Y33519D01*
X104048Y33433D01*
X103979Y33349D01*
X103906Y33267D01*
X103831Y33188D01*
X103753Y33112D01*
X103672Y33039D01*
X103589Y32969D01*
X103503Y32902D01*
X103415Y32838D01*
X103324Y32778D01*
X103231Y32720D01*
X103137Y32666D01*
X103040Y32616D01*
X102942Y32569D01*
X102842Y32526D01*
X102740Y32486D01*
X102637Y32450D01*
X102533Y32418D01*
X102428Y32390D01*
X102322Y32365D01*
X102215Y32345D01*
X102107Y32328D01*
X101999Y32315D01*
X101891Y32306D01*
X101782Y32301D01*
X101673Y32300D01*
X101564Y32303D01*
X101455Y32310D01*
X101347Y32321D01*
X101239Y32336D01*
X101131Y32354D01*
X101025Y32377D01*
X100919Y32403D01*
X100814Y32434D01*
X100711Y32468D01*
X100609Y32505D01*
X100508Y32547D01*
X100409Y32592D01*
X100311Y32641D01*
X100216Y32693D01*
X100122Y32749D01*
X100030Y32807D01*
X99941Y32870D01*
X99854Y32935D01*
X99769Y33004D01*
X99687Y33075D01*
X99608Y33150D01*
X99531Y33227D01*
X99457Y33307D01*
X99386Y33390D01*
X99319Y33476D01*
X99254Y33563D01*
X99192Y33653D01*
X99134Y33745D01*
X99080Y33839D01*
X99028Y33936D01*
X98980Y34034D01*
X98936Y34133D01*
X98896Y34234D01*
X98859Y34337D01*
X98826Y34441D01*
X98796Y34545D01*
X98771Y34651D01*
X98749Y34758D01*
X98732Y34866D01*
X98718Y34974D01*
X98708Y35082D01*
X98702Y35191D01*
X98700Y35300D01*
D10*
X271000Y195000D02*
X271000Y199000D01*
X109000Y199000D01*
X109000Y195000D01*
X271000Y41000D02*
X271000Y37000D01*
X109000Y37000D01*
X109000Y41000D01*
D15*
X270857Y32557D02*
X270857Y25036D01*
X270855Y24929D01*
X270849Y24822D01*
X270839Y24716D01*
X270825Y24610D01*
X270808Y24504D01*
X270786Y24400D01*
X270761Y24296D01*
X270731Y24193D01*
X270698Y24091D01*
X270662Y23991D01*
X270621Y23892D01*
X270577Y23795D01*
X270529Y23699D01*
X270478Y23605D01*
X270424Y23513D01*
X270366Y23423D01*
X270304Y23336D01*
X270240Y23250D01*
X270173Y23167D01*
X270102Y23087D01*
X270028Y23009D01*
X269952Y22934D01*
X269873Y22862D01*
X269792Y22793D01*
X269707Y22727D01*
X269621Y22664D01*
X269532Y22605D01*
X269441Y22549D01*
X269348Y22496D01*
X269254Y22446D01*
X269157Y22400D01*
X269059Y22358D01*
X268959Y22320D01*
X268858Y22285D01*
X268756Y22253D01*
X268652Y22226D01*
X268548Y22203D01*
X268443Y22183D01*
X268337Y22167D01*
X268231Y22155D01*
X268124Y22147D01*
X268017Y22143D01*
X267911Y22143D01*
X267804Y22147D01*
X267697Y22155D01*
X267591Y22167D01*
X267485Y22183D01*
X267380Y22203D01*
X267276Y22226D01*
X267172Y22253D01*
X267070Y22285D01*
X266969Y22320D01*
X266869Y22358D01*
X266771Y22400D01*
X266674Y22446D01*
X266580Y22496D01*
X266487Y22549D01*
X266396Y22605D01*
X266307Y22664D01*
X266221Y22727D01*
X266136Y22793D01*
X266055Y22862D01*
X265976Y22934D01*
X265900Y23009D01*
X265826Y23087D01*
X265755Y23167D01*
X265688Y23250D01*
X265624Y23336D01*
X265562Y23423D01*
X265504Y23513D01*
X265450Y23605D01*
X265399Y23699D01*
X265351Y23795D01*
X265307Y23892D01*
X265266Y23991D01*
X265230Y24091D01*
X265197Y24193D01*
X265167Y24296D01*
X265142Y24400D01*
X265120Y24504D01*
X265103Y24610D01*
X265089Y24716D01*
X265079Y24822D01*
X265073Y24929D01*
X265071Y25036D01*
X265071Y32557D01*
X256732Y32557D02*
X259046Y24457D01*
X253261Y24457D01*
X254996Y26771D02*
X254996Y22143D01*
D11*
X68014Y55567D02*
X68014Y57035D01*
X68014Y55567D02*
X68016Y55493D01*
X68022Y55418D01*
X68031Y55345D01*
X68044Y55271D01*
X68061Y55199D01*
X68081Y55128D01*
X68105Y55057D01*
X68133Y54988D01*
X68164Y54921D01*
X68198Y54855D01*
X68236Y54790D01*
X68277Y54728D01*
X68321Y54668D01*
X68368Y54611D01*
X68418Y54556D01*
X68471Y54503D01*
X68526Y54453D01*
X68583Y54406D01*
X68643Y54362D01*
X68705Y54321D01*
X68770Y54283D01*
X68836Y54249D01*
X68903Y54218D01*
X68972Y54190D01*
X69043Y54166D01*
X69114Y54146D01*
X69186Y54129D01*
X69260Y54116D01*
X69333Y54107D01*
X69408Y54101D01*
X69482Y54099D01*
X69482Y54100D02*
X73150Y54100D01*
X73150Y54099D02*
X73224Y54101D01*
X73299Y54107D01*
X73372Y54116D01*
X73446Y54129D01*
X73518Y54146D01*
X73589Y54166D01*
X73660Y54190D01*
X73729Y54218D01*
X73796Y54249D01*
X73862Y54283D01*
X73927Y54321D01*
X73989Y54362D01*
X74049Y54406D01*
X74106Y54453D01*
X74161Y54503D01*
X74214Y54556D01*
X74264Y54611D01*
X74311Y54668D01*
X74355Y54728D01*
X74396Y54790D01*
X74434Y54855D01*
X74468Y54920D01*
X74499Y54988D01*
X74527Y55057D01*
X74551Y55128D01*
X74571Y55199D01*
X74588Y55271D01*
X74601Y55345D01*
X74610Y55418D01*
X74616Y55493D01*
X74618Y55567D01*
X74618Y57035D01*
X74618Y61699D02*
X69482Y60231D01*
X69482Y63900D01*
X70949Y62800D02*
X68014Y62800D01*
X24000Y330000D02*
X-136000Y330000D01*
X-136000Y430000D01*
X24000Y430000D01*
X24000Y330000D01*
D13*
X30381Y336381D02*
X39779Y336381D01*
X39779Y338992D01*
X39777Y339093D01*
X39771Y339194D01*
X39761Y339295D01*
X39748Y339395D01*
X39730Y339495D01*
X39709Y339594D01*
X39683Y339692D01*
X39654Y339789D01*
X39622Y339885D01*
X39585Y339979D01*
X39545Y340072D01*
X39501Y340164D01*
X39454Y340253D01*
X39403Y340341D01*
X39349Y340427D01*
X39292Y340510D01*
X39232Y340592D01*
X39168Y340670D01*
X39102Y340747D01*
X39032Y340820D01*
X38960Y340891D01*
X38885Y340959D01*
X38807Y341024D01*
X38727Y341086D01*
X38645Y341145D01*
X38560Y341201D01*
X38474Y341253D01*
X38385Y341302D01*
X38294Y341348D01*
X38202Y341389D01*
X38108Y341428D01*
X38013Y341462D01*
X37917Y341493D01*
X37819Y341520D01*
X37721Y341544D01*
X37621Y341563D01*
X37521Y341579D01*
X37421Y341591D01*
X37320Y341599D01*
X37219Y341603D01*
X37117Y341603D01*
X37016Y341599D01*
X36915Y341591D01*
X36815Y341579D01*
X36715Y341563D01*
X36615Y341544D01*
X36517Y341520D01*
X36419Y341493D01*
X36323Y341462D01*
X36228Y341428D01*
X36134Y341389D01*
X36042Y341348D01*
X35951Y341302D01*
X35863Y341253D01*
X35776Y341201D01*
X35691Y341145D01*
X35609Y341086D01*
X35529Y341024D01*
X35451Y340959D01*
X35376Y340891D01*
X35304Y340820D01*
X35234Y340747D01*
X35168Y340670D01*
X35104Y340592D01*
X35044Y340510D01*
X34987Y340427D01*
X34933Y340341D01*
X34882Y340253D01*
X34835Y340164D01*
X34791Y340072D01*
X34751Y339979D01*
X34714Y339885D01*
X34682Y339789D01*
X34653Y339692D01*
X34627Y339594D01*
X34606Y339495D01*
X34588Y339395D01*
X34575Y339295D01*
X34565Y339194D01*
X34559Y339093D01*
X34557Y338992D01*
X34558Y338992D02*
X34558Y336381D01*
X32992Y345089D02*
X37168Y345089D01*
X37168Y345088D02*
X37269Y345090D01*
X37370Y345096D01*
X37471Y345106D01*
X37571Y345119D01*
X37671Y345137D01*
X37770Y345158D01*
X37868Y345184D01*
X37965Y345213D01*
X38061Y345245D01*
X38155Y345282D01*
X38248Y345322D01*
X38340Y345366D01*
X38429Y345413D01*
X38517Y345464D01*
X38603Y345518D01*
X38686Y345575D01*
X38768Y345635D01*
X38846Y345699D01*
X38923Y345765D01*
X38996Y345835D01*
X39067Y345907D01*
X39135Y345982D01*
X39200Y346060D01*
X39262Y346140D01*
X39321Y346222D01*
X39377Y346307D01*
X39429Y346394D01*
X39478Y346482D01*
X39524Y346573D01*
X39565Y346665D01*
X39604Y346759D01*
X39638Y346854D01*
X39669Y346950D01*
X39696Y347048D01*
X39720Y347146D01*
X39739Y347246D01*
X39755Y347346D01*
X39767Y347446D01*
X39775Y347547D01*
X39779Y347648D01*
X39779Y347750D01*
X39775Y347851D01*
X39767Y347952D01*
X39755Y348052D01*
X39739Y348152D01*
X39720Y348252D01*
X39696Y348350D01*
X39669Y348448D01*
X39638Y348544D01*
X39604Y348639D01*
X39565Y348733D01*
X39524Y348825D01*
X39478Y348916D01*
X39429Y349004D01*
X39377Y349091D01*
X39321Y349176D01*
X39262Y349258D01*
X39200Y349338D01*
X39135Y349416D01*
X39067Y349491D01*
X38996Y349563D01*
X38923Y349633D01*
X38846Y349699D01*
X38768Y349763D01*
X38686Y349823D01*
X38603Y349880D01*
X38517Y349934D01*
X38429Y349985D01*
X38340Y350032D01*
X38248Y350076D01*
X38155Y350116D01*
X38061Y350153D01*
X37965Y350185D01*
X37868Y350214D01*
X37770Y350240D01*
X37671Y350261D01*
X37571Y350279D01*
X37471Y350292D01*
X37370Y350302D01*
X37269Y350308D01*
X37168Y350310D01*
X32992Y350310D01*
X32891Y350308D01*
X32790Y350302D01*
X32689Y350292D01*
X32589Y350279D01*
X32489Y350261D01*
X32390Y350240D01*
X32292Y350214D01*
X32195Y350185D01*
X32099Y350153D01*
X32005Y350116D01*
X31912Y350076D01*
X31820Y350032D01*
X31731Y349985D01*
X31643Y349934D01*
X31557Y349880D01*
X31474Y349823D01*
X31392Y349763D01*
X31314Y349699D01*
X31237Y349633D01*
X31164Y349563D01*
X31093Y349491D01*
X31025Y349416D01*
X30960Y349338D01*
X30898Y349258D01*
X30839Y349176D01*
X30783Y349091D01*
X30731Y349005D01*
X30682Y348916D01*
X30636Y348825D01*
X30595Y348733D01*
X30556Y348639D01*
X30522Y348544D01*
X30491Y348448D01*
X30464Y348350D01*
X30440Y348252D01*
X30421Y348152D01*
X30405Y348052D01*
X30393Y347952D01*
X30385Y347851D01*
X30381Y347750D01*
X30381Y347648D01*
X30385Y347547D01*
X30393Y347446D01*
X30405Y347346D01*
X30421Y347246D01*
X30440Y347146D01*
X30464Y347048D01*
X30491Y346950D01*
X30522Y346854D01*
X30556Y346759D01*
X30595Y346665D01*
X30636Y346573D01*
X30682Y346482D01*
X30731Y346394D01*
X30783Y346307D01*
X30839Y346222D01*
X30898Y346140D01*
X30960Y346060D01*
X31025Y345982D01*
X31093Y345907D01*
X31164Y345835D01*
X31237Y345765D01*
X31314Y345699D01*
X31392Y345635D01*
X31474Y345575D01*
X31557Y345518D01*
X31643Y345464D01*
X31731Y345413D01*
X31820Y345366D01*
X31912Y345322D01*
X32005Y345282D01*
X32099Y345245D01*
X32195Y345213D01*
X32292Y345184D01*
X32390Y345158D01*
X32489Y345137D01*
X32589Y345119D01*
X32689Y345106D01*
X32790Y345096D01*
X32891Y345090D01*
X32992Y345088D01*
X39779Y353886D02*
X30381Y355974D01*
X36646Y358063D01*
X30381Y360151D01*
X39779Y362240D01*
X30381Y366138D02*
X30381Y370314D01*
X30381Y366138D02*
X39779Y366138D01*
X39779Y370314D01*
X35602Y369270D02*
X35602Y366138D01*
X39779Y374102D02*
X30381Y374102D01*
X39779Y374102D02*
X39779Y376712D01*
X39777Y376813D01*
X39771Y376914D01*
X39761Y377015D01*
X39748Y377115D01*
X39730Y377215D01*
X39709Y377314D01*
X39683Y377412D01*
X39654Y377509D01*
X39622Y377605D01*
X39585Y377699D01*
X39545Y377792D01*
X39501Y377884D01*
X39454Y377973D01*
X39403Y378061D01*
X39349Y378147D01*
X39292Y378230D01*
X39232Y378312D01*
X39168Y378390D01*
X39102Y378467D01*
X39032Y378540D01*
X38960Y378611D01*
X38885Y378679D01*
X38807Y378744D01*
X38727Y378806D01*
X38645Y378865D01*
X38560Y378921D01*
X38474Y378973D01*
X38385Y379022D01*
X38294Y379068D01*
X38202Y379109D01*
X38108Y379148D01*
X38013Y379182D01*
X37917Y379213D01*
X37819Y379240D01*
X37721Y379264D01*
X37621Y379283D01*
X37521Y379299D01*
X37421Y379311D01*
X37320Y379319D01*
X37219Y379323D01*
X37117Y379323D01*
X37016Y379319D01*
X36915Y379311D01*
X36815Y379299D01*
X36715Y379283D01*
X36615Y379264D01*
X36517Y379240D01*
X36419Y379213D01*
X36323Y379182D01*
X36228Y379148D01*
X36134Y379109D01*
X36042Y379068D01*
X35951Y379022D01*
X35863Y378973D01*
X35776Y378921D01*
X35691Y378865D01*
X35609Y378806D01*
X35529Y378744D01*
X35451Y378679D01*
X35376Y378611D01*
X35304Y378540D01*
X35234Y378467D01*
X35168Y378390D01*
X35104Y378312D01*
X35044Y378230D01*
X34987Y378147D01*
X34933Y378061D01*
X34882Y377973D01*
X34835Y377884D01*
X34791Y377792D01*
X34751Y377699D01*
X34714Y377605D01*
X34682Y377509D01*
X34653Y377412D01*
X34627Y377314D01*
X34606Y377215D01*
X34588Y377115D01*
X34575Y377015D01*
X34565Y376914D01*
X34559Y376813D01*
X34557Y376712D01*
X34558Y376712D02*
X34558Y374102D01*
X34558Y377235D02*
X30381Y379323D01*
X29337Y382796D02*
X29337Y386973D01*
X30381Y392567D02*
X30381Y394655D01*
X30381Y392567D02*
X30383Y392478D01*
X30389Y392390D01*
X30398Y392302D01*
X30411Y392214D01*
X30428Y392127D01*
X30448Y392041D01*
X30473Y391956D01*
X30500Y391871D01*
X30532Y391788D01*
X30566Y391707D01*
X30605Y391627D01*
X30646Y391549D01*
X30691Y391472D01*
X30739Y391398D01*
X30790Y391325D01*
X30844Y391255D01*
X30902Y391188D01*
X30962Y391122D01*
X31024Y391060D01*
X31090Y391000D01*
X31157Y390942D01*
X31227Y390888D01*
X31300Y390837D01*
X31374Y390789D01*
X31451Y390744D01*
X31529Y390703D01*
X31609Y390664D01*
X31690Y390630D01*
X31773Y390598D01*
X31858Y390571D01*
X31943Y390546D01*
X32029Y390526D01*
X32116Y390509D01*
X32204Y390496D01*
X32292Y390487D01*
X32380Y390481D01*
X32469Y390479D01*
X32469Y390478D02*
X37691Y390478D01*
X37691Y390479D02*
X37782Y390481D01*
X37873Y390487D01*
X37964Y390497D01*
X38054Y390511D01*
X38143Y390528D01*
X38231Y390550D01*
X38319Y390576D01*
X38405Y390605D01*
X38490Y390638D01*
X38573Y390675D01*
X38655Y390715D01*
X38735Y390759D01*
X38813Y390806D01*
X38889Y390857D01*
X38962Y390910D01*
X39033Y390967D01*
X39102Y391028D01*
X39167Y391091D01*
X39230Y391156D01*
X39290Y391225D01*
X39348Y391296D01*
X39401Y391369D01*
X39452Y391445D01*
X39499Y391523D01*
X39543Y391603D01*
X39583Y391685D01*
X39620Y391768D01*
X39653Y391853D01*
X39682Y391939D01*
X39708Y392027D01*
X39730Y392115D01*
X39747Y392204D01*
X39761Y392294D01*
X39771Y392385D01*
X39777Y392476D01*
X39779Y392567D01*
X39779Y394655D01*
X37168Y398124D02*
X32992Y398124D01*
X37168Y398123D02*
X37269Y398125D01*
X37370Y398131D01*
X37471Y398141D01*
X37571Y398154D01*
X37671Y398172D01*
X37770Y398193D01*
X37868Y398219D01*
X37965Y398248D01*
X38061Y398280D01*
X38155Y398317D01*
X38248Y398357D01*
X38340Y398401D01*
X38429Y398448D01*
X38517Y398499D01*
X38603Y398553D01*
X38686Y398610D01*
X38768Y398670D01*
X38846Y398734D01*
X38923Y398800D01*
X38996Y398870D01*
X39067Y398942D01*
X39135Y399017D01*
X39200Y399095D01*
X39262Y399175D01*
X39321Y399257D01*
X39377Y399342D01*
X39429Y399429D01*
X39478Y399517D01*
X39524Y399608D01*
X39565Y399700D01*
X39604Y399794D01*
X39638Y399889D01*
X39669Y399985D01*
X39696Y400083D01*
X39720Y400181D01*
X39739Y400281D01*
X39755Y400381D01*
X39767Y400481D01*
X39775Y400582D01*
X39779Y400683D01*
X39779Y400785D01*
X39775Y400886D01*
X39767Y400987D01*
X39755Y401087D01*
X39739Y401187D01*
X39720Y401287D01*
X39696Y401385D01*
X39669Y401483D01*
X39638Y401579D01*
X39604Y401674D01*
X39565Y401768D01*
X39524Y401860D01*
X39478Y401951D01*
X39429Y402039D01*
X39377Y402126D01*
X39321Y402211D01*
X39262Y402293D01*
X39200Y402373D01*
X39135Y402451D01*
X39067Y402526D01*
X38996Y402598D01*
X38923Y402668D01*
X38846Y402734D01*
X38768Y402798D01*
X38686Y402858D01*
X38603Y402915D01*
X38517Y402969D01*
X38429Y403020D01*
X38340Y403067D01*
X38248Y403111D01*
X38155Y403151D01*
X38061Y403188D01*
X37965Y403220D01*
X37868Y403249D01*
X37770Y403275D01*
X37671Y403296D01*
X37571Y403314D01*
X37471Y403327D01*
X37370Y403337D01*
X37269Y403343D01*
X37168Y403345D01*
X32992Y403345D01*
X32891Y403343D01*
X32790Y403337D01*
X32689Y403327D01*
X32589Y403314D01*
X32489Y403296D01*
X32390Y403275D01*
X32292Y403249D01*
X32195Y403220D01*
X32099Y403188D01*
X32005Y403151D01*
X31912Y403111D01*
X31820Y403067D01*
X31731Y403020D01*
X31643Y402969D01*
X31557Y402915D01*
X31474Y402858D01*
X31392Y402798D01*
X31314Y402734D01*
X31237Y402668D01*
X31164Y402598D01*
X31093Y402526D01*
X31025Y402451D01*
X30960Y402373D01*
X30898Y402293D01*
X30839Y402211D01*
X30783Y402126D01*
X30731Y402040D01*
X30682Y401951D01*
X30636Y401860D01*
X30595Y401768D01*
X30556Y401674D01*
X30522Y401579D01*
X30491Y401483D01*
X30464Y401385D01*
X30440Y401287D01*
X30421Y401187D01*
X30405Y401087D01*
X30393Y400987D01*
X30385Y400886D01*
X30381Y400785D01*
X30381Y400683D01*
X30385Y400582D01*
X30393Y400481D01*
X30405Y400381D01*
X30421Y400281D01*
X30440Y400181D01*
X30464Y400083D01*
X30491Y399985D01*
X30522Y399889D01*
X30556Y399794D01*
X30595Y399700D01*
X30636Y399608D01*
X30682Y399517D01*
X30731Y399429D01*
X30783Y399342D01*
X30839Y399257D01*
X30898Y399175D01*
X30960Y399095D01*
X31025Y399017D01*
X31093Y398942D01*
X31164Y398870D01*
X31237Y398800D01*
X31314Y398734D01*
X31392Y398670D01*
X31474Y398610D01*
X31557Y398553D01*
X31643Y398499D01*
X31731Y398448D01*
X31820Y398401D01*
X31912Y398357D01*
X32005Y398317D01*
X32099Y398280D01*
X32195Y398248D01*
X32292Y398219D01*
X32390Y398193D01*
X32489Y398172D01*
X32589Y398154D01*
X32689Y398141D01*
X32790Y398131D01*
X32891Y398125D01*
X32992Y398123D01*
X30381Y407573D02*
X39779Y407573D01*
X30381Y412794D01*
X39779Y412794D01*
X39779Y417326D02*
X30381Y417326D01*
X30381Y422547D02*
X39779Y417326D01*
X39779Y422547D02*
X30381Y422547D01*
D11*
X478000Y407500D02*
X520000Y407500D01*
X520000Y352500D01*
X478000Y352500D01*
X478000Y407500D01*
X436982Y401692D02*
X436982Y394467D01*
X453238Y394467D01*
X453238Y401692D01*
X446013Y399886D02*
X446013Y394467D01*
X436982Y412361D02*
X436984Y412479D01*
X436990Y412597D01*
X436999Y412715D01*
X437013Y412832D01*
X437030Y412949D01*
X437051Y413066D01*
X437076Y413181D01*
X437105Y413296D01*
X437138Y413410D01*
X437174Y413522D01*
X437214Y413633D01*
X437257Y413743D01*
X437304Y413852D01*
X437354Y413959D01*
X437409Y414064D01*
X437466Y414167D01*
X437527Y414268D01*
X437591Y414368D01*
X437658Y414465D01*
X437728Y414560D01*
X437802Y414652D01*
X437878Y414743D01*
X437958Y414830D01*
X438040Y414915D01*
X438125Y414997D01*
X438212Y415077D01*
X438303Y415153D01*
X438395Y415227D01*
X438490Y415297D01*
X438587Y415364D01*
X438687Y415428D01*
X438788Y415489D01*
X438891Y415546D01*
X438996Y415601D01*
X439103Y415651D01*
X439212Y415698D01*
X439322Y415741D01*
X439433Y415781D01*
X439545Y415817D01*
X439659Y415850D01*
X439774Y415879D01*
X439889Y415904D01*
X440006Y415925D01*
X440123Y415942D01*
X440240Y415956D01*
X440358Y415965D01*
X440476Y415971D01*
X440594Y415973D01*
X436982Y412361D02*
X436984Y412178D01*
X436991Y411996D01*
X437002Y411814D01*
X437017Y411632D01*
X437037Y411450D01*
X437060Y411269D01*
X437089Y411089D01*
X437121Y410909D01*
X437158Y410730D01*
X437199Y410553D01*
X437245Y410376D01*
X437294Y410200D01*
X437348Y410026D01*
X437406Y409852D01*
X437468Y409681D01*
X437534Y409511D01*
X437605Y409342D01*
X437679Y409175D01*
X437757Y409010D01*
X437839Y408847D01*
X437925Y408686D01*
X438015Y408527D01*
X438109Y408370D01*
X438206Y408216D01*
X438307Y408064D01*
X438412Y407914D01*
X438520Y407767D01*
X438631Y407623D01*
X438746Y407481D01*
X438865Y407342D01*
X438987Y407206D01*
X439112Y407073D01*
X439240Y406943D01*
X449626Y407394D02*
X449744Y407396D01*
X449862Y407402D01*
X449980Y407411D01*
X450097Y407425D01*
X450214Y407442D01*
X450331Y407463D01*
X450446Y407488D01*
X450561Y407517D01*
X450675Y407550D01*
X450787Y407586D01*
X450898Y407626D01*
X451008Y407669D01*
X451117Y407716D01*
X451224Y407766D01*
X451329Y407821D01*
X451432Y407878D01*
X451533Y407939D01*
X451633Y408003D01*
X451730Y408070D01*
X451825Y408140D01*
X451917Y408214D01*
X452008Y408290D01*
X452095Y408370D01*
X452180Y408452D01*
X452262Y408537D01*
X452342Y408624D01*
X452418Y408715D01*
X452492Y408807D01*
X452562Y408902D01*
X452629Y408999D01*
X452693Y409099D01*
X452754Y409200D01*
X452812Y409303D01*
X452866Y409408D01*
X452916Y409515D01*
X452963Y409624D01*
X453007Y409734D01*
X453046Y409845D01*
X453082Y409958D01*
X453115Y410071D01*
X453144Y410186D01*
X453169Y410301D01*
X453190Y410418D01*
X453207Y410535D01*
X453221Y410652D01*
X453230Y410770D01*
X453236Y410888D01*
X453238Y411006D01*
X453236Y411167D01*
X453230Y411329D01*
X453221Y411490D01*
X453207Y411651D01*
X453190Y411811D01*
X453169Y411971D01*
X453144Y412131D01*
X453115Y412290D01*
X453083Y412448D01*
X453047Y412605D01*
X453007Y412761D01*
X452963Y412917D01*
X452915Y413071D01*
X452864Y413224D01*
X452810Y413376D01*
X452751Y413527D01*
X452690Y413676D01*
X452624Y413823D01*
X452555Y413969D01*
X452483Y414114D01*
X452407Y414256D01*
X452328Y414397D01*
X452246Y414536D01*
X452160Y414672D01*
X452071Y414807D01*
X451979Y414940D01*
X451883Y415070D01*
X446465Y409200D02*
X446527Y409099D01*
X446592Y408999D01*
X446661Y408902D01*
X446733Y408807D01*
X446807Y408714D01*
X446885Y408624D01*
X446966Y408536D01*
X447049Y408451D01*
X447135Y408369D01*
X447224Y408290D01*
X447315Y408213D01*
X447409Y408140D01*
X447505Y408069D01*
X447603Y408002D01*
X447703Y407938D01*
X447806Y407877D01*
X447910Y407820D01*
X448016Y407766D01*
X448124Y407716D01*
X448233Y407669D01*
X448344Y407625D01*
X448456Y407585D01*
X448570Y407549D01*
X448684Y407517D01*
X448800Y407488D01*
X448916Y407463D01*
X449033Y407442D01*
X449151Y407425D01*
X449269Y407411D01*
X449388Y407402D01*
X449507Y407396D01*
X449626Y407394D01*
X443755Y414168D02*
X443693Y414269D01*
X443628Y414369D01*
X443559Y414466D01*
X443487Y414561D01*
X443413Y414654D01*
X443335Y414744D01*
X443254Y414832D01*
X443171Y414917D01*
X443085Y414999D01*
X442996Y415078D01*
X442905Y415155D01*
X442811Y415228D01*
X442715Y415299D01*
X442617Y415366D01*
X442517Y415430D01*
X442414Y415491D01*
X442310Y415548D01*
X442204Y415602D01*
X442096Y415652D01*
X441987Y415699D01*
X441876Y415743D01*
X441764Y415783D01*
X441650Y415819D01*
X441536Y415851D01*
X441420Y415880D01*
X441304Y415905D01*
X441187Y415926D01*
X441069Y415943D01*
X440951Y415957D01*
X440832Y415966D01*
X440713Y415972D01*
X440594Y415974D01*
X443755Y414167D02*
X446465Y409200D01*
X436982Y425626D02*
X436982Y429238D01*
X436982Y425626D02*
X436984Y425508D01*
X436990Y425390D01*
X436999Y425272D01*
X437013Y425155D01*
X437030Y425038D01*
X437051Y424921D01*
X437076Y424806D01*
X437105Y424691D01*
X437138Y424577D01*
X437174Y424465D01*
X437214Y424354D01*
X437257Y424244D01*
X437304Y424135D01*
X437354Y424028D01*
X437409Y423923D01*
X437466Y423820D01*
X437527Y423719D01*
X437591Y423619D01*
X437658Y423522D01*
X437728Y423427D01*
X437802Y423335D01*
X437878Y423244D01*
X437958Y423157D01*
X438040Y423072D01*
X438125Y422990D01*
X438212Y422910D01*
X438303Y422834D01*
X438395Y422760D01*
X438490Y422690D01*
X438587Y422623D01*
X438687Y422559D01*
X438788Y422498D01*
X438891Y422441D01*
X438996Y422386D01*
X439103Y422336D01*
X439212Y422289D01*
X439322Y422246D01*
X439433Y422206D01*
X439545Y422170D01*
X439659Y422137D01*
X439774Y422108D01*
X439889Y422083D01*
X440006Y422062D01*
X440123Y422045D01*
X440240Y422031D01*
X440358Y422022D01*
X440476Y422016D01*
X440594Y422014D01*
X440594Y422013D02*
X449626Y422013D01*
X449626Y422014D02*
X449744Y422016D01*
X449862Y422022D01*
X449980Y422031D01*
X450097Y422045D01*
X450214Y422062D01*
X450331Y422083D01*
X450446Y422108D01*
X450561Y422137D01*
X450675Y422170D01*
X450787Y422206D01*
X450898Y422246D01*
X451008Y422289D01*
X451117Y422336D01*
X451224Y422386D01*
X451329Y422440D01*
X451432Y422498D01*
X451533Y422559D01*
X451633Y422623D01*
X451730Y422690D01*
X451825Y422760D01*
X451917Y422834D01*
X452008Y422910D01*
X452095Y422990D01*
X452180Y423072D01*
X452262Y423157D01*
X452342Y423244D01*
X452418Y423335D01*
X452492Y423427D01*
X452562Y423522D01*
X452629Y423619D01*
X452693Y423719D01*
X452754Y423820D01*
X452811Y423923D01*
X452865Y424028D01*
X452916Y424135D01*
X452963Y424244D01*
X453006Y424354D01*
X453046Y424465D01*
X453082Y424577D01*
X453115Y424691D01*
X453144Y424806D01*
X453169Y424921D01*
X453190Y425038D01*
X453207Y425155D01*
X453221Y425272D01*
X453230Y425390D01*
X453236Y425508D01*
X453238Y425626D01*
X453238Y429238D01*
X305453Y271618D02*
X305453Y265014D01*
X305453Y271618D02*
X303618Y271618D01*
X303533Y271616D01*
X303449Y271610D01*
X303365Y271600D01*
X303281Y271587D01*
X303198Y271569D01*
X303116Y271548D01*
X303035Y271523D01*
X302955Y271494D01*
X302877Y271462D01*
X302801Y271426D01*
X302726Y271386D01*
X302653Y271343D01*
X302582Y271297D01*
X302513Y271248D01*
X302446Y271195D01*
X302382Y271139D01*
X302321Y271081D01*
X302263Y271020D01*
X302207Y270956D01*
X302154Y270889D01*
X302105Y270820D01*
X302059Y270749D01*
X302016Y270676D01*
X301976Y270601D01*
X301940Y270525D01*
X301908Y270447D01*
X301879Y270367D01*
X301854Y270286D01*
X301833Y270204D01*
X301815Y270121D01*
X301802Y270037D01*
X301792Y269953D01*
X301786Y269869D01*
X301784Y269784D01*
X301786Y269699D01*
X301792Y269615D01*
X301802Y269531D01*
X301815Y269447D01*
X301833Y269364D01*
X301854Y269282D01*
X301879Y269201D01*
X301908Y269121D01*
X301940Y269043D01*
X301976Y268967D01*
X302016Y268892D01*
X302059Y268819D01*
X302105Y268748D01*
X302154Y268679D01*
X302207Y268612D01*
X302263Y268548D01*
X302321Y268487D01*
X302382Y268429D01*
X302446Y268373D01*
X302513Y268320D01*
X302582Y268271D01*
X302653Y268225D01*
X302726Y268182D01*
X302801Y268142D01*
X302877Y268106D01*
X302955Y268074D01*
X303035Y268045D01*
X303116Y268020D01*
X303198Y267999D01*
X303281Y267981D01*
X303365Y267968D01*
X303449Y267958D01*
X303533Y267952D01*
X303618Y267950D01*
X303618Y267949D02*
X305453Y267949D01*
X303251Y267949D02*
X301784Y265014D01*
X296198Y271618D02*
X296119Y271616D01*
X296041Y271611D01*
X295963Y271601D01*
X295886Y271588D01*
X295809Y271571D01*
X295733Y271551D01*
X295658Y271527D01*
X295584Y271500D01*
X295512Y271469D01*
X295441Y271434D01*
X295373Y271397D01*
X295305Y271356D01*
X295240Y271312D01*
X295177Y271265D01*
X295117Y271215D01*
X295059Y271162D01*
X295003Y271106D01*
X294950Y271048D01*
X294900Y270988D01*
X294853Y270925D01*
X294809Y270860D01*
X294768Y270793D01*
X294731Y270724D01*
X294696Y270653D01*
X294665Y270581D01*
X294638Y270507D01*
X294614Y270432D01*
X294594Y270356D01*
X294577Y270279D01*
X294564Y270202D01*
X294554Y270124D01*
X294549Y270046D01*
X294547Y269967D01*
X296198Y271618D02*
X296287Y271616D01*
X296376Y271611D01*
X296464Y271601D01*
X296552Y271588D01*
X296639Y271572D01*
X296726Y271551D01*
X296811Y271527D01*
X296896Y271500D01*
X296979Y271469D01*
X297061Y271434D01*
X297142Y271396D01*
X297221Y271355D01*
X297297Y271311D01*
X297373Y271263D01*
X297446Y271212D01*
X297516Y271159D01*
X297585Y271102D01*
X297651Y271042D01*
X297714Y270980D01*
X297775Y270915D01*
X297833Y270848D01*
X297888Y270778D01*
X297941Y270706D01*
X297990Y270632D01*
X298036Y270556D01*
X298078Y270478D01*
X298118Y270398D01*
X298154Y270317D01*
X298187Y270234D01*
X298216Y270150D01*
X295098Y268683D02*
X295042Y268739D01*
X294988Y268798D01*
X294937Y268859D01*
X294888Y268923D01*
X294843Y268988D01*
X294800Y269056D01*
X294761Y269125D01*
X294724Y269196D01*
X294691Y269269D01*
X294662Y269343D01*
X294635Y269418D01*
X294612Y269494D01*
X294593Y269572D01*
X294577Y269650D01*
X294564Y269728D01*
X294555Y269808D01*
X294550Y269887D01*
X294548Y269967D01*
X295098Y268683D02*
X298216Y265014D01*
X294547Y265014D01*
X29833Y143366D02*
X29833Y136762D01*
X29833Y143366D02*
X27998Y143366D01*
X27913Y143364D01*
X27829Y143358D01*
X27745Y143348D01*
X27661Y143335D01*
X27578Y143317D01*
X27496Y143296D01*
X27415Y143271D01*
X27335Y143242D01*
X27257Y143210D01*
X27181Y143174D01*
X27106Y143134D01*
X27033Y143091D01*
X26962Y143045D01*
X26893Y142996D01*
X26826Y142943D01*
X26762Y142887D01*
X26701Y142829D01*
X26643Y142768D01*
X26587Y142704D01*
X26534Y142637D01*
X26485Y142568D01*
X26439Y142497D01*
X26396Y142424D01*
X26356Y142349D01*
X26320Y142273D01*
X26288Y142195D01*
X26259Y142115D01*
X26234Y142034D01*
X26213Y141952D01*
X26195Y141869D01*
X26182Y141785D01*
X26172Y141701D01*
X26166Y141617D01*
X26164Y141532D01*
X26166Y141447D01*
X26172Y141363D01*
X26182Y141279D01*
X26195Y141195D01*
X26213Y141112D01*
X26234Y141030D01*
X26259Y140949D01*
X26288Y140869D01*
X26320Y140791D01*
X26356Y140715D01*
X26396Y140640D01*
X26439Y140567D01*
X26485Y140496D01*
X26534Y140427D01*
X26587Y140360D01*
X26643Y140296D01*
X26701Y140235D01*
X26762Y140177D01*
X26826Y140121D01*
X26893Y140068D01*
X26962Y140019D01*
X27033Y139973D01*
X27106Y139930D01*
X27181Y139890D01*
X27257Y139854D01*
X27335Y139822D01*
X27415Y139793D01*
X27496Y139768D01*
X27578Y139747D01*
X27661Y139729D01*
X27745Y139716D01*
X27829Y139706D01*
X27913Y139700D01*
X27998Y139698D01*
X27998Y139697D02*
X29833Y139697D01*
X27631Y139697D02*
X26164Y136762D01*
X22596Y136762D02*
X20762Y136762D01*
X20677Y136764D01*
X20593Y136770D01*
X20509Y136780D01*
X20425Y136793D01*
X20342Y136811D01*
X20260Y136832D01*
X20179Y136857D01*
X20099Y136886D01*
X20021Y136918D01*
X19945Y136954D01*
X19870Y136994D01*
X19797Y137037D01*
X19726Y137083D01*
X19657Y137132D01*
X19590Y137185D01*
X19526Y137241D01*
X19465Y137299D01*
X19407Y137360D01*
X19351Y137424D01*
X19298Y137491D01*
X19249Y137560D01*
X19203Y137631D01*
X19160Y137704D01*
X19120Y137779D01*
X19084Y137855D01*
X19052Y137933D01*
X19023Y138013D01*
X18998Y138094D01*
X18977Y138176D01*
X18959Y138259D01*
X18946Y138343D01*
X18936Y138427D01*
X18930Y138511D01*
X18928Y138596D01*
X18930Y138681D01*
X18936Y138765D01*
X18946Y138849D01*
X18959Y138933D01*
X18977Y139016D01*
X18998Y139098D01*
X19023Y139179D01*
X19052Y139259D01*
X19084Y139337D01*
X19120Y139413D01*
X19160Y139488D01*
X19203Y139561D01*
X19249Y139632D01*
X19298Y139701D01*
X19351Y139768D01*
X19407Y139832D01*
X19465Y139893D01*
X19526Y139951D01*
X19590Y140007D01*
X19657Y140060D01*
X19726Y140109D01*
X19797Y140155D01*
X19870Y140198D01*
X19945Y140238D01*
X20021Y140274D01*
X20099Y140306D01*
X20179Y140335D01*
X20260Y140360D01*
X20342Y140381D01*
X20425Y140399D01*
X20509Y140412D01*
X20593Y140422D01*
X20677Y140428D01*
X20762Y140430D01*
X20395Y143366D02*
X22596Y143366D01*
X20395Y143366D02*
X20319Y143364D01*
X20244Y143358D01*
X20169Y143349D01*
X20095Y143335D01*
X20021Y143318D01*
X19949Y143296D01*
X19877Y143272D01*
X19807Y143243D01*
X19739Y143211D01*
X19672Y143176D01*
X19607Y143137D01*
X19544Y143094D01*
X19484Y143049D01*
X19426Y143001D01*
X19370Y142949D01*
X19318Y142895D01*
X19268Y142838D01*
X19221Y142779D01*
X19177Y142718D01*
X19136Y142654D01*
X19099Y142588D01*
X19065Y142520D01*
X19035Y142451D01*
X19008Y142380D01*
X18985Y142308D01*
X18966Y142235D01*
X18951Y142161D01*
X18939Y142086D01*
X18931Y142011D01*
X18927Y141936D01*
X18927Y141860D01*
X18931Y141785D01*
X18939Y141710D01*
X18951Y141635D01*
X18966Y141561D01*
X18985Y141488D01*
X19008Y141416D01*
X19035Y141345D01*
X19065Y141276D01*
X19099Y141208D01*
X19136Y141142D01*
X19177Y141078D01*
X19221Y141017D01*
X19268Y140958D01*
X19318Y140901D01*
X19370Y140847D01*
X19426Y140795D01*
X19484Y140747D01*
X19544Y140702D01*
X19607Y140659D01*
X19672Y140620D01*
X19739Y140585D01*
X19807Y140553D01*
X19877Y140524D01*
X19949Y140500D01*
X20021Y140478D01*
X20095Y140461D01*
X20169Y140447D01*
X20244Y140438D01*
X20319Y140432D01*
X20395Y140430D01*
X20395Y140431D02*
X21862Y140431D01*
X30453Y123618D02*
X30453Y117014D01*
X30453Y123618D02*
X28618Y123618D01*
X28533Y123616D01*
X28449Y123610D01*
X28365Y123600D01*
X28281Y123587D01*
X28198Y123569D01*
X28116Y123548D01*
X28035Y123523D01*
X27955Y123494D01*
X27877Y123462D01*
X27801Y123426D01*
X27726Y123386D01*
X27653Y123343D01*
X27582Y123297D01*
X27513Y123248D01*
X27446Y123195D01*
X27382Y123139D01*
X27321Y123081D01*
X27263Y123020D01*
X27207Y122956D01*
X27154Y122889D01*
X27105Y122820D01*
X27059Y122749D01*
X27016Y122676D01*
X26976Y122601D01*
X26940Y122525D01*
X26908Y122447D01*
X26879Y122367D01*
X26854Y122286D01*
X26833Y122204D01*
X26815Y122121D01*
X26802Y122037D01*
X26792Y121953D01*
X26786Y121869D01*
X26784Y121784D01*
X26786Y121699D01*
X26792Y121615D01*
X26802Y121531D01*
X26815Y121447D01*
X26833Y121364D01*
X26854Y121282D01*
X26879Y121201D01*
X26908Y121121D01*
X26940Y121043D01*
X26976Y120967D01*
X27016Y120892D01*
X27059Y120819D01*
X27105Y120748D01*
X27154Y120679D01*
X27207Y120612D01*
X27263Y120548D01*
X27321Y120487D01*
X27382Y120429D01*
X27446Y120373D01*
X27513Y120320D01*
X27582Y120271D01*
X27653Y120225D01*
X27726Y120182D01*
X27801Y120142D01*
X27877Y120106D01*
X27955Y120074D01*
X28035Y120045D01*
X28116Y120020D01*
X28198Y119999D01*
X28281Y119981D01*
X28365Y119968D01*
X28449Y119958D01*
X28533Y119952D01*
X28618Y119950D01*
X28618Y119949D02*
X30453Y119949D01*
X28251Y119949D02*
X26784Y117014D01*
X23216Y117014D02*
X21015Y117014D01*
X20941Y117016D01*
X20866Y117022D01*
X20793Y117031D01*
X20719Y117044D01*
X20647Y117061D01*
X20576Y117081D01*
X20505Y117105D01*
X20436Y117133D01*
X20369Y117164D01*
X20303Y117198D01*
X20238Y117236D01*
X20176Y117277D01*
X20116Y117321D01*
X20059Y117368D01*
X20004Y117418D01*
X19951Y117471D01*
X19901Y117526D01*
X19854Y117583D01*
X19810Y117643D01*
X19769Y117705D01*
X19731Y117770D01*
X19697Y117835D01*
X19666Y117903D01*
X19638Y117972D01*
X19614Y118043D01*
X19594Y118114D01*
X19577Y118186D01*
X19564Y118260D01*
X19555Y118333D01*
X19549Y118408D01*
X19547Y118482D01*
X19547Y119215D01*
X19549Y119289D01*
X19555Y119364D01*
X19564Y119437D01*
X19577Y119511D01*
X19594Y119583D01*
X19614Y119654D01*
X19638Y119725D01*
X19666Y119794D01*
X19697Y119861D01*
X19731Y119927D01*
X19769Y119992D01*
X19810Y120054D01*
X19854Y120114D01*
X19901Y120171D01*
X19951Y120226D01*
X20004Y120279D01*
X20059Y120329D01*
X20116Y120376D01*
X20176Y120420D01*
X20238Y120461D01*
X20303Y120499D01*
X20369Y120533D01*
X20436Y120564D01*
X20505Y120592D01*
X20576Y120616D01*
X20647Y120636D01*
X20719Y120653D01*
X20793Y120666D01*
X20866Y120675D01*
X20941Y120681D01*
X21015Y120683D01*
X23216Y120683D01*
X23216Y123618D01*
X19547Y123618D01*
X400453Y192382D02*
X400453Y198986D01*
X398618Y198986D01*
X398533Y198984D01*
X398449Y198978D01*
X398365Y198968D01*
X398281Y198955D01*
X398198Y198937D01*
X398116Y198916D01*
X398035Y198891D01*
X397955Y198862D01*
X397877Y198830D01*
X397801Y198794D01*
X397726Y198754D01*
X397653Y198711D01*
X397582Y198665D01*
X397513Y198616D01*
X397446Y198563D01*
X397382Y198507D01*
X397321Y198449D01*
X397263Y198388D01*
X397207Y198324D01*
X397154Y198257D01*
X397105Y198188D01*
X397059Y198117D01*
X397016Y198044D01*
X396976Y197969D01*
X396940Y197893D01*
X396908Y197815D01*
X396879Y197735D01*
X396854Y197654D01*
X396833Y197572D01*
X396815Y197489D01*
X396802Y197405D01*
X396792Y197321D01*
X396786Y197237D01*
X396784Y197152D01*
X396786Y197067D01*
X396792Y196983D01*
X396802Y196899D01*
X396815Y196815D01*
X396833Y196732D01*
X396854Y196650D01*
X396879Y196569D01*
X396908Y196489D01*
X396940Y196411D01*
X396976Y196335D01*
X397016Y196260D01*
X397059Y196187D01*
X397105Y196116D01*
X397154Y196047D01*
X397207Y195980D01*
X397263Y195916D01*
X397321Y195855D01*
X397382Y195797D01*
X397446Y195741D01*
X397513Y195688D01*
X397582Y195639D01*
X397653Y195593D01*
X397726Y195550D01*
X397801Y195510D01*
X397877Y195474D01*
X397955Y195442D01*
X398035Y195413D01*
X398116Y195388D01*
X398198Y195367D01*
X398281Y195349D01*
X398365Y195336D01*
X398449Y195326D01*
X398533Y195320D01*
X398618Y195318D01*
X398618Y195317D02*
X400453Y195317D01*
X398251Y195317D02*
X396784Y192382D01*
X393216Y196051D02*
X391015Y196051D01*
X390941Y196049D01*
X390866Y196043D01*
X390793Y196034D01*
X390719Y196021D01*
X390647Y196004D01*
X390576Y195984D01*
X390505Y195960D01*
X390436Y195932D01*
X390369Y195901D01*
X390303Y195867D01*
X390238Y195829D01*
X390176Y195788D01*
X390116Y195744D01*
X390059Y195697D01*
X390004Y195647D01*
X389951Y195594D01*
X389901Y195539D01*
X389854Y195482D01*
X389810Y195422D01*
X389769Y195360D01*
X389731Y195295D01*
X389697Y195229D01*
X389666Y195162D01*
X389638Y195093D01*
X389614Y195022D01*
X389594Y194951D01*
X389577Y194879D01*
X389564Y194805D01*
X389555Y194732D01*
X389549Y194657D01*
X389547Y194583D01*
X389547Y194216D01*
X389548Y194216D02*
X389550Y194131D01*
X389556Y194047D01*
X389566Y193963D01*
X389579Y193879D01*
X389597Y193796D01*
X389618Y193714D01*
X389643Y193633D01*
X389672Y193553D01*
X389704Y193475D01*
X389740Y193399D01*
X389780Y193324D01*
X389823Y193251D01*
X389869Y193180D01*
X389918Y193111D01*
X389971Y193044D01*
X390027Y192980D01*
X390085Y192919D01*
X390146Y192861D01*
X390210Y192805D01*
X390277Y192752D01*
X390346Y192703D01*
X390417Y192657D01*
X390490Y192614D01*
X390565Y192574D01*
X390641Y192538D01*
X390719Y192506D01*
X390799Y192477D01*
X390880Y192452D01*
X390962Y192431D01*
X391045Y192413D01*
X391129Y192400D01*
X391213Y192390D01*
X391297Y192384D01*
X391382Y192382D01*
X391467Y192384D01*
X391551Y192390D01*
X391635Y192400D01*
X391719Y192413D01*
X391802Y192431D01*
X391884Y192452D01*
X391965Y192477D01*
X392045Y192506D01*
X392123Y192538D01*
X392199Y192574D01*
X392274Y192614D01*
X392347Y192657D01*
X392418Y192703D01*
X392487Y192752D01*
X392554Y192805D01*
X392618Y192861D01*
X392679Y192919D01*
X392737Y192980D01*
X392793Y193044D01*
X392846Y193111D01*
X392895Y193180D01*
X392941Y193251D01*
X392984Y193324D01*
X393024Y193399D01*
X393060Y193475D01*
X393092Y193553D01*
X393121Y193633D01*
X393146Y193714D01*
X393167Y193796D01*
X393185Y193879D01*
X393198Y193963D01*
X393208Y194047D01*
X393214Y194131D01*
X393216Y194216D01*
X393216Y196051D01*
X393214Y196158D01*
X393208Y196265D01*
X393198Y196372D01*
X393185Y196478D01*
X393167Y196584D01*
X393146Y196689D01*
X393121Y196793D01*
X393092Y196897D01*
X393059Y196999D01*
X393022Y197099D01*
X392982Y197199D01*
X392938Y197297D01*
X392891Y197393D01*
X392840Y197487D01*
X392786Y197580D01*
X392729Y197670D01*
X392668Y197759D01*
X392604Y197845D01*
X392537Y197928D01*
X392467Y198010D01*
X392394Y198088D01*
X392318Y198164D01*
X392240Y198237D01*
X392158Y198307D01*
X392075Y198374D01*
X391989Y198438D01*
X391900Y198499D01*
X391810Y198556D01*
X391717Y198610D01*
X391623Y198661D01*
X391527Y198708D01*
X391429Y198752D01*
X391330Y198792D01*
X391229Y198829D01*
X391127Y198862D01*
X391023Y198891D01*
X390919Y198916D01*
X390814Y198937D01*
X390708Y198955D01*
X390602Y198968D01*
X390495Y198978D01*
X390388Y198984D01*
X390281Y198986D01*
X358453Y198986D02*
X358453Y192382D01*
X358453Y198986D02*
X356618Y198986D01*
X356533Y198984D01*
X356449Y198978D01*
X356365Y198968D01*
X356281Y198955D01*
X356198Y198937D01*
X356116Y198916D01*
X356035Y198891D01*
X355955Y198862D01*
X355877Y198830D01*
X355801Y198794D01*
X355726Y198754D01*
X355653Y198711D01*
X355582Y198665D01*
X355513Y198616D01*
X355446Y198563D01*
X355382Y198507D01*
X355321Y198449D01*
X355263Y198388D01*
X355207Y198324D01*
X355154Y198257D01*
X355105Y198188D01*
X355059Y198117D01*
X355016Y198044D01*
X354976Y197969D01*
X354940Y197893D01*
X354908Y197815D01*
X354879Y197735D01*
X354854Y197654D01*
X354833Y197572D01*
X354815Y197489D01*
X354802Y197405D01*
X354792Y197321D01*
X354786Y197237D01*
X354784Y197152D01*
X354786Y197067D01*
X354792Y196983D01*
X354802Y196899D01*
X354815Y196815D01*
X354833Y196732D01*
X354854Y196650D01*
X354879Y196569D01*
X354908Y196489D01*
X354940Y196411D01*
X354976Y196335D01*
X355016Y196260D01*
X355059Y196187D01*
X355105Y196116D01*
X355154Y196047D01*
X355207Y195980D01*
X355263Y195916D01*
X355321Y195855D01*
X355382Y195797D01*
X355446Y195741D01*
X355513Y195688D01*
X355582Y195639D01*
X355653Y195593D01*
X355726Y195550D01*
X355801Y195510D01*
X355877Y195474D01*
X355955Y195442D01*
X356035Y195413D01*
X356116Y195388D01*
X356198Y195367D01*
X356281Y195349D01*
X356365Y195336D01*
X356449Y195326D01*
X356533Y195320D01*
X356618Y195318D01*
X356618Y195317D02*
X358453Y195317D01*
X356251Y195317D02*
X354784Y192382D01*
X351216Y198252D02*
X351216Y198986D01*
X347547Y198986D01*
X349382Y192382D01*
X-5014Y220890D02*
X-11618Y220890D01*
X-5014Y220890D02*
X-5014Y222724D01*
X-5016Y222809D01*
X-5022Y222893D01*
X-5032Y222977D01*
X-5045Y223061D01*
X-5063Y223144D01*
X-5084Y223226D01*
X-5109Y223307D01*
X-5138Y223387D01*
X-5170Y223465D01*
X-5206Y223541D01*
X-5246Y223616D01*
X-5289Y223689D01*
X-5335Y223760D01*
X-5384Y223829D01*
X-5437Y223896D01*
X-5493Y223960D01*
X-5551Y224021D01*
X-5612Y224079D01*
X-5676Y224135D01*
X-5743Y224188D01*
X-5812Y224237D01*
X-5883Y224283D01*
X-5956Y224326D01*
X-6031Y224366D01*
X-6107Y224402D01*
X-6185Y224434D01*
X-6265Y224463D01*
X-6346Y224488D01*
X-6428Y224509D01*
X-6511Y224527D01*
X-6595Y224540D01*
X-6679Y224550D01*
X-6763Y224556D01*
X-6848Y224558D01*
X-6933Y224556D01*
X-7017Y224550D01*
X-7101Y224540D01*
X-7185Y224527D01*
X-7268Y224509D01*
X-7350Y224488D01*
X-7431Y224463D01*
X-7511Y224434D01*
X-7589Y224402D01*
X-7665Y224366D01*
X-7740Y224326D01*
X-7813Y224283D01*
X-7884Y224237D01*
X-7953Y224188D01*
X-8020Y224135D01*
X-8084Y224079D01*
X-8145Y224021D01*
X-8203Y223960D01*
X-8259Y223896D01*
X-8312Y223829D01*
X-8361Y223760D01*
X-8407Y223689D01*
X-8450Y223616D01*
X-8490Y223541D01*
X-8526Y223465D01*
X-8558Y223387D01*
X-8587Y223307D01*
X-8612Y223226D01*
X-8633Y223144D01*
X-8651Y223061D01*
X-8664Y222977D01*
X-8674Y222893D01*
X-8680Y222809D01*
X-8682Y222724D01*
X-8683Y222724D02*
X-8683Y220890D01*
X-8683Y223091D02*
X-11618Y224559D01*
X-6482Y228126D02*
X-5014Y229961D01*
X-11618Y229961D01*
X-11618Y231795D02*
X-11618Y228126D01*
X-5014Y237459D02*
X-5016Y237538D01*
X-5021Y237616D01*
X-5031Y237694D01*
X-5044Y237771D01*
X-5061Y237848D01*
X-5081Y237924D01*
X-5105Y237999D01*
X-5132Y238073D01*
X-5163Y238145D01*
X-5198Y238216D01*
X-5235Y238285D01*
X-5276Y238352D01*
X-5320Y238417D01*
X-5367Y238480D01*
X-5417Y238540D01*
X-5470Y238598D01*
X-5526Y238654D01*
X-5584Y238707D01*
X-5644Y238757D01*
X-5707Y238804D01*
X-5772Y238848D01*
X-5840Y238889D01*
X-5908Y238926D01*
X-5979Y238961D01*
X-6051Y238992D01*
X-6125Y239019D01*
X-6200Y239043D01*
X-6276Y239063D01*
X-6353Y239080D01*
X-6430Y239093D01*
X-6508Y239103D01*
X-6586Y239108D01*
X-6665Y239110D01*
X-5014Y237459D02*
X-5016Y237370D01*
X-5021Y237281D01*
X-5031Y237193D01*
X-5044Y237105D01*
X-5060Y237018D01*
X-5081Y236931D01*
X-5105Y236846D01*
X-5132Y236761D01*
X-5163Y236678D01*
X-5198Y236596D01*
X-5236Y236515D01*
X-5277Y236436D01*
X-5321Y236360D01*
X-5369Y236284D01*
X-5420Y236211D01*
X-5473Y236141D01*
X-5530Y236072D01*
X-5590Y236006D01*
X-5652Y235943D01*
X-5717Y235882D01*
X-5784Y235824D01*
X-5854Y235769D01*
X-5926Y235716D01*
X-6000Y235667D01*
X-6076Y235621D01*
X-6154Y235579D01*
X-6234Y235539D01*
X-6315Y235503D01*
X-6398Y235470D01*
X-6482Y235441D01*
X-7949Y238560D02*
X-7893Y238616D01*
X-7834Y238670D01*
X-7773Y238721D01*
X-7709Y238770D01*
X-7644Y238815D01*
X-7576Y238858D01*
X-7507Y238897D01*
X-7436Y238934D01*
X-7363Y238967D01*
X-7289Y238996D01*
X-7214Y239023D01*
X-7138Y239046D01*
X-7060Y239065D01*
X-6982Y239081D01*
X-6904Y239094D01*
X-6824Y239103D01*
X-6745Y239108D01*
X-6665Y239110D01*
X-7949Y238560D02*
X-11618Y235441D01*
X-11618Y239110D01*
M02*
