G04 EAGLE Gerber RS-274X export*
G75*
%MOMM*%
%FSLAX34Y34*%
%LPD*%
%INBottom Copper*%
%IPPOS*%
%AMOC8*
5,1,8,0,0,1.08239X$1,22.5*%
G01*
%ADD10C,1.524000*%
%ADD11P,1.649562X8X22.500000*%
%ADD12C,0.900000*%
%ADD13C,1.879600*%
%ADD14C,0.200000*%
%ADD15C,0.654800*%
%ADD16C,0.704800*%
%ADD17C,0.406400*%

G36*
X422864Y2010D02*
X422864Y2010D01*
X422928Y2009D01*
X423003Y2030D01*
X423079Y2041D01*
X423138Y2067D01*
X423200Y2084D01*
X423266Y2125D01*
X423336Y2157D01*
X423385Y2199D01*
X423440Y2232D01*
X423492Y2290D01*
X423550Y2340D01*
X423586Y2394D01*
X423629Y2442D01*
X423662Y2511D01*
X423705Y2576D01*
X423724Y2638D01*
X423752Y2695D01*
X423763Y2765D01*
X423787Y2846D01*
X423788Y2931D01*
X423799Y3000D01*
X423799Y163143D01*
X423787Y163229D01*
X423784Y163316D01*
X423767Y163368D01*
X423759Y163422D01*
X423724Y163501D01*
X423697Y163584D01*
X423666Y163629D01*
X423643Y163679D01*
X423587Y163745D01*
X423538Y163817D01*
X423496Y163852D01*
X423460Y163894D01*
X423387Y163941D01*
X423320Y163996D01*
X423270Y164018D01*
X423224Y164048D01*
X423141Y164073D01*
X423061Y164108D01*
X423007Y164114D01*
X422954Y164130D01*
X422867Y164132D01*
X422781Y164142D01*
X422727Y164133D01*
X422672Y164134D01*
X422588Y164111D01*
X422503Y164097D01*
X422453Y164074D01*
X422400Y164059D01*
X422327Y164013D01*
X422248Y163976D01*
X422207Y163940D01*
X422160Y163911D01*
X422102Y163846D01*
X422037Y163789D01*
X422011Y163745D01*
X421971Y163701D01*
X421922Y163599D01*
X421877Y163525D01*
X420857Y161064D01*
X418356Y158563D01*
X415088Y157209D01*
X396312Y157209D01*
X393044Y158563D01*
X390543Y161064D01*
X389189Y164331D01*
X389189Y167868D01*
X390543Y171136D01*
X393058Y173651D01*
X393113Y173684D01*
X393218Y173740D01*
X393234Y173756D01*
X393254Y173767D01*
X393335Y173854D01*
X393420Y173936D01*
X393431Y173956D01*
X393447Y173973D01*
X393500Y174079D01*
X393559Y174182D01*
X393564Y174204D01*
X393574Y174224D01*
X393597Y174341D01*
X393624Y174456D01*
X393623Y174479D01*
X393627Y174501D01*
X393616Y174619D01*
X393610Y174738D01*
X393602Y174760D01*
X393600Y174782D01*
X393556Y174892D01*
X393517Y175004D01*
X393504Y175022D01*
X393495Y175044D01*
X393380Y175191D01*
X393335Y175253D01*
X382922Y185667D01*
X382845Y185724D01*
X382774Y185789D01*
X382733Y185809D01*
X382697Y185836D01*
X382606Y185870D01*
X382520Y185912D01*
X382478Y185918D01*
X382433Y185935D01*
X382305Y185945D01*
X382216Y185959D01*
X341982Y185959D01*
X341888Y185946D01*
X341791Y185941D01*
X341748Y185926D01*
X341703Y185919D01*
X341616Y185880D01*
X341525Y185848D01*
X341490Y185823D01*
X341446Y185803D01*
X341349Y185720D01*
X341276Y185667D01*
X328578Y172968D01*
X328526Y172899D01*
X328466Y172836D01*
X328441Y172787D01*
X328408Y172743D01*
X328378Y172662D01*
X328338Y172584D01*
X328328Y172530D01*
X328309Y172479D01*
X328302Y172392D01*
X328286Y172307D01*
X328291Y172252D01*
X328287Y172198D01*
X328305Y172113D01*
X328313Y172026D01*
X328333Y171975D01*
X328345Y171922D01*
X328385Y171845D01*
X328418Y171764D01*
X328451Y171721D01*
X328477Y171673D01*
X328538Y171610D01*
X328591Y171542D01*
X328636Y171510D01*
X328674Y171471D01*
X328749Y171428D01*
X328820Y171377D01*
X328871Y171359D01*
X328919Y171332D01*
X329004Y171312D01*
X329086Y171282D01*
X329140Y171279D01*
X329194Y171267D01*
X329281Y171271D01*
X329367Y171266D01*
X329417Y171278D01*
X329475Y171281D01*
X329583Y171318D01*
X329667Y171339D01*
X332878Y172669D01*
X337122Y172669D01*
X341043Y171044D01*
X344044Y168043D01*
X345669Y164122D01*
X345669Y159878D01*
X344044Y155957D01*
X341043Y152956D01*
X337122Y151331D01*
X332878Y151331D01*
X328957Y152956D01*
X325956Y155957D01*
X324331Y159878D01*
X324331Y164122D01*
X325661Y167333D01*
X325683Y167417D01*
X325714Y167499D01*
X325718Y167553D01*
X325731Y167607D01*
X325729Y167693D01*
X325735Y167780D01*
X325724Y167834D01*
X325722Y167888D01*
X325696Y167971D01*
X325678Y168056D01*
X325652Y168104D01*
X325635Y168157D01*
X325586Y168228D01*
X325545Y168305D01*
X325507Y168344D01*
X325476Y168390D01*
X325409Y168445D01*
X325349Y168507D01*
X325301Y168534D01*
X325258Y168569D01*
X325179Y168603D01*
X325103Y168646D01*
X325050Y168659D01*
X324999Y168680D01*
X324913Y168691D01*
X324829Y168711D01*
X324774Y168708D01*
X324719Y168715D01*
X324634Y168701D01*
X324547Y168697D01*
X324495Y168679D01*
X324441Y168670D01*
X324363Y168633D01*
X324281Y168604D01*
X324239Y168574D01*
X324186Y168549D01*
X324101Y168473D01*
X324032Y168422D01*
X236474Y80865D01*
X236469Y80857D01*
X236461Y80852D01*
X236384Y80745D01*
X236305Y80639D01*
X236302Y80630D01*
X236296Y80623D01*
X236252Y80499D01*
X236205Y80376D01*
X236205Y80366D01*
X236202Y80357D01*
X236194Y80226D01*
X236184Y80094D01*
X236186Y80085D01*
X236185Y80076D01*
X236203Y80000D01*
X236241Y79818D01*
X236253Y79797D01*
X236258Y79776D01*
X236307Y79658D01*
X236307Y78904D01*
X236311Y78872D01*
X236309Y78840D01*
X236331Y78733D01*
X236347Y78625D01*
X236360Y78596D01*
X236366Y78564D01*
X236418Y78468D01*
X236463Y78368D01*
X236484Y78344D01*
X236499Y78315D01*
X236575Y78237D01*
X236646Y78154D01*
X236673Y78136D01*
X236696Y78113D01*
X236791Y78059D01*
X236882Y78000D01*
X236913Y77990D01*
X236941Y77974D01*
X237048Y77949D01*
X237152Y77917D01*
X237184Y77917D01*
X237215Y77909D01*
X237325Y77915D01*
X237434Y77913D01*
X237465Y77922D01*
X237497Y77924D01*
X237600Y77959D01*
X237706Y77989D01*
X237733Y78006D01*
X237764Y78016D01*
X237837Y78069D01*
X237946Y78137D01*
X237978Y78173D01*
X238013Y78198D01*
X280463Y120648D01*
X282085Y122271D01*
X294529Y122271D01*
X294538Y122272D01*
X294548Y122271D01*
X294677Y122292D01*
X294808Y122311D01*
X294817Y122314D01*
X294826Y122316D01*
X294945Y122372D01*
X295065Y122427D01*
X295072Y122433D01*
X295081Y122437D01*
X295179Y122525D01*
X295279Y122610D01*
X295285Y122618D01*
X295292Y122624D01*
X295332Y122690D01*
X295434Y122846D01*
X295441Y122869D01*
X295452Y122888D01*
X295501Y123006D01*
X296994Y124499D01*
X298944Y125307D01*
X301056Y125307D01*
X303006Y124499D01*
X304499Y123006D01*
X305307Y121056D01*
X305307Y118944D01*
X304499Y116994D01*
X303006Y115501D01*
X301056Y114693D01*
X298944Y114693D01*
X296994Y115501D01*
X295501Y116994D01*
X295452Y117112D01*
X295447Y117121D01*
X295445Y117130D01*
X295376Y117242D01*
X295309Y117355D01*
X295302Y117362D01*
X295297Y117370D01*
X295199Y117458D01*
X295103Y117548D01*
X295094Y117552D01*
X295087Y117559D01*
X294969Y117616D01*
X294851Y117676D01*
X294842Y117678D01*
X294834Y117682D01*
X294757Y117694D01*
X294574Y117728D01*
X294550Y117726D01*
X294529Y117729D01*
X284380Y117729D01*
X284286Y117716D01*
X284189Y117711D01*
X284146Y117696D01*
X284101Y117689D01*
X284014Y117650D01*
X283923Y117618D01*
X283888Y117593D01*
X283844Y117573D01*
X283747Y117490D01*
X283674Y117437D01*
X235474Y69237D01*
X235469Y69229D01*
X235461Y69224D01*
X235384Y69117D01*
X235305Y69011D01*
X235302Y69002D01*
X235296Y68995D01*
X235252Y68871D01*
X235205Y68748D01*
X235205Y68738D01*
X235202Y68729D01*
X235194Y68598D01*
X235184Y68466D01*
X235186Y68457D01*
X235185Y68448D01*
X235203Y68372D01*
X235241Y68190D01*
X235253Y68169D01*
X235258Y68148D01*
X235307Y68030D01*
X235307Y65918D01*
X234499Y63968D01*
X233006Y62475D01*
X231056Y61667D01*
X228944Y61667D01*
X226994Y62475D01*
X225501Y63968D01*
X224693Y65918D01*
X224693Y68070D01*
X224689Y68102D01*
X224691Y68134D01*
X224669Y68241D01*
X224653Y68349D01*
X224640Y68378D01*
X224634Y68410D01*
X224582Y68506D01*
X224537Y68606D01*
X224516Y68630D01*
X224501Y68659D01*
X224425Y68737D01*
X224354Y68820D01*
X224327Y68838D01*
X224304Y68861D01*
X224209Y68915D01*
X224118Y68974D01*
X224087Y68984D01*
X224059Y69000D01*
X223952Y69025D01*
X223848Y69057D01*
X223816Y69057D01*
X223785Y69065D01*
X223675Y69059D01*
X223566Y69061D01*
X223535Y69052D01*
X223503Y69050D01*
X223400Y69015D01*
X223294Y68985D01*
X223267Y68968D01*
X223236Y68958D01*
X223163Y68905D01*
X223054Y68837D01*
X223022Y68801D01*
X222987Y68776D01*
X200474Y46263D01*
X200469Y46255D01*
X200461Y46250D01*
X200384Y46143D01*
X200305Y46037D01*
X200302Y46028D01*
X200296Y46021D01*
X200252Y45897D01*
X200205Y45774D01*
X200205Y45764D01*
X200202Y45755D01*
X200194Y45624D01*
X200184Y45492D01*
X200186Y45483D01*
X200185Y45474D01*
X200203Y45398D01*
X200241Y45216D01*
X200253Y45195D01*
X200258Y45174D01*
X200307Y45056D01*
X200307Y42944D01*
X199499Y40994D01*
X198006Y39501D01*
X196056Y38693D01*
X193944Y38693D01*
X191994Y39501D01*
X190501Y40994D01*
X189693Y42944D01*
X189693Y45056D01*
X190501Y47006D01*
X191994Y48499D01*
X193944Y49307D01*
X196056Y49307D01*
X196174Y49258D01*
X196183Y49255D01*
X196191Y49251D01*
X196320Y49220D01*
X196447Y49188D01*
X196457Y49188D01*
X196466Y49186D01*
X196599Y49192D01*
X196729Y49197D01*
X196738Y49200D01*
X196748Y49200D01*
X196872Y49243D01*
X196997Y49284D01*
X197005Y49289D01*
X197014Y49293D01*
X197076Y49338D01*
X197230Y49443D01*
X197246Y49462D01*
X197263Y49474D01*
X221976Y74187D01*
X222033Y74264D01*
X222098Y74335D01*
X222118Y74376D01*
X222145Y74412D01*
X222179Y74503D01*
X222221Y74589D01*
X222227Y74631D01*
X222244Y74676D01*
X222252Y74779D01*
X222256Y74792D01*
X222257Y74819D01*
X222268Y74893D01*
X222268Y104164D01*
X222264Y104196D01*
X222266Y104228D01*
X222244Y104335D01*
X222228Y104443D01*
X222215Y104472D01*
X222209Y104504D01*
X222157Y104600D01*
X222112Y104700D01*
X222091Y104724D01*
X222076Y104753D01*
X222000Y104831D01*
X221929Y104914D01*
X221902Y104932D01*
X221879Y104955D01*
X221784Y105009D01*
X221693Y105068D01*
X221662Y105078D01*
X221634Y105094D01*
X221527Y105119D01*
X221423Y105151D01*
X221391Y105151D01*
X221360Y105159D01*
X221250Y105153D01*
X221141Y105155D01*
X221110Y105146D01*
X221078Y105144D01*
X220975Y105109D01*
X220869Y105079D01*
X220842Y105062D01*
X220811Y105052D01*
X220738Y104999D01*
X220629Y104931D01*
X220597Y104895D01*
X220562Y104870D01*
X182563Y66871D01*
X182506Y66794D01*
X182441Y66723D01*
X182421Y66682D01*
X182394Y66646D01*
X182360Y66555D01*
X182318Y66469D01*
X182312Y66427D01*
X182295Y66382D01*
X182285Y66254D01*
X182271Y66165D01*
X182271Y55132D01*
X182272Y55123D01*
X182271Y55113D01*
X182292Y54983D01*
X182311Y54853D01*
X182314Y54844D01*
X182316Y54835D01*
X182373Y54716D01*
X182427Y54596D01*
X182433Y54589D01*
X182437Y54580D01*
X182525Y54481D01*
X182610Y54382D01*
X182618Y54376D01*
X182624Y54369D01*
X182690Y54329D01*
X182846Y54227D01*
X182869Y54220D01*
X182888Y54209D01*
X183006Y54160D01*
X184499Y52667D01*
X185307Y50717D01*
X185307Y48605D01*
X184499Y46655D01*
X183006Y45162D01*
X181056Y44354D01*
X178944Y44354D01*
X176994Y45162D01*
X175501Y46655D01*
X174693Y48605D01*
X174693Y50717D01*
X175501Y52667D01*
X176994Y54160D01*
X177112Y54209D01*
X177121Y54214D01*
X177130Y54216D01*
X177242Y54286D01*
X177355Y54353D01*
X177362Y54359D01*
X177370Y54364D01*
X177458Y54462D01*
X177548Y54558D01*
X177552Y54567D01*
X177559Y54574D01*
X177616Y54692D01*
X177676Y54810D01*
X177678Y54819D01*
X177682Y54827D01*
X177694Y54904D01*
X177728Y55087D01*
X177726Y55111D01*
X177729Y55132D01*
X177729Y68460D01*
X225923Y116654D01*
X230029Y116654D01*
X230123Y116667D01*
X230220Y116672D01*
X230263Y116687D01*
X230308Y116694D01*
X230395Y116733D01*
X230486Y116765D01*
X230521Y116790D01*
X230565Y116810D01*
X230662Y116893D01*
X230735Y116946D01*
X244450Y130662D01*
X244470Y130687D01*
X244494Y130708D01*
X244554Y130800D01*
X244620Y130887D01*
X244631Y130917D01*
X244649Y130944D01*
X244681Y131049D01*
X244719Y131151D01*
X244722Y131183D01*
X244731Y131214D01*
X244732Y131323D01*
X244741Y131432D01*
X244734Y131464D01*
X244735Y131496D01*
X244706Y131602D01*
X244683Y131708D01*
X244668Y131737D01*
X244660Y131768D01*
X244602Y131861D01*
X244551Y131957D01*
X244528Y131980D01*
X244511Y132008D01*
X244430Y132081D01*
X244354Y132159D01*
X244326Y132175D01*
X244302Y132197D01*
X244204Y132245D01*
X244109Y132298D01*
X244077Y132306D01*
X244048Y132320D01*
X243959Y132334D01*
X243834Y132363D01*
X243829Y132363D01*
X241777Y133213D01*
X240307Y134683D01*
X240256Y134721D01*
X240211Y134767D01*
X240144Y134806D01*
X240082Y134852D01*
X240022Y134875D01*
X239966Y134906D01*
X239890Y134924D01*
X239818Y134952D01*
X239754Y134957D01*
X239691Y134971D01*
X239614Y134967D01*
X239537Y134973D01*
X239474Y134960D01*
X239409Y134957D01*
X239336Y134932D01*
X239261Y134916D01*
X239204Y134886D01*
X239143Y134865D01*
X239086Y134823D01*
X239012Y134783D01*
X238951Y134724D01*
X238894Y134683D01*
X169474Y65263D01*
X169469Y65255D01*
X169461Y65250D01*
X169384Y65142D01*
X169305Y65037D01*
X169302Y65028D01*
X169296Y65021D01*
X169252Y64897D01*
X169205Y64774D01*
X169205Y64764D01*
X169202Y64755D01*
X169194Y64623D01*
X169184Y64492D01*
X169186Y64483D01*
X169185Y64474D01*
X169203Y64398D01*
X169241Y64216D01*
X169253Y64195D01*
X169258Y64174D01*
X169307Y64056D01*
X169307Y61944D01*
X168499Y59994D01*
X167006Y58501D01*
X165056Y57693D01*
X162944Y57693D01*
X160994Y58501D01*
X159501Y59994D01*
X158693Y61944D01*
X158693Y64056D01*
X159501Y66006D01*
X160994Y67499D01*
X161112Y67548D01*
X161121Y67553D01*
X161130Y67555D01*
X161242Y67624D01*
X161355Y67691D01*
X161362Y67698D01*
X161370Y67703D01*
X161458Y67801D01*
X161548Y67897D01*
X161552Y67906D01*
X161559Y67913D01*
X161616Y68031D01*
X161676Y68149D01*
X161678Y68158D01*
X161682Y68166D01*
X161694Y68243D01*
X161728Y68426D01*
X161726Y68450D01*
X161729Y68471D01*
X161729Y70363D01*
X170660Y79293D01*
X170717Y79370D01*
X170782Y79441D01*
X170802Y79482D01*
X170829Y79519D01*
X170863Y79609D01*
X170905Y79695D01*
X170911Y79737D01*
X170928Y79783D01*
X170938Y79910D01*
X170952Y80000D01*
X170952Y165164D01*
X172575Y166786D01*
X183526Y177737D01*
X183531Y177745D01*
X183539Y177750D01*
X183616Y177857D01*
X183695Y177963D01*
X183698Y177972D01*
X183704Y177979D01*
X183748Y178103D01*
X183795Y178226D01*
X183795Y178236D01*
X183798Y178245D01*
X183806Y178376D01*
X183816Y178508D01*
X183814Y178517D01*
X183815Y178526D01*
X183797Y178602D01*
X183759Y178784D01*
X183747Y178805D01*
X183742Y178826D01*
X183693Y178944D01*
X183693Y181056D01*
X184501Y183006D01*
X185994Y184499D01*
X187944Y185307D01*
X190056Y185307D01*
X192006Y184499D01*
X193499Y183006D01*
X194307Y181056D01*
X194307Y178944D01*
X193499Y176994D01*
X192006Y175501D01*
X190056Y174693D01*
X187944Y174693D01*
X187826Y174742D01*
X187817Y174745D01*
X187809Y174749D01*
X187680Y174780D01*
X187553Y174812D01*
X187543Y174812D01*
X187534Y174814D01*
X187401Y174808D01*
X187271Y174803D01*
X187262Y174800D01*
X187252Y174800D01*
X187128Y174757D01*
X187003Y174716D01*
X186995Y174711D01*
X186986Y174707D01*
X186924Y174662D01*
X186770Y174557D01*
X186754Y174538D01*
X186737Y174526D01*
X175786Y163575D01*
X175771Y163554D01*
X175754Y163540D01*
X175722Y163490D01*
X175664Y163427D01*
X175644Y163386D01*
X175617Y163350D01*
X175600Y163305D01*
X175600Y163304D01*
X175598Y163299D01*
X175583Y163259D01*
X175541Y163173D01*
X175535Y163131D01*
X175518Y163086D01*
X175508Y162958D01*
X175494Y162869D01*
X175494Y80117D01*
X175498Y80085D01*
X175496Y80053D01*
X175518Y79946D01*
X175534Y79838D01*
X175547Y79809D01*
X175553Y79777D01*
X175605Y79681D01*
X175650Y79581D01*
X175671Y79557D01*
X175686Y79528D01*
X175762Y79450D01*
X175833Y79367D01*
X175860Y79349D01*
X175883Y79326D01*
X175978Y79272D01*
X176069Y79213D01*
X176100Y79203D01*
X176128Y79187D01*
X176235Y79162D01*
X176339Y79130D01*
X176371Y79130D01*
X176402Y79122D01*
X176512Y79128D01*
X176621Y79126D01*
X176652Y79135D01*
X176684Y79137D01*
X176787Y79172D01*
X176893Y79202D01*
X176920Y79219D01*
X176951Y79229D01*
X177024Y79282D01*
X177133Y79350D01*
X177165Y79386D01*
X177200Y79411D01*
X200776Y102987D01*
X200795Y103013D01*
X200820Y103034D01*
X200880Y103126D01*
X200945Y103213D01*
X200957Y103243D01*
X200974Y103270D01*
X201006Y103375D01*
X201045Y103477D01*
X201047Y103509D01*
X201057Y103540D01*
X201058Y103649D01*
X201067Y103758D01*
X201060Y103790D01*
X201061Y103822D01*
X201031Y103927D01*
X201009Y104034D01*
X200994Y104063D01*
X200985Y104094D01*
X200928Y104187D01*
X200877Y104283D01*
X200854Y104306D01*
X200837Y104334D01*
X200756Y104407D01*
X200680Y104485D01*
X200652Y104501D01*
X200628Y104523D01*
X200530Y104570D01*
X200435Y104624D01*
X200403Y104632D01*
X200374Y104646D01*
X200285Y104660D01*
X200160Y104689D01*
X200112Y104687D01*
X200070Y104693D01*
X198944Y104693D01*
X196994Y105501D01*
X195501Y106994D01*
X194693Y108944D01*
X194693Y111056D01*
X195501Y113006D01*
X196994Y114499D01*
X198944Y115307D01*
X201056Y115307D01*
X203154Y114437D01*
X203164Y114435D01*
X203172Y114430D01*
X203301Y114400D01*
X203428Y114367D01*
X203437Y114368D01*
X203446Y114365D01*
X203579Y114372D01*
X203709Y114376D01*
X203718Y114379D01*
X203728Y114380D01*
X203853Y114423D01*
X203978Y114464D01*
X203985Y114469D01*
X203994Y114472D01*
X204056Y114518D01*
X204211Y114623D01*
X204226Y114641D01*
X204243Y114654D01*
X213012Y123423D01*
X213064Y123492D01*
X213124Y123556D01*
X213149Y123605D01*
X213182Y123649D01*
X213212Y123730D01*
X213252Y123807D01*
X213262Y123861D01*
X213281Y123912D01*
X213288Y123999D01*
X213304Y124084D01*
X213299Y124139D01*
X213303Y124194D01*
X213285Y124279D01*
X213277Y124365D01*
X213257Y124416D01*
X213245Y124470D01*
X213205Y124546D01*
X213172Y124627D01*
X213139Y124670D01*
X213113Y124719D01*
X213052Y124781D01*
X212999Y124849D01*
X212954Y124881D01*
X212916Y124921D01*
X212841Y124964D01*
X212770Y125014D01*
X212719Y125033D01*
X212671Y125060D01*
X212586Y125080D01*
X212505Y125109D01*
X212450Y125112D01*
X212396Y125125D01*
X212310Y125120D01*
X212223Y125125D01*
X212173Y125113D01*
X212115Y125110D01*
X212007Y125073D01*
X211923Y125053D01*
X211056Y124693D01*
X208944Y124693D01*
X206994Y125501D01*
X205501Y126994D01*
X204693Y128944D01*
X204693Y131056D01*
X205501Y133006D01*
X206994Y134499D01*
X207112Y134548D01*
X207121Y134553D01*
X207130Y134555D01*
X207242Y134624D01*
X207355Y134691D01*
X207362Y134698D01*
X207370Y134703D01*
X207458Y134801D01*
X207548Y134897D01*
X207552Y134906D01*
X207559Y134913D01*
X207616Y135031D01*
X207676Y135149D01*
X207678Y135158D01*
X207682Y135166D01*
X207694Y135243D01*
X207728Y135426D01*
X207726Y135450D01*
X207729Y135471D01*
X207729Y157140D01*
X209352Y158763D01*
X219660Y169070D01*
X219717Y169147D01*
X219782Y169218D01*
X219802Y169259D01*
X219829Y169296D01*
X219863Y169386D01*
X219905Y169472D01*
X219911Y169514D01*
X219928Y169560D01*
X219938Y169687D01*
X219952Y169777D01*
X219952Y331412D01*
X219939Y331506D01*
X219934Y331603D01*
X219919Y331646D01*
X219912Y331691D01*
X219873Y331778D01*
X219841Y331869D01*
X219816Y331904D01*
X219796Y331948D01*
X219713Y332045D01*
X219660Y332118D01*
X191252Y360526D01*
X191244Y360531D01*
X191239Y360539D01*
X191132Y360616D01*
X191026Y360695D01*
X191017Y360698D01*
X191010Y360704D01*
X190886Y360748D01*
X190763Y360795D01*
X190753Y360795D01*
X190744Y360798D01*
X190613Y360806D01*
X190481Y360816D01*
X190472Y360814D01*
X190463Y360815D01*
X190387Y360797D01*
X190205Y360759D01*
X190184Y360747D01*
X190163Y360742D01*
X190045Y360693D01*
X187933Y360693D01*
X185983Y361501D01*
X184490Y362994D01*
X183682Y364944D01*
X183682Y367056D01*
X184490Y369006D01*
X185983Y370499D01*
X187933Y371307D01*
X190045Y371307D01*
X191995Y370499D01*
X193488Y369006D01*
X194296Y367056D01*
X194296Y364944D01*
X194247Y364826D01*
X194244Y364817D01*
X194240Y364809D01*
X194209Y364680D01*
X194177Y364553D01*
X194177Y364543D01*
X194175Y364534D01*
X194181Y364401D01*
X194186Y364271D01*
X194189Y364262D01*
X194189Y364252D01*
X194232Y364128D01*
X194273Y364003D01*
X194278Y363995D01*
X194282Y363986D01*
X194327Y363924D01*
X194432Y363770D01*
X194451Y363754D01*
X194463Y363737D01*
X222871Y335329D01*
X224494Y333707D01*
X224494Y183298D01*
X224498Y183266D01*
X224496Y183234D01*
X224518Y183127D01*
X224534Y183019D01*
X224547Y182989D01*
X224553Y182958D01*
X224605Y182861D01*
X224650Y182762D01*
X224671Y182737D01*
X224686Y182709D01*
X224762Y182630D01*
X224833Y182548D01*
X224860Y182530D01*
X224883Y182507D01*
X224978Y182453D01*
X225069Y182393D01*
X225100Y182384D01*
X225128Y182368D01*
X225234Y182343D01*
X225339Y182311D01*
X225371Y182310D01*
X225402Y182303D01*
X225512Y182308D01*
X225621Y182307D01*
X225652Y182316D01*
X225684Y182317D01*
X225787Y182353D01*
X225893Y182382D01*
X225920Y182399D01*
X225951Y182410D01*
X226024Y182463D01*
X226133Y182530D01*
X226165Y182566D01*
X226200Y182591D01*
X226994Y183386D01*
X228944Y184194D01*
X231056Y184194D01*
X233006Y183386D01*
X234499Y181893D01*
X235307Y179943D01*
X235307Y177831D01*
X234499Y175881D01*
X233006Y174388D01*
X232888Y174339D01*
X232879Y174334D01*
X232870Y174332D01*
X232758Y174263D01*
X232645Y174196D01*
X232638Y174189D01*
X232630Y174184D01*
X232542Y174086D01*
X232452Y173990D01*
X232448Y173981D01*
X232441Y173974D01*
X232384Y173856D01*
X232324Y173738D01*
X232322Y173729D01*
X232318Y173721D01*
X232306Y173644D01*
X232272Y173461D01*
X232274Y173437D01*
X232271Y173416D01*
X232271Y136894D01*
X232275Y136862D01*
X232273Y136830D01*
X232279Y136799D01*
X232279Y136772D01*
X232298Y136702D01*
X232311Y136615D01*
X232324Y136586D01*
X232330Y136554D01*
X232348Y136520D01*
X232354Y136500D01*
X232386Y136448D01*
X232427Y136358D01*
X232448Y136334D01*
X232463Y136305D01*
X232494Y136273D01*
X232502Y136260D01*
X232541Y136225D01*
X232610Y136144D01*
X232637Y136126D01*
X232660Y136103D01*
X232703Y136079D01*
X232712Y136071D01*
X232748Y136053D01*
X232755Y136049D01*
X232846Y135990D01*
X232877Y135980D01*
X232905Y135964D01*
X232957Y135952D01*
X232965Y135948D01*
X232992Y135944D01*
X233012Y135939D01*
X233116Y135907D01*
X233148Y135907D01*
X233179Y135899D01*
X233252Y135903D01*
X233270Y135900D01*
X233275Y135900D01*
X233306Y135905D01*
X233398Y135903D01*
X233429Y135912D01*
X233461Y135914D01*
X233525Y135936D01*
X233554Y135940D01*
X233592Y135957D01*
X233670Y135979D01*
X233697Y135996D01*
X233728Y136006D01*
X233772Y136039D01*
X233811Y136056D01*
X233852Y136091D01*
X233910Y136127D01*
X233942Y136163D01*
X233977Y136188D01*
X237984Y140195D01*
X239183Y140195D01*
X239192Y140196D01*
X239201Y140195D01*
X239331Y140216D01*
X239462Y140235D01*
X239470Y140239D01*
X239480Y140240D01*
X239599Y140297D01*
X239719Y140351D01*
X239726Y140357D01*
X239734Y140361D01*
X239833Y140449D01*
X239933Y140534D01*
X239938Y140542D01*
X239945Y140549D01*
X239985Y140614D01*
X240087Y140770D01*
X240094Y140793D01*
X240106Y140812D01*
X240213Y141072D01*
X241776Y142635D01*
X243819Y143481D01*
X246029Y143481D01*
X248072Y142635D01*
X249635Y141072D01*
X250490Y139008D01*
X250505Y138934D01*
X250521Y138825D01*
X250534Y138796D01*
X250541Y138764D01*
X250592Y138668D01*
X250637Y138568D01*
X250658Y138544D01*
X250673Y138515D01*
X250749Y138437D01*
X250820Y138354D01*
X250847Y138336D01*
X250870Y138313D01*
X250965Y138260D01*
X251056Y138200D01*
X251087Y138190D01*
X251115Y138174D01*
X251222Y138149D01*
X251326Y138117D01*
X251358Y138117D01*
X251390Y138109D01*
X251499Y138115D01*
X251608Y138114D01*
X251639Y138122D01*
X251671Y138124D01*
X251775Y138160D01*
X251880Y138189D01*
X251907Y138206D01*
X251938Y138216D01*
X252011Y138270D01*
X252120Y138337D01*
X252152Y138373D01*
X252187Y138398D01*
X261526Y147737D01*
X261531Y147745D01*
X261539Y147750D01*
X261616Y147857D01*
X261695Y147963D01*
X261698Y147972D01*
X261704Y147979D01*
X261748Y148103D01*
X261795Y148226D01*
X261795Y148236D01*
X261798Y148245D01*
X261806Y148376D01*
X261816Y148508D01*
X261814Y148517D01*
X261815Y148526D01*
X261797Y148602D01*
X261759Y148784D01*
X261747Y148805D01*
X261742Y148826D01*
X261693Y148944D01*
X261693Y151056D01*
X262501Y153006D01*
X263994Y154499D01*
X265944Y155307D01*
X268056Y155307D01*
X270006Y154499D01*
X271499Y153006D01*
X272307Y151056D01*
X272307Y148944D01*
X271499Y146994D01*
X270006Y145501D01*
X268056Y144693D01*
X265944Y144693D01*
X265826Y144742D01*
X265817Y144745D01*
X265809Y144749D01*
X265680Y144780D01*
X265553Y144812D01*
X265543Y144812D01*
X265534Y144814D01*
X265401Y144808D01*
X265271Y144803D01*
X265262Y144800D01*
X265252Y144800D01*
X265128Y144757D01*
X265003Y144716D01*
X264995Y144711D01*
X264986Y144707D01*
X264924Y144662D01*
X264770Y144557D01*
X264754Y144538D01*
X264737Y144526D01*
X235047Y114836D01*
X235028Y114810D01*
X235003Y114789D01*
X234943Y114697D01*
X234878Y114610D01*
X234866Y114580D01*
X234849Y114553D01*
X234817Y114448D01*
X234778Y114346D01*
X234776Y114314D01*
X234766Y114283D01*
X234765Y114174D01*
X234756Y114065D01*
X234763Y114033D01*
X234762Y114001D01*
X234792Y113896D01*
X234814Y113789D01*
X234829Y113760D01*
X234838Y113729D01*
X234895Y113636D01*
X234946Y113540D01*
X234969Y113517D01*
X234986Y113489D01*
X235067Y113416D01*
X235143Y113338D01*
X235171Y113322D01*
X235195Y113300D01*
X235293Y113253D01*
X235388Y113199D01*
X235420Y113191D01*
X235449Y113177D01*
X235538Y113163D01*
X235663Y113134D01*
X235711Y113136D01*
X235753Y113130D01*
X243505Y113130D01*
X243599Y113143D01*
X243696Y113148D01*
X243739Y113163D01*
X243784Y113170D01*
X243871Y113209D01*
X243962Y113241D01*
X243997Y113266D01*
X244041Y113286D01*
X244138Y113369D01*
X244211Y113422D01*
X285526Y154737D01*
X285531Y154745D01*
X285539Y154750D01*
X285616Y154857D01*
X285695Y154963D01*
X285698Y154972D01*
X285704Y154979D01*
X285748Y155103D01*
X285795Y155226D01*
X285795Y155236D01*
X285798Y155245D01*
X285806Y155376D01*
X285816Y155508D01*
X285814Y155517D01*
X285815Y155526D01*
X285797Y155602D01*
X285759Y155784D01*
X285747Y155805D01*
X285742Y155826D01*
X285693Y155944D01*
X285693Y158056D01*
X286501Y160006D01*
X287994Y161499D01*
X289944Y162307D01*
X292056Y162307D01*
X294006Y161499D01*
X295499Y160006D01*
X296161Y158408D01*
X296221Y158306D01*
X296277Y158201D01*
X296293Y158185D01*
X296304Y158165D01*
X296391Y158084D01*
X296474Y157999D01*
X296494Y157988D01*
X296510Y157972D01*
X296616Y157919D01*
X296719Y157860D01*
X296741Y157855D01*
X296762Y157845D01*
X296878Y157823D01*
X296993Y157795D01*
X297016Y157796D01*
X297039Y157792D01*
X297156Y157803D01*
X297275Y157810D01*
X297297Y157817D01*
X297319Y157819D01*
X297429Y157863D01*
X297542Y157902D01*
X297559Y157915D01*
X297581Y157924D01*
X297728Y158038D01*
X297791Y158084D01*
X357255Y217548D01*
X358877Y219171D01*
X387900Y219171D01*
X387932Y219175D01*
X387964Y219173D01*
X388071Y219195D01*
X388179Y219211D01*
X388208Y219224D01*
X388240Y219230D01*
X388336Y219282D01*
X388436Y219327D01*
X388460Y219348D01*
X388489Y219363D01*
X388567Y219439D01*
X388650Y219510D01*
X388668Y219537D01*
X388691Y219560D01*
X388745Y219655D01*
X388804Y219746D01*
X388814Y219777D01*
X388830Y219805D01*
X388855Y219912D01*
X388887Y220016D01*
X388887Y220048D01*
X388895Y220079D01*
X388889Y220189D01*
X388891Y220298D01*
X388882Y220329D01*
X388880Y220361D01*
X388845Y220464D01*
X388815Y220570D01*
X388798Y220597D01*
X388788Y220628D01*
X388735Y220701D01*
X388667Y220810D01*
X388631Y220842D01*
X388606Y220877D01*
X376263Y233220D01*
X376255Y233225D01*
X376250Y233233D01*
X376143Y233310D01*
X376037Y233389D01*
X376028Y233392D01*
X376021Y233398D01*
X375897Y233442D01*
X375774Y233489D01*
X375764Y233489D01*
X375755Y233492D01*
X375624Y233500D01*
X375492Y233510D01*
X375483Y233508D01*
X375474Y233509D01*
X375398Y233491D01*
X375216Y233453D01*
X375195Y233441D01*
X375174Y233436D01*
X375056Y233387D01*
X372944Y233387D01*
X370994Y234195D01*
X369501Y235688D01*
X368693Y237638D01*
X368693Y239750D01*
X369355Y241348D01*
X369385Y241463D01*
X369419Y241576D01*
X369420Y241599D01*
X369425Y241621D01*
X369422Y241739D01*
X369423Y241858D01*
X369417Y241880D01*
X369416Y241903D01*
X369380Y242015D01*
X369348Y242130D01*
X369336Y242149D01*
X369329Y242171D01*
X369262Y242269D01*
X369200Y242370D01*
X369183Y242385D01*
X369170Y242404D01*
X369078Y242479D01*
X368990Y242559D01*
X368970Y242569D01*
X368952Y242583D01*
X368843Y242630D01*
X368737Y242682D01*
X368715Y242685D01*
X368693Y242695D01*
X368508Y242717D01*
X368432Y242729D01*
X317354Y242729D01*
X317260Y242716D01*
X317163Y242711D01*
X317120Y242696D01*
X317075Y242689D01*
X316988Y242650D01*
X316897Y242618D01*
X316862Y242593D01*
X316818Y242573D01*
X316721Y242490D01*
X316648Y242437D01*
X251474Y177263D01*
X251469Y177255D01*
X251461Y177250D01*
X251384Y177143D01*
X251305Y177037D01*
X251302Y177028D01*
X251296Y177021D01*
X251252Y176897D01*
X251205Y176774D01*
X251205Y176764D01*
X251202Y176755D01*
X251194Y176624D01*
X251184Y176492D01*
X251186Y176483D01*
X251185Y176474D01*
X251203Y176398D01*
X251241Y176216D01*
X251253Y176195D01*
X251258Y176174D01*
X251307Y176056D01*
X251307Y173944D01*
X250499Y171994D01*
X249006Y170501D01*
X247056Y169693D01*
X244944Y169693D01*
X242994Y170501D01*
X241501Y171994D01*
X240693Y173944D01*
X240693Y176056D01*
X241501Y178006D01*
X242994Y179499D01*
X244944Y180307D01*
X247056Y180307D01*
X247174Y180258D01*
X247183Y180255D01*
X247191Y180251D01*
X247320Y180220D01*
X247447Y180188D01*
X247457Y180188D01*
X247466Y180186D01*
X247599Y180192D01*
X247729Y180197D01*
X247738Y180200D01*
X247748Y180200D01*
X247872Y180243D01*
X247997Y180284D01*
X248005Y180289D01*
X248014Y180293D01*
X248076Y180338D01*
X248230Y180443D01*
X248246Y180462D01*
X248263Y180474D01*
X315059Y247271D01*
X390063Y247271D01*
X390159Y247284D01*
X390255Y247289D01*
X390298Y247304D01*
X390343Y247311D01*
X390430Y247350D01*
X390521Y247382D01*
X390555Y247407D01*
X390600Y247427D01*
X390697Y247510D01*
X390770Y247563D01*
X393044Y249837D01*
X396312Y251191D01*
X415088Y251191D01*
X418356Y249837D01*
X420857Y247336D01*
X421877Y244875D01*
X421921Y244800D01*
X421957Y244721D01*
X421993Y244679D01*
X422020Y244632D01*
X422084Y244573D01*
X422140Y244506D01*
X422186Y244476D01*
X422226Y244439D01*
X422303Y244400D01*
X422376Y244352D01*
X422429Y244336D01*
X422478Y244311D01*
X422563Y244295D01*
X422646Y244270D01*
X422701Y244269D01*
X422755Y244259D01*
X422841Y244267D01*
X422928Y244266D01*
X422981Y244281D01*
X423035Y244286D01*
X423116Y244318D01*
X423200Y244341D01*
X423247Y244370D01*
X423297Y244390D01*
X423366Y244444D01*
X423440Y244489D01*
X423476Y244530D01*
X423520Y244564D01*
X423571Y244634D01*
X423629Y244699D01*
X423653Y244748D01*
X423685Y244792D01*
X423714Y244874D01*
X423752Y244952D01*
X423760Y245003D01*
X423779Y245058D01*
X423786Y245172D01*
X423799Y245257D01*
X423799Y264743D01*
X423787Y264829D01*
X423784Y264916D01*
X423767Y264968D01*
X423759Y265022D01*
X423724Y265101D01*
X423697Y265184D01*
X423666Y265229D01*
X423643Y265279D01*
X423587Y265345D01*
X423538Y265417D01*
X423496Y265452D01*
X423460Y265494D01*
X423387Y265541D01*
X423320Y265596D01*
X423270Y265618D01*
X423224Y265648D01*
X423141Y265673D01*
X423061Y265708D01*
X423007Y265714D01*
X422954Y265730D01*
X422867Y265732D01*
X422781Y265742D01*
X422727Y265733D01*
X422672Y265734D01*
X422588Y265711D01*
X422503Y265697D01*
X422453Y265674D01*
X422400Y265659D01*
X422327Y265613D01*
X422248Y265576D01*
X422207Y265540D01*
X422160Y265511D01*
X422102Y265446D01*
X422037Y265389D01*
X422011Y265345D01*
X421971Y265301D01*
X421922Y265199D01*
X421877Y265125D01*
X420857Y262664D01*
X418356Y260163D01*
X415088Y258809D01*
X396312Y258809D01*
X393044Y260163D01*
X390543Y262664D01*
X389189Y265931D01*
X389189Y269468D01*
X390543Y272736D01*
X393044Y275237D01*
X396312Y276591D01*
X415088Y276591D01*
X418356Y275237D01*
X420857Y272736D01*
X421877Y270275D01*
X421921Y270200D01*
X421957Y270121D01*
X421993Y270079D01*
X422020Y270032D01*
X422084Y269973D01*
X422140Y269906D01*
X422186Y269876D01*
X422226Y269839D01*
X422303Y269800D01*
X422376Y269752D01*
X422429Y269736D01*
X422478Y269711D01*
X422563Y269695D01*
X422646Y269670D01*
X422701Y269669D01*
X422755Y269659D01*
X422841Y269667D01*
X422928Y269666D01*
X422981Y269681D01*
X423035Y269686D01*
X423116Y269718D01*
X423200Y269741D01*
X423247Y269770D01*
X423297Y269790D01*
X423366Y269844D01*
X423440Y269889D01*
X423476Y269930D01*
X423520Y269964D01*
X423571Y270034D01*
X423629Y270099D01*
X423653Y270148D01*
X423685Y270192D01*
X423714Y270274D01*
X423752Y270352D01*
X423760Y270403D01*
X423779Y270458D01*
X423786Y270572D01*
X423799Y270657D01*
X423799Y315543D01*
X423787Y315629D01*
X423784Y315716D01*
X423767Y315768D01*
X423759Y315822D01*
X423724Y315901D01*
X423697Y315984D01*
X423666Y316029D01*
X423643Y316079D01*
X423587Y316145D01*
X423538Y316217D01*
X423496Y316252D01*
X423460Y316294D01*
X423387Y316341D01*
X423320Y316396D01*
X423270Y316418D01*
X423224Y316448D01*
X423141Y316473D01*
X423061Y316508D01*
X423007Y316514D01*
X422954Y316530D01*
X422867Y316532D01*
X422781Y316542D01*
X422727Y316533D01*
X422672Y316534D01*
X422588Y316511D01*
X422503Y316497D01*
X422453Y316474D01*
X422400Y316459D01*
X422327Y316413D01*
X422248Y316376D01*
X422207Y316340D01*
X422160Y316311D01*
X422102Y316246D01*
X422037Y316189D01*
X422011Y316145D01*
X421971Y316101D01*
X421922Y315999D01*
X421877Y315925D01*
X420857Y313464D01*
X418356Y310963D01*
X415088Y309609D01*
X396312Y309609D01*
X393044Y310963D01*
X390543Y313464D01*
X389189Y316731D01*
X389189Y320268D01*
X390543Y323536D01*
X393044Y326037D01*
X396312Y327391D01*
X415088Y327391D01*
X418356Y326037D01*
X420857Y323536D01*
X421877Y321075D01*
X421921Y321000D01*
X421957Y320921D01*
X421993Y320879D01*
X422020Y320832D01*
X422084Y320773D01*
X422140Y320706D01*
X422186Y320676D01*
X422226Y320639D01*
X422303Y320600D01*
X422376Y320552D01*
X422429Y320536D01*
X422478Y320511D01*
X422563Y320495D01*
X422646Y320470D01*
X422701Y320469D01*
X422755Y320459D01*
X422841Y320467D01*
X422928Y320466D01*
X422981Y320481D01*
X423035Y320486D01*
X423116Y320518D01*
X423200Y320541D01*
X423247Y320570D01*
X423297Y320590D01*
X423366Y320644D01*
X423440Y320689D01*
X423476Y320730D01*
X423520Y320764D01*
X423571Y320834D01*
X423629Y320899D01*
X423653Y320948D01*
X423685Y320992D01*
X423714Y321074D01*
X423752Y321152D01*
X423760Y321203D01*
X423779Y321258D01*
X423786Y321372D01*
X423799Y321457D01*
X423799Y383000D01*
X423790Y383064D01*
X423791Y383128D01*
X423770Y383203D01*
X423759Y383279D01*
X423733Y383338D01*
X423716Y383400D01*
X423675Y383466D01*
X423643Y383536D01*
X423601Y383585D01*
X423568Y383640D01*
X423510Y383692D01*
X423460Y383750D01*
X423406Y383786D01*
X423358Y383829D01*
X423289Y383862D01*
X423224Y383905D01*
X423162Y383924D01*
X423105Y383952D01*
X423035Y383963D01*
X422954Y383987D01*
X422869Y383988D01*
X422800Y383999D01*
X3000Y383999D01*
X2936Y383990D01*
X2872Y383991D01*
X2797Y383970D01*
X2721Y383959D01*
X2662Y383933D01*
X2600Y383916D01*
X2534Y383875D01*
X2464Y383843D01*
X2415Y383801D01*
X2360Y383768D01*
X2308Y383710D01*
X2250Y383660D01*
X2214Y383606D01*
X2171Y383558D01*
X2138Y383489D01*
X2095Y383424D01*
X2076Y383362D01*
X2048Y383305D01*
X2037Y383235D01*
X2013Y383154D01*
X2012Y383069D01*
X2001Y383000D01*
X2001Y3000D01*
X2010Y2936D01*
X2009Y2872D01*
X2030Y2797D01*
X2041Y2721D01*
X2067Y2662D01*
X2084Y2600D01*
X2125Y2534D01*
X2157Y2464D01*
X2199Y2415D01*
X2232Y2360D01*
X2290Y2308D01*
X2340Y2250D01*
X2394Y2214D01*
X2442Y2171D01*
X2511Y2138D01*
X2576Y2095D01*
X2638Y2076D01*
X2695Y2048D01*
X2765Y2037D01*
X2846Y2013D01*
X2931Y2012D01*
X3000Y2001D01*
X422800Y2001D01*
X422864Y2010D01*
G37*
%LPC*%
G36*
X126900Y16708D02*
X126900Y16708D01*
X124858Y17554D01*
X123295Y19117D01*
X122449Y21160D01*
X122449Y23370D01*
X122556Y23630D01*
X122559Y23640D01*
X122563Y23648D01*
X122594Y23777D01*
X122602Y23808D01*
X122609Y23830D01*
X122609Y23835D01*
X122626Y23903D01*
X122626Y23913D01*
X122628Y23922D01*
X122622Y24055D01*
X122617Y24185D01*
X122614Y24194D01*
X122614Y24204D01*
X122571Y24329D01*
X122530Y24454D01*
X122525Y24461D01*
X122521Y24470D01*
X122476Y24533D01*
X122371Y24687D01*
X122352Y24702D01*
X122340Y24719D01*
X122222Y24837D01*
X122222Y96907D01*
X122218Y96939D01*
X122220Y96971D01*
X122198Y97078D01*
X122182Y97186D01*
X122169Y97216D01*
X122163Y97247D01*
X122111Y97344D01*
X122066Y97443D01*
X122045Y97468D01*
X122030Y97496D01*
X121954Y97575D01*
X121883Y97657D01*
X121856Y97675D01*
X121833Y97698D01*
X121739Y97752D01*
X121647Y97812D01*
X121616Y97821D01*
X121588Y97837D01*
X121482Y97862D01*
X121377Y97894D01*
X121345Y97895D01*
X121314Y97902D01*
X121204Y97897D01*
X121095Y97898D01*
X121064Y97889D01*
X121032Y97888D01*
X120929Y97852D01*
X120823Y97823D01*
X120796Y97806D01*
X120765Y97795D01*
X120692Y97742D01*
X120583Y97675D01*
X120551Y97639D01*
X120516Y97614D01*
X120006Y97103D01*
X118056Y96295D01*
X115944Y96295D01*
X113994Y97103D01*
X112501Y98596D01*
X112370Y98913D01*
X112348Y98949D01*
X112335Y98989D01*
X112284Y99058D01*
X112226Y99156D01*
X112183Y99196D01*
X112153Y99238D01*
X110173Y101218D01*
X110096Y101276D01*
X110025Y101340D01*
X109984Y101360D01*
X109947Y101387D01*
X109857Y101421D01*
X109771Y101463D01*
X109729Y101470D01*
X109683Y101487D01*
X109556Y101497D01*
X109466Y101511D01*
X75278Y101511D01*
X69352Y107437D01*
X69275Y107494D01*
X69204Y107559D01*
X69163Y107579D01*
X69127Y107606D01*
X69036Y107640D01*
X68950Y107682D01*
X68908Y107688D01*
X68863Y107705D01*
X68735Y107715D01*
X68646Y107729D01*
X40553Y107729D01*
X40459Y107716D01*
X40362Y107711D01*
X40319Y107696D01*
X40274Y107689D01*
X40187Y107650D01*
X40096Y107618D01*
X40062Y107593D01*
X40017Y107573D01*
X39920Y107490D01*
X39847Y107437D01*
X37673Y105263D01*
X37668Y105255D01*
X37660Y105250D01*
X37583Y105142D01*
X37504Y105037D01*
X37501Y105029D01*
X37495Y105021D01*
X37451Y104897D01*
X37404Y104774D01*
X37404Y104764D01*
X37401Y104755D01*
X37393Y104624D01*
X37383Y104492D01*
X37385Y104483D01*
X37384Y104474D01*
X37402Y104398D01*
X37440Y104216D01*
X37452Y104195D01*
X37457Y104174D01*
X37506Y104056D01*
X37506Y101944D01*
X36698Y99994D01*
X35205Y98501D01*
X33255Y97693D01*
X31143Y97693D01*
X29193Y98501D01*
X27700Y99994D01*
X26892Y101944D01*
X26892Y104056D01*
X27700Y106006D01*
X29193Y107499D01*
X31143Y108307D01*
X33255Y108307D01*
X33373Y108258D01*
X33382Y108255D01*
X33390Y108251D01*
X33519Y108220D01*
X33646Y108188D01*
X33656Y108188D01*
X33665Y108186D01*
X33798Y108192D01*
X33928Y108197D01*
X33937Y108200D01*
X33947Y108200D01*
X34071Y108243D01*
X34196Y108284D01*
X34204Y108289D01*
X34213Y108293D01*
X34275Y108338D01*
X34429Y108443D01*
X34445Y108462D01*
X34462Y108474D01*
X35535Y109547D01*
X35554Y109573D01*
X35579Y109594D01*
X35639Y109686D01*
X35704Y109773D01*
X35716Y109803D01*
X35733Y109830D01*
X35765Y109935D01*
X35804Y110037D01*
X35806Y110069D01*
X35816Y110100D01*
X35817Y110209D01*
X35826Y110318D01*
X35819Y110350D01*
X35820Y110382D01*
X35790Y110487D01*
X35768Y110594D01*
X35753Y110623D01*
X35744Y110654D01*
X35687Y110747D01*
X35636Y110843D01*
X35613Y110866D01*
X35596Y110894D01*
X35515Y110967D01*
X35439Y111045D01*
X35411Y111061D01*
X35387Y111083D01*
X35289Y111130D01*
X35194Y111184D01*
X35162Y111192D01*
X35133Y111206D01*
X35044Y111220D01*
X34919Y111249D01*
X34871Y111247D01*
X34829Y111253D01*
X24679Y111253D01*
X24585Y111240D01*
X24488Y111235D01*
X24445Y111220D01*
X24400Y111213D01*
X24313Y111174D01*
X24222Y111142D01*
X24187Y111117D01*
X24143Y111097D01*
X24046Y111014D01*
X23973Y110961D01*
X18275Y105263D01*
X18270Y105255D01*
X18262Y105250D01*
X18185Y105143D01*
X18106Y105037D01*
X18103Y105028D01*
X18097Y105021D01*
X18053Y104897D01*
X18006Y104774D01*
X18006Y104764D01*
X18003Y104755D01*
X17995Y104624D01*
X17985Y104492D01*
X17987Y104483D01*
X17986Y104474D01*
X18004Y104398D01*
X18042Y104216D01*
X18054Y104195D01*
X18059Y104174D01*
X18108Y104056D01*
X18108Y101944D01*
X17300Y99994D01*
X15807Y98501D01*
X13857Y97693D01*
X11745Y97693D01*
X9795Y98501D01*
X8302Y99994D01*
X7494Y101944D01*
X7494Y104056D01*
X8302Y106006D01*
X9795Y107499D01*
X11745Y108307D01*
X13857Y108307D01*
X13975Y108258D01*
X13984Y108255D01*
X13992Y108251D01*
X14121Y108220D01*
X14248Y108188D01*
X14258Y108188D01*
X14267Y108186D01*
X14400Y108192D01*
X14530Y108197D01*
X14539Y108200D01*
X14549Y108200D01*
X14673Y108243D01*
X14798Y108284D01*
X14806Y108289D01*
X14815Y108293D01*
X14877Y108338D01*
X15031Y108443D01*
X15047Y108462D01*
X15064Y108474D01*
X20762Y114172D01*
X22384Y115795D01*
X67883Y115795D01*
X67915Y115799D01*
X67947Y115797D01*
X68054Y115819D01*
X68162Y115835D01*
X68191Y115848D01*
X68223Y115854D01*
X68320Y115906D01*
X68419Y115951D01*
X68443Y115972D01*
X68472Y115987D01*
X68550Y116063D01*
X68633Y116134D01*
X68651Y116161D01*
X68674Y116184D01*
X68728Y116279D01*
X68788Y116370D01*
X68797Y116401D01*
X68813Y116429D01*
X68838Y116536D01*
X68870Y116640D01*
X68871Y116672D01*
X68878Y116703D01*
X68872Y116813D01*
X68874Y116922D01*
X68865Y116953D01*
X68864Y116985D01*
X68828Y117088D01*
X68799Y117194D01*
X68782Y117221D01*
X68771Y117252D01*
X68718Y117325D01*
X68651Y117434D01*
X68614Y117466D01*
X68589Y117501D01*
X24685Y161405D01*
X24609Y161462D01*
X24537Y161527D01*
X24496Y161547D01*
X24460Y161574D01*
X24370Y161608D01*
X24283Y161650D01*
X24241Y161656D01*
X24196Y161673D01*
X24068Y161683D01*
X23979Y161697D01*
X21730Y161697D01*
X21635Y161684D01*
X21539Y161679D01*
X21496Y161664D01*
X21451Y161657D01*
X21364Y161618D01*
X21273Y161586D01*
X21238Y161561D01*
X21194Y161541D01*
X21097Y161458D01*
X21024Y161405D01*
X19908Y160289D01*
X17866Y159443D01*
X15655Y159443D01*
X13613Y160289D01*
X12050Y161852D01*
X11204Y163895D01*
X11204Y166105D01*
X12050Y168148D01*
X13613Y169711D01*
X15655Y170557D01*
X17866Y170557D01*
X19908Y169711D01*
X21024Y168595D01*
X21101Y168538D01*
X21172Y168473D01*
X21213Y168453D01*
X21249Y168426D01*
X21339Y168392D01*
X21426Y168350D01*
X21468Y168344D01*
X21513Y168327D01*
X21641Y168317D01*
X21730Y168303D01*
X27129Y168303D01*
X71836Y123595D01*
X71913Y123538D01*
X71984Y123473D01*
X72025Y123453D01*
X72062Y123426D01*
X72152Y123392D01*
X72238Y123350D01*
X72280Y123344D01*
X72326Y123327D01*
X72453Y123317D01*
X72543Y123303D01*
X102368Y123303D01*
X104071Y121599D01*
X104148Y121542D01*
X104220Y121477D01*
X104261Y121457D01*
X104297Y121430D01*
X104387Y121396D01*
X104473Y121354D01*
X104515Y121348D01*
X104561Y121331D01*
X104688Y121321D01*
X104778Y121307D01*
X106056Y121307D01*
X108006Y120499D01*
X109499Y119006D01*
X110284Y117111D01*
X110300Y117083D01*
X110310Y117052D01*
X110372Y116962D01*
X110428Y116868D01*
X110451Y116846D01*
X110469Y116819D01*
X110554Y116750D01*
X110633Y116675D01*
X110662Y116660D01*
X110687Y116640D01*
X110787Y116597D01*
X110885Y116547D01*
X110916Y116541D01*
X110946Y116528D01*
X111054Y116515D01*
X111162Y116495D01*
X111194Y116498D01*
X111226Y116494D01*
X111334Y116511D01*
X111443Y116522D01*
X111472Y116534D01*
X111504Y116539D01*
X111603Y116586D01*
X111704Y116626D01*
X111730Y116646D01*
X111759Y116660D01*
X111841Y116733D01*
X111927Y116800D01*
X111946Y116826D01*
X111970Y116847D01*
X112017Y116925D01*
X112092Y117029D01*
X112108Y117074D01*
X112130Y117111D01*
X112501Y118006D01*
X113994Y119499D01*
X115944Y120307D01*
X118056Y120307D01*
X120006Y119499D01*
X120516Y118988D01*
X120542Y118969D01*
X120563Y118945D01*
X120655Y118885D01*
X120742Y118819D01*
X120772Y118808D01*
X120799Y118790D01*
X120904Y118758D01*
X121006Y118720D01*
X121038Y118717D01*
X121069Y118708D01*
X121178Y118706D01*
X121287Y118698D01*
X121319Y118704D01*
X121351Y118704D01*
X121456Y118733D01*
X121563Y118755D01*
X121592Y118771D01*
X121623Y118779D01*
X121716Y118836D01*
X121812Y118888D01*
X121835Y118910D01*
X121863Y118927D01*
X121936Y119008D01*
X122014Y119085D01*
X122030Y119113D01*
X122052Y119137D01*
X122099Y119235D01*
X122153Y119330D01*
X122161Y119361D01*
X122175Y119390D01*
X122189Y119480D01*
X122218Y119604D01*
X122216Y119653D01*
X122222Y119695D01*
X122222Y144749D01*
X122209Y144844D01*
X122204Y144940D01*
X122189Y144984D01*
X122182Y145028D01*
X122143Y145116D01*
X122111Y145207D01*
X122086Y145241D01*
X122066Y145285D01*
X121983Y145383D01*
X121930Y145456D01*
X102190Y165195D01*
X102190Y334258D01*
X102189Y334268D01*
X102190Y334277D01*
X102169Y334407D01*
X102150Y334538D01*
X102147Y334546D01*
X102145Y334556D01*
X102088Y334675D01*
X102034Y334794D01*
X102028Y334802D01*
X102024Y334810D01*
X101936Y334909D01*
X101851Y335009D01*
X101843Y335014D01*
X101837Y335021D01*
X101771Y335061D01*
X101615Y335163D01*
X101592Y335170D01*
X101573Y335182D01*
X101313Y335289D01*
X99750Y336852D01*
X98904Y338895D01*
X98904Y341105D01*
X99750Y343148D01*
X101313Y344711D01*
X103356Y345557D01*
X105566Y345557D01*
X107609Y344711D01*
X109172Y343148D01*
X110018Y341105D01*
X110018Y338895D01*
X109172Y336852D01*
X107609Y335289D01*
X107349Y335182D01*
X107340Y335177D01*
X107331Y335174D01*
X107219Y335105D01*
X107106Y335038D01*
X107099Y335031D01*
X107091Y335026D01*
X107003Y334928D01*
X106913Y334832D01*
X106909Y334824D01*
X106902Y334817D01*
X106845Y334698D01*
X106785Y334581D01*
X106783Y334571D01*
X106779Y334563D01*
X106767Y334487D01*
X106733Y334304D01*
X106735Y334280D01*
X106732Y334258D01*
X106732Y167490D01*
X106745Y167395D01*
X106750Y167299D01*
X106765Y167256D01*
X106772Y167211D01*
X106811Y167124D01*
X106843Y167033D01*
X106868Y166998D01*
X106888Y166954D01*
X106971Y166857D01*
X107024Y166784D01*
X126764Y147044D01*
X126764Y40020D01*
X126768Y39988D01*
X126766Y39956D01*
X126788Y39849D01*
X126804Y39741D01*
X126817Y39711D01*
X126823Y39680D01*
X126875Y39583D01*
X126920Y39484D01*
X126941Y39459D01*
X126956Y39431D01*
X127032Y39353D01*
X127103Y39270D01*
X127130Y39252D01*
X127153Y39229D01*
X127248Y39175D01*
X127339Y39115D01*
X127370Y39106D01*
X127398Y39090D01*
X127504Y39065D01*
X127609Y39033D01*
X127641Y39032D01*
X127672Y39025D01*
X127782Y39030D01*
X127891Y39029D01*
X127922Y39038D01*
X127954Y39039D01*
X128057Y39075D01*
X128163Y39104D01*
X128190Y39121D01*
X128221Y39132D01*
X128294Y39185D01*
X128403Y39252D01*
X128435Y39288D01*
X128470Y39313D01*
X129655Y40499D01*
X129773Y40548D01*
X129782Y40553D01*
X129791Y40555D01*
X129903Y40625D01*
X130016Y40692D01*
X130023Y40698D01*
X130031Y40703D01*
X130119Y40801D01*
X130209Y40897D01*
X130213Y40906D01*
X130220Y40913D01*
X130277Y41031D01*
X130337Y41149D01*
X130339Y41158D01*
X130343Y41166D01*
X130355Y41243D01*
X130389Y41426D01*
X130387Y41450D01*
X130390Y41471D01*
X130390Y164602D01*
X132013Y166224D01*
X143526Y177737D01*
X143531Y177745D01*
X143539Y177750D01*
X143616Y177857D01*
X143695Y177963D01*
X143698Y177972D01*
X143704Y177979D01*
X143748Y178103D01*
X143795Y178226D01*
X143795Y178236D01*
X143798Y178245D01*
X143806Y178376D01*
X143816Y178508D01*
X143814Y178517D01*
X143815Y178526D01*
X143797Y178602D01*
X143759Y178784D01*
X143747Y178805D01*
X143742Y178826D01*
X143693Y178944D01*
X143693Y181056D01*
X144501Y183006D01*
X145994Y184499D01*
X147944Y185307D01*
X150056Y185307D01*
X152006Y184499D01*
X153499Y183006D01*
X154307Y181056D01*
X154307Y178944D01*
X153499Y176994D01*
X152006Y175501D01*
X150056Y174693D01*
X147944Y174693D01*
X147826Y174742D01*
X147817Y174745D01*
X147809Y174749D01*
X147680Y174780D01*
X147553Y174812D01*
X147543Y174812D01*
X147534Y174814D01*
X147401Y174808D01*
X147271Y174803D01*
X147262Y174800D01*
X147252Y174800D01*
X147128Y174757D01*
X147003Y174716D01*
X146995Y174711D01*
X146986Y174707D01*
X146924Y174662D01*
X146770Y174557D01*
X146754Y174538D01*
X146737Y174526D01*
X135224Y163013D01*
X135167Y162936D01*
X135102Y162865D01*
X135082Y162824D01*
X135055Y162788D01*
X135021Y162697D01*
X134979Y162611D01*
X134973Y162569D01*
X134956Y162524D01*
X134946Y162396D01*
X134932Y162307D01*
X134932Y41471D01*
X134933Y41462D01*
X134932Y41452D01*
X134953Y41322D01*
X134972Y41192D01*
X134975Y41183D01*
X134977Y41174D01*
X135034Y41055D01*
X135088Y40935D01*
X135094Y40928D01*
X135098Y40919D01*
X135186Y40820D01*
X135271Y40721D01*
X135279Y40715D01*
X135285Y40708D01*
X135351Y40668D01*
X135507Y40566D01*
X135530Y40559D01*
X135549Y40548D01*
X135667Y40499D01*
X137160Y39006D01*
X137968Y37056D01*
X137968Y34944D01*
X137160Y32994D01*
X135667Y31501D01*
X133717Y30693D01*
X131605Y30693D01*
X129655Y31501D01*
X128470Y32687D01*
X128444Y32706D01*
X128423Y32730D01*
X128368Y32766D01*
X128323Y32807D01*
X128284Y32826D01*
X128244Y32856D01*
X128214Y32867D01*
X128187Y32885D01*
X128120Y32905D01*
X128069Y32930D01*
X128032Y32936D01*
X127980Y32955D01*
X127948Y32958D01*
X127917Y32967D01*
X127822Y32969D01*
X127765Y32977D01*
X127763Y32977D01*
X127739Y32974D01*
X127699Y32977D01*
X127667Y32971D01*
X127635Y32971D01*
X127547Y32947D01*
X127484Y32938D01*
X127462Y32928D01*
X127423Y32920D01*
X127394Y32904D01*
X127363Y32896D01*
X127286Y32848D01*
X127227Y32821D01*
X127208Y32805D01*
X127174Y32787D01*
X127151Y32765D01*
X127123Y32748D01*
X127064Y32682D01*
X127013Y32638D01*
X126998Y32616D01*
X126972Y32590D01*
X126956Y32562D01*
X126934Y32538D01*
X126897Y32462D01*
X126858Y32402D01*
X126850Y32375D01*
X126833Y32345D01*
X126825Y32314D01*
X126811Y32285D01*
X126800Y32212D01*
X126776Y32132D01*
X126775Y32102D01*
X126768Y32071D01*
X126770Y32022D01*
X126764Y31980D01*
X126764Y28821D01*
X126773Y28757D01*
X126772Y28693D01*
X126793Y28618D01*
X126804Y28542D01*
X126830Y28483D01*
X126847Y28421D01*
X126888Y28355D01*
X126920Y28285D01*
X126962Y28236D01*
X126995Y28181D01*
X127053Y28129D01*
X127103Y28071D01*
X127157Y28035D01*
X127205Y27992D01*
X127274Y27959D01*
X127339Y27916D01*
X127401Y27897D01*
X127458Y27869D01*
X127528Y27858D01*
X127609Y27834D01*
X127694Y27833D01*
X127763Y27822D01*
X129111Y27822D01*
X131153Y26976D01*
X132716Y25413D01*
X133562Y23370D01*
X133562Y21160D01*
X132716Y19117D01*
X131153Y17554D01*
X129111Y16708D01*
X126900Y16708D01*
G37*
%LPD*%
%LPC*%
G36*
X300878Y7331D02*
X300878Y7331D01*
X296957Y8956D01*
X293956Y11957D01*
X292331Y15878D01*
X292331Y20122D01*
X293955Y24043D01*
X295936Y26023D01*
X295955Y26049D01*
X295979Y26070D01*
X296039Y26162D01*
X296105Y26249D01*
X296116Y26279D01*
X296134Y26306D01*
X296166Y26411D01*
X296204Y26513D01*
X296207Y26545D01*
X296216Y26576D01*
X296218Y26685D01*
X296226Y26794D01*
X296220Y26826D01*
X296220Y26858D01*
X296191Y26963D01*
X296169Y27070D01*
X296153Y27099D01*
X296145Y27130D01*
X296087Y27223D01*
X296036Y27319D01*
X296014Y27342D01*
X295997Y27370D01*
X295916Y27443D01*
X295839Y27521D01*
X295811Y27537D01*
X295787Y27559D01*
X295689Y27606D01*
X295594Y27660D01*
X295563Y27668D01*
X295534Y27682D01*
X295444Y27696D01*
X295320Y27725D01*
X295271Y27723D01*
X295229Y27729D01*
X232615Y27729D01*
X221804Y38540D01*
X221797Y38545D01*
X221791Y38553D01*
X221684Y38630D01*
X221579Y38709D01*
X221570Y38712D01*
X221562Y38718D01*
X221439Y38762D01*
X221315Y38809D01*
X221306Y38809D01*
X221297Y38812D01*
X221165Y38820D01*
X221034Y38830D01*
X221025Y38828D01*
X221015Y38829D01*
X220940Y38811D01*
X220758Y38773D01*
X220737Y38761D01*
X220716Y38756D01*
X220597Y38707D01*
X218486Y38707D01*
X216535Y39515D01*
X215043Y41008D01*
X214235Y42958D01*
X214235Y45070D01*
X215043Y47020D01*
X216535Y48513D01*
X218486Y49321D01*
X220597Y49321D01*
X222548Y48513D01*
X222987Y48073D01*
X223013Y48054D01*
X223034Y48029D01*
X223126Y47969D01*
X223213Y47904D01*
X223243Y47892D01*
X223270Y47875D01*
X223375Y47843D01*
X223477Y47804D01*
X223509Y47802D01*
X223540Y47792D01*
X223649Y47791D01*
X223758Y47782D01*
X223790Y47789D01*
X223822Y47788D01*
X223927Y47818D01*
X224034Y47840D01*
X224063Y47855D01*
X224094Y47864D01*
X224187Y47921D01*
X224283Y47972D01*
X224306Y47995D01*
X224334Y48012D01*
X224407Y48093D01*
X224485Y48169D01*
X224501Y48197D01*
X224523Y48221D01*
X224570Y48320D01*
X224624Y48414D01*
X224632Y48446D01*
X224646Y48475D01*
X224660Y48564D01*
X224689Y48689D01*
X224687Y48737D01*
X224693Y48779D01*
X224693Y51056D01*
X225501Y53006D01*
X226994Y54499D01*
X228944Y55307D01*
X231056Y55307D01*
X233006Y54499D01*
X234499Y53006D01*
X234548Y52888D01*
X234553Y52879D01*
X234555Y52870D01*
X234624Y52758D01*
X234691Y52645D01*
X234698Y52638D01*
X234703Y52630D01*
X234801Y52542D01*
X234897Y52452D01*
X234906Y52448D01*
X234913Y52441D01*
X235031Y52384D01*
X235149Y52324D01*
X235158Y52322D01*
X235166Y52318D01*
X235243Y52306D01*
X235426Y52272D01*
X235450Y52274D01*
X235471Y52271D01*
X319646Y52271D01*
X319740Y52284D01*
X319837Y52289D01*
X319880Y52304D01*
X319925Y52311D01*
X320012Y52350D01*
X320103Y52382D01*
X320138Y52407D01*
X320182Y52427D01*
X320279Y52510D01*
X320352Y52563D01*
X341526Y73737D01*
X341531Y73745D01*
X341539Y73750D01*
X341616Y73857D01*
X341695Y73963D01*
X341698Y73972D01*
X341704Y73979D01*
X341748Y74103D01*
X341795Y74226D01*
X341795Y74236D01*
X341798Y74245D01*
X341806Y74376D01*
X341816Y74508D01*
X341814Y74517D01*
X341815Y74526D01*
X341797Y74602D01*
X341759Y74784D01*
X341747Y74805D01*
X341742Y74826D01*
X341693Y74944D01*
X341693Y77056D01*
X342501Y79006D01*
X343994Y80499D01*
X345944Y81307D01*
X348056Y81307D01*
X350006Y80499D01*
X351499Y79006D01*
X352307Y77056D01*
X352307Y74944D01*
X351499Y72994D01*
X350006Y71501D01*
X348056Y70693D01*
X345944Y70693D01*
X345826Y70742D01*
X345817Y70745D01*
X345809Y70749D01*
X345680Y70780D01*
X345553Y70812D01*
X345543Y70812D01*
X345534Y70814D01*
X345401Y70808D01*
X345271Y70803D01*
X345262Y70800D01*
X345252Y70800D01*
X345128Y70757D01*
X345003Y70716D01*
X344995Y70711D01*
X344986Y70707D01*
X344924Y70662D01*
X344770Y70557D01*
X344754Y70538D01*
X344737Y70526D01*
X323563Y49352D01*
X321941Y47729D01*
X235471Y47729D01*
X235462Y47728D01*
X235452Y47729D01*
X235323Y47708D01*
X235192Y47689D01*
X235183Y47686D01*
X235174Y47684D01*
X235055Y47628D01*
X234935Y47573D01*
X234928Y47567D01*
X234919Y47563D01*
X234821Y47475D01*
X234721Y47390D01*
X234715Y47382D01*
X234708Y47376D01*
X234668Y47310D01*
X234566Y47154D01*
X234559Y47131D01*
X234548Y47112D01*
X234499Y46994D01*
X233006Y45501D01*
X231056Y44693D01*
X228944Y44693D01*
X226994Y45501D01*
X226554Y45941D01*
X226528Y45960D01*
X226507Y45985D01*
X226416Y46045D01*
X226329Y46110D01*
X226298Y46122D01*
X226271Y46139D01*
X226167Y46171D01*
X226065Y46210D01*
X226032Y46212D01*
X226002Y46222D01*
X225892Y46223D01*
X225783Y46232D01*
X225752Y46225D01*
X225720Y46226D01*
X225614Y46196D01*
X225507Y46174D01*
X225479Y46159D01*
X225448Y46150D01*
X225355Y46093D01*
X225258Y46042D01*
X225235Y46019D01*
X225208Y46002D01*
X225134Y45921D01*
X225056Y45845D01*
X225040Y45817D01*
X225019Y45793D01*
X224971Y45694D01*
X224917Y45600D01*
X224910Y45568D01*
X224896Y45539D01*
X224882Y45450D01*
X224852Y45325D01*
X224855Y45277D01*
X224848Y45235D01*
X224848Y42958D01*
X224799Y42840D01*
X224797Y42831D01*
X224792Y42823D01*
X224762Y42694D01*
X224729Y42567D01*
X224729Y42557D01*
X224727Y42548D01*
X224734Y42415D01*
X224738Y42285D01*
X224741Y42276D01*
X224742Y42266D01*
X224785Y42141D01*
X224826Y42017D01*
X224831Y42009D01*
X224834Y42000D01*
X224879Y41938D01*
X224984Y41784D01*
X225003Y41768D01*
X225016Y41751D01*
X234203Y32563D01*
X234280Y32506D01*
X234352Y32441D01*
X234393Y32421D01*
X234429Y32394D01*
X234519Y32360D01*
X234605Y32318D01*
X234647Y32312D01*
X234693Y32295D01*
X234820Y32285D01*
X234910Y32271D01*
X354529Y32271D01*
X354538Y32272D01*
X354548Y32271D01*
X354677Y32292D01*
X354808Y32311D01*
X354817Y32314D01*
X354826Y32316D01*
X354945Y32372D01*
X355065Y32427D01*
X355072Y32433D01*
X355081Y32437D01*
X355179Y32525D01*
X355279Y32610D01*
X355285Y32618D01*
X355292Y32624D01*
X355332Y32690D01*
X355434Y32846D01*
X355441Y32869D01*
X355452Y32888D01*
X355501Y33006D01*
X356994Y34499D01*
X358944Y35307D01*
X361056Y35307D01*
X363006Y34499D01*
X364499Y33006D01*
X365307Y31056D01*
X365307Y28944D01*
X364499Y26994D01*
X363006Y25501D01*
X361056Y24693D01*
X358944Y24693D01*
X356994Y25501D01*
X355501Y26994D01*
X355452Y27112D01*
X355447Y27121D01*
X355445Y27130D01*
X355376Y27242D01*
X355309Y27355D01*
X355302Y27362D01*
X355297Y27370D01*
X355199Y27458D01*
X355103Y27548D01*
X355094Y27552D01*
X355087Y27559D01*
X354969Y27616D01*
X354851Y27676D01*
X354842Y27678D01*
X354834Y27682D01*
X354757Y27694D01*
X354574Y27728D01*
X354550Y27726D01*
X354529Y27729D01*
X336171Y27729D01*
X336139Y27725D01*
X336107Y27727D01*
X336000Y27705D01*
X335892Y27689D01*
X335862Y27676D01*
X335831Y27670D01*
X335734Y27618D01*
X335635Y27573D01*
X335610Y27552D01*
X335582Y27537D01*
X335504Y27461D01*
X335421Y27390D01*
X335403Y27363D01*
X335380Y27340D01*
X335326Y27245D01*
X335266Y27154D01*
X335257Y27123D01*
X335241Y27095D01*
X335216Y26989D01*
X335184Y26884D01*
X335183Y26852D01*
X335176Y26821D01*
X335181Y26711D01*
X335180Y26602D01*
X335189Y26571D01*
X335190Y26539D01*
X335226Y26436D01*
X335255Y26330D01*
X335272Y26303D01*
X335283Y26272D01*
X335336Y26199D01*
X335403Y26090D01*
X335439Y26058D01*
X335464Y26023D01*
X337445Y24043D01*
X339069Y20122D01*
X339069Y15878D01*
X337444Y11957D01*
X334443Y8956D01*
X330522Y7331D01*
X326278Y7331D01*
X322357Y8956D01*
X319356Y11957D01*
X317731Y15878D01*
X317731Y20122D01*
X319355Y24043D01*
X321336Y26023D01*
X321355Y26049D01*
X321379Y26070D01*
X321439Y26162D01*
X321505Y26249D01*
X321516Y26279D01*
X321534Y26306D01*
X321566Y26411D01*
X321604Y26513D01*
X321607Y26545D01*
X321616Y26576D01*
X321618Y26685D01*
X321626Y26794D01*
X321620Y26826D01*
X321620Y26858D01*
X321591Y26963D01*
X321569Y27070D01*
X321553Y27099D01*
X321545Y27130D01*
X321487Y27223D01*
X321436Y27319D01*
X321414Y27342D01*
X321397Y27370D01*
X321316Y27443D01*
X321239Y27521D01*
X321211Y27537D01*
X321187Y27559D01*
X321089Y27606D01*
X320994Y27660D01*
X320963Y27668D01*
X320934Y27682D01*
X320844Y27696D01*
X320720Y27725D01*
X320671Y27723D01*
X320629Y27729D01*
X310771Y27729D01*
X310739Y27725D01*
X310707Y27727D01*
X310600Y27705D01*
X310492Y27689D01*
X310462Y27676D01*
X310431Y27670D01*
X310334Y27618D01*
X310235Y27573D01*
X310210Y27552D01*
X310182Y27537D01*
X310104Y27461D01*
X310021Y27390D01*
X310003Y27363D01*
X309980Y27340D01*
X309926Y27245D01*
X309866Y27154D01*
X309857Y27123D01*
X309841Y27095D01*
X309816Y26989D01*
X309784Y26884D01*
X309783Y26852D01*
X309776Y26821D01*
X309781Y26711D01*
X309780Y26602D01*
X309789Y26571D01*
X309790Y26539D01*
X309826Y26436D01*
X309855Y26330D01*
X309872Y26303D01*
X309883Y26272D01*
X309936Y26199D01*
X310003Y26090D01*
X310039Y26058D01*
X310064Y26023D01*
X312045Y24043D01*
X313669Y20122D01*
X313669Y15878D01*
X312044Y11957D01*
X309043Y8956D01*
X305122Y7331D01*
X300878Y7331D01*
G37*
%LPD*%
%LPC*%
G36*
X147665Y49973D02*
X147665Y49973D01*
X145714Y50781D01*
X144221Y52274D01*
X143413Y54224D01*
X143413Y56335D01*
X144221Y58286D01*
X145714Y59779D01*
X147755Y60624D01*
X147771Y60626D01*
X147830Y60653D01*
X147892Y60670D01*
X147958Y60711D01*
X148028Y60743D01*
X148077Y60784D01*
X148132Y60818D01*
X148184Y60876D01*
X148242Y60926D01*
X148278Y60980D01*
X148321Y61027D01*
X148354Y61097D01*
X148397Y61162D01*
X148416Y61223D01*
X148444Y61281D01*
X148455Y61351D01*
X148479Y61432D01*
X148480Y61516D01*
X148491Y61586D01*
X148491Y161703D01*
X163526Y176737D01*
X163531Y176745D01*
X163539Y176750D01*
X163616Y176857D01*
X163695Y176963D01*
X163698Y176972D01*
X163704Y176979D01*
X163748Y177103D01*
X163795Y177226D01*
X163795Y177236D01*
X163798Y177245D01*
X163806Y177376D01*
X163816Y177508D01*
X163814Y177517D01*
X163815Y177526D01*
X163797Y177602D01*
X163759Y177784D01*
X163747Y177805D01*
X163742Y177826D01*
X163693Y177944D01*
X163693Y180056D01*
X164501Y182006D01*
X165994Y183499D01*
X167944Y184307D01*
X170056Y184307D01*
X172006Y183499D01*
X173499Y182006D01*
X174307Y180056D01*
X174307Y177944D01*
X173499Y175994D01*
X172006Y174501D01*
X170056Y173693D01*
X167944Y173693D01*
X167826Y173742D01*
X167817Y173745D01*
X167809Y173749D01*
X167680Y173780D01*
X167553Y173812D01*
X167543Y173812D01*
X167534Y173814D01*
X167401Y173808D01*
X167271Y173803D01*
X167262Y173800D01*
X167252Y173800D01*
X167128Y173757D01*
X167003Y173716D01*
X166995Y173711D01*
X166986Y173707D01*
X166924Y173662D01*
X166770Y173557D01*
X166754Y173538D01*
X166737Y173526D01*
X153325Y160114D01*
X153268Y160037D01*
X153203Y159966D01*
X153183Y159925D01*
X153156Y159889D01*
X153122Y159798D01*
X153080Y159712D01*
X153074Y159670D01*
X153057Y159625D01*
X153047Y159497D01*
X153033Y159408D01*
X153033Y58886D01*
X153046Y58791D01*
X153051Y58695D01*
X153066Y58652D01*
X153073Y58607D01*
X153112Y58519D01*
X153144Y58428D01*
X153169Y58394D01*
X153189Y58350D01*
X153196Y58341D01*
X154027Y56335D01*
X154027Y54224D01*
X153219Y52274D01*
X151726Y50781D01*
X149776Y49973D01*
X147665Y49973D01*
G37*
%LPD*%
%LPC*%
G36*
X108944Y24693D02*
X108944Y24693D01*
X106994Y25501D01*
X105501Y26994D01*
X104693Y28944D01*
X104693Y31056D01*
X104742Y31174D01*
X104745Y31183D01*
X104749Y31191D01*
X104780Y31320D01*
X104812Y31447D01*
X104812Y31457D01*
X104814Y31466D01*
X104808Y31599D01*
X104803Y31729D01*
X104800Y31738D01*
X104800Y31748D01*
X104757Y31872D01*
X104716Y31997D01*
X104711Y32005D01*
X104707Y32014D01*
X104662Y32076D01*
X104557Y32230D01*
X104538Y32246D01*
X104526Y32263D01*
X86352Y50437D01*
X86275Y50494D01*
X86204Y50559D01*
X86163Y50579D01*
X86127Y50606D01*
X86036Y50640D01*
X85950Y50682D01*
X85908Y50688D01*
X85863Y50705D01*
X85735Y50715D01*
X85646Y50729D01*
X27471Y50729D01*
X27462Y50728D01*
X27452Y50729D01*
X27323Y50708D01*
X27192Y50689D01*
X27183Y50686D01*
X27174Y50684D01*
X27055Y50628D01*
X26935Y50573D01*
X26928Y50567D01*
X26919Y50563D01*
X26821Y50475D01*
X26721Y50390D01*
X26715Y50382D01*
X26708Y50376D01*
X26668Y50310D01*
X26566Y50154D01*
X26559Y50131D01*
X26548Y50112D01*
X26499Y49994D01*
X25006Y48501D01*
X23056Y47693D01*
X20944Y47693D01*
X18994Y48501D01*
X17501Y49994D01*
X16693Y51944D01*
X16693Y54056D01*
X17501Y56006D01*
X18994Y57499D01*
X20944Y58307D01*
X23056Y58307D01*
X25006Y57499D01*
X26499Y56006D01*
X26548Y55888D01*
X26553Y55879D01*
X26555Y55870D01*
X26624Y55758D01*
X26691Y55645D01*
X26698Y55638D01*
X26703Y55630D01*
X26801Y55542D01*
X26897Y55452D01*
X26906Y55448D01*
X26913Y55441D01*
X27031Y55384D01*
X27149Y55324D01*
X27158Y55322D01*
X27166Y55318D01*
X27243Y55306D01*
X27426Y55272D01*
X27450Y55274D01*
X27471Y55271D01*
X87941Y55271D01*
X107737Y35474D01*
X107745Y35469D01*
X107750Y35461D01*
X107857Y35384D01*
X107963Y35305D01*
X107972Y35302D01*
X107979Y35296D01*
X108103Y35252D01*
X108226Y35205D01*
X108236Y35205D01*
X108245Y35202D01*
X108376Y35194D01*
X108508Y35184D01*
X108517Y35186D01*
X108526Y35185D01*
X108602Y35203D01*
X108784Y35241D01*
X108805Y35253D01*
X108826Y35258D01*
X108944Y35307D01*
X111056Y35307D01*
X113006Y34499D01*
X114499Y33006D01*
X115307Y31056D01*
X115307Y28944D01*
X114499Y26994D01*
X113006Y25501D01*
X111056Y24693D01*
X108944Y24693D01*
G37*
%LPD*%
%LPC*%
G36*
X184944Y120693D02*
X184944Y120693D01*
X182994Y121501D01*
X181501Y122994D01*
X180693Y124944D01*
X180693Y127056D01*
X181501Y129006D01*
X182994Y130499D01*
X183112Y130548D01*
X183121Y130553D01*
X183130Y130555D01*
X183242Y130625D01*
X183355Y130692D01*
X183362Y130698D01*
X183370Y130703D01*
X183458Y130801D01*
X183548Y130897D01*
X183552Y130906D01*
X183559Y130913D01*
X183616Y131031D01*
X183676Y131149D01*
X183678Y131158D01*
X183682Y131166D01*
X183694Y131243D01*
X183728Y131426D01*
X183726Y131450D01*
X183729Y131471D01*
X183729Y156941D01*
X203493Y176704D01*
X203498Y176712D01*
X203506Y176717D01*
X203583Y176824D01*
X203662Y176929D01*
X203665Y176938D01*
X203671Y176946D01*
X203715Y177070D01*
X203761Y177193D01*
X203762Y177203D01*
X203765Y177212D01*
X203773Y177343D01*
X203783Y177475D01*
X203781Y177484D01*
X203782Y177493D01*
X203764Y177569D01*
X203726Y177751D01*
X203714Y177772D01*
X203709Y177793D01*
X203693Y177831D01*
X203693Y179943D01*
X204501Y181893D01*
X205994Y183386D01*
X207944Y184194D01*
X210056Y184194D01*
X212006Y183386D01*
X213499Y181893D01*
X214307Y179943D01*
X214307Y177831D01*
X213499Y175881D01*
X212006Y174388D01*
X210056Y173580D01*
X207944Y173580D01*
X207746Y173662D01*
X207737Y173665D01*
X207729Y173669D01*
X207600Y173700D01*
X207473Y173732D01*
X207464Y173732D01*
X207454Y173734D01*
X207322Y173728D01*
X207191Y173723D01*
X207182Y173721D01*
X207173Y173720D01*
X207048Y173677D01*
X206923Y173636D01*
X206915Y173631D01*
X206906Y173628D01*
X206844Y173582D01*
X206690Y173477D01*
X206675Y173459D01*
X206657Y173446D01*
X188563Y155352D01*
X188506Y155275D01*
X188441Y155204D01*
X188421Y155163D01*
X188394Y155127D01*
X188360Y155036D01*
X188318Y154950D01*
X188312Y154908D01*
X188295Y154863D01*
X188285Y154735D01*
X188271Y154646D01*
X188271Y131471D01*
X188272Y131462D01*
X188271Y131452D01*
X188292Y131322D01*
X188311Y131192D01*
X188314Y131183D01*
X188316Y131174D01*
X188373Y131055D01*
X188427Y130935D01*
X188433Y130928D01*
X188437Y130919D01*
X188525Y130820D01*
X188610Y130721D01*
X188618Y130715D01*
X188624Y130708D01*
X188690Y130668D01*
X188846Y130566D01*
X188869Y130559D01*
X188888Y130548D01*
X189006Y130499D01*
X190499Y129006D01*
X191307Y127056D01*
X191307Y124944D01*
X190499Y122994D01*
X189006Y121501D01*
X187056Y120693D01*
X184944Y120693D01*
G37*
%LPD*%
%LPC*%
G36*
X358278Y151331D02*
X358278Y151331D01*
X354357Y152956D01*
X351356Y155957D01*
X349731Y159878D01*
X349731Y164122D01*
X351356Y168043D01*
X354357Y171044D01*
X358278Y172669D01*
X362522Y172669D01*
X366443Y171044D01*
X369444Y168043D01*
X371069Y164122D01*
X371069Y159878D01*
X369444Y155957D01*
X366443Y152956D01*
X362522Y151331D01*
X358278Y151331D01*
G37*
%LPD*%
%LPC*%
G36*
X407278Y79831D02*
X407278Y79831D01*
X403357Y81456D01*
X400356Y84457D01*
X398731Y88378D01*
X398731Y92622D01*
X400356Y96543D01*
X403357Y99544D01*
X407278Y101169D01*
X411522Y101169D01*
X415443Y99544D01*
X418444Y96543D01*
X420069Y92622D01*
X420069Y88378D01*
X418444Y84457D01*
X415443Y81456D01*
X411522Y79831D01*
X407278Y79831D01*
G37*
%LPD*%
%LPC*%
G36*
X381878Y79831D02*
X381878Y79831D01*
X377957Y81456D01*
X374956Y84457D01*
X373331Y88378D01*
X373331Y92622D01*
X374956Y96543D01*
X377957Y99544D01*
X381878Y101169D01*
X386122Y101169D01*
X390043Y99544D01*
X393044Y96543D01*
X394669Y92622D01*
X394669Y88378D01*
X393044Y84457D01*
X390043Y81456D01*
X386122Y79831D01*
X381878Y79831D01*
G37*
%LPD*%
%LPC*%
G36*
X326278Y79831D02*
X326278Y79831D01*
X322357Y81456D01*
X319356Y84457D01*
X317731Y88378D01*
X317731Y92622D01*
X319356Y96543D01*
X322357Y99544D01*
X326278Y101169D01*
X330522Y101169D01*
X334443Y99544D01*
X337444Y96543D01*
X339069Y92622D01*
X339069Y88378D01*
X337444Y84457D01*
X334443Y81456D01*
X330522Y79831D01*
X326278Y79831D01*
G37*
%LPD*%
%LPC*%
G36*
X300878Y79831D02*
X300878Y79831D01*
X296957Y81456D01*
X293956Y84457D01*
X292331Y88378D01*
X292331Y92622D01*
X293956Y96543D01*
X296957Y99544D01*
X300878Y101169D01*
X305122Y101169D01*
X309043Y99544D01*
X312044Y96543D01*
X313669Y92622D01*
X313669Y88378D01*
X312044Y84457D01*
X309043Y81456D01*
X305122Y79831D01*
X300878Y79831D01*
G37*
%LPD*%
%LPC*%
G36*
X381878Y6331D02*
X381878Y6331D01*
X377957Y7956D01*
X374956Y10957D01*
X373331Y14878D01*
X373331Y19122D01*
X374956Y23043D01*
X377957Y26044D01*
X381878Y27669D01*
X386122Y27669D01*
X390043Y26044D01*
X393044Y23043D01*
X394669Y19122D01*
X394669Y14878D01*
X393044Y10957D01*
X390043Y7956D01*
X386122Y6331D01*
X381878Y6331D01*
G37*
%LPD*%
%LPC*%
G36*
X407278Y6331D02*
X407278Y6331D01*
X403357Y7956D01*
X400356Y10957D01*
X398731Y14878D01*
X398731Y19122D01*
X400356Y23043D01*
X403357Y26044D01*
X407278Y27669D01*
X411522Y27669D01*
X415443Y26044D01*
X418444Y23043D01*
X420069Y19122D01*
X420069Y14878D01*
X418444Y10957D01*
X415443Y7956D01*
X411522Y6331D01*
X407278Y6331D01*
G37*
%LPD*%
%LPC*%
G36*
X406317Y341109D02*
X406317Y341109D01*
X401109Y346317D01*
X401109Y353683D01*
X406317Y358891D01*
X413683Y358891D01*
X418891Y353683D01*
X418891Y346317D01*
X413683Y341109D01*
X406317Y341109D01*
G37*
%LPD*%
D10*
X398080Y318500D02*
X413320Y318500D01*
X413320Y293100D02*
X398080Y293100D01*
X398080Y267700D02*
X413320Y267700D01*
X413320Y242300D02*
X398080Y242300D01*
X398080Y216900D02*
X413320Y216900D01*
X413320Y191500D02*
X398080Y191500D01*
X398080Y166100D02*
X413320Y166100D01*
D11*
X410000Y350000D03*
D12*
X9000Y19500D02*
X9000Y10500D01*
X75000Y10500D02*
X75000Y19500D01*
D13*
X384000Y17000D03*
X409400Y17000D03*
X303000Y18000D03*
X328400Y18000D03*
X384000Y90500D03*
X409400Y90500D03*
X303000Y90500D03*
X328400Y90500D03*
X335000Y162000D03*
X360400Y162000D03*
D14*
X149000Y180000D02*
X132661Y163661D01*
D15*
X149000Y180000D03*
X132661Y36000D03*
D14*
X132661Y163661D01*
D15*
X57000Y91000D03*
X45000Y72000D03*
X45000Y102000D03*
X35000Y126000D03*
X127000Y9000D03*
X165000Y163000D03*
X206000Y163000D03*
X248000Y37000D03*
D16*
X180000Y10000D03*
D15*
X260000Y370000D03*
X350000Y340000D03*
D16*
X110000Y70000D03*
X289777Y181777D03*
X129000Y180000D03*
D15*
X159223Y127000D03*
D16*
X184000Y103000D03*
X86000Y376000D03*
X42000Y325000D03*
X61000Y325000D03*
X231000Y374000D03*
D15*
X261000Y36556D03*
D16*
X250000Y150000D03*
D15*
X360000Y70000D03*
X406000Y71000D03*
X300000Y131628D03*
X358000Y113000D03*
X406000Y146000D03*
X362000Y227000D03*
X70000Y220000D03*
X231000Y92000D03*
D14*
X243319Y104319D02*
X251862Y104319D01*
X339043Y191500D02*
X405700Y191500D01*
X339043Y191500D02*
X251862Y104319D01*
X243319Y104319D02*
X231000Y92000D01*
D15*
X231000Y78602D03*
D14*
X340628Y188230D01*
X383570Y188230D02*
X405700Y166100D01*
X383570Y188230D02*
X340628Y188230D01*
D15*
X188989Y366000D03*
X210000Y130000D03*
D14*
X210000Y156199D02*
X222223Y168422D01*
X210000Y156199D02*
X210000Y130000D01*
X222223Y332766D02*
X188989Y366000D01*
X222223Y332766D02*
X222223Y168422D01*
D15*
X105000Y116000D03*
D17*
X101000Y120000D01*
X70761Y120000D01*
X25761Y165000D01*
X16761Y165000D01*
D16*
X16761Y165000D03*
D15*
X169000Y179000D03*
X246000Y175000D03*
D14*
X316000Y245000D02*
X403000Y245000D01*
X316000Y245000D02*
X246000Y175000D01*
X403000Y245000D02*
X405700Y242300D01*
D15*
X148720Y55280D03*
D14*
X150762Y57322D02*
X150762Y160762D01*
X150762Y57322D02*
X148720Y55280D01*
X150762Y160762D02*
X169000Y179000D01*
D15*
X164000Y63000D03*
X189000Y180000D03*
D14*
X164000Y69422D02*
X164000Y63000D01*
X173223Y164223D02*
X189000Y180000D01*
X173223Y78645D02*
X164000Y69422D01*
X173223Y78645D02*
X173223Y164223D01*
X238924Y137924D02*
X244924Y137924D01*
D16*
X244924Y137924D03*
D14*
X238924Y137924D02*
X164000Y63000D01*
D15*
X186000Y126000D03*
D14*
X186000Y156000D01*
X208887Y178887D02*
X209000Y178887D01*
D15*
X209000Y178887D03*
D14*
X208887Y178887D02*
X186000Y156000D01*
D15*
X231000Y104398D03*
D14*
X234191Y107589D01*
X250507Y107589D01*
X359818Y216900D01*
X405700Y216900D01*
D15*
X374000Y238694D03*
D14*
X395794Y216900D01*
X405700Y216900D01*
D15*
X200000Y110000D03*
X230000Y178887D03*
D14*
X230000Y137199D01*
X202801Y110000D01*
X200000Y110000D01*
D15*
X22000Y53000D03*
D14*
X87000Y53000D01*
X110000Y30000D01*
D15*
X110000Y30000D03*
X117000Y115000D03*
X12801Y103000D03*
D14*
X23325Y113524D01*
X71460Y113524D02*
X76492Y108492D01*
X110492Y108492D02*
X117000Y115000D01*
X110492Y108492D02*
X76492Y108492D01*
X71460Y113524D02*
X23325Y113524D01*
D15*
X117000Y101602D03*
X32199Y103000D03*
D14*
X39199Y110000D01*
X113000Y101602D02*
X117000Y101602D01*
X113000Y101602D02*
X110821Y103781D01*
X76219Y103781D01*
X70000Y110000D02*
X39199Y110000D01*
X70000Y110000D02*
X76219Y103781D01*
D15*
X180000Y49661D03*
X267000Y150000D03*
D14*
X231383Y114383D01*
X226864Y114383D01*
X180000Y67519D02*
X180000Y49661D01*
X180000Y67519D02*
X226864Y114383D01*
D15*
X195000Y44000D03*
X291000Y157000D03*
D14*
X228324Y110859D02*
X224539Y107074D01*
X224539Y73539D02*
X195000Y44000D01*
X224539Y73539D02*
X224539Y107074D01*
X244859Y110859D02*
X291000Y157000D01*
X244859Y110859D02*
X228324Y110859D01*
D15*
X360000Y30000D03*
D14*
X233556Y30000D01*
X219542Y44014D01*
D15*
X219542Y44014D03*
X347000Y76000D03*
D14*
X321000Y50000D01*
X230000Y50000D01*
D15*
X230000Y50000D03*
X230000Y66974D03*
D14*
X283026Y120000D01*
X300000Y120000D01*
D15*
X300000Y120000D03*
D16*
X104461Y340000D03*
D14*
X104461Y166136D01*
X124493Y146104D01*
X124493Y25777D01*
X128005Y22265D01*
D16*
X128005Y22265D03*
M02*
