%TF.GenerationSoftware,KiCad,Pcbnew,8.0.2*%
%TF.CreationDate,2024-10-02T19:35:02-04:00*%
%TF.ProjectId,FewawiPowerBoard,46657761-7769-4506-9f77-6572426f6172,rev?*%
%TF.SameCoordinates,Original*%
%TF.FileFunction,Legend,Bot*%
%TF.FilePolarity,Positive*%
%FSLAX46Y46*%
G04 Gerber Fmt 4.6, Leading zero omitted, Abs format (unit mm)*
G04 Created by KiCad (PCBNEW 8.0.2) date 2024-10-02 19:35:02*
%MOMM*%
%LPD*%
G01*
G04 APERTURE LIST*
G04 Aperture macros list*
%AMRoundRect*
0 Rectangle with rounded corners*
0 $1 Rounding radius*
0 $2 $3 $4 $5 $6 $7 $8 $9 X,Y pos of 4 corners*
0 Add a 4 corners polygon primitive as box body*
4,1,4,$2,$3,$4,$5,$6,$7,$8,$9,$2,$3,0*
0 Add four circle primitives for the rounded corners*
1,1,$1+$1,$2,$3*
1,1,$1+$1,$4,$5*
1,1,$1+$1,$6,$7*
1,1,$1+$1,$8,$9*
0 Add four rect primitives between the rounded corners*
20,1,$1+$1,$2,$3,$4,$5,0*
20,1,$1+$1,$4,$5,$6,$7,0*
20,1,$1+$1,$6,$7,$8,$9,0*
20,1,$1+$1,$8,$9,$2,$3,0*%
G04 Aperture macros list end*
%ADD10C,0.100000*%
%ADD11C,6.000000*%
%ADD12R,3.800000X3.800000*%
%ADD13C,4.000000*%
%ADD14RoundRect,0.102000X-0.679000X-0.679000X0.679000X-0.679000X0.679000X0.679000X-0.679000X0.679000X0*%
%ADD15C,1.562000*%
%ADD16RoundRect,1.500000X1.500000X1.500000X-1.500000X1.500000X-1.500000X-1.500000X1.500000X-1.500000X0*%
%ADD17RoundRect,0.102000X1.312500X-1.312500X1.312500X1.312500X-1.312500X1.312500X-1.312500X-1.312500X0*%
%ADD18C,2.829000*%
%ADD19RoundRect,0.250000X0.750000X1.550000X-0.750000X1.550000X-0.750000X-1.550000X0.750000X-1.550000X0*%
%ADD20O,2.000000X3.600000*%
G04 APERTURE END LIST*
D10*
X125767544Y-79262475D02*
X125767544Y-78738665D01*
X125767544Y-78738665D02*
X125815163Y-78643427D01*
X125815163Y-78643427D02*
X125910401Y-78595808D01*
X125910401Y-78595808D02*
X126100877Y-78595808D01*
X126100877Y-78595808D02*
X126196115Y-78643427D01*
X125767544Y-79214856D02*
X125862782Y-79262475D01*
X125862782Y-79262475D02*
X126100877Y-79262475D01*
X126100877Y-79262475D02*
X126196115Y-79214856D01*
X126196115Y-79214856D02*
X126243734Y-79119617D01*
X126243734Y-79119617D02*
X126243734Y-79024379D01*
X126243734Y-79024379D02*
X126196115Y-78929141D01*
X126196115Y-78929141D02*
X126100877Y-78881522D01*
X126100877Y-78881522D02*
X125862782Y-78881522D01*
X125862782Y-78881522D02*
X125767544Y-78833903D01*
X124672305Y-78595808D02*
X124291353Y-78595808D01*
X124529448Y-79262475D02*
X124529448Y-78405332D01*
X124529448Y-78405332D02*
X124481829Y-78310094D01*
X124481829Y-78310094D02*
X124386591Y-78262475D01*
X124386591Y-78262475D02*
X124291353Y-78262475D01*
X123815162Y-79262475D02*
X123910400Y-79214856D01*
X123910400Y-79214856D02*
X123958019Y-79167236D01*
X123958019Y-79167236D02*
X124005638Y-79071998D01*
X124005638Y-79071998D02*
X124005638Y-78786284D01*
X124005638Y-78786284D02*
X123958019Y-78691046D01*
X123958019Y-78691046D02*
X123910400Y-78643427D01*
X123910400Y-78643427D02*
X123815162Y-78595808D01*
X123815162Y-78595808D02*
X123672305Y-78595808D01*
X123672305Y-78595808D02*
X123577067Y-78643427D01*
X123577067Y-78643427D02*
X123529448Y-78691046D01*
X123529448Y-78691046D02*
X123481829Y-78786284D01*
X123481829Y-78786284D02*
X123481829Y-79071998D01*
X123481829Y-79071998D02*
X123529448Y-79167236D01*
X123529448Y-79167236D02*
X123577067Y-79214856D01*
X123577067Y-79214856D02*
X123672305Y-79262475D01*
X123672305Y-79262475D02*
X123815162Y-79262475D01*
X122910400Y-79262475D02*
X123005638Y-79214856D01*
X123005638Y-79214856D02*
X123053257Y-79167236D01*
X123053257Y-79167236D02*
X123100876Y-79071998D01*
X123100876Y-79071998D02*
X123100876Y-78786284D01*
X123100876Y-78786284D02*
X123053257Y-78691046D01*
X123053257Y-78691046D02*
X123005638Y-78643427D01*
X123005638Y-78643427D02*
X122910400Y-78595808D01*
X122910400Y-78595808D02*
X122767543Y-78595808D01*
X122767543Y-78595808D02*
X122672305Y-78643427D01*
X122672305Y-78643427D02*
X122624686Y-78691046D01*
X122624686Y-78691046D02*
X122577067Y-78786284D01*
X122577067Y-78786284D02*
X122577067Y-79071998D01*
X122577067Y-79071998D02*
X122624686Y-79167236D01*
X122624686Y-79167236D02*
X122672305Y-79214856D01*
X122672305Y-79214856D02*
X122767543Y-79262475D01*
X122767543Y-79262475D02*
X122910400Y-79262475D01*
X122005638Y-79262475D02*
X122100876Y-79214856D01*
X122100876Y-79214856D02*
X122148495Y-79119617D01*
X122148495Y-79119617D02*
X122148495Y-78262475D01*
X121624685Y-79262475D02*
X121624685Y-78595808D01*
X121624685Y-78262475D02*
X121672304Y-78310094D01*
X121672304Y-78310094D02*
X121624685Y-78357713D01*
X121624685Y-78357713D02*
X121577066Y-78310094D01*
X121577066Y-78310094D02*
X121624685Y-78262475D01*
X121624685Y-78262475D02*
X121624685Y-78357713D01*
X121196114Y-79214856D02*
X121100876Y-79262475D01*
X121100876Y-79262475D02*
X120910400Y-79262475D01*
X120910400Y-79262475D02*
X120815162Y-79214856D01*
X120815162Y-79214856D02*
X120767543Y-79119617D01*
X120767543Y-79119617D02*
X120767543Y-79071998D01*
X120767543Y-79071998D02*
X120815162Y-78976760D01*
X120815162Y-78976760D02*
X120910400Y-78929141D01*
X120910400Y-78929141D02*
X121053257Y-78929141D01*
X121053257Y-78929141D02*
X121148495Y-78881522D01*
X121148495Y-78881522D02*
X121196114Y-78786284D01*
X121196114Y-78786284D02*
X121196114Y-78738665D01*
X121196114Y-78738665D02*
X121148495Y-78643427D01*
X121148495Y-78643427D02*
X121053257Y-78595808D01*
X121053257Y-78595808D02*
X120910400Y-78595808D01*
X120910400Y-78595808D02*
X120815162Y-78643427D01*
X120338971Y-79262475D02*
X120338971Y-78262475D01*
X119910400Y-79262475D02*
X119910400Y-78738665D01*
X119910400Y-78738665D02*
X119958019Y-78643427D01*
X119958019Y-78643427D02*
X120053257Y-78595808D01*
X120053257Y-78595808D02*
X120196114Y-78595808D01*
X120196114Y-78595808D02*
X120291352Y-78643427D01*
X120291352Y-78643427D02*
X120338971Y-78691046D01*
X118672304Y-79262475D02*
X118672304Y-78595808D01*
X118672304Y-78691046D02*
X118624685Y-78643427D01*
X118624685Y-78643427D02*
X118529447Y-78595808D01*
X118529447Y-78595808D02*
X118386590Y-78595808D01*
X118386590Y-78595808D02*
X118291352Y-78643427D01*
X118291352Y-78643427D02*
X118243733Y-78738665D01*
X118243733Y-78738665D02*
X118243733Y-79262475D01*
X118243733Y-78738665D02*
X118196114Y-78643427D01*
X118196114Y-78643427D02*
X118100876Y-78595808D01*
X118100876Y-78595808D02*
X117958019Y-78595808D01*
X117958019Y-78595808D02*
X117862780Y-78643427D01*
X117862780Y-78643427D02*
X117815161Y-78738665D01*
X117815161Y-78738665D02*
X117815161Y-79262475D01*
X116910400Y-79262475D02*
X116910400Y-78738665D01*
X116910400Y-78738665D02*
X116958019Y-78643427D01*
X116958019Y-78643427D02*
X117053257Y-78595808D01*
X117053257Y-78595808D02*
X117243733Y-78595808D01*
X117243733Y-78595808D02*
X117338971Y-78643427D01*
X116910400Y-79214856D02*
X117005638Y-79262475D01*
X117005638Y-79262475D02*
X117243733Y-79262475D01*
X117243733Y-79262475D02*
X117338971Y-79214856D01*
X117338971Y-79214856D02*
X117386590Y-79119617D01*
X117386590Y-79119617D02*
X117386590Y-79024379D01*
X117386590Y-79024379D02*
X117338971Y-78929141D01*
X117338971Y-78929141D02*
X117243733Y-78881522D01*
X117243733Y-78881522D02*
X117005638Y-78881522D01*
X117005638Y-78881522D02*
X116910400Y-78833903D01*
X116434209Y-78595808D02*
X116434209Y-79262475D01*
X116434209Y-78691046D02*
X116386590Y-78643427D01*
X116386590Y-78643427D02*
X116291352Y-78595808D01*
X116291352Y-78595808D02*
X116148495Y-78595808D01*
X116148495Y-78595808D02*
X116053257Y-78643427D01*
X116053257Y-78643427D02*
X116005638Y-78738665D01*
X116005638Y-78738665D02*
X116005638Y-79262475D01*
X114338971Y-79214856D02*
X114434209Y-79262475D01*
X114434209Y-79262475D02*
X114624685Y-79262475D01*
X114624685Y-79262475D02*
X114719923Y-79214856D01*
X114719923Y-79214856D02*
X114767542Y-79167236D01*
X114767542Y-79167236D02*
X114815161Y-79071998D01*
X114815161Y-79071998D02*
X114815161Y-78786284D01*
X114815161Y-78786284D02*
X114767542Y-78691046D01*
X114767542Y-78691046D02*
X114719923Y-78643427D01*
X114719923Y-78643427D02*
X114624685Y-78595808D01*
X114624685Y-78595808D02*
X114434209Y-78595808D01*
X114434209Y-78595808D02*
X114338971Y-78643427D01*
X113767542Y-79262475D02*
X113862780Y-79214856D01*
X113862780Y-79214856D02*
X113910399Y-79167236D01*
X113910399Y-79167236D02*
X113958018Y-79071998D01*
X113958018Y-79071998D02*
X113958018Y-78786284D01*
X113958018Y-78786284D02*
X113910399Y-78691046D01*
X113910399Y-78691046D02*
X113862780Y-78643427D01*
X113862780Y-78643427D02*
X113767542Y-78595808D01*
X113767542Y-78595808D02*
X113624685Y-78595808D01*
X113624685Y-78595808D02*
X113529447Y-78643427D01*
X113529447Y-78643427D02*
X113481828Y-78691046D01*
X113481828Y-78691046D02*
X113434209Y-78786284D01*
X113434209Y-78786284D02*
X113434209Y-79071998D01*
X113434209Y-79071998D02*
X113481828Y-79167236D01*
X113481828Y-79167236D02*
X113529447Y-79214856D01*
X113529447Y-79214856D02*
X113624685Y-79262475D01*
X113624685Y-79262475D02*
X113767542Y-79262475D01*
X113005637Y-79262475D02*
X113005637Y-78595808D01*
X113005637Y-78691046D02*
X112958018Y-78643427D01*
X112958018Y-78643427D02*
X112862780Y-78595808D01*
X112862780Y-78595808D02*
X112719923Y-78595808D01*
X112719923Y-78595808D02*
X112624685Y-78643427D01*
X112624685Y-78643427D02*
X112577066Y-78738665D01*
X112577066Y-78738665D02*
X112577066Y-79262475D01*
X112577066Y-78738665D02*
X112529447Y-78643427D01*
X112529447Y-78643427D02*
X112434209Y-78595808D01*
X112434209Y-78595808D02*
X112291352Y-78595808D01*
X112291352Y-78595808D02*
X112196113Y-78643427D01*
X112196113Y-78643427D02*
X112148494Y-78738665D01*
X112148494Y-78738665D02*
X112148494Y-79262475D01*
X111672304Y-78595808D02*
X111672304Y-79595808D01*
X111672304Y-78643427D02*
X111577066Y-78595808D01*
X111577066Y-78595808D02*
X111386590Y-78595808D01*
X111386590Y-78595808D02*
X111291352Y-78643427D01*
X111291352Y-78643427D02*
X111243733Y-78691046D01*
X111243733Y-78691046D02*
X111196114Y-78786284D01*
X111196114Y-78786284D02*
X111196114Y-79071998D01*
X111196114Y-79071998D02*
X111243733Y-79167236D01*
X111243733Y-79167236D02*
X111291352Y-79214856D01*
X111291352Y-79214856D02*
X111386590Y-79262475D01*
X111386590Y-79262475D02*
X111577066Y-79262475D01*
X111577066Y-79262475D02*
X111672304Y-79214856D01*
X110624685Y-79262475D02*
X110719923Y-79214856D01*
X110719923Y-79214856D02*
X110767542Y-79119617D01*
X110767542Y-79119617D02*
X110767542Y-78262475D01*
X109815161Y-79262475D02*
X109815161Y-78738665D01*
X109815161Y-78738665D02*
X109862780Y-78643427D01*
X109862780Y-78643427D02*
X109958018Y-78595808D01*
X109958018Y-78595808D02*
X110148494Y-78595808D01*
X110148494Y-78595808D02*
X110243732Y-78643427D01*
X109815161Y-79214856D02*
X109910399Y-79262475D01*
X109910399Y-79262475D02*
X110148494Y-79262475D01*
X110148494Y-79262475D02*
X110243732Y-79214856D01*
X110243732Y-79214856D02*
X110291351Y-79119617D01*
X110291351Y-79119617D02*
X110291351Y-79024379D01*
X110291351Y-79024379D02*
X110243732Y-78929141D01*
X110243732Y-78929141D02*
X110148494Y-78881522D01*
X110148494Y-78881522D02*
X109910399Y-78881522D01*
X109910399Y-78881522D02*
X109815161Y-78833903D01*
X109338970Y-79262475D02*
X109338970Y-78595808D01*
X109338970Y-78262475D02*
X109386589Y-78310094D01*
X109386589Y-78310094D02*
X109338970Y-78357713D01*
X109338970Y-78357713D02*
X109291351Y-78310094D01*
X109291351Y-78310094D02*
X109338970Y-78262475D01*
X109338970Y-78262475D02*
X109338970Y-78357713D01*
X108862780Y-78595808D02*
X108862780Y-79262475D01*
X108862780Y-78691046D02*
X108815161Y-78643427D01*
X108815161Y-78643427D02*
X108719923Y-78595808D01*
X108719923Y-78595808D02*
X108577066Y-78595808D01*
X108577066Y-78595808D02*
X108481828Y-78643427D01*
X108481828Y-78643427D02*
X108434209Y-78738665D01*
X108434209Y-78738665D02*
X108434209Y-79262475D01*
X108005637Y-79214856D02*
X107910399Y-79262475D01*
X107910399Y-79262475D02*
X107719923Y-79262475D01*
X107719923Y-79262475D02*
X107624685Y-79214856D01*
X107624685Y-79214856D02*
X107577066Y-79119617D01*
X107577066Y-79119617D02*
X107577066Y-79071998D01*
X107577066Y-79071998D02*
X107624685Y-78976760D01*
X107624685Y-78976760D02*
X107719923Y-78929141D01*
X107719923Y-78929141D02*
X107862780Y-78929141D01*
X107862780Y-78929141D02*
X107958018Y-78881522D01*
X107958018Y-78881522D02*
X108005637Y-78786284D01*
X108005637Y-78786284D02*
X108005637Y-78738665D01*
X108005637Y-78738665D02*
X107958018Y-78643427D01*
X107958018Y-78643427D02*
X107862780Y-78595808D01*
X107862780Y-78595808D02*
X107719923Y-78595808D01*
X107719923Y-78595808D02*
X107624685Y-78643427D01*
X105958018Y-79262475D02*
X105958018Y-78738665D01*
X105958018Y-78738665D02*
X106005637Y-78643427D01*
X106005637Y-78643427D02*
X106100875Y-78595808D01*
X106100875Y-78595808D02*
X106291351Y-78595808D01*
X106291351Y-78595808D02*
X106386589Y-78643427D01*
X105958018Y-79214856D02*
X106053256Y-79262475D01*
X106053256Y-79262475D02*
X106291351Y-79262475D01*
X106291351Y-79262475D02*
X106386589Y-79214856D01*
X106386589Y-79214856D02*
X106434208Y-79119617D01*
X106434208Y-79119617D02*
X106434208Y-79024379D01*
X106434208Y-79024379D02*
X106386589Y-78929141D01*
X106386589Y-78929141D02*
X106291351Y-78881522D01*
X106291351Y-78881522D02*
X106053256Y-78881522D01*
X106053256Y-78881522D02*
X105958018Y-78833903D01*
X105481827Y-79262475D02*
X105481827Y-78262475D01*
X105481827Y-78643427D02*
X105386589Y-78595808D01*
X105386589Y-78595808D02*
X105196113Y-78595808D01*
X105196113Y-78595808D02*
X105100875Y-78643427D01*
X105100875Y-78643427D02*
X105053256Y-78691046D01*
X105053256Y-78691046D02*
X105005637Y-78786284D01*
X105005637Y-78786284D02*
X105005637Y-79071998D01*
X105005637Y-79071998D02*
X105053256Y-79167236D01*
X105053256Y-79167236D02*
X105100875Y-79214856D01*
X105100875Y-79214856D02*
X105196113Y-79262475D01*
X105196113Y-79262475D02*
X105386589Y-79262475D01*
X105386589Y-79262475D02*
X105481827Y-79214856D01*
X104434208Y-79262475D02*
X104529446Y-79214856D01*
X104529446Y-79214856D02*
X104577065Y-79167236D01*
X104577065Y-79167236D02*
X104624684Y-79071998D01*
X104624684Y-79071998D02*
X104624684Y-78786284D01*
X104624684Y-78786284D02*
X104577065Y-78691046D01*
X104577065Y-78691046D02*
X104529446Y-78643427D01*
X104529446Y-78643427D02*
X104434208Y-78595808D01*
X104434208Y-78595808D02*
X104291351Y-78595808D01*
X104291351Y-78595808D02*
X104196113Y-78643427D01*
X104196113Y-78643427D02*
X104148494Y-78691046D01*
X104148494Y-78691046D02*
X104100875Y-78786284D01*
X104100875Y-78786284D02*
X104100875Y-79071998D01*
X104100875Y-79071998D02*
X104148494Y-79167236D01*
X104148494Y-79167236D02*
X104196113Y-79214856D01*
X104196113Y-79214856D02*
X104291351Y-79262475D01*
X104291351Y-79262475D02*
X104434208Y-79262475D01*
X103243732Y-78595808D02*
X103243732Y-79262475D01*
X103672303Y-78595808D02*
X103672303Y-79119617D01*
X103672303Y-79119617D02*
X103624684Y-79214856D01*
X103624684Y-79214856D02*
X103529446Y-79262475D01*
X103529446Y-79262475D02*
X103386589Y-79262475D01*
X103386589Y-79262475D02*
X103291351Y-79214856D01*
X103291351Y-79214856D02*
X103243732Y-79167236D01*
X102910398Y-78595808D02*
X102529446Y-78595808D01*
X102767541Y-78262475D02*
X102767541Y-79119617D01*
X102767541Y-79119617D02*
X102719922Y-79214856D01*
X102719922Y-79214856D02*
X102624684Y-79262475D01*
X102624684Y-79262475D02*
X102529446Y-79262475D01*
X101005636Y-79262475D02*
X101005636Y-78738665D01*
X101005636Y-78738665D02*
X101053255Y-78643427D01*
X101053255Y-78643427D02*
X101148493Y-78595808D01*
X101148493Y-78595808D02*
X101338969Y-78595808D01*
X101338969Y-78595808D02*
X101434207Y-78643427D01*
X101005636Y-79214856D02*
X101100874Y-79262475D01*
X101100874Y-79262475D02*
X101338969Y-79262475D01*
X101338969Y-79262475D02*
X101434207Y-79214856D01*
X101434207Y-79214856D02*
X101481826Y-79119617D01*
X101481826Y-79119617D02*
X101481826Y-79024379D01*
X101481826Y-79024379D02*
X101434207Y-78929141D01*
X101434207Y-78929141D02*
X101338969Y-78881522D01*
X101338969Y-78881522D02*
X101100874Y-78881522D01*
X101100874Y-78881522D02*
X101005636Y-78833903D01*
X99767540Y-79262475D02*
X99767540Y-78262475D01*
X99338969Y-79262475D02*
X99338969Y-78738665D01*
X99338969Y-78738665D02*
X99386588Y-78643427D01*
X99386588Y-78643427D02*
X99481826Y-78595808D01*
X99481826Y-78595808D02*
X99624683Y-78595808D01*
X99624683Y-78595808D02*
X99719921Y-78643427D01*
X99719921Y-78643427D02*
X99767540Y-78691046D01*
X98719921Y-79262475D02*
X98815159Y-79214856D01*
X98815159Y-79214856D02*
X98862778Y-79167236D01*
X98862778Y-79167236D02*
X98910397Y-79071998D01*
X98910397Y-79071998D02*
X98910397Y-78786284D01*
X98910397Y-78786284D02*
X98862778Y-78691046D01*
X98862778Y-78691046D02*
X98815159Y-78643427D01*
X98815159Y-78643427D02*
X98719921Y-78595808D01*
X98719921Y-78595808D02*
X98577064Y-78595808D01*
X98577064Y-78595808D02*
X98481826Y-78643427D01*
X98481826Y-78643427D02*
X98434207Y-78691046D01*
X98434207Y-78691046D02*
X98386588Y-78786284D01*
X98386588Y-78786284D02*
X98386588Y-79071998D01*
X98386588Y-79071998D02*
X98434207Y-79167236D01*
X98434207Y-79167236D02*
X98481826Y-79214856D01*
X98481826Y-79214856D02*
X98577064Y-79262475D01*
X98577064Y-79262475D02*
X98719921Y-79262475D01*
X97815159Y-79262475D02*
X97910397Y-79214856D01*
X97910397Y-79214856D02*
X97958016Y-79119617D01*
X97958016Y-79119617D02*
X97958016Y-78262475D01*
X97053254Y-79214856D02*
X97148492Y-79262475D01*
X97148492Y-79262475D02*
X97338968Y-79262475D01*
X97338968Y-79262475D02*
X97434206Y-79214856D01*
X97434206Y-79214856D02*
X97481825Y-79119617D01*
X97481825Y-79119617D02*
X97481825Y-78738665D01*
X97481825Y-78738665D02*
X97434206Y-78643427D01*
X97434206Y-78643427D02*
X97338968Y-78595808D01*
X97338968Y-78595808D02*
X97148492Y-78595808D01*
X97148492Y-78595808D02*
X97053254Y-78643427D01*
X97053254Y-78643427D02*
X97005635Y-78738665D01*
X97005635Y-78738665D02*
X97005635Y-78833903D01*
X97005635Y-78833903D02*
X97481825Y-78929141D01*
X95815158Y-79262475D02*
X95815158Y-78595808D01*
X95815158Y-78262475D02*
X95862777Y-78310094D01*
X95862777Y-78310094D02*
X95815158Y-78357713D01*
X95815158Y-78357713D02*
X95767539Y-78310094D01*
X95767539Y-78310094D02*
X95815158Y-78262475D01*
X95815158Y-78262475D02*
X95815158Y-78357713D01*
X95338968Y-78595808D02*
X95338968Y-79262475D01*
X95338968Y-78691046D02*
X95291349Y-78643427D01*
X95291349Y-78643427D02*
X95196111Y-78595808D01*
X95196111Y-78595808D02*
X95053254Y-78595808D01*
X95053254Y-78595808D02*
X94958016Y-78643427D01*
X94958016Y-78643427D02*
X94910397Y-78738665D01*
X94910397Y-78738665D02*
X94910397Y-79262475D01*
X93672301Y-79262475D02*
X93672301Y-78262475D01*
X93243730Y-79262475D02*
X93243730Y-78738665D01*
X93243730Y-78738665D02*
X93291349Y-78643427D01*
X93291349Y-78643427D02*
X93386587Y-78595808D01*
X93386587Y-78595808D02*
X93529444Y-78595808D01*
X93529444Y-78595808D02*
X93624682Y-78643427D01*
X93624682Y-78643427D02*
X93672301Y-78691046D01*
X92767539Y-79262475D02*
X92767539Y-78595808D01*
X92767539Y-78262475D02*
X92815158Y-78310094D01*
X92815158Y-78310094D02*
X92767539Y-78357713D01*
X92767539Y-78357713D02*
X92719920Y-78310094D01*
X92719920Y-78310094D02*
X92767539Y-78262475D01*
X92767539Y-78262475D02*
X92767539Y-78357713D01*
X92338968Y-79214856D02*
X92243730Y-79262475D01*
X92243730Y-79262475D02*
X92053254Y-79262475D01*
X92053254Y-79262475D02*
X91958016Y-79214856D01*
X91958016Y-79214856D02*
X91910397Y-79119617D01*
X91910397Y-79119617D02*
X91910397Y-79071998D01*
X91910397Y-79071998D02*
X91958016Y-78976760D01*
X91958016Y-78976760D02*
X92053254Y-78929141D01*
X92053254Y-78929141D02*
X92196111Y-78929141D01*
X92196111Y-78929141D02*
X92291349Y-78881522D01*
X92291349Y-78881522D02*
X92338968Y-78786284D01*
X92338968Y-78786284D02*
X92338968Y-78738665D01*
X92338968Y-78738665D02*
X92291349Y-78643427D01*
X92291349Y-78643427D02*
X92196111Y-78595808D01*
X92196111Y-78595808D02*
X92053254Y-78595808D01*
X92053254Y-78595808D02*
X91958016Y-78643427D01*
X90719920Y-78595808D02*
X90719920Y-79595808D01*
X90719920Y-78643427D02*
X90624682Y-78595808D01*
X90624682Y-78595808D02*
X90434206Y-78595808D01*
X90434206Y-78595808D02*
X90338968Y-78643427D01*
X90338968Y-78643427D02*
X90291349Y-78691046D01*
X90291349Y-78691046D02*
X90243730Y-78786284D01*
X90243730Y-78786284D02*
X90243730Y-79071998D01*
X90243730Y-79071998D02*
X90291349Y-79167236D01*
X90291349Y-79167236D02*
X90338968Y-79214856D01*
X90338968Y-79214856D02*
X90434206Y-79262475D01*
X90434206Y-79262475D02*
X90624682Y-79262475D01*
X90624682Y-79262475D02*
X90719920Y-79214856D01*
X89386587Y-79262475D02*
X89386587Y-78738665D01*
X89386587Y-78738665D02*
X89434206Y-78643427D01*
X89434206Y-78643427D02*
X89529444Y-78595808D01*
X89529444Y-78595808D02*
X89719920Y-78595808D01*
X89719920Y-78595808D02*
X89815158Y-78643427D01*
X89386587Y-79214856D02*
X89481825Y-79262475D01*
X89481825Y-79262475D02*
X89719920Y-79262475D01*
X89719920Y-79262475D02*
X89815158Y-79214856D01*
X89815158Y-79214856D02*
X89862777Y-79119617D01*
X89862777Y-79119617D02*
X89862777Y-79024379D01*
X89862777Y-79024379D02*
X89815158Y-78929141D01*
X89815158Y-78929141D02*
X89719920Y-78881522D01*
X89719920Y-78881522D02*
X89481825Y-78881522D01*
X89481825Y-78881522D02*
X89386587Y-78833903D01*
X88910396Y-78595808D02*
X88910396Y-79262475D01*
X88910396Y-78691046D02*
X88862777Y-78643427D01*
X88862777Y-78643427D02*
X88767539Y-78595808D01*
X88767539Y-78595808D02*
X88624682Y-78595808D01*
X88624682Y-78595808D02*
X88529444Y-78643427D01*
X88529444Y-78643427D02*
X88481825Y-78738665D01*
X88481825Y-78738665D02*
X88481825Y-79262475D01*
X88148491Y-78595808D02*
X87767539Y-78595808D01*
X88005634Y-78262475D02*
X88005634Y-79119617D01*
X88005634Y-79119617D02*
X87958015Y-79214856D01*
X87958015Y-79214856D02*
X87862777Y-79262475D01*
X87862777Y-79262475D02*
X87767539Y-79262475D01*
X87481824Y-79214856D02*
X87386586Y-79262475D01*
X87386586Y-79262475D02*
X87196110Y-79262475D01*
X87196110Y-79262475D02*
X87100872Y-79214856D01*
X87100872Y-79214856D02*
X87053253Y-79119617D01*
X87053253Y-79119617D02*
X87053253Y-79071998D01*
X87053253Y-79071998D02*
X87100872Y-78976760D01*
X87100872Y-78976760D02*
X87196110Y-78929141D01*
X87196110Y-78929141D02*
X87338967Y-78929141D01*
X87338967Y-78929141D02*
X87434205Y-78881522D01*
X87434205Y-78881522D02*
X87481824Y-78786284D01*
X87481824Y-78786284D02*
X87481824Y-78738665D01*
X87481824Y-78738665D02*
X87434205Y-78643427D01*
X87434205Y-78643427D02*
X87338967Y-78595808D01*
X87338967Y-78595808D02*
X87196110Y-78595808D01*
X87196110Y-78595808D02*
X87100872Y-78643427D01*
X125767544Y-80872419D02*
X125767544Y-80348609D01*
X125767544Y-80348609D02*
X125815163Y-80253371D01*
X125815163Y-80253371D02*
X125910401Y-80205752D01*
X125910401Y-80205752D02*
X126100877Y-80205752D01*
X126100877Y-80205752D02*
X126196115Y-80253371D01*
X125767544Y-80824800D02*
X125862782Y-80872419D01*
X125862782Y-80872419D02*
X126100877Y-80872419D01*
X126100877Y-80872419D02*
X126196115Y-80824800D01*
X126196115Y-80824800D02*
X126243734Y-80729561D01*
X126243734Y-80729561D02*
X126243734Y-80634323D01*
X126243734Y-80634323D02*
X126196115Y-80539085D01*
X126196115Y-80539085D02*
X126100877Y-80491466D01*
X126100877Y-80491466D02*
X125862782Y-80491466D01*
X125862782Y-80491466D02*
X125767544Y-80443847D01*
X124624686Y-80205752D02*
X124434210Y-80872419D01*
X124434210Y-80872419D02*
X124243734Y-80396228D01*
X124243734Y-80396228D02*
X124053258Y-80872419D01*
X124053258Y-80872419D02*
X123862782Y-80205752D01*
X123481829Y-80872419D02*
X123481829Y-80205752D01*
X123481829Y-79872419D02*
X123529448Y-79920038D01*
X123529448Y-79920038D02*
X123481829Y-79967657D01*
X123481829Y-79967657D02*
X123434210Y-79920038D01*
X123434210Y-79920038D02*
X123481829Y-79872419D01*
X123481829Y-79872419D02*
X123481829Y-79967657D01*
X123053258Y-80824800D02*
X122958020Y-80872419D01*
X122958020Y-80872419D02*
X122767544Y-80872419D01*
X122767544Y-80872419D02*
X122672306Y-80824800D01*
X122672306Y-80824800D02*
X122624687Y-80729561D01*
X122624687Y-80729561D02*
X122624687Y-80681942D01*
X122624687Y-80681942D02*
X122672306Y-80586704D01*
X122672306Y-80586704D02*
X122767544Y-80539085D01*
X122767544Y-80539085D02*
X122910401Y-80539085D01*
X122910401Y-80539085D02*
X123005639Y-80491466D01*
X123005639Y-80491466D02*
X123053258Y-80396228D01*
X123053258Y-80396228D02*
X123053258Y-80348609D01*
X123053258Y-80348609D02*
X123005639Y-80253371D01*
X123005639Y-80253371D02*
X122910401Y-80205752D01*
X122910401Y-80205752D02*
X122767544Y-80205752D01*
X122767544Y-80205752D02*
X122672306Y-80253371D01*
X121815163Y-80824800D02*
X121910401Y-80872419D01*
X121910401Y-80872419D02*
X122100877Y-80872419D01*
X122100877Y-80872419D02*
X122196115Y-80824800D01*
X122196115Y-80824800D02*
X122243734Y-80729561D01*
X122243734Y-80729561D02*
X122243734Y-80348609D01*
X122243734Y-80348609D02*
X122196115Y-80253371D01*
X122196115Y-80253371D02*
X122100877Y-80205752D01*
X122100877Y-80205752D02*
X121910401Y-80205752D01*
X121910401Y-80205752D02*
X121815163Y-80253371D01*
X121815163Y-80253371D02*
X121767544Y-80348609D01*
X121767544Y-80348609D02*
X121767544Y-80443847D01*
X121767544Y-80443847D02*
X122243734Y-80539085D01*
X120577067Y-80872419D02*
X120577067Y-80205752D01*
X120577067Y-80300990D02*
X120529448Y-80253371D01*
X120529448Y-80253371D02*
X120434210Y-80205752D01*
X120434210Y-80205752D02*
X120291353Y-80205752D01*
X120291353Y-80205752D02*
X120196115Y-80253371D01*
X120196115Y-80253371D02*
X120148496Y-80348609D01*
X120148496Y-80348609D02*
X120148496Y-80872419D01*
X120148496Y-80348609D02*
X120100877Y-80253371D01*
X120100877Y-80253371D02*
X120005639Y-80205752D01*
X120005639Y-80205752D02*
X119862782Y-80205752D01*
X119862782Y-80205752D02*
X119767543Y-80253371D01*
X119767543Y-80253371D02*
X119719924Y-80348609D01*
X119719924Y-80348609D02*
X119719924Y-80872419D01*
X118815163Y-80872419D02*
X118815163Y-80348609D01*
X118815163Y-80348609D02*
X118862782Y-80253371D01*
X118862782Y-80253371D02*
X118958020Y-80205752D01*
X118958020Y-80205752D02*
X119148496Y-80205752D01*
X119148496Y-80205752D02*
X119243734Y-80253371D01*
X118815163Y-80824800D02*
X118910401Y-80872419D01*
X118910401Y-80872419D02*
X119148496Y-80872419D01*
X119148496Y-80872419D02*
X119243734Y-80824800D01*
X119243734Y-80824800D02*
X119291353Y-80729561D01*
X119291353Y-80729561D02*
X119291353Y-80634323D01*
X119291353Y-80634323D02*
X119243734Y-80539085D01*
X119243734Y-80539085D02*
X119148496Y-80491466D01*
X119148496Y-80491466D02*
X118910401Y-80491466D01*
X118910401Y-80491466D02*
X118815163Y-80443847D01*
X118338972Y-80205752D02*
X118338972Y-80872419D01*
X118338972Y-80300990D02*
X118291353Y-80253371D01*
X118291353Y-80253371D02*
X118196115Y-80205752D01*
X118196115Y-80205752D02*
X118053258Y-80205752D01*
X118053258Y-80205752D02*
X117958020Y-80253371D01*
X117958020Y-80253371D02*
X117910401Y-80348609D01*
X117910401Y-80348609D02*
X117910401Y-80872419D01*
X116243734Y-80205752D02*
X116243734Y-80872419D01*
X116672305Y-80205752D02*
X116672305Y-80729561D01*
X116672305Y-80729561D02*
X116624686Y-80824800D01*
X116624686Y-80824800D02*
X116529448Y-80872419D01*
X116529448Y-80872419D02*
X116386591Y-80872419D01*
X116386591Y-80872419D02*
X116291353Y-80824800D01*
X116291353Y-80824800D02*
X116243734Y-80777180D01*
X115815162Y-80824800D02*
X115719924Y-80872419D01*
X115719924Y-80872419D02*
X115529448Y-80872419D01*
X115529448Y-80872419D02*
X115434210Y-80824800D01*
X115434210Y-80824800D02*
X115386591Y-80729561D01*
X115386591Y-80729561D02*
X115386591Y-80681942D01*
X115386591Y-80681942D02*
X115434210Y-80586704D01*
X115434210Y-80586704D02*
X115529448Y-80539085D01*
X115529448Y-80539085D02*
X115672305Y-80539085D01*
X115672305Y-80539085D02*
X115767543Y-80491466D01*
X115767543Y-80491466D02*
X115815162Y-80396228D01*
X115815162Y-80396228D02*
X115815162Y-80348609D01*
X115815162Y-80348609D02*
X115767543Y-80253371D01*
X115767543Y-80253371D02*
X115672305Y-80205752D01*
X115672305Y-80205752D02*
X115529448Y-80205752D01*
X115529448Y-80205752D02*
X115434210Y-80253371D01*
X114577067Y-80824800D02*
X114672305Y-80872419D01*
X114672305Y-80872419D02*
X114862781Y-80872419D01*
X114862781Y-80872419D02*
X114958019Y-80824800D01*
X114958019Y-80824800D02*
X115005638Y-80729561D01*
X115005638Y-80729561D02*
X115005638Y-80348609D01*
X115005638Y-80348609D02*
X114958019Y-80253371D01*
X114958019Y-80253371D02*
X114862781Y-80205752D01*
X114862781Y-80205752D02*
X114672305Y-80205752D01*
X114672305Y-80205752D02*
X114577067Y-80253371D01*
X114577067Y-80253371D02*
X114529448Y-80348609D01*
X114529448Y-80348609D02*
X114529448Y-80443847D01*
X114529448Y-80443847D02*
X115005638Y-80539085D01*
X114148495Y-80824800D02*
X114053257Y-80872419D01*
X114053257Y-80872419D02*
X113862781Y-80872419D01*
X113862781Y-80872419D02*
X113767543Y-80824800D01*
X113767543Y-80824800D02*
X113719924Y-80729561D01*
X113719924Y-80729561D02*
X113719924Y-80681942D01*
X113719924Y-80681942D02*
X113767543Y-80586704D01*
X113767543Y-80586704D02*
X113862781Y-80539085D01*
X113862781Y-80539085D02*
X114005638Y-80539085D01*
X114005638Y-80539085D02*
X114100876Y-80491466D01*
X114100876Y-80491466D02*
X114148495Y-80396228D01*
X114148495Y-80396228D02*
X114148495Y-80348609D01*
X114148495Y-80348609D02*
X114100876Y-80253371D01*
X114100876Y-80253371D02*
X114005638Y-80205752D01*
X114005638Y-80205752D02*
X113862781Y-80205752D01*
X113862781Y-80205752D02*
X113767543Y-80253371D01*
X112529447Y-80872419D02*
X112529447Y-80205752D01*
X112529447Y-79872419D02*
X112577066Y-79920038D01*
X112577066Y-79920038D02*
X112529447Y-79967657D01*
X112529447Y-79967657D02*
X112481828Y-79920038D01*
X112481828Y-79920038D02*
X112529447Y-79872419D01*
X112529447Y-79872419D02*
X112529447Y-79967657D01*
X112196114Y-80205752D02*
X111815162Y-80205752D01*
X112053257Y-79872419D02*
X112053257Y-80729561D01*
X112053257Y-80729561D02*
X112005638Y-80824800D01*
X112005638Y-80824800D02*
X111910400Y-80872419D01*
X111910400Y-80872419D02*
X111815162Y-80872419D01*
X110862780Y-80205752D02*
X110481828Y-80205752D01*
X110719923Y-79872419D02*
X110719923Y-80729561D01*
X110719923Y-80729561D02*
X110672304Y-80824800D01*
X110672304Y-80824800D02*
X110577066Y-80872419D01*
X110577066Y-80872419D02*
X110481828Y-80872419D01*
X110005637Y-80872419D02*
X110100875Y-80824800D01*
X110100875Y-80824800D02*
X110148494Y-80777180D01*
X110148494Y-80777180D02*
X110196113Y-80681942D01*
X110196113Y-80681942D02*
X110196113Y-80396228D01*
X110196113Y-80396228D02*
X110148494Y-80300990D01*
X110148494Y-80300990D02*
X110100875Y-80253371D01*
X110100875Y-80253371D02*
X110005637Y-80205752D01*
X110005637Y-80205752D02*
X109862780Y-80205752D01*
X109862780Y-80205752D02*
X109767542Y-80253371D01*
X109767542Y-80253371D02*
X109719923Y-80300990D01*
X109719923Y-80300990D02*
X109672304Y-80396228D01*
X109672304Y-80396228D02*
X109672304Y-80681942D01*
X109672304Y-80681942D02*
X109719923Y-80777180D01*
X109719923Y-80777180D02*
X109767542Y-80824800D01*
X109767542Y-80824800D02*
X109862780Y-80872419D01*
X109862780Y-80872419D02*
X110005637Y-80872419D01*
X108529446Y-80824800D02*
X108434208Y-80872419D01*
X108434208Y-80872419D02*
X108243732Y-80872419D01*
X108243732Y-80872419D02*
X108148494Y-80824800D01*
X108148494Y-80824800D02*
X108100875Y-80729561D01*
X108100875Y-80729561D02*
X108100875Y-80681942D01*
X108100875Y-80681942D02*
X108148494Y-80586704D01*
X108148494Y-80586704D02*
X108243732Y-80539085D01*
X108243732Y-80539085D02*
X108386589Y-80539085D01*
X108386589Y-80539085D02*
X108481827Y-80491466D01*
X108481827Y-80491466D02*
X108529446Y-80396228D01*
X108529446Y-80396228D02*
X108529446Y-80348609D01*
X108529446Y-80348609D02*
X108481827Y-80253371D01*
X108481827Y-80253371D02*
X108386589Y-80205752D01*
X108386589Y-80205752D02*
X108243732Y-80205752D01*
X108243732Y-80205752D02*
X108148494Y-80253371D01*
X107243732Y-80824800D02*
X107338970Y-80872419D01*
X107338970Y-80872419D02*
X107529446Y-80872419D01*
X107529446Y-80872419D02*
X107624684Y-80824800D01*
X107624684Y-80824800D02*
X107672303Y-80777180D01*
X107672303Y-80777180D02*
X107719922Y-80681942D01*
X107719922Y-80681942D02*
X107719922Y-80396228D01*
X107719922Y-80396228D02*
X107672303Y-80300990D01*
X107672303Y-80300990D02*
X107624684Y-80253371D01*
X107624684Y-80253371D02*
X107529446Y-80205752D01*
X107529446Y-80205752D02*
X107338970Y-80205752D01*
X107338970Y-80205752D02*
X107243732Y-80253371D01*
X106815160Y-80872419D02*
X106815160Y-80205752D01*
X106815160Y-80396228D02*
X106767541Y-80300990D01*
X106767541Y-80300990D02*
X106719922Y-80253371D01*
X106719922Y-80253371D02*
X106624684Y-80205752D01*
X106624684Y-80205752D02*
X106529446Y-80205752D01*
X105767541Y-80872419D02*
X105767541Y-80348609D01*
X105767541Y-80348609D02*
X105815160Y-80253371D01*
X105815160Y-80253371D02*
X105910398Y-80205752D01*
X105910398Y-80205752D02*
X106100874Y-80205752D01*
X106100874Y-80205752D02*
X106196112Y-80253371D01*
X105767541Y-80824800D02*
X105862779Y-80872419D01*
X105862779Y-80872419D02*
X106100874Y-80872419D01*
X106100874Y-80872419D02*
X106196112Y-80824800D01*
X106196112Y-80824800D02*
X106243731Y-80729561D01*
X106243731Y-80729561D02*
X106243731Y-80634323D01*
X106243731Y-80634323D02*
X106196112Y-80539085D01*
X106196112Y-80539085D02*
X106100874Y-80491466D01*
X106100874Y-80491466D02*
X105862779Y-80491466D01*
X105862779Y-80491466D02*
X105767541Y-80443847D01*
X105434207Y-80205752D02*
X105053255Y-80205752D01*
X105291350Y-79872419D02*
X105291350Y-80729561D01*
X105291350Y-80729561D02*
X105243731Y-80824800D01*
X105243731Y-80824800D02*
X105148493Y-80872419D01*
X105148493Y-80872419D02*
X105053255Y-80872419D01*
X104291350Y-80824800D02*
X104386588Y-80872419D01*
X104386588Y-80872419D02*
X104577064Y-80872419D01*
X104577064Y-80872419D02*
X104672302Y-80824800D01*
X104672302Y-80824800D02*
X104719921Y-80777180D01*
X104719921Y-80777180D02*
X104767540Y-80681942D01*
X104767540Y-80681942D02*
X104767540Y-80396228D01*
X104767540Y-80396228D02*
X104719921Y-80300990D01*
X104719921Y-80300990D02*
X104672302Y-80253371D01*
X104672302Y-80253371D02*
X104577064Y-80205752D01*
X104577064Y-80205752D02*
X104386588Y-80205752D01*
X104386588Y-80205752D02*
X104291350Y-80253371D01*
X103862778Y-80872419D02*
X103862778Y-79872419D01*
X103434207Y-80872419D02*
X103434207Y-80348609D01*
X103434207Y-80348609D02*
X103481826Y-80253371D01*
X103481826Y-80253371D02*
X103577064Y-80205752D01*
X103577064Y-80205752D02*
X103719921Y-80205752D01*
X103719921Y-80205752D02*
X103815159Y-80253371D01*
X103815159Y-80253371D02*
X103862778Y-80300990D01*
X102196111Y-80872419D02*
X102196111Y-79872419D01*
X101767540Y-80872419D02*
X101767540Y-80348609D01*
X101767540Y-80348609D02*
X101815159Y-80253371D01*
X101815159Y-80253371D02*
X101910397Y-80205752D01*
X101910397Y-80205752D02*
X102053254Y-80205752D01*
X102053254Y-80205752D02*
X102148492Y-80253371D01*
X102148492Y-80253371D02*
X102196111Y-80300990D01*
X101291349Y-80872419D02*
X101291349Y-80205752D01*
X101291349Y-79872419D02*
X101338968Y-79920038D01*
X101338968Y-79920038D02*
X101291349Y-79967657D01*
X101291349Y-79967657D02*
X101243730Y-79920038D01*
X101243730Y-79920038D02*
X101291349Y-79872419D01*
X101291349Y-79872419D02*
X101291349Y-79967657D01*
X100862778Y-80824800D02*
X100767540Y-80872419D01*
X100767540Y-80872419D02*
X100577064Y-80872419D01*
X100577064Y-80872419D02*
X100481826Y-80824800D01*
X100481826Y-80824800D02*
X100434207Y-80729561D01*
X100434207Y-80729561D02*
X100434207Y-80681942D01*
X100434207Y-80681942D02*
X100481826Y-80586704D01*
X100481826Y-80586704D02*
X100577064Y-80539085D01*
X100577064Y-80539085D02*
X100719921Y-80539085D01*
X100719921Y-80539085D02*
X100815159Y-80491466D01*
X100815159Y-80491466D02*
X100862778Y-80396228D01*
X100862778Y-80396228D02*
X100862778Y-80348609D01*
X100862778Y-80348609D02*
X100815159Y-80253371D01*
X100815159Y-80253371D02*
X100719921Y-80205752D01*
X100719921Y-80205752D02*
X100577064Y-80205752D01*
X100577064Y-80205752D02*
X100481826Y-80253371D01*
X99243730Y-80872419D02*
X99243730Y-79872419D01*
X99243730Y-80253371D02*
X99148492Y-80205752D01*
X99148492Y-80205752D02*
X98958016Y-80205752D01*
X98958016Y-80205752D02*
X98862778Y-80253371D01*
X98862778Y-80253371D02*
X98815159Y-80300990D01*
X98815159Y-80300990D02*
X98767540Y-80396228D01*
X98767540Y-80396228D02*
X98767540Y-80681942D01*
X98767540Y-80681942D02*
X98815159Y-80777180D01*
X98815159Y-80777180D02*
X98862778Y-80824800D01*
X98862778Y-80824800D02*
X98958016Y-80872419D01*
X98958016Y-80872419D02*
X99148492Y-80872419D01*
X99148492Y-80872419D02*
X99243730Y-80824800D01*
X97910397Y-80872419D02*
X97910397Y-80348609D01*
X97910397Y-80348609D02*
X97958016Y-80253371D01*
X97958016Y-80253371D02*
X98053254Y-80205752D01*
X98053254Y-80205752D02*
X98243730Y-80205752D01*
X98243730Y-80205752D02*
X98338968Y-80253371D01*
X97910397Y-80824800D02*
X98005635Y-80872419D01*
X98005635Y-80872419D02*
X98243730Y-80872419D01*
X98243730Y-80872419D02*
X98338968Y-80824800D01*
X98338968Y-80824800D02*
X98386587Y-80729561D01*
X98386587Y-80729561D02*
X98386587Y-80634323D01*
X98386587Y-80634323D02*
X98338968Y-80539085D01*
X98338968Y-80539085D02*
X98243730Y-80491466D01*
X98243730Y-80491466D02*
X98005635Y-80491466D01*
X98005635Y-80491466D02*
X97910397Y-80443847D01*
X97291349Y-80872419D02*
X97386587Y-80824800D01*
X97386587Y-80824800D02*
X97434206Y-80729561D01*
X97434206Y-80729561D02*
X97434206Y-79872419D01*
X96767539Y-80872419D02*
X96862777Y-80824800D01*
X96862777Y-80824800D02*
X96910396Y-80729561D01*
X96910396Y-80729561D02*
X96910396Y-79872419D01*
X96434205Y-80824800D02*
X96338967Y-80872419D01*
X96338967Y-80872419D02*
X96148491Y-80872419D01*
X96148491Y-80872419D02*
X96053253Y-80824800D01*
X96053253Y-80824800D02*
X96005634Y-80729561D01*
X96005634Y-80729561D02*
X96005634Y-80681942D01*
X96005634Y-80681942D02*
X96053253Y-80586704D01*
X96053253Y-80586704D02*
X96148491Y-80539085D01*
X96148491Y-80539085D02*
X96291348Y-80539085D01*
X96291348Y-80539085D02*
X96386586Y-80491466D01*
X96386586Y-80491466D02*
X96434205Y-80396228D01*
X96434205Y-80396228D02*
X96434205Y-80348609D01*
X96434205Y-80348609D02*
X96386586Y-80253371D01*
X96386586Y-80253371D02*
X96291348Y-80205752D01*
X96291348Y-80205752D02*
X96148491Y-80205752D01*
X96148491Y-80205752D02*
X96053253Y-80253371D01*
%LPC*%
D11*
%TO.C,REF\u002A\u002A*%
X123250000Y-85250000D03*
%TD*%
D12*
%TO.C,J4*%
X117000000Y-46000000D03*
D13*
X122000000Y-46000000D03*
%TD*%
D11*
%TO.C,REF\u002A\u002A*%
X85750000Y-55750000D03*
%TD*%
D12*
%TO.C,J3*%
X101500000Y-46000000D03*
D13*
X106500000Y-46000000D03*
%TD*%
D14*
%TO.C,U1*%
X116920000Y-56750000D03*
D15*
X119460000Y-56750000D03*
X122000000Y-56750000D03*
%TD*%
D16*
%TO.C,J1*%
X115350000Y-91750000D03*
D11*
X108150000Y-91750000D03*
%TD*%
D14*
%TO.C,PS1*%
X101420000Y-56750000D03*
D15*
X103960000Y-56750000D03*
X106500000Y-56750000D03*
%TD*%
D17*
%TO.C,SW1*%
X120160000Y-75982500D03*
D18*
X120160000Y-71382500D03*
%TD*%
D19*
%TO.C,J2*%
X92000000Y-46777500D03*
D20*
X87000000Y-46777500D03*
%TD*%
%LPD*%
M02*
