%TF.GenerationSoftware,KiCad,Pcbnew,8.0.2*%
%TF.CreationDate,2024-10-02T19:35:02-04:00*%
%TF.ProjectId,FewawiPowerBoard,46657761-7769-4506-9f77-6572426f6172,rev?*%
%TF.SameCoordinates,Original*%
%TF.FileFunction,Legend,Top*%
%TF.FilePolarity,Positive*%
%FSLAX46Y46*%
G04 Gerber Fmt 4.6, Leading zero omitted, Abs format (unit mm)*
G04 Created by KiCad (PCBNEW 8.0.2) date 2024-10-02 19:35:02*
%MOMM*%
%LPD*%
G01*
G04 APERTURE LIST*
G04 Aperture macros list*
%AMRoundRect*
0 Rectangle with rounded corners*
0 $1 Rounding radius*
0 $2 $3 $4 $5 $6 $7 $8 $9 X,Y pos of 4 corners*
0 Add a 4 corners polygon primitive as box body*
4,1,4,$2,$3,$4,$5,$6,$7,$8,$9,$2,$3,0*
0 Add four circle primitives for the rounded corners*
1,1,$1+$1,$2,$3*
1,1,$1+$1,$4,$5*
1,1,$1+$1,$6,$7*
1,1,$1+$1,$8,$9*
0 Add four rect primitives between the rounded corners*
20,1,$1+$1,$2,$3,$4,$5,0*
20,1,$1+$1,$4,$5,$6,$7,0*
20,1,$1+$1,$6,$7,$8,$9,0*
20,1,$1+$1,$8,$9,$2,$3,0*%
G04 Aperture macros list end*
%ADD10C,0.100000*%
%ADD11C,0.150000*%
%ADD12C,0.098425*%
%ADD13C,0.254000*%
%ADD14C,0.120000*%
%ADD15C,0.127000*%
%ADD16C,0.200000*%
%ADD17C,6.000000*%
%ADD18R,3.800000X3.800000*%
%ADD19C,4.000000*%
%ADD20RoundRect,0.102000X-0.900000X0.585000X-0.900000X-0.585000X0.900000X-0.585000X0.900000X0.585000X0*%
%ADD21R,1.257000X3.429000*%
%ADD22R,10.668000X9.017000*%
%ADD23RoundRect,0.250000X0.475000X-0.337500X0.475000X0.337500X-0.475000X0.337500X-0.475000X-0.337500X0*%
%ADD24RoundRect,0.250000X0.337500X0.475000X-0.337500X0.475000X-0.337500X-0.475000X0.337500X-0.475000X0*%
%ADD25RoundRect,0.102000X-0.679000X-0.679000X0.679000X-0.679000X0.679000X0.679000X-0.679000X0.679000X0*%
%ADD26C,1.562000*%
%ADD27RoundRect,0.250000X0.450000X-0.350000X0.450000X0.350000X-0.450000X0.350000X-0.450000X-0.350000X0*%
%ADD28RoundRect,1.500000X1.500000X1.500000X-1.500000X1.500000X-1.500000X-1.500000X1.500000X-1.500000X0*%
%ADD29R,1.300000X0.600000*%
%ADD30RoundRect,0.102000X1.312500X-1.312500X1.312500X1.312500X-1.312500X1.312500X-1.312500X-1.312500X0*%
%ADD31C,2.829000*%
%ADD32RoundRect,0.250000X0.750000X1.550000X-0.750000X1.550000X-0.750000X-1.550000X0.750000X-1.550000X0*%
%ADD33O,2.000000X3.600000*%
%ADD34RoundRect,0.250000X-0.450000X0.350000X-0.450000X-0.350000X0.450000X-0.350000X0.450000X0.350000X0*%
G04 APERTURE END LIST*
D10*
X81387217Y-95848609D02*
X81053884Y-95848609D01*
X81053884Y-96372419D02*
X81053884Y-95372419D01*
X81053884Y-95372419D02*
X81530074Y-95372419D01*
X82291979Y-96324800D02*
X82196741Y-96372419D01*
X82196741Y-96372419D02*
X82006265Y-96372419D01*
X82006265Y-96372419D02*
X81911027Y-96324800D01*
X81911027Y-96324800D02*
X81863408Y-96229561D01*
X81863408Y-96229561D02*
X81863408Y-95848609D01*
X81863408Y-95848609D02*
X81911027Y-95753371D01*
X81911027Y-95753371D02*
X82006265Y-95705752D01*
X82006265Y-95705752D02*
X82196741Y-95705752D01*
X82196741Y-95705752D02*
X82291979Y-95753371D01*
X82291979Y-95753371D02*
X82339598Y-95848609D01*
X82339598Y-95848609D02*
X82339598Y-95943847D01*
X82339598Y-95943847D02*
X81863408Y-96039085D01*
X82672932Y-95705752D02*
X82863408Y-96372419D01*
X82863408Y-96372419D02*
X83053884Y-95896228D01*
X83053884Y-95896228D02*
X83244360Y-96372419D01*
X83244360Y-96372419D02*
X83434836Y-95705752D01*
X84244360Y-96372419D02*
X84244360Y-95848609D01*
X84244360Y-95848609D02*
X84196741Y-95753371D01*
X84196741Y-95753371D02*
X84101503Y-95705752D01*
X84101503Y-95705752D02*
X83911027Y-95705752D01*
X83911027Y-95705752D02*
X83815789Y-95753371D01*
X84244360Y-96324800D02*
X84149122Y-96372419D01*
X84149122Y-96372419D02*
X83911027Y-96372419D01*
X83911027Y-96372419D02*
X83815789Y-96324800D01*
X83815789Y-96324800D02*
X83768170Y-96229561D01*
X83768170Y-96229561D02*
X83768170Y-96134323D01*
X83768170Y-96134323D02*
X83815789Y-96039085D01*
X83815789Y-96039085D02*
X83911027Y-95991466D01*
X83911027Y-95991466D02*
X84149122Y-95991466D01*
X84149122Y-95991466D02*
X84244360Y-95943847D01*
X84625313Y-95705752D02*
X84815789Y-96372419D01*
X84815789Y-96372419D02*
X85006265Y-95896228D01*
X85006265Y-95896228D02*
X85196741Y-96372419D01*
X85196741Y-96372419D02*
X85387217Y-95705752D01*
X85768170Y-96372419D02*
X85768170Y-95705752D01*
X85768170Y-95372419D02*
X85720551Y-95420038D01*
X85720551Y-95420038D02*
X85768170Y-95467657D01*
X85768170Y-95467657D02*
X85815789Y-95420038D01*
X85815789Y-95420038D02*
X85768170Y-95372419D01*
X85768170Y-95372419D02*
X85768170Y-95467657D01*
X87006265Y-96372419D02*
X87006265Y-95372419D01*
X87006265Y-95372419D02*
X87387217Y-95372419D01*
X87387217Y-95372419D02*
X87482455Y-95420038D01*
X87482455Y-95420038D02*
X87530074Y-95467657D01*
X87530074Y-95467657D02*
X87577693Y-95562895D01*
X87577693Y-95562895D02*
X87577693Y-95705752D01*
X87577693Y-95705752D02*
X87530074Y-95800990D01*
X87530074Y-95800990D02*
X87482455Y-95848609D01*
X87482455Y-95848609D02*
X87387217Y-95896228D01*
X87387217Y-95896228D02*
X87006265Y-95896228D01*
X88149122Y-96372419D02*
X88053884Y-96324800D01*
X88053884Y-96324800D02*
X88006265Y-96277180D01*
X88006265Y-96277180D02*
X87958646Y-96181942D01*
X87958646Y-96181942D02*
X87958646Y-95896228D01*
X87958646Y-95896228D02*
X88006265Y-95800990D01*
X88006265Y-95800990D02*
X88053884Y-95753371D01*
X88053884Y-95753371D02*
X88149122Y-95705752D01*
X88149122Y-95705752D02*
X88291979Y-95705752D01*
X88291979Y-95705752D02*
X88387217Y-95753371D01*
X88387217Y-95753371D02*
X88434836Y-95800990D01*
X88434836Y-95800990D02*
X88482455Y-95896228D01*
X88482455Y-95896228D02*
X88482455Y-96181942D01*
X88482455Y-96181942D02*
X88434836Y-96277180D01*
X88434836Y-96277180D02*
X88387217Y-96324800D01*
X88387217Y-96324800D02*
X88291979Y-96372419D01*
X88291979Y-96372419D02*
X88149122Y-96372419D01*
X88815789Y-95705752D02*
X89006265Y-96372419D01*
X89006265Y-96372419D02*
X89196741Y-95896228D01*
X89196741Y-95896228D02*
X89387217Y-96372419D01*
X89387217Y-96372419D02*
X89577693Y-95705752D01*
X90339598Y-96324800D02*
X90244360Y-96372419D01*
X90244360Y-96372419D02*
X90053884Y-96372419D01*
X90053884Y-96372419D02*
X89958646Y-96324800D01*
X89958646Y-96324800D02*
X89911027Y-96229561D01*
X89911027Y-96229561D02*
X89911027Y-95848609D01*
X89911027Y-95848609D02*
X89958646Y-95753371D01*
X89958646Y-95753371D02*
X90053884Y-95705752D01*
X90053884Y-95705752D02*
X90244360Y-95705752D01*
X90244360Y-95705752D02*
X90339598Y-95753371D01*
X90339598Y-95753371D02*
X90387217Y-95848609D01*
X90387217Y-95848609D02*
X90387217Y-95943847D01*
X90387217Y-95943847D02*
X89911027Y-96039085D01*
X90815789Y-96372419D02*
X90815789Y-95705752D01*
X90815789Y-95896228D02*
X90863408Y-95800990D01*
X90863408Y-95800990D02*
X90911027Y-95753371D01*
X90911027Y-95753371D02*
X91006265Y-95705752D01*
X91006265Y-95705752D02*
X91101503Y-95705752D01*
X92196742Y-96277180D02*
X92244361Y-96324800D01*
X92244361Y-96324800D02*
X92196742Y-96372419D01*
X92196742Y-96372419D02*
X92149123Y-96324800D01*
X92149123Y-96324800D02*
X92196742Y-96277180D01*
X92196742Y-96277180D02*
X92196742Y-96372419D01*
X92196742Y-95753371D02*
X92244361Y-95800990D01*
X92244361Y-95800990D02*
X92196742Y-95848609D01*
X92196742Y-95848609D02*
X92149123Y-95800990D01*
X92149123Y-95800990D02*
X92196742Y-95753371D01*
X92196742Y-95753371D02*
X92196742Y-95848609D01*
X92577694Y-95372419D02*
X93196741Y-95372419D01*
X93196741Y-95372419D02*
X92863408Y-95753371D01*
X92863408Y-95753371D02*
X93006265Y-95753371D01*
X93006265Y-95753371D02*
X93101503Y-95800990D01*
X93101503Y-95800990D02*
X93149122Y-95848609D01*
X93149122Y-95848609D02*
X93196741Y-95943847D01*
X93196741Y-95943847D02*
X93196741Y-96181942D01*
X93196741Y-96181942D02*
X93149122Y-96277180D01*
X93149122Y-96277180D02*
X93101503Y-96324800D01*
X93101503Y-96324800D02*
X93006265Y-96372419D01*
X93006265Y-96372419D02*
X92720551Y-96372419D01*
X92720551Y-96372419D02*
X92625313Y-96324800D01*
X92625313Y-96324800D02*
X92577694Y-96277180D01*
D11*
X121916666Y-81704819D02*
X121583333Y-81228628D01*
X121345238Y-81704819D02*
X121345238Y-80704819D01*
X121345238Y-80704819D02*
X121726190Y-80704819D01*
X121726190Y-80704819D02*
X121821428Y-80752438D01*
X121821428Y-80752438D02*
X121869047Y-80800057D01*
X121869047Y-80800057D02*
X121916666Y-80895295D01*
X121916666Y-80895295D02*
X121916666Y-81038152D01*
X121916666Y-81038152D02*
X121869047Y-81133390D01*
X121869047Y-81133390D02*
X121821428Y-81181009D01*
X121821428Y-81181009D02*
X121726190Y-81228628D01*
X121726190Y-81228628D02*
X121345238Y-81228628D01*
X122345238Y-81181009D02*
X122678571Y-81181009D01*
X122821428Y-81704819D02*
X122345238Y-81704819D01*
X122345238Y-81704819D02*
X122345238Y-80704819D01*
X122345238Y-80704819D02*
X122821428Y-80704819D01*
X123583333Y-81181009D02*
X123250000Y-81181009D01*
X123250000Y-81704819D02*
X123250000Y-80704819D01*
X123250000Y-80704819D02*
X123726190Y-80704819D01*
X124250000Y-80704819D02*
X124250000Y-80942914D01*
X124011905Y-80847676D02*
X124250000Y-80942914D01*
X124250000Y-80942914D02*
X124488095Y-80847676D01*
X124107143Y-81133390D02*
X124250000Y-80942914D01*
X124250000Y-80942914D02*
X124392857Y-81133390D01*
X125011905Y-80704819D02*
X125011905Y-80942914D01*
X124773810Y-80847676D02*
X125011905Y-80942914D01*
X125011905Y-80942914D02*
X125250000Y-80847676D01*
X124869048Y-81133390D02*
X125011905Y-80942914D01*
X125011905Y-80942914D02*
X125154762Y-81133390D01*
X119166666Y-41454819D02*
X119166666Y-42169104D01*
X119166666Y-42169104D02*
X119119047Y-42311961D01*
X119119047Y-42311961D02*
X119023809Y-42407200D01*
X119023809Y-42407200D02*
X118880952Y-42454819D01*
X118880952Y-42454819D02*
X118785714Y-42454819D01*
X120071428Y-41788152D02*
X120071428Y-42454819D01*
X119833333Y-41407200D02*
X119595238Y-42121485D01*
X119595238Y-42121485D02*
X120214285Y-42121485D01*
X125428571Y-46114700D02*
X126571429Y-46114700D01*
X126000000Y-46686128D02*
X126000000Y-45543271D01*
X112428571Y-46114700D02*
X113571429Y-46114700D01*
X84416666Y-52204819D02*
X84083333Y-51728628D01*
X83845238Y-52204819D02*
X83845238Y-51204819D01*
X83845238Y-51204819D02*
X84226190Y-51204819D01*
X84226190Y-51204819D02*
X84321428Y-51252438D01*
X84321428Y-51252438D02*
X84369047Y-51300057D01*
X84369047Y-51300057D02*
X84416666Y-51395295D01*
X84416666Y-51395295D02*
X84416666Y-51538152D01*
X84416666Y-51538152D02*
X84369047Y-51633390D01*
X84369047Y-51633390D02*
X84321428Y-51681009D01*
X84321428Y-51681009D02*
X84226190Y-51728628D01*
X84226190Y-51728628D02*
X83845238Y-51728628D01*
X84845238Y-51681009D02*
X85178571Y-51681009D01*
X85321428Y-52204819D02*
X84845238Y-52204819D01*
X84845238Y-52204819D02*
X84845238Y-51204819D01*
X84845238Y-51204819D02*
X85321428Y-51204819D01*
X86083333Y-51681009D02*
X85750000Y-51681009D01*
X85750000Y-52204819D02*
X85750000Y-51204819D01*
X85750000Y-51204819D02*
X86226190Y-51204819D01*
X86750000Y-51204819D02*
X86750000Y-51442914D01*
X86511905Y-51347676D02*
X86750000Y-51442914D01*
X86750000Y-51442914D02*
X86988095Y-51347676D01*
X86607143Y-51633390D02*
X86750000Y-51442914D01*
X86750000Y-51442914D02*
X86892857Y-51633390D01*
X87511905Y-51204819D02*
X87511905Y-51442914D01*
X87273810Y-51347676D02*
X87511905Y-51442914D01*
X87511905Y-51442914D02*
X87750000Y-51347676D01*
X87369048Y-51633390D02*
X87511905Y-51442914D01*
X87511905Y-51442914D02*
X87654762Y-51633390D01*
X103666666Y-41454819D02*
X103666666Y-42169104D01*
X103666666Y-42169104D02*
X103619047Y-42311961D01*
X103619047Y-42311961D02*
X103523809Y-42407200D01*
X103523809Y-42407200D02*
X103380952Y-42454819D01*
X103380952Y-42454819D02*
X103285714Y-42454819D01*
X104047619Y-41454819D02*
X104666666Y-41454819D01*
X104666666Y-41454819D02*
X104333333Y-41835771D01*
X104333333Y-41835771D02*
X104476190Y-41835771D01*
X104476190Y-41835771D02*
X104571428Y-41883390D01*
X104571428Y-41883390D02*
X104619047Y-41931009D01*
X104619047Y-41931009D02*
X104666666Y-42026247D01*
X104666666Y-42026247D02*
X104666666Y-42264342D01*
X104666666Y-42264342D02*
X104619047Y-42359580D01*
X104619047Y-42359580D02*
X104571428Y-42407200D01*
X104571428Y-42407200D02*
X104476190Y-42454819D01*
X104476190Y-42454819D02*
X104190476Y-42454819D01*
X104190476Y-42454819D02*
X104095238Y-42407200D01*
X104095238Y-42407200D02*
X104047619Y-42359580D01*
X96928571Y-46114700D02*
X98071429Y-46114700D01*
X109928571Y-46114700D02*
X111071429Y-46114700D01*
X110500000Y-46686128D02*
X110500000Y-45543271D01*
D12*
X99710790Y-61571233D02*
X99710790Y-61702466D01*
X99917014Y-61702466D02*
X99523313Y-61702466D01*
X99523313Y-61702466D02*
X99523313Y-61514990D01*
X99917014Y-61158784D02*
X99917014Y-61383756D01*
X99917014Y-61271270D02*
X99523313Y-61271270D01*
X99523313Y-61271270D02*
X99579556Y-61308765D01*
X99579556Y-61308765D02*
X99617052Y-61346261D01*
X99617052Y-61346261D02*
X99635799Y-61383756D01*
D13*
X93339047Y-78195270D02*
X93218095Y-78134794D01*
X93218095Y-78134794D02*
X93097142Y-78013842D01*
X93097142Y-78013842D02*
X92915714Y-77832413D01*
X92915714Y-77832413D02*
X92794761Y-77771937D01*
X92794761Y-77771937D02*
X92673809Y-77771937D01*
X92734285Y-78074318D02*
X92613333Y-78013842D01*
X92613333Y-78013842D02*
X92492380Y-77892889D01*
X92492380Y-77892889D02*
X92431904Y-77650984D01*
X92431904Y-77650984D02*
X92431904Y-77227651D01*
X92431904Y-77227651D02*
X92492380Y-76985746D01*
X92492380Y-76985746D02*
X92613333Y-76864794D01*
X92613333Y-76864794D02*
X92734285Y-76804318D01*
X92734285Y-76804318D02*
X92976190Y-76804318D01*
X92976190Y-76804318D02*
X93097142Y-76864794D01*
X93097142Y-76864794D02*
X93218095Y-76985746D01*
X93218095Y-76985746D02*
X93278571Y-77227651D01*
X93278571Y-77227651D02*
X93278571Y-77650984D01*
X93278571Y-77650984D02*
X93218095Y-77892889D01*
X93218095Y-77892889D02*
X93097142Y-78013842D01*
X93097142Y-78013842D02*
X92976190Y-78074318D01*
X92976190Y-78074318D02*
X92734285Y-78074318D01*
X94488095Y-78074318D02*
X93762380Y-78074318D01*
X94125237Y-78074318D02*
X94125237Y-76804318D01*
X94125237Y-76804318D02*
X94004285Y-76985746D01*
X94004285Y-76985746D02*
X93883333Y-77106699D01*
X93883333Y-77106699D02*
X93762380Y-77167175D01*
D11*
X100139580Y-62666666D02*
X100187200Y-62714285D01*
X100187200Y-62714285D02*
X100234819Y-62857142D01*
X100234819Y-62857142D02*
X100234819Y-62952380D01*
X100234819Y-62952380D02*
X100187200Y-63095237D01*
X100187200Y-63095237D02*
X100091961Y-63190475D01*
X100091961Y-63190475D02*
X99996723Y-63238094D01*
X99996723Y-63238094D02*
X99806247Y-63285713D01*
X99806247Y-63285713D02*
X99663390Y-63285713D01*
X99663390Y-63285713D02*
X99472914Y-63238094D01*
X99472914Y-63238094D02*
X99377676Y-63190475D01*
X99377676Y-63190475D02*
X99282438Y-63095237D01*
X99282438Y-63095237D02*
X99234819Y-62952380D01*
X99234819Y-62952380D02*
X99234819Y-62857142D01*
X99234819Y-62857142D02*
X99282438Y-62714285D01*
X99282438Y-62714285D02*
X99330057Y-62666666D01*
X99234819Y-62333332D02*
X99234819Y-61714285D01*
X99234819Y-61714285D02*
X99615771Y-62047618D01*
X99615771Y-62047618D02*
X99615771Y-61904761D01*
X99615771Y-61904761D02*
X99663390Y-61809523D01*
X99663390Y-61809523D02*
X99711009Y-61761904D01*
X99711009Y-61761904D02*
X99806247Y-61714285D01*
X99806247Y-61714285D02*
X100044342Y-61714285D01*
X100044342Y-61714285D02*
X100139580Y-61761904D01*
X100139580Y-61761904D02*
X100187200Y-61809523D01*
X100187200Y-61809523D02*
X100234819Y-61904761D01*
X100234819Y-61904761D02*
X100234819Y-62190475D01*
X100234819Y-62190475D02*
X100187200Y-62285713D01*
X100187200Y-62285713D02*
X100139580Y-62333332D01*
X83620833Y-76789580D02*
X83573214Y-76837200D01*
X83573214Y-76837200D02*
X83430357Y-76884819D01*
X83430357Y-76884819D02*
X83335119Y-76884819D01*
X83335119Y-76884819D02*
X83192262Y-76837200D01*
X83192262Y-76837200D02*
X83097024Y-76741961D01*
X83097024Y-76741961D02*
X83049405Y-76646723D01*
X83049405Y-76646723D02*
X83001786Y-76456247D01*
X83001786Y-76456247D02*
X83001786Y-76313390D01*
X83001786Y-76313390D02*
X83049405Y-76122914D01*
X83049405Y-76122914D02*
X83097024Y-76027676D01*
X83097024Y-76027676D02*
X83192262Y-75932438D01*
X83192262Y-75932438D02*
X83335119Y-75884819D01*
X83335119Y-75884819D02*
X83430357Y-75884819D01*
X83430357Y-75884819D02*
X83573214Y-75932438D01*
X83573214Y-75932438D02*
X83620833Y-75980057D01*
X83954167Y-75884819D02*
X84620833Y-75884819D01*
X84620833Y-75884819D02*
X84192262Y-76884819D01*
X116273095Y-49539819D02*
X116273095Y-50349342D01*
X116273095Y-50349342D02*
X116320714Y-50444580D01*
X116320714Y-50444580D02*
X116368333Y-50492200D01*
X116368333Y-50492200D02*
X116463571Y-50539819D01*
X116463571Y-50539819D02*
X116654047Y-50539819D01*
X116654047Y-50539819D02*
X116749285Y-50492200D01*
X116749285Y-50492200D02*
X116796904Y-50444580D01*
X116796904Y-50444580D02*
X116844523Y-50349342D01*
X116844523Y-50349342D02*
X116844523Y-49539819D01*
X117844523Y-50539819D02*
X117273095Y-50539819D01*
X117558809Y-50539819D02*
X117558809Y-49539819D01*
X117558809Y-49539819D02*
X117463571Y-49682676D01*
X117463571Y-49682676D02*
X117368333Y-49777914D01*
X117368333Y-49777914D02*
X117273095Y-49825533D01*
X99304819Y-89166666D02*
X98828628Y-89499999D01*
X99304819Y-89738094D02*
X98304819Y-89738094D01*
X98304819Y-89738094D02*
X98304819Y-89357142D01*
X98304819Y-89357142D02*
X98352438Y-89261904D01*
X98352438Y-89261904D02*
X98400057Y-89214285D01*
X98400057Y-89214285D02*
X98495295Y-89166666D01*
X98495295Y-89166666D02*
X98638152Y-89166666D01*
X98638152Y-89166666D02*
X98733390Y-89214285D01*
X98733390Y-89214285D02*
X98781009Y-89261904D01*
X98781009Y-89261904D02*
X98828628Y-89357142D01*
X98828628Y-89357142D02*
X98828628Y-89738094D01*
X98638152Y-88309523D02*
X99304819Y-88309523D01*
X98257200Y-88547618D02*
X98971485Y-88785713D01*
X98971485Y-88785713D02*
X98971485Y-88166666D01*
X111416666Y-96504819D02*
X111416666Y-97219104D01*
X111416666Y-97219104D02*
X111369047Y-97361961D01*
X111369047Y-97361961D02*
X111273809Y-97457200D01*
X111273809Y-97457200D02*
X111130952Y-97504819D01*
X111130952Y-97504819D02*
X111035714Y-97504819D01*
X112416666Y-97504819D02*
X111845238Y-97504819D01*
X112130952Y-97504819D02*
X112130952Y-96504819D01*
X112130952Y-96504819D02*
X112035714Y-96647676D01*
X112035714Y-96647676D02*
X111940476Y-96742914D01*
X111940476Y-96742914D02*
X111845238Y-96790533D01*
X118083333Y-62789580D02*
X118035714Y-62837200D01*
X118035714Y-62837200D02*
X117892857Y-62884819D01*
X117892857Y-62884819D02*
X117797619Y-62884819D01*
X117797619Y-62884819D02*
X117654762Y-62837200D01*
X117654762Y-62837200D02*
X117559524Y-62741961D01*
X117559524Y-62741961D02*
X117511905Y-62646723D01*
X117511905Y-62646723D02*
X117464286Y-62456247D01*
X117464286Y-62456247D02*
X117464286Y-62313390D01*
X117464286Y-62313390D02*
X117511905Y-62122914D01*
X117511905Y-62122914D02*
X117559524Y-62027676D01*
X117559524Y-62027676D02*
X117654762Y-61932438D01*
X117654762Y-61932438D02*
X117797619Y-61884819D01*
X117797619Y-61884819D02*
X117892857Y-61884819D01*
X117892857Y-61884819D02*
X118035714Y-61932438D01*
X118035714Y-61932438D02*
X118083333Y-61980057D01*
X119035714Y-62884819D02*
X118464286Y-62884819D01*
X118750000Y-62884819D02*
X118750000Y-61884819D01*
X118750000Y-61884819D02*
X118654762Y-62027676D01*
X118654762Y-62027676D02*
X118559524Y-62122914D01*
X118559524Y-62122914D02*
X118464286Y-62170533D01*
X100320714Y-50539819D02*
X100320714Y-49539819D01*
X100320714Y-49539819D02*
X100701666Y-49539819D01*
X100701666Y-49539819D02*
X100796904Y-49587438D01*
X100796904Y-49587438D02*
X100844523Y-49635057D01*
X100844523Y-49635057D02*
X100892142Y-49730295D01*
X100892142Y-49730295D02*
X100892142Y-49873152D01*
X100892142Y-49873152D02*
X100844523Y-49968390D01*
X100844523Y-49968390D02*
X100796904Y-50016009D01*
X100796904Y-50016009D02*
X100701666Y-50063628D01*
X100701666Y-50063628D02*
X100320714Y-50063628D01*
X101273095Y-50492200D02*
X101415952Y-50539819D01*
X101415952Y-50539819D02*
X101654047Y-50539819D01*
X101654047Y-50539819D02*
X101749285Y-50492200D01*
X101749285Y-50492200D02*
X101796904Y-50444580D01*
X101796904Y-50444580D02*
X101844523Y-50349342D01*
X101844523Y-50349342D02*
X101844523Y-50254104D01*
X101844523Y-50254104D02*
X101796904Y-50158866D01*
X101796904Y-50158866D02*
X101749285Y-50111247D01*
X101749285Y-50111247D02*
X101654047Y-50063628D01*
X101654047Y-50063628D02*
X101463571Y-50016009D01*
X101463571Y-50016009D02*
X101368333Y-49968390D01*
X101368333Y-49968390D02*
X101320714Y-49920771D01*
X101320714Y-49920771D02*
X101273095Y-49825533D01*
X101273095Y-49825533D02*
X101273095Y-49730295D01*
X101273095Y-49730295D02*
X101320714Y-49635057D01*
X101320714Y-49635057D02*
X101368333Y-49587438D01*
X101368333Y-49587438D02*
X101463571Y-49539819D01*
X101463571Y-49539819D02*
X101701666Y-49539819D01*
X101701666Y-49539819D02*
X101844523Y-49587438D01*
X102796904Y-50539819D02*
X102225476Y-50539819D01*
X102511190Y-50539819D02*
X102511190Y-49539819D01*
X102511190Y-49539819D02*
X102415952Y-49682676D01*
X102415952Y-49682676D02*
X102320714Y-49777914D01*
X102320714Y-49777914D02*
X102225476Y-49825533D01*
D13*
X95829047Y-95195270D02*
X95708095Y-95134794D01*
X95708095Y-95134794D02*
X95587142Y-95013842D01*
X95587142Y-95013842D02*
X95405714Y-94832413D01*
X95405714Y-94832413D02*
X95284761Y-94771937D01*
X95284761Y-94771937D02*
X95163809Y-94771937D01*
X95224285Y-95074318D02*
X95103333Y-95013842D01*
X95103333Y-95013842D02*
X94982380Y-94892889D01*
X94982380Y-94892889D02*
X94921904Y-94650984D01*
X94921904Y-94650984D02*
X94921904Y-94227651D01*
X94921904Y-94227651D02*
X94982380Y-93985746D01*
X94982380Y-93985746D02*
X95103333Y-93864794D01*
X95103333Y-93864794D02*
X95224285Y-93804318D01*
X95224285Y-93804318D02*
X95466190Y-93804318D01*
X95466190Y-93804318D02*
X95587142Y-93864794D01*
X95587142Y-93864794D02*
X95708095Y-93985746D01*
X95708095Y-93985746D02*
X95768571Y-94227651D01*
X95768571Y-94227651D02*
X95768571Y-94650984D01*
X95768571Y-94650984D02*
X95708095Y-94892889D01*
X95708095Y-94892889D02*
X95587142Y-95013842D01*
X95587142Y-95013842D02*
X95466190Y-95074318D01*
X95466190Y-95074318D02*
X95224285Y-95074318D01*
X96252380Y-93925270D02*
X96312856Y-93864794D01*
X96312856Y-93864794D02*
X96433809Y-93804318D01*
X96433809Y-93804318D02*
X96736190Y-93804318D01*
X96736190Y-93804318D02*
X96857142Y-93864794D01*
X96857142Y-93864794D02*
X96917618Y-93925270D01*
X96917618Y-93925270D02*
X96978095Y-94046222D01*
X96978095Y-94046222D02*
X96978095Y-94167175D01*
X96978095Y-94167175D02*
X96917618Y-94348603D01*
X96917618Y-94348603D02*
X96191904Y-95074318D01*
X96191904Y-95074318D02*
X96978095Y-95074318D01*
D11*
X114672200Y-77160832D02*
X114719819Y-77017975D01*
X114719819Y-77017975D02*
X114719819Y-76779880D01*
X114719819Y-76779880D02*
X114672200Y-76684642D01*
X114672200Y-76684642D02*
X114624580Y-76637023D01*
X114624580Y-76637023D02*
X114529342Y-76589404D01*
X114529342Y-76589404D02*
X114434104Y-76589404D01*
X114434104Y-76589404D02*
X114338866Y-76637023D01*
X114338866Y-76637023D02*
X114291247Y-76684642D01*
X114291247Y-76684642D02*
X114243628Y-76779880D01*
X114243628Y-76779880D02*
X114196009Y-76970356D01*
X114196009Y-76970356D02*
X114148390Y-77065594D01*
X114148390Y-77065594D02*
X114100771Y-77113213D01*
X114100771Y-77113213D02*
X114005533Y-77160832D01*
X114005533Y-77160832D02*
X113910295Y-77160832D01*
X113910295Y-77160832D02*
X113815057Y-77113213D01*
X113815057Y-77113213D02*
X113767438Y-77065594D01*
X113767438Y-77065594D02*
X113719819Y-76970356D01*
X113719819Y-76970356D02*
X113719819Y-76732261D01*
X113719819Y-76732261D02*
X113767438Y-76589404D01*
X113719819Y-76256070D02*
X114719819Y-76017975D01*
X114719819Y-76017975D02*
X114005533Y-75827499D01*
X114005533Y-75827499D02*
X114719819Y-75637023D01*
X114719819Y-75637023D02*
X113719819Y-75398928D01*
X114719819Y-74494166D02*
X114719819Y-75065594D01*
X114719819Y-74779880D02*
X113719819Y-74779880D01*
X113719819Y-74779880D02*
X113862676Y-74875118D01*
X113862676Y-74875118D02*
X113957914Y-74970356D01*
X113957914Y-74970356D02*
X114005533Y-75065594D01*
X95804819Y-89166666D02*
X95328628Y-89499999D01*
X95804819Y-89738094D02*
X94804819Y-89738094D01*
X94804819Y-89738094D02*
X94804819Y-89357142D01*
X94804819Y-89357142D02*
X94852438Y-89261904D01*
X94852438Y-89261904D02*
X94900057Y-89214285D01*
X94900057Y-89214285D02*
X94995295Y-89166666D01*
X94995295Y-89166666D02*
X95138152Y-89166666D01*
X95138152Y-89166666D02*
X95233390Y-89214285D01*
X95233390Y-89214285D02*
X95281009Y-89261904D01*
X95281009Y-89261904D02*
X95328628Y-89357142D01*
X95328628Y-89357142D02*
X95328628Y-89738094D01*
X94804819Y-88833332D02*
X94804819Y-88214285D01*
X94804819Y-88214285D02*
X95185771Y-88547618D01*
X95185771Y-88547618D02*
X95185771Y-88404761D01*
X95185771Y-88404761D02*
X95233390Y-88309523D01*
X95233390Y-88309523D02*
X95281009Y-88261904D01*
X95281009Y-88261904D02*
X95376247Y-88214285D01*
X95376247Y-88214285D02*
X95614342Y-88214285D01*
X95614342Y-88214285D02*
X95709580Y-88261904D01*
X95709580Y-88261904D02*
X95757200Y-88309523D01*
X95757200Y-88309523D02*
X95804819Y-88404761D01*
X95804819Y-88404761D02*
X95804819Y-88690475D01*
X95804819Y-88690475D02*
X95757200Y-88785713D01*
X95757200Y-88785713D02*
X95709580Y-88833332D01*
X89166666Y-49432319D02*
X89166666Y-50146604D01*
X89166666Y-50146604D02*
X89119047Y-50289461D01*
X89119047Y-50289461D02*
X89023809Y-50384700D01*
X89023809Y-50384700D02*
X88880952Y-50432319D01*
X88880952Y-50432319D02*
X88785714Y-50432319D01*
X89595238Y-49527557D02*
X89642857Y-49479938D01*
X89642857Y-49479938D02*
X89738095Y-49432319D01*
X89738095Y-49432319D02*
X89976190Y-49432319D01*
X89976190Y-49432319D02*
X90071428Y-49479938D01*
X90071428Y-49479938D02*
X90119047Y-49527557D01*
X90119047Y-49527557D02*
X90166666Y-49622795D01*
X90166666Y-49622795D02*
X90166666Y-49718033D01*
X90166666Y-49718033D02*
X90119047Y-49860890D01*
X90119047Y-49860890D02*
X89547619Y-50432319D01*
X89547619Y-50432319D02*
X90166666Y-50432319D01*
X88454819Y-89166666D02*
X87978628Y-89499999D01*
X88454819Y-89738094D02*
X87454819Y-89738094D01*
X87454819Y-89738094D02*
X87454819Y-89357142D01*
X87454819Y-89357142D02*
X87502438Y-89261904D01*
X87502438Y-89261904D02*
X87550057Y-89214285D01*
X87550057Y-89214285D02*
X87645295Y-89166666D01*
X87645295Y-89166666D02*
X87788152Y-89166666D01*
X87788152Y-89166666D02*
X87883390Y-89214285D01*
X87883390Y-89214285D02*
X87931009Y-89261904D01*
X87931009Y-89261904D02*
X87978628Y-89357142D01*
X87978628Y-89357142D02*
X87978628Y-89738094D01*
X88454819Y-88214285D02*
X88454819Y-88785713D01*
X88454819Y-88499999D02*
X87454819Y-88499999D01*
X87454819Y-88499999D02*
X87597676Y-88595237D01*
X87597676Y-88595237D02*
X87692914Y-88690475D01*
X87692914Y-88690475D02*
X87740533Y-88785713D01*
X83583333Y-73289580D02*
X83535714Y-73337200D01*
X83535714Y-73337200D02*
X83392857Y-73384819D01*
X83392857Y-73384819D02*
X83297619Y-73384819D01*
X83297619Y-73384819D02*
X83154762Y-73337200D01*
X83154762Y-73337200D02*
X83059524Y-73241961D01*
X83059524Y-73241961D02*
X83011905Y-73146723D01*
X83011905Y-73146723D02*
X82964286Y-72956247D01*
X82964286Y-72956247D02*
X82964286Y-72813390D01*
X82964286Y-72813390D02*
X83011905Y-72622914D01*
X83011905Y-72622914D02*
X83059524Y-72527676D01*
X83059524Y-72527676D02*
X83154762Y-72432438D01*
X83154762Y-72432438D02*
X83297619Y-72384819D01*
X83297619Y-72384819D02*
X83392857Y-72384819D01*
X83392857Y-72384819D02*
X83535714Y-72432438D01*
X83535714Y-72432438D02*
X83583333Y-72480057D01*
X84488095Y-72384819D02*
X84011905Y-72384819D01*
X84011905Y-72384819D02*
X83964286Y-72861009D01*
X83964286Y-72861009D02*
X84011905Y-72813390D01*
X84011905Y-72813390D02*
X84107143Y-72765771D01*
X84107143Y-72765771D02*
X84345238Y-72765771D01*
X84345238Y-72765771D02*
X84440476Y-72813390D01*
X84440476Y-72813390D02*
X84488095Y-72861009D01*
X84488095Y-72861009D02*
X84535714Y-72956247D01*
X84535714Y-72956247D02*
X84535714Y-73194342D01*
X84535714Y-73194342D02*
X84488095Y-73289580D01*
X84488095Y-73289580D02*
X84440476Y-73337200D01*
X84440476Y-73337200D02*
X84345238Y-73384819D01*
X84345238Y-73384819D02*
X84107143Y-73384819D01*
X84107143Y-73384819D02*
X84011905Y-73337200D01*
X84011905Y-73337200D02*
X83964286Y-73289580D01*
X92304819Y-89166666D02*
X91828628Y-89499999D01*
X92304819Y-89738094D02*
X91304819Y-89738094D01*
X91304819Y-89738094D02*
X91304819Y-89357142D01*
X91304819Y-89357142D02*
X91352438Y-89261904D01*
X91352438Y-89261904D02*
X91400057Y-89214285D01*
X91400057Y-89214285D02*
X91495295Y-89166666D01*
X91495295Y-89166666D02*
X91638152Y-89166666D01*
X91638152Y-89166666D02*
X91733390Y-89214285D01*
X91733390Y-89214285D02*
X91781009Y-89261904D01*
X91781009Y-89261904D02*
X91828628Y-89357142D01*
X91828628Y-89357142D02*
X91828628Y-89738094D01*
X91400057Y-88785713D02*
X91352438Y-88738094D01*
X91352438Y-88738094D02*
X91304819Y-88642856D01*
X91304819Y-88642856D02*
X91304819Y-88404761D01*
X91304819Y-88404761D02*
X91352438Y-88309523D01*
X91352438Y-88309523D02*
X91400057Y-88261904D01*
X91400057Y-88261904D02*
X91495295Y-88214285D01*
X91495295Y-88214285D02*
X91590533Y-88214285D01*
X91590533Y-88214285D02*
X91733390Y-88261904D01*
X91733390Y-88261904D02*
X92304819Y-88833332D01*
X92304819Y-88833332D02*
X92304819Y-88214285D01*
X83620833Y-69789580D02*
X83573214Y-69837200D01*
X83573214Y-69837200D02*
X83430357Y-69884819D01*
X83430357Y-69884819D02*
X83335119Y-69884819D01*
X83335119Y-69884819D02*
X83192262Y-69837200D01*
X83192262Y-69837200D02*
X83097024Y-69741961D01*
X83097024Y-69741961D02*
X83049405Y-69646723D01*
X83049405Y-69646723D02*
X83001786Y-69456247D01*
X83001786Y-69456247D02*
X83001786Y-69313390D01*
X83001786Y-69313390D02*
X83049405Y-69122914D01*
X83049405Y-69122914D02*
X83097024Y-69027676D01*
X83097024Y-69027676D02*
X83192262Y-68932438D01*
X83192262Y-68932438D02*
X83335119Y-68884819D01*
X83335119Y-68884819D02*
X83430357Y-68884819D01*
X83430357Y-68884819D02*
X83573214Y-68932438D01*
X83573214Y-68932438D02*
X83620833Y-68980057D01*
X84477976Y-68884819D02*
X84287500Y-68884819D01*
X84287500Y-68884819D02*
X84192262Y-68932438D01*
X84192262Y-68932438D02*
X84144643Y-68980057D01*
X84144643Y-68980057D02*
X84049405Y-69122914D01*
X84049405Y-69122914D02*
X84001786Y-69313390D01*
X84001786Y-69313390D02*
X84001786Y-69694342D01*
X84001786Y-69694342D02*
X84049405Y-69789580D01*
X84049405Y-69789580D02*
X84097024Y-69837200D01*
X84097024Y-69837200D02*
X84192262Y-69884819D01*
X84192262Y-69884819D02*
X84382738Y-69884819D01*
X84382738Y-69884819D02*
X84477976Y-69837200D01*
X84477976Y-69837200D02*
X84525595Y-69789580D01*
X84525595Y-69789580D02*
X84573214Y-69694342D01*
X84573214Y-69694342D02*
X84573214Y-69456247D01*
X84573214Y-69456247D02*
X84525595Y-69361009D01*
X84525595Y-69361009D02*
X84477976Y-69313390D01*
X84477976Y-69313390D02*
X84382738Y-69265771D01*
X84382738Y-69265771D02*
X84192262Y-69265771D01*
X84192262Y-69265771D02*
X84097024Y-69313390D01*
X84097024Y-69313390D02*
X84049405Y-69361009D01*
X84049405Y-69361009D02*
X84001786Y-69456247D01*
D14*
%TO.C,J4*%
X114290000Y-44590000D02*
X114290000Y-47410000D01*
X114290000Y-44590000D02*
X115990000Y-43290000D01*
X114290000Y-47410000D02*
X115990000Y-48710000D01*
X115990000Y-43290000D02*
X124710000Y-43290000D01*
X115990000Y-48710000D02*
X124710000Y-48710000D01*
X124710000Y-43290000D02*
X124710000Y-48710000D01*
%TO.C,J3*%
X98790000Y-44590000D02*
X98790000Y-47410000D01*
X98790000Y-44590000D02*
X100490000Y-43290000D01*
X98790000Y-47410000D02*
X100490000Y-48710000D01*
X100490000Y-43290000D02*
X109210000Y-43290000D01*
X100490000Y-48710000D02*
X109210000Y-48710000D01*
X109210000Y-43290000D02*
X109210000Y-48710000D01*
D15*
%TO.C,F1*%
X97360000Y-61940000D02*
X97360000Y-63060000D01*
X99140000Y-61940000D02*
X99140000Y-63060000D01*
D10*
%TO.C,Q1*%
X88443000Y-76844000D02*
X88443000Y-78150000D01*
X88443000Y-78150000D02*
X88443000Y-78150000D01*
X88443000Y-78150000D02*
X88460000Y-78150000D01*
X88443000Y-78150000D02*
X98476000Y-78150000D01*
X88460000Y-76844000D02*
X88443000Y-76844000D01*
X88460000Y-78150000D02*
X88460000Y-76844000D01*
X98476000Y-76594000D02*
X98476000Y-76594000D01*
X98476000Y-76594000D02*
X98476000Y-78150000D01*
X98476000Y-78150000D02*
X88443000Y-78150000D01*
X98476000Y-78150000D02*
X98476000Y-76594000D01*
X98476000Y-78150000D02*
X98476000Y-78150000D01*
X98476000Y-78150000D02*
X98476000Y-78150000D01*
D14*
%TO.C,C3*%
X100725000Y-62761252D02*
X100725000Y-62238748D01*
X102195000Y-62761252D02*
X102195000Y-62238748D01*
%TO.C,C7*%
X84048752Y-74015000D02*
X83526248Y-74015000D01*
X84048752Y-75485000D02*
X83526248Y-75485000D01*
D15*
%TO.C,U1*%
X113610000Y-51250000D02*
X125310000Y-51250000D01*
X113610000Y-58750000D02*
X113610000Y-51250000D01*
X113610000Y-58750000D02*
X125310000Y-58750000D01*
X125310000Y-51250000D02*
X125310000Y-58750000D01*
D16*
X113010000Y-56750000D02*
G75*
G02*
X112810000Y-56750000I-100000J0D01*
G01*
X112810000Y-56750000D02*
G75*
G02*
X113010000Y-56750000I100000J0D01*
G01*
D14*
%TO.C,R4*%
X99765000Y-89227064D02*
X99765000Y-88772936D01*
X101235000Y-89227064D02*
X101235000Y-88772936D01*
%TO.C,J1*%
X103900000Y-87600000D02*
X103900000Y-95900000D01*
X103900000Y-95900000D02*
X116750000Y-95900000D01*
X116750000Y-87600000D02*
X103900000Y-87600000D01*
X116750000Y-95900000D02*
X119600000Y-93350000D01*
X119600000Y-90200000D02*
X116750000Y-87600000D01*
X119600000Y-93350000D02*
X119600000Y-90200000D01*
%TO.C,C1*%
X118511252Y-60015000D02*
X117988748Y-60015000D01*
X118511252Y-61485000D02*
X117988748Y-61485000D01*
D15*
%TO.C,PS1*%
X98110000Y-51250000D02*
X109810000Y-51250000D01*
X98110000Y-58750000D02*
X98110000Y-51250000D01*
X98110000Y-58750000D02*
X109810000Y-58750000D01*
X109810000Y-51250000D02*
X109810000Y-58750000D01*
D16*
X97510000Y-56750000D02*
G75*
G02*
X97310000Y-56750000I-100000J0D01*
G01*
X97310000Y-56750000D02*
G75*
G02*
X97510000Y-56750000I100000J0D01*
G01*
%TO.C,Q2*%
X94250000Y-93000000D02*
X95550000Y-93000000D01*
X95900000Y-93040000D02*
X96000000Y-93040000D01*
X95900000Y-95960000D02*
X95900000Y-93040000D01*
X96000000Y-93040000D02*
X96000000Y-95960000D01*
X96000000Y-95960000D02*
X95900000Y-95960000D01*
D15*
%TO.C,SW1*%
X116170000Y-63152500D02*
X116170000Y-79612500D01*
X116170000Y-63152500D02*
X126330000Y-63152500D01*
X117950000Y-63152500D02*
X119500000Y-63152500D01*
X126330000Y-63152500D02*
X126330000Y-79612500D01*
X126330000Y-79612500D02*
X116170000Y-79612500D01*
D16*
X119780000Y-80422500D02*
G75*
G02*
X119580000Y-80422500I-100000J0D01*
G01*
X119580000Y-80422500D02*
G75*
G02*
X119780000Y-80422500I100000J0D01*
G01*
D14*
%TO.C,R3*%
X96265000Y-89227064D02*
X96265000Y-88772936D01*
X97735000Y-89227064D02*
X97735000Y-88772936D01*
%TO.C,J2*%
X83390000Y-36667500D02*
X83390000Y-48887500D01*
X83390000Y-38167500D02*
X95610000Y-38167500D01*
X83390000Y-39967500D02*
X83390000Y-38167500D01*
X83390000Y-48887500D02*
X95610000Y-48887500D01*
X86000000Y-36667500D02*
X86250000Y-38167500D01*
X86250000Y-38167500D02*
X87750000Y-38167500D01*
X87750000Y-38167500D02*
X88000000Y-36667500D01*
X88000000Y-36667500D02*
X86000000Y-36667500D01*
X91000000Y-36667500D02*
X91250000Y-38167500D01*
X91250000Y-38167500D02*
X92750000Y-38167500D01*
X91700000Y-49687500D02*
X92000000Y-49087500D01*
X92000000Y-49087500D02*
X92300000Y-49687500D01*
X92300000Y-49687500D02*
X91700000Y-49687500D01*
X92750000Y-38167500D02*
X93000000Y-36667500D01*
X93000000Y-36667500D02*
X91000000Y-36667500D01*
X95610000Y-36667500D02*
X83390000Y-36667500D01*
X95610000Y-38167500D02*
X95610000Y-39967500D01*
X95610000Y-39967500D02*
X83390000Y-39967500D01*
X95610000Y-48887500D02*
X95610000Y-36667500D01*
%TO.C,R1*%
X89265000Y-88772936D02*
X89265000Y-89227064D01*
X90735000Y-88772936D02*
X90735000Y-89227064D01*
%TO.C,C5*%
X84011252Y-70515000D02*
X83488748Y-70515000D01*
X84011252Y-71985000D02*
X83488748Y-71985000D01*
%TO.C,R2*%
X92765000Y-89227064D02*
X92765000Y-88772936D01*
X94235000Y-89227064D02*
X94235000Y-88772936D01*
%TO.C,C6*%
X84048752Y-67015000D02*
X83526248Y-67015000D01*
X84048752Y-68485000D02*
X83526248Y-68485000D01*
%TD*%
%LPC*%
D17*
%TO.C,REF\u002A\u002A*%
X123250000Y-85250000D03*
%TD*%
D18*
%TO.C,J4*%
X117000000Y-46000000D03*
D19*
X122000000Y-46000000D03*
%TD*%
D17*
%TO.C,REF\u002A\u002A*%
X85750000Y-55750000D03*
%TD*%
D18*
%TO.C,J3*%
X101500000Y-46000000D03*
D19*
X106500000Y-46000000D03*
%TD*%
D20*
%TO.C,F1*%
X98250000Y-61030000D03*
X98250000Y-63970000D03*
%TD*%
D21*
%TO.C,Q1*%
X90920000Y-81500000D03*
D22*
X93460000Y-71594000D03*
D21*
X96000000Y-81500000D03*
%TD*%
D23*
%TO.C,C3*%
X101460000Y-63537500D03*
X101460000Y-61462500D03*
%TD*%
D24*
%TO.C,C7*%
X84825000Y-74750000D03*
X82750000Y-74750000D03*
%TD*%
D25*
%TO.C,U1*%
X116920000Y-56750000D03*
D26*
X119460000Y-56750000D03*
X122000000Y-56750000D03*
%TD*%
D27*
%TO.C,R4*%
X100500000Y-90000000D03*
X100500000Y-88000000D03*
%TD*%
D28*
%TO.C,J1*%
X115350000Y-91750000D03*
D17*
X108150000Y-91750000D03*
%TD*%
D24*
%TO.C,C1*%
X119287500Y-60750000D03*
X117212500Y-60750000D03*
%TD*%
D25*
%TO.C,PS1*%
X101420000Y-56750000D03*
D26*
X103960000Y-56750000D03*
X106500000Y-56750000D03*
%TD*%
D29*
%TO.C,Q2*%
X94900000Y-93550000D03*
X94900000Y-95450000D03*
X97000000Y-94500000D03*
%TD*%
D30*
%TO.C,SW1*%
X120160000Y-75982500D03*
D31*
X120160000Y-71382500D03*
%TD*%
D27*
%TO.C,R3*%
X97000000Y-90000000D03*
X97000000Y-88000000D03*
%TD*%
D32*
%TO.C,J2*%
X92000000Y-46777500D03*
D33*
X87000000Y-46777500D03*
%TD*%
D34*
%TO.C,R1*%
X90000000Y-88000000D03*
X90000000Y-90000000D03*
%TD*%
D24*
%TO.C,C5*%
X84787500Y-71250000D03*
X82712500Y-71250000D03*
%TD*%
D27*
%TO.C,R2*%
X93500000Y-90000000D03*
X93500000Y-88000000D03*
%TD*%
D24*
%TO.C,C6*%
X84825000Y-67750000D03*
X82750000Y-67750000D03*
%TD*%
%LPD*%
M02*
