%TF.GenerationSoftware,KiCad,Pcbnew,8.0.2*%
%TF.CreationDate,2024-10-02T19:35:02-04:00*%
%TF.ProjectId,FewawiPowerBoard,46657761-7769-4506-9f77-6572426f6172,rev?*%
%TF.SameCoordinates,Original*%
%TF.FileFunction,Copper,L2,Bot*%
%TF.FilePolarity,Positive*%
%FSLAX46Y46*%
G04 Gerber Fmt 4.6, Leading zero omitted, Abs format (unit mm)*
G04 Created by KiCad (PCBNEW 8.0.2) date 2024-10-02 19:35:02*
%MOMM*%
%LPD*%
G01*
G04 APERTURE LIST*
G04 Aperture macros list*
%AMRoundRect*
0 Rectangle with rounded corners*
0 $1 Rounding radius*
0 $2 $3 $4 $5 $6 $7 $8 $9 X,Y pos of 4 corners*
0 Add a 4 corners polygon primitive as box body*
4,1,4,$2,$3,$4,$5,$6,$7,$8,$9,$2,$3,0*
0 Add four circle primitives for the rounded corners*
1,1,$1+$1,$2,$3*
1,1,$1+$1,$4,$5*
1,1,$1+$1,$6,$7*
1,1,$1+$1,$8,$9*
0 Add four rect primitives between the rounded corners*
20,1,$1+$1,$2,$3,$4,$5,0*
20,1,$1+$1,$4,$5,$6,$7,0*
20,1,$1+$1,$6,$7,$8,$9,0*
20,1,$1+$1,$8,$9,$2,$3,0*%
G04 Aperture macros list end*
%TA.AperFunction,ComponentPad*%
%ADD10C,6.000000*%
%TD*%
%TA.AperFunction,ComponentPad*%
%ADD11R,3.800000X3.800000*%
%TD*%
%TA.AperFunction,ComponentPad*%
%ADD12C,4.000000*%
%TD*%
%TA.AperFunction,ComponentPad*%
%ADD13R,1.358000X1.358000*%
%TD*%
%TA.AperFunction,ComponentPad*%
%ADD14C,1.358000*%
%TD*%
%TA.AperFunction,ComponentPad*%
%ADD15RoundRect,1.500000X1.500000X1.500000X-1.500000X1.500000X-1.500000X-1.500000X1.500000X-1.500000X0*%
%TD*%
%TA.AperFunction,ComponentPad*%
%ADD16R,2.625000X2.625000*%
%TD*%
%TA.AperFunction,ComponentPad*%
%ADD17C,2.625000*%
%TD*%
%TA.AperFunction,ComponentPad*%
%ADD18RoundRect,0.250000X0.750000X1.550000X-0.750000X1.550000X-0.750000X-1.550000X0.750000X-1.550000X0*%
%TD*%
%TA.AperFunction,ComponentPad*%
%ADD19O,2.000000X3.600000*%
%TD*%
%TA.AperFunction,ViaPad*%
%ADD20C,0.600000*%
%TD*%
G04 APERTURE END LIST*
D10*
%TO.P,REF\u002A\u002A,1*%
%TO.N,N/C*%
X123250000Y-85250000D03*
%TD*%
D11*
%TO.P,J4,1,Pin_1*%
%TO.N,Net-(J4-Pin_1)*%
X117000000Y-46000000D03*
D12*
%TO.P,J4,2,Pin_2*%
%TO.N,Net-(J4-Pin_2)*%
X122000000Y-46000000D03*
%TD*%
D10*
%TO.P,REF\u002A\u002A,1*%
%TO.N,N/C*%
X85750000Y-55750000D03*
%TD*%
D11*
%TO.P,J3,1,Pin_1*%
%TO.N,Net-(J3-Pin_1)*%
X101500000Y-46000000D03*
D12*
%TO.P,J3,2,Pin_2*%
%TO.N,Net-(J3-Pin_2)*%
X106500000Y-46000000D03*
%TD*%
D13*
%TO.P,U1,1,IN*%
%TO.N,Net-(PS1-+VIN)*%
X116920000Y-56750000D03*
D14*
%TO.P,U1,2,GND*%
%TO.N,Net-(J4-Pin_1)*%
X119460000Y-56750000D03*
%TO.P,U1,3,OUT*%
%TO.N,Net-(J4-Pin_2)*%
X122000000Y-56750000D03*
%TD*%
D15*
%TO.P,J1,1,Pin_1*%
%TO.N,GND*%
X115350000Y-91750000D03*
D10*
%TO.P,J1,2,Pin_2*%
%TO.N,Net-(J1-Pin_2)*%
X108150000Y-91750000D03*
%TD*%
D13*
%TO.P,PS1,1,+VIN*%
%TO.N,Net-(PS1-+VIN)*%
X101420000Y-56750000D03*
D14*
%TO.P,PS1,2,GND*%
%TO.N,Net-(J3-Pin_1)*%
X103960000Y-56750000D03*
%TO.P,PS1,3,+VOUT*%
%TO.N,Net-(J3-Pin_2)*%
X106500000Y-56750000D03*
%TD*%
D16*
%TO.P,SW1,1,A*%
%TO.N,Net-(SW1-A)*%
X120160000Y-75982500D03*
D17*
%TO.P,SW1,2,B*%
%TO.N,Net-(J1-Pin_2)*%
X120160000Y-71382500D03*
%TD*%
D18*
%TO.P,J2,1,Pin_1*%
%TO.N,34V*%
X92000000Y-46777500D03*
D19*
%TO.P,J2,2,Pin_2*%
%TO.N,GND*%
X87000000Y-46777500D03*
%TD*%
D20*
%TO.N,GND*%
X104000000Y-62250000D03*
%TD*%
%TA.AperFunction,Conductor*%
%TO.N,GND*%
G36*
X127942539Y-42270185D02*
G01*
X127988294Y-42322989D01*
X127999500Y-42374500D01*
X127999500Y-97125500D01*
X127979815Y-97192539D01*
X127927011Y-97238294D01*
X127875500Y-97249500D01*
X80124500Y-97249500D01*
X80057461Y-97229815D01*
X80011706Y-97177011D01*
X80000500Y-97125500D01*
X80000500Y-91749999D01*
X104644696Y-91749999D01*
X104644696Y-91750000D01*
X104663898Y-92116405D01*
X104721294Y-92478788D01*
X104721294Y-92478790D01*
X104816260Y-92833206D01*
X104947746Y-93175739D01*
X105114320Y-93502656D01*
X105314147Y-93810364D01*
X105467712Y-94000000D01*
X105545051Y-94095506D01*
X105804494Y-94354949D01*
X105804498Y-94354952D01*
X106089635Y-94585852D01*
X106397343Y-94785679D01*
X106397348Y-94785682D01*
X106724264Y-94952255D01*
X107066801Y-95083742D01*
X107421206Y-95178705D01*
X107783596Y-95236102D01*
X108129734Y-95254241D01*
X108149999Y-95255304D01*
X108150000Y-95255304D01*
X108150001Y-95255304D01*
X108169203Y-95254297D01*
X108516404Y-95236102D01*
X108878794Y-95178705D01*
X109233199Y-95083742D01*
X109575736Y-94952255D01*
X109902652Y-94785682D01*
X110210366Y-94585851D01*
X110495506Y-94354949D01*
X110754949Y-94095506D01*
X110985851Y-93810366D01*
X111185682Y-93502652D01*
X111352255Y-93175736D01*
X111483742Y-92833199D01*
X111578705Y-92478794D01*
X111603527Y-92322073D01*
X111633456Y-92258939D01*
X111692768Y-92222008D01*
X111762630Y-92223006D01*
X111820863Y-92261616D01*
X111848977Y-92325579D01*
X111850000Y-92341472D01*
X111850000Y-93321436D01*
X111865300Y-93535362D01*
X111926109Y-93814895D01*
X112026091Y-94082958D01*
X112163191Y-94334038D01*
X112163192Y-94334039D01*
X112334639Y-94563065D01*
X112334649Y-94563077D01*
X112536922Y-94765350D01*
X112536934Y-94765360D01*
X112765960Y-94936807D01*
X112765961Y-94936808D01*
X113017042Y-95073908D01*
X113017041Y-95073908D01*
X113285104Y-95173890D01*
X113564637Y-95234699D01*
X113778563Y-95249999D01*
X113778566Y-95250000D01*
X115100000Y-95250000D01*
X115100000Y-93986502D01*
X115202527Y-94000000D01*
X115497473Y-94000000D01*
X115600000Y-93986502D01*
X115600000Y-95250000D01*
X116921434Y-95250000D01*
X116921436Y-95249999D01*
X117135362Y-95234699D01*
X117414895Y-95173890D01*
X117682958Y-95073908D01*
X117934038Y-94936808D01*
X117934039Y-94936807D01*
X118163065Y-94765360D01*
X118163077Y-94765350D01*
X118365350Y-94563077D01*
X118365360Y-94563065D01*
X118536807Y-94334039D01*
X118536808Y-94334038D01*
X118673908Y-94082958D01*
X118773890Y-93814895D01*
X118834699Y-93535362D01*
X118849999Y-93321436D01*
X118850000Y-93321434D01*
X118850000Y-92000000D01*
X117586502Y-92000000D01*
X117600000Y-91897473D01*
X117600000Y-91602527D01*
X117586502Y-91500000D01*
X118850000Y-91500000D01*
X118850000Y-90178566D01*
X118849999Y-90178563D01*
X118834699Y-89964637D01*
X118773890Y-89685104D01*
X118673908Y-89417041D01*
X118536808Y-89165961D01*
X118536807Y-89165960D01*
X118365360Y-88936934D01*
X118365350Y-88936922D01*
X118163077Y-88734649D01*
X118163065Y-88734639D01*
X117934039Y-88563192D01*
X117934038Y-88563191D01*
X117682957Y-88426091D01*
X117682958Y-88426091D01*
X117414895Y-88326109D01*
X117135362Y-88265300D01*
X116921436Y-88250000D01*
X115600000Y-88250000D01*
X115600000Y-89513497D01*
X115497473Y-89500000D01*
X115202527Y-89500000D01*
X115100000Y-89513497D01*
X115100000Y-88250000D01*
X113778563Y-88250000D01*
X113564637Y-88265300D01*
X113285104Y-88326109D01*
X113017041Y-88426091D01*
X112765961Y-88563191D01*
X112765960Y-88563192D01*
X112536934Y-88734639D01*
X112536922Y-88734649D01*
X112334649Y-88936922D01*
X112334639Y-88936934D01*
X112163192Y-89165960D01*
X112163191Y-89165961D01*
X112026091Y-89417041D01*
X111926109Y-89685104D01*
X111865300Y-89964637D01*
X111850000Y-90178563D01*
X111850000Y-91158527D01*
X111830315Y-91225566D01*
X111777511Y-91271321D01*
X111708353Y-91281265D01*
X111644797Y-91252240D01*
X111607023Y-91193462D01*
X111603527Y-91177925D01*
X111600218Y-91157035D01*
X111578705Y-91021206D01*
X111483742Y-90666801D01*
X111352255Y-90324264D01*
X111185682Y-89997348D01*
X111185679Y-89997343D01*
X110985852Y-89689635D01*
X110754952Y-89404498D01*
X110754949Y-89404494D01*
X110495506Y-89145051D01*
X110463010Y-89118736D01*
X110210364Y-88914147D01*
X109902656Y-88714320D01*
X109575739Y-88547746D01*
X109233206Y-88416260D01*
X109233199Y-88416258D01*
X108878794Y-88321295D01*
X108878790Y-88321294D01*
X108878789Y-88321294D01*
X108516405Y-88263898D01*
X108150001Y-88244696D01*
X108149999Y-88244696D01*
X107783594Y-88263898D01*
X107421211Y-88321294D01*
X107421209Y-88321294D01*
X107066793Y-88416260D01*
X106724260Y-88547746D01*
X106397343Y-88714320D01*
X106089635Y-88914147D01*
X105804498Y-89145047D01*
X105804490Y-89145054D01*
X105545054Y-89404490D01*
X105545047Y-89404498D01*
X105314147Y-89689635D01*
X105114320Y-89997343D01*
X104947746Y-90324260D01*
X104816260Y-90666793D01*
X104721294Y-91021209D01*
X104721294Y-91021211D01*
X104663898Y-91383594D01*
X104644696Y-91749999D01*
X80000500Y-91749999D01*
X80000500Y-85249999D01*
X119744696Y-85249999D01*
X119744696Y-85250000D01*
X119763898Y-85616405D01*
X119821294Y-85978788D01*
X119821294Y-85978790D01*
X119916260Y-86333206D01*
X120047746Y-86675739D01*
X120214320Y-87002656D01*
X120414147Y-87310364D01*
X120414149Y-87310366D01*
X120645051Y-87595506D01*
X120904494Y-87854949D01*
X120904498Y-87854952D01*
X121189635Y-88085852D01*
X121442402Y-88250000D01*
X121497348Y-88285682D01*
X121824264Y-88452255D01*
X122166801Y-88583742D01*
X122521206Y-88678705D01*
X122883596Y-88736102D01*
X123229734Y-88754241D01*
X123249999Y-88755304D01*
X123250000Y-88755304D01*
X123250001Y-88755304D01*
X123269203Y-88754297D01*
X123616404Y-88736102D01*
X123978794Y-88678705D01*
X124333199Y-88583742D01*
X124675736Y-88452255D01*
X125002652Y-88285682D01*
X125310366Y-88085851D01*
X125595506Y-87854949D01*
X125854949Y-87595506D01*
X126085851Y-87310366D01*
X126285682Y-87002652D01*
X126452255Y-86675736D01*
X126583742Y-86333199D01*
X126678705Y-85978794D01*
X126736102Y-85616404D01*
X126755304Y-85250000D01*
X126736102Y-84883596D01*
X126678705Y-84521206D01*
X126583742Y-84166801D01*
X126452255Y-83824264D01*
X126285682Y-83497348D01*
X126085851Y-83189634D01*
X125854949Y-82904494D01*
X125595506Y-82645051D01*
X125310366Y-82414149D01*
X125310364Y-82414147D01*
X125002656Y-82214320D01*
X124675739Y-82047746D01*
X124333206Y-81916260D01*
X124333199Y-81916258D01*
X123978794Y-81821295D01*
X123978790Y-81821294D01*
X123978789Y-81821294D01*
X123616405Y-81763898D01*
X123250001Y-81744696D01*
X123249999Y-81744696D01*
X122883594Y-81763898D01*
X122521211Y-81821294D01*
X122521209Y-81821294D01*
X122166793Y-81916260D01*
X121824260Y-82047746D01*
X121497343Y-82214320D01*
X121189635Y-82414147D01*
X120904498Y-82645047D01*
X120904490Y-82645054D01*
X120645054Y-82904490D01*
X120645047Y-82904498D01*
X120414147Y-83189635D01*
X120214320Y-83497343D01*
X120047746Y-83824260D01*
X119916260Y-84166793D01*
X119821294Y-84521209D01*
X119821294Y-84521211D01*
X119763898Y-84883594D01*
X119744696Y-85249999D01*
X80000500Y-85249999D01*
X80000500Y-74622135D01*
X118347000Y-74622135D01*
X118347000Y-77342870D01*
X118347001Y-77342876D01*
X118353408Y-77402483D01*
X118403702Y-77537328D01*
X118403706Y-77537335D01*
X118489952Y-77652544D01*
X118489955Y-77652547D01*
X118605164Y-77738793D01*
X118605171Y-77738797D01*
X118740017Y-77789091D01*
X118740016Y-77789091D01*
X118746944Y-77789835D01*
X118799627Y-77795500D01*
X121520372Y-77795499D01*
X121579983Y-77789091D01*
X121714831Y-77738796D01*
X121830046Y-77652546D01*
X121916296Y-77537331D01*
X121966591Y-77402483D01*
X121973000Y-77342873D01*
X121972999Y-74622128D01*
X121966591Y-74562517D01*
X121916296Y-74427669D01*
X121916295Y-74427668D01*
X121916293Y-74427664D01*
X121830047Y-74312455D01*
X121830044Y-74312452D01*
X121714835Y-74226206D01*
X121714828Y-74226202D01*
X121579982Y-74175908D01*
X121579983Y-74175908D01*
X121520383Y-74169501D01*
X121520381Y-74169500D01*
X121520373Y-74169500D01*
X121520364Y-74169500D01*
X118799629Y-74169500D01*
X118799623Y-74169501D01*
X118740016Y-74175908D01*
X118605171Y-74226202D01*
X118605164Y-74226206D01*
X118489955Y-74312452D01*
X118489952Y-74312455D01*
X118403706Y-74427664D01*
X118403702Y-74427671D01*
X118353408Y-74562517D01*
X118347001Y-74622116D01*
X118347001Y-74622123D01*
X118347000Y-74622135D01*
X80000500Y-74622135D01*
X80000500Y-71382495D01*
X118341916Y-71382495D01*
X118341916Y-71382504D01*
X118362221Y-71653469D01*
X118422685Y-71918378D01*
X118422688Y-71918390D01*
X118422690Y-71918395D01*
X118521960Y-72171331D01*
X118521963Y-72171339D01*
X118612540Y-72328221D01*
X118657829Y-72406663D01*
X118794670Y-72578257D01*
X118827253Y-72619115D01*
X119015290Y-72793587D01*
X119026443Y-72803935D01*
X119250958Y-72957007D01*
X119495779Y-73074907D01*
X119755438Y-73155001D01*
X119755439Y-73155001D01*
X119755442Y-73155002D01*
X120024126Y-73195499D01*
X120024131Y-73195499D01*
X120024134Y-73195500D01*
X120024135Y-73195500D01*
X120295865Y-73195500D01*
X120295866Y-73195500D01*
X120295873Y-73195499D01*
X120564557Y-73155002D01*
X120564558Y-73155001D01*
X120564562Y-73155001D01*
X120824221Y-73074907D01*
X121069042Y-72957007D01*
X121293557Y-72803935D01*
X121492750Y-72619111D01*
X121662171Y-72406663D01*
X121798037Y-72171337D01*
X121897312Y-71918390D01*
X121957778Y-71653471D01*
X121978084Y-71382500D01*
X121957778Y-71111529D01*
X121897312Y-70846610D01*
X121798037Y-70593663D01*
X121798036Y-70593660D01*
X121740612Y-70494200D01*
X121662171Y-70358337D01*
X121492750Y-70145889D01*
X121492749Y-70145888D01*
X121492746Y-70145884D01*
X121293557Y-69961065D01*
X121069042Y-69807993D01*
X121069039Y-69807992D01*
X121069037Y-69807990D01*
X120824221Y-69690093D01*
X120564563Y-69609999D01*
X120564557Y-69609997D01*
X120295873Y-69569500D01*
X120295866Y-69569500D01*
X120024134Y-69569500D01*
X120024126Y-69569500D01*
X119755442Y-69609997D01*
X119755436Y-69609999D01*
X119495778Y-69690093D01*
X119250962Y-69807990D01*
X119026442Y-69961065D01*
X118827253Y-70145884D01*
X118657829Y-70358337D01*
X118521963Y-70593660D01*
X118521960Y-70593668D01*
X118422690Y-70846604D01*
X118422685Y-70846621D01*
X118362221Y-71111530D01*
X118341916Y-71382495D01*
X80000500Y-71382495D01*
X80000500Y-55750000D01*
X82244696Y-55750000D01*
X82263898Y-56116404D01*
X82321295Y-56478794D01*
X82338621Y-56543457D01*
X82416260Y-56833206D01*
X82547746Y-57175739D01*
X82714320Y-57502656D01*
X82914147Y-57810364D01*
X82978095Y-57889333D01*
X83145051Y-58095506D01*
X83404494Y-58354949D01*
X83404498Y-58354952D01*
X83689635Y-58585852D01*
X83997343Y-58785679D01*
X83997348Y-58785682D01*
X84324264Y-58952255D01*
X84666801Y-59083742D01*
X85021206Y-59178705D01*
X85383596Y-59236102D01*
X85729734Y-59254241D01*
X85749999Y-59255304D01*
X85750000Y-59255304D01*
X85750001Y-59255304D01*
X85769203Y-59254297D01*
X86116404Y-59236102D01*
X86478794Y-59178705D01*
X86833199Y-59083742D01*
X87175736Y-58952255D01*
X87502652Y-58785682D01*
X87810366Y-58585851D01*
X88095506Y-58354949D01*
X88354949Y-58095506D01*
X88585851Y-57810366D01*
X88785682Y-57502652D01*
X88952255Y-57175736D01*
X89083742Y-56833199D01*
X89178705Y-56478794D01*
X89236102Y-56116404D01*
X89240990Y-56023135D01*
X100240500Y-56023135D01*
X100240500Y-57476870D01*
X100240501Y-57476876D01*
X100246908Y-57536483D01*
X100297202Y-57671328D01*
X100297206Y-57671335D01*
X100383452Y-57786544D01*
X100383455Y-57786547D01*
X100498664Y-57872793D01*
X100498671Y-57872797D01*
X100633517Y-57923091D01*
X100633516Y-57923091D01*
X100640444Y-57923835D01*
X100693127Y-57929500D01*
X102146872Y-57929499D01*
X102206483Y-57923091D01*
X102341331Y-57872796D01*
X102456546Y-57786546D01*
X102542796Y-57671331D01*
X102593091Y-57536483D01*
X102599500Y-57476873D01*
X102599499Y-57167306D01*
X102619183Y-57100270D01*
X102671987Y-57054515D01*
X102741146Y-57044571D01*
X102804701Y-57073596D01*
X102842476Y-57132374D01*
X102842765Y-57133373D01*
X102854819Y-57175739D01*
X102855437Y-57177909D01*
X102855441Y-57177920D01*
X102952869Y-57373581D01*
X102952874Y-57373589D01*
X103084604Y-57548027D01*
X103084605Y-57548028D01*
X103246147Y-57695294D01*
X103246149Y-57695295D01*
X103246150Y-57695296D01*
X103431995Y-57810366D01*
X103432001Y-57810369D01*
X103475182Y-57827097D01*
X103635832Y-57889333D01*
X103850703Y-57929500D01*
X103850705Y-57929500D01*
X104069295Y-57929500D01*
X104069297Y-57929500D01*
X104284168Y-57889333D01*
X104488001Y-57810368D01*
X104673853Y-57695294D01*
X104835395Y-57548028D01*
X104967127Y-57373587D01*
X105064563Y-57177910D01*
X105110734Y-57015636D01*
X105148013Y-56956542D01*
X105211323Y-56926985D01*
X105280562Y-56936347D01*
X105333749Y-56981657D01*
X105349266Y-57015636D01*
X105395435Y-57177905D01*
X105395441Y-57177920D01*
X105492869Y-57373581D01*
X105492874Y-57373589D01*
X105624604Y-57548027D01*
X105624605Y-57548028D01*
X105786147Y-57695294D01*
X105786149Y-57695295D01*
X105786150Y-57695296D01*
X105971995Y-57810366D01*
X105972001Y-57810369D01*
X106015182Y-57827097D01*
X106175832Y-57889333D01*
X106390703Y-57929500D01*
X106390705Y-57929500D01*
X106609295Y-57929500D01*
X106609297Y-57929500D01*
X106824168Y-57889333D01*
X107028001Y-57810368D01*
X107213853Y-57695294D01*
X107375395Y-57548028D01*
X107507127Y-57373587D01*
X107604563Y-57177910D01*
X107664384Y-56967661D01*
X107684553Y-56750000D01*
X107664384Y-56532339D01*
X107604563Y-56322090D01*
X107604558Y-56322079D01*
X107507130Y-56126418D01*
X107507125Y-56126410D01*
X107429135Y-56023135D01*
X115740500Y-56023135D01*
X115740500Y-57476870D01*
X115740501Y-57476876D01*
X115746908Y-57536483D01*
X115797202Y-57671328D01*
X115797206Y-57671335D01*
X115883452Y-57786544D01*
X115883455Y-57786547D01*
X115998664Y-57872793D01*
X115998671Y-57872797D01*
X116133517Y-57923091D01*
X116133516Y-57923091D01*
X116140444Y-57923835D01*
X116193127Y-57929500D01*
X117646872Y-57929499D01*
X117706483Y-57923091D01*
X117841331Y-57872796D01*
X117956546Y-57786546D01*
X118042796Y-57671331D01*
X118093091Y-57536483D01*
X118099500Y-57476873D01*
X118099499Y-57167306D01*
X118119183Y-57100270D01*
X118171987Y-57054515D01*
X118241146Y-57044571D01*
X118304701Y-57073596D01*
X118342476Y-57132374D01*
X118342765Y-57133373D01*
X118354819Y-57175739D01*
X118355437Y-57177909D01*
X118355441Y-57177920D01*
X118452869Y-57373581D01*
X118452874Y-57373589D01*
X118584604Y-57548027D01*
X118584605Y-57548028D01*
X118746147Y-57695294D01*
X118746149Y-57695295D01*
X118746150Y-57695296D01*
X118931995Y-57810366D01*
X118932001Y-57810369D01*
X118975182Y-57827097D01*
X119135832Y-57889333D01*
X119350703Y-57929500D01*
X119350705Y-57929500D01*
X119569295Y-57929500D01*
X119569297Y-57929500D01*
X119784168Y-57889333D01*
X119988001Y-57810368D01*
X120173853Y-57695294D01*
X120335395Y-57548028D01*
X120467127Y-57373587D01*
X120564563Y-57177910D01*
X120610734Y-57015636D01*
X120648013Y-56956542D01*
X120711323Y-56926985D01*
X120780562Y-56936347D01*
X120833749Y-56981657D01*
X120849266Y-57015636D01*
X120895435Y-57177905D01*
X120895441Y-57177920D01*
X120992869Y-57373581D01*
X120992874Y-57373589D01*
X121124604Y-57548027D01*
X121124605Y-57548028D01*
X121286147Y-57695294D01*
X121286149Y-57695295D01*
X121286150Y-57695296D01*
X121471995Y-57810366D01*
X121472001Y-57810369D01*
X121515182Y-57827097D01*
X121675832Y-57889333D01*
X121890703Y-57929500D01*
X121890705Y-57929500D01*
X122109295Y-57929500D01*
X122109297Y-57929500D01*
X122324168Y-57889333D01*
X122528001Y-57810368D01*
X122713853Y-57695294D01*
X122875395Y-57548028D01*
X123007127Y-57373587D01*
X123104563Y-57177910D01*
X123164384Y-56967661D01*
X123184553Y-56750000D01*
X123164384Y-56532339D01*
X123104563Y-56322090D01*
X123104558Y-56322079D01*
X123007130Y-56126418D01*
X123007125Y-56126410D01*
X122875395Y-55951972D01*
X122740141Y-55828671D01*
X122713853Y-55804706D01*
X122713850Y-55804704D01*
X122713849Y-55804703D01*
X122528004Y-55689633D01*
X122527998Y-55689630D01*
X122366850Y-55627202D01*
X122324168Y-55610667D01*
X122109297Y-55570500D01*
X121890703Y-55570500D01*
X121675832Y-55610667D01*
X121675829Y-55610667D01*
X121675829Y-55610668D01*
X121472001Y-55689630D01*
X121471995Y-55689633D01*
X121286150Y-55804703D01*
X121124604Y-55951972D01*
X120992874Y-56126410D01*
X120992869Y-56126418D01*
X120895441Y-56322079D01*
X120895436Y-56322092D01*
X120849266Y-56484364D01*
X120811987Y-56543457D01*
X120748677Y-56573014D01*
X120679438Y-56563652D01*
X120626251Y-56518342D01*
X120610734Y-56484364D01*
X120586902Y-56400604D01*
X120564563Y-56322090D01*
X120564558Y-56322079D01*
X120467130Y-56126418D01*
X120467125Y-56126410D01*
X120335395Y-55951972D01*
X120200141Y-55828671D01*
X120173853Y-55804706D01*
X120173850Y-55804704D01*
X120173849Y-55804703D01*
X119988004Y-55689633D01*
X119987998Y-55689630D01*
X119826850Y-55627202D01*
X119784168Y-55610667D01*
X119569297Y-55570500D01*
X119350703Y-55570500D01*
X119135832Y-55610667D01*
X119135829Y-55610667D01*
X119135829Y-55610668D01*
X118932001Y-55689630D01*
X118931995Y-55689633D01*
X118746150Y-55804703D01*
X118584604Y-55951972D01*
X118452874Y-56126410D01*
X118452869Y-56126418D01*
X118355441Y-56322079D01*
X118355436Y-56322092D01*
X118342765Y-56366627D01*
X118305485Y-56425720D01*
X118242175Y-56455277D01*
X118172936Y-56445915D01*
X118119750Y-56400604D01*
X118099503Y-56333732D01*
X118099499Y-56332692D01*
X118099499Y-56023129D01*
X118099498Y-56023123D01*
X118099497Y-56023116D01*
X118093091Y-55963517D01*
X118042796Y-55828669D01*
X118042795Y-55828668D01*
X118042793Y-55828664D01*
X117956547Y-55713455D01*
X117956544Y-55713452D01*
X117841335Y-55627206D01*
X117841328Y-55627202D01*
X117706482Y-55576908D01*
X117706483Y-55576908D01*
X117646883Y-55570501D01*
X117646881Y-55570500D01*
X117646873Y-55570500D01*
X117646864Y-55570500D01*
X116193129Y-55570500D01*
X116193123Y-55570501D01*
X116133516Y-55576908D01*
X115998671Y-55627202D01*
X115998664Y-55627206D01*
X115883455Y-55713452D01*
X115883452Y-55713455D01*
X115797206Y-55828664D01*
X115797202Y-55828671D01*
X115746908Y-55963517D01*
X115740501Y-56023116D01*
X115740501Y-56023123D01*
X115740500Y-56023135D01*
X107429135Y-56023135D01*
X107375395Y-55951972D01*
X107240141Y-55828671D01*
X107213853Y-55804706D01*
X107213850Y-55804704D01*
X107213849Y-55804703D01*
X107028004Y-55689633D01*
X107027998Y-55689630D01*
X106866850Y-55627202D01*
X106824168Y-55610667D01*
X106609297Y-55570500D01*
X106390703Y-55570500D01*
X106175832Y-55610667D01*
X106175829Y-55610667D01*
X106175829Y-55610668D01*
X105972001Y-55689630D01*
X105971995Y-55689633D01*
X105786150Y-55804703D01*
X105624604Y-55951972D01*
X105492874Y-56126410D01*
X105492869Y-56126418D01*
X105395441Y-56322079D01*
X105395436Y-56322092D01*
X105349266Y-56484364D01*
X105311987Y-56543457D01*
X105248677Y-56573014D01*
X105179438Y-56563652D01*
X105126251Y-56518342D01*
X105110734Y-56484364D01*
X105086902Y-56400604D01*
X105064563Y-56322090D01*
X105064558Y-56322079D01*
X104967130Y-56126418D01*
X104967125Y-56126410D01*
X104835395Y-55951972D01*
X104700141Y-55828671D01*
X104673853Y-55804706D01*
X104673850Y-55804704D01*
X104673849Y-55804703D01*
X104488004Y-55689633D01*
X104487998Y-55689630D01*
X104326850Y-55627202D01*
X104284168Y-55610667D01*
X104069297Y-55570500D01*
X103850703Y-55570500D01*
X103635832Y-55610667D01*
X103635829Y-55610667D01*
X103635829Y-55610668D01*
X103432001Y-55689630D01*
X103431995Y-55689633D01*
X103246150Y-55804703D01*
X103084604Y-55951972D01*
X102952874Y-56126410D01*
X102952869Y-56126418D01*
X102855441Y-56322079D01*
X102855436Y-56322092D01*
X102842765Y-56366627D01*
X102805485Y-56425720D01*
X102742175Y-56455277D01*
X102672936Y-56445915D01*
X102619750Y-56400604D01*
X102599503Y-56333732D01*
X102599499Y-56332692D01*
X102599499Y-56023129D01*
X102599498Y-56023123D01*
X102599497Y-56023116D01*
X102593091Y-55963517D01*
X102542796Y-55828669D01*
X102542795Y-55828668D01*
X102542793Y-55828664D01*
X102456547Y-55713455D01*
X102456544Y-55713452D01*
X102341335Y-55627206D01*
X102341328Y-55627202D01*
X102206482Y-55576908D01*
X102206483Y-55576908D01*
X102146883Y-55570501D01*
X102146881Y-55570500D01*
X102146873Y-55570500D01*
X102146864Y-55570500D01*
X100693129Y-55570500D01*
X100693123Y-55570501D01*
X100633516Y-55576908D01*
X100498671Y-55627202D01*
X100498664Y-55627206D01*
X100383455Y-55713452D01*
X100383452Y-55713455D01*
X100297206Y-55828664D01*
X100297202Y-55828671D01*
X100246908Y-55963517D01*
X100240501Y-56023116D01*
X100240501Y-56023123D01*
X100240500Y-56023135D01*
X89240990Y-56023135D01*
X89255304Y-55750000D01*
X89236102Y-55383596D01*
X89178705Y-55021206D01*
X89083742Y-54666801D01*
X88952255Y-54324264D01*
X88785682Y-53997348D01*
X88585851Y-53689634D01*
X88354949Y-53404494D01*
X88095506Y-53145051D01*
X87810366Y-52914149D01*
X87810364Y-52914147D01*
X87502656Y-52714320D01*
X87175739Y-52547746D01*
X86833206Y-52416260D01*
X86833199Y-52416258D01*
X86478794Y-52321295D01*
X86478790Y-52321294D01*
X86478789Y-52321294D01*
X86116405Y-52263898D01*
X85750001Y-52244696D01*
X85749999Y-52244696D01*
X85383594Y-52263898D01*
X85021211Y-52321294D01*
X85021209Y-52321294D01*
X84666793Y-52416260D01*
X84324260Y-52547746D01*
X83997343Y-52714320D01*
X83689635Y-52914147D01*
X83404498Y-53145047D01*
X83404490Y-53145054D01*
X83145054Y-53404490D01*
X83145047Y-53404498D01*
X82914147Y-53689635D01*
X82714320Y-53997343D01*
X82547746Y-54324260D01*
X82416260Y-54666793D01*
X82321294Y-55021209D01*
X82321294Y-55021211D01*
X82263898Y-55383596D01*
X82244696Y-55750000D01*
X80000500Y-55750000D01*
X80000500Y-45859447D01*
X85500000Y-45859447D01*
X85500000Y-46527500D01*
X86345879Y-46527500D01*
X86326901Y-46573318D01*
X86300000Y-46708556D01*
X86300000Y-46846444D01*
X86326901Y-46981682D01*
X86345879Y-47027500D01*
X85500000Y-47027500D01*
X85500000Y-47695552D01*
X85536934Y-47928747D01*
X85609897Y-48153302D01*
X85717085Y-48363671D01*
X85855866Y-48554686D01*
X86022813Y-48721633D01*
X86213828Y-48860414D01*
X86424195Y-48967602D01*
X86648744Y-49040563D01*
X86648750Y-49040565D01*
X86750000Y-49056601D01*
X86750000Y-47431620D01*
X86795818Y-47450599D01*
X86931056Y-47477500D01*
X87068944Y-47477500D01*
X87204182Y-47450599D01*
X87250000Y-47431620D01*
X87250000Y-49056600D01*
X87351249Y-49040565D01*
X87351255Y-49040563D01*
X87575804Y-48967602D01*
X87786171Y-48860414D01*
X87977186Y-48721633D01*
X88144133Y-48554686D01*
X88282914Y-48363671D01*
X88390102Y-48153302D01*
X88463065Y-47928747D01*
X88500000Y-47695552D01*
X88500000Y-47027500D01*
X87654121Y-47027500D01*
X87673099Y-46981682D01*
X87700000Y-46846444D01*
X87700000Y-46708556D01*
X87673099Y-46573318D01*
X87654121Y-46527500D01*
X88500000Y-46527500D01*
X88500000Y-45859447D01*
X88463065Y-45626252D01*
X88390102Y-45401697D01*
X88282914Y-45191328D01*
X88272855Y-45177483D01*
X90499500Y-45177483D01*
X90499500Y-48377501D01*
X90499501Y-48377518D01*
X90510000Y-48480296D01*
X90510001Y-48480299D01*
X90534651Y-48554686D01*
X90565186Y-48646834D01*
X90657288Y-48796156D01*
X90781344Y-48920212D01*
X90930666Y-49012314D01*
X91097203Y-49067499D01*
X91199991Y-49078000D01*
X92800008Y-49077999D01*
X92902797Y-49067499D01*
X93069334Y-49012314D01*
X93218656Y-48920212D01*
X93342712Y-48796156D01*
X93434814Y-48646834D01*
X93489999Y-48480297D01*
X93500500Y-48377509D01*
X93500499Y-45177492D01*
X93499127Y-45164065D01*
X93489999Y-45074703D01*
X93489998Y-45074700D01*
X93434814Y-44908166D01*
X93342712Y-44758844D01*
X93218656Y-44634788D01*
X93069334Y-44542686D01*
X92902797Y-44487501D01*
X92902795Y-44487500D01*
X92800010Y-44477000D01*
X91199998Y-44477000D01*
X91199981Y-44477001D01*
X91097203Y-44487500D01*
X91097200Y-44487501D01*
X90930668Y-44542685D01*
X90930663Y-44542687D01*
X90781342Y-44634789D01*
X90657289Y-44758842D01*
X90565187Y-44908163D01*
X90565186Y-44908166D01*
X90510001Y-45074703D01*
X90510001Y-45074704D01*
X90510000Y-45074704D01*
X90499500Y-45177483D01*
X88272855Y-45177483D01*
X88144133Y-45000313D01*
X87977186Y-44833366D01*
X87786171Y-44694585D01*
X87575802Y-44587397D01*
X87351247Y-44514434D01*
X87250000Y-44498397D01*
X87250000Y-46123379D01*
X87204182Y-46104401D01*
X87068944Y-46077500D01*
X86931056Y-46077500D01*
X86795818Y-46104401D01*
X86750000Y-46123379D01*
X86750000Y-44498397D01*
X86648752Y-44514434D01*
X86424197Y-44587397D01*
X86213828Y-44694585D01*
X86022813Y-44833366D01*
X85855866Y-45000313D01*
X85717085Y-45191328D01*
X85609897Y-45401697D01*
X85536934Y-45626252D01*
X85500000Y-45859447D01*
X80000500Y-45859447D01*
X80000500Y-44052135D01*
X99099500Y-44052135D01*
X99099500Y-47947870D01*
X99099501Y-47947876D01*
X99105908Y-48007483D01*
X99156202Y-48142328D01*
X99156206Y-48142335D01*
X99242452Y-48257544D01*
X99242455Y-48257547D01*
X99357664Y-48343793D01*
X99357671Y-48343797D01*
X99492517Y-48394091D01*
X99492516Y-48394091D01*
X99499444Y-48394835D01*
X99552127Y-48400500D01*
X103447872Y-48400499D01*
X103507483Y-48394091D01*
X103642331Y-48343796D01*
X103757546Y-48257546D01*
X103843796Y-48142331D01*
X103894091Y-48007483D01*
X103900500Y-47947873D01*
X103900499Y-46874251D01*
X103920183Y-46807215D01*
X103972987Y-46761460D01*
X104042146Y-46751516D01*
X104105702Y-46780541D01*
X104142430Y-46835935D01*
X104170499Y-46922321D01*
X104304461Y-47207003D01*
X104304464Y-47207009D01*
X104473051Y-47472661D01*
X104473054Y-47472665D01*
X104673606Y-47715090D01*
X104673608Y-47715092D01*
X104902968Y-47930476D01*
X104902978Y-47930484D01*
X105157504Y-48115408D01*
X105157509Y-48115410D01*
X105157516Y-48115416D01*
X105433234Y-48266994D01*
X105433239Y-48266996D01*
X105433241Y-48266997D01*
X105433242Y-48266998D01*
X105725771Y-48382818D01*
X105725774Y-48382819D01*
X106030523Y-48461065D01*
X106030527Y-48461066D01*
X106096010Y-48469338D01*
X106342670Y-48500499D01*
X106342679Y-48500499D01*
X106342682Y-48500500D01*
X106342684Y-48500500D01*
X106657316Y-48500500D01*
X106657318Y-48500500D01*
X106657321Y-48500499D01*
X106657329Y-48500499D01*
X106843593Y-48476968D01*
X106969473Y-48461066D01*
X107274225Y-48382819D01*
X107287637Y-48377509D01*
X107566757Y-48266998D01*
X107566758Y-48266997D01*
X107566756Y-48266997D01*
X107566766Y-48266994D01*
X107842484Y-48115416D01*
X108097030Y-47930478D01*
X108326390Y-47715094D01*
X108526947Y-47472663D01*
X108695537Y-47207007D01*
X108829503Y-46922315D01*
X108926731Y-46623079D01*
X108985688Y-46314015D01*
X108985689Y-46314004D01*
X109005444Y-46000005D01*
X109005444Y-45999994D01*
X108985689Y-45685995D01*
X108985688Y-45685988D01*
X108985688Y-45685985D01*
X108926731Y-45376921D01*
X108829503Y-45077685D01*
X108828100Y-45074704D01*
X108695538Y-44792996D01*
X108695537Y-44792993D01*
X108565062Y-44587397D01*
X108526948Y-44527338D01*
X108526945Y-44527334D01*
X108326393Y-44284909D01*
X108326391Y-44284907D01*
X108097031Y-44069523D01*
X108097021Y-44069515D01*
X108073099Y-44052135D01*
X114599500Y-44052135D01*
X114599500Y-47947870D01*
X114599501Y-47947876D01*
X114605908Y-48007483D01*
X114656202Y-48142328D01*
X114656206Y-48142335D01*
X114742452Y-48257544D01*
X114742455Y-48257547D01*
X114857664Y-48343793D01*
X114857671Y-48343797D01*
X114992517Y-48394091D01*
X114992516Y-48394091D01*
X114999444Y-48394835D01*
X115052127Y-48400500D01*
X118947872Y-48400499D01*
X119007483Y-48394091D01*
X119142331Y-48343796D01*
X119257546Y-48257546D01*
X119343796Y-48142331D01*
X119394091Y-48007483D01*
X119400500Y-47947873D01*
X119400499Y-46874251D01*
X119420183Y-46807215D01*
X119472987Y-46761460D01*
X119542146Y-46751516D01*
X119605702Y-46780541D01*
X119642430Y-46835935D01*
X119670499Y-46922321D01*
X119804461Y-47207003D01*
X119804464Y-47207009D01*
X119973051Y-47472661D01*
X119973054Y-47472665D01*
X120173606Y-47715090D01*
X120173608Y-47715092D01*
X120402968Y-47930476D01*
X120402978Y-47930484D01*
X120657504Y-48115408D01*
X120657509Y-48115410D01*
X120657516Y-48115416D01*
X120933234Y-48266994D01*
X120933239Y-48266996D01*
X120933241Y-48266997D01*
X120933242Y-48266998D01*
X121225771Y-48382818D01*
X121225774Y-48382819D01*
X121530523Y-48461065D01*
X121530527Y-48461066D01*
X121596010Y-48469338D01*
X121842670Y-48500499D01*
X121842679Y-48500499D01*
X121842682Y-48500500D01*
X121842684Y-48500500D01*
X122157316Y-48500500D01*
X122157318Y-48500500D01*
X122157321Y-48500499D01*
X122157329Y-48500499D01*
X122343593Y-48476968D01*
X122469473Y-48461066D01*
X122774225Y-48382819D01*
X122787637Y-48377509D01*
X123066757Y-48266998D01*
X123066758Y-48266997D01*
X123066756Y-48266997D01*
X123066766Y-48266994D01*
X123342484Y-48115416D01*
X123597030Y-47930478D01*
X123826390Y-47715094D01*
X124026947Y-47472663D01*
X124195537Y-47207007D01*
X124329503Y-46922315D01*
X124426731Y-46623079D01*
X124485688Y-46314015D01*
X124485689Y-46314004D01*
X124505444Y-46000005D01*
X124505444Y-45999994D01*
X124485689Y-45685995D01*
X124485688Y-45685988D01*
X124485688Y-45685985D01*
X124426731Y-45376921D01*
X124329503Y-45077685D01*
X124328100Y-45074704D01*
X124195538Y-44792996D01*
X124195537Y-44792993D01*
X124065062Y-44587397D01*
X124026948Y-44527338D01*
X124026945Y-44527334D01*
X123826393Y-44284909D01*
X123826391Y-44284907D01*
X123597031Y-44069523D01*
X123597021Y-44069515D01*
X123342495Y-43884591D01*
X123342488Y-43884586D01*
X123342484Y-43884584D01*
X123066766Y-43733006D01*
X123066763Y-43733004D01*
X123066758Y-43733002D01*
X123066757Y-43733001D01*
X122774228Y-43617181D01*
X122774225Y-43617180D01*
X122469476Y-43538934D01*
X122469463Y-43538932D01*
X122157329Y-43499500D01*
X122157318Y-43499500D01*
X121842682Y-43499500D01*
X121842670Y-43499500D01*
X121530536Y-43538932D01*
X121530523Y-43538934D01*
X121225774Y-43617180D01*
X121225771Y-43617181D01*
X120933242Y-43733001D01*
X120933241Y-43733002D01*
X120657516Y-43884584D01*
X120657504Y-43884591D01*
X120402978Y-44069515D01*
X120402968Y-44069523D01*
X120173608Y-44284907D01*
X120173606Y-44284909D01*
X119973054Y-44527334D01*
X119973051Y-44527338D01*
X119804464Y-44792990D01*
X119804461Y-44792996D01*
X119670499Y-45077678D01*
X119670497Y-45077683D01*
X119642430Y-45164065D01*
X119602992Y-45221741D01*
X119538634Y-45248939D01*
X119469787Y-45237024D01*
X119418312Y-45189780D01*
X119400499Y-45125747D01*
X119400499Y-44052129D01*
X119400498Y-44052123D01*
X119400497Y-44052116D01*
X119394091Y-43992517D01*
X119353837Y-43884591D01*
X119343797Y-43857671D01*
X119343793Y-43857664D01*
X119257547Y-43742455D01*
X119257544Y-43742452D01*
X119142335Y-43656206D01*
X119142328Y-43656202D01*
X119007482Y-43605908D01*
X119007483Y-43605908D01*
X118947883Y-43599501D01*
X118947881Y-43599500D01*
X118947873Y-43599500D01*
X118947864Y-43599500D01*
X115052129Y-43599500D01*
X115052123Y-43599501D01*
X114992516Y-43605908D01*
X114857671Y-43656202D01*
X114857664Y-43656206D01*
X114742455Y-43742452D01*
X114742452Y-43742455D01*
X114656206Y-43857664D01*
X114656202Y-43857671D01*
X114605908Y-43992517D01*
X114599501Y-44052116D01*
X114599501Y-44052123D01*
X114599500Y-44052135D01*
X108073099Y-44052135D01*
X107842495Y-43884591D01*
X107842488Y-43884586D01*
X107842484Y-43884584D01*
X107566766Y-43733006D01*
X107566763Y-43733004D01*
X107566758Y-43733002D01*
X107566757Y-43733001D01*
X107274228Y-43617181D01*
X107274225Y-43617180D01*
X106969476Y-43538934D01*
X106969463Y-43538932D01*
X106657329Y-43499500D01*
X106657318Y-43499500D01*
X106342682Y-43499500D01*
X106342670Y-43499500D01*
X106030536Y-43538932D01*
X106030523Y-43538934D01*
X105725774Y-43617180D01*
X105725771Y-43617181D01*
X105433242Y-43733001D01*
X105433241Y-43733002D01*
X105157516Y-43884584D01*
X105157504Y-43884591D01*
X104902978Y-44069515D01*
X104902968Y-44069523D01*
X104673608Y-44284907D01*
X104673606Y-44284909D01*
X104473054Y-44527334D01*
X104473051Y-44527338D01*
X104304464Y-44792990D01*
X104304461Y-44792996D01*
X104170499Y-45077678D01*
X104170497Y-45077683D01*
X104142430Y-45164065D01*
X104102992Y-45221741D01*
X104038634Y-45248939D01*
X103969787Y-45237024D01*
X103918312Y-45189780D01*
X103900499Y-45125747D01*
X103900499Y-44052129D01*
X103900498Y-44052123D01*
X103900497Y-44052116D01*
X103894091Y-43992517D01*
X103853837Y-43884591D01*
X103843797Y-43857671D01*
X103843793Y-43857664D01*
X103757547Y-43742455D01*
X103757544Y-43742452D01*
X103642335Y-43656206D01*
X103642328Y-43656202D01*
X103507482Y-43605908D01*
X103507483Y-43605908D01*
X103447883Y-43599501D01*
X103447881Y-43599500D01*
X103447873Y-43599500D01*
X103447864Y-43599500D01*
X99552129Y-43599500D01*
X99552123Y-43599501D01*
X99492516Y-43605908D01*
X99357671Y-43656202D01*
X99357664Y-43656206D01*
X99242455Y-43742452D01*
X99242452Y-43742455D01*
X99156206Y-43857664D01*
X99156202Y-43857671D01*
X99105908Y-43992517D01*
X99099501Y-44052116D01*
X99099501Y-44052123D01*
X99099500Y-44052135D01*
X80000500Y-44052135D01*
X80000500Y-42374500D01*
X80020185Y-42307461D01*
X80072989Y-42261706D01*
X80124500Y-42250500D01*
X127875500Y-42250500D01*
X127942539Y-42270185D01*
G37*
%TD.AperFunction*%
%TD*%
M02*
