%TF.GenerationSoftware,KiCad,Pcbnew,8.0.2*%
%TF.CreationDate,2024-10-02T19:35:02-04:00*%
%TF.ProjectId,FewawiPowerBoard,46657761-7769-4506-9f77-6572426f6172,rev?*%
%TF.SameCoordinates,Original*%
%TF.FileFunction,Copper,L1,Top*%
%TF.FilePolarity,Positive*%
%FSLAX46Y46*%
G04 Gerber Fmt 4.6, Leading zero omitted, Abs format (unit mm)*
G04 Created by KiCad (PCBNEW 8.0.2) date 2024-10-02 19:35:02*
%MOMM*%
%LPD*%
G01*
G04 APERTURE LIST*
G04 Aperture macros list*
%AMRoundRect*
0 Rectangle with rounded corners*
0 $1 Rounding radius*
0 $2 $3 $4 $5 $6 $7 $8 $9 X,Y pos of 4 corners*
0 Add a 4 corners polygon primitive as box body*
4,1,4,$2,$3,$4,$5,$6,$7,$8,$9,$2,$3,0*
0 Add four circle primitives for the rounded corners*
1,1,$1+$1,$2,$3*
1,1,$1+$1,$4,$5*
1,1,$1+$1,$6,$7*
1,1,$1+$1,$8,$9*
0 Add four rect primitives between the rounded corners*
20,1,$1+$1,$2,$3,$4,$5,0*
20,1,$1+$1,$4,$5,$6,$7,0*
20,1,$1+$1,$6,$7,$8,$9,0*
20,1,$1+$1,$8,$9,$2,$3,0*%
G04 Aperture macros list end*
%TA.AperFunction,ComponentPad*%
%ADD10C,6.000000*%
%TD*%
%TA.AperFunction,ComponentPad*%
%ADD11R,3.800000X3.800000*%
%TD*%
%TA.AperFunction,ComponentPad*%
%ADD12C,4.000000*%
%TD*%
%TA.AperFunction,SMDPad,CuDef*%
%ADD13R,1.800000X1.170000*%
%TD*%
%TA.AperFunction,SMDPad,CuDef*%
%ADD14R,1.257000X3.429000*%
%TD*%
%TA.AperFunction,SMDPad,CuDef*%
%ADD15R,10.668000X9.017000*%
%TD*%
%TA.AperFunction,SMDPad,CuDef*%
%ADD16RoundRect,0.250000X0.475000X-0.337500X0.475000X0.337500X-0.475000X0.337500X-0.475000X-0.337500X0*%
%TD*%
%TA.AperFunction,SMDPad,CuDef*%
%ADD17RoundRect,0.250000X0.337500X0.475000X-0.337500X0.475000X-0.337500X-0.475000X0.337500X-0.475000X0*%
%TD*%
%TA.AperFunction,ComponentPad*%
%ADD18R,1.358000X1.358000*%
%TD*%
%TA.AperFunction,ComponentPad*%
%ADD19C,1.358000*%
%TD*%
%TA.AperFunction,SMDPad,CuDef*%
%ADD20RoundRect,0.250000X0.450000X-0.350000X0.450000X0.350000X-0.450000X0.350000X-0.450000X-0.350000X0*%
%TD*%
%TA.AperFunction,ComponentPad*%
%ADD21RoundRect,1.500000X1.500000X1.500000X-1.500000X1.500000X-1.500000X-1.500000X1.500000X-1.500000X0*%
%TD*%
%TA.AperFunction,SMDPad,CuDef*%
%ADD22R,1.300000X0.600000*%
%TD*%
%TA.AperFunction,ComponentPad*%
%ADD23R,2.625000X2.625000*%
%TD*%
%TA.AperFunction,ComponentPad*%
%ADD24C,2.625000*%
%TD*%
%TA.AperFunction,ComponentPad*%
%ADD25RoundRect,0.250000X0.750000X1.550000X-0.750000X1.550000X-0.750000X-1.550000X0.750000X-1.550000X0*%
%TD*%
%TA.AperFunction,ComponentPad*%
%ADD26O,2.000000X3.600000*%
%TD*%
%TA.AperFunction,SMDPad,CuDef*%
%ADD27RoundRect,0.250000X-0.450000X0.350000X-0.450000X-0.350000X0.450000X-0.350000X0.450000X0.350000X0*%
%TD*%
%TA.AperFunction,ViaPad*%
%ADD28C,0.600000*%
%TD*%
%TA.AperFunction,Conductor*%
%ADD29C,1.000000*%
%TD*%
%TA.AperFunction,Conductor*%
%ADD30C,0.200000*%
%TD*%
%TA.AperFunction,Conductor*%
%ADD31C,1.500000*%
%TD*%
%TA.AperFunction,Conductor*%
%ADD32C,2.000000*%
%TD*%
%TA.AperFunction,Conductor*%
%ADD33C,3.000000*%
%TD*%
%TA.AperFunction,Conductor*%
%ADD34C,5.000000*%
%TD*%
G04 APERTURE END LIST*
D10*
%TO.P,REF\u002A\u002A,1*%
%TO.N,N/C*%
X123250000Y-85250000D03*
%TD*%
D11*
%TO.P,J4,1,Pin_1*%
%TO.N,Net-(J4-Pin_1)*%
X117000000Y-46000000D03*
D12*
%TO.P,J4,2,Pin_2*%
%TO.N,Net-(J4-Pin_2)*%
X122000000Y-46000000D03*
%TD*%
D10*
%TO.P,REF\u002A\u002A,1*%
%TO.N,N/C*%
X85750000Y-55750000D03*
%TD*%
D11*
%TO.P,J3,1,Pin_1*%
%TO.N,Net-(J3-Pin_1)*%
X101500000Y-46000000D03*
D12*
%TO.P,J3,2,Pin_2*%
%TO.N,Net-(J3-Pin_2)*%
X106500000Y-46000000D03*
%TD*%
D13*
%TO.P,F1,1*%
%TO.N,Net-(PS1-+VIN)*%
X98250000Y-61030000D03*
%TO.P,F1,2*%
%TO.N,34V*%
X98250000Y-63970000D03*
%TD*%
D14*
%TO.P,Q1,1,G*%
%TO.N,Net-(Q1-G)*%
X90920000Y-81500000D03*
D15*
%TO.P,Q1,2,D*%
%TO.N,34V*%
X93460000Y-71594000D03*
D14*
%TO.P,Q1,3,S*%
%TO.N,Net-(J1-Pin_2)*%
X96000000Y-81500000D03*
%TD*%
D16*
%TO.P,C3,1*%
%TO.N,GND*%
X101460000Y-63537500D03*
%TO.P,C3,2*%
%TO.N,Net-(PS1-+VIN)*%
X101460000Y-61462500D03*
%TD*%
D17*
%TO.P,C7,1*%
%TO.N,34V*%
X84825000Y-74750000D03*
%TO.P,C7,2*%
%TO.N,Net-(Q1-G)*%
X82750000Y-74750000D03*
%TD*%
D18*
%TO.P,U1,1,IN*%
%TO.N,Net-(PS1-+VIN)*%
X116920000Y-56750000D03*
D19*
%TO.P,U1,2,GND*%
%TO.N,Net-(J4-Pin_1)*%
X119460000Y-56750000D03*
%TO.P,U1,3,OUT*%
%TO.N,Net-(J4-Pin_2)*%
X122000000Y-56750000D03*
%TD*%
D20*
%TO.P,R4,1*%
%TO.N,Net-(Q2-G)*%
X100500000Y-90000000D03*
%TO.P,R4,2*%
%TO.N,Net-(SW1-A)*%
X100500000Y-88000000D03*
%TD*%
D21*
%TO.P,J1,1,Pin_1*%
%TO.N,GND*%
X115350000Y-91750000D03*
D10*
%TO.P,J1,2,Pin_2*%
%TO.N,Net-(J1-Pin_2)*%
X108150000Y-91750000D03*
%TD*%
D17*
%TO.P,C1,1*%
%TO.N,GND*%
X119287500Y-60750000D03*
%TO.P,C1,2*%
%TO.N,Net-(PS1-+VIN)*%
X117212500Y-60750000D03*
%TD*%
D18*
%TO.P,PS1,1,+VIN*%
%TO.N,Net-(PS1-+VIN)*%
X101420000Y-56750000D03*
D19*
%TO.P,PS1,2,GND*%
%TO.N,Net-(J3-Pin_1)*%
X103960000Y-56750000D03*
%TO.P,PS1,3,+VOUT*%
%TO.N,Net-(J3-Pin_2)*%
X106500000Y-56750000D03*
%TD*%
D22*
%TO.P,Q2,1,G*%
%TO.N,Net-(Q2-G)*%
X94900000Y-93550000D03*
%TO.P,Q2,2,S*%
%TO.N,GND*%
X94900000Y-95450000D03*
%TO.P,Q2,3,D*%
%TO.N,Net-(Q2-D)*%
X97000000Y-94500000D03*
%TD*%
D23*
%TO.P,SW1,1,A*%
%TO.N,Net-(SW1-A)*%
X120160000Y-75982500D03*
D24*
%TO.P,SW1,2,B*%
%TO.N,Net-(J1-Pin_2)*%
X120160000Y-71382500D03*
%TD*%
D20*
%TO.P,R3,1*%
%TO.N,Net-(Q2-G)*%
X97000000Y-90000000D03*
%TO.P,R3,2*%
%TO.N,GND*%
X97000000Y-88000000D03*
%TD*%
D25*
%TO.P,J2,1,Pin_1*%
%TO.N,34V*%
X92000000Y-46777500D03*
D26*
%TO.P,J2,2,Pin_2*%
%TO.N,GND*%
X87000000Y-46777500D03*
%TD*%
D27*
%TO.P,R1,1*%
%TO.N,Net-(Q1-G)*%
X90000000Y-88000000D03*
%TO.P,R1,2*%
%TO.N,Net-(Q2-D)*%
X90000000Y-90000000D03*
%TD*%
D17*
%TO.P,C5,1*%
%TO.N,34V*%
X84787500Y-71250000D03*
%TO.P,C5,2*%
%TO.N,GND*%
X82712500Y-71250000D03*
%TD*%
D20*
%TO.P,R2,1*%
%TO.N,Net-(Q1-G)*%
X93500000Y-90000000D03*
%TO.P,R2,2*%
%TO.N,Net-(J1-Pin_2)*%
X93500000Y-88000000D03*
%TD*%
D17*
%TO.P,C6,1*%
%TO.N,34V*%
X84825000Y-67750000D03*
%TO.P,C6,2*%
%TO.N,GND*%
X82750000Y-67750000D03*
%TD*%
D28*
%TO.N,GND*%
X104000000Y-62250000D03*
%TD*%
D29*
%TO.N,Net-(PS1-+VIN)*%
X101420000Y-56750000D02*
X100750000Y-56750000D01*
D30*
X101420000Y-56750000D02*
X101500000Y-56750000D01*
D31*
X104670000Y-60000000D02*
X112000000Y-60000000D01*
X112000000Y-60000000D02*
X115250000Y-56750000D01*
X115250000Y-56750000D02*
X116920000Y-56750000D01*
D30*
X101027500Y-61030000D02*
X101460000Y-61462500D01*
D29*
X117212500Y-60750000D02*
X117212500Y-57042500D01*
D30*
X101460000Y-56790000D02*
X101420000Y-56750000D01*
X117212500Y-57042500D02*
X116920000Y-56750000D01*
D32*
X100750000Y-56750000D02*
X98250000Y-59250000D01*
X98250000Y-59250000D02*
X98250000Y-61030000D01*
D29*
X101460000Y-61462500D02*
X101460000Y-56790000D01*
D31*
X101420000Y-56750000D02*
X104670000Y-60000000D01*
D30*
%TO.N,34V*%
X84787500Y-67787500D02*
X84825000Y-67750000D01*
D33*
X93460000Y-71594000D02*
X93460000Y-48237500D01*
X93460000Y-48237500D02*
X92000000Y-46777500D01*
D30*
X84825000Y-71287500D02*
X84787500Y-71250000D01*
D32*
X98250000Y-63970000D02*
X98250000Y-66804000D01*
D30*
X89616000Y-67750000D02*
X93460000Y-71594000D01*
D29*
X84825000Y-74750000D02*
X84825000Y-71287500D01*
D32*
X98250000Y-66804000D02*
X93460000Y-71594000D01*
D29*
X84787500Y-71250000D02*
X84787500Y-67787500D01*
X84825000Y-67750000D02*
X89616000Y-67750000D01*
D30*
%TO.N,Net-(Q1-G)*%
X90000000Y-82420000D02*
X90920000Y-81500000D01*
X92000000Y-90000000D02*
X90000000Y-88000000D01*
X89500000Y-81500000D02*
X90920000Y-81500000D01*
X93500000Y-90000000D02*
X92000000Y-90000000D01*
X90000000Y-88000000D02*
X90000000Y-82420000D01*
X82750000Y-74750000D02*
X89500000Y-81500000D01*
D29*
%TO.N,Net-(J3-Pin_1)*%
X103960000Y-56750000D02*
X103960000Y-48460000D01*
X103960000Y-48460000D02*
X101500000Y-46000000D01*
%TO.N,Net-(J3-Pin_2)*%
X106500000Y-56750000D02*
X106500000Y-46000000D01*
%TO.N,Net-(J4-Pin_1)*%
X119460000Y-48460000D02*
X117000000Y-46000000D01*
X119460000Y-56750000D02*
X119460000Y-48460000D01*
D30*
%TO.N,Net-(Q2-G)*%
X100500000Y-90000000D02*
X97000000Y-90000000D01*
X97000000Y-90000000D02*
X97000000Y-91450000D01*
X97000000Y-91450000D02*
X94900000Y-93550000D01*
%TO.N,Net-(Q2-D)*%
X94300000Y-94500000D02*
X90000000Y-90200000D01*
X90000000Y-90200000D02*
X90000000Y-90000000D01*
X97000000Y-94500000D02*
X94300000Y-94500000D01*
%TO.N,Net-(SW1-A)*%
X120160000Y-75982500D02*
X120382500Y-75982500D01*
X127200000Y-91700000D02*
X122100000Y-96800000D01*
X102500000Y-94000000D02*
X102500000Y-90000000D01*
X122100000Y-96800000D02*
X105300000Y-96800000D01*
X120382500Y-75982500D02*
X127200000Y-82800000D01*
X105300000Y-96800000D02*
X102500000Y-94000000D01*
X102500000Y-90000000D02*
X100500000Y-88000000D01*
X127200000Y-82800000D02*
X127200000Y-91700000D01*
D29*
%TO.N,Net-(J4-Pin_2)*%
X122000000Y-56750000D02*
X122000000Y-46000000D01*
D32*
%TO.N,Net-(J1-Pin_2)*%
X120160000Y-71382500D02*
X108150000Y-83392500D01*
D34*
X108150000Y-91750000D02*
X108150000Y-86850000D01*
D30*
X108150000Y-83392500D02*
X108150000Y-86850000D01*
D34*
X102800000Y-81500000D02*
X96000000Y-81500000D01*
D30*
X93500000Y-88000000D02*
X93500000Y-84000000D01*
X96000000Y-81500000D02*
X96000000Y-81492387D01*
D34*
X108150000Y-86850000D02*
X102800000Y-81500000D01*
D30*
X93500000Y-84000000D02*
X96000000Y-81500000D01*
%TD*%
%TA.AperFunction,Conductor*%
%TO.N,GND*%
G36*
X127942539Y-42270185D02*
G01*
X127988294Y-42322989D01*
X127999500Y-42374500D01*
X127999500Y-82524049D01*
X127979815Y-82591088D01*
X127927011Y-82636843D01*
X127857853Y-82646787D01*
X127794297Y-82617762D01*
X127763643Y-82575252D01*
X127763641Y-82575254D01*
X127763625Y-82575227D01*
X127760940Y-82571503D01*
X127759580Y-82568221D01*
X127719648Y-82499057D01*
X127719647Y-82499055D01*
X127680521Y-82431286D01*
X127680520Y-82431284D01*
X127568716Y-82319480D01*
X127568715Y-82319479D01*
X127564385Y-82315149D01*
X127564374Y-82315139D01*
X122009318Y-76760083D01*
X121975833Y-76698760D01*
X121972999Y-76672402D01*
X121972999Y-74622129D01*
X121972998Y-74622123D01*
X121966591Y-74562516D01*
X121916297Y-74427671D01*
X121916293Y-74427664D01*
X121830047Y-74312455D01*
X121830044Y-74312452D01*
X121714835Y-74226206D01*
X121714828Y-74226202D01*
X121579982Y-74175908D01*
X121579983Y-74175908D01*
X121520383Y-74169501D01*
X121520381Y-74169500D01*
X121520373Y-74169500D01*
X121520365Y-74169500D01*
X119794388Y-74169500D01*
X119727349Y-74149815D01*
X119681594Y-74097011D01*
X119671650Y-74027853D01*
X119700675Y-73964297D01*
X119706707Y-73957819D01*
X120074341Y-73590185D01*
X120470906Y-73193619D01*
X120532227Y-73160136D01*
X120540084Y-73158690D01*
X120564562Y-73155001D01*
X120824221Y-73074907D01*
X121069042Y-72957007D01*
X121293557Y-72803935D01*
X121492750Y-72619111D01*
X121662171Y-72406663D01*
X121798037Y-72171337D01*
X121897312Y-71918390D01*
X121957778Y-71653471D01*
X121978084Y-71382500D01*
X121957778Y-71111529D01*
X121897312Y-70846610D01*
X121798037Y-70593663D01*
X121798036Y-70593660D01*
X121740612Y-70494200D01*
X121662171Y-70358337D01*
X121492750Y-70145889D01*
X121492749Y-70145888D01*
X121492746Y-70145884D01*
X121293557Y-69961065D01*
X121069042Y-69807993D01*
X121069039Y-69807992D01*
X121069037Y-69807990D01*
X120824221Y-69690093D01*
X120564563Y-69609999D01*
X120564557Y-69609997D01*
X120295873Y-69569500D01*
X120295866Y-69569500D01*
X120024134Y-69569500D01*
X120024126Y-69569500D01*
X119755442Y-69609997D01*
X119755436Y-69609999D01*
X119495778Y-69690093D01*
X119250962Y-69807990D01*
X119026442Y-69961065D01*
X118827253Y-70145884D01*
X118657829Y-70358337D01*
X118521963Y-70593660D01*
X118521960Y-70593668D01*
X118422689Y-70846604D01*
X118422686Y-70846616D01*
X118385927Y-71007666D01*
X118352717Y-71067754D01*
X107569591Y-81850881D01*
X107508268Y-81884366D01*
X107438576Y-81879382D01*
X107394229Y-81850881D01*
X104802523Y-79259175D01*
X104735607Y-79205812D01*
X104539039Y-79049054D01*
X104253686Y-78869754D01*
X104253683Y-78869752D01*
X103950054Y-78723532D01*
X103631965Y-78612227D01*
X103631953Y-78612223D01*
X103303397Y-78537233D01*
X103303381Y-78537231D01*
X102968509Y-78499500D01*
X102968505Y-78499500D01*
X102968504Y-78499500D01*
X95831496Y-78499500D01*
X95831491Y-78499500D01*
X95496618Y-78537231D01*
X95496602Y-78537233D01*
X95168046Y-78612223D01*
X95168034Y-78612227D01*
X94849945Y-78723532D01*
X94546316Y-78869752D01*
X94260962Y-79049053D01*
X93997477Y-79259174D01*
X93759174Y-79497477D01*
X93549053Y-79760962D01*
X93369752Y-80046316D01*
X93223532Y-80349945D01*
X93112227Y-80668034D01*
X93112223Y-80668046D01*
X93037233Y-80996602D01*
X93037231Y-80996618D01*
X92999500Y-81331491D01*
X92999500Y-81668508D01*
X93037231Y-82003381D01*
X93037233Y-82003397D01*
X93112223Y-82331953D01*
X93112227Y-82331965D01*
X93223532Y-82650054D01*
X93369752Y-82953683D01*
X93443450Y-83070973D01*
X93462450Y-83138210D01*
X93442082Y-83205045D01*
X93426137Y-83224626D01*
X93131286Y-83519478D01*
X93019481Y-83631282D01*
X93019477Y-83631287D01*
X93006916Y-83653046D01*
X93003885Y-83658296D01*
X92940423Y-83768215D01*
X92899499Y-83920943D01*
X92899499Y-83920945D01*
X92899499Y-84089046D01*
X92899500Y-84089059D01*
X92899500Y-86819699D01*
X92879815Y-86886738D01*
X92827011Y-86932493D01*
X92814507Y-86937403D01*
X92781962Y-86948188D01*
X92730668Y-86965185D01*
X92730663Y-86965187D01*
X92581342Y-87057289D01*
X92457289Y-87181342D01*
X92365187Y-87330663D01*
X92365185Y-87330668D01*
X92365115Y-87330880D01*
X92310001Y-87497203D01*
X92310001Y-87497204D01*
X92310000Y-87497204D01*
X92299500Y-87599983D01*
X92299500Y-88400001D01*
X92299501Y-88400019D01*
X92310000Y-88502796D01*
X92310001Y-88502799D01*
X92365115Y-88669119D01*
X92365186Y-88669334D01*
X92457096Y-88818345D01*
X92457289Y-88818657D01*
X92550951Y-88912319D01*
X92584436Y-88973642D01*
X92579452Y-89043334D01*
X92550951Y-89087681D01*
X92457289Y-89181342D01*
X92376829Y-89311790D01*
X92324881Y-89358514D01*
X92255918Y-89369737D01*
X92191836Y-89341893D01*
X92183609Y-89334374D01*
X91236818Y-88387583D01*
X91203333Y-88326260D01*
X91200499Y-88299902D01*
X91200499Y-87599998D01*
X91200498Y-87599981D01*
X91189999Y-87497203D01*
X91189998Y-87497200D01*
X91134814Y-87330666D01*
X91042712Y-87181344D01*
X90918656Y-87057288D01*
X90769334Y-86965186D01*
X90685495Y-86937404D01*
X90628051Y-86897632D01*
X90601228Y-86833116D01*
X90600500Y-86819699D01*
X90600500Y-83838999D01*
X90620185Y-83771960D01*
X90672989Y-83726205D01*
X90724500Y-83714999D01*
X91596371Y-83714999D01*
X91596372Y-83714999D01*
X91655983Y-83708591D01*
X91790831Y-83658296D01*
X91906046Y-83572046D01*
X91992296Y-83456831D01*
X92042591Y-83321983D01*
X92049000Y-83262373D01*
X92048999Y-79737628D01*
X92042591Y-79678017D01*
X91992296Y-79543169D01*
X91992295Y-79543168D01*
X91992293Y-79543164D01*
X91906047Y-79427955D01*
X91906044Y-79427952D01*
X91790835Y-79341706D01*
X91790828Y-79341702D01*
X91655982Y-79291408D01*
X91655983Y-79291408D01*
X91596383Y-79285001D01*
X91596381Y-79285000D01*
X91596373Y-79285000D01*
X91596364Y-79285000D01*
X90243629Y-79285000D01*
X90243623Y-79285001D01*
X90184016Y-79291408D01*
X90049171Y-79341702D01*
X90049164Y-79341706D01*
X89933955Y-79427952D01*
X89933952Y-79427955D01*
X89847706Y-79543164D01*
X89847702Y-79543171D01*
X89797408Y-79678017D01*
X89791001Y-79737616D01*
X89791001Y-79737623D01*
X89791000Y-79737635D01*
X89791000Y-80642402D01*
X89771315Y-80709441D01*
X89718511Y-80755196D01*
X89649353Y-80765140D01*
X89585797Y-80736115D01*
X89579319Y-80730083D01*
X85036415Y-76187180D01*
X85002930Y-76125857D01*
X85007914Y-76056165D01*
X85049786Y-76000232D01*
X85115250Y-75975815D01*
X85124096Y-75975499D01*
X85212502Y-75975499D01*
X85212508Y-75975499D01*
X85315297Y-75964999D01*
X85481834Y-75909814D01*
X85631156Y-75817712D01*
X85755212Y-75693656D01*
X85847314Y-75544334D01*
X85902499Y-75377797D01*
X85913000Y-75275009D01*
X85912999Y-74224992D01*
X85907330Y-74169500D01*
X85902499Y-74122203D01*
X85902498Y-74122200D01*
X85871234Y-74027853D01*
X85847314Y-73955666D01*
X85843958Y-73950225D01*
X85825500Y-73885134D01*
X85825500Y-72017005D01*
X85831794Y-71978001D01*
X85864999Y-71877797D01*
X85875500Y-71775009D01*
X85875499Y-70724992D01*
X85864999Y-70622203D01*
X85809814Y-70455666D01*
X85806458Y-70450225D01*
X85788000Y-70385134D01*
X85788000Y-68874500D01*
X85807685Y-68807461D01*
X85860489Y-68761706D01*
X85912000Y-68750500D01*
X87501500Y-68750500D01*
X87568539Y-68770185D01*
X87614294Y-68822989D01*
X87625500Y-68874500D01*
X87625500Y-76150370D01*
X87625501Y-76150376D01*
X87631908Y-76209983D01*
X87682202Y-76344828D01*
X87682206Y-76344835D01*
X87768452Y-76460044D01*
X87768455Y-76460047D01*
X87883664Y-76546293D01*
X87883671Y-76546297D01*
X88018517Y-76596591D01*
X88018516Y-76596591D01*
X88025444Y-76597335D01*
X88078127Y-76603000D01*
X98841872Y-76602999D01*
X98901483Y-76596591D01*
X99036331Y-76546296D01*
X99151546Y-76460046D01*
X99237796Y-76344831D01*
X99288091Y-76209983D01*
X99294500Y-76150373D01*
X99294499Y-67932889D01*
X99314184Y-67865851D01*
X99330818Y-67845208D01*
X99394517Y-67781510D01*
X99533343Y-67590434D01*
X99640568Y-67379992D01*
X99713553Y-67155368D01*
X99745149Y-66955880D01*
X99750500Y-66922097D01*
X99750500Y-63924986D01*
X100235001Y-63924986D01*
X100245494Y-64027697D01*
X100300641Y-64194119D01*
X100300643Y-64194124D01*
X100392684Y-64343345D01*
X100516654Y-64467315D01*
X100665875Y-64559356D01*
X100665880Y-64559358D01*
X100832302Y-64614505D01*
X100832309Y-64614506D01*
X100935019Y-64624999D01*
X101209999Y-64624999D01*
X101710000Y-64624999D01*
X101984972Y-64624999D01*
X101984986Y-64624998D01*
X102087697Y-64614505D01*
X102254119Y-64559358D01*
X102254124Y-64559356D01*
X102403345Y-64467315D01*
X102527315Y-64343345D01*
X102619356Y-64194124D01*
X102619358Y-64194119D01*
X102674505Y-64027697D01*
X102674506Y-64027690D01*
X102684999Y-63924986D01*
X102685000Y-63924973D01*
X102685000Y-63787500D01*
X101710000Y-63787500D01*
X101710000Y-64624999D01*
X101209999Y-64624999D01*
X101210000Y-64624998D01*
X101210000Y-63787500D01*
X100235001Y-63787500D01*
X100235001Y-63924986D01*
X99750500Y-63924986D01*
X99750500Y-63851902D01*
X99729005Y-63716197D01*
X99713553Y-63618632D01*
X99713552Y-63618628D01*
X99713552Y-63618627D01*
X99656568Y-63443250D01*
X99650499Y-63404932D01*
X99650499Y-63337129D01*
X99650498Y-63337123D01*
X99650497Y-63337116D01*
X99644091Y-63277517D01*
X99593796Y-63142669D01*
X99593795Y-63142668D01*
X99593793Y-63142664D01*
X99507547Y-63027455D01*
X99507544Y-63027452D01*
X99392334Y-62941205D01*
X99392332Y-62941204D01*
X99339295Y-62921422D01*
X99294949Y-62892922D01*
X99227512Y-62825485D01*
X99227510Y-62825483D01*
X99036433Y-62686657D01*
X98886937Y-62610485D01*
X98836141Y-62562510D01*
X98819346Y-62494689D01*
X98841883Y-62428554D01*
X98886937Y-62389515D01*
X98889212Y-62388355D01*
X99036433Y-62313343D01*
X99227510Y-62174517D01*
X99294950Y-62107075D01*
X99339297Y-62078575D01*
X99392331Y-62058796D01*
X99392331Y-62058795D01*
X99392333Y-62058795D01*
X99392333Y-62058794D01*
X99507546Y-61972546D01*
X99593796Y-61857331D01*
X99644091Y-61722483D01*
X99647190Y-61693657D01*
X99650499Y-61662886D01*
X99650499Y-61662882D01*
X99650500Y-61662873D01*
X99650499Y-61595064D01*
X99656568Y-61556745D01*
X99660669Y-61544124D01*
X99713553Y-61381368D01*
X99748791Y-61158884D01*
X99750500Y-61148097D01*
X99750500Y-59922889D01*
X99770185Y-59855850D01*
X99786819Y-59835208D01*
X100247819Y-59374208D01*
X100309142Y-59340723D01*
X100378834Y-59345707D01*
X100434767Y-59387579D01*
X100459184Y-59453043D01*
X100459500Y-59461889D01*
X100459500Y-60537770D01*
X100439815Y-60604809D01*
X100423181Y-60625451D01*
X100392289Y-60656342D01*
X100300187Y-60805663D01*
X100300186Y-60805666D01*
X100245001Y-60972203D01*
X100245001Y-60972204D01*
X100245000Y-60972204D01*
X100234500Y-61074983D01*
X100234500Y-61850001D01*
X100234501Y-61850019D01*
X100245000Y-61952796D01*
X100245001Y-61952799D01*
X100296124Y-62107076D01*
X100300186Y-62119334D01*
X100392288Y-62268656D01*
X100516344Y-62392712D01*
X100519628Y-62394737D01*
X100519653Y-62394753D01*
X100521445Y-62396746D01*
X100522011Y-62397193D01*
X100521934Y-62397289D01*
X100566379Y-62446699D01*
X100577603Y-62515661D01*
X100549761Y-62579744D01*
X100519665Y-62605826D01*
X100516660Y-62607679D01*
X100516655Y-62607683D01*
X100392684Y-62731654D01*
X100300643Y-62880875D01*
X100300641Y-62880880D01*
X100245494Y-63047302D01*
X100245493Y-63047309D01*
X100235000Y-63150013D01*
X100235000Y-63287500D01*
X102684999Y-63287500D01*
X102684999Y-63150028D01*
X102684998Y-63150013D01*
X102674505Y-63047302D01*
X102619358Y-62880880D01*
X102619356Y-62880875D01*
X102527315Y-62731654D01*
X102403344Y-62607683D01*
X102403341Y-62607681D01*
X102400339Y-62605829D01*
X102398713Y-62604021D01*
X102397677Y-62603202D01*
X102397817Y-62603024D01*
X102353617Y-62553880D01*
X102342397Y-62484917D01*
X102370243Y-62420836D01*
X102400344Y-62394754D01*
X102403656Y-62392712D01*
X102527712Y-62268656D01*
X102619814Y-62119334D01*
X102674999Y-61952797D01*
X102685500Y-61850009D01*
X102685499Y-61074992D01*
X102684940Y-61069524D01*
X102674999Y-60972203D01*
X102674998Y-60972200D01*
X102668909Y-60953825D01*
X102619814Y-60805666D01*
X102527712Y-60656344D01*
X102496819Y-60625451D01*
X102463334Y-60564128D01*
X102460500Y-60537770D01*
X102460500Y-59858336D01*
X102480185Y-59791297D01*
X102532989Y-59745542D01*
X102602147Y-59735598D01*
X102665703Y-59764623D01*
X102672181Y-59770655D01*
X103855354Y-60953828D01*
X104014595Y-61069524D01*
X104097454Y-61111742D01*
X104189969Y-61158882D01*
X104189971Y-61158882D01*
X104189974Y-61158884D01*
X104290318Y-61191487D01*
X104377173Y-61219709D01*
X104571578Y-61250500D01*
X104571583Y-61250500D01*
X112098422Y-61250500D01*
X112292826Y-61219709D01*
X112480026Y-61158884D01*
X112655405Y-61069524D01*
X112814646Y-60953828D01*
X115731655Y-58036819D01*
X115792978Y-58003334D01*
X115819336Y-58000500D01*
X116088000Y-58000500D01*
X116155039Y-58020185D01*
X116200794Y-58072989D01*
X116212000Y-58124500D01*
X116212000Y-59885134D01*
X116193541Y-59950225D01*
X116191188Y-59954039D01*
X116190185Y-59955667D01*
X116153287Y-60067019D01*
X116135001Y-60122203D01*
X116135001Y-60122204D01*
X116135000Y-60122204D01*
X116124500Y-60224983D01*
X116124500Y-61275001D01*
X116124501Y-61275019D01*
X116135000Y-61377796D01*
X116135001Y-61377799D01*
X116190185Y-61544331D01*
X116190187Y-61544336D01*
X116209362Y-61575424D01*
X116282288Y-61693656D01*
X116406344Y-61817712D01*
X116555666Y-61909814D01*
X116722203Y-61964999D01*
X116824991Y-61975500D01*
X117600008Y-61975499D01*
X117600016Y-61975498D01*
X117600019Y-61975498D01*
X117656302Y-61969748D01*
X117702797Y-61964999D01*
X117869334Y-61909814D01*
X118018656Y-61817712D01*
X118142712Y-61693656D01*
X118144752Y-61690347D01*
X118146745Y-61688555D01*
X118147193Y-61687989D01*
X118147289Y-61688065D01*
X118196694Y-61643623D01*
X118265656Y-61632395D01*
X118329740Y-61660234D01*
X118355829Y-61690339D01*
X118357681Y-61693341D01*
X118357683Y-61693344D01*
X118481654Y-61817315D01*
X118630875Y-61909356D01*
X118630880Y-61909358D01*
X118797302Y-61964505D01*
X118797309Y-61964506D01*
X118900019Y-61974999D01*
X119037499Y-61974999D01*
X119537500Y-61974999D01*
X119674972Y-61974999D01*
X119674986Y-61974998D01*
X119777697Y-61964505D01*
X119944119Y-61909358D01*
X119944124Y-61909356D01*
X120093345Y-61817315D01*
X120217315Y-61693345D01*
X120309356Y-61544124D01*
X120309358Y-61544119D01*
X120364505Y-61377697D01*
X120364506Y-61377690D01*
X120374999Y-61274986D01*
X120375000Y-61274973D01*
X120375000Y-61000000D01*
X119537500Y-61000000D01*
X119537500Y-61974999D01*
X119037499Y-61974999D01*
X119037500Y-61974998D01*
X119037500Y-60500000D01*
X119537500Y-60500000D01*
X120374999Y-60500000D01*
X120374999Y-60225028D01*
X120374998Y-60225013D01*
X120364505Y-60122302D01*
X120309358Y-59955880D01*
X120309356Y-59955875D01*
X120217315Y-59806654D01*
X120093345Y-59682684D01*
X119944124Y-59590643D01*
X119944119Y-59590641D01*
X119777697Y-59535494D01*
X119777690Y-59535493D01*
X119674986Y-59525000D01*
X119537500Y-59525000D01*
X119537500Y-60500000D01*
X119037500Y-60500000D01*
X119037500Y-59525000D01*
X118900027Y-59525000D01*
X118900012Y-59525001D01*
X118797302Y-59535494D01*
X118630880Y-59590641D01*
X118630875Y-59590643D01*
X118481654Y-59682684D01*
X118424681Y-59739658D01*
X118363358Y-59773143D01*
X118293666Y-59768159D01*
X118237733Y-59726287D01*
X118213316Y-59660823D01*
X118213000Y-59651977D01*
X118213000Y-57419073D01*
X118232685Y-57352034D01*
X118285489Y-57306279D01*
X118354647Y-57296335D01*
X118418203Y-57325360D01*
X118448001Y-57363803D01*
X118452870Y-57373582D01*
X118452874Y-57373589D01*
X118584604Y-57548027D01*
X118584605Y-57548028D01*
X118746147Y-57695294D01*
X118746149Y-57695295D01*
X118746150Y-57695296D01*
X118931995Y-57810366D01*
X118932001Y-57810369D01*
X118969157Y-57824763D01*
X119135832Y-57889333D01*
X119350703Y-57929500D01*
X119350705Y-57929500D01*
X119569295Y-57929500D01*
X119569297Y-57929500D01*
X119784168Y-57889333D01*
X119988001Y-57810368D01*
X120173853Y-57695294D01*
X120335395Y-57548028D01*
X120467127Y-57373587D01*
X120564563Y-57177910D01*
X120610734Y-57015636D01*
X120648013Y-56956542D01*
X120711323Y-56926985D01*
X120780562Y-56936347D01*
X120833749Y-56981657D01*
X120849266Y-57015636D01*
X120895435Y-57177905D01*
X120895441Y-57177920D01*
X120992869Y-57373581D01*
X120992874Y-57373589D01*
X121124604Y-57548027D01*
X121124605Y-57548028D01*
X121286147Y-57695294D01*
X121286149Y-57695295D01*
X121286150Y-57695296D01*
X121471995Y-57810366D01*
X121472001Y-57810369D01*
X121509157Y-57824763D01*
X121675832Y-57889333D01*
X121890703Y-57929500D01*
X121890705Y-57929500D01*
X122109295Y-57929500D01*
X122109297Y-57929500D01*
X122324168Y-57889333D01*
X122528001Y-57810368D01*
X122713853Y-57695294D01*
X122875395Y-57548028D01*
X123007127Y-57373587D01*
X123104563Y-57177910D01*
X123164384Y-56967661D01*
X123184553Y-56750000D01*
X123164384Y-56532339D01*
X123104563Y-56322090D01*
X123084795Y-56282391D01*
X123013500Y-56139211D01*
X123000500Y-56083939D01*
X123000500Y-48376757D01*
X123020185Y-48309718D01*
X123064762Y-48268095D01*
X123066761Y-48266995D01*
X123066766Y-48266994D01*
X123342484Y-48115416D01*
X123597030Y-47930478D01*
X123826390Y-47715094D01*
X124026947Y-47472663D01*
X124195537Y-47207007D01*
X124329503Y-46922315D01*
X124426731Y-46623079D01*
X124485688Y-46314015D01*
X124485689Y-46314004D01*
X124505444Y-46000005D01*
X124505444Y-45999994D01*
X124485689Y-45685995D01*
X124485688Y-45685988D01*
X124485688Y-45685985D01*
X124426731Y-45376921D01*
X124329503Y-45077685D01*
X124328100Y-45074704D01*
X124195538Y-44792996D01*
X124195537Y-44792993D01*
X124065062Y-44587397D01*
X124026948Y-44527338D01*
X124026945Y-44527334D01*
X123826393Y-44284909D01*
X123826391Y-44284907D01*
X123597031Y-44069523D01*
X123597021Y-44069515D01*
X123342495Y-43884591D01*
X123342488Y-43884586D01*
X123342484Y-43884584D01*
X123066766Y-43733006D01*
X123066763Y-43733004D01*
X123066758Y-43733002D01*
X123066757Y-43733001D01*
X122774228Y-43617181D01*
X122774225Y-43617180D01*
X122469476Y-43538934D01*
X122469463Y-43538932D01*
X122157329Y-43499500D01*
X122157318Y-43499500D01*
X121842682Y-43499500D01*
X121842670Y-43499500D01*
X121530536Y-43538932D01*
X121530523Y-43538934D01*
X121225774Y-43617180D01*
X121225771Y-43617181D01*
X120933242Y-43733001D01*
X120933241Y-43733002D01*
X120657516Y-43884584D01*
X120657504Y-43884591D01*
X120402978Y-44069515D01*
X120402968Y-44069523D01*
X120173608Y-44284907D01*
X120173606Y-44284909D01*
X119973054Y-44527334D01*
X119973051Y-44527338D01*
X119804464Y-44792990D01*
X119804461Y-44792996D01*
X119670499Y-45077678D01*
X119670497Y-45077683D01*
X119642430Y-45164065D01*
X119602992Y-45221741D01*
X119538634Y-45248939D01*
X119469787Y-45237024D01*
X119418312Y-45189780D01*
X119400499Y-45125747D01*
X119400499Y-44052129D01*
X119400498Y-44052123D01*
X119400497Y-44052116D01*
X119394091Y-43992517D01*
X119353837Y-43884591D01*
X119343797Y-43857671D01*
X119343793Y-43857664D01*
X119257547Y-43742455D01*
X119257544Y-43742452D01*
X119142335Y-43656206D01*
X119142328Y-43656202D01*
X119007482Y-43605908D01*
X119007483Y-43605908D01*
X118947883Y-43599501D01*
X118947881Y-43599500D01*
X118947873Y-43599500D01*
X118947864Y-43599500D01*
X115052129Y-43599500D01*
X115052123Y-43599501D01*
X114992516Y-43605908D01*
X114857671Y-43656202D01*
X114857664Y-43656206D01*
X114742455Y-43742452D01*
X114742452Y-43742455D01*
X114656206Y-43857664D01*
X114656202Y-43857671D01*
X114605908Y-43992517D01*
X114599501Y-44052116D01*
X114599501Y-44052123D01*
X114599500Y-44052135D01*
X114599500Y-47947870D01*
X114599501Y-47947873D01*
X114605908Y-48007483D01*
X114656202Y-48142328D01*
X114656206Y-48142335D01*
X114742452Y-48257544D01*
X114742455Y-48257547D01*
X114857664Y-48343793D01*
X114857671Y-48343797D01*
X114992517Y-48394091D01*
X114992516Y-48394091D01*
X114999444Y-48394835D01*
X115052127Y-48400500D01*
X117934216Y-48400499D01*
X118001255Y-48420184D01*
X118021897Y-48436818D01*
X118423181Y-48838101D01*
X118456666Y-48899424D01*
X118459500Y-48925782D01*
X118459500Y-56083939D01*
X118446500Y-56139211D01*
X118355441Y-56322079D01*
X118355434Y-56322097D01*
X118345632Y-56356547D01*
X118308352Y-56415640D01*
X118245041Y-56445196D01*
X118175802Y-56435832D01*
X118122617Y-56390521D01*
X118108435Y-56360923D01*
X118105565Y-56352090D01*
X118099499Y-56313781D01*
X118099499Y-56023129D01*
X118099498Y-56023123D01*
X118093091Y-55963516D01*
X118042797Y-55828671D01*
X118042793Y-55828664D01*
X117956547Y-55713455D01*
X117956544Y-55713452D01*
X117841335Y-55627206D01*
X117841328Y-55627202D01*
X117706482Y-55576908D01*
X117706483Y-55576908D01*
X117646883Y-55570501D01*
X117646881Y-55570500D01*
X117646873Y-55570500D01*
X117646865Y-55570500D01*
X117356216Y-55570500D01*
X117317898Y-55564431D01*
X117300143Y-55558662D01*
X117212826Y-55530290D01*
X117018422Y-55499500D01*
X117018417Y-55499500D01*
X115348416Y-55499500D01*
X115151583Y-55499500D01*
X115151578Y-55499500D01*
X114957173Y-55530290D01*
X114769969Y-55591117D01*
X114594594Y-55680476D01*
X114503741Y-55746485D01*
X114435354Y-55796172D01*
X114435352Y-55796174D01*
X114435351Y-55796174D01*
X111518345Y-58713181D01*
X111457022Y-58746666D01*
X111430664Y-58749500D01*
X105239336Y-58749500D01*
X105172297Y-58729815D01*
X105151655Y-58713181D01*
X104450185Y-58011711D01*
X104416700Y-57950388D01*
X104421684Y-57880696D01*
X104463556Y-57824763D01*
X104483312Y-57813818D01*
X104482867Y-57812924D01*
X104487987Y-57810373D01*
X104488001Y-57810368D01*
X104673853Y-57695294D01*
X104835395Y-57548028D01*
X104967127Y-57373587D01*
X105064563Y-57177910D01*
X105110734Y-57015636D01*
X105148013Y-56956542D01*
X105211323Y-56926985D01*
X105280562Y-56936347D01*
X105333749Y-56981657D01*
X105349266Y-57015636D01*
X105395435Y-57177905D01*
X105395441Y-57177920D01*
X105492869Y-57373581D01*
X105492874Y-57373589D01*
X105624604Y-57548027D01*
X105624605Y-57548028D01*
X105786147Y-57695294D01*
X105786149Y-57695295D01*
X105786150Y-57695296D01*
X105971995Y-57810366D01*
X105972001Y-57810369D01*
X106009157Y-57824763D01*
X106175832Y-57889333D01*
X106390703Y-57929500D01*
X106390705Y-57929500D01*
X106609295Y-57929500D01*
X106609297Y-57929500D01*
X106824168Y-57889333D01*
X107028001Y-57810368D01*
X107213853Y-57695294D01*
X107375395Y-57548028D01*
X107507127Y-57373587D01*
X107604563Y-57177910D01*
X107664384Y-56967661D01*
X107684553Y-56750000D01*
X107664384Y-56532339D01*
X107604563Y-56322090D01*
X107584795Y-56282391D01*
X107513500Y-56139211D01*
X107500500Y-56083939D01*
X107500500Y-48376757D01*
X107520185Y-48309718D01*
X107564762Y-48268095D01*
X107566761Y-48266995D01*
X107566766Y-48266994D01*
X107842484Y-48115416D01*
X108097030Y-47930478D01*
X108326390Y-47715094D01*
X108526947Y-47472663D01*
X108695537Y-47207007D01*
X108829503Y-46922315D01*
X108926731Y-46623079D01*
X108985688Y-46314015D01*
X108985689Y-46314004D01*
X109005444Y-46000005D01*
X109005444Y-45999994D01*
X108985689Y-45685995D01*
X108985688Y-45685988D01*
X108985688Y-45685985D01*
X108926731Y-45376921D01*
X108829503Y-45077685D01*
X108828100Y-45074704D01*
X108695538Y-44792996D01*
X108695537Y-44792993D01*
X108565062Y-44587397D01*
X108526948Y-44527338D01*
X108526945Y-44527334D01*
X108326393Y-44284909D01*
X108326391Y-44284907D01*
X108097031Y-44069523D01*
X108097021Y-44069515D01*
X107842495Y-43884591D01*
X107842488Y-43884586D01*
X107842484Y-43884584D01*
X107566766Y-43733006D01*
X107566763Y-43733004D01*
X107566758Y-43733002D01*
X107566757Y-43733001D01*
X107274228Y-43617181D01*
X107274225Y-43617180D01*
X106969476Y-43538934D01*
X106969463Y-43538932D01*
X106657329Y-43499500D01*
X106657318Y-43499500D01*
X106342682Y-43499500D01*
X106342670Y-43499500D01*
X106030536Y-43538932D01*
X106030523Y-43538934D01*
X105725774Y-43617180D01*
X105725771Y-43617181D01*
X105433242Y-43733001D01*
X105433241Y-43733002D01*
X105157516Y-43884584D01*
X105157504Y-43884591D01*
X104902978Y-44069515D01*
X104902968Y-44069523D01*
X104673608Y-44284907D01*
X104673606Y-44284909D01*
X104473054Y-44527334D01*
X104473051Y-44527338D01*
X104304464Y-44792990D01*
X104304461Y-44792996D01*
X104170499Y-45077678D01*
X104170497Y-45077683D01*
X104142430Y-45164065D01*
X104102992Y-45221741D01*
X104038634Y-45248939D01*
X103969787Y-45237024D01*
X103918312Y-45189780D01*
X103900499Y-45125747D01*
X103900499Y-44052129D01*
X103900498Y-44052123D01*
X103900497Y-44052116D01*
X103894091Y-43992517D01*
X103853837Y-43884591D01*
X103843797Y-43857671D01*
X103843793Y-43857664D01*
X103757547Y-43742455D01*
X103757544Y-43742452D01*
X103642335Y-43656206D01*
X103642328Y-43656202D01*
X103507482Y-43605908D01*
X103507483Y-43605908D01*
X103447883Y-43599501D01*
X103447881Y-43599500D01*
X103447873Y-43599500D01*
X103447864Y-43599500D01*
X99552129Y-43599500D01*
X99552123Y-43599501D01*
X99492516Y-43605908D01*
X99357671Y-43656202D01*
X99357664Y-43656206D01*
X99242455Y-43742452D01*
X99242452Y-43742455D01*
X99156206Y-43857664D01*
X99156202Y-43857671D01*
X99105908Y-43992517D01*
X99099501Y-44052116D01*
X99099501Y-44052123D01*
X99099500Y-44052135D01*
X99099500Y-47947870D01*
X99099501Y-47947873D01*
X99105908Y-48007483D01*
X99156202Y-48142328D01*
X99156206Y-48142335D01*
X99242452Y-48257544D01*
X99242455Y-48257547D01*
X99357664Y-48343793D01*
X99357671Y-48343797D01*
X99492517Y-48394091D01*
X99492516Y-48394091D01*
X99499444Y-48394835D01*
X99552127Y-48400500D01*
X102434216Y-48400499D01*
X102501255Y-48420184D01*
X102521897Y-48436818D01*
X102923181Y-48838101D01*
X102956666Y-48899424D01*
X102959500Y-48925782D01*
X102959500Y-56083939D01*
X102946500Y-56139210D01*
X102900718Y-56231153D01*
X102853215Y-56282391D01*
X102785553Y-56299812D01*
X102719212Y-56277887D01*
X102702037Y-56263563D01*
X102635818Y-56197344D01*
X102602333Y-56136021D01*
X102599499Y-56109663D01*
X102599499Y-56023129D01*
X102599498Y-56023123D01*
X102593091Y-55963516D01*
X102542797Y-55828671D01*
X102542793Y-55828664D01*
X102456547Y-55713455D01*
X102456544Y-55713452D01*
X102341335Y-55627206D01*
X102341328Y-55627202D01*
X102206482Y-55576908D01*
X102206483Y-55576908D01*
X102146883Y-55570501D01*
X102146881Y-55570500D01*
X102146873Y-55570500D01*
X102146865Y-55570500D01*
X101856217Y-55570500D01*
X101817899Y-55564431D01*
X101712828Y-55530291D01*
X101628665Y-55516961D01*
X101575177Y-55494806D01*
X101536434Y-55466657D01*
X101325996Y-55359433D01*
X101101368Y-55286446D01*
X100868097Y-55249500D01*
X100868092Y-55249500D01*
X100631908Y-55249500D01*
X100631903Y-55249500D01*
X100398631Y-55286446D01*
X100174003Y-55359433D01*
X99963566Y-55466657D01*
X99854550Y-55545862D01*
X99772490Y-55605483D01*
X99772488Y-55605485D01*
X99772487Y-55605485D01*
X97105484Y-58272488D01*
X96966657Y-58463565D01*
X96904350Y-58585851D01*
X96859433Y-58674003D01*
X96786446Y-58898631D01*
X96749500Y-59131902D01*
X96749500Y-61148097D01*
X96786447Y-61381369D01*
X96843431Y-61556749D01*
X96849500Y-61595065D01*
X96849500Y-61662868D01*
X96849501Y-61662877D01*
X96855908Y-61722483D01*
X96906202Y-61857328D01*
X96906206Y-61857335D01*
X96992452Y-61972544D01*
X96992455Y-61972547D01*
X97107664Y-62058793D01*
X97107669Y-62058796D01*
X97160701Y-62078575D01*
X97205049Y-62107076D01*
X97272490Y-62174517D01*
X97463567Y-62313343D01*
X97535774Y-62350134D01*
X97613062Y-62389515D01*
X97663858Y-62437490D01*
X97680653Y-62505311D01*
X97658115Y-62571446D01*
X97613062Y-62610485D01*
X97463566Y-62686657D01*
X97272484Y-62825487D01*
X97272482Y-62825489D01*
X97205047Y-62892923D01*
X97160703Y-62921422D01*
X97107669Y-62941203D01*
X97107663Y-62941207D01*
X96992455Y-63027452D01*
X96992452Y-63027455D01*
X96906206Y-63142664D01*
X96906202Y-63142671D01*
X96855908Y-63277517D01*
X96849501Y-63337116D01*
X96849501Y-63337123D01*
X96849500Y-63337135D01*
X96849500Y-63404935D01*
X96843431Y-63443253D01*
X96786447Y-63618627D01*
X96786447Y-63618630D01*
X96749500Y-63851902D01*
X96749500Y-66131110D01*
X96729815Y-66198149D01*
X96713181Y-66218791D01*
X96383291Y-66548681D01*
X96321968Y-66582166D01*
X96295610Y-66585000D01*
X95584500Y-66585000D01*
X95517461Y-66565315D01*
X95471706Y-66512511D01*
X95460500Y-66461000D01*
X95460500Y-48106386D01*
X95460499Y-48106372D01*
X95439632Y-47947874D01*
X95439632Y-47947873D01*
X95426271Y-47846388D01*
X95426271Y-47846385D01*
X95358398Y-47593081D01*
X95258043Y-47350803D01*
X95184105Y-47222738D01*
X95184105Y-47222737D01*
X95126927Y-47123701D01*
X95126926Y-47123699D01*
X95055251Y-47030291D01*
X95055248Y-47030288D01*
X94967284Y-46915650D01*
X94967278Y-46915643D01*
X93536818Y-45485183D01*
X93503333Y-45423860D01*
X93500499Y-45397502D01*
X93500499Y-45177498D01*
X93500498Y-45177481D01*
X93489999Y-45074703D01*
X93489998Y-45074700D01*
X93434814Y-44908166D01*
X93342712Y-44758844D01*
X93218656Y-44634788D01*
X93069334Y-44542686D01*
X92902797Y-44487501D01*
X92902795Y-44487500D01*
X92800010Y-44477000D01*
X91199998Y-44477000D01*
X91199981Y-44477001D01*
X91097203Y-44487500D01*
X91097200Y-44487501D01*
X90930668Y-44542685D01*
X90930663Y-44542687D01*
X90781342Y-44634789D01*
X90657289Y-44758842D01*
X90565187Y-44908163D01*
X90565186Y-44908166D01*
X90510001Y-45074703D01*
X90510001Y-45074704D01*
X90510000Y-45074704D01*
X90499500Y-45177483D01*
X90499500Y-45404717D01*
X90479815Y-45471756D01*
X90473876Y-45480203D01*
X90333075Y-45663698D01*
X90201958Y-45890799D01*
X90201954Y-45890809D01*
X90101602Y-46133080D01*
X90033728Y-46386387D01*
X89999501Y-46646379D01*
X89999501Y-46908620D01*
X90027815Y-47123699D01*
X90033729Y-47168616D01*
X90048231Y-47222737D01*
X90101602Y-47421919D01*
X90201954Y-47664190D01*
X90201958Y-47664200D01*
X90333075Y-47891301D01*
X90473876Y-48074797D01*
X90499070Y-48139966D01*
X90499500Y-48150282D01*
X90499500Y-48377500D01*
X90499501Y-48377519D01*
X90510000Y-48480296D01*
X90510001Y-48480299D01*
X90534651Y-48554686D01*
X90565186Y-48646834D01*
X90657288Y-48796156D01*
X90781344Y-48920212D01*
X90930666Y-49012314D01*
X91097203Y-49067499D01*
X91199991Y-49078000D01*
X91335500Y-49077999D01*
X91402539Y-49097683D01*
X91448294Y-49150487D01*
X91459500Y-49201999D01*
X91459500Y-66461000D01*
X91439815Y-66528039D01*
X91387011Y-66573794D01*
X91335500Y-66585000D01*
X88078129Y-66585000D01*
X88078123Y-66585001D01*
X88018516Y-66591408D01*
X87883671Y-66641702D01*
X87883669Y-66641704D01*
X87772711Y-66724767D01*
X87707247Y-66749184D01*
X87698400Y-66749500D01*
X85749730Y-66749500D01*
X85682691Y-66729815D01*
X85662049Y-66713181D01*
X85631157Y-66682289D01*
X85631156Y-66682288D01*
X85483817Y-66591409D01*
X85481836Y-66590187D01*
X85481831Y-66590185D01*
X85406778Y-66565315D01*
X85315297Y-66535001D01*
X85315295Y-66535000D01*
X85212510Y-66524500D01*
X84437498Y-66524500D01*
X84437480Y-66524501D01*
X84334703Y-66535000D01*
X84334700Y-66535001D01*
X84168168Y-66590185D01*
X84168163Y-66590187D01*
X84018842Y-66682289D01*
X83894788Y-66806343D01*
X83894783Y-66806349D01*
X83892741Y-66809661D01*
X83890747Y-66811453D01*
X83890307Y-66812011D01*
X83890211Y-66811935D01*
X83840791Y-66856383D01*
X83771828Y-66867602D01*
X83707747Y-66839755D01*
X83681668Y-66809656D01*
X83679819Y-66806659D01*
X83679816Y-66806655D01*
X83555845Y-66682684D01*
X83406624Y-66590643D01*
X83406619Y-66590641D01*
X83240197Y-66535494D01*
X83240190Y-66535493D01*
X83137486Y-66525000D01*
X83000000Y-66525000D01*
X83000000Y-68974999D01*
X83137472Y-68974999D01*
X83137486Y-68974998D01*
X83240197Y-68964505D01*
X83406619Y-68909358D01*
X83406624Y-68909356D01*
X83555845Y-68817315D01*
X83575319Y-68797842D01*
X83636642Y-68764357D01*
X83706334Y-68769341D01*
X83762267Y-68811213D01*
X83786684Y-68876677D01*
X83787000Y-68885523D01*
X83787000Y-70151977D01*
X83767315Y-70219016D01*
X83714511Y-70264771D01*
X83645353Y-70274715D01*
X83581797Y-70245690D01*
X83575319Y-70239658D01*
X83518345Y-70182684D01*
X83369124Y-70090643D01*
X83369119Y-70090641D01*
X83202697Y-70035494D01*
X83202690Y-70035493D01*
X83099986Y-70025000D01*
X82962500Y-70025000D01*
X82962500Y-72474999D01*
X83099972Y-72474999D01*
X83099986Y-72474998D01*
X83202697Y-72464505D01*
X83369119Y-72409358D01*
X83369124Y-72409356D01*
X83518345Y-72317315D01*
X83612819Y-72222842D01*
X83674142Y-72189357D01*
X83743834Y-72194341D01*
X83799767Y-72236213D01*
X83824184Y-72301677D01*
X83824500Y-72310523D01*
X83824500Y-73651270D01*
X83804815Y-73718309D01*
X83752011Y-73764064D01*
X83682853Y-73774008D01*
X83619297Y-73744983D01*
X83612819Y-73738951D01*
X83556157Y-73682289D01*
X83556156Y-73682288D01*
X83406834Y-73590186D01*
X83240297Y-73535001D01*
X83240295Y-73535000D01*
X83137510Y-73524500D01*
X82362498Y-73524500D01*
X82362480Y-73524501D01*
X82259703Y-73535000D01*
X82259700Y-73535001D01*
X82093168Y-73590185D01*
X82093163Y-73590187D01*
X81943842Y-73682289D01*
X81819789Y-73806342D01*
X81727687Y-73955663D01*
X81727685Y-73955668D01*
X81724826Y-73964297D01*
X81672501Y-74122203D01*
X81672501Y-74122204D01*
X81672500Y-74122204D01*
X81662000Y-74224983D01*
X81662000Y-75275001D01*
X81662001Y-75275019D01*
X81672500Y-75377796D01*
X81672501Y-75377799D01*
X81711577Y-75495721D01*
X81727686Y-75544334D01*
X81819788Y-75693656D01*
X81943844Y-75817712D01*
X82093166Y-75909814D01*
X82259703Y-75964999D01*
X82362491Y-75975500D01*
X83074901Y-75975499D01*
X83141940Y-75995183D01*
X83162582Y-76011818D01*
X89131284Y-81980520D01*
X89131286Y-81980521D01*
X89131290Y-81980524D01*
X89170903Y-82003394D01*
X89268216Y-82059577D01*
X89341274Y-82079153D01*
X89400932Y-82115517D01*
X89431461Y-82178365D01*
X89428953Y-82231020D01*
X89399499Y-82340943D01*
X89399499Y-82509046D01*
X89399500Y-82509059D01*
X89399500Y-86819699D01*
X89379815Y-86886738D01*
X89327011Y-86932493D01*
X89314507Y-86937403D01*
X89281962Y-86948188D01*
X89230668Y-86965185D01*
X89230663Y-86965187D01*
X89081342Y-87057289D01*
X88957289Y-87181342D01*
X88865187Y-87330663D01*
X88865185Y-87330668D01*
X88865115Y-87330880D01*
X88810001Y-87497203D01*
X88810001Y-87497204D01*
X88810000Y-87497204D01*
X88799500Y-87599983D01*
X88799500Y-88400001D01*
X88799501Y-88400019D01*
X88810000Y-88502796D01*
X88810001Y-88502799D01*
X88865115Y-88669119D01*
X88865186Y-88669334D01*
X88957096Y-88818345D01*
X88957289Y-88818657D01*
X89050951Y-88912319D01*
X89084436Y-88973642D01*
X89079452Y-89043334D01*
X89050951Y-89087681D01*
X88957289Y-89181342D01*
X88865187Y-89330663D01*
X88865185Y-89330668D01*
X88842377Y-89399500D01*
X88810001Y-89497203D01*
X88810001Y-89497204D01*
X88810000Y-89497204D01*
X88799500Y-89599983D01*
X88799500Y-90400001D01*
X88799501Y-90400019D01*
X88810000Y-90502796D01*
X88810001Y-90502799D01*
X88855130Y-90638987D01*
X88865186Y-90669334D01*
X88957288Y-90818656D01*
X89081344Y-90942712D01*
X89230666Y-91034814D01*
X89397203Y-91089999D01*
X89499991Y-91100500D01*
X89999902Y-91100499D01*
X90066941Y-91120183D01*
X90087583Y-91136818D01*
X93764431Y-94813666D01*
X93797916Y-94874989D01*
X93792932Y-94944680D01*
X93756403Y-95042619D01*
X93756401Y-95042627D01*
X93750000Y-95102155D01*
X93750000Y-95200000D01*
X96007893Y-95200000D01*
X96074932Y-95219685D01*
X96082204Y-95224733D01*
X96107668Y-95243795D01*
X96107671Y-95243797D01*
X96242517Y-95294091D01*
X96242516Y-95294091D01*
X96249444Y-95294835D01*
X96302127Y-95300500D01*
X97697872Y-95300499D01*
X97757483Y-95294091D01*
X97892331Y-95243796D01*
X98007546Y-95157546D01*
X98093796Y-95042331D01*
X98144091Y-94907483D01*
X98150500Y-94847873D01*
X98150499Y-94152128D01*
X98144091Y-94092517D01*
X98109584Y-94000000D01*
X98093797Y-93957671D01*
X98093793Y-93957664D01*
X98007547Y-93842455D01*
X98007544Y-93842452D01*
X97892335Y-93756206D01*
X97892328Y-93756202D01*
X97757482Y-93705908D01*
X97757483Y-93705908D01*
X97697883Y-93699501D01*
X97697881Y-93699500D01*
X97697873Y-93699500D01*
X97697864Y-93699500D01*
X96302129Y-93699500D01*
X96302123Y-93699501D01*
X96242517Y-93705908D01*
X96217830Y-93715116D01*
X96148138Y-93720099D01*
X96086816Y-93686612D01*
X96053332Y-93625288D01*
X96050499Y-93598933D01*
X96050499Y-93300097D01*
X96070184Y-93233058D01*
X96086818Y-93212416D01*
X96586053Y-92713181D01*
X97358506Y-91940728D01*
X97358511Y-91940724D01*
X97368714Y-91930520D01*
X97368716Y-91930520D01*
X97480520Y-91818716D01*
X97559577Y-91681784D01*
X97600500Y-91529057D01*
X97600500Y-91180300D01*
X97620185Y-91113261D01*
X97672989Y-91067506D01*
X97685482Y-91062599D01*
X97769334Y-91034814D01*
X97918656Y-90942712D01*
X98042712Y-90818656D01*
X98134814Y-90669334D01*
X98134815Y-90669331D01*
X98138605Y-90663187D01*
X98140399Y-90664293D01*
X98179687Y-90619663D01*
X98245908Y-90600500D01*
X99254092Y-90600500D01*
X99321131Y-90620185D01*
X99359636Y-90664271D01*
X99361395Y-90663187D01*
X99365185Y-90669331D01*
X99365186Y-90669334D01*
X99457288Y-90818656D01*
X99581344Y-90942712D01*
X99730666Y-91034814D01*
X99897203Y-91089999D01*
X99999991Y-91100500D01*
X101000008Y-91100499D01*
X101000016Y-91100498D01*
X101000019Y-91100498D01*
X101056302Y-91094748D01*
X101102797Y-91089999D01*
X101269334Y-91034814D01*
X101418656Y-90942712D01*
X101542712Y-90818656D01*
X101634814Y-90669334D01*
X101657795Y-90599981D01*
X101697566Y-90542538D01*
X101762082Y-90515715D01*
X101830858Y-90528030D01*
X101882058Y-90575573D01*
X101899500Y-90638987D01*
X101899500Y-93913330D01*
X101899499Y-93913348D01*
X101899499Y-94079054D01*
X101899498Y-94079054D01*
X101940424Y-94231789D01*
X101940425Y-94231790D01*
X101961455Y-94268214D01*
X101961456Y-94268216D01*
X102019475Y-94368709D01*
X102019481Y-94368717D01*
X102138349Y-94487585D01*
X102138355Y-94487590D01*
X104688584Y-97037819D01*
X104722069Y-97099142D01*
X104717085Y-97168834D01*
X104675213Y-97224767D01*
X104609749Y-97249184D01*
X104600903Y-97249500D01*
X80124500Y-97249500D01*
X80057461Y-97229815D01*
X80011706Y-97177011D01*
X80000500Y-97125500D01*
X80000500Y-95797844D01*
X93750000Y-95797844D01*
X93756401Y-95857372D01*
X93756403Y-95857379D01*
X93806645Y-95992086D01*
X93806649Y-95992093D01*
X93892809Y-96107187D01*
X93892812Y-96107190D01*
X94007906Y-96193350D01*
X94007913Y-96193354D01*
X94142620Y-96243596D01*
X94142627Y-96243598D01*
X94202155Y-96249999D01*
X94202172Y-96250000D01*
X94650000Y-96250000D01*
X95150000Y-96250000D01*
X95597828Y-96250000D01*
X95597844Y-96249999D01*
X95657372Y-96243598D01*
X95657379Y-96243596D01*
X95792086Y-96193354D01*
X95792093Y-96193350D01*
X95907187Y-96107190D01*
X95907190Y-96107187D01*
X95993350Y-95992093D01*
X95993354Y-95992086D01*
X96043596Y-95857379D01*
X96043598Y-95857372D01*
X96049999Y-95797844D01*
X96050000Y-95797827D01*
X96050000Y-95700000D01*
X95150000Y-95700000D01*
X95150000Y-96250000D01*
X94650000Y-96250000D01*
X94650000Y-95700000D01*
X93750000Y-95700000D01*
X93750000Y-95797844D01*
X80000500Y-95797844D01*
X80000500Y-71774986D01*
X81625001Y-71774986D01*
X81635494Y-71877697D01*
X81690641Y-72044119D01*
X81690643Y-72044124D01*
X81782684Y-72193345D01*
X81906654Y-72317315D01*
X82055875Y-72409356D01*
X82055880Y-72409358D01*
X82222302Y-72464505D01*
X82222309Y-72464506D01*
X82325019Y-72474999D01*
X82462499Y-72474999D01*
X82462500Y-72474998D01*
X82462500Y-71500000D01*
X81625001Y-71500000D01*
X81625001Y-71774986D01*
X80000500Y-71774986D01*
X80000500Y-70725013D01*
X81625000Y-70725013D01*
X81625000Y-71000000D01*
X82462500Y-71000000D01*
X82462500Y-70025000D01*
X82325027Y-70025000D01*
X82325012Y-70025001D01*
X82222302Y-70035494D01*
X82055880Y-70090641D01*
X82055875Y-70090643D01*
X81906654Y-70182684D01*
X81782684Y-70306654D01*
X81690643Y-70455875D01*
X81690641Y-70455880D01*
X81635494Y-70622302D01*
X81635493Y-70622309D01*
X81625000Y-70725013D01*
X80000500Y-70725013D01*
X80000500Y-68274986D01*
X81662501Y-68274986D01*
X81672994Y-68377697D01*
X81728141Y-68544119D01*
X81728143Y-68544124D01*
X81820184Y-68693345D01*
X81944154Y-68817315D01*
X82093375Y-68909356D01*
X82093380Y-68909358D01*
X82259802Y-68964505D01*
X82259809Y-68964506D01*
X82362519Y-68974999D01*
X82499999Y-68974999D01*
X82500000Y-68974998D01*
X82500000Y-68000000D01*
X81662501Y-68000000D01*
X81662501Y-68274986D01*
X80000500Y-68274986D01*
X80000500Y-67225013D01*
X81662500Y-67225013D01*
X81662500Y-67500000D01*
X82500000Y-67500000D01*
X82500000Y-66525000D01*
X82362527Y-66525000D01*
X82362512Y-66525001D01*
X82259802Y-66535494D01*
X82093380Y-66590641D01*
X82093375Y-66590643D01*
X81944154Y-66682684D01*
X81820184Y-66806654D01*
X81728143Y-66955875D01*
X81728141Y-66955880D01*
X81672994Y-67122302D01*
X81672993Y-67122309D01*
X81662500Y-67225013D01*
X80000500Y-67225013D01*
X80000500Y-55750000D01*
X82244696Y-55750000D01*
X82263898Y-56116404D01*
X82321295Y-56478794D01*
X82338621Y-56543457D01*
X82416260Y-56833206D01*
X82547746Y-57175739D01*
X82714320Y-57502656D01*
X82914147Y-57810364D01*
X83077195Y-58011711D01*
X83145051Y-58095506D01*
X83404494Y-58354949D01*
X83538625Y-58463566D01*
X83689635Y-58585852D01*
X83911320Y-58729815D01*
X83997348Y-58785682D01*
X84324264Y-58952255D01*
X84666801Y-59083742D01*
X85021206Y-59178705D01*
X85383596Y-59236102D01*
X85729734Y-59254241D01*
X85749999Y-59255304D01*
X85750000Y-59255304D01*
X85750001Y-59255304D01*
X85769203Y-59254297D01*
X86116404Y-59236102D01*
X86478794Y-59178705D01*
X86833199Y-59083742D01*
X87175736Y-58952255D01*
X87502652Y-58785682D01*
X87810366Y-58585851D01*
X88095506Y-58354949D01*
X88354949Y-58095506D01*
X88585851Y-57810366D01*
X88785682Y-57502652D01*
X88952255Y-57175736D01*
X89083742Y-56833199D01*
X89178705Y-56478794D01*
X89236102Y-56116404D01*
X89255304Y-55750000D01*
X89236102Y-55383596D01*
X89178705Y-55021206D01*
X89083742Y-54666801D01*
X88952255Y-54324264D01*
X88785682Y-53997348D01*
X88585851Y-53689634D01*
X88354949Y-53404494D01*
X88095506Y-53145051D01*
X87810366Y-52914149D01*
X87810364Y-52914147D01*
X87502656Y-52714320D01*
X87175739Y-52547746D01*
X86833206Y-52416260D01*
X86833199Y-52416258D01*
X86478794Y-52321295D01*
X86478790Y-52321294D01*
X86478789Y-52321294D01*
X86116405Y-52263898D01*
X85750001Y-52244696D01*
X85749999Y-52244696D01*
X85383594Y-52263898D01*
X85021211Y-52321294D01*
X85021209Y-52321294D01*
X84666793Y-52416260D01*
X84324260Y-52547746D01*
X83997343Y-52714320D01*
X83689635Y-52914147D01*
X83404498Y-53145047D01*
X83404490Y-53145054D01*
X83145054Y-53404490D01*
X83145047Y-53404498D01*
X82914147Y-53689635D01*
X82714320Y-53997343D01*
X82547746Y-54324260D01*
X82416260Y-54666793D01*
X82321294Y-55021209D01*
X82321294Y-55021211D01*
X82263898Y-55383594D01*
X82246611Y-55713452D01*
X82244696Y-55750000D01*
X80000500Y-55750000D01*
X80000500Y-45859447D01*
X85500000Y-45859447D01*
X85500000Y-46527500D01*
X86345879Y-46527500D01*
X86326901Y-46573318D01*
X86300000Y-46708556D01*
X86300000Y-46846444D01*
X86326901Y-46981682D01*
X86345879Y-47027500D01*
X85500000Y-47027500D01*
X85500000Y-47695552D01*
X85536934Y-47928747D01*
X85609897Y-48153302D01*
X85717085Y-48363671D01*
X85855866Y-48554686D01*
X86022813Y-48721633D01*
X86213828Y-48860414D01*
X86424195Y-48967602D01*
X86648744Y-49040563D01*
X86648750Y-49040565D01*
X86750000Y-49056601D01*
X86750000Y-47431620D01*
X86795818Y-47450599D01*
X86931056Y-47477500D01*
X87068944Y-47477500D01*
X87204182Y-47450599D01*
X87250000Y-47431620D01*
X87250000Y-49056600D01*
X87351249Y-49040565D01*
X87351255Y-49040563D01*
X87575804Y-48967602D01*
X87786171Y-48860414D01*
X87977186Y-48721633D01*
X88144133Y-48554686D01*
X88282914Y-48363671D01*
X88390102Y-48153302D01*
X88463065Y-47928747D01*
X88500000Y-47695552D01*
X88500000Y-47027500D01*
X87654121Y-47027500D01*
X87673099Y-46981682D01*
X87700000Y-46846444D01*
X87700000Y-46708556D01*
X87673099Y-46573318D01*
X87654121Y-46527500D01*
X88500000Y-46527500D01*
X88500000Y-45859447D01*
X88463065Y-45626252D01*
X88390102Y-45401697D01*
X88282914Y-45191328D01*
X88144133Y-45000313D01*
X87977186Y-44833366D01*
X87786171Y-44694585D01*
X87575802Y-44587397D01*
X87351247Y-44514434D01*
X87250000Y-44498397D01*
X87250000Y-46123379D01*
X87204182Y-46104401D01*
X87068944Y-46077500D01*
X86931056Y-46077500D01*
X86795818Y-46104401D01*
X86750000Y-46123379D01*
X86750000Y-44498397D01*
X86648752Y-44514434D01*
X86424197Y-44587397D01*
X86213828Y-44694585D01*
X86022813Y-44833366D01*
X85855866Y-45000313D01*
X85717085Y-45191328D01*
X85609897Y-45401697D01*
X85536934Y-45626252D01*
X85500000Y-45859447D01*
X80000500Y-45859447D01*
X80000500Y-42374500D01*
X80020185Y-42307461D01*
X80072989Y-42261706D01*
X80124500Y-42250500D01*
X127875500Y-42250500D01*
X127942539Y-42270185D01*
G37*
%TD.AperFunction*%
%TA.AperFunction,Conductor*%
G36*
X118266334Y-75500705D02*
G01*
X118322267Y-75542577D01*
X118346684Y-75608041D01*
X118347000Y-75616887D01*
X118347000Y-77342870D01*
X118347001Y-77342876D01*
X118353408Y-77402483D01*
X118403702Y-77537328D01*
X118403706Y-77537335D01*
X118489952Y-77652544D01*
X118489955Y-77652547D01*
X118605164Y-77738793D01*
X118605171Y-77738797D01*
X118740017Y-77789091D01*
X118740016Y-77789091D01*
X118746944Y-77789835D01*
X118799627Y-77795500D01*
X121294902Y-77795499D01*
X121361941Y-77815184D01*
X121382583Y-77831818D01*
X126563181Y-83012416D01*
X126596666Y-83073739D01*
X126599500Y-83100097D01*
X126599500Y-83596751D01*
X126579815Y-83663790D01*
X126527011Y-83709545D01*
X126457853Y-83719489D01*
X126394297Y-83690464D01*
X126365015Y-83653046D01*
X126285679Y-83497343D01*
X126085852Y-83189635D01*
X125854952Y-82904498D01*
X125854949Y-82904494D01*
X125595506Y-82645051D01*
X125509314Y-82575254D01*
X125310364Y-82414147D01*
X125002656Y-82214320D01*
X124675739Y-82047746D01*
X124333206Y-81916260D01*
X124333199Y-81916258D01*
X123978794Y-81821295D01*
X123978790Y-81821294D01*
X123978789Y-81821294D01*
X123616405Y-81763898D01*
X123250001Y-81744696D01*
X123249999Y-81744696D01*
X122883594Y-81763898D01*
X122521211Y-81821294D01*
X122521209Y-81821294D01*
X122166793Y-81916260D01*
X121824260Y-82047746D01*
X121497343Y-82214320D01*
X121189635Y-82414147D01*
X120904498Y-82645047D01*
X120904490Y-82645054D01*
X120645054Y-82904490D01*
X120645047Y-82904498D01*
X120414147Y-83189635D01*
X120214320Y-83497343D01*
X120047746Y-83824260D01*
X119916260Y-84166793D01*
X119821294Y-84521209D01*
X119821294Y-84521211D01*
X119763898Y-84883594D01*
X119744696Y-85249999D01*
X119744696Y-85250000D01*
X119763898Y-85616404D01*
X119821294Y-85978788D01*
X119821294Y-85978790D01*
X119916260Y-86333206D01*
X120047746Y-86675739D01*
X120214320Y-87002656D01*
X120414147Y-87310364D01*
X120618736Y-87563010D01*
X120645051Y-87595506D01*
X120904494Y-87854949D01*
X120904498Y-87854952D01*
X121189635Y-88085852D01*
X121200408Y-88092848D01*
X121497348Y-88285682D01*
X121824264Y-88452255D01*
X122166801Y-88583742D01*
X122521206Y-88678705D01*
X122883596Y-88736102D01*
X123229734Y-88754241D01*
X123249999Y-88755304D01*
X123250000Y-88755304D01*
X123250001Y-88755304D01*
X123269203Y-88754297D01*
X123616404Y-88736102D01*
X123978794Y-88678705D01*
X124333199Y-88583742D01*
X124675736Y-88452255D01*
X125002652Y-88285682D01*
X125310366Y-88085851D01*
X125595506Y-87854949D01*
X125854949Y-87595506D01*
X126085851Y-87310366D01*
X126285682Y-87002652D01*
X126365015Y-86846952D01*
X126412990Y-86796157D01*
X126480811Y-86779362D01*
X126546946Y-86801899D01*
X126590397Y-86856615D01*
X126599500Y-86903248D01*
X126599500Y-91399903D01*
X126579815Y-91466942D01*
X126563181Y-91487584D01*
X121887584Y-96163181D01*
X121826261Y-96196666D01*
X121799903Y-96199500D01*
X105600097Y-96199500D01*
X105533058Y-96179815D01*
X105512416Y-96163181D01*
X103136819Y-93787584D01*
X103103334Y-93726261D01*
X103100500Y-93699903D01*
X103100500Y-89920945D01*
X103100500Y-89920943D01*
X103076476Y-89831284D01*
X103059577Y-89768215D01*
X103014208Y-89689634D01*
X102980520Y-89631284D01*
X102868716Y-89519480D01*
X102868715Y-89519479D01*
X102864385Y-89515149D01*
X102864374Y-89515139D01*
X101736818Y-88387583D01*
X101703333Y-88326260D01*
X101700499Y-88299902D01*
X101700499Y-87599998D01*
X101700498Y-87599981D01*
X101689999Y-87497203D01*
X101689998Y-87497200D01*
X101634814Y-87330666D01*
X101542712Y-87181344D01*
X101418656Y-87057288D01*
X101269334Y-86965186D01*
X101102797Y-86910001D01*
X101102795Y-86910000D01*
X101000010Y-86899500D01*
X99999998Y-86899500D01*
X99999980Y-86899501D01*
X99897203Y-86910000D01*
X99897200Y-86910001D01*
X99730668Y-86965185D01*
X99730663Y-86965187D01*
X99581342Y-87057289D01*
X99457289Y-87181342D01*
X99365187Y-87330663D01*
X99365185Y-87330668D01*
X99365115Y-87330880D01*
X99310001Y-87497203D01*
X99310001Y-87497204D01*
X99310000Y-87497204D01*
X99299500Y-87599983D01*
X99299500Y-88400001D01*
X99299501Y-88400019D01*
X99310000Y-88502796D01*
X99310001Y-88502799D01*
X99365115Y-88669119D01*
X99365186Y-88669334D01*
X99457096Y-88818345D01*
X99457289Y-88818657D01*
X99550951Y-88912319D01*
X99584436Y-88973642D01*
X99579452Y-89043334D01*
X99550951Y-89087681D01*
X99457289Y-89181342D01*
X99361395Y-89336813D01*
X99359600Y-89335706D01*
X99320313Y-89380337D01*
X99254092Y-89399500D01*
X98245908Y-89399500D01*
X98178869Y-89379815D01*
X98140363Y-89335728D01*
X98138605Y-89336813D01*
X98123171Y-89311790D01*
X98042712Y-89181344D01*
X97948695Y-89087327D01*
X97915210Y-89026004D01*
X97920194Y-88956312D01*
X97948695Y-88911964D01*
X98042317Y-88818342D01*
X98134356Y-88669124D01*
X98134358Y-88669119D01*
X98189505Y-88502697D01*
X98189506Y-88502690D01*
X98199999Y-88399986D01*
X98200000Y-88399973D01*
X98200000Y-88250000D01*
X95800001Y-88250000D01*
X95800001Y-88399986D01*
X95810494Y-88502697D01*
X95865641Y-88669119D01*
X95865643Y-88669124D01*
X95957684Y-88818345D01*
X96051304Y-88911965D01*
X96084789Y-88973288D01*
X96079805Y-89042980D01*
X96051305Y-89087327D01*
X95957287Y-89181345D01*
X95865187Y-89330663D01*
X95865185Y-89330668D01*
X95842377Y-89399500D01*
X95810001Y-89497203D01*
X95810001Y-89497204D01*
X95810000Y-89497204D01*
X95799500Y-89599983D01*
X95799500Y-90400001D01*
X95799501Y-90400019D01*
X95810000Y-90502796D01*
X95810001Y-90502799D01*
X95855130Y-90638987D01*
X95865186Y-90669334D01*
X95957288Y-90818656D01*
X96081344Y-90942712D01*
X96230666Y-91034814D01*
X96291672Y-91055029D01*
X96349115Y-91094800D01*
X96375939Y-91159315D01*
X96363624Y-91228091D01*
X96340348Y-91260415D01*
X94887582Y-92713181D01*
X94826259Y-92746666D01*
X94799901Y-92749500D01*
X94202129Y-92749500D01*
X94202123Y-92749501D01*
X94142516Y-92755908D01*
X94007671Y-92806202D01*
X94007664Y-92806206D01*
X93892456Y-92892452D01*
X93892455Y-92892453D01*
X93892454Y-92892454D01*
X93828044Y-92978494D01*
X93772112Y-93020364D01*
X93702420Y-93025348D01*
X93641098Y-92991863D01*
X91228145Y-90578910D01*
X91194660Y-90517587D01*
X91192468Y-90478626D01*
X91200499Y-90400015D01*
X91200500Y-90400009D01*
X91200499Y-90349095D01*
X91220182Y-90282058D01*
X91272985Y-90236303D01*
X91342144Y-90226358D01*
X91405700Y-90255382D01*
X91412180Y-90261415D01*
X91515139Y-90364374D01*
X91515149Y-90364385D01*
X91519479Y-90368715D01*
X91519480Y-90368716D01*
X91631284Y-90480520D01*
X91692245Y-90515715D01*
X91718095Y-90530639D01*
X91718097Y-90530641D01*
X91756151Y-90552611D01*
X91768215Y-90559577D01*
X91920943Y-90600500D01*
X92254092Y-90600500D01*
X92321131Y-90620185D01*
X92359636Y-90664271D01*
X92361395Y-90663187D01*
X92365185Y-90669331D01*
X92365186Y-90669334D01*
X92457288Y-90818656D01*
X92581344Y-90942712D01*
X92730666Y-91034814D01*
X92897203Y-91089999D01*
X92999991Y-91100500D01*
X94000008Y-91100499D01*
X94000016Y-91100498D01*
X94000019Y-91100498D01*
X94056302Y-91094748D01*
X94102797Y-91089999D01*
X94269334Y-91034814D01*
X94418656Y-90942712D01*
X94542712Y-90818656D01*
X94634814Y-90669334D01*
X94689999Y-90502797D01*
X94700500Y-90400009D01*
X94700499Y-89599992D01*
X94689999Y-89497203D01*
X94634814Y-89330666D01*
X94542712Y-89181344D01*
X94449049Y-89087681D01*
X94415564Y-89026358D01*
X94420548Y-88956666D01*
X94449049Y-88912319D01*
X94461868Y-88899500D01*
X94542712Y-88818656D01*
X94634814Y-88669334D01*
X94689999Y-88502797D01*
X94700500Y-88400009D01*
X94700499Y-87600013D01*
X95800000Y-87600013D01*
X95800000Y-87750000D01*
X96750000Y-87750000D01*
X97250000Y-87750000D01*
X98199999Y-87750000D01*
X98199999Y-87600028D01*
X98199998Y-87600013D01*
X98189505Y-87497302D01*
X98134358Y-87330880D01*
X98134356Y-87330875D01*
X98042315Y-87181654D01*
X97918345Y-87057684D01*
X97769124Y-86965643D01*
X97769119Y-86965641D01*
X97602697Y-86910494D01*
X97602690Y-86910493D01*
X97499986Y-86900000D01*
X97250000Y-86900000D01*
X97250000Y-87750000D01*
X96750000Y-87750000D01*
X96750000Y-86900000D01*
X96500029Y-86900000D01*
X96500012Y-86900001D01*
X96397302Y-86910494D01*
X96230880Y-86965641D01*
X96230875Y-86965643D01*
X96081654Y-87057684D01*
X95957684Y-87181654D01*
X95865643Y-87330875D01*
X95865641Y-87330880D01*
X95810494Y-87497302D01*
X95810493Y-87497309D01*
X95800000Y-87600013D01*
X94700499Y-87600013D01*
X94700499Y-87599992D01*
X94689999Y-87497203D01*
X94634814Y-87330666D01*
X94542712Y-87181344D01*
X94418656Y-87057288D01*
X94269334Y-86965186D01*
X94185495Y-86937404D01*
X94128051Y-86897632D01*
X94101228Y-86833116D01*
X94100500Y-86819699D01*
X94100500Y-84300096D01*
X94120185Y-84233057D01*
X94136810Y-84212424D01*
X94275376Y-84073858D01*
X94336694Y-84040376D01*
X94406386Y-84045360D01*
X94429021Y-84056546D01*
X94546314Y-84130246D01*
X94849949Y-84276469D01*
X95088848Y-84360063D01*
X95168034Y-84387772D01*
X95168046Y-84387776D01*
X95496606Y-84462767D01*
X95831492Y-84500499D01*
X95831493Y-84500500D01*
X95831496Y-84500500D01*
X101505790Y-84500500D01*
X101572829Y-84520185D01*
X101593471Y-84536819D01*
X105113181Y-88056529D01*
X105146666Y-88117852D01*
X105149500Y-88144210D01*
X105149500Y-89906441D01*
X105129815Y-89973480D01*
X105129496Y-89973975D01*
X105114318Y-89997346D01*
X104947746Y-90324260D01*
X104816260Y-90666793D01*
X104721294Y-91021209D01*
X104721294Y-91021211D01*
X104663898Y-91383594D01*
X104651459Y-91620943D01*
X104644696Y-91750000D01*
X104663898Y-92116404D01*
X104721295Y-92478794D01*
X104793071Y-92746666D01*
X104816260Y-92833206D01*
X104947746Y-93175739D01*
X105114320Y-93502656D01*
X105314147Y-93810364D01*
X105467712Y-94000000D01*
X105545051Y-94095506D01*
X105804494Y-94354949D01*
X105804498Y-94354952D01*
X106089635Y-94585852D01*
X106397343Y-94785679D01*
X106397348Y-94785682D01*
X106724264Y-94952255D01*
X107066801Y-95083742D01*
X107421206Y-95178705D01*
X107783596Y-95236102D01*
X108129734Y-95254241D01*
X108149999Y-95255304D01*
X108150000Y-95255304D01*
X108150001Y-95255304D01*
X108169203Y-95254297D01*
X108516404Y-95236102D01*
X108878794Y-95178705D01*
X109233199Y-95083742D01*
X109575736Y-94952255D01*
X109902652Y-94785682D01*
X110210366Y-94585851D01*
X110495506Y-94354949D01*
X110754949Y-94095506D01*
X110985851Y-93810366D01*
X111185682Y-93502652D01*
X111352255Y-93175736D01*
X111483742Y-92833199D01*
X111578705Y-92478794D01*
X111603527Y-92322073D01*
X111633456Y-92258939D01*
X111692768Y-92222008D01*
X111762630Y-92223006D01*
X111820863Y-92261616D01*
X111848977Y-92325579D01*
X111850000Y-92341472D01*
X111850000Y-93321436D01*
X111865300Y-93535362D01*
X111926109Y-93814895D01*
X112026091Y-94082958D01*
X112163191Y-94334038D01*
X112163192Y-94334039D01*
X112334639Y-94563065D01*
X112334649Y-94563077D01*
X112536922Y-94765350D01*
X112536934Y-94765360D01*
X112765960Y-94936807D01*
X112765961Y-94936808D01*
X113017042Y-95073908D01*
X113017041Y-95073908D01*
X113285104Y-95173890D01*
X113564637Y-95234699D01*
X113778563Y-95249999D01*
X113778566Y-95250000D01*
X115100000Y-95250000D01*
X115100000Y-93986502D01*
X115202527Y-94000000D01*
X115497473Y-94000000D01*
X115600000Y-93986502D01*
X115600000Y-95250000D01*
X116921434Y-95250000D01*
X116921436Y-95249999D01*
X117135362Y-95234699D01*
X117414895Y-95173890D01*
X117682958Y-95073908D01*
X117934038Y-94936808D01*
X117934039Y-94936807D01*
X118163065Y-94765360D01*
X118163077Y-94765350D01*
X118365350Y-94563077D01*
X118365360Y-94563065D01*
X118536807Y-94334039D01*
X118536808Y-94334038D01*
X118673908Y-94082958D01*
X118773890Y-93814895D01*
X118834699Y-93535362D01*
X118849999Y-93321436D01*
X118850000Y-93321434D01*
X118850000Y-92000000D01*
X117586502Y-92000000D01*
X117600000Y-91897473D01*
X117600000Y-91602527D01*
X117586502Y-91500000D01*
X118850000Y-91500000D01*
X118850000Y-90178566D01*
X118849999Y-90178563D01*
X118834699Y-89964637D01*
X118773890Y-89685104D01*
X118673908Y-89417041D01*
X118536808Y-89165961D01*
X118536807Y-89165960D01*
X118365360Y-88936934D01*
X118365350Y-88936922D01*
X118163077Y-88734649D01*
X118163065Y-88734639D01*
X117934039Y-88563192D01*
X117934038Y-88563191D01*
X117682957Y-88426091D01*
X117682958Y-88426091D01*
X117414895Y-88326109D01*
X117135362Y-88265300D01*
X116921436Y-88250000D01*
X115600000Y-88250000D01*
X115600000Y-89513497D01*
X115497473Y-89500000D01*
X115202527Y-89500000D01*
X115100000Y-89513497D01*
X115100000Y-88250000D01*
X113778563Y-88250000D01*
X113564637Y-88265300D01*
X113285104Y-88326109D01*
X113017041Y-88426091D01*
X112765961Y-88563191D01*
X112765960Y-88563192D01*
X112536934Y-88734639D01*
X112536922Y-88734649D01*
X112334649Y-88936922D01*
X112334639Y-88936934D01*
X112163192Y-89165960D01*
X112163191Y-89165961D01*
X112026091Y-89417041D01*
X111926109Y-89685104D01*
X111865300Y-89964637D01*
X111850000Y-90178563D01*
X111850000Y-91158527D01*
X111830315Y-91225566D01*
X111777511Y-91271321D01*
X111708353Y-91281265D01*
X111644797Y-91252240D01*
X111607023Y-91193462D01*
X111603527Y-91177925D01*
X111591264Y-91100500D01*
X111578705Y-91021206D01*
X111483742Y-90666801D01*
X111352255Y-90324264D01*
X111185682Y-89997348D01*
X111170504Y-89973975D01*
X111150501Y-89907030D01*
X111150500Y-89906441D01*
X111150500Y-86681493D01*
X111150499Y-86681491D01*
X111112768Y-86346618D01*
X111112767Y-86346606D01*
X111037776Y-86018046D01*
X110926469Y-85699949D01*
X110886236Y-85616404D01*
X110780250Y-85396320D01*
X110780247Y-85396315D01*
X110600946Y-85110961D01*
X110390825Y-84847477D01*
X109691618Y-84148270D01*
X109658133Y-84086947D01*
X109663117Y-84017255D01*
X109691618Y-83972908D01*
X113903565Y-79760961D01*
X118135321Y-75529204D01*
X118196642Y-75495721D01*
X118266334Y-75500705D01*
G37*
%TD.AperFunction*%
%TD*%
M02*
