%TF.GenerationSoftware,KiCad,Pcbnew,8.0.2*%
%TF.CreationDate,2024-10-02T19:35:02-04:00*%
%TF.ProjectId,FewawiPowerBoard,46657761-7769-4506-9f77-6572426f6172,rev?*%
%TF.SameCoordinates,Original*%
%TF.FileFunction,Soldermask,Top*%
%TF.FilePolarity,Negative*%
%FSLAX46Y46*%
G04 Gerber Fmt 4.6, Leading zero omitted, Abs format (unit mm)*
G04 Created by KiCad (PCBNEW 8.0.2) date 2024-10-02 19:35:02*
%MOMM*%
%LPD*%
G01*
G04 APERTURE LIST*
G04 Aperture macros list*
%AMRoundRect*
0 Rectangle with rounded corners*
0 $1 Rounding radius*
0 $2 $3 $4 $5 $6 $7 $8 $9 X,Y pos of 4 corners*
0 Add a 4 corners polygon primitive as box body*
4,1,4,$2,$3,$4,$5,$6,$7,$8,$9,$2,$3,0*
0 Add four circle primitives for the rounded corners*
1,1,$1+$1,$2,$3*
1,1,$1+$1,$4,$5*
1,1,$1+$1,$6,$7*
1,1,$1+$1,$8,$9*
0 Add four rect primitives between the rounded corners*
20,1,$1+$1,$2,$3,$4,$5,0*
20,1,$1+$1,$4,$5,$6,$7,0*
20,1,$1+$1,$6,$7,$8,$9,0*
20,1,$1+$1,$8,$9,$2,$3,0*%
G04 Aperture macros list end*
%ADD10C,6.000000*%
%ADD11R,3.800000X3.800000*%
%ADD12C,4.000000*%
%ADD13RoundRect,0.102000X-0.900000X0.585000X-0.900000X-0.585000X0.900000X-0.585000X0.900000X0.585000X0*%
%ADD14R,1.257000X3.429000*%
%ADD15R,10.668000X9.017000*%
%ADD16RoundRect,0.250000X0.475000X-0.337500X0.475000X0.337500X-0.475000X0.337500X-0.475000X-0.337500X0*%
%ADD17RoundRect,0.250000X0.337500X0.475000X-0.337500X0.475000X-0.337500X-0.475000X0.337500X-0.475000X0*%
%ADD18RoundRect,0.102000X-0.679000X-0.679000X0.679000X-0.679000X0.679000X0.679000X-0.679000X0.679000X0*%
%ADD19C,1.562000*%
%ADD20RoundRect,0.250000X0.450000X-0.350000X0.450000X0.350000X-0.450000X0.350000X-0.450000X-0.350000X0*%
%ADD21RoundRect,1.500000X1.500000X1.500000X-1.500000X1.500000X-1.500000X-1.500000X1.500000X-1.500000X0*%
%ADD22R,1.300000X0.600000*%
%ADD23RoundRect,0.102000X1.312500X-1.312500X1.312500X1.312500X-1.312500X1.312500X-1.312500X-1.312500X0*%
%ADD24C,2.829000*%
%ADD25RoundRect,0.250000X0.750000X1.550000X-0.750000X1.550000X-0.750000X-1.550000X0.750000X-1.550000X0*%
%ADD26O,2.000000X3.600000*%
%ADD27RoundRect,0.250000X-0.450000X0.350000X-0.450000X-0.350000X0.450000X-0.350000X0.450000X0.350000X0*%
G04 APERTURE END LIST*
D10*
%TO.C,REF\u002A\u002A*%
X123250000Y-85250000D03*
%TD*%
D11*
%TO.C,J4*%
X117000000Y-46000000D03*
D12*
X122000000Y-46000000D03*
%TD*%
D10*
%TO.C,REF\u002A\u002A*%
X85750000Y-55750000D03*
%TD*%
D11*
%TO.C,J3*%
X101500000Y-46000000D03*
D12*
X106500000Y-46000000D03*
%TD*%
D13*
%TO.C,F1*%
X98250000Y-61030000D03*
X98250000Y-63970000D03*
%TD*%
D14*
%TO.C,Q1*%
X90920000Y-81500000D03*
D15*
X93460000Y-71594000D03*
D14*
X96000000Y-81500000D03*
%TD*%
D16*
%TO.C,C3*%
X101460000Y-63537500D03*
X101460000Y-61462500D03*
%TD*%
D17*
%TO.C,C7*%
X84825000Y-74750000D03*
X82750000Y-74750000D03*
%TD*%
D18*
%TO.C,U1*%
X116920000Y-56750000D03*
D19*
X119460000Y-56750000D03*
X122000000Y-56750000D03*
%TD*%
D20*
%TO.C,R4*%
X100500000Y-90000000D03*
X100500000Y-88000000D03*
%TD*%
D21*
%TO.C,J1*%
X115350000Y-91750000D03*
D10*
X108150000Y-91750000D03*
%TD*%
D17*
%TO.C,C1*%
X119287500Y-60750000D03*
X117212500Y-60750000D03*
%TD*%
D18*
%TO.C,PS1*%
X101420000Y-56750000D03*
D19*
X103960000Y-56750000D03*
X106500000Y-56750000D03*
%TD*%
D22*
%TO.C,Q2*%
X94900000Y-93550000D03*
X94900000Y-95450000D03*
X97000000Y-94500000D03*
%TD*%
D23*
%TO.C,SW1*%
X120160000Y-75982500D03*
D24*
X120160000Y-71382500D03*
%TD*%
D20*
%TO.C,R3*%
X97000000Y-90000000D03*
X97000000Y-88000000D03*
%TD*%
D25*
%TO.C,J2*%
X92000000Y-46777500D03*
D26*
X87000000Y-46777500D03*
%TD*%
D27*
%TO.C,R1*%
X90000000Y-88000000D03*
X90000000Y-90000000D03*
%TD*%
D17*
%TO.C,C5*%
X84787500Y-71250000D03*
X82712500Y-71250000D03*
%TD*%
D20*
%TO.C,R2*%
X93500000Y-90000000D03*
X93500000Y-88000000D03*
%TD*%
D17*
%TO.C,C6*%
X84825000Y-67750000D03*
X82750000Y-67750000D03*
%TD*%
M02*
