%TF.GenerationSoftware,KiCad,Pcbnew,7.0.9*%
%TF.CreationDate,2023-12-24T18:06:15-08:00*%
%TF.ProjectId,RatatoulliBoard,52617461-746f-4756-9c6c-69426f617264,rev?*%
%TF.SameCoordinates,Original*%
%TF.FileFunction,Legend,Top*%
%TF.FilePolarity,Positive*%
%FSLAX46Y46*%
G04 Gerber Fmt 4.6, Leading zero omitted, Abs format (unit mm)*
G04 Created by KiCad (PCBNEW 7.0.9) date 2023-12-24 18:06:15*
%MOMM*%
%LPD*%
G01*
G04 APERTURE LIST*
%ADD10C,0.150000*%
%ADD11C,0.254000*%
%ADD12C,0.120000*%
%ADD13C,0.200000*%
G04 APERTURE END LIST*
D10*
X115144779Y-88261819D02*
X115144779Y-87261819D01*
X115144779Y-87261819D02*
X115525731Y-87261819D01*
X115525731Y-87261819D02*
X115620969Y-87309438D01*
X115620969Y-87309438D02*
X115668588Y-87357057D01*
X115668588Y-87357057D02*
X115716207Y-87452295D01*
X115716207Y-87452295D02*
X115716207Y-87595152D01*
X115716207Y-87595152D02*
X115668588Y-87690390D01*
X115668588Y-87690390D02*
X115620969Y-87738009D01*
X115620969Y-87738009D02*
X115525731Y-87785628D01*
X115525731Y-87785628D02*
X115144779Y-87785628D01*
X116144779Y-88261819D02*
X116144779Y-87595152D01*
X116144779Y-87785628D02*
X116192398Y-87690390D01*
X116192398Y-87690390D02*
X116240017Y-87642771D01*
X116240017Y-87642771D02*
X116335255Y-87595152D01*
X116335255Y-87595152D02*
X116430493Y-87595152D01*
X116906684Y-88261819D02*
X116811446Y-88214200D01*
X116811446Y-88214200D02*
X116763827Y-88166580D01*
X116763827Y-88166580D02*
X116716208Y-88071342D01*
X116716208Y-88071342D02*
X116716208Y-87785628D01*
X116716208Y-87785628D02*
X116763827Y-87690390D01*
X116763827Y-87690390D02*
X116811446Y-87642771D01*
X116811446Y-87642771D02*
X116906684Y-87595152D01*
X116906684Y-87595152D02*
X117049541Y-87595152D01*
X117049541Y-87595152D02*
X117144779Y-87642771D01*
X117144779Y-87642771D02*
X117192398Y-87690390D01*
X117192398Y-87690390D02*
X117240017Y-87785628D01*
X117240017Y-87785628D02*
X117240017Y-88071342D01*
X117240017Y-88071342D02*
X117192398Y-88166580D01*
X117192398Y-88166580D02*
X117144779Y-88214200D01*
X117144779Y-88214200D02*
X117049541Y-88261819D01*
X117049541Y-88261819D02*
X116906684Y-88261819D01*
X117525732Y-87595152D02*
X117906684Y-87595152D01*
X117668589Y-87261819D02*
X117668589Y-88118961D01*
X117668589Y-88118961D02*
X117716208Y-88214200D01*
X117716208Y-88214200D02*
X117811446Y-88261819D01*
X117811446Y-88261819D02*
X117906684Y-88261819D01*
X118382875Y-88261819D02*
X118287637Y-88214200D01*
X118287637Y-88214200D02*
X118240018Y-88166580D01*
X118240018Y-88166580D02*
X118192399Y-88071342D01*
X118192399Y-88071342D02*
X118192399Y-87785628D01*
X118192399Y-87785628D02*
X118240018Y-87690390D01*
X118240018Y-87690390D02*
X118287637Y-87642771D01*
X118287637Y-87642771D02*
X118382875Y-87595152D01*
X118382875Y-87595152D02*
X118525732Y-87595152D01*
X118525732Y-87595152D02*
X118620970Y-87642771D01*
X118620970Y-87642771D02*
X118668589Y-87690390D01*
X118668589Y-87690390D02*
X118716208Y-87785628D01*
X118716208Y-87785628D02*
X118716208Y-88071342D01*
X118716208Y-88071342D02*
X118668589Y-88166580D01*
X118668589Y-88166580D02*
X118620970Y-88214200D01*
X118620970Y-88214200D02*
X118525732Y-88261819D01*
X118525732Y-88261819D02*
X118382875Y-88261819D01*
X119001923Y-87595152D02*
X119382875Y-87595152D01*
X119144780Y-87261819D02*
X119144780Y-88118961D01*
X119144780Y-88118961D02*
X119192399Y-88214200D01*
X119192399Y-88214200D02*
X119287637Y-88261819D01*
X119287637Y-88261819D02*
X119382875Y-88261819D01*
X119620971Y-87595152D02*
X119859066Y-88261819D01*
X120097161Y-87595152D02*
X119859066Y-88261819D01*
X119859066Y-88261819D02*
X119763828Y-88499914D01*
X119763828Y-88499914D02*
X119716209Y-88547533D01*
X119716209Y-88547533D02*
X119620971Y-88595152D01*
X120478114Y-87595152D02*
X120478114Y-88595152D01*
X120478114Y-87642771D02*
X120573352Y-87595152D01*
X120573352Y-87595152D02*
X120763828Y-87595152D01*
X120763828Y-87595152D02*
X120859066Y-87642771D01*
X120859066Y-87642771D02*
X120906685Y-87690390D01*
X120906685Y-87690390D02*
X120954304Y-87785628D01*
X120954304Y-87785628D02*
X120954304Y-88071342D01*
X120954304Y-88071342D02*
X120906685Y-88166580D01*
X120906685Y-88166580D02*
X120859066Y-88214200D01*
X120859066Y-88214200D02*
X120763828Y-88261819D01*
X120763828Y-88261819D02*
X120573352Y-88261819D01*
X120573352Y-88261819D02*
X120478114Y-88214200D01*
X121763828Y-88214200D02*
X121668590Y-88261819D01*
X121668590Y-88261819D02*
X121478114Y-88261819D01*
X121478114Y-88261819D02*
X121382876Y-88214200D01*
X121382876Y-88214200D02*
X121335257Y-88118961D01*
X121335257Y-88118961D02*
X121335257Y-87738009D01*
X121335257Y-87738009D02*
X121382876Y-87642771D01*
X121382876Y-87642771D02*
X121478114Y-87595152D01*
X121478114Y-87595152D02*
X121668590Y-87595152D01*
X121668590Y-87595152D02*
X121763828Y-87642771D01*
X121763828Y-87642771D02*
X121811447Y-87738009D01*
X121811447Y-87738009D02*
X121811447Y-87833247D01*
X121811447Y-87833247D02*
X121335257Y-87928485D01*
X122240019Y-88261819D02*
X122240019Y-87261819D01*
X122240019Y-87261819D02*
X122573352Y-87976104D01*
X122573352Y-87976104D02*
X122906685Y-87261819D01*
X122906685Y-87261819D02*
X122906685Y-88261819D01*
X123382876Y-88261819D02*
X123382876Y-87595152D01*
X123382876Y-87261819D02*
X123335257Y-87309438D01*
X123335257Y-87309438D02*
X123382876Y-87357057D01*
X123382876Y-87357057D02*
X123430495Y-87309438D01*
X123430495Y-87309438D02*
X123382876Y-87261819D01*
X123382876Y-87261819D02*
X123382876Y-87357057D01*
X123859066Y-87595152D02*
X123859066Y-88261819D01*
X123859066Y-87690390D02*
X123906685Y-87642771D01*
X123906685Y-87642771D02*
X124001923Y-87595152D01*
X124001923Y-87595152D02*
X124144780Y-87595152D01*
X124144780Y-87595152D02*
X124240018Y-87642771D01*
X124240018Y-87642771D02*
X124287637Y-87738009D01*
X124287637Y-87738009D02*
X124287637Y-88261819D01*
X124763828Y-88261819D02*
X124763828Y-87595152D01*
X124763828Y-87261819D02*
X124716209Y-87309438D01*
X124716209Y-87309438D02*
X124763828Y-87357057D01*
X124763828Y-87357057D02*
X124811447Y-87309438D01*
X124811447Y-87309438D02*
X124763828Y-87261819D01*
X124763828Y-87261819D02*
X124763828Y-87357057D01*
X125192399Y-88214200D02*
X125335256Y-88261819D01*
X125335256Y-88261819D02*
X125573351Y-88261819D01*
X125573351Y-88261819D02*
X125668589Y-88214200D01*
X125668589Y-88214200D02*
X125716208Y-88166580D01*
X125716208Y-88166580D02*
X125763827Y-88071342D01*
X125763827Y-88071342D02*
X125763827Y-87976104D01*
X125763827Y-87976104D02*
X125716208Y-87880866D01*
X125716208Y-87880866D02*
X125668589Y-87833247D01*
X125668589Y-87833247D02*
X125573351Y-87785628D01*
X125573351Y-87785628D02*
X125382875Y-87738009D01*
X125382875Y-87738009D02*
X125287637Y-87690390D01*
X125287637Y-87690390D02*
X125240018Y-87642771D01*
X125240018Y-87642771D02*
X125192399Y-87547533D01*
X125192399Y-87547533D02*
X125192399Y-87452295D01*
X125192399Y-87452295D02*
X125240018Y-87357057D01*
X125240018Y-87357057D02*
X125287637Y-87309438D01*
X125287637Y-87309438D02*
X125382875Y-87261819D01*
X125382875Y-87261819D02*
X125620970Y-87261819D01*
X125620970Y-87261819D02*
X125763827Y-87309438D01*
X126620970Y-87595152D02*
X126620970Y-88261819D01*
X126192399Y-87595152D02*
X126192399Y-88118961D01*
X126192399Y-88118961D02*
X126240018Y-88214200D01*
X126240018Y-88214200D02*
X126335256Y-88261819D01*
X126335256Y-88261819D02*
X126478113Y-88261819D01*
X126478113Y-88261819D02*
X126573351Y-88214200D01*
X126573351Y-88214200D02*
X126620970Y-88166580D01*
X127097161Y-88261819D02*
X127097161Y-87595152D01*
X127097161Y-87690390D02*
X127144780Y-87642771D01*
X127144780Y-87642771D02*
X127240018Y-87595152D01*
X127240018Y-87595152D02*
X127382875Y-87595152D01*
X127382875Y-87595152D02*
X127478113Y-87642771D01*
X127478113Y-87642771D02*
X127525732Y-87738009D01*
X127525732Y-87738009D02*
X127525732Y-88261819D01*
X127525732Y-87738009D02*
X127573351Y-87642771D01*
X127573351Y-87642771D02*
X127668589Y-87595152D01*
X127668589Y-87595152D02*
X127811446Y-87595152D01*
X127811446Y-87595152D02*
X127906685Y-87642771D01*
X127906685Y-87642771D02*
X127954304Y-87738009D01*
X127954304Y-87738009D02*
X127954304Y-88261819D01*
X128573351Y-88261819D02*
X128478113Y-88214200D01*
X128478113Y-88214200D02*
X128430494Y-88166580D01*
X128430494Y-88166580D02*
X128382875Y-88071342D01*
X128382875Y-88071342D02*
X128382875Y-87785628D01*
X128382875Y-87785628D02*
X128430494Y-87690390D01*
X128430494Y-87690390D02*
X128478113Y-87642771D01*
X128478113Y-87642771D02*
X128573351Y-87595152D01*
X128573351Y-87595152D02*
X128716208Y-87595152D01*
X128716208Y-87595152D02*
X128811446Y-87642771D01*
X128811446Y-87642771D02*
X128859065Y-87690390D01*
X128859065Y-87690390D02*
X128906684Y-87785628D01*
X128906684Y-87785628D02*
X128906684Y-88071342D01*
X128906684Y-88071342D02*
X128859065Y-88166580D01*
X128859065Y-88166580D02*
X128811446Y-88214200D01*
X128811446Y-88214200D02*
X128716208Y-88261819D01*
X128716208Y-88261819D02*
X128573351Y-88261819D01*
X82025833Y-77544819D02*
X81692500Y-77068628D01*
X81454405Y-77544819D02*
X81454405Y-76544819D01*
X81454405Y-76544819D02*
X81835357Y-76544819D01*
X81835357Y-76544819D02*
X81930595Y-76592438D01*
X81930595Y-76592438D02*
X81978214Y-76640057D01*
X81978214Y-76640057D02*
X82025833Y-76735295D01*
X82025833Y-76735295D02*
X82025833Y-76878152D01*
X82025833Y-76878152D02*
X81978214Y-76973390D01*
X81978214Y-76973390D02*
X81930595Y-77021009D01*
X81930595Y-77021009D02*
X81835357Y-77068628D01*
X81835357Y-77068628D02*
X81454405Y-77068628D01*
X82502024Y-77544819D02*
X82692500Y-77544819D01*
X82692500Y-77544819D02*
X82787738Y-77497200D01*
X82787738Y-77497200D02*
X82835357Y-77449580D01*
X82835357Y-77449580D02*
X82930595Y-77306723D01*
X82930595Y-77306723D02*
X82978214Y-77116247D01*
X82978214Y-77116247D02*
X82978214Y-76735295D01*
X82978214Y-76735295D02*
X82930595Y-76640057D01*
X82930595Y-76640057D02*
X82882976Y-76592438D01*
X82882976Y-76592438D02*
X82787738Y-76544819D01*
X82787738Y-76544819D02*
X82597262Y-76544819D01*
X82597262Y-76544819D02*
X82502024Y-76592438D01*
X82502024Y-76592438D02*
X82454405Y-76640057D01*
X82454405Y-76640057D02*
X82406786Y-76735295D01*
X82406786Y-76735295D02*
X82406786Y-76973390D01*
X82406786Y-76973390D02*
X82454405Y-77068628D01*
X82454405Y-77068628D02*
X82502024Y-77116247D01*
X82502024Y-77116247D02*
X82597262Y-77163866D01*
X82597262Y-77163866D02*
X82787738Y-77163866D01*
X82787738Y-77163866D02*
X82882976Y-77116247D01*
X82882976Y-77116247D02*
X82930595Y-77068628D01*
X82930595Y-77068628D02*
X82978214Y-76973390D01*
X75753264Y-39288205D02*
X75896121Y-39335824D01*
X75896121Y-39335824D02*
X76134216Y-39335824D01*
X76134216Y-39335824D02*
X76229454Y-39288205D01*
X76229454Y-39288205D02*
X76277073Y-39240585D01*
X76277073Y-39240585D02*
X76324692Y-39145347D01*
X76324692Y-39145347D02*
X76324692Y-39050109D01*
X76324692Y-39050109D02*
X76277073Y-38954871D01*
X76277073Y-38954871D02*
X76229454Y-38907252D01*
X76229454Y-38907252D02*
X76134216Y-38859633D01*
X76134216Y-38859633D02*
X75943740Y-38812014D01*
X75943740Y-38812014D02*
X75848502Y-38764395D01*
X75848502Y-38764395D02*
X75800883Y-38716776D01*
X75800883Y-38716776D02*
X75753264Y-38621538D01*
X75753264Y-38621538D02*
X75753264Y-38526300D01*
X75753264Y-38526300D02*
X75800883Y-38431062D01*
X75800883Y-38431062D02*
X75848502Y-38383443D01*
X75848502Y-38383443D02*
X75943740Y-38335824D01*
X75943740Y-38335824D02*
X76181835Y-38335824D01*
X76181835Y-38335824D02*
X76324692Y-38383443D01*
X76658026Y-38335824D02*
X76896121Y-39335824D01*
X76896121Y-39335824D02*
X77086597Y-38621538D01*
X77086597Y-38621538D02*
X77277073Y-39335824D01*
X77277073Y-39335824D02*
X77515169Y-38335824D01*
X77848502Y-38431062D02*
X77896121Y-38383443D01*
X77896121Y-38383443D02*
X77991359Y-38335824D01*
X77991359Y-38335824D02*
X78229454Y-38335824D01*
X78229454Y-38335824D02*
X78324692Y-38383443D01*
X78324692Y-38383443D02*
X78372311Y-38431062D01*
X78372311Y-38431062D02*
X78419930Y-38526300D01*
X78419930Y-38526300D02*
X78419930Y-38621538D01*
X78419930Y-38621538D02*
X78372311Y-38764395D01*
X78372311Y-38764395D02*
X77800883Y-39335824D01*
X77800883Y-39335824D02*
X78419930Y-39335824D01*
X75099412Y-82084525D02*
X75099412Y-81084525D01*
X75099412Y-81084525D02*
X75337507Y-81084525D01*
X75337507Y-81084525D02*
X75480364Y-81132144D01*
X75480364Y-81132144D02*
X75575602Y-81227382D01*
X75575602Y-81227382D02*
X75623221Y-81322620D01*
X75623221Y-81322620D02*
X75670840Y-81513096D01*
X75670840Y-81513096D02*
X75670840Y-81655953D01*
X75670840Y-81655953D02*
X75623221Y-81846429D01*
X75623221Y-81846429D02*
X75575602Y-81941667D01*
X75575602Y-81941667D02*
X75480364Y-82036906D01*
X75480364Y-82036906D02*
X75337507Y-82084525D01*
X75337507Y-82084525D02*
X75099412Y-82084525D01*
X76527983Y-81417858D02*
X76527983Y-82084525D01*
X76289888Y-81036906D02*
X76051793Y-81751191D01*
X76051793Y-81751191D02*
X76670840Y-81751191D01*
X45249587Y-69341851D02*
X45963872Y-69341851D01*
X45963872Y-69341851D02*
X46106729Y-69389470D01*
X46106729Y-69389470D02*
X46201968Y-69484708D01*
X46201968Y-69484708D02*
X46249587Y-69627565D01*
X46249587Y-69627565D02*
X46249587Y-69722803D01*
X45249587Y-68389470D02*
X45249587Y-68865660D01*
X45249587Y-68865660D02*
X45725777Y-68913279D01*
X45725777Y-68913279D02*
X45678158Y-68865660D01*
X45678158Y-68865660D02*
X45630539Y-68770422D01*
X45630539Y-68770422D02*
X45630539Y-68532327D01*
X45630539Y-68532327D02*
X45678158Y-68437089D01*
X45678158Y-68437089D02*
X45725777Y-68389470D01*
X45725777Y-68389470D02*
X45821015Y-68341851D01*
X45821015Y-68341851D02*
X46059110Y-68341851D01*
X46059110Y-68341851D02*
X46154348Y-68389470D01*
X46154348Y-68389470D02*
X46201968Y-68437089D01*
X46201968Y-68437089D02*
X46249587Y-68532327D01*
X46249587Y-68532327D02*
X46249587Y-68770422D01*
X46249587Y-68770422D02*
X46201968Y-68865660D01*
X46201968Y-68865660D02*
X46154348Y-68913279D01*
X123294717Y-62748893D02*
X123247098Y-62796513D01*
X123247098Y-62796513D02*
X123104241Y-62844132D01*
X123104241Y-62844132D02*
X123009003Y-62844132D01*
X123009003Y-62844132D02*
X122866146Y-62796513D01*
X122866146Y-62796513D02*
X122770908Y-62701274D01*
X122770908Y-62701274D02*
X122723289Y-62606036D01*
X122723289Y-62606036D02*
X122675670Y-62415560D01*
X122675670Y-62415560D02*
X122675670Y-62272703D01*
X122675670Y-62272703D02*
X122723289Y-62082227D01*
X122723289Y-62082227D02*
X122770908Y-61986989D01*
X122770908Y-61986989D02*
X122866146Y-61891751D01*
X122866146Y-61891751D02*
X123009003Y-61844132D01*
X123009003Y-61844132D02*
X123104241Y-61844132D01*
X123104241Y-61844132D02*
X123247098Y-61891751D01*
X123247098Y-61891751D02*
X123294717Y-61939370D01*
X123628051Y-61844132D02*
X124247098Y-61844132D01*
X124247098Y-61844132D02*
X123913765Y-62225084D01*
X123913765Y-62225084D02*
X124056622Y-62225084D01*
X124056622Y-62225084D02*
X124151860Y-62272703D01*
X124151860Y-62272703D02*
X124199479Y-62320322D01*
X124199479Y-62320322D02*
X124247098Y-62415560D01*
X124247098Y-62415560D02*
X124247098Y-62653655D01*
X124247098Y-62653655D02*
X124199479Y-62748893D01*
X124199479Y-62748893D02*
X124151860Y-62796513D01*
X124151860Y-62796513D02*
X124056622Y-62844132D01*
X124056622Y-62844132D02*
X123770908Y-62844132D01*
X123770908Y-62844132D02*
X123675670Y-62796513D01*
X123675670Y-62796513D02*
X123628051Y-62748893D01*
X55422610Y-48719782D02*
X55374991Y-48767402D01*
X55374991Y-48767402D02*
X55232134Y-48815021D01*
X55232134Y-48815021D02*
X55136896Y-48815021D01*
X55136896Y-48815021D02*
X54994039Y-48767402D01*
X54994039Y-48767402D02*
X54898801Y-48672163D01*
X54898801Y-48672163D02*
X54851182Y-48576925D01*
X54851182Y-48576925D02*
X54803563Y-48386449D01*
X54803563Y-48386449D02*
X54803563Y-48243592D01*
X54803563Y-48243592D02*
X54851182Y-48053116D01*
X54851182Y-48053116D02*
X54898801Y-47957878D01*
X54898801Y-47957878D02*
X54994039Y-47862640D01*
X54994039Y-47862640D02*
X55136896Y-47815021D01*
X55136896Y-47815021D02*
X55232134Y-47815021D01*
X55232134Y-47815021D02*
X55374991Y-47862640D01*
X55374991Y-47862640D02*
X55422610Y-47910259D01*
X56374991Y-48815021D02*
X55803563Y-48815021D01*
X56089277Y-48815021D02*
X56089277Y-47815021D01*
X56089277Y-47815021D02*
X55994039Y-47957878D01*
X55994039Y-47957878D02*
X55898801Y-48053116D01*
X55898801Y-48053116D02*
X55803563Y-48100735D01*
X75083150Y-86361216D02*
X75083150Y-85361216D01*
X75083150Y-85361216D02*
X75321245Y-85361216D01*
X75321245Y-85361216D02*
X75464102Y-85408835D01*
X75464102Y-85408835D02*
X75559340Y-85504073D01*
X75559340Y-85504073D02*
X75606959Y-85599311D01*
X75606959Y-85599311D02*
X75654578Y-85789787D01*
X75654578Y-85789787D02*
X75654578Y-85932644D01*
X75654578Y-85932644D02*
X75606959Y-86123120D01*
X75606959Y-86123120D02*
X75559340Y-86218358D01*
X75559340Y-86218358D02*
X75464102Y-86313597D01*
X75464102Y-86313597D02*
X75321245Y-86361216D01*
X75321245Y-86361216D02*
X75083150Y-86361216D01*
X75987912Y-85361216D02*
X76606959Y-85361216D01*
X76606959Y-85361216D02*
X76273626Y-85742168D01*
X76273626Y-85742168D02*
X76416483Y-85742168D01*
X76416483Y-85742168D02*
X76511721Y-85789787D01*
X76511721Y-85789787D02*
X76559340Y-85837406D01*
X76559340Y-85837406D02*
X76606959Y-85932644D01*
X76606959Y-85932644D02*
X76606959Y-86170739D01*
X76606959Y-86170739D02*
X76559340Y-86265977D01*
X76559340Y-86265977D02*
X76511721Y-86313597D01*
X76511721Y-86313597D02*
X76416483Y-86361216D01*
X76416483Y-86361216D02*
X76130769Y-86361216D01*
X76130769Y-86361216D02*
X76035531Y-86313597D01*
X76035531Y-86313597D02*
X75987912Y-86265977D01*
X126474819Y-68833333D02*
X127189104Y-68833333D01*
X127189104Y-68833333D02*
X127331961Y-68880952D01*
X127331961Y-68880952D02*
X127427200Y-68976190D01*
X127427200Y-68976190D02*
X127474819Y-69119047D01*
X127474819Y-69119047D02*
X127474819Y-69214285D01*
X126474819Y-67928571D02*
X126474819Y-68119047D01*
X126474819Y-68119047D02*
X126522438Y-68214285D01*
X126522438Y-68214285D02*
X126570057Y-68261904D01*
X126570057Y-68261904D02*
X126712914Y-68357142D01*
X126712914Y-68357142D02*
X126903390Y-68404761D01*
X126903390Y-68404761D02*
X127284342Y-68404761D01*
X127284342Y-68404761D02*
X127379580Y-68357142D01*
X127379580Y-68357142D02*
X127427200Y-68309523D01*
X127427200Y-68309523D02*
X127474819Y-68214285D01*
X127474819Y-68214285D02*
X127474819Y-68023809D01*
X127474819Y-68023809D02*
X127427200Y-67928571D01*
X127427200Y-67928571D02*
X127379580Y-67880952D01*
X127379580Y-67880952D02*
X127284342Y-67833333D01*
X127284342Y-67833333D02*
X127046247Y-67833333D01*
X127046247Y-67833333D02*
X126951009Y-67880952D01*
X126951009Y-67880952D02*
X126903390Y-67928571D01*
X126903390Y-67928571D02*
X126855771Y-68023809D01*
X126855771Y-68023809D02*
X126855771Y-68214285D01*
X126855771Y-68214285D02*
X126903390Y-68309523D01*
X126903390Y-68309523D02*
X126951009Y-68357142D01*
X126951009Y-68357142D02*
X127046247Y-68404761D01*
D11*
X85794031Y-60947429D02*
X85794031Y-59677429D01*
X87124508Y-60826476D02*
X87064032Y-60886953D01*
X87064032Y-60886953D02*
X86882603Y-60947429D01*
X86882603Y-60947429D02*
X86761651Y-60947429D01*
X86761651Y-60947429D02*
X86580222Y-60886953D01*
X86580222Y-60886953D02*
X86459270Y-60766000D01*
X86459270Y-60766000D02*
X86398793Y-60645048D01*
X86398793Y-60645048D02*
X86338317Y-60403143D01*
X86338317Y-60403143D02*
X86338317Y-60221714D01*
X86338317Y-60221714D02*
X86398793Y-59979810D01*
X86398793Y-59979810D02*
X86459270Y-59858857D01*
X86459270Y-59858857D02*
X86580222Y-59737905D01*
X86580222Y-59737905D02*
X86761651Y-59677429D01*
X86761651Y-59677429D02*
X86882603Y-59677429D01*
X86882603Y-59677429D02*
X87064032Y-59737905D01*
X87064032Y-59737905D02*
X87124508Y-59798381D01*
X88334032Y-60947429D02*
X87608317Y-60947429D01*
X87971174Y-60947429D02*
X87971174Y-59677429D01*
X87971174Y-59677429D02*
X87850222Y-59858857D01*
X87850222Y-59858857D02*
X87729270Y-59979810D01*
X87729270Y-59979810D02*
X87608317Y-60040286D01*
D10*
X119428904Y-48639349D02*
X119381285Y-48686969D01*
X119381285Y-48686969D02*
X119238428Y-48734588D01*
X119238428Y-48734588D02*
X119143190Y-48734588D01*
X119143190Y-48734588D02*
X119000333Y-48686969D01*
X119000333Y-48686969D02*
X118905095Y-48591730D01*
X118905095Y-48591730D02*
X118857476Y-48496492D01*
X118857476Y-48496492D02*
X118809857Y-48306016D01*
X118809857Y-48306016D02*
X118809857Y-48163159D01*
X118809857Y-48163159D02*
X118857476Y-47972683D01*
X118857476Y-47972683D02*
X118905095Y-47877445D01*
X118905095Y-47877445D02*
X119000333Y-47782207D01*
X119000333Y-47782207D02*
X119143190Y-47734588D01*
X119143190Y-47734588D02*
X119238428Y-47734588D01*
X119238428Y-47734588D02*
X119381285Y-47782207D01*
X119381285Y-47782207D02*
X119428904Y-47829826D01*
X119809857Y-47829826D02*
X119857476Y-47782207D01*
X119857476Y-47782207D02*
X119952714Y-47734588D01*
X119952714Y-47734588D02*
X120190809Y-47734588D01*
X120190809Y-47734588D02*
X120286047Y-47782207D01*
X120286047Y-47782207D02*
X120333666Y-47829826D01*
X120333666Y-47829826D02*
X120381285Y-47925064D01*
X120381285Y-47925064D02*
X120381285Y-48020302D01*
X120381285Y-48020302D02*
X120333666Y-48163159D01*
X120333666Y-48163159D02*
X119762238Y-48734588D01*
X119762238Y-48734588D02*
X120381285Y-48734588D01*
X61828472Y-84991018D02*
X61780853Y-85038638D01*
X61780853Y-85038638D02*
X61637996Y-85086257D01*
X61637996Y-85086257D02*
X61542758Y-85086257D01*
X61542758Y-85086257D02*
X61399901Y-85038638D01*
X61399901Y-85038638D02*
X61304663Y-84943399D01*
X61304663Y-84943399D02*
X61257044Y-84848161D01*
X61257044Y-84848161D02*
X61209425Y-84657685D01*
X61209425Y-84657685D02*
X61209425Y-84514828D01*
X61209425Y-84514828D02*
X61257044Y-84324352D01*
X61257044Y-84324352D02*
X61304663Y-84229114D01*
X61304663Y-84229114D02*
X61399901Y-84133876D01*
X61399901Y-84133876D02*
X61542758Y-84086257D01*
X61542758Y-84086257D02*
X61637996Y-84086257D01*
X61637996Y-84086257D02*
X61780853Y-84133876D01*
X61780853Y-84133876D02*
X61828472Y-84181495D01*
X62399901Y-84514828D02*
X62304663Y-84467209D01*
X62304663Y-84467209D02*
X62257044Y-84419590D01*
X62257044Y-84419590D02*
X62209425Y-84324352D01*
X62209425Y-84324352D02*
X62209425Y-84276733D01*
X62209425Y-84276733D02*
X62257044Y-84181495D01*
X62257044Y-84181495D02*
X62304663Y-84133876D01*
X62304663Y-84133876D02*
X62399901Y-84086257D01*
X62399901Y-84086257D02*
X62590377Y-84086257D01*
X62590377Y-84086257D02*
X62685615Y-84133876D01*
X62685615Y-84133876D02*
X62733234Y-84181495D01*
X62733234Y-84181495D02*
X62780853Y-84276733D01*
X62780853Y-84276733D02*
X62780853Y-84324352D01*
X62780853Y-84324352D02*
X62733234Y-84419590D01*
X62733234Y-84419590D02*
X62685615Y-84467209D01*
X62685615Y-84467209D02*
X62590377Y-84514828D01*
X62590377Y-84514828D02*
X62399901Y-84514828D01*
X62399901Y-84514828D02*
X62304663Y-84562447D01*
X62304663Y-84562447D02*
X62257044Y-84610066D01*
X62257044Y-84610066D02*
X62209425Y-84705304D01*
X62209425Y-84705304D02*
X62209425Y-84895780D01*
X62209425Y-84895780D02*
X62257044Y-84991018D01*
X62257044Y-84991018D02*
X62304663Y-85038638D01*
X62304663Y-85038638D02*
X62399901Y-85086257D01*
X62399901Y-85086257D02*
X62590377Y-85086257D01*
X62590377Y-85086257D02*
X62685615Y-85038638D01*
X62685615Y-85038638D02*
X62733234Y-84991018D01*
X62733234Y-84991018D02*
X62780853Y-84895780D01*
X62780853Y-84895780D02*
X62780853Y-84705304D01*
X62780853Y-84705304D02*
X62733234Y-84610066D01*
X62733234Y-84610066D02*
X62685615Y-84562447D01*
X62685615Y-84562447D02*
X62590377Y-84514828D01*
X126505787Y-77784420D02*
X127220072Y-77784420D01*
X127220072Y-77784420D02*
X127362929Y-77832039D01*
X127362929Y-77832039D02*
X127458168Y-77927277D01*
X127458168Y-77927277D02*
X127505787Y-78070134D01*
X127505787Y-78070134D02*
X127505787Y-78165372D01*
X126839120Y-76879658D02*
X127505787Y-76879658D01*
X126458168Y-77117753D02*
X127172453Y-77355848D01*
X127172453Y-77355848D02*
X127172453Y-76736801D01*
X75122987Y-77911753D02*
X75122987Y-76911753D01*
X75122987Y-76911753D02*
X75361082Y-76911753D01*
X75361082Y-76911753D02*
X75503939Y-76959372D01*
X75503939Y-76959372D02*
X75599177Y-77054610D01*
X75599177Y-77054610D02*
X75646796Y-77149848D01*
X75646796Y-77149848D02*
X75694415Y-77340324D01*
X75694415Y-77340324D02*
X75694415Y-77483181D01*
X75694415Y-77483181D02*
X75646796Y-77673657D01*
X75646796Y-77673657D02*
X75599177Y-77768895D01*
X75599177Y-77768895D02*
X75503939Y-77864134D01*
X75503939Y-77864134D02*
X75361082Y-77911753D01*
X75361082Y-77911753D02*
X75122987Y-77911753D01*
X76599177Y-76911753D02*
X76122987Y-76911753D01*
X76122987Y-76911753D02*
X76075368Y-77387943D01*
X76075368Y-77387943D02*
X76122987Y-77340324D01*
X76122987Y-77340324D02*
X76218225Y-77292705D01*
X76218225Y-77292705D02*
X76456320Y-77292705D01*
X76456320Y-77292705D02*
X76551558Y-77340324D01*
X76551558Y-77340324D02*
X76599177Y-77387943D01*
X76599177Y-77387943D02*
X76646796Y-77483181D01*
X76646796Y-77483181D02*
X76646796Y-77721276D01*
X76646796Y-77721276D02*
X76599177Y-77816514D01*
X76599177Y-77816514D02*
X76551558Y-77864134D01*
X76551558Y-77864134D02*
X76456320Y-77911753D01*
X76456320Y-77911753D02*
X76218225Y-77911753D01*
X76218225Y-77911753D02*
X76122987Y-77864134D01*
X76122987Y-77864134D02*
X76075368Y-77816514D01*
D11*
X112343019Y-46372825D02*
X112343019Y-45102825D01*
X113673496Y-46251872D02*
X113613020Y-46312349D01*
X113613020Y-46312349D02*
X113431591Y-46372825D01*
X113431591Y-46372825D02*
X113310639Y-46372825D01*
X113310639Y-46372825D02*
X113129210Y-46312349D01*
X113129210Y-46312349D02*
X113008258Y-46191396D01*
X113008258Y-46191396D02*
X112947781Y-46070444D01*
X112947781Y-46070444D02*
X112887305Y-45828539D01*
X112887305Y-45828539D02*
X112887305Y-45647110D01*
X112887305Y-45647110D02*
X112947781Y-45405206D01*
X112947781Y-45405206D02*
X113008258Y-45284253D01*
X113008258Y-45284253D02*
X113129210Y-45163301D01*
X113129210Y-45163301D02*
X113310639Y-45102825D01*
X113310639Y-45102825D02*
X113431591Y-45102825D01*
X113431591Y-45102825D02*
X113613020Y-45163301D01*
X113613020Y-45163301D02*
X113673496Y-45223777D01*
X114096829Y-45102825D02*
X114883020Y-45102825D01*
X114883020Y-45102825D02*
X114459686Y-45586634D01*
X114459686Y-45586634D02*
X114641115Y-45586634D01*
X114641115Y-45586634D02*
X114762067Y-45647110D01*
X114762067Y-45647110D02*
X114822543Y-45707587D01*
X114822543Y-45707587D02*
X114883020Y-45828539D01*
X114883020Y-45828539D02*
X114883020Y-46130920D01*
X114883020Y-46130920D02*
X114822543Y-46251872D01*
X114822543Y-46251872D02*
X114762067Y-46312349D01*
X114762067Y-46312349D02*
X114641115Y-46372825D01*
X114641115Y-46372825D02*
X114278258Y-46372825D01*
X114278258Y-46372825D02*
X114157305Y-46312349D01*
X114157305Y-46312349D02*
X114096829Y-46251872D01*
X46506080Y-47229132D02*
X46506080Y-45959132D01*
X46506080Y-45959132D02*
X46808461Y-45959132D01*
X46808461Y-45959132D02*
X46989890Y-46019608D01*
X46989890Y-46019608D02*
X47110842Y-46140560D01*
X47110842Y-46140560D02*
X47171319Y-46261513D01*
X47171319Y-46261513D02*
X47231795Y-46503417D01*
X47231795Y-46503417D02*
X47231795Y-46684846D01*
X47231795Y-46684846D02*
X47171319Y-46926751D01*
X47171319Y-46926751D02*
X47110842Y-47047703D01*
X47110842Y-47047703D02*
X46989890Y-47168656D01*
X46989890Y-47168656D02*
X46808461Y-47229132D01*
X46808461Y-47229132D02*
X46506080Y-47229132D01*
X48441319Y-47229132D02*
X47715604Y-47229132D01*
X48078461Y-47229132D02*
X48078461Y-45959132D01*
X48078461Y-45959132D02*
X47957509Y-46140560D01*
X47957509Y-46140560D02*
X47836557Y-46261513D01*
X47836557Y-46261513D02*
X47715604Y-46321989D01*
D10*
X126253892Y-51515530D02*
X126253892Y-52325053D01*
X126253892Y-52325053D02*
X126301511Y-52420291D01*
X126301511Y-52420291D02*
X126349130Y-52467911D01*
X126349130Y-52467911D02*
X126444368Y-52515530D01*
X126444368Y-52515530D02*
X126634844Y-52515530D01*
X126634844Y-52515530D02*
X126730082Y-52467911D01*
X126730082Y-52467911D02*
X126777701Y-52420291D01*
X126777701Y-52420291D02*
X126825320Y-52325053D01*
X126825320Y-52325053D02*
X126825320Y-51515530D01*
X127253892Y-51610768D02*
X127301511Y-51563149D01*
X127301511Y-51563149D02*
X127396749Y-51515530D01*
X127396749Y-51515530D02*
X127634844Y-51515530D01*
X127634844Y-51515530D02*
X127730082Y-51563149D01*
X127730082Y-51563149D02*
X127777701Y-51610768D01*
X127777701Y-51610768D02*
X127825320Y-51706006D01*
X127825320Y-51706006D02*
X127825320Y-51801244D01*
X127825320Y-51801244D02*
X127777701Y-51944101D01*
X127777701Y-51944101D02*
X127206273Y-52515530D01*
X127206273Y-52515530D02*
X127825320Y-52515530D01*
X59930641Y-42942573D02*
X59930641Y-43656858D01*
X59930641Y-43656858D02*
X59883022Y-43799715D01*
X59883022Y-43799715D02*
X59787784Y-43894954D01*
X59787784Y-43894954D02*
X59644927Y-43942573D01*
X59644927Y-43942573D02*
X59549689Y-43942573D01*
X60549689Y-43371144D02*
X60454451Y-43323525D01*
X60454451Y-43323525D02*
X60406832Y-43275906D01*
X60406832Y-43275906D02*
X60359213Y-43180668D01*
X60359213Y-43180668D02*
X60359213Y-43133049D01*
X60359213Y-43133049D02*
X60406832Y-43037811D01*
X60406832Y-43037811D02*
X60454451Y-42990192D01*
X60454451Y-42990192D02*
X60549689Y-42942573D01*
X60549689Y-42942573D02*
X60740165Y-42942573D01*
X60740165Y-42942573D02*
X60835403Y-42990192D01*
X60835403Y-42990192D02*
X60883022Y-43037811D01*
X60883022Y-43037811D02*
X60930641Y-43133049D01*
X60930641Y-43133049D02*
X60930641Y-43180668D01*
X60930641Y-43180668D02*
X60883022Y-43275906D01*
X60883022Y-43275906D02*
X60835403Y-43323525D01*
X60835403Y-43323525D02*
X60740165Y-43371144D01*
X60740165Y-43371144D02*
X60549689Y-43371144D01*
X60549689Y-43371144D02*
X60454451Y-43418763D01*
X60454451Y-43418763D02*
X60406832Y-43466382D01*
X60406832Y-43466382D02*
X60359213Y-43561620D01*
X60359213Y-43561620D02*
X60359213Y-43752096D01*
X60359213Y-43752096D02*
X60406832Y-43847334D01*
X60406832Y-43847334D02*
X60454451Y-43894954D01*
X60454451Y-43894954D02*
X60549689Y-43942573D01*
X60549689Y-43942573D02*
X60740165Y-43942573D01*
X60740165Y-43942573D02*
X60835403Y-43894954D01*
X60835403Y-43894954D02*
X60883022Y-43847334D01*
X60883022Y-43847334D02*
X60930641Y-43752096D01*
X60930641Y-43752096D02*
X60930641Y-43561620D01*
X60930641Y-43561620D02*
X60883022Y-43466382D01*
X60883022Y-43466382D02*
X60835403Y-43418763D01*
X60835403Y-43418763D02*
X60740165Y-43371144D01*
X61743333Y-80779580D02*
X61695714Y-80827200D01*
X61695714Y-80827200D02*
X61552857Y-80874819D01*
X61552857Y-80874819D02*
X61457619Y-80874819D01*
X61457619Y-80874819D02*
X61314762Y-80827200D01*
X61314762Y-80827200D02*
X61219524Y-80731961D01*
X61219524Y-80731961D02*
X61171905Y-80636723D01*
X61171905Y-80636723D02*
X61124286Y-80446247D01*
X61124286Y-80446247D02*
X61124286Y-80303390D01*
X61124286Y-80303390D02*
X61171905Y-80112914D01*
X61171905Y-80112914D02*
X61219524Y-80017676D01*
X61219524Y-80017676D02*
X61314762Y-79922438D01*
X61314762Y-79922438D02*
X61457619Y-79874819D01*
X61457619Y-79874819D02*
X61552857Y-79874819D01*
X61552857Y-79874819D02*
X61695714Y-79922438D01*
X61695714Y-79922438D02*
X61743333Y-79970057D01*
X62219524Y-80874819D02*
X62410000Y-80874819D01*
X62410000Y-80874819D02*
X62505238Y-80827200D01*
X62505238Y-80827200D02*
X62552857Y-80779580D01*
X62552857Y-80779580D02*
X62648095Y-80636723D01*
X62648095Y-80636723D02*
X62695714Y-80446247D01*
X62695714Y-80446247D02*
X62695714Y-80065295D01*
X62695714Y-80065295D02*
X62648095Y-79970057D01*
X62648095Y-79970057D02*
X62600476Y-79922438D01*
X62600476Y-79922438D02*
X62505238Y-79874819D01*
X62505238Y-79874819D02*
X62314762Y-79874819D01*
X62314762Y-79874819D02*
X62219524Y-79922438D01*
X62219524Y-79922438D02*
X62171905Y-79970057D01*
X62171905Y-79970057D02*
X62124286Y-80065295D01*
X62124286Y-80065295D02*
X62124286Y-80303390D01*
X62124286Y-80303390D02*
X62171905Y-80398628D01*
X62171905Y-80398628D02*
X62219524Y-80446247D01*
X62219524Y-80446247D02*
X62314762Y-80493866D01*
X62314762Y-80493866D02*
X62505238Y-80493866D01*
X62505238Y-80493866D02*
X62600476Y-80446247D01*
X62600476Y-80446247D02*
X62648095Y-80398628D01*
X62648095Y-80398628D02*
X62695714Y-80303390D01*
X81948893Y-86543219D02*
X81615560Y-86067028D01*
X81377465Y-86543219D02*
X81377465Y-85543219D01*
X81377465Y-85543219D02*
X81758417Y-85543219D01*
X81758417Y-85543219D02*
X81853655Y-85590838D01*
X81853655Y-85590838D02*
X81901274Y-85638457D01*
X81901274Y-85638457D02*
X81948893Y-85733695D01*
X81948893Y-85733695D02*
X81948893Y-85876552D01*
X81948893Y-85876552D02*
X81901274Y-85971790D01*
X81901274Y-85971790D02*
X81853655Y-86019409D01*
X81853655Y-86019409D02*
X81758417Y-86067028D01*
X81758417Y-86067028D02*
X81377465Y-86067028D01*
X82282227Y-85543219D02*
X82948893Y-85543219D01*
X82948893Y-85543219D02*
X82520322Y-86543219D01*
X40838830Y-77675241D02*
X41553115Y-77675241D01*
X41553115Y-77675241D02*
X41695972Y-77722860D01*
X41695972Y-77722860D02*
X41791211Y-77818098D01*
X41791211Y-77818098D02*
X41838830Y-77960955D01*
X41838830Y-77960955D02*
X41838830Y-78056193D01*
X40838830Y-77294288D02*
X40838830Y-76675241D01*
X40838830Y-76675241D02*
X41219782Y-77008574D01*
X41219782Y-77008574D02*
X41219782Y-76865717D01*
X41219782Y-76865717D02*
X41267401Y-76770479D01*
X41267401Y-76770479D02*
X41315020Y-76722860D01*
X41315020Y-76722860D02*
X41410258Y-76675241D01*
X41410258Y-76675241D02*
X41648353Y-76675241D01*
X41648353Y-76675241D02*
X41743591Y-76722860D01*
X41743591Y-76722860D02*
X41791211Y-76770479D01*
X41791211Y-76770479D02*
X41838830Y-76865717D01*
X41838830Y-76865717D02*
X41838830Y-77151431D01*
X41838830Y-77151431D02*
X41791211Y-77246669D01*
X41791211Y-77246669D02*
X41743591Y-77294288D01*
X120270778Y-83330499D02*
X120223159Y-83378119D01*
X120223159Y-83378119D02*
X120080302Y-83425738D01*
X120080302Y-83425738D02*
X119985064Y-83425738D01*
X119985064Y-83425738D02*
X119842207Y-83378119D01*
X119842207Y-83378119D02*
X119746969Y-83282880D01*
X119746969Y-83282880D02*
X119699350Y-83187642D01*
X119699350Y-83187642D02*
X119651731Y-82997166D01*
X119651731Y-82997166D02*
X119651731Y-82854309D01*
X119651731Y-82854309D02*
X119699350Y-82663833D01*
X119699350Y-82663833D02*
X119746969Y-82568595D01*
X119746969Y-82568595D02*
X119842207Y-82473357D01*
X119842207Y-82473357D02*
X119985064Y-82425738D01*
X119985064Y-82425738D02*
X120080302Y-82425738D01*
X120080302Y-82425738D02*
X120223159Y-82473357D01*
X120223159Y-82473357D02*
X120270778Y-82520976D01*
X121223159Y-83425738D02*
X120651731Y-83425738D01*
X120937445Y-83425738D02*
X120937445Y-82425738D01*
X120937445Y-82425738D02*
X120842207Y-82568595D01*
X120842207Y-82568595D02*
X120746969Y-82663833D01*
X120746969Y-82663833D02*
X120651731Y-82711452D01*
X121556493Y-82425738D02*
X122175540Y-82425738D01*
X122175540Y-82425738D02*
X121842207Y-82806690D01*
X121842207Y-82806690D02*
X121985064Y-82806690D01*
X121985064Y-82806690D02*
X122080302Y-82854309D01*
X122080302Y-82854309D02*
X122127921Y-82901928D01*
X122127921Y-82901928D02*
X122175540Y-82997166D01*
X122175540Y-82997166D02*
X122175540Y-83235261D01*
X122175540Y-83235261D02*
X122127921Y-83330499D01*
X122127921Y-83330499D02*
X122080302Y-83378119D01*
X122080302Y-83378119D02*
X121985064Y-83425738D01*
X121985064Y-83425738D02*
X121699350Y-83425738D01*
X121699350Y-83425738D02*
X121604112Y-83378119D01*
X121604112Y-83378119D02*
X121556493Y-83330499D01*
X40502697Y-45280251D02*
X40455078Y-45327871D01*
X40455078Y-45327871D02*
X40312221Y-45375490D01*
X40312221Y-45375490D02*
X40216983Y-45375490D01*
X40216983Y-45375490D02*
X40074126Y-45327871D01*
X40074126Y-45327871D02*
X39978888Y-45232632D01*
X39978888Y-45232632D02*
X39931269Y-45137394D01*
X39931269Y-45137394D02*
X39883650Y-44946918D01*
X39883650Y-44946918D02*
X39883650Y-44804061D01*
X39883650Y-44804061D02*
X39931269Y-44613585D01*
X39931269Y-44613585D02*
X39978888Y-44518347D01*
X39978888Y-44518347D02*
X40074126Y-44423109D01*
X40074126Y-44423109D02*
X40216983Y-44375490D01*
X40216983Y-44375490D02*
X40312221Y-44375490D01*
X40312221Y-44375490D02*
X40455078Y-44423109D01*
X40455078Y-44423109D02*
X40502697Y-44470728D01*
X41455078Y-45375490D02*
X40883650Y-45375490D01*
X41169364Y-45375490D02*
X41169364Y-44375490D01*
X41169364Y-44375490D02*
X41074126Y-44518347D01*
X41074126Y-44518347D02*
X40978888Y-44613585D01*
X40978888Y-44613585D02*
X40883650Y-44661204D01*
X42074126Y-44375490D02*
X42169364Y-44375490D01*
X42169364Y-44375490D02*
X42264602Y-44423109D01*
X42264602Y-44423109D02*
X42312221Y-44470728D01*
X42312221Y-44470728D02*
X42359840Y-44565966D01*
X42359840Y-44565966D02*
X42407459Y-44756442D01*
X42407459Y-44756442D02*
X42407459Y-44994537D01*
X42407459Y-44994537D02*
X42359840Y-45185013D01*
X42359840Y-45185013D02*
X42312221Y-45280251D01*
X42312221Y-45280251D02*
X42264602Y-45327871D01*
X42264602Y-45327871D02*
X42169364Y-45375490D01*
X42169364Y-45375490D02*
X42074126Y-45375490D01*
X42074126Y-45375490D02*
X41978888Y-45327871D01*
X41978888Y-45327871D02*
X41931269Y-45280251D01*
X41931269Y-45280251D02*
X41883650Y-45185013D01*
X41883650Y-45185013D02*
X41836031Y-44994537D01*
X41836031Y-44994537D02*
X41836031Y-44756442D01*
X41836031Y-44756442D02*
X41883650Y-44565966D01*
X41883650Y-44565966D02*
X41931269Y-44470728D01*
X41931269Y-44470728D02*
X41978888Y-44423109D01*
X41978888Y-44423109D02*
X42074126Y-44375490D01*
X82063333Y-82594819D02*
X81730000Y-82118628D01*
X81491905Y-82594819D02*
X81491905Y-81594819D01*
X81491905Y-81594819D02*
X81872857Y-81594819D01*
X81872857Y-81594819D02*
X81968095Y-81642438D01*
X81968095Y-81642438D02*
X82015714Y-81690057D01*
X82015714Y-81690057D02*
X82063333Y-81785295D01*
X82063333Y-81785295D02*
X82063333Y-81928152D01*
X82063333Y-81928152D02*
X82015714Y-82023390D01*
X82015714Y-82023390D02*
X81968095Y-82071009D01*
X81968095Y-82071009D02*
X81872857Y-82118628D01*
X81872857Y-82118628D02*
X81491905Y-82118628D01*
X82634762Y-82023390D02*
X82539524Y-81975771D01*
X82539524Y-81975771D02*
X82491905Y-81928152D01*
X82491905Y-81928152D02*
X82444286Y-81832914D01*
X82444286Y-81832914D02*
X82444286Y-81785295D01*
X82444286Y-81785295D02*
X82491905Y-81690057D01*
X82491905Y-81690057D02*
X82539524Y-81642438D01*
X82539524Y-81642438D02*
X82634762Y-81594819D01*
X82634762Y-81594819D02*
X82825238Y-81594819D01*
X82825238Y-81594819D02*
X82920476Y-81642438D01*
X82920476Y-81642438D02*
X82968095Y-81690057D01*
X82968095Y-81690057D02*
X83015714Y-81785295D01*
X83015714Y-81785295D02*
X83015714Y-81832914D01*
X83015714Y-81832914D02*
X82968095Y-81928152D01*
X82968095Y-81928152D02*
X82920476Y-81975771D01*
X82920476Y-81975771D02*
X82825238Y-82023390D01*
X82825238Y-82023390D02*
X82634762Y-82023390D01*
X82634762Y-82023390D02*
X82539524Y-82071009D01*
X82539524Y-82071009D02*
X82491905Y-82118628D01*
X82491905Y-82118628D02*
X82444286Y-82213866D01*
X82444286Y-82213866D02*
X82444286Y-82404342D01*
X82444286Y-82404342D02*
X82491905Y-82499580D01*
X82491905Y-82499580D02*
X82539524Y-82547200D01*
X82539524Y-82547200D02*
X82634762Y-82594819D01*
X82634762Y-82594819D02*
X82825238Y-82594819D01*
X82825238Y-82594819D02*
X82920476Y-82547200D01*
X82920476Y-82547200D02*
X82968095Y-82499580D01*
X82968095Y-82499580D02*
X83015714Y-82404342D01*
X83015714Y-82404342D02*
X83015714Y-82213866D01*
X83015714Y-82213866D02*
X82968095Y-82118628D01*
X82968095Y-82118628D02*
X82920476Y-82071009D01*
X82920476Y-82071009D02*
X82825238Y-82023390D01*
X45734633Y-51915611D02*
X45734633Y-52725134D01*
X45734633Y-52725134D02*
X45782252Y-52820372D01*
X45782252Y-52820372D02*
X45829871Y-52867992D01*
X45829871Y-52867992D02*
X45925109Y-52915611D01*
X45925109Y-52915611D02*
X46115585Y-52915611D01*
X46115585Y-52915611D02*
X46210823Y-52867992D01*
X46210823Y-52867992D02*
X46258442Y-52820372D01*
X46258442Y-52820372D02*
X46306061Y-52725134D01*
X46306061Y-52725134D02*
X46306061Y-51915611D01*
X47306061Y-52915611D02*
X46734633Y-52915611D01*
X47020347Y-52915611D02*
X47020347Y-51915611D01*
X47020347Y-51915611D02*
X46925109Y-52058468D01*
X46925109Y-52058468D02*
X46829871Y-52153706D01*
X46829871Y-52153706D02*
X46734633Y-52201325D01*
X123343333Y-46939580D02*
X123295714Y-46987200D01*
X123295714Y-46987200D02*
X123152857Y-47034819D01*
X123152857Y-47034819D02*
X123057619Y-47034819D01*
X123057619Y-47034819D02*
X122914762Y-46987200D01*
X122914762Y-46987200D02*
X122819524Y-46891961D01*
X122819524Y-46891961D02*
X122771905Y-46796723D01*
X122771905Y-46796723D02*
X122724286Y-46606247D01*
X122724286Y-46606247D02*
X122724286Y-46463390D01*
X122724286Y-46463390D02*
X122771905Y-46272914D01*
X122771905Y-46272914D02*
X122819524Y-46177676D01*
X122819524Y-46177676D02*
X122914762Y-46082438D01*
X122914762Y-46082438D02*
X123057619Y-46034819D01*
X123057619Y-46034819D02*
X123152857Y-46034819D01*
X123152857Y-46034819D02*
X123295714Y-46082438D01*
X123295714Y-46082438D02*
X123343333Y-46130057D01*
X124200476Y-46368152D02*
X124200476Y-47034819D01*
X123962381Y-45987200D02*
X123724286Y-46701485D01*
X123724286Y-46701485D02*
X124343333Y-46701485D01*
X40137952Y-64091766D02*
X40090333Y-64139386D01*
X40090333Y-64139386D02*
X39947476Y-64187005D01*
X39947476Y-64187005D02*
X39852238Y-64187005D01*
X39852238Y-64187005D02*
X39709381Y-64139386D01*
X39709381Y-64139386D02*
X39614143Y-64044147D01*
X39614143Y-64044147D02*
X39566524Y-63948909D01*
X39566524Y-63948909D02*
X39518905Y-63758433D01*
X39518905Y-63758433D02*
X39518905Y-63615576D01*
X39518905Y-63615576D02*
X39566524Y-63425100D01*
X39566524Y-63425100D02*
X39614143Y-63329862D01*
X39614143Y-63329862D02*
X39709381Y-63234624D01*
X39709381Y-63234624D02*
X39852238Y-63187005D01*
X39852238Y-63187005D02*
X39947476Y-63187005D01*
X39947476Y-63187005D02*
X40090333Y-63234624D01*
X40090333Y-63234624D02*
X40137952Y-63282243D01*
X40995095Y-63187005D02*
X40804619Y-63187005D01*
X40804619Y-63187005D02*
X40709381Y-63234624D01*
X40709381Y-63234624D02*
X40661762Y-63282243D01*
X40661762Y-63282243D02*
X40566524Y-63425100D01*
X40566524Y-63425100D02*
X40518905Y-63615576D01*
X40518905Y-63615576D02*
X40518905Y-63996528D01*
X40518905Y-63996528D02*
X40566524Y-64091766D01*
X40566524Y-64091766D02*
X40614143Y-64139386D01*
X40614143Y-64139386D02*
X40709381Y-64187005D01*
X40709381Y-64187005D02*
X40899857Y-64187005D01*
X40899857Y-64187005D02*
X40995095Y-64139386D01*
X40995095Y-64139386D02*
X41042714Y-64091766D01*
X41042714Y-64091766D02*
X41090333Y-63996528D01*
X41090333Y-63996528D02*
X41090333Y-63758433D01*
X41090333Y-63758433D02*
X41042714Y-63663195D01*
X41042714Y-63663195D02*
X40995095Y-63615576D01*
X40995095Y-63615576D02*
X40899857Y-63567957D01*
X40899857Y-63567957D02*
X40709381Y-63567957D01*
X40709381Y-63567957D02*
X40614143Y-63615576D01*
X40614143Y-63615576D02*
X40566524Y-63663195D01*
X40566524Y-63663195D02*
X40518905Y-63758433D01*
X133044599Y-43799066D02*
X133044599Y-44513351D01*
X133044599Y-44513351D02*
X132996980Y-44656208D01*
X132996980Y-44656208D02*
X132901742Y-44751447D01*
X132901742Y-44751447D02*
X132758885Y-44799066D01*
X132758885Y-44799066D02*
X132663647Y-44799066D01*
X133473171Y-43894304D02*
X133520790Y-43846685D01*
X133520790Y-43846685D02*
X133616028Y-43799066D01*
X133616028Y-43799066D02*
X133854123Y-43799066D01*
X133854123Y-43799066D02*
X133949361Y-43846685D01*
X133949361Y-43846685D02*
X133996980Y-43894304D01*
X133996980Y-43894304D02*
X134044599Y-43989542D01*
X134044599Y-43989542D02*
X134044599Y-44084780D01*
X134044599Y-44084780D02*
X133996980Y-44227637D01*
X133996980Y-44227637D02*
X133425552Y-44799066D01*
X133425552Y-44799066D02*
X134044599Y-44799066D01*
X40034758Y-61374966D02*
X39701425Y-60898775D01*
X39463330Y-61374966D02*
X39463330Y-60374966D01*
X39463330Y-60374966D02*
X39844282Y-60374966D01*
X39844282Y-60374966D02*
X39939520Y-60422585D01*
X39939520Y-60422585D02*
X39987139Y-60470204D01*
X39987139Y-60470204D02*
X40034758Y-60565442D01*
X40034758Y-60565442D02*
X40034758Y-60708299D01*
X40034758Y-60708299D02*
X39987139Y-60803537D01*
X39987139Y-60803537D02*
X39939520Y-60851156D01*
X39939520Y-60851156D02*
X39844282Y-60898775D01*
X39844282Y-60898775D02*
X39463330Y-60898775D01*
X40987139Y-61374966D02*
X40415711Y-61374966D01*
X40701425Y-61374966D02*
X40701425Y-60374966D01*
X40701425Y-60374966D02*
X40606187Y-60517823D01*
X40606187Y-60517823D02*
X40510949Y-60613061D01*
X40510949Y-60613061D02*
X40415711Y-60660680D01*
D11*
X128528685Y-45801837D02*
X128528685Y-44531837D01*
X128528685Y-44531837D02*
X128831066Y-44531837D01*
X128831066Y-44531837D02*
X129012495Y-44592313D01*
X129012495Y-44592313D02*
X129133447Y-44713265D01*
X129133447Y-44713265D02*
X129193924Y-44834218D01*
X129193924Y-44834218D02*
X129254400Y-45076122D01*
X129254400Y-45076122D02*
X129254400Y-45257551D01*
X129254400Y-45257551D02*
X129193924Y-45499456D01*
X129193924Y-45499456D02*
X129133447Y-45620408D01*
X129133447Y-45620408D02*
X129012495Y-45741361D01*
X129012495Y-45741361D02*
X128831066Y-45801837D01*
X128831066Y-45801837D02*
X128528685Y-45801837D01*
X129738209Y-44652789D02*
X129798685Y-44592313D01*
X129798685Y-44592313D02*
X129919638Y-44531837D01*
X129919638Y-44531837D02*
X130222019Y-44531837D01*
X130222019Y-44531837D02*
X130342971Y-44592313D01*
X130342971Y-44592313D02*
X130403447Y-44652789D01*
X130403447Y-44652789D02*
X130463924Y-44773741D01*
X130463924Y-44773741D02*
X130463924Y-44894694D01*
X130463924Y-44894694D02*
X130403447Y-45076122D01*
X130403447Y-45076122D02*
X129677733Y-45801837D01*
X129677733Y-45801837D02*
X130463924Y-45801837D01*
X56951427Y-47669104D02*
X56951427Y-46399104D01*
X58281904Y-47548151D02*
X58221428Y-47608628D01*
X58221428Y-47608628D02*
X58039999Y-47669104D01*
X58039999Y-47669104D02*
X57919047Y-47669104D01*
X57919047Y-47669104D02*
X57737618Y-47608628D01*
X57737618Y-47608628D02*
X57616666Y-47487675D01*
X57616666Y-47487675D02*
X57556189Y-47366723D01*
X57556189Y-47366723D02*
X57495713Y-47124818D01*
X57495713Y-47124818D02*
X57495713Y-46943389D01*
X57495713Y-46943389D02*
X57556189Y-46701485D01*
X57556189Y-46701485D02*
X57616666Y-46580532D01*
X57616666Y-46580532D02*
X57737618Y-46459580D01*
X57737618Y-46459580D02*
X57919047Y-46399104D01*
X57919047Y-46399104D02*
X58039999Y-46399104D01*
X58039999Y-46399104D02*
X58221428Y-46459580D01*
X58221428Y-46459580D02*
X58281904Y-46520056D01*
X58765713Y-46520056D02*
X58826189Y-46459580D01*
X58826189Y-46459580D02*
X58947142Y-46399104D01*
X58947142Y-46399104D02*
X59249523Y-46399104D01*
X59249523Y-46399104D02*
X59370475Y-46459580D01*
X59370475Y-46459580D02*
X59430951Y-46520056D01*
X59430951Y-46520056D02*
X59491428Y-46641008D01*
X59491428Y-46641008D02*
X59491428Y-46761961D01*
X59491428Y-46761961D02*
X59430951Y-46943389D01*
X59430951Y-46943389D02*
X58705237Y-47669104D01*
X58705237Y-47669104D02*
X59491428Y-47669104D01*
D10*
X111844280Y-43382898D02*
X111844280Y-44097183D01*
X111844280Y-44097183D02*
X111796661Y-44240040D01*
X111796661Y-44240040D02*
X111701423Y-44335279D01*
X111701423Y-44335279D02*
X111558566Y-44382898D01*
X111558566Y-44382898D02*
X111463328Y-44382898D01*
X112225233Y-43382898D02*
X112891899Y-43382898D01*
X112891899Y-43382898D02*
X112463328Y-44382898D01*
X49955391Y-43265725D02*
X49955391Y-43980010D01*
X49955391Y-43980010D02*
X49907772Y-44122867D01*
X49907772Y-44122867D02*
X49812534Y-44218106D01*
X49812534Y-44218106D02*
X49669677Y-44265725D01*
X49669677Y-44265725D02*
X49574439Y-44265725D01*
X50955391Y-44265725D02*
X50383963Y-44265725D01*
X50669677Y-44265725D02*
X50669677Y-43265725D01*
X50669677Y-43265725D02*
X50574439Y-43408582D01*
X50574439Y-43408582D02*
X50479201Y-43503820D01*
X50479201Y-43503820D02*
X50383963Y-43551439D01*
X123178151Y-59303953D02*
X122844818Y-58827762D01*
X122606723Y-59303953D02*
X122606723Y-58303953D01*
X122606723Y-58303953D02*
X122987675Y-58303953D01*
X122987675Y-58303953D02*
X123082913Y-58351572D01*
X123082913Y-58351572D02*
X123130532Y-58399191D01*
X123130532Y-58399191D02*
X123178151Y-58494429D01*
X123178151Y-58494429D02*
X123178151Y-58637286D01*
X123178151Y-58637286D02*
X123130532Y-58732524D01*
X123130532Y-58732524D02*
X123082913Y-58780143D01*
X123082913Y-58780143D02*
X122987675Y-58827762D01*
X122987675Y-58827762D02*
X122606723Y-58827762D01*
X124035294Y-58637286D02*
X124035294Y-59303953D01*
X123797199Y-58256334D02*
X123559104Y-58970619D01*
X123559104Y-58970619D02*
X124178151Y-58970619D01*
X61372543Y-89525309D02*
X61324924Y-89572929D01*
X61324924Y-89572929D02*
X61182067Y-89620548D01*
X61182067Y-89620548D02*
X61086829Y-89620548D01*
X61086829Y-89620548D02*
X60943972Y-89572929D01*
X60943972Y-89572929D02*
X60848734Y-89477690D01*
X60848734Y-89477690D02*
X60801115Y-89382452D01*
X60801115Y-89382452D02*
X60753496Y-89191976D01*
X60753496Y-89191976D02*
X60753496Y-89049119D01*
X60753496Y-89049119D02*
X60801115Y-88858643D01*
X60801115Y-88858643D02*
X60848734Y-88763405D01*
X60848734Y-88763405D02*
X60943972Y-88668167D01*
X60943972Y-88668167D02*
X61086829Y-88620548D01*
X61086829Y-88620548D02*
X61182067Y-88620548D01*
X61182067Y-88620548D02*
X61324924Y-88668167D01*
X61324924Y-88668167D02*
X61372543Y-88715786D01*
X62324924Y-89620548D02*
X61753496Y-89620548D01*
X62039210Y-89620548D02*
X62039210Y-88620548D01*
X62039210Y-88620548D02*
X61943972Y-88763405D01*
X61943972Y-88763405D02*
X61848734Y-88858643D01*
X61848734Y-88858643D02*
X61753496Y-88906262D01*
X63182067Y-88620548D02*
X62991591Y-88620548D01*
X62991591Y-88620548D02*
X62896353Y-88668167D01*
X62896353Y-88668167D02*
X62848734Y-88715786D01*
X62848734Y-88715786D02*
X62753496Y-88858643D01*
X62753496Y-88858643D02*
X62705877Y-89049119D01*
X62705877Y-89049119D02*
X62705877Y-89430071D01*
X62705877Y-89430071D02*
X62753496Y-89525309D01*
X62753496Y-89525309D02*
X62801115Y-89572929D01*
X62801115Y-89572929D02*
X62896353Y-89620548D01*
X62896353Y-89620548D02*
X63086829Y-89620548D01*
X63086829Y-89620548D02*
X63182067Y-89572929D01*
X63182067Y-89572929D02*
X63229686Y-89525309D01*
X63229686Y-89525309D02*
X63277305Y-89430071D01*
X63277305Y-89430071D02*
X63277305Y-89191976D01*
X63277305Y-89191976D02*
X63229686Y-89096738D01*
X63229686Y-89096738D02*
X63182067Y-89049119D01*
X63182067Y-89049119D02*
X63086829Y-89001500D01*
X63086829Y-89001500D02*
X62896353Y-89001500D01*
X62896353Y-89001500D02*
X62801115Y-89049119D01*
X62801115Y-89049119D02*
X62753496Y-89096738D01*
X62753496Y-89096738D02*
X62705877Y-89191976D01*
X85887200Y-85153332D02*
X85934819Y-85010475D01*
X85934819Y-85010475D02*
X85934819Y-84772380D01*
X85934819Y-84772380D02*
X85887200Y-84677142D01*
X85887200Y-84677142D02*
X85839580Y-84629523D01*
X85839580Y-84629523D02*
X85744342Y-84581904D01*
X85744342Y-84581904D02*
X85649104Y-84581904D01*
X85649104Y-84581904D02*
X85553866Y-84629523D01*
X85553866Y-84629523D02*
X85506247Y-84677142D01*
X85506247Y-84677142D02*
X85458628Y-84772380D01*
X85458628Y-84772380D02*
X85411009Y-84962856D01*
X85411009Y-84962856D02*
X85363390Y-85058094D01*
X85363390Y-85058094D02*
X85315771Y-85105713D01*
X85315771Y-85105713D02*
X85220533Y-85153332D01*
X85220533Y-85153332D02*
X85125295Y-85153332D01*
X85125295Y-85153332D02*
X85030057Y-85105713D01*
X85030057Y-85105713D02*
X84982438Y-85058094D01*
X84982438Y-85058094D02*
X84934819Y-84962856D01*
X84934819Y-84962856D02*
X84934819Y-84724761D01*
X84934819Y-84724761D02*
X84982438Y-84581904D01*
X84934819Y-84248570D02*
X85934819Y-84010475D01*
X85934819Y-84010475D02*
X85220533Y-83819999D01*
X85220533Y-83819999D02*
X85934819Y-83629523D01*
X85934819Y-83629523D02*
X84934819Y-83391428D01*
X85934819Y-82486666D02*
X85934819Y-83058094D01*
X85934819Y-82772380D02*
X84934819Y-82772380D01*
X84934819Y-82772380D02*
X85077676Y-82867618D01*
X85077676Y-82867618D02*
X85172914Y-82962856D01*
X85172914Y-82962856D02*
X85220533Y-83058094D01*
D12*
%TO.C,R9*%
X83192500Y-77780000D02*
X80507500Y-77780000D01*
X80507500Y-77780000D02*
X80507500Y-79700000D01*
X80507500Y-79700000D02*
X83192500Y-79700000D01*
%TO.C,SW2*%
X73936597Y-46831005D02*
X73936597Y-46581005D01*
X73936597Y-39921005D02*
X80236597Y-39921005D01*
X73936597Y-46831005D02*
X76086597Y-46831005D01*
X80236597Y-39921005D02*
X80236597Y-40181005D01*
X73936597Y-44681005D02*
X73936597Y-42081005D01*
X80236597Y-46831005D02*
X78086597Y-46831005D01*
X73936597Y-40181005D02*
X73936597Y-39921005D01*
X80236597Y-42081005D02*
X80236597Y-44681005D01*
X80236597Y-46581005D02*
X80236597Y-46831005D01*
%TO.C,D4*%
X75696927Y-82549706D02*
X75978087Y-82549706D01*
X75696927Y-83569706D02*
X75978087Y-83569706D01*
%TO.C,J5*%
X43599768Y-65898518D02*
X43599768Y-66948518D01*
X41099768Y-65898518D02*
X43599768Y-65898518D01*
X43599768Y-66948518D02*
X44589768Y-66948518D01*
X39129768Y-67068518D02*
X39129768Y-70948518D01*
X43599768Y-72118518D02*
X43599768Y-71068518D01*
X41099768Y-72118518D02*
X43599768Y-72118518D01*
%TO.C,C3*%
X123200132Y-63204313D02*
X123722636Y-63204313D01*
X123200132Y-64674313D02*
X123722636Y-64674313D01*
%TO.C,C1*%
X58158748Y-47525000D02*
X58681252Y-47525000D01*
X58158748Y-48995000D02*
X58681252Y-48995000D01*
%TO.C,D3*%
X75680665Y-86826397D02*
X75961825Y-86826397D01*
X75680665Y-87846397D02*
X75961825Y-87846397D01*
%TO.C,J6*%
X129215000Y-71610000D02*
X129215000Y-70560000D01*
X131715000Y-71610000D02*
X129215000Y-71610000D01*
X129215000Y-70560000D02*
X128225000Y-70560000D01*
X133685000Y-70440000D02*
X133685000Y-66560000D01*
X129215000Y-65390000D02*
X129215000Y-66440000D01*
X131715000Y-65390000D02*
X129215000Y-65390000D01*
D13*
%TO.C,IC1*%
X56553794Y-51483111D02*
X56553794Y-69263111D01*
X56553794Y-69263111D02*
X117513794Y-69263111D01*
X62903794Y-69893111D02*
X62903794Y-69893111D01*
X62903794Y-69893111D02*
X62903794Y-69893111D01*
X63003794Y-69893111D02*
X63003794Y-69893111D01*
X117513794Y-51483111D02*
X56553794Y-51483111D01*
X117513794Y-69263111D02*
X117513794Y-51483111D01*
X63003794Y-69893111D02*
G75*
G03*
X62903794Y-69893111I-50000J0D01*
G01*
X62903794Y-69893111D02*
G75*
G03*
X63003794Y-69893111I50000J0D01*
G01*
X62903794Y-69893111D02*
G75*
G03*
X63003794Y-69893111I50000J0D01*
G01*
D12*
%TO.C,C2*%
X117109891Y-48995000D02*
X116587387Y-48995000D01*
X117109891Y-47525000D02*
X116587387Y-47525000D01*
%TO.C,C8*%
X62256391Y-83686438D02*
X61733887Y-83686438D01*
X62256391Y-82216438D02*
X61733887Y-82216438D01*
%TO.C,J4*%
X129245968Y-80561087D02*
X129245968Y-79511087D01*
X131745968Y-80561087D02*
X129245968Y-80561087D01*
X129245968Y-79511087D02*
X128255968Y-79511087D01*
X133715968Y-79391087D02*
X133715968Y-75511087D01*
X129245968Y-74341087D02*
X129245968Y-75391087D01*
X131745968Y-74341087D02*
X129245968Y-74341087D01*
%TO.C,D5*%
X75720502Y-78376934D02*
X76001662Y-78376934D01*
X75720502Y-79396934D02*
X76001662Y-79396934D01*
D13*
%TO.C,D1*%
X44743462Y-48464814D02*
X50143462Y-48464814D01*
X50143462Y-44844814D02*
X44168462Y-44844814D01*
D12*
%TO.C,U2*%
X127015797Y-52900711D02*
X123565797Y-52900711D01*
X127015797Y-52900711D02*
X128965797Y-52900711D01*
X127015797Y-58020711D02*
X125065797Y-58020711D01*
X127015797Y-58020711D02*
X128965797Y-58020711D01*
%TO.C,J8*%
X68873975Y-42397754D02*
X68873975Y-30177754D01*
X68873975Y-33477754D02*
X51653975Y-33477754D01*
X68873975Y-31677754D02*
X68873975Y-33477754D01*
X68873975Y-30177754D02*
X51653975Y-30177754D01*
X66263975Y-30177754D02*
X64263975Y-30177754D01*
X66013975Y-31677754D02*
X66263975Y-30177754D01*
X65563975Y-43197754D02*
X64963975Y-43197754D01*
X65263975Y-42597754D02*
X65563975Y-43197754D01*
X64963975Y-43197754D02*
X65263975Y-42597754D01*
X64513975Y-31677754D02*
X66013975Y-31677754D01*
X64263975Y-30177754D02*
X64513975Y-31677754D01*
X61263975Y-30177754D02*
X59263975Y-30177754D01*
X61013975Y-31677754D02*
X61263975Y-30177754D01*
X59513975Y-31677754D02*
X61013975Y-31677754D01*
X59263975Y-30177754D02*
X59513975Y-31677754D01*
X56263975Y-30177754D02*
X54263975Y-30177754D01*
X56013975Y-31677754D02*
X56263975Y-30177754D01*
X54513975Y-31677754D02*
X56013975Y-31677754D01*
X54263975Y-30177754D02*
X54513975Y-31677754D01*
X51653975Y-42397754D02*
X68873975Y-42397754D01*
X51653975Y-33477754D02*
X51653975Y-31677754D01*
X51653975Y-31677754D02*
X68873975Y-31677754D01*
X51653975Y-30177754D02*
X51653975Y-42397754D01*
%TO.C,C9*%
X62171252Y-79475000D02*
X61648748Y-79475000D01*
X62171252Y-78005000D02*
X61648748Y-78005000D01*
%TO.C,R7*%
X81854308Y-87033400D02*
X82376812Y-87033400D01*
X81854308Y-88503400D02*
X82376812Y-88503400D01*
%TO.C,J3*%
X43669011Y-74231908D02*
X43669011Y-75281908D01*
X41169011Y-74231908D02*
X43669011Y-74231908D01*
X43669011Y-75281908D02*
X44659011Y-75281908D01*
X39199011Y-75401908D02*
X39199011Y-79281908D01*
X43669011Y-80451908D02*
X43669011Y-79401908D01*
X41169011Y-80451908D02*
X43669011Y-80451908D01*
%TO.C,C13*%
X121231252Y-82015000D02*
X120708748Y-82015000D01*
X121231252Y-80545000D02*
X120708748Y-80545000D01*
%TO.C,C10*%
X40884303Y-45901900D02*
X41406807Y-45901900D01*
X40884303Y-47371900D02*
X41406807Y-47371900D01*
%TO.C,R8*%
X81968748Y-83085000D02*
X82491252Y-83085000D01*
X81968748Y-84555000D02*
X82491252Y-84555000D01*
%TO.C,U1*%
X46496538Y-53300792D02*
X43046538Y-53300792D01*
X46496538Y-53300792D02*
X48446538Y-53300792D01*
X46496538Y-58420792D02*
X44546538Y-58420792D01*
X46496538Y-58420792D02*
X48446538Y-58420792D01*
%TO.C,C4*%
X123248748Y-47525000D02*
X123771252Y-47525000D01*
X123248748Y-48995000D02*
X123771252Y-48995000D01*
%TO.C,C6*%
X42963145Y-63022985D02*
X43485649Y-63022985D01*
X42963145Y-64492985D02*
X43485649Y-64492985D01*
%TO.C,J2*%
X134110000Y-42887500D02*
X134110000Y-30667500D01*
X134110000Y-33967500D02*
X121890000Y-33967500D01*
X134110000Y-32167500D02*
X134110000Y-33967500D01*
X134110000Y-30667500D02*
X121890000Y-30667500D01*
X131500000Y-30667500D02*
X129500000Y-30667500D01*
X131250000Y-32167500D02*
X131500000Y-30667500D01*
X130800000Y-43687500D02*
X130200000Y-43687500D01*
X130500000Y-43087500D02*
X130800000Y-43687500D01*
X130200000Y-43687500D02*
X130500000Y-43087500D01*
X129750000Y-32167500D02*
X131250000Y-32167500D01*
X129500000Y-30667500D02*
X129750000Y-32167500D01*
X126500000Y-30667500D02*
X124500000Y-30667500D01*
X126250000Y-32167500D02*
X126500000Y-30667500D01*
X124750000Y-32167500D02*
X126250000Y-32167500D01*
X124500000Y-30667500D02*
X124750000Y-32167500D01*
X121890000Y-42887500D02*
X134110000Y-42887500D01*
X121890000Y-33967500D02*
X121890000Y-32167500D01*
X121890000Y-32167500D02*
X134110000Y-32167500D01*
X121890000Y-30667500D02*
X121890000Y-42887500D01*
%TO.C,R1*%
X42918748Y-60225000D02*
X43441252Y-60225000D01*
X42918748Y-61695000D02*
X43441252Y-61695000D01*
D13*
%TO.C,D2*%
X126840000Y-50070000D02*
X132240000Y-50070000D01*
X132240000Y-46450000D02*
X126265000Y-46450000D01*
D12*
%TO.C,J7*%
X103567614Y-30618079D02*
X103567614Y-42838079D01*
X103567614Y-32118079D02*
X120787614Y-32118079D01*
X103567614Y-33918079D02*
X103567614Y-32118079D01*
X103567614Y-42838079D02*
X120787614Y-42838079D01*
X106177614Y-30618079D02*
X106427614Y-32118079D01*
X106427614Y-32118079D02*
X107927614Y-32118079D01*
X107927614Y-32118079D02*
X108177614Y-30618079D01*
X108177614Y-30618079D02*
X106177614Y-30618079D01*
X111177614Y-30618079D02*
X111427614Y-32118079D01*
X111427614Y-32118079D02*
X112927614Y-32118079D01*
X112927614Y-32118079D02*
X113177614Y-30618079D01*
X113177614Y-30618079D02*
X111177614Y-30618079D01*
X116177614Y-30618079D02*
X116427614Y-32118079D01*
X116427614Y-32118079D02*
X117927614Y-32118079D01*
X116877614Y-43638079D02*
X117177614Y-43038079D01*
X117177614Y-43038079D02*
X117477614Y-43638079D01*
X117477614Y-43638079D02*
X116877614Y-43638079D01*
X117927614Y-32118079D02*
X118177614Y-30618079D01*
X118177614Y-30618079D02*
X116177614Y-30618079D01*
X120787614Y-30618079D02*
X103567614Y-30618079D01*
X120787614Y-32118079D02*
X120787614Y-33918079D01*
X120787614Y-33918079D02*
X103567614Y-33918079D01*
X120787614Y-42838079D02*
X120787614Y-30618079D01*
%TO.C,J1*%
X50610000Y-42387500D02*
X50610000Y-30167500D01*
X50610000Y-33467500D02*
X38390000Y-33467500D01*
X50610000Y-31667500D02*
X50610000Y-33467500D01*
X50610000Y-30167500D02*
X38390000Y-30167500D01*
X48000000Y-30167500D02*
X46000000Y-30167500D01*
X47750000Y-31667500D02*
X48000000Y-30167500D01*
X47300000Y-43187500D02*
X46700000Y-43187500D01*
X47000000Y-42587500D02*
X47300000Y-43187500D01*
X46700000Y-43187500D02*
X47000000Y-42587500D01*
X46250000Y-31667500D02*
X47750000Y-31667500D01*
X46000000Y-30167500D02*
X46250000Y-31667500D01*
X43000000Y-30167500D02*
X41000000Y-30167500D01*
X42750000Y-31667500D02*
X43000000Y-30167500D01*
X41250000Y-31667500D02*
X42750000Y-31667500D01*
X41000000Y-30167500D02*
X41250000Y-31667500D01*
X38390000Y-42387500D02*
X50610000Y-42387500D01*
X38390000Y-33467500D02*
X38390000Y-31667500D01*
X38390000Y-31667500D02*
X50610000Y-31667500D01*
X38390000Y-30167500D02*
X38390000Y-42387500D01*
%TO.C,R4*%
X123083566Y-59794134D02*
X123606070Y-59794134D01*
X123083566Y-61264134D02*
X123606070Y-61264134D01*
%TO.C,C16*%
X62276653Y-88220729D02*
X61754149Y-88220729D01*
X62276653Y-86750729D02*
X61754149Y-86750729D01*
%TO.C,SW1*%
X86240000Y-89010000D02*
X87623000Y-89010000D01*
X86240000Y-89010000D02*
X86240000Y-87626000D01*
X86480000Y-88770000D02*
X88100000Y-88770000D01*
X86480000Y-88770000D02*
X86480000Y-78870000D01*
X89700000Y-88770000D02*
X90640000Y-88770000D01*
X92240000Y-88770000D02*
X93180000Y-88770000D01*
X94780000Y-88770000D02*
X96400000Y-88770000D01*
X96400000Y-88770000D02*
X96400000Y-78870000D01*
X88265000Y-85850000D02*
X89535000Y-85850000D01*
X88385000Y-85850000D02*
X88385000Y-84496667D01*
X88505000Y-85850000D02*
X88505000Y-84496667D01*
X88625000Y-85850000D02*
X88625000Y-84496667D01*
X88745000Y-85850000D02*
X88745000Y-84496667D01*
X88865000Y-85850000D02*
X88865000Y-84496667D01*
X88985000Y-85850000D02*
X88985000Y-84496667D01*
X89105000Y-85850000D02*
X89105000Y-84496667D01*
X89225000Y-85850000D02*
X89225000Y-84496667D01*
X89345000Y-85850000D02*
X89345000Y-84496667D01*
X89465000Y-85850000D02*
X89465000Y-84496667D01*
X89535000Y-85850000D02*
X89535000Y-81790000D01*
X90805000Y-85850000D02*
X92075000Y-85850000D01*
X90925000Y-85850000D02*
X90925000Y-84496667D01*
X91045000Y-85850000D02*
X91045000Y-84496667D01*
X91165000Y-85850000D02*
X91165000Y-84496667D01*
X91285000Y-85850000D02*
X91285000Y-84496667D01*
X91405000Y-85850000D02*
X91405000Y-84496667D01*
X91525000Y-85850000D02*
X91525000Y-84496667D01*
X91645000Y-85850000D02*
X91645000Y-84496667D01*
X91765000Y-85850000D02*
X91765000Y-84496667D01*
X91885000Y-85850000D02*
X91885000Y-84496667D01*
X92005000Y-85850000D02*
X92005000Y-84496667D01*
X92075000Y-85850000D02*
X92075000Y-81790000D01*
X93345000Y-85850000D02*
X94615000Y-85850000D01*
X93465000Y-85850000D02*
X93465000Y-84496667D01*
X93585000Y-85850000D02*
X93585000Y-84496667D01*
X93705000Y-85850000D02*
X93705000Y-84496667D01*
X93825000Y-85850000D02*
X93825000Y-84496667D01*
X93945000Y-85850000D02*
X93945000Y-84496667D01*
X94065000Y-85850000D02*
X94065000Y-84496667D01*
X94185000Y-85850000D02*
X94185000Y-84496667D01*
X94305000Y-85850000D02*
X94305000Y-84496667D01*
X94425000Y-85850000D02*
X94425000Y-84496667D01*
X94545000Y-85850000D02*
X94545000Y-84496667D01*
X94615000Y-85850000D02*
X94615000Y-81790000D01*
X88265000Y-84496667D02*
X89535000Y-84496667D01*
X90805000Y-84496667D02*
X92075000Y-84496667D01*
X93345000Y-84496667D02*
X94615000Y-84496667D01*
X88265000Y-81790000D02*
X88265000Y-85850000D01*
X89535000Y-81790000D02*
X88265000Y-81790000D01*
X90805000Y-81790000D02*
X90805000Y-85850000D01*
X92075000Y-81790000D02*
X90805000Y-81790000D01*
X93345000Y-81790000D02*
X93345000Y-85850000D01*
X94615000Y-81790000D02*
X93345000Y-81790000D01*
X86480000Y-78870000D02*
X88100000Y-78870000D01*
X89700000Y-78870000D02*
X90640000Y-78870000D01*
X92240000Y-78870000D02*
X93180000Y-78870000D01*
X94780000Y-78870000D02*
X96400000Y-78870000D01*
%TD*%
M02*
