%TF.GenerationSoftware,KiCad,Pcbnew,7.0.9*%
%TF.CreationDate,2023-12-24T18:06:15-08:00*%
%TF.ProjectId,RatatoulliBoard,52617461-746f-4756-9c6c-69426f617264,rev?*%
%TF.SameCoordinates,Original*%
%TF.FileFunction,Legend,Bot*%
%TF.FilePolarity,Positive*%
%FSLAX46Y46*%
G04 Gerber Fmt 4.6, Leading zero omitted, Abs format (unit mm)*
G04 Created by KiCad (PCBNEW 7.0.9) date 2023-12-24 18:06:15*
%MOMM*%
%LPD*%
G01*
G04 APERTURE LIST*
%ADD10C,0.150000*%
%ADD11C,0.120000*%
G04 APERTURE END LIST*
D10*
X122098901Y-69606469D02*
X122146520Y-69654089D01*
X122146520Y-69654089D02*
X122289377Y-69701708D01*
X122289377Y-69701708D02*
X122384615Y-69701708D01*
X122384615Y-69701708D02*
X122527472Y-69654089D01*
X122527472Y-69654089D02*
X122622710Y-69558850D01*
X122622710Y-69558850D02*
X122670329Y-69463612D01*
X122670329Y-69463612D02*
X122717948Y-69273136D01*
X122717948Y-69273136D02*
X122717948Y-69130279D01*
X122717948Y-69130279D02*
X122670329Y-68939803D01*
X122670329Y-68939803D02*
X122622710Y-68844565D01*
X122622710Y-68844565D02*
X122527472Y-68749327D01*
X122527472Y-68749327D02*
X122384615Y-68701708D01*
X122384615Y-68701708D02*
X122289377Y-68701708D01*
X122289377Y-68701708D02*
X122146520Y-68749327D01*
X122146520Y-68749327D02*
X122098901Y-68796946D01*
X121146520Y-69701708D02*
X121717948Y-69701708D01*
X121432234Y-69701708D02*
X121432234Y-68701708D01*
X121432234Y-68701708D02*
X121527472Y-68844565D01*
X121527472Y-68844565D02*
X121622710Y-68939803D01*
X121622710Y-68939803D02*
X121717948Y-68987422D01*
X120194139Y-69701708D02*
X120765567Y-69701708D01*
X120479853Y-69701708D02*
X120479853Y-68701708D01*
X120479853Y-68701708D02*
X120575091Y-68844565D01*
X120575091Y-68844565D02*
X120670329Y-68939803D01*
X120670329Y-68939803D02*
X120765567Y-68987422D01*
X103116821Y-88499176D02*
X103164440Y-88546796D01*
X103164440Y-88546796D02*
X103307297Y-88594415D01*
X103307297Y-88594415D02*
X103402535Y-88594415D01*
X103402535Y-88594415D02*
X103545392Y-88546796D01*
X103545392Y-88546796D02*
X103640630Y-88451557D01*
X103640630Y-88451557D02*
X103688249Y-88356319D01*
X103688249Y-88356319D02*
X103735868Y-88165843D01*
X103735868Y-88165843D02*
X103735868Y-88022986D01*
X103735868Y-88022986D02*
X103688249Y-87832510D01*
X103688249Y-87832510D02*
X103640630Y-87737272D01*
X103640630Y-87737272D02*
X103545392Y-87642034D01*
X103545392Y-87642034D02*
X103402535Y-87594415D01*
X103402535Y-87594415D02*
X103307297Y-87594415D01*
X103307297Y-87594415D02*
X103164440Y-87642034D01*
X103164440Y-87642034D02*
X103116821Y-87689653D01*
X102164440Y-88594415D02*
X102735868Y-88594415D01*
X102450154Y-88594415D02*
X102450154Y-87594415D01*
X102450154Y-87594415D02*
X102545392Y-87737272D01*
X102545392Y-87737272D02*
X102640630Y-87832510D01*
X102640630Y-87832510D02*
X102735868Y-87880129D01*
X101307297Y-87927748D02*
X101307297Y-88594415D01*
X101545392Y-87546796D02*
X101783487Y-88261081D01*
X101783487Y-88261081D02*
X101164440Y-88261081D01*
X65560679Y-71799055D02*
X65894012Y-71799055D01*
X65894012Y-72322865D02*
X65894012Y-71322865D01*
X65894012Y-71322865D02*
X65417822Y-71322865D01*
X64513060Y-72322865D02*
X65084488Y-72322865D01*
X64798774Y-72322865D02*
X64798774Y-71322865D01*
X64798774Y-71322865D02*
X64894012Y-71465722D01*
X64894012Y-71465722D02*
X64989250Y-71560960D01*
X64989250Y-71560960D02*
X65084488Y-71608579D01*
X70172857Y-77419580D02*
X70220476Y-77467200D01*
X70220476Y-77467200D02*
X70363333Y-77514819D01*
X70363333Y-77514819D02*
X70458571Y-77514819D01*
X70458571Y-77514819D02*
X70601428Y-77467200D01*
X70601428Y-77467200D02*
X70696666Y-77371961D01*
X70696666Y-77371961D02*
X70744285Y-77276723D01*
X70744285Y-77276723D02*
X70791904Y-77086247D01*
X70791904Y-77086247D02*
X70791904Y-76943390D01*
X70791904Y-76943390D02*
X70744285Y-76752914D01*
X70744285Y-76752914D02*
X70696666Y-76657676D01*
X70696666Y-76657676D02*
X70601428Y-76562438D01*
X70601428Y-76562438D02*
X70458571Y-76514819D01*
X70458571Y-76514819D02*
X70363333Y-76514819D01*
X70363333Y-76514819D02*
X70220476Y-76562438D01*
X70220476Y-76562438D02*
X70172857Y-76610057D01*
X69220476Y-77514819D02*
X69791904Y-77514819D01*
X69506190Y-77514819D02*
X69506190Y-76514819D01*
X69506190Y-76514819D02*
X69601428Y-76657676D01*
X69601428Y-76657676D02*
X69696666Y-76752914D01*
X69696666Y-76752914D02*
X69791904Y-76800533D01*
X68649047Y-76943390D02*
X68744285Y-76895771D01*
X68744285Y-76895771D02*
X68791904Y-76848152D01*
X68791904Y-76848152D02*
X68839523Y-76752914D01*
X68839523Y-76752914D02*
X68839523Y-76705295D01*
X68839523Y-76705295D02*
X68791904Y-76610057D01*
X68791904Y-76610057D02*
X68744285Y-76562438D01*
X68744285Y-76562438D02*
X68649047Y-76514819D01*
X68649047Y-76514819D02*
X68458571Y-76514819D01*
X68458571Y-76514819D02*
X68363333Y-76562438D01*
X68363333Y-76562438D02*
X68315714Y-76610057D01*
X68315714Y-76610057D02*
X68268095Y-76705295D01*
X68268095Y-76705295D02*
X68268095Y-76752914D01*
X68268095Y-76752914D02*
X68315714Y-76848152D01*
X68315714Y-76848152D02*
X68363333Y-76895771D01*
X68363333Y-76895771D02*
X68458571Y-76943390D01*
X68458571Y-76943390D02*
X68649047Y-76943390D01*
X68649047Y-76943390D02*
X68744285Y-76991009D01*
X68744285Y-76991009D02*
X68791904Y-77038628D01*
X68791904Y-77038628D02*
X68839523Y-77133866D01*
X68839523Y-77133866D02*
X68839523Y-77324342D01*
X68839523Y-77324342D02*
X68791904Y-77419580D01*
X68791904Y-77419580D02*
X68744285Y-77467200D01*
X68744285Y-77467200D02*
X68649047Y-77514819D01*
X68649047Y-77514819D02*
X68458571Y-77514819D01*
X68458571Y-77514819D02*
X68363333Y-77467200D01*
X68363333Y-77467200D02*
X68315714Y-77419580D01*
X68315714Y-77419580D02*
X68268095Y-77324342D01*
X68268095Y-77324342D02*
X68268095Y-77133866D01*
X68268095Y-77133866D02*
X68315714Y-77038628D01*
X68315714Y-77038628D02*
X68363333Y-76991009D01*
X68363333Y-76991009D02*
X68458571Y-76943390D01*
X46677274Y-56247913D02*
X47153464Y-56247913D01*
X47153464Y-56247913D02*
X47153464Y-55247913D01*
X45820131Y-56247913D02*
X46391559Y-56247913D01*
X46105845Y-56247913D02*
X46105845Y-55247913D01*
X46105845Y-55247913D02*
X46201083Y-55390770D01*
X46201083Y-55390770D02*
X46296321Y-55486008D01*
X46296321Y-55486008D02*
X46391559Y-55533627D01*
X60176666Y-72434819D02*
X60509999Y-71958628D01*
X60748094Y-72434819D02*
X60748094Y-71434819D01*
X60748094Y-71434819D02*
X60367142Y-71434819D01*
X60367142Y-71434819D02*
X60271904Y-71482438D01*
X60271904Y-71482438D02*
X60224285Y-71530057D01*
X60224285Y-71530057D02*
X60176666Y-71625295D01*
X60176666Y-71625295D02*
X60176666Y-71768152D01*
X60176666Y-71768152D02*
X60224285Y-71863390D01*
X60224285Y-71863390D02*
X60271904Y-71911009D01*
X60271904Y-71911009D02*
X60367142Y-71958628D01*
X60367142Y-71958628D02*
X60748094Y-71958628D01*
X59795713Y-71530057D02*
X59748094Y-71482438D01*
X59748094Y-71482438D02*
X59652856Y-71434819D01*
X59652856Y-71434819D02*
X59414761Y-71434819D01*
X59414761Y-71434819D02*
X59319523Y-71482438D01*
X59319523Y-71482438D02*
X59271904Y-71530057D01*
X59271904Y-71530057D02*
X59224285Y-71625295D01*
X59224285Y-71625295D02*
X59224285Y-71720533D01*
X59224285Y-71720533D02*
X59271904Y-71863390D01*
X59271904Y-71863390D02*
X59843332Y-72434819D01*
X59843332Y-72434819D02*
X59224285Y-72434819D01*
X103107000Y-83018041D02*
X103154619Y-83065661D01*
X103154619Y-83065661D02*
X103297476Y-83113280D01*
X103297476Y-83113280D02*
X103392714Y-83113280D01*
X103392714Y-83113280D02*
X103535571Y-83065661D01*
X103535571Y-83065661D02*
X103630809Y-82970422D01*
X103630809Y-82970422D02*
X103678428Y-82875184D01*
X103678428Y-82875184D02*
X103726047Y-82684708D01*
X103726047Y-82684708D02*
X103726047Y-82541851D01*
X103726047Y-82541851D02*
X103678428Y-82351375D01*
X103678428Y-82351375D02*
X103630809Y-82256137D01*
X103630809Y-82256137D02*
X103535571Y-82160899D01*
X103535571Y-82160899D02*
X103392714Y-82113280D01*
X103392714Y-82113280D02*
X103297476Y-82113280D01*
X103297476Y-82113280D02*
X103154619Y-82160899D01*
X103154619Y-82160899D02*
X103107000Y-82208518D01*
X102154619Y-83113280D02*
X102726047Y-83113280D01*
X102440333Y-83113280D02*
X102440333Y-82113280D01*
X102440333Y-82113280D02*
X102535571Y-82256137D01*
X102535571Y-82256137D02*
X102630809Y-82351375D01*
X102630809Y-82351375D02*
X102726047Y-82398994D01*
X101821285Y-82113280D02*
X101154619Y-82113280D01*
X101154619Y-82113280D02*
X101583190Y-83113280D01*
X108078333Y-75441009D02*
X108411666Y-75441009D01*
X108411666Y-75964819D02*
X108411666Y-74964819D01*
X108411666Y-74964819D02*
X107935476Y-74964819D01*
X107602142Y-75060057D02*
X107554523Y-75012438D01*
X107554523Y-75012438D02*
X107459285Y-74964819D01*
X107459285Y-74964819D02*
X107221190Y-74964819D01*
X107221190Y-74964819D02*
X107125952Y-75012438D01*
X107125952Y-75012438D02*
X107078333Y-75060057D01*
X107078333Y-75060057D02*
X107030714Y-75155295D01*
X107030714Y-75155295D02*
X107030714Y-75250533D01*
X107030714Y-75250533D02*
X107078333Y-75393390D01*
X107078333Y-75393390D02*
X107649761Y-75964819D01*
X107649761Y-75964819D02*
X107030714Y-75964819D01*
X119546666Y-75794819D02*
X119879999Y-75318628D01*
X120118094Y-75794819D02*
X120118094Y-74794819D01*
X120118094Y-74794819D02*
X119737142Y-74794819D01*
X119737142Y-74794819D02*
X119641904Y-74842438D01*
X119641904Y-74842438D02*
X119594285Y-74890057D01*
X119594285Y-74890057D02*
X119546666Y-74985295D01*
X119546666Y-74985295D02*
X119546666Y-75128152D01*
X119546666Y-75128152D02*
X119594285Y-75223390D01*
X119594285Y-75223390D02*
X119641904Y-75271009D01*
X119641904Y-75271009D02*
X119737142Y-75318628D01*
X119737142Y-75318628D02*
X120118094Y-75318628D01*
X118689523Y-74794819D02*
X118879999Y-74794819D01*
X118879999Y-74794819D02*
X118975237Y-74842438D01*
X118975237Y-74842438D02*
X119022856Y-74890057D01*
X119022856Y-74890057D02*
X119118094Y-75032914D01*
X119118094Y-75032914D02*
X119165713Y-75223390D01*
X119165713Y-75223390D02*
X119165713Y-75604342D01*
X119165713Y-75604342D02*
X119118094Y-75699580D01*
X119118094Y-75699580D02*
X119070475Y-75747200D01*
X119070475Y-75747200D02*
X118975237Y-75794819D01*
X118975237Y-75794819D02*
X118784761Y-75794819D01*
X118784761Y-75794819D02*
X118689523Y-75747200D01*
X118689523Y-75747200D02*
X118641904Y-75699580D01*
X118641904Y-75699580D02*
X118594285Y-75604342D01*
X118594285Y-75604342D02*
X118594285Y-75366247D01*
X118594285Y-75366247D02*
X118641904Y-75271009D01*
X118641904Y-75271009D02*
X118689523Y-75223390D01*
X118689523Y-75223390D02*
X118784761Y-75175771D01*
X118784761Y-75175771D02*
X118975237Y-75175771D01*
X118975237Y-75175771D02*
X119070475Y-75223390D01*
X119070475Y-75223390D02*
X119118094Y-75271009D01*
X119118094Y-75271009D02*
X119165713Y-75366247D01*
X103192857Y-77419580D02*
X103240476Y-77467200D01*
X103240476Y-77467200D02*
X103383333Y-77514819D01*
X103383333Y-77514819D02*
X103478571Y-77514819D01*
X103478571Y-77514819D02*
X103621428Y-77467200D01*
X103621428Y-77467200D02*
X103716666Y-77371961D01*
X103716666Y-77371961D02*
X103764285Y-77276723D01*
X103764285Y-77276723D02*
X103811904Y-77086247D01*
X103811904Y-77086247D02*
X103811904Y-76943390D01*
X103811904Y-76943390D02*
X103764285Y-76752914D01*
X103764285Y-76752914D02*
X103716666Y-76657676D01*
X103716666Y-76657676D02*
X103621428Y-76562438D01*
X103621428Y-76562438D02*
X103478571Y-76514819D01*
X103478571Y-76514819D02*
X103383333Y-76514819D01*
X103383333Y-76514819D02*
X103240476Y-76562438D01*
X103240476Y-76562438D02*
X103192857Y-76610057D01*
X102240476Y-77514819D02*
X102811904Y-77514819D01*
X102526190Y-77514819D02*
X102526190Y-76514819D01*
X102526190Y-76514819D02*
X102621428Y-76657676D01*
X102621428Y-76657676D02*
X102716666Y-76752914D01*
X102716666Y-76752914D02*
X102811904Y-76800533D01*
X101335714Y-76514819D02*
X101811904Y-76514819D01*
X101811904Y-76514819D02*
X101859523Y-76991009D01*
X101859523Y-76991009D02*
X101811904Y-76943390D01*
X101811904Y-76943390D02*
X101716666Y-76895771D01*
X101716666Y-76895771D02*
X101478571Y-76895771D01*
X101478571Y-76895771D02*
X101383333Y-76943390D01*
X101383333Y-76943390D02*
X101335714Y-76991009D01*
X101335714Y-76991009D02*
X101288095Y-77086247D01*
X101288095Y-77086247D02*
X101288095Y-77324342D01*
X101288095Y-77324342D02*
X101335714Y-77419580D01*
X101335714Y-77419580D02*
X101383333Y-77467200D01*
X101383333Y-77467200D02*
X101478571Y-77514819D01*
X101478571Y-77514819D02*
X101716666Y-77514819D01*
X101716666Y-77514819D02*
X101811904Y-77467200D01*
X101811904Y-77467200D02*
X101859523Y-77419580D01*
X114466666Y-75794819D02*
X114799999Y-75318628D01*
X115038094Y-75794819D02*
X115038094Y-74794819D01*
X115038094Y-74794819D02*
X114657142Y-74794819D01*
X114657142Y-74794819D02*
X114561904Y-74842438D01*
X114561904Y-74842438D02*
X114514285Y-74890057D01*
X114514285Y-74890057D02*
X114466666Y-74985295D01*
X114466666Y-74985295D02*
X114466666Y-75128152D01*
X114466666Y-75128152D02*
X114514285Y-75223390D01*
X114514285Y-75223390D02*
X114561904Y-75271009D01*
X114561904Y-75271009D02*
X114657142Y-75318628D01*
X114657142Y-75318628D02*
X115038094Y-75318628D01*
X113561904Y-74794819D02*
X114038094Y-74794819D01*
X114038094Y-74794819D02*
X114085713Y-75271009D01*
X114085713Y-75271009D02*
X114038094Y-75223390D01*
X114038094Y-75223390D02*
X113942856Y-75175771D01*
X113942856Y-75175771D02*
X113704761Y-75175771D01*
X113704761Y-75175771D02*
X113609523Y-75223390D01*
X113609523Y-75223390D02*
X113561904Y-75271009D01*
X113561904Y-75271009D02*
X113514285Y-75366247D01*
X113514285Y-75366247D02*
X113514285Y-75604342D01*
X113514285Y-75604342D02*
X113561904Y-75699580D01*
X113561904Y-75699580D02*
X113609523Y-75747200D01*
X113609523Y-75747200D02*
X113704761Y-75794819D01*
X113704761Y-75794819D02*
X113942856Y-75794819D01*
X113942856Y-75794819D02*
X114038094Y-75747200D01*
X114038094Y-75747200D02*
X114085713Y-75699580D01*
X56371617Y-48619580D02*
X56419236Y-48667200D01*
X56419236Y-48667200D02*
X56562093Y-48714819D01*
X56562093Y-48714819D02*
X56657331Y-48714819D01*
X56657331Y-48714819D02*
X56800188Y-48667200D01*
X56800188Y-48667200D02*
X56895426Y-48571961D01*
X56895426Y-48571961D02*
X56943045Y-48476723D01*
X56943045Y-48476723D02*
X56990664Y-48286247D01*
X56990664Y-48286247D02*
X56990664Y-48143390D01*
X56990664Y-48143390D02*
X56943045Y-47952914D01*
X56943045Y-47952914D02*
X56895426Y-47857676D01*
X56895426Y-47857676D02*
X56800188Y-47762438D01*
X56800188Y-47762438D02*
X56657331Y-47714819D01*
X56657331Y-47714819D02*
X56562093Y-47714819D01*
X56562093Y-47714819D02*
X56419236Y-47762438D01*
X56419236Y-47762438D02*
X56371617Y-47810057D01*
X55466855Y-47714819D02*
X55943045Y-47714819D01*
X55943045Y-47714819D02*
X55990664Y-48191009D01*
X55990664Y-48191009D02*
X55943045Y-48143390D01*
X55943045Y-48143390D02*
X55847807Y-48095771D01*
X55847807Y-48095771D02*
X55609712Y-48095771D01*
X55609712Y-48095771D02*
X55514474Y-48143390D01*
X55514474Y-48143390D02*
X55466855Y-48191009D01*
X55466855Y-48191009D02*
X55419236Y-48286247D01*
X55419236Y-48286247D02*
X55419236Y-48524342D01*
X55419236Y-48524342D02*
X55466855Y-48619580D01*
X55466855Y-48619580D02*
X55514474Y-48667200D01*
X55514474Y-48667200D02*
X55609712Y-48714819D01*
X55609712Y-48714819D02*
X55847807Y-48714819D01*
X55847807Y-48714819D02*
X55943045Y-48667200D01*
X55943045Y-48667200D02*
X55990664Y-48619580D01*
X127345323Y-69568338D02*
X127392942Y-69615958D01*
X127392942Y-69615958D02*
X127535799Y-69663577D01*
X127535799Y-69663577D02*
X127631037Y-69663577D01*
X127631037Y-69663577D02*
X127773894Y-69615958D01*
X127773894Y-69615958D02*
X127869132Y-69520719D01*
X127869132Y-69520719D02*
X127916751Y-69425481D01*
X127916751Y-69425481D02*
X127964370Y-69235005D01*
X127964370Y-69235005D02*
X127964370Y-69092148D01*
X127964370Y-69092148D02*
X127916751Y-68901672D01*
X127916751Y-68901672D02*
X127869132Y-68806434D01*
X127869132Y-68806434D02*
X127773894Y-68711196D01*
X127773894Y-68711196D02*
X127631037Y-68663577D01*
X127631037Y-68663577D02*
X127535799Y-68663577D01*
X127535799Y-68663577D02*
X127392942Y-68711196D01*
X127392942Y-68711196D02*
X127345323Y-68758815D01*
X126392942Y-69663577D02*
X126964370Y-69663577D01*
X126678656Y-69663577D02*
X126678656Y-68663577D01*
X126678656Y-68663577D02*
X126773894Y-68806434D01*
X126773894Y-68806434D02*
X126869132Y-68901672D01*
X126869132Y-68901672D02*
X126964370Y-68949291D01*
X126011989Y-68758815D02*
X125964370Y-68711196D01*
X125964370Y-68711196D02*
X125869132Y-68663577D01*
X125869132Y-68663577D02*
X125631037Y-68663577D01*
X125631037Y-68663577D02*
X125535799Y-68711196D01*
X125535799Y-68711196D02*
X125488180Y-68758815D01*
X125488180Y-68758815D02*
X125440561Y-68854053D01*
X125440561Y-68854053D02*
X125440561Y-68949291D01*
X125440561Y-68949291D02*
X125488180Y-69092148D01*
X125488180Y-69092148D02*
X126059608Y-69663577D01*
X126059608Y-69663577D02*
X125440561Y-69663577D01*
X96853333Y-44494819D02*
X96853333Y-45209104D01*
X96853333Y-45209104D02*
X96900952Y-45351961D01*
X96900952Y-45351961D02*
X96996190Y-45447200D01*
X96996190Y-45447200D02*
X97139047Y-45494819D01*
X97139047Y-45494819D02*
X97234285Y-45494819D01*
X96329523Y-45494819D02*
X96139047Y-45494819D01*
X96139047Y-45494819D02*
X96043809Y-45447200D01*
X96043809Y-45447200D02*
X95996190Y-45399580D01*
X95996190Y-45399580D02*
X95900952Y-45256723D01*
X95900952Y-45256723D02*
X95853333Y-45066247D01*
X95853333Y-45066247D02*
X95853333Y-44685295D01*
X95853333Y-44685295D02*
X95900952Y-44590057D01*
X95900952Y-44590057D02*
X95948571Y-44542438D01*
X95948571Y-44542438D02*
X96043809Y-44494819D01*
X96043809Y-44494819D02*
X96234285Y-44494819D01*
X96234285Y-44494819D02*
X96329523Y-44542438D01*
X96329523Y-44542438D02*
X96377142Y-44590057D01*
X96377142Y-44590057D02*
X96424761Y-44685295D01*
X96424761Y-44685295D02*
X96424761Y-44923390D01*
X96424761Y-44923390D02*
X96377142Y-45018628D01*
X96377142Y-45018628D02*
X96329523Y-45066247D01*
X96329523Y-45066247D02*
X96234285Y-45113866D01*
X96234285Y-45113866D02*
X96043809Y-45113866D01*
X96043809Y-45113866D02*
X95948571Y-45066247D01*
X95948571Y-45066247D02*
X95900952Y-45018628D01*
X95900952Y-45018628D02*
X95853333Y-44923390D01*
X54866666Y-72434819D02*
X55199999Y-71958628D01*
X55438094Y-72434819D02*
X55438094Y-71434819D01*
X55438094Y-71434819D02*
X55057142Y-71434819D01*
X55057142Y-71434819D02*
X54961904Y-71482438D01*
X54961904Y-71482438D02*
X54914285Y-71530057D01*
X54914285Y-71530057D02*
X54866666Y-71625295D01*
X54866666Y-71625295D02*
X54866666Y-71768152D01*
X54866666Y-71768152D02*
X54914285Y-71863390D01*
X54914285Y-71863390D02*
X54961904Y-71911009D01*
X54961904Y-71911009D02*
X55057142Y-71958628D01*
X55057142Y-71958628D02*
X55438094Y-71958628D01*
X54533332Y-71434819D02*
X53914285Y-71434819D01*
X53914285Y-71434819D02*
X54247618Y-71815771D01*
X54247618Y-71815771D02*
X54104761Y-71815771D01*
X54104761Y-71815771D02*
X54009523Y-71863390D01*
X54009523Y-71863390D02*
X53961904Y-71911009D01*
X53961904Y-71911009D02*
X53914285Y-72006247D01*
X53914285Y-72006247D02*
X53914285Y-72244342D01*
X53914285Y-72244342D02*
X53961904Y-72339580D01*
X53961904Y-72339580D02*
X54009523Y-72387200D01*
X54009523Y-72387200D02*
X54104761Y-72434819D01*
X54104761Y-72434819D02*
X54390475Y-72434819D01*
X54390475Y-72434819D02*
X54485713Y-72387200D01*
X54485713Y-72387200D02*
X54533332Y-72339580D01*
X48859580Y-65873333D02*
X48907200Y-65825714D01*
X48907200Y-65825714D02*
X48954819Y-65682857D01*
X48954819Y-65682857D02*
X48954819Y-65587619D01*
X48954819Y-65587619D02*
X48907200Y-65444762D01*
X48907200Y-65444762D02*
X48811961Y-65349524D01*
X48811961Y-65349524D02*
X48716723Y-65301905D01*
X48716723Y-65301905D02*
X48526247Y-65254286D01*
X48526247Y-65254286D02*
X48383390Y-65254286D01*
X48383390Y-65254286D02*
X48192914Y-65301905D01*
X48192914Y-65301905D02*
X48097676Y-65349524D01*
X48097676Y-65349524D02*
X48002438Y-65444762D01*
X48002438Y-65444762D02*
X47954819Y-65587619D01*
X47954819Y-65587619D02*
X47954819Y-65682857D01*
X47954819Y-65682857D02*
X48002438Y-65825714D01*
X48002438Y-65825714D02*
X48050057Y-65873333D01*
X47954819Y-66206667D02*
X47954819Y-66873333D01*
X47954819Y-66873333D02*
X48954819Y-66444762D01*
X132246666Y-63954819D02*
X132722856Y-63954819D01*
X132722856Y-63954819D02*
X132722856Y-62954819D01*
X131960951Y-63050057D02*
X131913332Y-63002438D01*
X131913332Y-63002438D02*
X131818094Y-62954819D01*
X131818094Y-62954819D02*
X131579999Y-62954819D01*
X131579999Y-62954819D02*
X131484761Y-63002438D01*
X131484761Y-63002438D02*
X131437142Y-63050057D01*
X131437142Y-63050057D02*
X131389523Y-63145295D01*
X131389523Y-63145295D02*
X131389523Y-63240533D01*
X131389523Y-63240533D02*
X131437142Y-63383390D01*
X131437142Y-63383390D02*
X132008570Y-63954819D01*
X132008570Y-63954819D02*
X131389523Y-63954819D01*
D11*
%TO.C,C11*%
X120096044Y-65407300D02*
X120096044Y-66829804D01*
X122816044Y-65407300D02*
X122816044Y-66829804D01*
%TO.C,C14*%
X102735216Y-90554596D02*
X102212712Y-90554596D01*
X102735216Y-89084596D02*
X102212712Y-89084596D01*
%TO.C,F1*%
X65938598Y-74628046D02*
X64516094Y-74628046D01*
X65938598Y-72808046D02*
X64516094Y-72808046D01*
%TO.C,C18*%
X69791252Y-79475000D02*
X69268748Y-79475000D01*
X69791252Y-78005000D02*
X69268748Y-78005000D01*
%TO.C,L1*%
X40060608Y-52993094D02*
X40060608Y-50093094D01*
X40060608Y-61543094D02*
X40060608Y-58593094D01*
X40760608Y-62193094D02*
X52260608Y-62193094D01*
X52260608Y-49393094D02*
X40760608Y-49393094D01*
X52960608Y-52993094D02*
X52960608Y-50093094D01*
X52960608Y-61493094D02*
X52960608Y-58593094D01*
X40760608Y-49393094D02*
G75*
G03*
X40060608Y-50093094I-1J-699999D01*
G01*
X40060608Y-61493094D02*
G75*
G03*
X40760608Y-62193094I699999J-1D01*
G01*
X52960608Y-50093094D02*
G75*
G03*
X52260608Y-49393094I-700000J0D01*
G01*
X52260608Y-62193094D02*
G75*
G03*
X52960608Y-61493094I0J700000D01*
G01*
%TO.C,R2*%
X60271252Y-74395000D02*
X59748748Y-74395000D01*
X60271252Y-72925000D02*
X59748748Y-72925000D01*
%TO.C,C17*%
X102725395Y-85073461D02*
X102202891Y-85073461D01*
X102725395Y-83603461D02*
X102202891Y-83603461D01*
%TO.C,F2*%
X107033748Y-72750000D02*
X108456252Y-72750000D01*
X107033748Y-74570000D02*
X108456252Y-74570000D01*
%TO.C,R6*%
X119118748Y-72925000D02*
X119641252Y-72925000D01*
X119118748Y-74395000D02*
X119641252Y-74395000D01*
%TO.C,C15*%
X102811252Y-79475000D02*
X102288748Y-79475000D01*
X102811252Y-78005000D02*
X102288748Y-78005000D01*
%TO.C,R5*%
X114038748Y-72925000D02*
X114561252Y-72925000D01*
X114038748Y-74395000D02*
X114561252Y-74395000D01*
%TO.C,C5*%
X53078748Y-47525000D02*
X53601252Y-47525000D01*
X53078748Y-48995000D02*
X53601252Y-48995000D01*
%TO.C,C12*%
X128062466Y-65407300D02*
X128062466Y-66829804D01*
X125342466Y-65407300D02*
X125342466Y-66829804D01*
%TO.C,J9*%
X94285000Y-37930000D02*
X98755000Y-37930000D01*
X94285000Y-38380000D02*
X94285000Y-37930000D01*
X94285000Y-41900000D02*
X94285000Y-42350000D01*
X94285000Y-42350000D02*
X95235000Y-42350000D01*
X95235000Y-42350000D02*
X95235000Y-43840000D01*
X98755000Y-37930000D02*
X98755000Y-38380000D01*
X98755000Y-41900000D02*
X98755000Y-42350000D01*
X98755000Y-42350000D02*
X97805000Y-42350000D01*
%TO.C,R3*%
X54961252Y-74395000D02*
X54438748Y-74395000D01*
X54961252Y-72925000D02*
X54438748Y-72925000D01*
%TO.C,C7*%
X52160000Y-65328748D02*
X52160000Y-66751252D01*
X49440000Y-65328748D02*
X49440000Y-66751252D01*
%TO.C,L2*%
X133450000Y-58300000D02*
X133450000Y-61200000D01*
X133450000Y-49750000D02*
X133450000Y-52700000D01*
X132750000Y-49100000D02*
X121250000Y-49100000D01*
X121250000Y-61900000D02*
X132750000Y-61900000D01*
X120550000Y-58300000D02*
X120550000Y-61200000D01*
X120550000Y-49800000D02*
X120550000Y-52700000D01*
X132750000Y-61900000D02*
G75*
G03*
X133450000Y-61200000I1J699999D01*
G01*
X133450000Y-49800000D02*
G75*
G03*
X132750000Y-49100000I-699999J1D01*
G01*
X120550000Y-61200000D02*
G75*
G03*
X121250000Y-61900000I700000J0D01*
G01*
X121250000Y-49100000D02*
G75*
G03*
X120550000Y-49800000I0J-700000D01*
G01*
%TD*%
M02*
