G04 EAGLE Gerber RS-274X export*
G75*
%MOMM*%
%FSLAX34Y34*%
%LPD*%
%INSilkscreen Bottom*%
%IPPOS*%
%AMOC8*
5,1,8,0,0,1.08239X$1,22.5*%
G01*
%ADD10C,0.127000*%
%ADD11C,0.152400*%
%ADD12C,0.100000*%
%ADD13C,0.076200*%
%ADD14C,0.609600*%
%ADD15C,0.228600*%


D10*
X322026Y324263D02*
X319737Y324263D01*
X319737Y316635D01*
X324314Y316635D01*
X324423Y316637D01*
X324532Y316643D01*
X324640Y316652D01*
X324748Y316666D01*
X324856Y316683D01*
X324963Y316705D01*
X325069Y316730D01*
X325174Y316759D01*
X325278Y316791D01*
X325380Y316827D01*
X325482Y316867D01*
X325581Y316911D01*
X325680Y316958D01*
X325776Y317008D01*
X325871Y317062D01*
X325964Y317119D01*
X326054Y317180D01*
X326142Y317244D01*
X326228Y317310D01*
X326312Y317380D01*
X326393Y317453D01*
X326471Y317529D01*
X326547Y317607D01*
X326620Y317688D01*
X326690Y317772D01*
X326756Y317858D01*
X326820Y317946D01*
X326881Y318037D01*
X326938Y318129D01*
X326992Y318224D01*
X327042Y318320D01*
X327089Y318419D01*
X327133Y318518D01*
X327173Y318620D01*
X327209Y318723D01*
X327241Y318826D01*
X327270Y318931D01*
X327295Y319037D01*
X327317Y319144D01*
X327334Y319252D01*
X327348Y319360D01*
X327357Y319468D01*
X327363Y319577D01*
X327365Y319686D01*
X327365Y327314D01*
X327363Y327423D01*
X327357Y327532D01*
X327348Y327640D01*
X327334Y327748D01*
X327317Y327856D01*
X327295Y327963D01*
X327270Y328069D01*
X327241Y328174D01*
X327209Y328277D01*
X327173Y328380D01*
X327133Y328482D01*
X327089Y328581D01*
X327042Y328680D01*
X326992Y328776D01*
X326938Y328871D01*
X326881Y328963D01*
X326820Y329054D01*
X326756Y329142D01*
X326690Y329228D01*
X326620Y329312D01*
X326547Y329393D01*
X326471Y329471D01*
X326393Y329547D01*
X326312Y329620D01*
X326228Y329690D01*
X326142Y329756D01*
X326054Y329820D01*
X325964Y329881D01*
X325871Y329938D01*
X325776Y329992D01*
X325680Y330042D01*
X325581Y330089D01*
X325482Y330133D01*
X325380Y330173D01*
X325278Y330209D01*
X325174Y330241D01*
X325069Y330270D01*
X324963Y330295D01*
X324856Y330317D01*
X324748Y330334D01*
X324640Y330348D01*
X324532Y330357D01*
X324423Y330363D01*
X324314Y330365D01*
X319737Y330365D01*
X313102Y325788D02*
X313102Y318923D01*
X313100Y318828D01*
X313094Y318734D01*
X313084Y318640D01*
X313071Y318546D01*
X313053Y318453D01*
X313032Y318361D01*
X313007Y318270D01*
X312978Y318180D01*
X312945Y318091D01*
X312909Y318004D01*
X312870Y317918D01*
X312826Y317834D01*
X312780Y317752D01*
X312729Y317672D01*
X312676Y317593D01*
X312620Y317518D01*
X312560Y317444D01*
X312497Y317373D01*
X312432Y317305D01*
X312364Y317240D01*
X312293Y317177D01*
X312219Y317117D01*
X312144Y317061D01*
X312065Y317008D01*
X311985Y316957D01*
X311903Y316911D01*
X311819Y316867D01*
X311733Y316828D01*
X311646Y316792D01*
X311557Y316759D01*
X311467Y316730D01*
X311376Y316705D01*
X311284Y316684D01*
X311191Y316666D01*
X311097Y316653D01*
X311003Y316643D01*
X310909Y316637D01*
X310814Y316635D01*
X307000Y316635D01*
X307000Y325788D01*
X298648Y316635D02*
X295597Y316635D01*
X298648Y316635D02*
X298743Y316637D01*
X298837Y316643D01*
X298931Y316653D01*
X299025Y316666D01*
X299118Y316684D01*
X299210Y316705D01*
X299301Y316730D01*
X299391Y316759D01*
X299480Y316792D01*
X299567Y316828D01*
X299653Y316867D01*
X299737Y316911D01*
X299819Y316957D01*
X299899Y317008D01*
X299978Y317061D01*
X300053Y317117D01*
X300127Y317177D01*
X300198Y317240D01*
X300266Y317305D01*
X300331Y317373D01*
X300394Y317444D01*
X300454Y317518D01*
X300510Y317593D01*
X300563Y317672D01*
X300614Y317752D01*
X300660Y317834D01*
X300704Y317918D01*
X300743Y318004D01*
X300779Y318091D01*
X300812Y318180D01*
X300841Y318270D01*
X300866Y318361D01*
X300887Y318453D01*
X300905Y318546D01*
X300918Y318640D01*
X300928Y318734D01*
X300934Y318828D01*
X300936Y318923D01*
X300936Y323500D01*
X300934Y323595D01*
X300928Y323689D01*
X300918Y323783D01*
X300905Y323877D01*
X300887Y323970D01*
X300866Y324062D01*
X300841Y324153D01*
X300812Y324243D01*
X300779Y324332D01*
X300743Y324419D01*
X300704Y324505D01*
X300660Y324589D01*
X300614Y324671D01*
X300563Y324751D01*
X300510Y324830D01*
X300454Y324905D01*
X300394Y324979D01*
X300331Y325050D01*
X300266Y325118D01*
X300198Y325183D01*
X300127Y325246D01*
X300053Y325306D01*
X299978Y325362D01*
X299899Y325415D01*
X299819Y325466D01*
X299737Y325512D01*
X299653Y325556D01*
X299567Y325595D01*
X299480Y325631D01*
X299391Y325664D01*
X299301Y325693D01*
X299210Y325718D01*
X299118Y325739D01*
X299025Y325757D01*
X298931Y325770D01*
X298837Y325780D01*
X298743Y325786D01*
X298648Y325788D01*
X295597Y325788D01*
X288298Y316635D02*
X285247Y316635D01*
X288298Y316635D02*
X288393Y316637D01*
X288487Y316643D01*
X288581Y316653D01*
X288675Y316666D01*
X288768Y316684D01*
X288860Y316705D01*
X288951Y316730D01*
X289041Y316759D01*
X289130Y316792D01*
X289217Y316828D01*
X289303Y316867D01*
X289387Y316911D01*
X289469Y316957D01*
X289549Y317008D01*
X289628Y317061D01*
X289703Y317117D01*
X289777Y317177D01*
X289848Y317240D01*
X289916Y317305D01*
X289981Y317373D01*
X290044Y317444D01*
X290104Y317518D01*
X290160Y317593D01*
X290213Y317672D01*
X290264Y317752D01*
X290310Y317834D01*
X290354Y317918D01*
X290393Y318004D01*
X290429Y318091D01*
X290462Y318180D01*
X290491Y318270D01*
X290516Y318361D01*
X290537Y318453D01*
X290555Y318546D01*
X290568Y318640D01*
X290578Y318734D01*
X290584Y318828D01*
X290586Y318923D01*
X290586Y323500D01*
X290584Y323595D01*
X290578Y323689D01*
X290568Y323783D01*
X290555Y323877D01*
X290537Y323970D01*
X290516Y324062D01*
X290491Y324153D01*
X290462Y324243D01*
X290429Y324332D01*
X290393Y324419D01*
X290354Y324505D01*
X290310Y324589D01*
X290264Y324671D01*
X290213Y324751D01*
X290160Y324830D01*
X290104Y324905D01*
X290044Y324979D01*
X289981Y325050D01*
X289916Y325118D01*
X289848Y325183D01*
X289777Y325246D01*
X289703Y325306D01*
X289628Y325362D01*
X289549Y325415D01*
X289469Y325466D01*
X289387Y325512D01*
X289303Y325556D01*
X289217Y325595D01*
X289130Y325631D01*
X289041Y325664D01*
X288951Y325693D01*
X288860Y325718D01*
X288768Y325739D01*
X288675Y325757D01*
X288581Y325770D01*
X288487Y325780D01*
X288393Y325786D01*
X288298Y325788D01*
X285247Y325788D01*
X280351Y325788D02*
X280351Y316635D01*
X280733Y329602D02*
X280733Y330365D01*
X279970Y330365D01*
X279970Y329602D01*
X280733Y329602D01*
X264504Y316635D02*
X261453Y316635D01*
X264504Y316635D02*
X264613Y316637D01*
X264722Y316643D01*
X264830Y316652D01*
X264938Y316666D01*
X265046Y316683D01*
X265153Y316705D01*
X265259Y316730D01*
X265364Y316759D01*
X265468Y316791D01*
X265570Y316827D01*
X265672Y316867D01*
X265771Y316911D01*
X265870Y316958D01*
X265966Y317008D01*
X266061Y317062D01*
X266154Y317119D01*
X266244Y317180D01*
X266332Y317244D01*
X266418Y317310D01*
X266502Y317380D01*
X266583Y317453D01*
X266661Y317529D01*
X266737Y317607D01*
X266810Y317688D01*
X266880Y317772D01*
X266946Y317858D01*
X267010Y317946D01*
X267071Y318037D01*
X267128Y318129D01*
X267182Y318224D01*
X267232Y318320D01*
X267279Y318419D01*
X267323Y318518D01*
X267363Y318620D01*
X267399Y318723D01*
X267431Y318826D01*
X267460Y318931D01*
X267485Y319037D01*
X267507Y319144D01*
X267524Y319252D01*
X267538Y319360D01*
X267547Y319468D01*
X267553Y319577D01*
X267555Y319686D01*
X267556Y319686D02*
X267556Y327314D01*
X267555Y327314D02*
X267553Y327423D01*
X267547Y327532D01*
X267538Y327640D01*
X267524Y327748D01*
X267507Y327856D01*
X267485Y327963D01*
X267460Y328069D01*
X267431Y328174D01*
X267399Y328277D01*
X267363Y328380D01*
X267323Y328482D01*
X267279Y328581D01*
X267232Y328680D01*
X267182Y328776D01*
X267128Y328871D01*
X267071Y328963D01*
X267010Y329054D01*
X266946Y329142D01*
X266880Y329228D01*
X266810Y329312D01*
X266737Y329393D01*
X266661Y329471D01*
X266583Y329547D01*
X266502Y329620D01*
X266418Y329690D01*
X266332Y329756D01*
X266244Y329820D01*
X266154Y329881D01*
X266061Y329938D01*
X265966Y329992D01*
X265870Y330042D01*
X265771Y330089D01*
X265672Y330133D01*
X265570Y330173D01*
X265468Y330209D01*
X265364Y330241D01*
X265259Y330270D01*
X265153Y330295D01*
X265046Y330317D01*
X264938Y330334D01*
X264830Y330348D01*
X264722Y330357D01*
X264613Y330363D01*
X264504Y330365D01*
X261453Y330365D01*
X256402Y322737D02*
X256402Y319686D01*
X256402Y322737D02*
X256400Y322846D01*
X256394Y322955D01*
X256385Y323063D01*
X256371Y323171D01*
X256354Y323279D01*
X256332Y323386D01*
X256307Y323492D01*
X256278Y323597D01*
X256246Y323701D01*
X256210Y323803D01*
X256170Y323905D01*
X256126Y324004D01*
X256079Y324103D01*
X256029Y324199D01*
X255975Y324294D01*
X255918Y324386D01*
X255857Y324477D01*
X255793Y324565D01*
X255727Y324651D01*
X255657Y324735D01*
X255584Y324816D01*
X255508Y324894D01*
X255430Y324970D01*
X255349Y325043D01*
X255265Y325113D01*
X255179Y325179D01*
X255091Y325243D01*
X255000Y325304D01*
X254908Y325361D01*
X254813Y325415D01*
X254717Y325465D01*
X254618Y325512D01*
X254519Y325556D01*
X254417Y325596D01*
X254315Y325632D01*
X254211Y325664D01*
X254106Y325693D01*
X254000Y325718D01*
X253893Y325740D01*
X253785Y325757D01*
X253677Y325771D01*
X253569Y325780D01*
X253460Y325786D01*
X253351Y325788D01*
X253242Y325786D01*
X253133Y325780D01*
X253025Y325771D01*
X252917Y325757D01*
X252809Y325740D01*
X252702Y325718D01*
X252596Y325693D01*
X252491Y325664D01*
X252387Y325632D01*
X252285Y325596D01*
X252183Y325556D01*
X252084Y325512D01*
X251985Y325465D01*
X251889Y325415D01*
X251794Y325361D01*
X251702Y325304D01*
X251611Y325243D01*
X251523Y325179D01*
X251437Y325113D01*
X251353Y325043D01*
X251272Y324970D01*
X251194Y324894D01*
X251118Y324816D01*
X251045Y324735D01*
X250975Y324651D01*
X250909Y324565D01*
X250845Y324477D01*
X250784Y324386D01*
X250727Y324294D01*
X250673Y324199D01*
X250623Y324103D01*
X250576Y324004D01*
X250532Y323905D01*
X250492Y323803D01*
X250456Y323701D01*
X250424Y323597D01*
X250395Y323492D01*
X250370Y323386D01*
X250348Y323279D01*
X250331Y323171D01*
X250317Y323063D01*
X250308Y322955D01*
X250302Y322846D01*
X250300Y322737D01*
X250300Y319686D01*
X250302Y319577D01*
X250308Y319468D01*
X250317Y319360D01*
X250331Y319252D01*
X250348Y319144D01*
X250370Y319037D01*
X250395Y318931D01*
X250424Y318826D01*
X250456Y318722D01*
X250492Y318620D01*
X250532Y318518D01*
X250576Y318419D01*
X250623Y318320D01*
X250673Y318224D01*
X250727Y318129D01*
X250784Y318037D01*
X250845Y317946D01*
X250909Y317858D01*
X250975Y317772D01*
X251045Y317688D01*
X251118Y317607D01*
X251194Y317529D01*
X251272Y317453D01*
X251353Y317380D01*
X251437Y317310D01*
X251523Y317244D01*
X251611Y317180D01*
X251702Y317119D01*
X251794Y317062D01*
X251889Y317008D01*
X251985Y316958D01*
X252084Y316911D01*
X252183Y316867D01*
X252285Y316827D01*
X252387Y316791D01*
X252491Y316759D01*
X252596Y316730D01*
X252702Y316705D01*
X252809Y316683D01*
X252917Y316666D01*
X253025Y316652D01*
X253133Y316643D01*
X253242Y316637D01*
X253351Y316635D01*
X253460Y316637D01*
X253569Y316643D01*
X253677Y316652D01*
X253785Y316666D01*
X253893Y316683D01*
X254000Y316705D01*
X254106Y316730D01*
X254211Y316759D01*
X254315Y316791D01*
X254417Y316827D01*
X254519Y316867D01*
X254618Y316911D01*
X254717Y316958D01*
X254813Y317008D01*
X254908Y317062D01*
X255000Y317119D01*
X255091Y317180D01*
X255179Y317244D01*
X255265Y317310D01*
X255349Y317380D01*
X255430Y317453D01*
X255508Y317529D01*
X255584Y317607D01*
X255657Y317688D01*
X255727Y317772D01*
X255793Y317858D01*
X255857Y317946D01*
X255918Y318037D01*
X255975Y318129D01*
X256029Y318224D01*
X256079Y318320D01*
X256126Y318419D01*
X256170Y318518D01*
X256210Y318620D01*
X256246Y318722D01*
X256278Y318826D01*
X256307Y318931D01*
X256332Y319037D01*
X256354Y319144D01*
X256371Y319252D01*
X256385Y319360D01*
X256394Y319468D01*
X256400Y319577D01*
X256402Y319686D01*
X244252Y316635D02*
X244252Y325788D01*
X240439Y325788D01*
X240344Y325786D01*
X240250Y325780D01*
X240156Y325770D01*
X240062Y325757D01*
X239969Y325739D01*
X239877Y325718D01*
X239786Y325693D01*
X239696Y325664D01*
X239607Y325631D01*
X239520Y325595D01*
X239434Y325556D01*
X239350Y325512D01*
X239268Y325466D01*
X239188Y325415D01*
X239110Y325362D01*
X239034Y325306D01*
X238960Y325246D01*
X238889Y325183D01*
X238821Y325118D01*
X238756Y325050D01*
X238693Y324979D01*
X238633Y324905D01*
X238577Y324830D01*
X238524Y324751D01*
X238474Y324671D01*
X238427Y324589D01*
X238384Y324505D01*
X238344Y324419D01*
X238308Y324332D01*
X238275Y324243D01*
X238246Y324153D01*
X238221Y324062D01*
X238200Y323970D01*
X238182Y323877D01*
X238169Y323783D01*
X238159Y323689D01*
X238153Y323595D01*
X238151Y323500D01*
X238150Y323500D02*
X238150Y316635D01*
X233252Y325788D02*
X228675Y325788D01*
X231726Y330365D02*
X231726Y318923D01*
X231724Y318828D01*
X231718Y318734D01*
X231708Y318640D01*
X231695Y318546D01*
X231677Y318453D01*
X231656Y318361D01*
X231631Y318270D01*
X231602Y318180D01*
X231569Y318091D01*
X231533Y318004D01*
X231494Y317918D01*
X231450Y317834D01*
X231404Y317752D01*
X231353Y317672D01*
X231300Y317593D01*
X231244Y317518D01*
X231184Y317444D01*
X231121Y317373D01*
X231056Y317305D01*
X230988Y317240D01*
X230917Y317177D01*
X230843Y317117D01*
X230768Y317061D01*
X230689Y317008D01*
X230609Y316957D01*
X230527Y316911D01*
X230443Y316867D01*
X230357Y316828D01*
X230270Y316792D01*
X230181Y316759D01*
X230091Y316730D01*
X230000Y316705D01*
X229908Y316684D01*
X229815Y316666D01*
X229721Y316653D01*
X229627Y316643D01*
X229533Y316637D01*
X229438Y316635D01*
X228675Y316635D01*
X223022Y316635D02*
X223022Y325788D01*
X218445Y325788D01*
X218445Y324263D01*
X214103Y322737D02*
X214103Y319686D01*
X214102Y322737D02*
X214100Y322846D01*
X214094Y322955D01*
X214085Y323063D01*
X214071Y323171D01*
X214054Y323279D01*
X214032Y323386D01*
X214007Y323492D01*
X213978Y323597D01*
X213946Y323701D01*
X213910Y323803D01*
X213870Y323905D01*
X213826Y324004D01*
X213779Y324103D01*
X213729Y324199D01*
X213675Y324294D01*
X213618Y324386D01*
X213557Y324477D01*
X213493Y324565D01*
X213427Y324651D01*
X213357Y324735D01*
X213284Y324816D01*
X213208Y324894D01*
X213130Y324970D01*
X213049Y325043D01*
X212965Y325113D01*
X212879Y325179D01*
X212791Y325243D01*
X212700Y325304D01*
X212608Y325361D01*
X212513Y325415D01*
X212417Y325465D01*
X212318Y325512D01*
X212219Y325556D01*
X212117Y325596D01*
X212015Y325632D01*
X211911Y325664D01*
X211806Y325693D01*
X211700Y325718D01*
X211593Y325740D01*
X211485Y325757D01*
X211377Y325771D01*
X211269Y325780D01*
X211160Y325786D01*
X211051Y325788D01*
X210942Y325786D01*
X210833Y325780D01*
X210725Y325771D01*
X210617Y325757D01*
X210509Y325740D01*
X210402Y325718D01*
X210296Y325693D01*
X210191Y325664D01*
X210087Y325632D01*
X209985Y325596D01*
X209883Y325556D01*
X209784Y325512D01*
X209685Y325465D01*
X209589Y325415D01*
X209494Y325361D01*
X209402Y325304D01*
X209311Y325243D01*
X209223Y325179D01*
X209137Y325113D01*
X209053Y325043D01*
X208972Y324970D01*
X208894Y324894D01*
X208818Y324816D01*
X208745Y324735D01*
X208675Y324651D01*
X208609Y324565D01*
X208545Y324477D01*
X208484Y324386D01*
X208427Y324294D01*
X208373Y324199D01*
X208323Y324103D01*
X208276Y324004D01*
X208232Y323905D01*
X208192Y323803D01*
X208156Y323701D01*
X208124Y323597D01*
X208095Y323492D01*
X208070Y323386D01*
X208048Y323279D01*
X208031Y323171D01*
X208017Y323063D01*
X208008Y322955D01*
X208002Y322846D01*
X208000Y322737D01*
X208000Y319686D01*
X208002Y319577D01*
X208008Y319468D01*
X208017Y319360D01*
X208031Y319252D01*
X208048Y319144D01*
X208070Y319037D01*
X208095Y318931D01*
X208124Y318826D01*
X208156Y318722D01*
X208192Y318620D01*
X208232Y318518D01*
X208276Y318419D01*
X208323Y318320D01*
X208373Y318224D01*
X208427Y318129D01*
X208484Y318037D01*
X208545Y317946D01*
X208609Y317858D01*
X208675Y317772D01*
X208745Y317688D01*
X208818Y317607D01*
X208894Y317529D01*
X208972Y317453D01*
X209053Y317380D01*
X209137Y317310D01*
X209223Y317244D01*
X209311Y317180D01*
X209402Y317119D01*
X209494Y317062D01*
X209589Y317008D01*
X209685Y316958D01*
X209784Y316911D01*
X209883Y316867D01*
X209985Y316827D01*
X210087Y316791D01*
X210191Y316759D01*
X210296Y316730D01*
X210402Y316705D01*
X210509Y316683D01*
X210617Y316666D01*
X210725Y316652D01*
X210833Y316643D01*
X210942Y316637D01*
X211051Y316635D01*
X211160Y316637D01*
X211269Y316643D01*
X211377Y316652D01*
X211485Y316666D01*
X211593Y316683D01*
X211700Y316705D01*
X211806Y316730D01*
X211911Y316759D01*
X212015Y316791D01*
X212117Y316827D01*
X212219Y316867D01*
X212318Y316911D01*
X212417Y316958D01*
X212513Y317008D01*
X212608Y317062D01*
X212700Y317119D01*
X212791Y317180D01*
X212879Y317244D01*
X212965Y317310D01*
X213049Y317380D01*
X213130Y317453D01*
X213208Y317529D01*
X213284Y317607D01*
X213357Y317688D01*
X213427Y317772D01*
X213493Y317858D01*
X213557Y317946D01*
X213618Y318037D01*
X213675Y318129D01*
X213729Y318224D01*
X213779Y318320D01*
X213826Y318419D01*
X213870Y318518D01*
X213910Y318620D01*
X213946Y318722D01*
X213978Y318826D01*
X214007Y318931D01*
X214032Y319037D01*
X214054Y319144D01*
X214071Y319252D01*
X214085Y319360D01*
X214094Y319468D01*
X214100Y319577D01*
X214102Y319686D01*
X202234Y318923D02*
X202234Y330365D01*
X202234Y318923D02*
X202232Y318828D01*
X202226Y318734D01*
X202216Y318640D01*
X202203Y318546D01*
X202185Y318453D01*
X202164Y318361D01*
X202139Y318270D01*
X202110Y318180D01*
X202077Y318091D01*
X202041Y318004D01*
X202002Y317918D01*
X201958Y317834D01*
X201912Y317752D01*
X201861Y317672D01*
X201808Y317593D01*
X201752Y317518D01*
X201692Y317444D01*
X201629Y317373D01*
X201564Y317305D01*
X201496Y317240D01*
X201425Y317177D01*
X201351Y317117D01*
X201276Y317061D01*
X201197Y317008D01*
X201117Y316957D01*
X201035Y316911D01*
X200951Y316867D01*
X200865Y316828D01*
X200778Y316792D01*
X200689Y316759D01*
X200599Y316730D01*
X200508Y316705D01*
X200416Y316684D01*
X200323Y316666D01*
X200229Y316653D01*
X200135Y316643D01*
X200041Y316637D01*
X199946Y316635D01*
X195034Y318923D02*
X195034Y330365D01*
X195034Y318923D02*
X195032Y318828D01*
X195026Y318734D01*
X195016Y318640D01*
X195003Y318546D01*
X194985Y318453D01*
X194964Y318361D01*
X194939Y318270D01*
X194910Y318180D01*
X194877Y318091D01*
X194841Y318004D01*
X194802Y317918D01*
X194758Y317834D01*
X194712Y317752D01*
X194661Y317672D01*
X194608Y317593D01*
X194552Y317518D01*
X194492Y317444D01*
X194429Y317373D01*
X194364Y317305D01*
X194296Y317240D01*
X194225Y317177D01*
X194151Y317117D01*
X194076Y317061D01*
X193997Y317008D01*
X193917Y316957D01*
X193835Y316911D01*
X193751Y316867D01*
X193665Y316828D01*
X193578Y316792D01*
X193489Y316759D01*
X193399Y316730D01*
X193308Y316705D01*
X193216Y316684D01*
X193123Y316666D01*
X193029Y316653D01*
X192935Y316643D01*
X192841Y316637D01*
X192746Y316635D01*
X185714Y316635D02*
X181900Y316635D01*
X185714Y316635D02*
X185809Y316637D01*
X185903Y316643D01*
X185997Y316653D01*
X186091Y316666D01*
X186184Y316684D01*
X186276Y316705D01*
X186367Y316730D01*
X186457Y316759D01*
X186546Y316792D01*
X186633Y316828D01*
X186719Y316867D01*
X186803Y316911D01*
X186885Y316957D01*
X186965Y317008D01*
X187044Y317061D01*
X187119Y317117D01*
X187193Y317177D01*
X187264Y317240D01*
X187332Y317305D01*
X187397Y317373D01*
X187460Y317444D01*
X187520Y317518D01*
X187576Y317593D01*
X187629Y317672D01*
X187680Y317752D01*
X187726Y317834D01*
X187770Y317918D01*
X187809Y318004D01*
X187845Y318091D01*
X187878Y318180D01*
X187907Y318270D01*
X187932Y318361D01*
X187953Y318453D01*
X187971Y318546D01*
X187984Y318640D01*
X187994Y318734D01*
X188000Y318828D01*
X188002Y318923D01*
X188003Y318923D02*
X188003Y322737D01*
X188001Y322846D01*
X187995Y322955D01*
X187986Y323063D01*
X187972Y323171D01*
X187955Y323279D01*
X187933Y323386D01*
X187908Y323492D01*
X187879Y323597D01*
X187847Y323701D01*
X187811Y323803D01*
X187771Y323905D01*
X187727Y324004D01*
X187680Y324103D01*
X187630Y324199D01*
X187576Y324294D01*
X187519Y324386D01*
X187458Y324477D01*
X187394Y324565D01*
X187328Y324651D01*
X187258Y324735D01*
X187185Y324816D01*
X187109Y324894D01*
X187031Y324970D01*
X186950Y325043D01*
X186866Y325113D01*
X186780Y325179D01*
X186692Y325243D01*
X186601Y325304D01*
X186509Y325361D01*
X186414Y325415D01*
X186318Y325465D01*
X186219Y325512D01*
X186120Y325556D01*
X186018Y325596D01*
X185916Y325632D01*
X185812Y325664D01*
X185707Y325693D01*
X185601Y325718D01*
X185494Y325740D01*
X185386Y325757D01*
X185278Y325771D01*
X185170Y325780D01*
X185061Y325786D01*
X184952Y325788D01*
X184843Y325786D01*
X184734Y325780D01*
X184626Y325771D01*
X184518Y325757D01*
X184410Y325740D01*
X184303Y325718D01*
X184197Y325693D01*
X184092Y325664D01*
X183988Y325632D01*
X183886Y325596D01*
X183784Y325556D01*
X183685Y325512D01*
X183586Y325465D01*
X183490Y325415D01*
X183395Y325361D01*
X183303Y325304D01*
X183212Y325243D01*
X183124Y325179D01*
X183038Y325113D01*
X182954Y325043D01*
X182873Y324970D01*
X182795Y324894D01*
X182719Y324816D01*
X182646Y324735D01*
X182576Y324651D01*
X182510Y324565D01*
X182446Y324477D01*
X182385Y324386D01*
X182328Y324294D01*
X182274Y324199D01*
X182224Y324103D01*
X182177Y324004D01*
X182133Y323905D01*
X182093Y323803D01*
X182057Y323701D01*
X182025Y323597D01*
X181996Y323492D01*
X181971Y323386D01*
X181949Y323279D01*
X181932Y323171D01*
X181918Y323063D01*
X181909Y322955D01*
X181903Y322846D01*
X181901Y322737D01*
X181900Y322737D02*
X181900Y321212D01*
X188003Y321212D01*
X175772Y325788D02*
X175772Y316635D01*
X175772Y325788D02*
X171195Y325788D01*
X171195Y324263D01*
X158860Y324263D02*
X155046Y324263D01*
X154924Y324261D01*
X154802Y324255D01*
X154680Y324245D01*
X154558Y324232D01*
X154437Y324214D01*
X154317Y324193D01*
X154197Y324167D01*
X154079Y324138D01*
X153961Y324105D01*
X153844Y324069D01*
X153729Y324028D01*
X153615Y323984D01*
X153502Y323937D01*
X153391Y323885D01*
X153282Y323830D01*
X153174Y323772D01*
X153069Y323711D01*
X152965Y323645D01*
X152864Y323577D01*
X152765Y323506D01*
X152668Y323431D01*
X152574Y323353D01*
X152482Y323272D01*
X152393Y323189D01*
X152306Y323102D01*
X152223Y323013D01*
X152142Y322921D01*
X152064Y322827D01*
X151989Y322730D01*
X151918Y322631D01*
X151850Y322530D01*
X151784Y322426D01*
X151723Y322321D01*
X151665Y322213D01*
X151610Y322104D01*
X151558Y321993D01*
X151511Y321880D01*
X151467Y321766D01*
X151426Y321651D01*
X151390Y321534D01*
X151357Y321416D01*
X151328Y321298D01*
X151302Y321178D01*
X151281Y321058D01*
X151263Y320937D01*
X151250Y320815D01*
X151240Y320693D01*
X151234Y320571D01*
X151232Y320449D01*
X151234Y320327D01*
X151240Y320205D01*
X151250Y320083D01*
X151263Y319961D01*
X151281Y319840D01*
X151302Y319720D01*
X151328Y319600D01*
X151357Y319482D01*
X151390Y319364D01*
X151426Y319247D01*
X151467Y319132D01*
X151511Y319018D01*
X151558Y318905D01*
X151610Y318794D01*
X151665Y318685D01*
X151723Y318577D01*
X151784Y318472D01*
X151850Y318368D01*
X151918Y318267D01*
X151989Y318168D01*
X152064Y318071D01*
X152142Y317977D01*
X152223Y317885D01*
X152306Y317796D01*
X152393Y317709D01*
X152482Y317626D01*
X152574Y317545D01*
X152668Y317467D01*
X152765Y317392D01*
X152864Y317321D01*
X152965Y317253D01*
X153069Y317187D01*
X153174Y317126D01*
X153282Y317068D01*
X153391Y317013D01*
X153502Y316961D01*
X153615Y316914D01*
X153729Y316870D01*
X153844Y316829D01*
X153961Y316793D01*
X154079Y316760D01*
X154197Y316731D01*
X154317Y316705D01*
X154437Y316684D01*
X154558Y316666D01*
X154680Y316653D01*
X154802Y316643D01*
X154924Y316637D01*
X155046Y316635D01*
X158860Y316635D01*
X158860Y330365D01*
X155046Y330365D01*
X154937Y330363D01*
X154828Y330357D01*
X154720Y330348D01*
X154612Y330334D01*
X154504Y330317D01*
X154397Y330295D01*
X154291Y330270D01*
X154186Y330241D01*
X154082Y330209D01*
X153980Y330173D01*
X153878Y330133D01*
X153779Y330089D01*
X153680Y330042D01*
X153584Y329992D01*
X153489Y329938D01*
X153397Y329881D01*
X153306Y329820D01*
X153218Y329756D01*
X153132Y329690D01*
X153048Y329620D01*
X152967Y329547D01*
X152889Y329471D01*
X152813Y329393D01*
X152740Y329312D01*
X152670Y329228D01*
X152604Y329142D01*
X152540Y329054D01*
X152479Y328963D01*
X152422Y328871D01*
X152368Y328776D01*
X152318Y328680D01*
X152271Y328581D01*
X152227Y328482D01*
X152187Y328380D01*
X152151Y328278D01*
X152119Y328174D01*
X152090Y328069D01*
X152065Y327963D01*
X152043Y327856D01*
X152026Y327748D01*
X152012Y327640D01*
X152003Y327532D01*
X151997Y327423D01*
X151995Y327314D01*
X151997Y327205D01*
X152003Y327096D01*
X152012Y326988D01*
X152026Y326880D01*
X152043Y326772D01*
X152065Y326665D01*
X152090Y326559D01*
X152119Y326454D01*
X152151Y326350D01*
X152187Y326248D01*
X152227Y326146D01*
X152271Y326047D01*
X152318Y325948D01*
X152368Y325852D01*
X152422Y325757D01*
X152479Y325665D01*
X152540Y325574D01*
X152604Y325486D01*
X152670Y325400D01*
X152740Y325316D01*
X152813Y325235D01*
X152889Y325157D01*
X152967Y325081D01*
X153048Y325008D01*
X153132Y324938D01*
X153218Y324872D01*
X153306Y324808D01*
X153397Y324747D01*
X153489Y324690D01*
X153584Y324636D01*
X153680Y324586D01*
X153779Y324539D01*
X153878Y324495D01*
X153980Y324455D01*
X154082Y324419D01*
X154186Y324387D01*
X154291Y324358D01*
X154397Y324333D01*
X154504Y324311D01*
X154612Y324294D01*
X154720Y324280D01*
X154828Y324271D01*
X154937Y324265D01*
X155046Y324263D01*
X146153Y322737D02*
X146153Y319686D01*
X146153Y322737D02*
X146151Y322846D01*
X146145Y322955D01*
X146136Y323063D01*
X146122Y323171D01*
X146105Y323279D01*
X146083Y323386D01*
X146058Y323492D01*
X146029Y323597D01*
X145997Y323701D01*
X145961Y323803D01*
X145921Y323905D01*
X145877Y324004D01*
X145830Y324103D01*
X145780Y324199D01*
X145726Y324294D01*
X145669Y324386D01*
X145608Y324477D01*
X145544Y324565D01*
X145478Y324651D01*
X145408Y324735D01*
X145335Y324816D01*
X145259Y324894D01*
X145181Y324970D01*
X145100Y325043D01*
X145016Y325113D01*
X144930Y325179D01*
X144842Y325243D01*
X144751Y325304D01*
X144659Y325361D01*
X144564Y325415D01*
X144468Y325465D01*
X144369Y325512D01*
X144270Y325556D01*
X144168Y325596D01*
X144066Y325632D01*
X143962Y325664D01*
X143857Y325693D01*
X143751Y325718D01*
X143644Y325740D01*
X143536Y325757D01*
X143428Y325771D01*
X143320Y325780D01*
X143211Y325786D01*
X143102Y325788D01*
X142993Y325786D01*
X142884Y325780D01*
X142776Y325771D01*
X142668Y325757D01*
X142560Y325740D01*
X142453Y325718D01*
X142347Y325693D01*
X142242Y325664D01*
X142138Y325632D01*
X142036Y325596D01*
X141934Y325556D01*
X141835Y325512D01*
X141736Y325465D01*
X141640Y325415D01*
X141545Y325361D01*
X141453Y325304D01*
X141362Y325243D01*
X141274Y325179D01*
X141188Y325113D01*
X141104Y325043D01*
X141023Y324970D01*
X140945Y324894D01*
X140869Y324816D01*
X140796Y324735D01*
X140726Y324651D01*
X140660Y324565D01*
X140596Y324477D01*
X140535Y324386D01*
X140478Y324294D01*
X140424Y324199D01*
X140374Y324103D01*
X140327Y324004D01*
X140283Y323905D01*
X140243Y323803D01*
X140207Y323701D01*
X140175Y323597D01*
X140146Y323492D01*
X140121Y323386D01*
X140099Y323279D01*
X140082Y323171D01*
X140068Y323063D01*
X140059Y322955D01*
X140053Y322846D01*
X140051Y322737D01*
X140051Y319686D01*
X140053Y319577D01*
X140059Y319468D01*
X140068Y319360D01*
X140082Y319252D01*
X140099Y319144D01*
X140121Y319037D01*
X140146Y318931D01*
X140175Y318826D01*
X140207Y318722D01*
X140243Y318620D01*
X140283Y318518D01*
X140327Y318419D01*
X140374Y318320D01*
X140424Y318224D01*
X140478Y318129D01*
X140535Y318037D01*
X140596Y317946D01*
X140660Y317858D01*
X140726Y317772D01*
X140796Y317688D01*
X140869Y317607D01*
X140945Y317529D01*
X141023Y317453D01*
X141104Y317380D01*
X141188Y317310D01*
X141274Y317244D01*
X141362Y317180D01*
X141453Y317119D01*
X141545Y317062D01*
X141640Y317008D01*
X141736Y316958D01*
X141835Y316911D01*
X141934Y316867D01*
X142036Y316827D01*
X142138Y316791D01*
X142242Y316759D01*
X142347Y316730D01*
X142453Y316705D01*
X142560Y316683D01*
X142668Y316666D01*
X142776Y316652D01*
X142884Y316643D01*
X142993Y316637D01*
X143102Y316635D01*
X143211Y316637D01*
X143320Y316643D01*
X143428Y316652D01*
X143536Y316666D01*
X143644Y316683D01*
X143751Y316705D01*
X143857Y316730D01*
X143962Y316759D01*
X144066Y316791D01*
X144168Y316827D01*
X144270Y316867D01*
X144369Y316911D01*
X144468Y316958D01*
X144564Y317008D01*
X144659Y317062D01*
X144751Y317119D01*
X144842Y317180D01*
X144930Y317244D01*
X145016Y317310D01*
X145100Y317380D01*
X145181Y317453D01*
X145259Y317529D01*
X145335Y317607D01*
X145408Y317688D01*
X145478Y317772D01*
X145544Y317858D01*
X145608Y317946D01*
X145669Y318037D01*
X145726Y318129D01*
X145780Y318224D01*
X145830Y318320D01*
X145877Y318419D01*
X145921Y318518D01*
X145961Y318620D01*
X145997Y318722D01*
X146029Y318826D01*
X146058Y318931D01*
X146083Y319037D01*
X146105Y319144D01*
X146122Y319252D01*
X146136Y319360D01*
X146145Y319468D01*
X146151Y319577D01*
X146153Y319686D01*
X131855Y321974D02*
X128422Y321974D01*
X131855Y321975D02*
X131957Y321973D01*
X132059Y321967D01*
X132161Y321957D01*
X132263Y321944D01*
X132363Y321926D01*
X132463Y321905D01*
X132563Y321880D01*
X132661Y321851D01*
X132758Y321818D01*
X132853Y321781D01*
X132947Y321741D01*
X133040Y321698D01*
X133131Y321651D01*
X133219Y321600D01*
X133306Y321546D01*
X133391Y321489D01*
X133474Y321428D01*
X133554Y321365D01*
X133631Y321298D01*
X133706Y321229D01*
X133779Y321156D01*
X133848Y321081D01*
X133915Y321004D01*
X133978Y320924D01*
X134039Y320841D01*
X134096Y320756D01*
X134150Y320669D01*
X134201Y320581D01*
X134248Y320490D01*
X134291Y320397D01*
X134331Y320303D01*
X134368Y320208D01*
X134401Y320111D01*
X134430Y320013D01*
X134455Y319913D01*
X134476Y319813D01*
X134494Y319713D01*
X134507Y319611D01*
X134517Y319509D01*
X134523Y319407D01*
X134525Y319305D01*
X134523Y319203D01*
X134517Y319101D01*
X134507Y318999D01*
X134494Y318897D01*
X134476Y318797D01*
X134455Y318697D01*
X134430Y318597D01*
X134401Y318499D01*
X134368Y318402D01*
X134331Y318307D01*
X134291Y318213D01*
X134248Y318120D01*
X134201Y318029D01*
X134150Y317941D01*
X134096Y317854D01*
X134039Y317769D01*
X133978Y317686D01*
X133915Y317606D01*
X133848Y317529D01*
X133779Y317454D01*
X133706Y317381D01*
X133631Y317312D01*
X133554Y317245D01*
X133474Y317182D01*
X133391Y317121D01*
X133306Y317064D01*
X133219Y317010D01*
X133131Y316959D01*
X133040Y316912D01*
X132947Y316869D01*
X132853Y316829D01*
X132758Y316792D01*
X132661Y316759D01*
X132563Y316730D01*
X132463Y316705D01*
X132363Y316684D01*
X132263Y316666D01*
X132161Y316653D01*
X132059Y316643D01*
X131957Y316637D01*
X131855Y316635D01*
X128422Y316635D01*
X128422Y323500D01*
X128424Y323595D01*
X128430Y323689D01*
X128440Y323783D01*
X128453Y323877D01*
X128471Y323970D01*
X128492Y324062D01*
X128517Y324153D01*
X128546Y324243D01*
X128579Y324332D01*
X128615Y324419D01*
X128654Y324505D01*
X128698Y324589D01*
X128744Y324671D01*
X128795Y324751D01*
X128848Y324830D01*
X128904Y324905D01*
X128964Y324979D01*
X129027Y325050D01*
X129092Y325118D01*
X129160Y325183D01*
X129231Y325246D01*
X129305Y325306D01*
X129381Y325362D01*
X129459Y325415D01*
X129539Y325466D01*
X129621Y325512D01*
X129705Y325556D01*
X129791Y325595D01*
X129878Y325631D01*
X129967Y325664D01*
X130057Y325693D01*
X130148Y325718D01*
X130240Y325739D01*
X130333Y325757D01*
X130427Y325770D01*
X130521Y325780D01*
X130615Y325786D01*
X130710Y325788D01*
X130711Y325788D02*
X133762Y325788D01*
X121772Y325788D02*
X121772Y316635D01*
X121772Y325788D02*
X117195Y325788D01*
X117195Y324263D01*
X106822Y330365D02*
X106822Y316635D01*
X110636Y316635D01*
X110731Y316637D01*
X110825Y316643D01*
X110919Y316653D01*
X111013Y316666D01*
X111106Y316684D01*
X111198Y316705D01*
X111289Y316730D01*
X111379Y316759D01*
X111468Y316792D01*
X111555Y316828D01*
X111641Y316867D01*
X111725Y316911D01*
X111807Y316957D01*
X111887Y317008D01*
X111966Y317061D01*
X112041Y317117D01*
X112115Y317177D01*
X112186Y317240D01*
X112254Y317305D01*
X112319Y317373D01*
X112382Y317444D01*
X112442Y317518D01*
X112498Y317593D01*
X112551Y317672D01*
X112602Y317752D01*
X112648Y317834D01*
X112692Y317918D01*
X112731Y318004D01*
X112767Y318091D01*
X112800Y318180D01*
X112829Y318270D01*
X112854Y318361D01*
X112875Y318453D01*
X112893Y318546D01*
X112906Y318640D01*
X112916Y318734D01*
X112922Y318828D01*
X112924Y318923D01*
X112924Y323500D01*
X112922Y323595D01*
X112916Y323689D01*
X112906Y323783D01*
X112893Y323877D01*
X112875Y323970D01*
X112854Y324062D01*
X112829Y324153D01*
X112800Y324243D01*
X112767Y324332D01*
X112731Y324419D01*
X112692Y324505D01*
X112648Y324589D01*
X112602Y324671D01*
X112551Y324751D01*
X112498Y324830D01*
X112442Y324905D01*
X112382Y324979D01*
X112319Y325050D01*
X112254Y325118D01*
X112186Y325183D01*
X112115Y325246D01*
X112041Y325306D01*
X111966Y325362D01*
X111887Y325415D01*
X111807Y325466D01*
X111725Y325512D01*
X111641Y325556D01*
X111555Y325595D01*
X111468Y325631D01*
X111379Y325664D01*
X111289Y325693D01*
X111198Y325718D01*
X111106Y325739D01*
X111013Y325757D01*
X110919Y325770D01*
X110825Y325780D01*
X110731Y325786D01*
X110636Y325788D01*
X106822Y325788D01*
X94128Y330365D02*
X89552Y316635D01*
X84975Y330365D01*
X79866Y316635D02*
X76052Y316635D01*
X75930Y316637D01*
X75808Y316643D01*
X75686Y316653D01*
X75564Y316666D01*
X75443Y316684D01*
X75323Y316705D01*
X75203Y316731D01*
X75085Y316760D01*
X74967Y316793D01*
X74850Y316829D01*
X74735Y316870D01*
X74621Y316914D01*
X74508Y316961D01*
X74397Y317013D01*
X74288Y317068D01*
X74180Y317126D01*
X74075Y317187D01*
X73971Y317253D01*
X73870Y317321D01*
X73771Y317392D01*
X73674Y317467D01*
X73580Y317545D01*
X73488Y317626D01*
X73399Y317709D01*
X73312Y317796D01*
X73229Y317885D01*
X73148Y317977D01*
X73070Y318071D01*
X72995Y318168D01*
X72924Y318267D01*
X72856Y318368D01*
X72790Y318472D01*
X72729Y318577D01*
X72671Y318685D01*
X72616Y318794D01*
X72564Y318905D01*
X72517Y319018D01*
X72473Y319132D01*
X72432Y319247D01*
X72396Y319364D01*
X72363Y319482D01*
X72334Y319600D01*
X72308Y319720D01*
X72287Y319840D01*
X72269Y319961D01*
X72256Y320083D01*
X72246Y320205D01*
X72240Y320327D01*
X72238Y320449D01*
X72240Y320571D01*
X72246Y320693D01*
X72256Y320815D01*
X72269Y320937D01*
X72287Y321058D01*
X72308Y321178D01*
X72334Y321298D01*
X72363Y321416D01*
X72396Y321534D01*
X72432Y321651D01*
X72473Y321766D01*
X72517Y321880D01*
X72564Y321993D01*
X72616Y322104D01*
X72671Y322213D01*
X72729Y322321D01*
X72790Y322426D01*
X72856Y322530D01*
X72924Y322631D01*
X72995Y322730D01*
X73070Y322827D01*
X73148Y322921D01*
X73229Y323013D01*
X73312Y323102D01*
X73399Y323189D01*
X73488Y323272D01*
X73580Y323353D01*
X73674Y323431D01*
X73771Y323506D01*
X73870Y323577D01*
X73971Y323645D01*
X74075Y323711D01*
X74180Y323772D01*
X74288Y323830D01*
X74397Y323885D01*
X74508Y323937D01*
X74621Y323984D01*
X74735Y324028D01*
X74850Y324069D01*
X74967Y324105D01*
X75085Y324138D01*
X75203Y324167D01*
X75323Y324193D01*
X75443Y324214D01*
X75564Y324232D01*
X75686Y324245D01*
X75808Y324255D01*
X75930Y324261D01*
X76052Y324263D01*
X75289Y330365D02*
X79866Y330365D01*
X75289Y330365D02*
X75180Y330363D01*
X75071Y330357D01*
X74963Y330348D01*
X74855Y330334D01*
X74747Y330317D01*
X74640Y330295D01*
X74534Y330270D01*
X74429Y330241D01*
X74325Y330209D01*
X74223Y330173D01*
X74121Y330133D01*
X74022Y330089D01*
X73923Y330042D01*
X73827Y329992D01*
X73732Y329938D01*
X73640Y329881D01*
X73549Y329820D01*
X73461Y329756D01*
X73375Y329690D01*
X73291Y329620D01*
X73210Y329547D01*
X73132Y329471D01*
X73056Y329393D01*
X72983Y329312D01*
X72913Y329228D01*
X72847Y329142D01*
X72783Y329054D01*
X72722Y328963D01*
X72665Y328871D01*
X72611Y328776D01*
X72561Y328680D01*
X72514Y328581D01*
X72470Y328482D01*
X72430Y328380D01*
X72394Y328278D01*
X72362Y328174D01*
X72333Y328069D01*
X72308Y327963D01*
X72286Y327856D01*
X72269Y327748D01*
X72255Y327640D01*
X72246Y327532D01*
X72240Y327423D01*
X72238Y327314D01*
X72240Y327205D01*
X72246Y327096D01*
X72255Y326988D01*
X72269Y326880D01*
X72286Y326772D01*
X72308Y326665D01*
X72333Y326559D01*
X72362Y326454D01*
X72394Y326350D01*
X72430Y326248D01*
X72470Y326146D01*
X72514Y326047D01*
X72561Y325948D01*
X72611Y325852D01*
X72665Y325757D01*
X72722Y325665D01*
X72783Y325574D01*
X72847Y325486D01*
X72913Y325400D01*
X72983Y325316D01*
X73056Y325235D01*
X73132Y325157D01*
X73210Y325081D01*
X73291Y325008D01*
X73375Y324938D01*
X73461Y324872D01*
X73549Y324808D01*
X73640Y324747D01*
X73732Y324690D01*
X73827Y324636D01*
X73923Y324586D01*
X74022Y324539D01*
X74121Y324495D01*
X74223Y324455D01*
X74325Y324419D01*
X74429Y324387D01*
X74534Y324358D01*
X74640Y324333D01*
X74747Y324311D01*
X74855Y324294D01*
X74963Y324280D01*
X75071Y324271D01*
X75180Y324265D01*
X75289Y324263D01*
X78340Y324263D01*
X66983Y317398D02*
X66983Y316635D01*
X66983Y317398D02*
X66220Y317398D01*
X66220Y316635D01*
X66983Y316635D01*
X60965Y323500D02*
X60962Y323770D01*
X60952Y324040D01*
X60936Y324310D01*
X60913Y324579D01*
X60884Y324847D01*
X60849Y325115D01*
X60807Y325382D01*
X60759Y325648D01*
X60705Y325912D01*
X60644Y326175D01*
X60577Y326437D01*
X60504Y326697D01*
X60424Y326955D01*
X60339Y327211D01*
X60247Y327466D01*
X60150Y327717D01*
X60046Y327967D01*
X59936Y328214D01*
X59821Y328458D01*
X59785Y328558D01*
X59745Y328656D01*
X59702Y328753D01*
X59654Y328848D01*
X59603Y328941D01*
X59549Y329032D01*
X59492Y329121D01*
X59431Y329208D01*
X59366Y329292D01*
X59299Y329374D01*
X59229Y329454D01*
X59155Y329530D01*
X59079Y329604D01*
X59001Y329675D01*
X58919Y329743D01*
X58835Y329808D01*
X58749Y329870D01*
X58660Y329928D01*
X58570Y329983D01*
X58477Y330035D01*
X58382Y330083D01*
X58286Y330127D01*
X58188Y330168D01*
X58089Y330205D01*
X57988Y330238D01*
X57886Y330268D01*
X57783Y330294D01*
X57679Y330315D01*
X57575Y330333D01*
X57470Y330347D01*
X57364Y330357D01*
X57258Y330363D01*
X57152Y330365D01*
X57046Y330363D01*
X56940Y330357D01*
X56834Y330347D01*
X56729Y330333D01*
X56625Y330315D01*
X56521Y330294D01*
X56418Y330268D01*
X56316Y330238D01*
X56215Y330205D01*
X56116Y330168D01*
X56018Y330127D01*
X55922Y330083D01*
X55827Y330035D01*
X55734Y329983D01*
X55644Y329928D01*
X55555Y329870D01*
X55469Y329808D01*
X55385Y329743D01*
X55304Y329675D01*
X55225Y329604D01*
X55149Y329530D01*
X55075Y329454D01*
X55005Y329374D01*
X54938Y329292D01*
X54873Y329208D01*
X54812Y329121D01*
X54755Y329032D01*
X54701Y328941D01*
X54650Y328848D01*
X54602Y328753D01*
X54559Y328656D01*
X54519Y328558D01*
X54483Y328458D01*
X54482Y328458D02*
X54367Y328214D01*
X54257Y327967D01*
X54153Y327717D01*
X54056Y327466D01*
X53964Y327211D01*
X53879Y326955D01*
X53799Y326697D01*
X53726Y326437D01*
X53659Y326175D01*
X53598Y325912D01*
X53544Y325648D01*
X53496Y325382D01*
X53454Y325115D01*
X53419Y324847D01*
X53390Y324579D01*
X53367Y324310D01*
X53351Y324040D01*
X53341Y323770D01*
X53338Y323500D01*
X60966Y323500D02*
X60963Y323230D01*
X60953Y322960D01*
X60937Y322690D01*
X60914Y322421D01*
X60885Y322153D01*
X60850Y321885D01*
X60808Y321618D01*
X60760Y321352D01*
X60706Y321088D01*
X60645Y320824D01*
X60578Y320563D01*
X60505Y320303D01*
X60425Y320044D01*
X60340Y319788D01*
X60248Y319534D01*
X60151Y319282D01*
X60047Y319033D01*
X59937Y318786D01*
X59822Y318542D01*
X59821Y318542D02*
X59785Y318442D01*
X59745Y318344D01*
X59702Y318247D01*
X59654Y318152D01*
X59603Y318059D01*
X59549Y317968D01*
X59492Y317879D01*
X59431Y317792D01*
X59366Y317708D01*
X59299Y317626D01*
X59229Y317546D01*
X59155Y317470D01*
X59079Y317396D01*
X59001Y317325D01*
X58919Y317257D01*
X58835Y317192D01*
X58749Y317130D01*
X58660Y317072D01*
X58570Y317017D01*
X58477Y316965D01*
X58382Y316917D01*
X58286Y316873D01*
X58188Y316832D01*
X58089Y316795D01*
X57988Y316762D01*
X57886Y316732D01*
X57783Y316706D01*
X57679Y316685D01*
X57575Y316667D01*
X57470Y316653D01*
X57364Y316643D01*
X57258Y316637D01*
X57152Y316635D01*
X54482Y318542D02*
X54367Y318786D01*
X54257Y319033D01*
X54153Y319282D01*
X54056Y319534D01*
X53964Y319788D01*
X53879Y320044D01*
X53799Y320303D01*
X53726Y320563D01*
X53659Y320824D01*
X53598Y321088D01*
X53544Y321352D01*
X53496Y321618D01*
X53454Y321885D01*
X53419Y322153D01*
X53390Y322421D01*
X53367Y322690D01*
X53351Y322960D01*
X53341Y323230D01*
X53338Y323500D01*
X54483Y318542D02*
X54519Y318442D01*
X54559Y318344D01*
X54603Y318247D01*
X54650Y318152D01*
X54701Y318059D01*
X54755Y317968D01*
X54813Y317879D01*
X54873Y317792D01*
X54938Y317708D01*
X55005Y317626D01*
X55075Y317546D01*
X55149Y317470D01*
X55225Y317396D01*
X55304Y317325D01*
X55385Y317257D01*
X55469Y317192D01*
X55555Y317130D01*
X55644Y317072D01*
X55734Y317017D01*
X55827Y316965D01*
X55922Y316917D01*
X56018Y316873D01*
X56116Y316832D01*
X56215Y316795D01*
X56316Y316762D01*
X56418Y316732D01*
X56521Y316706D01*
X56625Y316685D01*
X56729Y316667D01*
X56834Y316653D01*
X56940Y316643D01*
X57046Y316637D01*
X57152Y316635D01*
X60203Y319686D02*
X54101Y327314D01*
D11*
X129110Y271618D02*
X129110Y265014D01*
X129110Y271618D02*
X127276Y271618D01*
X127191Y271616D01*
X127107Y271610D01*
X127023Y271600D01*
X126939Y271587D01*
X126856Y271569D01*
X126774Y271548D01*
X126693Y271523D01*
X126613Y271494D01*
X126535Y271462D01*
X126459Y271426D01*
X126384Y271386D01*
X126311Y271343D01*
X126240Y271297D01*
X126171Y271248D01*
X126104Y271195D01*
X126040Y271139D01*
X125979Y271081D01*
X125921Y271020D01*
X125865Y270956D01*
X125812Y270889D01*
X125763Y270820D01*
X125717Y270749D01*
X125674Y270676D01*
X125634Y270601D01*
X125598Y270525D01*
X125566Y270447D01*
X125537Y270367D01*
X125512Y270286D01*
X125491Y270204D01*
X125473Y270121D01*
X125460Y270037D01*
X125450Y269953D01*
X125444Y269869D01*
X125442Y269784D01*
X125444Y269699D01*
X125450Y269615D01*
X125460Y269531D01*
X125473Y269447D01*
X125491Y269364D01*
X125512Y269282D01*
X125537Y269201D01*
X125566Y269121D01*
X125598Y269043D01*
X125634Y268967D01*
X125674Y268892D01*
X125717Y268819D01*
X125763Y268748D01*
X125812Y268679D01*
X125865Y268612D01*
X125921Y268548D01*
X125979Y268487D01*
X126040Y268429D01*
X126104Y268373D01*
X126171Y268320D01*
X126240Y268271D01*
X126311Y268225D01*
X126384Y268182D01*
X126459Y268142D01*
X126535Y268106D01*
X126613Y268074D01*
X126693Y268045D01*
X126774Y268020D01*
X126856Y267999D01*
X126939Y267981D01*
X127023Y267968D01*
X127107Y267958D01*
X127191Y267952D01*
X127276Y267950D01*
X127276Y267949D02*
X129110Y267949D01*
X126909Y267949D02*
X125441Y265014D01*
X121874Y270150D02*
X120039Y271618D01*
X120039Y265014D01*
X118205Y265014D02*
X121874Y265014D01*
X113091Y267949D02*
X110890Y267949D01*
X113091Y267949D02*
X113165Y267951D01*
X113240Y267957D01*
X113313Y267966D01*
X113387Y267979D01*
X113459Y267996D01*
X113530Y268016D01*
X113601Y268040D01*
X113670Y268068D01*
X113738Y268099D01*
X113803Y268133D01*
X113868Y268171D01*
X113930Y268212D01*
X113990Y268256D01*
X114047Y268303D01*
X114102Y268353D01*
X114155Y268406D01*
X114205Y268461D01*
X114252Y268518D01*
X114296Y268578D01*
X114337Y268640D01*
X114375Y268705D01*
X114409Y268771D01*
X114440Y268838D01*
X114468Y268907D01*
X114492Y268978D01*
X114512Y269049D01*
X114529Y269122D01*
X114542Y269195D01*
X114551Y269269D01*
X114557Y269343D01*
X114559Y269417D01*
X114559Y269784D01*
X114558Y269784D02*
X114556Y269869D01*
X114550Y269953D01*
X114540Y270037D01*
X114527Y270121D01*
X114509Y270204D01*
X114488Y270286D01*
X114463Y270367D01*
X114434Y270447D01*
X114402Y270525D01*
X114366Y270601D01*
X114326Y270676D01*
X114283Y270749D01*
X114237Y270820D01*
X114188Y270889D01*
X114135Y270956D01*
X114079Y271020D01*
X114021Y271081D01*
X113960Y271139D01*
X113896Y271195D01*
X113829Y271248D01*
X113760Y271297D01*
X113689Y271343D01*
X113616Y271386D01*
X113541Y271426D01*
X113465Y271462D01*
X113387Y271494D01*
X113307Y271523D01*
X113226Y271548D01*
X113144Y271569D01*
X113061Y271587D01*
X112977Y271600D01*
X112893Y271610D01*
X112809Y271616D01*
X112724Y271618D01*
X112639Y271616D01*
X112555Y271610D01*
X112471Y271600D01*
X112387Y271587D01*
X112304Y271569D01*
X112222Y271548D01*
X112141Y271523D01*
X112061Y271494D01*
X111983Y271462D01*
X111907Y271426D01*
X111832Y271386D01*
X111759Y271343D01*
X111688Y271297D01*
X111619Y271248D01*
X111552Y271195D01*
X111488Y271139D01*
X111427Y271081D01*
X111369Y271020D01*
X111313Y270956D01*
X111260Y270889D01*
X111211Y270820D01*
X111165Y270749D01*
X111122Y270676D01*
X111082Y270601D01*
X111046Y270525D01*
X111014Y270447D01*
X110985Y270367D01*
X110960Y270286D01*
X110939Y270204D01*
X110921Y270121D01*
X110908Y270037D01*
X110898Y269953D01*
X110892Y269869D01*
X110890Y269784D01*
X110890Y267949D01*
X110892Y267842D01*
X110898Y267735D01*
X110908Y267628D01*
X110921Y267522D01*
X110939Y267416D01*
X110960Y267311D01*
X110985Y267207D01*
X111014Y267103D01*
X111047Y267001D01*
X111084Y266901D01*
X111124Y266801D01*
X111168Y266703D01*
X111215Y266607D01*
X111266Y266513D01*
X111320Y266420D01*
X111377Y266330D01*
X111438Y266241D01*
X111502Y266155D01*
X111569Y266072D01*
X111639Y265990D01*
X111712Y265912D01*
X111788Y265836D01*
X111866Y265763D01*
X111948Y265693D01*
X112031Y265626D01*
X112117Y265562D01*
X112206Y265501D01*
X112296Y265444D01*
X112389Y265390D01*
X112483Y265339D01*
X112579Y265292D01*
X112677Y265248D01*
X112777Y265208D01*
X112877Y265171D01*
X112979Y265138D01*
X113083Y265109D01*
X113187Y265084D01*
X113292Y265063D01*
X113398Y265045D01*
X113504Y265032D01*
X113611Y265022D01*
X113718Y265016D01*
X113825Y265014D01*
X219110Y265254D02*
X219110Y271858D01*
X217276Y271858D01*
X217191Y271856D01*
X217107Y271850D01*
X217023Y271840D01*
X216939Y271827D01*
X216856Y271809D01*
X216774Y271788D01*
X216693Y271763D01*
X216613Y271734D01*
X216535Y271702D01*
X216459Y271666D01*
X216384Y271626D01*
X216311Y271583D01*
X216240Y271537D01*
X216171Y271488D01*
X216104Y271435D01*
X216040Y271379D01*
X215979Y271321D01*
X215921Y271260D01*
X215865Y271196D01*
X215812Y271129D01*
X215763Y271060D01*
X215717Y270989D01*
X215674Y270916D01*
X215634Y270841D01*
X215598Y270765D01*
X215566Y270687D01*
X215537Y270607D01*
X215512Y270526D01*
X215491Y270444D01*
X215473Y270361D01*
X215460Y270277D01*
X215450Y270193D01*
X215444Y270109D01*
X215442Y270024D01*
X215444Y269939D01*
X215450Y269855D01*
X215460Y269771D01*
X215473Y269687D01*
X215491Y269604D01*
X215512Y269522D01*
X215537Y269441D01*
X215566Y269361D01*
X215598Y269283D01*
X215634Y269207D01*
X215674Y269132D01*
X215717Y269059D01*
X215763Y268988D01*
X215812Y268919D01*
X215865Y268852D01*
X215921Y268788D01*
X215979Y268727D01*
X216040Y268669D01*
X216104Y268613D01*
X216171Y268560D01*
X216240Y268511D01*
X216311Y268465D01*
X216384Y268422D01*
X216459Y268382D01*
X216535Y268346D01*
X216613Y268314D01*
X216693Y268285D01*
X216774Y268260D01*
X216856Y268239D01*
X216939Y268221D01*
X217023Y268208D01*
X217107Y268198D01*
X217191Y268192D01*
X217276Y268190D01*
X217276Y268189D02*
X219110Y268189D01*
X216909Y268189D02*
X215441Y265254D01*
X209856Y271858D02*
X209777Y271856D01*
X209699Y271851D01*
X209621Y271841D01*
X209544Y271828D01*
X209467Y271811D01*
X209391Y271791D01*
X209316Y271767D01*
X209242Y271740D01*
X209170Y271709D01*
X209099Y271674D01*
X209031Y271637D01*
X208963Y271596D01*
X208898Y271552D01*
X208835Y271505D01*
X208775Y271455D01*
X208717Y271402D01*
X208661Y271346D01*
X208608Y271288D01*
X208558Y271228D01*
X208511Y271165D01*
X208467Y271100D01*
X208426Y271033D01*
X208389Y270964D01*
X208354Y270893D01*
X208323Y270821D01*
X208296Y270747D01*
X208272Y270672D01*
X208252Y270596D01*
X208235Y270519D01*
X208222Y270442D01*
X208212Y270364D01*
X208207Y270286D01*
X208205Y270207D01*
X209856Y271858D02*
X209945Y271856D01*
X210034Y271851D01*
X210122Y271841D01*
X210210Y271828D01*
X210297Y271812D01*
X210384Y271791D01*
X210469Y271767D01*
X210554Y271740D01*
X210637Y271709D01*
X210719Y271674D01*
X210800Y271636D01*
X210879Y271595D01*
X210955Y271551D01*
X211031Y271503D01*
X211104Y271452D01*
X211174Y271399D01*
X211243Y271342D01*
X211309Y271282D01*
X211372Y271220D01*
X211433Y271155D01*
X211491Y271088D01*
X211546Y271018D01*
X211599Y270946D01*
X211648Y270872D01*
X211694Y270796D01*
X211736Y270718D01*
X211776Y270638D01*
X211812Y270557D01*
X211845Y270474D01*
X211874Y270390D01*
X208755Y268923D02*
X208699Y268979D01*
X208645Y269038D01*
X208594Y269099D01*
X208545Y269163D01*
X208500Y269228D01*
X208457Y269296D01*
X208418Y269365D01*
X208381Y269436D01*
X208348Y269509D01*
X208319Y269583D01*
X208292Y269658D01*
X208269Y269734D01*
X208250Y269812D01*
X208234Y269890D01*
X208221Y269968D01*
X208212Y270048D01*
X208207Y270127D01*
X208205Y270207D01*
X208755Y268923D02*
X211874Y265254D01*
X208205Y265254D01*
X204558Y268556D02*
X204556Y268701D01*
X204550Y268846D01*
X204541Y268991D01*
X204527Y269136D01*
X204510Y269280D01*
X204488Y269423D01*
X204463Y269567D01*
X204434Y269709D01*
X204402Y269850D01*
X204365Y269991D01*
X204325Y270130D01*
X204281Y270269D01*
X204234Y270406D01*
X204183Y270542D01*
X204128Y270676D01*
X204070Y270809D01*
X204008Y270941D01*
X204009Y270941D02*
X203983Y271010D01*
X203954Y271077D01*
X203921Y271143D01*
X203885Y271206D01*
X203845Y271268D01*
X203802Y271327D01*
X203756Y271384D01*
X203707Y271438D01*
X203655Y271490D01*
X203600Y271539D01*
X203543Y271584D01*
X203483Y271627D01*
X203421Y271666D01*
X203358Y271702D01*
X203292Y271735D01*
X203225Y271763D01*
X203156Y271789D01*
X203086Y271810D01*
X203015Y271828D01*
X202943Y271841D01*
X202870Y271851D01*
X202797Y271857D01*
X202724Y271859D01*
X202724Y271858D02*
X202651Y271856D01*
X202578Y271850D01*
X202505Y271840D01*
X202434Y271827D01*
X202362Y271809D01*
X202292Y271788D01*
X202224Y271762D01*
X202156Y271734D01*
X202091Y271701D01*
X202027Y271665D01*
X201965Y271626D01*
X201906Y271584D01*
X201849Y271538D01*
X201794Y271489D01*
X201742Y271438D01*
X201693Y271383D01*
X201647Y271326D01*
X201604Y271267D01*
X201564Y271206D01*
X201528Y271142D01*
X201495Y271077D01*
X201466Y271010D01*
X201440Y270941D01*
X201378Y270809D01*
X201320Y270676D01*
X201265Y270542D01*
X201214Y270406D01*
X201167Y270269D01*
X201123Y270130D01*
X201083Y269991D01*
X201046Y269850D01*
X201014Y269709D01*
X200985Y269567D01*
X200960Y269424D01*
X200938Y269280D01*
X200921Y269136D01*
X200907Y268991D01*
X200898Y268846D01*
X200892Y268701D01*
X200890Y268556D01*
X204558Y268556D02*
X204556Y268411D01*
X204550Y268266D01*
X204541Y268121D01*
X204527Y267976D01*
X204510Y267832D01*
X204488Y267689D01*
X204463Y267546D01*
X204435Y267403D01*
X204402Y267262D01*
X204365Y267121D01*
X204325Y266982D01*
X204281Y266843D01*
X204234Y266706D01*
X204183Y266570D01*
X204128Y266436D01*
X204070Y266303D01*
X204008Y266171D01*
X204009Y266172D02*
X203983Y266103D01*
X203954Y266036D01*
X203921Y265970D01*
X203885Y265907D01*
X203845Y265845D01*
X203802Y265786D01*
X203756Y265729D01*
X203707Y265675D01*
X203655Y265623D01*
X203600Y265574D01*
X203543Y265529D01*
X203483Y265486D01*
X203421Y265447D01*
X203358Y265411D01*
X203292Y265378D01*
X203225Y265350D01*
X203156Y265324D01*
X203086Y265303D01*
X203015Y265285D01*
X202943Y265272D01*
X202870Y265262D01*
X202797Y265256D01*
X202724Y265254D01*
X201440Y266171D02*
X201378Y266303D01*
X201320Y266436D01*
X201265Y266570D01*
X201214Y266706D01*
X201167Y266843D01*
X201123Y266982D01*
X201083Y267121D01*
X201046Y267262D01*
X201014Y267403D01*
X200985Y267545D01*
X200960Y267688D01*
X200938Y267832D01*
X200921Y267976D01*
X200907Y268121D01*
X200898Y268266D01*
X200892Y268411D01*
X200890Y268556D01*
X201440Y266171D02*
X201466Y266102D01*
X201495Y266035D01*
X201528Y265970D01*
X201564Y265906D01*
X201604Y265845D01*
X201647Y265786D01*
X201693Y265729D01*
X201742Y265674D01*
X201794Y265623D01*
X201849Y265574D01*
X201906Y265528D01*
X201965Y265486D01*
X202027Y265447D01*
X202091Y265411D01*
X202156Y265378D01*
X202224Y265350D01*
X202292Y265324D01*
X202362Y265303D01*
X202434Y265285D01*
X202505Y265272D01*
X202578Y265262D01*
X202651Y265256D01*
X202724Y265254D01*
X204192Y266722D02*
X201257Y270390D01*
D10*
X95875Y275238D02*
X95875Y284763D01*
D11*
X85614Y272888D02*
X85614Y266284D01*
X85614Y272888D02*
X83780Y272888D01*
X83695Y272886D01*
X83611Y272880D01*
X83527Y272870D01*
X83443Y272857D01*
X83360Y272839D01*
X83278Y272818D01*
X83197Y272793D01*
X83117Y272764D01*
X83039Y272732D01*
X82963Y272696D01*
X82888Y272656D01*
X82815Y272613D01*
X82744Y272567D01*
X82675Y272518D01*
X82608Y272465D01*
X82544Y272409D01*
X82483Y272351D01*
X82425Y272290D01*
X82369Y272226D01*
X82316Y272159D01*
X82267Y272090D01*
X82221Y272019D01*
X82178Y271946D01*
X82138Y271871D01*
X82102Y271795D01*
X82070Y271717D01*
X82041Y271637D01*
X82016Y271556D01*
X81995Y271474D01*
X81977Y271391D01*
X81964Y271307D01*
X81954Y271223D01*
X81948Y271139D01*
X81946Y271054D01*
X81945Y271054D02*
X81945Y268118D01*
X81946Y268118D02*
X81948Y268033D01*
X81954Y267949D01*
X81964Y267865D01*
X81977Y267781D01*
X81995Y267698D01*
X82016Y267616D01*
X82041Y267535D01*
X82070Y267455D01*
X82102Y267377D01*
X82138Y267301D01*
X82178Y267226D01*
X82221Y267153D01*
X82267Y267082D01*
X82316Y267013D01*
X82369Y266946D01*
X82425Y266882D01*
X82483Y266821D01*
X82544Y266763D01*
X82608Y266707D01*
X82675Y266654D01*
X82744Y266605D01*
X82815Y266559D01*
X82888Y266516D01*
X82963Y266476D01*
X83039Y266440D01*
X83117Y266408D01*
X83197Y266379D01*
X83278Y266354D01*
X83360Y266333D01*
X83443Y266315D01*
X83527Y266302D01*
X83611Y266292D01*
X83695Y266286D01*
X83780Y266284D01*
X85614Y266284D01*
X76037Y272888D02*
X75958Y272886D01*
X75880Y272881D01*
X75802Y272871D01*
X75725Y272858D01*
X75648Y272841D01*
X75572Y272821D01*
X75497Y272797D01*
X75423Y272770D01*
X75351Y272739D01*
X75280Y272704D01*
X75212Y272667D01*
X75144Y272626D01*
X75079Y272582D01*
X75016Y272535D01*
X74956Y272485D01*
X74898Y272432D01*
X74842Y272376D01*
X74789Y272318D01*
X74739Y272258D01*
X74692Y272195D01*
X74648Y272130D01*
X74607Y272063D01*
X74570Y271994D01*
X74535Y271923D01*
X74504Y271851D01*
X74477Y271777D01*
X74453Y271702D01*
X74433Y271626D01*
X74416Y271549D01*
X74403Y271472D01*
X74393Y271394D01*
X74388Y271316D01*
X74386Y271237D01*
X76037Y272888D02*
X76126Y272886D01*
X76215Y272881D01*
X76303Y272871D01*
X76391Y272858D01*
X76478Y272842D01*
X76565Y272821D01*
X76650Y272797D01*
X76735Y272770D01*
X76818Y272739D01*
X76900Y272704D01*
X76981Y272666D01*
X77060Y272625D01*
X77136Y272581D01*
X77212Y272533D01*
X77285Y272482D01*
X77355Y272429D01*
X77424Y272372D01*
X77490Y272312D01*
X77553Y272250D01*
X77614Y272185D01*
X77672Y272118D01*
X77727Y272048D01*
X77780Y271976D01*
X77829Y271902D01*
X77875Y271826D01*
X77917Y271748D01*
X77957Y271668D01*
X77993Y271587D01*
X78026Y271504D01*
X78055Y271420D01*
X74936Y269953D02*
X74880Y270009D01*
X74826Y270068D01*
X74775Y270129D01*
X74726Y270193D01*
X74681Y270258D01*
X74638Y270326D01*
X74599Y270395D01*
X74562Y270466D01*
X74529Y270539D01*
X74500Y270613D01*
X74473Y270688D01*
X74450Y270764D01*
X74431Y270842D01*
X74415Y270920D01*
X74402Y270998D01*
X74393Y271078D01*
X74388Y271157D01*
X74386Y271237D01*
X74936Y269953D02*
X78055Y266284D01*
X74386Y266284D01*
X55634Y276675D02*
X55634Y278876D01*
X55636Y278950D01*
X55642Y279025D01*
X55651Y279098D01*
X55664Y279172D01*
X55681Y279244D01*
X55701Y279315D01*
X55725Y279386D01*
X55753Y279455D01*
X55784Y279522D01*
X55818Y279588D01*
X55856Y279653D01*
X55897Y279715D01*
X55941Y279775D01*
X55988Y279832D01*
X56038Y279887D01*
X56091Y279940D01*
X56146Y279990D01*
X56203Y280037D01*
X56263Y280081D01*
X56325Y280122D01*
X56390Y280160D01*
X56455Y280194D01*
X56523Y280225D01*
X56592Y280253D01*
X56663Y280277D01*
X56734Y280297D01*
X56806Y280314D01*
X56880Y280327D01*
X56953Y280336D01*
X57028Y280342D01*
X57102Y280344D01*
X57102Y280343D02*
X57835Y280343D01*
X57835Y280344D02*
X57909Y280342D01*
X57984Y280336D01*
X58057Y280327D01*
X58131Y280314D01*
X58203Y280297D01*
X58274Y280277D01*
X58345Y280253D01*
X58414Y280225D01*
X58481Y280194D01*
X58547Y280160D01*
X58612Y280122D01*
X58674Y280081D01*
X58734Y280037D01*
X58791Y279990D01*
X58846Y279940D01*
X58899Y279887D01*
X58949Y279832D01*
X58996Y279775D01*
X59040Y279715D01*
X59081Y279653D01*
X59119Y279588D01*
X59153Y279522D01*
X59184Y279455D01*
X59212Y279386D01*
X59236Y279315D01*
X59256Y279244D01*
X59273Y279172D01*
X59286Y279098D01*
X59295Y279025D01*
X59301Y278950D01*
X59303Y278876D01*
X59303Y276675D01*
X62238Y276675D01*
X62238Y280343D01*
X62238Y283623D02*
X55634Y285824D01*
X62238Y288025D01*
D10*
X185875Y284763D02*
X185875Y275238D01*
D11*
X175614Y273016D02*
X175614Y266412D01*
X175614Y273016D02*
X173780Y273016D01*
X173695Y273014D01*
X173611Y273008D01*
X173527Y272998D01*
X173443Y272985D01*
X173360Y272967D01*
X173278Y272946D01*
X173197Y272921D01*
X173117Y272892D01*
X173039Y272860D01*
X172963Y272824D01*
X172888Y272784D01*
X172815Y272741D01*
X172744Y272695D01*
X172675Y272646D01*
X172608Y272593D01*
X172544Y272537D01*
X172483Y272479D01*
X172425Y272418D01*
X172369Y272354D01*
X172316Y272287D01*
X172267Y272218D01*
X172221Y272147D01*
X172178Y272074D01*
X172138Y271999D01*
X172102Y271923D01*
X172070Y271845D01*
X172041Y271765D01*
X172016Y271684D01*
X171995Y271602D01*
X171977Y271519D01*
X171964Y271435D01*
X171954Y271351D01*
X171948Y271267D01*
X171946Y271182D01*
X171945Y271182D02*
X171945Y268246D01*
X171946Y268246D02*
X171948Y268161D01*
X171954Y268077D01*
X171964Y267993D01*
X171977Y267909D01*
X171995Y267826D01*
X172016Y267744D01*
X172041Y267663D01*
X172070Y267583D01*
X172102Y267505D01*
X172138Y267429D01*
X172178Y267354D01*
X172221Y267281D01*
X172267Y267210D01*
X172316Y267141D01*
X172369Y267074D01*
X172425Y267010D01*
X172483Y266949D01*
X172544Y266891D01*
X172608Y266835D01*
X172675Y266782D01*
X172744Y266733D01*
X172815Y266687D01*
X172888Y266644D01*
X172963Y266604D01*
X173039Y266568D01*
X173117Y266536D01*
X173197Y266507D01*
X173278Y266482D01*
X173360Y266461D01*
X173443Y266443D01*
X173527Y266430D01*
X173611Y266420D01*
X173695Y266414D01*
X173780Y266412D01*
X175614Y266412D01*
X168055Y266412D02*
X166220Y266412D01*
X166135Y266414D01*
X166051Y266420D01*
X165967Y266430D01*
X165883Y266443D01*
X165800Y266461D01*
X165718Y266482D01*
X165637Y266507D01*
X165557Y266536D01*
X165479Y266568D01*
X165403Y266604D01*
X165328Y266644D01*
X165255Y266687D01*
X165184Y266733D01*
X165115Y266782D01*
X165048Y266835D01*
X164984Y266891D01*
X164923Y266949D01*
X164865Y267010D01*
X164809Y267074D01*
X164756Y267141D01*
X164707Y267210D01*
X164661Y267281D01*
X164618Y267354D01*
X164578Y267429D01*
X164542Y267505D01*
X164510Y267583D01*
X164481Y267663D01*
X164456Y267744D01*
X164435Y267826D01*
X164417Y267909D01*
X164404Y267993D01*
X164394Y268077D01*
X164388Y268161D01*
X164386Y268246D01*
X164388Y268331D01*
X164394Y268415D01*
X164404Y268499D01*
X164417Y268583D01*
X164435Y268666D01*
X164456Y268748D01*
X164481Y268829D01*
X164510Y268909D01*
X164542Y268987D01*
X164578Y269063D01*
X164618Y269138D01*
X164661Y269211D01*
X164707Y269282D01*
X164756Y269351D01*
X164809Y269418D01*
X164865Y269482D01*
X164923Y269543D01*
X164984Y269601D01*
X165048Y269657D01*
X165115Y269710D01*
X165184Y269759D01*
X165255Y269805D01*
X165328Y269848D01*
X165403Y269888D01*
X165479Y269924D01*
X165557Y269956D01*
X165637Y269985D01*
X165718Y270010D01*
X165800Y270031D01*
X165883Y270049D01*
X165967Y270062D01*
X166051Y270072D01*
X166135Y270078D01*
X166220Y270080D01*
X165854Y273016D02*
X168055Y273016D01*
X165854Y273016D02*
X165778Y273014D01*
X165703Y273008D01*
X165628Y272999D01*
X165554Y272985D01*
X165480Y272968D01*
X165408Y272946D01*
X165336Y272922D01*
X165266Y272893D01*
X165198Y272861D01*
X165131Y272826D01*
X165066Y272787D01*
X165003Y272744D01*
X164943Y272699D01*
X164885Y272651D01*
X164829Y272599D01*
X164777Y272545D01*
X164727Y272488D01*
X164680Y272429D01*
X164636Y272368D01*
X164595Y272304D01*
X164558Y272238D01*
X164524Y272170D01*
X164494Y272101D01*
X164467Y272030D01*
X164444Y271958D01*
X164425Y271885D01*
X164410Y271811D01*
X164398Y271736D01*
X164390Y271661D01*
X164386Y271586D01*
X164386Y271510D01*
X164390Y271435D01*
X164398Y271360D01*
X164410Y271285D01*
X164425Y271211D01*
X164444Y271138D01*
X164467Y271066D01*
X164494Y270995D01*
X164524Y270926D01*
X164558Y270858D01*
X164595Y270792D01*
X164636Y270728D01*
X164680Y270667D01*
X164727Y270608D01*
X164777Y270551D01*
X164829Y270497D01*
X164885Y270445D01*
X164943Y270397D01*
X165003Y270352D01*
X165066Y270309D01*
X165131Y270270D01*
X165198Y270235D01*
X165266Y270203D01*
X165336Y270174D01*
X165408Y270150D01*
X165480Y270128D01*
X165554Y270111D01*
X165628Y270097D01*
X165703Y270088D01*
X165778Y270082D01*
X165854Y270080D01*
X165854Y270081D02*
X167321Y270081D01*
X144762Y268388D02*
X144762Y266554D01*
X144762Y268388D02*
X144764Y268473D01*
X144770Y268557D01*
X144780Y268641D01*
X144793Y268725D01*
X144811Y268808D01*
X144832Y268890D01*
X144857Y268971D01*
X144886Y269051D01*
X144918Y269129D01*
X144954Y269205D01*
X144994Y269280D01*
X145037Y269353D01*
X145083Y269424D01*
X145132Y269493D01*
X145185Y269560D01*
X145241Y269624D01*
X145299Y269685D01*
X145360Y269743D01*
X145424Y269799D01*
X145491Y269852D01*
X145560Y269901D01*
X145631Y269947D01*
X145704Y269990D01*
X145779Y270030D01*
X145855Y270066D01*
X145933Y270098D01*
X146013Y270127D01*
X146094Y270152D01*
X146176Y270173D01*
X146259Y270191D01*
X146343Y270204D01*
X146427Y270214D01*
X146511Y270220D01*
X146596Y270222D01*
X146681Y270220D01*
X146765Y270214D01*
X146849Y270204D01*
X146933Y270191D01*
X147016Y270173D01*
X147098Y270152D01*
X147179Y270127D01*
X147259Y270098D01*
X147337Y270066D01*
X147413Y270030D01*
X147488Y269990D01*
X147561Y269947D01*
X147632Y269901D01*
X147701Y269852D01*
X147768Y269799D01*
X147832Y269743D01*
X147893Y269685D01*
X147951Y269624D01*
X148007Y269560D01*
X148060Y269493D01*
X148109Y269424D01*
X148155Y269353D01*
X148198Y269280D01*
X148238Y269205D01*
X148274Y269129D01*
X148306Y269051D01*
X148335Y268971D01*
X148360Y268890D01*
X148381Y268808D01*
X148399Y268725D01*
X148412Y268641D01*
X148422Y268557D01*
X148428Y268473D01*
X148430Y268388D01*
X151366Y268755D02*
X151366Y266554D01*
X151366Y268755D02*
X151364Y268831D01*
X151358Y268906D01*
X151349Y268981D01*
X151335Y269055D01*
X151318Y269129D01*
X151296Y269201D01*
X151272Y269273D01*
X151243Y269343D01*
X151211Y269411D01*
X151176Y269478D01*
X151137Y269543D01*
X151094Y269606D01*
X151049Y269666D01*
X151001Y269724D01*
X150949Y269780D01*
X150895Y269832D01*
X150838Y269882D01*
X150779Y269929D01*
X150718Y269973D01*
X150654Y270014D01*
X150588Y270051D01*
X150520Y270085D01*
X150451Y270115D01*
X150380Y270142D01*
X150308Y270165D01*
X150235Y270184D01*
X150161Y270199D01*
X150086Y270211D01*
X150011Y270219D01*
X149936Y270223D01*
X149860Y270223D01*
X149785Y270219D01*
X149710Y270211D01*
X149635Y270199D01*
X149561Y270184D01*
X149488Y270165D01*
X149416Y270142D01*
X149345Y270115D01*
X149276Y270085D01*
X149208Y270051D01*
X149142Y270014D01*
X149078Y269973D01*
X149017Y269929D01*
X148958Y269882D01*
X148901Y269832D01*
X148847Y269780D01*
X148795Y269724D01*
X148747Y269666D01*
X148702Y269606D01*
X148659Y269543D01*
X148620Y269478D01*
X148585Y269411D01*
X148553Y269343D01*
X148524Y269273D01*
X148500Y269201D01*
X148478Y269129D01*
X148461Y269055D01*
X148447Y268981D01*
X148438Y268906D01*
X148432Y268831D01*
X148430Y268755D01*
X148431Y268755D02*
X148431Y267288D01*
X145129Y273326D02*
X144762Y273326D01*
X145129Y273326D02*
X145129Y273692D01*
X144762Y273692D01*
X144762Y273326D01*
X144762Y276795D02*
X144762Y278630D01*
X144764Y278715D01*
X144770Y278799D01*
X144780Y278883D01*
X144793Y278967D01*
X144811Y279050D01*
X144832Y279132D01*
X144857Y279213D01*
X144886Y279293D01*
X144918Y279371D01*
X144954Y279447D01*
X144994Y279522D01*
X145037Y279595D01*
X145083Y279666D01*
X145132Y279735D01*
X145185Y279802D01*
X145241Y279866D01*
X145299Y279927D01*
X145360Y279985D01*
X145424Y280041D01*
X145491Y280094D01*
X145560Y280143D01*
X145631Y280189D01*
X145704Y280232D01*
X145779Y280272D01*
X145855Y280308D01*
X145933Y280340D01*
X146013Y280369D01*
X146094Y280394D01*
X146176Y280415D01*
X146259Y280433D01*
X146343Y280446D01*
X146427Y280456D01*
X146511Y280462D01*
X146596Y280464D01*
X146681Y280462D01*
X146765Y280456D01*
X146849Y280446D01*
X146933Y280433D01*
X147016Y280415D01*
X147098Y280394D01*
X147179Y280369D01*
X147259Y280340D01*
X147337Y280308D01*
X147413Y280272D01*
X147488Y280232D01*
X147561Y280189D01*
X147632Y280143D01*
X147701Y280094D01*
X147768Y280041D01*
X147832Y279985D01*
X147893Y279927D01*
X147951Y279866D01*
X148007Y279802D01*
X148060Y279735D01*
X148109Y279666D01*
X148155Y279595D01*
X148198Y279522D01*
X148238Y279447D01*
X148274Y279371D01*
X148306Y279293D01*
X148335Y279213D01*
X148360Y279132D01*
X148381Y279050D01*
X148399Y278967D01*
X148412Y278883D01*
X148422Y278799D01*
X148428Y278715D01*
X148430Y278630D01*
X151366Y278996D02*
X151366Y276795D01*
X151366Y278996D02*
X151364Y279072D01*
X151358Y279147D01*
X151349Y279222D01*
X151335Y279296D01*
X151318Y279370D01*
X151296Y279442D01*
X151272Y279514D01*
X151243Y279584D01*
X151211Y279652D01*
X151176Y279719D01*
X151137Y279784D01*
X151094Y279847D01*
X151049Y279907D01*
X151001Y279965D01*
X150949Y280021D01*
X150895Y280073D01*
X150838Y280123D01*
X150779Y280170D01*
X150718Y280214D01*
X150654Y280255D01*
X150588Y280292D01*
X150520Y280326D01*
X150451Y280356D01*
X150380Y280383D01*
X150308Y280406D01*
X150235Y280425D01*
X150161Y280440D01*
X150086Y280452D01*
X150011Y280460D01*
X149936Y280464D01*
X149860Y280464D01*
X149785Y280460D01*
X149710Y280452D01*
X149635Y280440D01*
X149561Y280425D01*
X149488Y280406D01*
X149416Y280383D01*
X149345Y280356D01*
X149276Y280326D01*
X149208Y280292D01*
X149142Y280255D01*
X149078Y280214D01*
X149017Y280170D01*
X148958Y280123D01*
X148901Y280073D01*
X148847Y280021D01*
X148795Y279965D01*
X148747Y279907D01*
X148702Y279847D01*
X148659Y279784D01*
X148620Y279719D01*
X148585Y279652D01*
X148553Y279584D01*
X148524Y279514D01*
X148500Y279442D01*
X148478Y279370D01*
X148461Y279296D01*
X148447Y279222D01*
X148438Y279147D01*
X148432Y279072D01*
X148430Y278996D01*
X148431Y278996D02*
X148431Y277529D01*
X151366Y283743D02*
X144762Y285945D01*
X151366Y288146D01*
D12*
X228184Y399650D02*
X232881Y399650D01*
X228184Y399650D02*
X226291Y397757D01*
X226291Y393060D01*
X228184Y391168D01*
X232881Y391168D01*
X234773Y393060D01*
X234773Y397757D01*
X232881Y399650D01*
X274223Y399650D02*
X278920Y399650D01*
X274223Y399650D02*
X272331Y397757D01*
X272331Y393060D01*
X274223Y391168D01*
X278920Y391168D01*
X280812Y393060D01*
X280812Y397757D01*
X278920Y399650D01*
X297243Y406550D02*
X303832Y406550D01*
X297243Y406550D02*
X295350Y404657D01*
X295350Y399960D01*
X297243Y398068D01*
X303832Y398068D01*
X303832Y406550D01*
X249311Y397757D02*
X249311Y393060D01*
X251203Y391168D01*
X257793Y391168D01*
X257793Y399650D01*
X251203Y399650D01*
X249311Y397757D01*
X186841Y391168D02*
X180252Y391168D01*
X186841Y391168D02*
X187632Y391959D01*
X186841Y392750D01*
X180252Y392750D01*
X180252Y391168D01*
X121619Y399650D02*
X116922Y399650D01*
X115340Y398068D01*
X123201Y398068D01*
X121619Y399650D01*
X51000Y418100D02*
X330000Y418100D01*
X51000Y418100D02*
X51000Y380000D01*
X330000Y380000D01*
X330000Y418100D01*
X114719Y385850D02*
X113162Y387408D01*
X113162Y389610D01*
X114719Y391168D01*
X121619Y391168D01*
X123201Y392750D01*
X111269Y392750D01*
X109712Y394307D01*
X109712Y399960D01*
X111269Y401518D01*
X114719Y404968D01*
X123822Y404968D01*
X125379Y403410D01*
X128829Y399960D01*
X128829Y390858D01*
X127272Y389300D01*
X123822Y385850D01*
X121619Y385850D01*
X114719Y385850D01*
X148012Y396214D02*
X148012Y410310D01*
X148012Y396214D02*
X148177Y395967D01*
X148065Y395409D01*
X148177Y394850D01*
X148012Y394604D01*
X148012Y387408D01*
X146455Y385850D01*
X144252Y385850D01*
X142694Y387408D01*
X142694Y390441D01*
X135562Y385686D01*
X133402Y386118D01*
X132180Y387950D01*
X132612Y390110D01*
X140560Y395409D01*
X132612Y400707D01*
X132180Y402867D01*
X133402Y404700D01*
X135562Y405132D01*
X142694Y400377D01*
X142694Y410310D01*
X144252Y411868D01*
X146455Y411868D01*
X148012Y410310D01*
X151914Y401207D02*
X153472Y399650D01*
X151914Y401207D02*
X151914Y403410D01*
X153472Y404968D01*
X166025Y404968D01*
X169474Y401518D01*
X171032Y399960D01*
X171032Y390858D01*
X167582Y387408D01*
X166025Y385850D01*
X153472Y385850D01*
X151914Y387408D01*
X151914Y389610D01*
X153472Y391168D01*
X163822Y391168D01*
X165714Y393060D01*
X165714Y397757D01*
X163822Y399650D01*
X153472Y399650D01*
X189044Y404968D02*
X190602Y403410D01*
X190602Y401207D01*
X189044Y399650D01*
X182144Y399650D01*
X180562Y398068D01*
X189044Y398068D01*
X190602Y396510D01*
X194052Y393060D01*
X194052Y390858D01*
X192494Y389300D01*
X189044Y385850D01*
X176492Y385850D01*
X174934Y387408D01*
X174934Y399960D01*
X176492Y401518D01*
X179941Y404968D01*
X182144Y404968D01*
X189044Y404968D01*
X213311Y394618D02*
X215514Y394618D01*
X217071Y393060D01*
X217071Y390858D01*
X213621Y387408D01*
X212064Y385850D01*
X206411Y385850D01*
X201404Y390857D01*
X201404Y406550D01*
X199511Y406550D01*
X197954Y408107D01*
X197954Y410310D01*
X199511Y411868D01*
X208614Y411868D01*
X210171Y410310D01*
X210171Y408107D01*
X208614Y406550D01*
X206722Y406550D01*
X206722Y393060D01*
X208614Y391168D01*
X209861Y391168D01*
X213311Y394618D01*
X257793Y410310D02*
X259350Y411868D01*
X261553Y411868D01*
X263111Y410310D01*
X263111Y387408D01*
X261553Y385850D01*
X249000Y385850D01*
X245551Y389300D01*
X243993Y390858D01*
X243993Y399960D01*
X247443Y403410D01*
X249000Y404968D01*
X257793Y404968D01*
X257793Y410310D01*
X307592Y385850D02*
X309150Y387408D01*
X307592Y385850D02*
X305390Y385850D01*
X303832Y387408D01*
X303832Y392750D01*
X300693Y392750D01*
X293793Y385850D01*
X291590Y385850D01*
X290032Y387408D01*
X290032Y389610D01*
X294106Y393684D01*
X290032Y397757D01*
X290032Y406860D01*
X290069Y406896D01*
X295040Y411868D01*
X307592Y411868D01*
X309150Y410310D01*
X309150Y394307D01*
X309150Y387408D01*
X274223Y385850D02*
X272020Y385850D01*
X268570Y389300D01*
X267013Y390858D01*
X267013Y399960D01*
X270463Y403410D01*
X272020Y404968D01*
X281123Y404968D01*
X284573Y401518D01*
X286130Y399960D01*
X286130Y390858D01*
X281123Y385850D01*
X278920Y385850D01*
X274223Y385850D01*
X228184Y385850D02*
X225981Y385850D01*
X222531Y389300D01*
X220973Y390858D01*
X220973Y399960D01*
X224423Y403410D01*
X225981Y404968D01*
X235083Y404968D01*
X238533Y401518D01*
X240091Y399960D01*
X240091Y390858D01*
X235083Y385850D01*
X232881Y385850D01*
X228184Y385850D01*
X98599Y408418D02*
X97042Y406860D01*
X98599Y408418D02*
X100802Y408418D01*
X102360Y406860D01*
X102360Y404968D01*
X104252Y404968D01*
X105810Y403410D01*
X105810Y401207D01*
X104252Y399650D01*
X102360Y399650D01*
X102360Y390858D01*
X97352Y385850D01*
X95149Y385850D01*
X93592Y387408D01*
X93592Y389610D01*
X97042Y393060D01*
X97042Y399650D01*
X95149Y399650D01*
X93592Y401207D01*
X93592Y403410D01*
X95149Y404968D01*
X97042Y404968D01*
X97042Y406860D01*
X88906Y391168D02*
X90463Y389610D01*
X90463Y387408D01*
X88906Y385850D01*
X76353Y385850D01*
X72903Y389300D01*
X71346Y390858D01*
X71346Y393060D01*
X74795Y396510D01*
X76353Y398068D01*
X83253Y398068D01*
X84044Y398859D01*
X83253Y399650D01*
X72903Y399650D01*
X71346Y401207D01*
X71346Y403410D01*
X72903Y404968D01*
X85456Y404968D01*
X87013Y403410D01*
X88928Y401495D01*
X90463Y399960D01*
X90463Y397757D01*
X90427Y397721D01*
X85456Y392750D01*
X78556Y392750D01*
X77765Y391959D01*
X78556Y391168D01*
X88906Y391168D01*
X51000Y380000D02*
X330000Y380000D01*
X330000Y381000D02*
X51000Y381000D01*
X51000Y382000D02*
X330000Y382000D01*
X330000Y383000D02*
X51000Y383000D01*
X51000Y384000D02*
X330000Y384000D01*
X330000Y385000D02*
X51000Y385000D01*
X307742Y386000D02*
X330000Y386000D01*
X305240Y386000D02*
X293943Y386000D01*
X291440Y386000D02*
X281273Y386000D01*
X271870Y386000D02*
X261703Y386000D01*
X248850Y386000D02*
X235233Y386000D01*
X225831Y386000D02*
X212214Y386000D01*
X206261Y386000D02*
X189194Y386000D01*
X176342Y386000D02*
X166175Y386000D01*
X153322Y386000D02*
X146605Y386000D01*
X144102Y386000D02*
X136034Y386000D01*
X133990Y386000D02*
X123972Y386000D01*
X114569Y386000D02*
X97502Y386000D01*
X94999Y386000D02*
X89056Y386000D01*
X76203Y386000D02*
X51000Y386000D01*
X308742Y387000D02*
X330000Y387000D01*
X304240Y387000D02*
X294943Y387000D01*
X290440Y387000D02*
X282273Y387000D01*
X270870Y387000D02*
X262703Y387000D01*
X247850Y387000D02*
X236233Y387000D01*
X224831Y387000D02*
X213214Y387000D01*
X205261Y387000D02*
X190194Y387000D01*
X175342Y387000D02*
X167175Y387000D01*
X152322Y387000D02*
X147605Y387000D01*
X143102Y387000D02*
X137534Y387000D01*
X132814Y387000D02*
X124972Y387000D01*
X113569Y387000D02*
X98502Y387000D01*
X93999Y387000D02*
X90056Y387000D01*
X75203Y387000D02*
X51000Y387000D01*
X309150Y388000D02*
X330000Y388000D01*
X303832Y388000D02*
X295943Y388000D01*
X290032Y388000D02*
X283273Y388000D01*
X269870Y388000D02*
X263111Y388000D01*
X246850Y388000D02*
X237233Y388000D01*
X223831Y388000D02*
X214214Y388000D01*
X204261Y388000D02*
X191194Y388000D01*
X174934Y388000D02*
X168175Y388000D01*
X151914Y388000D02*
X148012Y388000D01*
X142694Y388000D02*
X139034Y388000D01*
X132190Y388000D02*
X125972Y388000D01*
X113162Y388000D02*
X99502Y388000D01*
X93592Y388000D02*
X90463Y388000D01*
X74203Y388000D02*
X51000Y388000D01*
X309150Y389000D02*
X330000Y389000D01*
X303832Y389000D02*
X296943Y389000D01*
X290032Y389000D02*
X284273Y389000D01*
X268870Y389000D02*
X263111Y389000D01*
X245850Y389000D02*
X238233Y389000D01*
X222831Y389000D02*
X215214Y389000D01*
X203261Y389000D02*
X192194Y389000D01*
X174934Y389000D02*
X169175Y389000D01*
X151914Y389000D02*
X148012Y389000D01*
X142694Y389000D02*
X140534Y389000D01*
X132390Y389000D02*
X126972Y389000D01*
X113162Y389000D02*
X100502Y389000D01*
X93592Y389000D02*
X90463Y389000D01*
X73203Y389000D02*
X51000Y389000D01*
X309150Y390000D02*
X330000Y390000D01*
X303832Y390000D02*
X297943Y390000D01*
X290422Y390000D02*
X285273Y390000D01*
X267870Y390000D02*
X263111Y390000D01*
X244850Y390000D02*
X239233Y390000D01*
X221831Y390000D02*
X216214Y390000D01*
X202261Y390000D02*
X193194Y390000D01*
X174934Y390000D02*
X170175Y390000D01*
X152304Y390000D02*
X148012Y390000D01*
X142694Y390000D02*
X142034Y390000D01*
X132590Y390000D02*
X127972Y390000D01*
X113551Y390000D02*
X101502Y390000D01*
X93981Y390000D02*
X90074Y390000D01*
X72203Y390000D02*
X51000Y390000D01*
X309150Y391000D02*
X330000Y391000D01*
X303832Y391000D02*
X298943Y391000D01*
X291422Y391000D02*
X286130Y391000D01*
X267013Y391000D02*
X263111Y391000D01*
X243993Y391000D02*
X240091Y391000D01*
X220973Y391000D02*
X217071Y391000D01*
X201404Y391000D02*
X194052Y391000D01*
X174934Y391000D02*
X171032Y391000D01*
X153304Y391000D02*
X148012Y391000D01*
X133946Y391000D02*
X128829Y391000D01*
X114551Y391000D02*
X102360Y391000D01*
X94981Y391000D02*
X89074Y391000D01*
X71346Y391000D02*
X51000Y391000D01*
X309150Y392000D02*
X330000Y392000D01*
X303832Y392000D02*
X299943Y392000D01*
X292422Y392000D02*
X286130Y392000D01*
X279752Y392000D02*
X273391Y392000D01*
X267013Y392000D02*
X263111Y392000D01*
X257793Y392000D02*
X250371Y392000D01*
X243993Y392000D02*
X240091Y392000D01*
X233713Y392000D02*
X227352Y392000D01*
X220973Y392000D02*
X217071Y392000D01*
X210693Y392000D02*
X207782Y392000D01*
X201404Y392000D02*
X194052Y392000D01*
X187591Y392000D02*
X180252Y392000D01*
X174934Y392000D02*
X171032Y392000D01*
X164654Y392000D02*
X148012Y392000D01*
X135447Y392000D02*
X128829Y392000D01*
X122451Y392000D02*
X102360Y392000D01*
X95982Y392000D02*
X77806Y392000D01*
X71346Y392000D02*
X51000Y392000D01*
X309150Y393000D02*
X330000Y393000D01*
X293422Y393000D02*
X286130Y393000D01*
X280752Y393000D02*
X272391Y393000D01*
X267013Y393000D02*
X263111Y393000D01*
X257793Y393000D02*
X249371Y393000D01*
X243993Y393000D02*
X240091Y393000D01*
X234713Y393000D02*
X226352Y393000D01*
X220973Y393000D02*
X217071Y393000D01*
X211693Y393000D02*
X206782Y393000D01*
X201404Y393000D02*
X194052Y393000D01*
X174934Y393000D02*
X171032Y393000D01*
X165654Y393000D02*
X148012Y393000D01*
X136947Y393000D02*
X128829Y393000D01*
X111019Y393000D02*
X102360Y393000D01*
X96981Y393000D02*
X85706Y393000D01*
X71346Y393000D02*
X51000Y393000D01*
X309150Y394000D02*
X330000Y394000D01*
X293790Y394000D02*
X286130Y394000D01*
X280812Y394000D02*
X272331Y394000D01*
X267013Y394000D02*
X263111Y394000D01*
X257793Y394000D02*
X249311Y394000D01*
X243993Y394000D02*
X240091Y394000D01*
X234773Y394000D02*
X226291Y394000D01*
X220973Y394000D02*
X216132Y394000D01*
X212693Y394000D02*
X206722Y394000D01*
X201404Y394000D02*
X193112Y394000D01*
X174934Y394000D02*
X171032Y394000D01*
X165714Y394000D02*
X148012Y394000D01*
X138447Y394000D02*
X128829Y394000D01*
X110019Y394000D02*
X102360Y394000D01*
X97042Y394000D02*
X86706Y394000D01*
X72285Y394000D02*
X51000Y394000D01*
X309150Y395000D02*
X330000Y395000D01*
X292790Y395000D02*
X286130Y395000D01*
X280812Y395000D02*
X272331Y395000D01*
X267013Y395000D02*
X263111Y395000D01*
X257793Y395000D02*
X249311Y395000D01*
X243993Y395000D02*
X240091Y395000D01*
X234773Y395000D02*
X226291Y395000D01*
X220973Y395000D02*
X206722Y395000D01*
X201404Y395000D02*
X192112Y395000D01*
X174934Y395000D02*
X171032Y395000D01*
X165714Y395000D02*
X148147Y395000D01*
X139947Y395000D02*
X128829Y395000D01*
X109712Y395000D02*
X102360Y395000D01*
X97042Y395000D02*
X87706Y395000D01*
X73285Y395000D02*
X51000Y395000D01*
X309150Y396000D02*
X330000Y396000D01*
X291790Y396000D02*
X286130Y396000D01*
X280812Y396000D02*
X272331Y396000D01*
X267013Y396000D02*
X263111Y396000D01*
X257793Y396000D02*
X249311Y396000D01*
X243993Y396000D02*
X240091Y396000D01*
X234773Y396000D02*
X226291Y396000D01*
X220973Y396000D02*
X206722Y396000D01*
X201404Y396000D02*
X191112Y396000D01*
X174934Y396000D02*
X171032Y396000D01*
X165714Y396000D02*
X148155Y396000D01*
X139673Y396000D02*
X128829Y396000D01*
X109712Y396000D02*
X102360Y396000D01*
X97042Y396000D02*
X88706Y396000D01*
X74285Y396000D02*
X51000Y396000D01*
X309150Y397000D02*
X330000Y397000D01*
X290790Y397000D02*
X286130Y397000D01*
X280812Y397000D02*
X272331Y397000D01*
X267013Y397000D02*
X263111Y397000D01*
X257793Y397000D02*
X249311Y397000D01*
X243993Y397000D02*
X240091Y397000D01*
X234773Y397000D02*
X226291Y397000D01*
X220973Y397000D02*
X206722Y397000D01*
X201404Y397000D02*
X190112Y397000D01*
X174934Y397000D02*
X171032Y397000D01*
X165714Y397000D02*
X148012Y397000D01*
X138173Y397000D02*
X128829Y397000D01*
X109712Y397000D02*
X102360Y397000D01*
X97042Y397000D02*
X89706Y397000D01*
X75285Y397000D02*
X51000Y397000D01*
X309150Y398000D02*
X330000Y398000D01*
X290032Y398000D02*
X286130Y398000D01*
X280570Y398000D02*
X272573Y398000D01*
X267013Y398000D02*
X263111Y398000D01*
X257793Y398000D02*
X249553Y398000D01*
X243993Y398000D02*
X240091Y398000D01*
X234530Y398000D02*
X226534Y398000D01*
X220973Y398000D02*
X206722Y398000D01*
X201404Y398000D02*
X189112Y398000D01*
X174934Y398000D02*
X171032Y398000D01*
X165472Y398000D02*
X148012Y398000D01*
X136673Y398000D02*
X128829Y398000D01*
X109712Y398000D02*
X102360Y398000D01*
X97042Y398000D02*
X90463Y398000D01*
X76285Y398000D02*
X51000Y398000D01*
X309150Y399000D02*
X330000Y399000D01*
X303832Y399000D02*
X296310Y399000D01*
X290032Y399000D02*
X286130Y399000D01*
X279570Y399000D02*
X273573Y399000D01*
X267013Y399000D02*
X263111Y399000D01*
X257793Y399000D02*
X250553Y399000D01*
X243993Y399000D02*
X240091Y399000D01*
X233530Y399000D02*
X227534Y399000D01*
X220973Y399000D02*
X206722Y399000D01*
X201404Y399000D02*
X181494Y399000D01*
X174934Y399000D02*
X171032Y399000D01*
X164472Y399000D02*
X148012Y399000D01*
X135173Y399000D02*
X128829Y399000D01*
X122269Y399000D02*
X116272Y399000D01*
X109712Y399000D02*
X102360Y399000D01*
X97042Y399000D02*
X90463Y399000D01*
X83903Y399000D02*
X51000Y399000D01*
X309150Y400000D02*
X330000Y400000D01*
X303832Y400000D02*
X295350Y400000D01*
X290032Y400000D02*
X286091Y400000D01*
X267052Y400000D02*
X263111Y400000D01*
X244033Y400000D02*
X240051Y400000D01*
X221013Y400000D02*
X206722Y400000D01*
X201404Y400000D02*
X189394Y400000D01*
X174974Y400000D02*
X170992Y400000D01*
X153122Y400000D02*
X148012Y400000D01*
X133673Y400000D02*
X128790Y400000D01*
X109751Y400000D02*
X104602Y400000D01*
X94799Y400000D02*
X90423Y400000D01*
X72553Y400000D02*
X51000Y400000D01*
X309150Y401000D02*
X330000Y401000D01*
X303832Y401000D02*
X295350Y401000D01*
X290032Y401000D02*
X285091Y401000D01*
X268052Y401000D02*
X263111Y401000D01*
X245033Y401000D02*
X239051Y401000D01*
X222013Y401000D02*
X206722Y401000D01*
X201404Y401000D02*
X190394Y401000D01*
X175974Y401000D02*
X169992Y401000D01*
X152122Y401000D02*
X148012Y401000D01*
X142694Y401000D02*
X141760Y401000D01*
X132554Y401000D02*
X127790Y401000D01*
X110751Y401000D02*
X105602Y401000D01*
X93799Y401000D02*
X89423Y401000D01*
X71553Y401000D02*
X51000Y401000D01*
X309150Y402000D02*
X330000Y402000D01*
X303832Y402000D02*
X295350Y402000D01*
X290032Y402000D02*
X284091Y402000D01*
X269052Y402000D02*
X263111Y402000D01*
X246033Y402000D02*
X238051Y402000D01*
X223013Y402000D02*
X206722Y402000D01*
X201404Y402000D02*
X190602Y402000D01*
X176974Y402000D02*
X168992Y402000D01*
X151914Y402000D02*
X148012Y402000D01*
X142694Y402000D02*
X140260Y402000D01*
X132354Y402000D02*
X126790Y402000D01*
X111751Y402000D02*
X105810Y402000D01*
X93592Y402000D02*
X88423Y402000D01*
X71346Y402000D02*
X51000Y402000D01*
X309150Y403000D02*
X330000Y403000D01*
X303832Y403000D02*
X295350Y403000D01*
X290032Y403000D02*
X283091Y403000D01*
X270052Y403000D02*
X263111Y403000D01*
X247033Y403000D02*
X237051Y403000D01*
X224013Y403000D02*
X206722Y403000D01*
X201404Y403000D02*
X190602Y403000D01*
X177974Y403000D02*
X167992Y403000D01*
X151914Y403000D02*
X148012Y403000D01*
X142694Y403000D02*
X138760Y403000D01*
X132269Y403000D02*
X125790Y403000D01*
X112751Y403000D02*
X105810Y403000D01*
X93592Y403000D02*
X87423Y403000D01*
X71346Y403000D02*
X51000Y403000D01*
X309150Y404000D02*
X330000Y404000D01*
X303832Y404000D02*
X295350Y404000D01*
X290032Y404000D02*
X282091Y404000D01*
X271052Y404000D02*
X263111Y404000D01*
X248033Y404000D02*
X236051Y404000D01*
X225013Y404000D02*
X206722Y404000D01*
X201404Y404000D02*
X190012Y404000D01*
X178974Y404000D02*
X166992Y404000D01*
X152504Y404000D02*
X148012Y404000D01*
X142694Y404000D02*
X137260Y404000D01*
X132935Y404000D02*
X124790Y404000D01*
X113751Y404000D02*
X105220Y404000D01*
X94182Y404000D02*
X86424Y404000D01*
X71935Y404000D02*
X51000Y404000D01*
X309150Y405000D02*
X330000Y405000D01*
X303832Y405000D02*
X295693Y405000D01*
X290032Y405000D02*
X263111Y405000D01*
X257793Y405000D02*
X206722Y405000D01*
X201404Y405000D02*
X148012Y405000D01*
X142694Y405000D02*
X135760Y405000D01*
X134901Y405000D02*
X102360Y405000D01*
X97042Y405000D02*
X51000Y405000D01*
X309150Y406000D02*
X330000Y406000D01*
X303832Y406000D02*
X296693Y406000D01*
X290032Y406000D02*
X263111Y406000D01*
X257793Y406000D02*
X206722Y406000D01*
X201404Y406000D02*
X148012Y406000D01*
X142694Y406000D02*
X102360Y406000D01*
X97042Y406000D02*
X51000Y406000D01*
X309150Y407000D02*
X330000Y407000D01*
X290172Y407000D02*
X263111Y407000D01*
X257793Y407000D02*
X209064Y407000D01*
X199061Y407000D02*
X148012Y407000D01*
X142694Y407000D02*
X102220Y407000D01*
X97182Y407000D02*
X51000Y407000D01*
X309150Y408000D02*
X330000Y408000D01*
X291172Y408000D02*
X263111Y408000D01*
X257793Y408000D02*
X210064Y408000D01*
X198061Y408000D02*
X148012Y408000D01*
X142694Y408000D02*
X101220Y408000D01*
X98182Y408000D02*
X51000Y408000D01*
X309150Y409000D02*
X330000Y409000D01*
X292172Y409000D02*
X263111Y409000D01*
X257793Y409000D02*
X210171Y409000D01*
X197954Y409000D02*
X148012Y409000D01*
X142694Y409000D02*
X51000Y409000D01*
X309150Y410000D02*
X330000Y410000D01*
X293172Y410000D02*
X263111Y410000D01*
X257793Y410000D02*
X210171Y410000D01*
X197954Y410000D02*
X148012Y410000D01*
X142694Y410000D02*
X51000Y410000D01*
X308460Y411000D02*
X330000Y411000D01*
X294172Y411000D02*
X262421Y411000D01*
X258483Y411000D02*
X209482Y411000D01*
X198644Y411000D02*
X147322Y411000D01*
X143384Y411000D02*
X51000Y411000D01*
X51000Y412000D02*
X330000Y412000D01*
X330000Y413000D02*
X51000Y413000D01*
X51000Y414000D02*
X330000Y414000D01*
X330000Y415000D02*
X51000Y415000D01*
X51000Y416000D02*
X330000Y416000D01*
X330000Y417000D02*
X51000Y417000D01*
X51000Y418000D02*
X330000Y418000D01*
D10*
X275875Y284763D02*
X275875Y275238D01*
D11*
X265614Y272888D02*
X265614Y266284D01*
X265614Y272888D02*
X263780Y272888D01*
X263695Y272886D01*
X263611Y272880D01*
X263527Y272870D01*
X263443Y272857D01*
X263360Y272839D01*
X263278Y272818D01*
X263197Y272793D01*
X263117Y272764D01*
X263039Y272732D01*
X262963Y272696D01*
X262888Y272656D01*
X262815Y272613D01*
X262744Y272567D01*
X262675Y272518D01*
X262608Y272465D01*
X262544Y272409D01*
X262483Y272351D01*
X262425Y272290D01*
X262369Y272226D01*
X262316Y272159D01*
X262267Y272090D01*
X262221Y272019D01*
X262178Y271946D01*
X262138Y271871D01*
X262102Y271795D01*
X262070Y271717D01*
X262041Y271637D01*
X262016Y271556D01*
X261995Y271474D01*
X261977Y271391D01*
X261964Y271307D01*
X261954Y271223D01*
X261948Y271139D01*
X261946Y271054D01*
X261945Y271054D02*
X261945Y268118D01*
X261946Y268118D02*
X261948Y268033D01*
X261954Y267949D01*
X261964Y267865D01*
X261977Y267781D01*
X261995Y267698D01*
X262016Y267616D01*
X262041Y267535D01*
X262070Y267455D01*
X262102Y267377D01*
X262138Y267301D01*
X262178Y267226D01*
X262221Y267153D01*
X262267Y267082D01*
X262316Y267013D01*
X262369Y266946D01*
X262425Y266882D01*
X262483Y266821D01*
X262544Y266763D01*
X262608Y266707D01*
X262675Y266654D01*
X262744Y266605D01*
X262815Y266559D01*
X262888Y266516D01*
X262963Y266476D01*
X263039Y266440D01*
X263117Y266408D01*
X263197Y266379D01*
X263278Y266354D01*
X263360Y266333D01*
X263443Y266315D01*
X263527Y266302D01*
X263611Y266292D01*
X263695Y266286D01*
X263780Y266284D01*
X265614Y266284D01*
X258055Y267752D02*
X256587Y272888D01*
X258055Y267752D02*
X254386Y267752D01*
X255487Y269219D02*
X255487Y266284D01*
X242238Y268388D02*
X240770Y266554D01*
X242238Y268388D02*
X235634Y268388D01*
X235634Y266554D02*
X235634Y270223D01*
X235634Y273326D02*
X236001Y273326D01*
X236001Y273692D01*
X235634Y273692D01*
X235634Y273326D01*
X237468Y276796D02*
X237553Y276798D01*
X237637Y276804D01*
X237721Y276814D01*
X237805Y276827D01*
X237888Y276845D01*
X237970Y276866D01*
X238051Y276891D01*
X238131Y276920D01*
X238209Y276952D01*
X238285Y276988D01*
X238360Y277028D01*
X238433Y277071D01*
X238504Y277117D01*
X238573Y277166D01*
X238640Y277219D01*
X238704Y277275D01*
X238765Y277333D01*
X238823Y277394D01*
X238879Y277458D01*
X238932Y277525D01*
X238981Y277594D01*
X239027Y277665D01*
X239070Y277738D01*
X239110Y277813D01*
X239146Y277889D01*
X239178Y277967D01*
X239207Y278047D01*
X239232Y278128D01*
X239253Y278210D01*
X239271Y278293D01*
X239284Y278377D01*
X239294Y278461D01*
X239300Y278545D01*
X239302Y278630D01*
X239300Y278715D01*
X239294Y278799D01*
X239284Y278883D01*
X239271Y278967D01*
X239253Y279050D01*
X239232Y279132D01*
X239207Y279213D01*
X239178Y279293D01*
X239146Y279371D01*
X239110Y279447D01*
X239070Y279522D01*
X239027Y279595D01*
X238981Y279666D01*
X238932Y279735D01*
X238879Y279802D01*
X238823Y279866D01*
X238765Y279927D01*
X238704Y279985D01*
X238640Y280041D01*
X238573Y280094D01*
X238504Y280143D01*
X238433Y280189D01*
X238360Y280232D01*
X238285Y280272D01*
X238209Y280308D01*
X238131Y280340D01*
X238051Y280369D01*
X237970Y280394D01*
X237888Y280415D01*
X237805Y280433D01*
X237721Y280446D01*
X237637Y280456D01*
X237553Y280462D01*
X237468Y280464D01*
X237383Y280462D01*
X237299Y280456D01*
X237215Y280446D01*
X237131Y280433D01*
X237048Y280415D01*
X236966Y280394D01*
X236885Y280369D01*
X236805Y280340D01*
X236727Y280308D01*
X236651Y280272D01*
X236576Y280232D01*
X236503Y280189D01*
X236432Y280143D01*
X236363Y280094D01*
X236296Y280041D01*
X236232Y279985D01*
X236171Y279927D01*
X236113Y279866D01*
X236057Y279802D01*
X236004Y279735D01*
X235955Y279666D01*
X235909Y279595D01*
X235866Y279522D01*
X235826Y279447D01*
X235790Y279371D01*
X235758Y279293D01*
X235729Y279213D01*
X235704Y279132D01*
X235683Y279050D01*
X235665Y278967D01*
X235652Y278883D01*
X235642Y278799D01*
X235636Y278715D01*
X235634Y278630D01*
X235636Y278545D01*
X235642Y278461D01*
X235652Y278377D01*
X235665Y278293D01*
X235683Y278210D01*
X235704Y278128D01*
X235729Y278047D01*
X235758Y277967D01*
X235790Y277889D01*
X235826Y277813D01*
X235866Y277738D01*
X235909Y277665D01*
X235955Y277594D01*
X236004Y277525D01*
X236057Y277458D01*
X236113Y277394D01*
X236171Y277333D01*
X236232Y277275D01*
X236296Y277219D01*
X236363Y277166D01*
X236432Y277117D01*
X236503Y277071D01*
X236576Y277028D01*
X236651Y276988D01*
X236727Y276952D01*
X236805Y276920D01*
X236885Y276891D01*
X236966Y276866D01*
X237048Y276845D01*
X237131Y276827D01*
X237215Y276814D01*
X237299Y276804D01*
X237383Y276798D01*
X237468Y276796D01*
X240770Y277162D02*
X240846Y277164D01*
X240921Y277170D01*
X240996Y277179D01*
X241070Y277193D01*
X241144Y277210D01*
X241216Y277232D01*
X241288Y277256D01*
X241358Y277285D01*
X241426Y277317D01*
X241493Y277352D01*
X241558Y277391D01*
X241621Y277434D01*
X241681Y277479D01*
X241739Y277527D01*
X241795Y277579D01*
X241847Y277633D01*
X241897Y277690D01*
X241944Y277749D01*
X241988Y277810D01*
X242029Y277874D01*
X242066Y277940D01*
X242100Y278008D01*
X242130Y278077D01*
X242157Y278148D01*
X242180Y278220D01*
X242199Y278293D01*
X242214Y278367D01*
X242226Y278442D01*
X242234Y278517D01*
X242238Y278592D01*
X242238Y278668D01*
X242234Y278743D01*
X242226Y278818D01*
X242214Y278893D01*
X242199Y278967D01*
X242180Y279040D01*
X242157Y279112D01*
X242130Y279183D01*
X242100Y279252D01*
X242066Y279320D01*
X242029Y279386D01*
X241988Y279450D01*
X241944Y279511D01*
X241897Y279570D01*
X241847Y279627D01*
X241795Y279681D01*
X241739Y279733D01*
X241681Y279781D01*
X241621Y279826D01*
X241558Y279869D01*
X241493Y279908D01*
X241426Y279943D01*
X241358Y279975D01*
X241288Y280004D01*
X241216Y280028D01*
X241144Y280050D01*
X241070Y280067D01*
X240996Y280081D01*
X240921Y280090D01*
X240846Y280096D01*
X240770Y280098D01*
X240694Y280096D01*
X240619Y280090D01*
X240544Y280081D01*
X240470Y280067D01*
X240396Y280050D01*
X240324Y280028D01*
X240252Y280004D01*
X240182Y279975D01*
X240114Y279943D01*
X240047Y279908D01*
X239982Y279869D01*
X239919Y279826D01*
X239859Y279781D01*
X239801Y279733D01*
X239745Y279681D01*
X239693Y279627D01*
X239643Y279570D01*
X239596Y279511D01*
X239552Y279450D01*
X239511Y279386D01*
X239474Y279320D01*
X239440Y279252D01*
X239410Y279183D01*
X239383Y279112D01*
X239360Y279040D01*
X239341Y278967D01*
X239326Y278893D01*
X239314Y278818D01*
X239306Y278743D01*
X239302Y278668D01*
X239302Y278592D01*
X239306Y278517D01*
X239314Y278442D01*
X239326Y278367D01*
X239341Y278293D01*
X239360Y278220D01*
X239383Y278148D01*
X239410Y278077D01*
X239440Y278008D01*
X239474Y277940D01*
X239511Y277874D01*
X239552Y277810D01*
X239596Y277749D01*
X239643Y277690D01*
X239693Y277633D01*
X239745Y277579D01*
X239801Y277527D01*
X239859Y277479D01*
X239919Y277434D01*
X239982Y277391D01*
X240047Y277352D01*
X240114Y277317D01*
X240182Y277285D01*
X240252Y277256D01*
X240324Y277232D01*
X240396Y277210D01*
X240470Y277193D01*
X240544Y277179D01*
X240619Y277170D01*
X240694Y277164D01*
X240770Y277162D01*
X242238Y283743D02*
X235634Y285945D01*
X242238Y288146D01*
D10*
X214000Y261000D02*
X164000Y261000D01*
X164000Y220000D01*
X164000Y211000D01*
X173000Y211000D01*
X214000Y211000D01*
X214000Y261000D01*
X164000Y220000D02*
X173000Y211000D01*
X176000Y208000D01*
X172000Y204000D01*
X164000Y211000D01*
X171795Y236000D02*
X171800Y236422D01*
X171816Y236844D01*
X171842Y237266D01*
X171878Y237686D01*
X171924Y238106D01*
X171981Y238524D01*
X172048Y238941D01*
X172126Y239357D01*
X172213Y239770D01*
X172311Y240180D01*
X172418Y240589D01*
X172536Y240994D01*
X172663Y241397D01*
X172801Y241796D01*
X172948Y242192D01*
X173105Y242584D01*
X173271Y242972D01*
X173447Y243356D01*
X173632Y243736D01*
X173827Y244110D01*
X174030Y244480D01*
X174243Y244845D01*
X174464Y245205D01*
X174695Y245559D01*
X174933Y245907D01*
X175181Y246249D01*
X175436Y246585D01*
X175700Y246915D01*
X175972Y247238D01*
X176252Y247554D01*
X176539Y247864D01*
X176834Y248166D01*
X177136Y248461D01*
X177446Y248748D01*
X177762Y249028D01*
X178085Y249300D01*
X178415Y249564D01*
X178751Y249819D01*
X179093Y250067D01*
X179441Y250305D01*
X179795Y250536D01*
X180155Y250757D01*
X180520Y250970D01*
X180890Y251173D01*
X181264Y251368D01*
X181644Y251553D01*
X182028Y251729D01*
X182416Y251895D01*
X182808Y252052D01*
X183204Y252199D01*
X183603Y252337D01*
X184006Y252464D01*
X184411Y252582D01*
X184820Y252689D01*
X185230Y252787D01*
X185643Y252874D01*
X186059Y252952D01*
X186476Y253019D01*
X186894Y253076D01*
X187314Y253122D01*
X187734Y253158D01*
X188156Y253184D01*
X188578Y253200D01*
X189000Y253205D01*
X189422Y253200D01*
X189844Y253184D01*
X190266Y253158D01*
X190686Y253122D01*
X191106Y253076D01*
X191524Y253019D01*
X191941Y252952D01*
X192357Y252874D01*
X192770Y252787D01*
X193180Y252689D01*
X193589Y252582D01*
X193994Y252464D01*
X194397Y252337D01*
X194796Y252199D01*
X195192Y252052D01*
X195584Y251895D01*
X195972Y251729D01*
X196356Y251553D01*
X196736Y251368D01*
X197110Y251173D01*
X197480Y250970D01*
X197845Y250757D01*
X198205Y250536D01*
X198559Y250305D01*
X198907Y250067D01*
X199249Y249819D01*
X199585Y249564D01*
X199915Y249300D01*
X200238Y249028D01*
X200554Y248748D01*
X200864Y248461D01*
X201166Y248166D01*
X201461Y247864D01*
X201748Y247554D01*
X202028Y247238D01*
X202300Y246915D01*
X202564Y246585D01*
X202819Y246249D01*
X203067Y245907D01*
X203305Y245559D01*
X203536Y245205D01*
X203757Y244845D01*
X203970Y244480D01*
X204173Y244110D01*
X204368Y243736D01*
X204553Y243356D01*
X204729Y242972D01*
X204895Y242584D01*
X205052Y242192D01*
X205199Y241796D01*
X205337Y241397D01*
X205464Y240994D01*
X205582Y240589D01*
X205689Y240180D01*
X205787Y239770D01*
X205874Y239357D01*
X205952Y238941D01*
X206019Y238524D01*
X206076Y238106D01*
X206122Y237686D01*
X206158Y237266D01*
X206184Y236844D01*
X206200Y236422D01*
X206205Y236000D01*
X206200Y235578D01*
X206184Y235156D01*
X206158Y234734D01*
X206122Y234314D01*
X206076Y233894D01*
X206019Y233476D01*
X205952Y233059D01*
X205874Y232643D01*
X205787Y232230D01*
X205689Y231820D01*
X205582Y231411D01*
X205464Y231006D01*
X205337Y230603D01*
X205199Y230204D01*
X205052Y229808D01*
X204895Y229416D01*
X204729Y229028D01*
X204553Y228644D01*
X204368Y228264D01*
X204173Y227890D01*
X203970Y227520D01*
X203757Y227155D01*
X203536Y226795D01*
X203305Y226441D01*
X203067Y226093D01*
X202819Y225751D01*
X202564Y225415D01*
X202300Y225085D01*
X202028Y224762D01*
X201748Y224446D01*
X201461Y224136D01*
X201166Y223834D01*
X200864Y223539D01*
X200554Y223252D01*
X200238Y222972D01*
X199915Y222700D01*
X199585Y222436D01*
X199249Y222181D01*
X198907Y221933D01*
X198559Y221695D01*
X198205Y221464D01*
X197845Y221243D01*
X197480Y221030D01*
X197110Y220827D01*
X196736Y220632D01*
X196356Y220447D01*
X195972Y220271D01*
X195584Y220105D01*
X195192Y219948D01*
X194796Y219801D01*
X194397Y219663D01*
X193994Y219536D01*
X193589Y219418D01*
X193180Y219311D01*
X192770Y219213D01*
X192357Y219126D01*
X191941Y219048D01*
X191524Y218981D01*
X191106Y218924D01*
X190686Y218878D01*
X190266Y218842D01*
X189844Y218816D01*
X189422Y218800D01*
X189000Y218795D01*
X188578Y218800D01*
X188156Y218816D01*
X187734Y218842D01*
X187314Y218878D01*
X186894Y218924D01*
X186476Y218981D01*
X186059Y219048D01*
X185643Y219126D01*
X185230Y219213D01*
X184820Y219311D01*
X184411Y219418D01*
X184006Y219536D01*
X183603Y219663D01*
X183204Y219801D01*
X182808Y219948D01*
X182416Y220105D01*
X182028Y220271D01*
X181644Y220447D01*
X181264Y220632D01*
X180890Y220827D01*
X180520Y221030D01*
X180155Y221243D01*
X179795Y221464D01*
X179441Y221695D01*
X179093Y221933D01*
X178751Y222181D01*
X178415Y222436D01*
X178085Y222700D01*
X177762Y222972D01*
X177446Y223252D01*
X177136Y223539D01*
X176834Y223834D01*
X176539Y224136D01*
X176252Y224446D01*
X175972Y224762D01*
X175700Y225085D01*
X175436Y225415D01*
X175181Y225751D01*
X174933Y226093D01*
X174695Y226441D01*
X174464Y226795D01*
X174243Y227155D01*
X174030Y227520D01*
X173827Y227890D01*
X173632Y228264D01*
X173447Y228644D01*
X173271Y229028D01*
X173105Y229416D01*
X172948Y229808D01*
X172801Y230204D01*
X172663Y230603D01*
X172536Y231006D01*
X172418Y231411D01*
X172311Y231820D01*
X172213Y232230D01*
X172126Y232643D01*
X172048Y233059D01*
X171981Y233476D01*
X171924Y233894D01*
X171878Y234314D01*
X171842Y234734D01*
X171816Y235156D01*
X171800Y235578D01*
X171795Y236000D01*
D13*
X224306Y220506D02*
X231672Y220506D01*
X224306Y220506D02*
X224306Y223780D01*
X224306Y226846D02*
X224306Y230120D01*
X224306Y226846D02*
X231672Y226846D01*
X231672Y230120D01*
X228398Y229301D02*
X228398Y226846D01*
X231672Y233170D02*
X224306Y233170D01*
X231672Y233170D02*
X231672Y235216D01*
X231670Y235305D01*
X231664Y235394D01*
X231654Y235483D01*
X231641Y235571D01*
X231624Y235659D01*
X231602Y235746D01*
X231577Y235831D01*
X231549Y235916D01*
X231516Y235999D01*
X231480Y236081D01*
X231441Y236161D01*
X231398Y236239D01*
X231352Y236315D01*
X231302Y236390D01*
X231249Y236462D01*
X231193Y236531D01*
X231134Y236598D01*
X231073Y236663D01*
X231008Y236724D01*
X230941Y236783D01*
X230872Y236839D01*
X230800Y236892D01*
X230725Y236942D01*
X230649Y236988D01*
X230571Y237031D01*
X230491Y237070D01*
X230409Y237106D01*
X230326Y237139D01*
X230241Y237167D01*
X230156Y237192D01*
X230069Y237214D01*
X229981Y237231D01*
X229893Y237244D01*
X229804Y237254D01*
X229715Y237260D01*
X229626Y237262D01*
X226352Y237262D01*
X226263Y237260D01*
X226174Y237254D01*
X226085Y237244D01*
X225997Y237231D01*
X225909Y237214D01*
X225822Y237192D01*
X225737Y237167D01*
X225652Y237139D01*
X225569Y237106D01*
X225487Y237070D01*
X225407Y237031D01*
X225329Y236988D01*
X225253Y236942D01*
X225178Y236892D01*
X225106Y236839D01*
X225037Y236783D01*
X224970Y236724D01*
X224905Y236663D01*
X224844Y236598D01*
X224785Y236531D01*
X224729Y236462D01*
X224676Y236390D01*
X224626Y236315D01*
X224580Y236239D01*
X224537Y236161D01*
X224498Y236081D01*
X224462Y235999D01*
X224429Y235916D01*
X224401Y235831D01*
X224376Y235746D01*
X224354Y235659D01*
X224337Y235571D01*
X224324Y235483D01*
X224314Y235394D01*
X224308Y235305D01*
X224306Y235216D01*
X224306Y233170D01*
X230035Y240729D02*
X231672Y242775D01*
X224306Y242775D01*
X224306Y240729D02*
X224306Y244821D01*
D14*
X98700Y35300D02*
X98702Y35409D01*
X98708Y35518D01*
X98718Y35626D01*
X98732Y35734D01*
X98749Y35842D01*
X98771Y35949D01*
X98796Y36055D01*
X98826Y36159D01*
X98859Y36263D01*
X98896Y36366D01*
X98936Y36467D01*
X98980Y36566D01*
X99028Y36664D01*
X99080Y36761D01*
X99134Y36855D01*
X99192Y36947D01*
X99254Y37037D01*
X99319Y37124D01*
X99386Y37210D01*
X99457Y37293D01*
X99531Y37373D01*
X99608Y37450D01*
X99687Y37525D01*
X99769Y37596D01*
X99854Y37665D01*
X99941Y37730D01*
X100030Y37793D01*
X100122Y37851D01*
X100216Y37907D01*
X100311Y37959D01*
X100409Y38008D01*
X100508Y38053D01*
X100609Y38095D01*
X100711Y38132D01*
X100814Y38166D01*
X100919Y38197D01*
X101025Y38223D01*
X101131Y38246D01*
X101239Y38264D01*
X101347Y38279D01*
X101455Y38290D01*
X101564Y38297D01*
X101673Y38300D01*
X101782Y38299D01*
X101891Y38294D01*
X101999Y38285D01*
X102107Y38272D01*
X102215Y38255D01*
X102322Y38235D01*
X102428Y38210D01*
X102533Y38182D01*
X102637Y38150D01*
X102740Y38114D01*
X102842Y38074D01*
X102942Y38031D01*
X103040Y37984D01*
X103137Y37934D01*
X103231Y37880D01*
X103324Y37822D01*
X103415Y37762D01*
X103503Y37698D01*
X103589Y37631D01*
X103672Y37561D01*
X103753Y37488D01*
X103831Y37412D01*
X103906Y37333D01*
X103979Y37251D01*
X104048Y37167D01*
X104114Y37081D01*
X104177Y36992D01*
X104237Y36901D01*
X104294Y36808D01*
X104347Y36713D01*
X104396Y36616D01*
X104442Y36517D01*
X104484Y36417D01*
X104523Y36315D01*
X104558Y36211D01*
X104589Y36107D01*
X104617Y36002D01*
X104640Y35895D01*
X104660Y35788D01*
X104676Y35680D01*
X104688Y35572D01*
X104696Y35463D01*
X104700Y35354D01*
X104700Y35246D01*
X104696Y35137D01*
X104688Y35028D01*
X104676Y34920D01*
X104660Y34812D01*
X104640Y34705D01*
X104617Y34598D01*
X104589Y34493D01*
X104558Y34389D01*
X104523Y34285D01*
X104484Y34183D01*
X104442Y34083D01*
X104396Y33984D01*
X104347Y33887D01*
X104294Y33792D01*
X104237Y33699D01*
X104177Y33608D01*
X104114Y33519D01*
X104048Y33433D01*
X103979Y33349D01*
X103906Y33267D01*
X103831Y33188D01*
X103753Y33112D01*
X103672Y33039D01*
X103589Y32969D01*
X103503Y32902D01*
X103415Y32838D01*
X103324Y32778D01*
X103231Y32720D01*
X103137Y32666D01*
X103040Y32616D01*
X102942Y32569D01*
X102842Y32526D01*
X102740Y32486D01*
X102637Y32450D01*
X102533Y32418D01*
X102428Y32390D01*
X102322Y32365D01*
X102215Y32345D01*
X102107Y32328D01*
X101999Y32315D01*
X101891Y32306D01*
X101782Y32301D01*
X101673Y32300D01*
X101564Y32303D01*
X101455Y32310D01*
X101347Y32321D01*
X101239Y32336D01*
X101131Y32354D01*
X101025Y32377D01*
X100919Y32403D01*
X100814Y32434D01*
X100711Y32468D01*
X100609Y32505D01*
X100508Y32547D01*
X100409Y32592D01*
X100311Y32641D01*
X100216Y32693D01*
X100122Y32749D01*
X100030Y32807D01*
X99941Y32870D01*
X99854Y32935D01*
X99769Y33004D01*
X99687Y33075D01*
X99608Y33150D01*
X99531Y33227D01*
X99457Y33307D01*
X99386Y33390D01*
X99319Y33476D01*
X99254Y33563D01*
X99192Y33653D01*
X99134Y33745D01*
X99080Y33839D01*
X99028Y33936D01*
X98980Y34034D01*
X98936Y34133D01*
X98896Y34234D01*
X98859Y34337D01*
X98826Y34441D01*
X98796Y34545D01*
X98771Y34651D01*
X98749Y34758D01*
X98732Y34866D01*
X98718Y34974D01*
X98708Y35082D01*
X98702Y35191D01*
X98700Y35300D01*
D10*
X271000Y195000D02*
X271000Y199000D01*
X109000Y199000D01*
X109000Y195000D01*
X271000Y41000D02*
X271000Y37000D01*
X109000Y37000D01*
X109000Y41000D01*
D15*
X273857Y30557D02*
X273857Y23036D01*
X273855Y22929D01*
X273849Y22822D01*
X273839Y22716D01*
X273825Y22610D01*
X273808Y22504D01*
X273786Y22400D01*
X273761Y22296D01*
X273731Y22193D01*
X273698Y22091D01*
X273662Y21991D01*
X273621Y21892D01*
X273577Y21795D01*
X273529Y21699D01*
X273478Y21605D01*
X273424Y21513D01*
X273366Y21423D01*
X273304Y21336D01*
X273240Y21250D01*
X273173Y21167D01*
X273102Y21087D01*
X273028Y21009D01*
X272952Y20934D01*
X272873Y20862D01*
X272792Y20793D01*
X272707Y20727D01*
X272621Y20664D01*
X272532Y20605D01*
X272441Y20549D01*
X272348Y20496D01*
X272254Y20446D01*
X272157Y20400D01*
X272059Y20358D01*
X271959Y20320D01*
X271858Y20285D01*
X271756Y20253D01*
X271652Y20226D01*
X271548Y20203D01*
X271443Y20183D01*
X271337Y20167D01*
X271231Y20155D01*
X271124Y20147D01*
X271017Y20143D01*
X270911Y20143D01*
X270804Y20147D01*
X270697Y20155D01*
X270591Y20167D01*
X270485Y20183D01*
X270380Y20203D01*
X270276Y20226D01*
X270172Y20253D01*
X270070Y20285D01*
X269969Y20320D01*
X269869Y20358D01*
X269771Y20400D01*
X269674Y20446D01*
X269580Y20496D01*
X269487Y20549D01*
X269396Y20605D01*
X269307Y20664D01*
X269221Y20727D01*
X269136Y20793D01*
X269055Y20862D01*
X268976Y20934D01*
X268900Y21009D01*
X268826Y21087D01*
X268755Y21167D01*
X268688Y21250D01*
X268624Y21336D01*
X268562Y21423D01*
X268504Y21513D01*
X268450Y21605D01*
X268399Y21699D01*
X268351Y21795D01*
X268307Y21892D01*
X268266Y21991D01*
X268230Y22091D01*
X268197Y22193D01*
X268167Y22296D01*
X268142Y22400D01*
X268120Y22504D01*
X268103Y22610D01*
X268089Y22716D01*
X268079Y22822D01*
X268073Y22929D01*
X268071Y23036D01*
X268071Y30557D01*
X259732Y30557D02*
X262046Y22457D01*
X256261Y22457D01*
X257996Y24771D02*
X257996Y20143D01*
D11*
X82433Y79382D02*
X80965Y79382D01*
X82433Y79382D02*
X82507Y79384D01*
X82582Y79390D01*
X82655Y79399D01*
X82729Y79412D01*
X82801Y79429D01*
X82872Y79449D01*
X82943Y79473D01*
X83012Y79501D01*
X83080Y79532D01*
X83145Y79566D01*
X83210Y79604D01*
X83272Y79645D01*
X83332Y79689D01*
X83389Y79736D01*
X83444Y79786D01*
X83497Y79839D01*
X83547Y79894D01*
X83594Y79951D01*
X83638Y80011D01*
X83679Y80073D01*
X83717Y80138D01*
X83751Y80204D01*
X83782Y80271D01*
X83810Y80340D01*
X83834Y80411D01*
X83854Y80482D01*
X83871Y80555D01*
X83884Y80628D01*
X83893Y80702D01*
X83899Y80776D01*
X83901Y80850D01*
X83900Y80850D02*
X83900Y84518D01*
X83901Y84518D02*
X83899Y84592D01*
X83893Y84667D01*
X83884Y84740D01*
X83871Y84813D01*
X83854Y84886D01*
X83834Y84957D01*
X83810Y85028D01*
X83782Y85097D01*
X83751Y85164D01*
X83717Y85230D01*
X83679Y85295D01*
X83638Y85357D01*
X83594Y85417D01*
X83547Y85474D01*
X83497Y85529D01*
X83444Y85582D01*
X83389Y85632D01*
X83332Y85679D01*
X83272Y85723D01*
X83210Y85764D01*
X83145Y85802D01*
X83080Y85836D01*
X83012Y85867D01*
X82943Y85895D01*
X82873Y85919D01*
X82801Y85939D01*
X82729Y85956D01*
X82655Y85969D01*
X82582Y85978D01*
X82507Y85984D01*
X82433Y85986D01*
X80965Y85986D01*
X76301Y85986D02*
X77769Y80850D01*
X74100Y80850D01*
X75200Y82317D02*
X75200Y79382D01*
X24000Y330000D02*
X-136000Y330000D01*
X-136000Y430000D01*
X24000Y430000D01*
X24000Y330000D01*
D13*
X32381Y341381D02*
X41779Y341381D01*
X41779Y343992D01*
X41777Y344093D01*
X41771Y344194D01*
X41761Y344295D01*
X41748Y344395D01*
X41730Y344495D01*
X41709Y344594D01*
X41683Y344692D01*
X41654Y344789D01*
X41622Y344885D01*
X41585Y344979D01*
X41545Y345072D01*
X41501Y345164D01*
X41454Y345253D01*
X41403Y345341D01*
X41349Y345427D01*
X41292Y345510D01*
X41232Y345592D01*
X41168Y345670D01*
X41102Y345747D01*
X41032Y345820D01*
X40960Y345891D01*
X40885Y345959D01*
X40807Y346024D01*
X40727Y346086D01*
X40645Y346145D01*
X40560Y346201D01*
X40474Y346253D01*
X40385Y346302D01*
X40294Y346348D01*
X40202Y346389D01*
X40108Y346428D01*
X40013Y346462D01*
X39917Y346493D01*
X39819Y346520D01*
X39721Y346544D01*
X39621Y346563D01*
X39521Y346579D01*
X39421Y346591D01*
X39320Y346599D01*
X39219Y346603D01*
X39117Y346603D01*
X39016Y346599D01*
X38915Y346591D01*
X38815Y346579D01*
X38715Y346563D01*
X38615Y346544D01*
X38517Y346520D01*
X38419Y346493D01*
X38323Y346462D01*
X38228Y346428D01*
X38134Y346389D01*
X38042Y346348D01*
X37951Y346302D01*
X37863Y346253D01*
X37776Y346201D01*
X37691Y346145D01*
X37609Y346086D01*
X37529Y346024D01*
X37451Y345959D01*
X37376Y345891D01*
X37304Y345820D01*
X37234Y345747D01*
X37168Y345670D01*
X37104Y345592D01*
X37044Y345510D01*
X36987Y345427D01*
X36933Y345341D01*
X36882Y345253D01*
X36835Y345164D01*
X36791Y345072D01*
X36751Y344979D01*
X36714Y344885D01*
X36682Y344789D01*
X36653Y344692D01*
X36627Y344594D01*
X36606Y344495D01*
X36588Y344395D01*
X36575Y344295D01*
X36565Y344194D01*
X36559Y344093D01*
X36557Y343992D01*
X36558Y343992D02*
X36558Y341381D01*
X34992Y350089D02*
X39168Y350089D01*
X39168Y350088D02*
X39269Y350090D01*
X39370Y350096D01*
X39471Y350106D01*
X39571Y350119D01*
X39671Y350137D01*
X39770Y350158D01*
X39868Y350184D01*
X39965Y350213D01*
X40061Y350245D01*
X40155Y350282D01*
X40248Y350322D01*
X40340Y350366D01*
X40429Y350413D01*
X40517Y350464D01*
X40603Y350518D01*
X40686Y350575D01*
X40768Y350635D01*
X40846Y350699D01*
X40923Y350765D01*
X40996Y350835D01*
X41067Y350907D01*
X41135Y350982D01*
X41200Y351060D01*
X41262Y351140D01*
X41321Y351222D01*
X41377Y351307D01*
X41429Y351394D01*
X41478Y351482D01*
X41524Y351573D01*
X41565Y351665D01*
X41604Y351759D01*
X41638Y351854D01*
X41669Y351950D01*
X41696Y352048D01*
X41720Y352146D01*
X41739Y352246D01*
X41755Y352346D01*
X41767Y352446D01*
X41775Y352547D01*
X41779Y352648D01*
X41779Y352750D01*
X41775Y352851D01*
X41767Y352952D01*
X41755Y353052D01*
X41739Y353152D01*
X41720Y353252D01*
X41696Y353350D01*
X41669Y353448D01*
X41638Y353544D01*
X41604Y353639D01*
X41565Y353733D01*
X41524Y353825D01*
X41478Y353916D01*
X41429Y354004D01*
X41377Y354091D01*
X41321Y354176D01*
X41262Y354258D01*
X41200Y354338D01*
X41135Y354416D01*
X41067Y354491D01*
X40996Y354563D01*
X40923Y354633D01*
X40846Y354699D01*
X40768Y354763D01*
X40686Y354823D01*
X40603Y354880D01*
X40517Y354934D01*
X40429Y354985D01*
X40340Y355032D01*
X40248Y355076D01*
X40155Y355116D01*
X40061Y355153D01*
X39965Y355185D01*
X39868Y355214D01*
X39770Y355240D01*
X39671Y355261D01*
X39571Y355279D01*
X39471Y355292D01*
X39370Y355302D01*
X39269Y355308D01*
X39168Y355310D01*
X34992Y355310D01*
X34891Y355308D01*
X34790Y355302D01*
X34689Y355292D01*
X34589Y355279D01*
X34489Y355261D01*
X34390Y355240D01*
X34292Y355214D01*
X34195Y355185D01*
X34099Y355153D01*
X34005Y355116D01*
X33912Y355076D01*
X33820Y355032D01*
X33731Y354985D01*
X33643Y354934D01*
X33557Y354880D01*
X33474Y354823D01*
X33392Y354763D01*
X33314Y354699D01*
X33237Y354633D01*
X33164Y354563D01*
X33093Y354491D01*
X33025Y354416D01*
X32960Y354338D01*
X32898Y354258D01*
X32839Y354176D01*
X32783Y354091D01*
X32731Y354005D01*
X32682Y353916D01*
X32636Y353825D01*
X32595Y353733D01*
X32556Y353639D01*
X32522Y353544D01*
X32491Y353448D01*
X32464Y353350D01*
X32440Y353252D01*
X32421Y353152D01*
X32405Y353052D01*
X32393Y352952D01*
X32385Y352851D01*
X32381Y352750D01*
X32381Y352648D01*
X32385Y352547D01*
X32393Y352446D01*
X32405Y352346D01*
X32421Y352246D01*
X32440Y352146D01*
X32464Y352048D01*
X32491Y351950D01*
X32522Y351854D01*
X32556Y351759D01*
X32595Y351665D01*
X32636Y351573D01*
X32682Y351482D01*
X32731Y351394D01*
X32783Y351307D01*
X32839Y351222D01*
X32898Y351140D01*
X32960Y351060D01*
X33025Y350982D01*
X33093Y350907D01*
X33164Y350835D01*
X33237Y350765D01*
X33314Y350699D01*
X33392Y350635D01*
X33474Y350575D01*
X33557Y350518D01*
X33643Y350464D01*
X33731Y350413D01*
X33820Y350366D01*
X33912Y350322D01*
X34005Y350282D01*
X34099Y350245D01*
X34195Y350213D01*
X34292Y350184D01*
X34390Y350158D01*
X34489Y350137D01*
X34589Y350119D01*
X34689Y350106D01*
X34790Y350096D01*
X34891Y350090D01*
X34992Y350088D01*
X41779Y358886D02*
X32381Y360974D01*
X38646Y363063D01*
X32381Y365151D01*
X41779Y367240D01*
X32381Y371138D02*
X32381Y375314D01*
X32381Y371138D02*
X41779Y371138D01*
X41779Y375314D01*
X37602Y374270D02*
X37602Y371138D01*
X41779Y379102D02*
X32381Y379102D01*
X41779Y379102D02*
X41779Y381712D01*
X41777Y381813D01*
X41771Y381914D01*
X41761Y382015D01*
X41748Y382115D01*
X41730Y382215D01*
X41709Y382314D01*
X41683Y382412D01*
X41654Y382509D01*
X41622Y382605D01*
X41585Y382699D01*
X41545Y382792D01*
X41501Y382884D01*
X41454Y382973D01*
X41403Y383061D01*
X41349Y383147D01*
X41292Y383230D01*
X41232Y383312D01*
X41168Y383390D01*
X41102Y383467D01*
X41032Y383540D01*
X40960Y383611D01*
X40885Y383679D01*
X40807Y383744D01*
X40727Y383806D01*
X40645Y383865D01*
X40560Y383921D01*
X40474Y383973D01*
X40385Y384022D01*
X40294Y384068D01*
X40202Y384109D01*
X40108Y384148D01*
X40013Y384182D01*
X39917Y384213D01*
X39819Y384240D01*
X39721Y384264D01*
X39621Y384283D01*
X39521Y384299D01*
X39421Y384311D01*
X39320Y384319D01*
X39219Y384323D01*
X39117Y384323D01*
X39016Y384319D01*
X38915Y384311D01*
X38815Y384299D01*
X38715Y384283D01*
X38615Y384264D01*
X38517Y384240D01*
X38419Y384213D01*
X38323Y384182D01*
X38228Y384148D01*
X38134Y384109D01*
X38042Y384068D01*
X37951Y384022D01*
X37863Y383973D01*
X37776Y383921D01*
X37691Y383865D01*
X37609Y383806D01*
X37529Y383744D01*
X37451Y383679D01*
X37376Y383611D01*
X37304Y383540D01*
X37234Y383467D01*
X37168Y383390D01*
X37104Y383312D01*
X37044Y383230D01*
X36987Y383147D01*
X36933Y383061D01*
X36882Y382973D01*
X36835Y382884D01*
X36791Y382792D01*
X36751Y382699D01*
X36714Y382605D01*
X36682Y382509D01*
X36653Y382412D01*
X36627Y382314D01*
X36606Y382215D01*
X36588Y382115D01*
X36575Y382015D01*
X36565Y381914D01*
X36559Y381813D01*
X36557Y381712D01*
X36558Y381712D02*
X36558Y379102D01*
X36558Y382235D02*
X32381Y384323D01*
X31337Y387796D02*
X31337Y391973D01*
X32381Y397567D02*
X32381Y399655D01*
X32381Y397567D02*
X32383Y397478D01*
X32389Y397390D01*
X32398Y397302D01*
X32411Y397214D01*
X32428Y397127D01*
X32448Y397041D01*
X32473Y396956D01*
X32500Y396871D01*
X32532Y396788D01*
X32566Y396707D01*
X32605Y396627D01*
X32646Y396549D01*
X32691Y396472D01*
X32739Y396398D01*
X32790Y396325D01*
X32844Y396255D01*
X32902Y396188D01*
X32962Y396122D01*
X33024Y396060D01*
X33090Y396000D01*
X33157Y395942D01*
X33227Y395888D01*
X33300Y395837D01*
X33374Y395789D01*
X33451Y395744D01*
X33529Y395703D01*
X33609Y395664D01*
X33690Y395630D01*
X33773Y395598D01*
X33858Y395571D01*
X33943Y395546D01*
X34029Y395526D01*
X34116Y395509D01*
X34204Y395496D01*
X34292Y395487D01*
X34380Y395481D01*
X34469Y395479D01*
X34469Y395478D02*
X39691Y395478D01*
X39691Y395479D02*
X39782Y395481D01*
X39873Y395487D01*
X39964Y395497D01*
X40054Y395511D01*
X40143Y395528D01*
X40231Y395550D01*
X40319Y395576D01*
X40405Y395605D01*
X40490Y395638D01*
X40573Y395675D01*
X40655Y395715D01*
X40735Y395759D01*
X40813Y395806D01*
X40889Y395857D01*
X40962Y395910D01*
X41033Y395967D01*
X41102Y396028D01*
X41167Y396091D01*
X41230Y396156D01*
X41290Y396225D01*
X41348Y396296D01*
X41401Y396369D01*
X41452Y396445D01*
X41499Y396523D01*
X41543Y396603D01*
X41583Y396685D01*
X41620Y396768D01*
X41653Y396853D01*
X41682Y396939D01*
X41708Y397027D01*
X41730Y397115D01*
X41747Y397204D01*
X41761Y397294D01*
X41771Y397385D01*
X41777Y397476D01*
X41779Y397567D01*
X41779Y399655D01*
X39168Y403124D02*
X34992Y403124D01*
X39168Y403123D02*
X39269Y403125D01*
X39370Y403131D01*
X39471Y403141D01*
X39571Y403154D01*
X39671Y403172D01*
X39770Y403193D01*
X39868Y403219D01*
X39965Y403248D01*
X40061Y403280D01*
X40155Y403317D01*
X40248Y403357D01*
X40340Y403401D01*
X40429Y403448D01*
X40517Y403499D01*
X40603Y403553D01*
X40686Y403610D01*
X40768Y403670D01*
X40846Y403734D01*
X40923Y403800D01*
X40996Y403870D01*
X41067Y403942D01*
X41135Y404017D01*
X41200Y404095D01*
X41262Y404175D01*
X41321Y404257D01*
X41377Y404342D01*
X41429Y404429D01*
X41478Y404517D01*
X41524Y404608D01*
X41565Y404700D01*
X41604Y404794D01*
X41638Y404889D01*
X41669Y404985D01*
X41696Y405083D01*
X41720Y405181D01*
X41739Y405281D01*
X41755Y405381D01*
X41767Y405481D01*
X41775Y405582D01*
X41779Y405683D01*
X41779Y405785D01*
X41775Y405886D01*
X41767Y405987D01*
X41755Y406087D01*
X41739Y406187D01*
X41720Y406287D01*
X41696Y406385D01*
X41669Y406483D01*
X41638Y406579D01*
X41604Y406674D01*
X41565Y406768D01*
X41524Y406860D01*
X41478Y406951D01*
X41429Y407039D01*
X41377Y407126D01*
X41321Y407211D01*
X41262Y407293D01*
X41200Y407373D01*
X41135Y407451D01*
X41067Y407526D01*
X40996Y407598D01*
X40923Y407668D01*
X40846Y407734D01*
X40768Y407798D01*
X40686Y407858D01*
X40603Y407915D01*
X40517Y407969D01*
X40429Y408020D01*
X40340Y408067D01*
X40248Y408111D01*
X40155Y408151D01*
X40061Y408188D01*
X39965Y408220D01*
X39868Y408249D01*
X39770Y408275D01*
X39671Y408296D01*
X39571Y408314D01*
X39471Y408327D01*
X39370Y408337D01*
X39269Y408343D01*
X39168Y408345D01*
X34992Y408345D01*
X34891Y408343D01*
X34790Y408337D01*
X34689Y408327D01*
X34589Y408314D01*
X34489Y408296D01*
X34390Y408275D01*
X34292Y408249D01*
X34195Y408220D01*
X34099Y408188D01*
X34005Y408151D01*
X33912Y408111D01*
X33820Y408067D01*
X33731Y408020D01*
X33643Y407969D01*
X33557Y407915D01*
X33474Y407858D01*
X33392Y407798D01*
X33314Y407734D01*
X33237Y407668D01*
X33164Y407598D01*
X33093Y407526D01*
X33025Y407451D01*
X32960Y407373D01*
X32898Y407293D01*
X32839Y407211D01*
X32783Y407126D01*
X32731Y407040D01*
X32682Y406951D01*
X32636Y406860D01*
X32595Y406768D01*
X32556Y406674D01*
X32522Y406579D01*
X32491Y406483D01*
X32464Y406385D01*
X32440Y406287D01*
X32421Y406187D01*
X32405Y406087D01*
X32393Y405987D01*
X32385Y405886D01*
X32381Y405785D01*
X32381Y405683D01*
X32385Y405582D01*
X32393Y405481D01*
X32405Y405381D01*
X32421Y405281D01*
X32440Y405181D01*
X32464Y405083D01*
X32491Y404985D01*
X32522Y404889D01*
X32556Y404794D01*
X32595Y404700D01*
X32636Y404608D01*
X32682Y404517D01*
X32731Y404429D01*
X32783Y404342D01*
X32839Y404257D01*
X32898Y404175D01*
X32960Y404095D01*
X33025Y404017D01*
X33093Y403942D01*
X33164Y403870D01*
X33237Y403800D01*
X33314Y403734D01*
X33392Y403670D01*
X33474Y403610D01*
X33557Y403553D01*
X33643Y403499D01*
X33731Y403448D01*
X33820Y403401D01*
X33912Y403357D01*
X34005Y403317D01*
X34099Y403280D01*
X34195Y403248D01*
X34292Y403219D01*
X34390Y403193D01*
X34489Y403172D01*
X34589Y403154D01*
X34689Y403141D01*
X34790Y403131D01*
X34891Y403125D01*
X34992Y403123D01*
X32381Y412573D02*
X41779Y412573D01*
X32381Y417794D01*
X41779Y417794D01*
X41779Y422326D02*
X32381Y422326D01*
X32381Y427547D02*
X41779Y422326D01*
X41779Y427547D02*
X32381Y427547D01*
D11*
X480000Y407500D02*
X522000Y407500D01*
X522000Y352500D01*
X480000Y352500D01*
X480000Y407500D01*
X442762Y332987D02*
X442762Y325762D01*
X459018Y325762D01*
X459018Y332987D01*
X451793Y331181D02*
X451793Y325762D01*
X442762Y343656D02*
X442764Y343774D01*
X442770Y343892D01*
X442779Y344010D01*
X442793Y344127D01*
X442810Y344244D01*
X442831Y344361D01*
X442856Y344476D01*
X442885Y344591D01*
X442918Y344705D01*
X442954Y344817D01*
X442994Y344928D01*
X443037Y345038D01*
X443084Y345147D01*
X443134Y345254D01*
X443189Y345359D01*
X443246Y345462D01*
X443307Y345563D01*
X443371Y345663D01*
X443438Y345760D01*
X443508Y345855D01*
X443582Y345947D01*
X443658Y346038D01*
X443738Y346125D01*
X443820Y346210D01*
X443905Y346292D01*
X443992Y346372D01*
X444083Y346448D01*
X444175Y346522D01*
X444270Y346592D01*
X444367Y346659D01*
X444467Y346723D01*
X444568Y346784D01*
X444671Y346841D01*
X444776Y346896D01*
X444883Y346946D01*
X444992Y346993D01*
X445102Y347036D01*
X445213Y347076D01*
X445325Y347112D01*
X445439Y347145D01*
X445554Y347174D01*
X445669Y347199D01*
X445786Y347220D01*
X445903Y347237D01*
X446020Y347251D01*
X446138Y347260D01*
X446256Y347266D01*
X446374Y347268D01*
X442762Y343656D02*
X442764Y343473D01*
X442771Y343291D01*
X442782Y343109D01*
X442797Y342927D01*
X442817Y342745D01*
X442840Y342564D01*
X442869Y342384D01*
X442901Y342204D01*
X442938Y342025D01*
X442979Y341848D01*
X443025Y341671D01*
X443074Y341495D01*
X443128Y341321D01*
X443186Y341147D01*
X443248Y340976D01*
X443314Y340806D01*
X443385Y340637D01*
X443459Y340470D01*
X443537Y340305D01*
X443619Y340142D01*
X443705Y339981D01*
X443795Y339822D01*
X443889Y339665D01*
X443986Y339511D01*
X444087Y339359D01*
X444192Y339209D01*
X444300Y339062D01*
X444411Y338918D01*
X444526Y338776D01*
X444645Y338637D01*
X444767Y338501D01*
X444892Y338368D01*
X445020Y338238D01*
X455406Y338689D02*
X455524Y338691D01*
X455642Y338697D01*
X455760Y338706D01*
X455877Y338720D01*
X455994Y338737D01*
X456111Y338758D01*
X456226Y338783D01*
X456341Y338812D01*
X456455Y338845D01*
X456567Y338881D01*
X456678Y338921D01*
X456788Y338964D01*
X456897Y339011D01*
X457004Y339061D01*
X457109Y339116D01*
X457212Y339173D01*
X457313Y339234D01*
X457413Y339298D01*
X457510Y339365D01*
X457605Y339435D01*
X457697Y339509D01*
X457788Y339585D01*
X457875Y339665D01*
X457960Y339747D01*
X458042Y339832D01*
X458122Y339919D01*
X458198Y340010D01*
X458272Y340102D01*
X458342Y340197D01*
X458409Y340294D01*
X458473Y340394D01*
X458534Y340495D01*
X458592Y340598D01*
X458646Y340703D01*
X458696Y340810D01*
X458743Y340919D01*
X458787Y341029D01*
X458826Y341140D01*
X458862Y341253D01*
X458895Y341366D01*
X458924Y341481D01*
X458949Y341596D01*
X458970Y341713D01*
X458987Y341830D01*
X459001Y341947D01*
X459010Y342065D01*
X459016Y342183D01*
X459018Y342301D01*
X459016Y342462D01*
X459010Y342624D01*
X459001Y342785D01*
X458987Y342946D01*
X458970Y343106D01*
X458949Y343266D01*
X458924Y343426D01*
X458895Y343585D01*
X458863Y343743D01*
X458827Y343900D01*
X458787Y344056D01*
X458743Y344212D01*
X458695Y344366D01*
X458644Y344519D01*
X458590Y344671D01*
X458531Y344822D01*
X458470Y344971D01*
X458404Y345118D01*
X458335Y345264D01*
X458263Y345409D01*
X458187Y345551D01*
X458108Y345692D01*
X458026Y345831D01*
X457940Y345967D01*
X457851Y346102D01*
X457759Y346235D01*
X457663Y346365D01*
X452245Y340495D02*
X452307Y340394D01*
X452372Y340294D01*
X452441Y340197D01*
X452513Y340102D01*
X452587Y340009D01*
X452665Y339919D01*
X452746Y339831D01*
X452829Y339746D01*
X452915Y339664D01*
X453004Y339585D01*
X453095Y339508D01*
X453189Y339435D01*
X453285Y339364D01*
X453383Y339297D01*
X453483Y339233D01*
X453586Y339172D01*
X453690Y339115D01*
X453796Y339061D01*
X453904Y339011D01*
X454013Y338964D01*
X454124Y338920D01*
X454236Y338880D01*
X454350Y338844D01*
X454464Y338812D01*
X454580Y338783D01*
X454696Y338758D01*
X454813Y338737D01*
X454931Y338720D01*
X455049Y338706D01*
X455168Y338697D01*
X455287Y338691D01*
X455406Y338689D01*
X449535Y345462D02*
X449473Y345563D01*
X449408Y345663D01*
X449339Y345760D01*
X449267Y345855D01*
X449193Y345948D01*
X449115Y346038D01*
X449034Y346126D01*
X448951Y346211D01*
X448865Y346293D01*
X448776Y346372D01*
X448685Y346449D01*
X448591Y346522D01*
X448495Y346593D01*
X448397Y346660D01*
X448297Y346724D01*
X448194Y346785D01*
X448090Y346842D01*
X447984Y346896D01*
X447876Y346946D01*
X447767Y346993D01*
X447656Y347037D01*
X447544Y347077D01*
X447430Y347113D01*
X447316Y347145D01*
X447200Y347174D01*
X447084Y347199D01*
X446967Y347220D01*
X446849Y347237D01*
X446731Y347251D01*
X446612Y347260D01*
X446493Y347266D01*
X446374Y347268D01*
X449535Y345462D02*
X452245Y340495D01*
X442762Y356920D02*
X442762Y360533D01*
X442762Y356920D02*
X442764Y356802D01*
X442770Y356684D01*
X442779Y356566D01*
X442793Y356449D01*
X442810Y356332D01*
X442831Y356215D01*
X442856Y356100D01*
X442885Y355985D01*
X442918Y355871D01*
X442954Y355759D01*
X442994Y355648D01*
X443037Y355538D01*
X443084Y355429D01*
X443134Y355322D01*
X443189Y355217D01*
X443246Y355114D01*
X443307Y355013D01*
X443371Y354913D01*
X443438Y354816D01*
X443508Y354721D01*
X443582Y354629D01*
X443658Y354538D01*
X443738Y354451D01*
X443820Y354366D01*
X443905Y354284D01*
X443992Y354204D01*
X444083Y354128D01*
X444175Y354054D01*
X444270Y353984D01*
X444367Y353917D01*
X444467Y353853D01*
X444568Y353792D01*
X444671Y353735D01*
X444776Y353680D01*
X444883Y353630D01*
X444992Y353583D01*
X445102Y353540D01*
X445213Y353500D01*
X445325Y353464D01*
X445439Y353431D01*
X445554Y353402D01*
X445669Y353377D01*
X445786Y353356D01*
X445903Y353339D01*
X446020Y353325D01*
X446138Y353316D01*
X446256Y353310D01*
X446374Y353308D01*
X455406Y353308D01*
X455524Y353310D01*
X455642Y353316D01*
X455760Y353325D01*
X455877Y353339D01*
X455994Y353356D01*
X456111Y353377D01*
X456226Y353402D01*
X456341Y353431D01*
X456455Y353464D01*
X456567Y353500D01*
X456678Y353540D01*
X456788Y353583D01*
X456897Y353630D01*
X457004Y353680D01*
X457109Y353734D01*
X457212Y353792D01*
X457313Y353853D01*
X457413Y353917D01*
X457510Y353984D01*
X457605Y354054D01*
X457697Y354128D01*
X457788Y354204D01*
X457875Y354284D01*
X457960Y354366D01*
X458042Y354451D01*
X458122Y354538D01*
X458198Y354629D01*
X458272Y354721D01*
X458342Y354816D01*
X458409Y354913D01*
X458473Y355013D01*
X458534Y355114D01*
X458591Y355217D01*
X458645Y355322D01*
X458696Y355429D01*
X458743Y355538D01*
X458786Y355648D01*
X458826Y355759D01*
X458862Y355871D01*
X458895Y355985D01*
X458924Y356100D01*
X458949Y356215D01*
X458970Y356332D01*
X458987Y356449D01*
X459001Y356566D01*
X459010Y356684D01*
X459016Y356802D01*
X459018Y356920D01*
X459018Y360533D01*
X455406Y366373D02*
X459018Y370889D01*
X442762Y370889D01*
X442762Y375404D02*
X442762Y366373D01*
X436500Y518000D02*
X436500Y560000D01*
X491500Y560000D01*
X491500Y518000D01*
X436500Y518000D01*
X372404Y536982D02*
X365180Y536982D01*
X372404Y536982D02*
X372404Y553238D01*
X365180Y553238D01*
X366986Y546013D02*
X372404Y546013D01*
X354511Y536982D02*
X354393Y536984D01*
X354275Y536990D01*
X354157Y536999D01*
X354040Y537013D01*
X353923Y537030D01*
X353806Y537051D01*
X353691Y537076D01*
X353576Y537105D01*
X353462Y537138D01*
X353350Y537174D01*
X353239Y537214D01*
X353129Y537257D01*
X353020Y537304D01*
X352913Y537354D01*
X352808Y537409D01*
X352705Y537466D01*
X352604Y537527D01*
X352504Y537591D01*
X352407Y537658D01*
X352312Y537728D01*
X352220Y537802D01*
X352129Y537878D01*
X352042Y537958D01*
X351957Y538040D01*
X351875Y538125D01*
X351795Y538212D01*
X351719Y538303D01*
X351645Y538395D01*
X351575Y538490D01*
X351508Y538587D01*
X351444Y538687D01*
X351383Y538788D01*
X351326Y538891D01*
X351271Y538996D01*
X351221Y539103D01*
X351174Y539212D01*
X351131Y539322D01*
X351091Y539433D01*
X351055Y539545D01*
X351022Y539659D01*
X350993Y539774D01*
X350968Y539889D01*
X350947Y540006D01*
X350930Y540123D01*
X350916Y540240D01*
X350907Y540358D01*
X350901Y540476D01*
X350899Y540594D01*
X354511Y536982D02*
X354694Y536984D01*
X354876Y536991D01*
X355058Y537002D01*
X355240Y537017D01*
X355422Y537037D01*
X355603Y537061D01*
X355783Y537089D01*
X355963Y537121D01*
X356142Y537158D01*
X356319Y537199D01*
X356496Y537245D01*
X356672Y537294D01*
X356847Y537348D01*
X357020Y537406D01*
X357191Y537468D01*
X357362Y537534D01*
X357530Y537605D01*
X357697Y537679D01*
X357862Y537757D01*
X358025Y537839D01*
X358186Y537925D01*
X358345Y538015D01*
X358502Y538109D01*
X358656Y538206D01*
X358808Y538307D01*
X358958Y538412D01*
X359105Y538520D01*
X359249Y538631D01*
X359391Y538746D01*
X359530Y538865D01*
X359666Y538987D01*
X359799Y539112D01*
X359929Y539240D01*
X359477Y549626D02*
X359475Y549744D01*
X359469Y549862D01*
X359460Y549980D01*
X359446Y550097D01*
X359429Y550214D01*
X359408Y550331D01*
X359383Y550446D01*
X359354Y550561D01*
X359321Y550675D01*
X359285Y550787D01*
X359245Y550898D01*
X359202Y551008D01*
X359155Y551117D01*
X359105Y551224D01*
X359050Y551329D01*
X358993Y551432D01*
X358932Y551533D01*
X358868Y551633D01*
X358801Y551730D01*
X358731Y551825D01*
X358657Y551917D01*
X358581Y552008D01*
X358501Y552095D01*
X358419Y552180D01*
X358334Y552262D01*
X358247Y552342D01*
X358156Y552418D01*
X358064Y552492D01*
X357969Y552562D01*
X357872Y552629D01*
X357772Y552693D01*
X357671Y552754D01*
X357568Y552811D01*
X357463Y552866D01*
X357356Y552916D01*
X357247Y552963D01*
X357137Y553006D01*
X357026Y553046D01*
X356914Y553082D01*
X356800Y553115D01*
X356685Y553144D01*
X356570Y553169D01*
X356453Y553190D01*
X356336Y553207D01*
X356219Y553221D01*
X356101Y553230D01*
X355983Y553236D01*
X355865Y553238D01*
X355704Y553236D01*
X355542Y553230D01*
X355381Y553221D01*
X355220Y553207D01*
X355060Y553190D01*
X354900Y553169D01*
X354740Y553144D01*
X354581Y553115D01*
X354423Y553083D01*
X354266Y553047D01*
X354110Y553007D01*
X353954Y552963D01*
X353800Y552915D01*
X353647Y552864D01*
X353495Y552810D01*
X353344Y552751D01*
X353195Y552690D01*
X353048Y552624D01*
X352902Y552555D01*
X352757Y552483D01*
X352615Y552407D01*
X352474Y552328D01*
X352335Y552246D01*
X352199Y552160D01*
X352064Y552071D01*
X351931Y551979D01*
X351801Y551883D01*
X357672Y546465D02*
X357773Y546527D01*
X357873Y546592D01*
X357970Y546661D01*
X358065Y546733D01*
X358158Y546807D01*
X358248Y546885D01*
X358336Y546966D01*
X358421Y547049D01*
X358503Y547135D01*
X358582Y547224D01*
X358659Y547315D01*
X358732Y547409D01*
X358803Y547505D01*
X358870Y547603D01*
X358934Y547703D01*
X358995Y547806D01*
X359052Y547910D01*
X359106Y548016D01*
X359156Y548124D01*
X359203Y548233D01*
X359247Y548344D01*
X359287Y548456D01*
X359323Y548570D01*
X359355Y548684D01*
X359384Y548800D01*
X359409Y548916D01*
X359430Y549033D01*
X359447Y549151D01*
X359461Y549269D01*
X359470Y549388D01*
X359476Y549507D01*
X359478Y549626D01*
X352704Y543755D02*
X352603Y543693D01*
X352503Y543628D01*
X352406Y543559D01*
X352311Y543487D01*
X352218Y543413D01*
X352128Y543335D01*
X352040Y543254D01*
X351955Y543171D01*
X351873Y543085D01*
X351794Y542996D01*
X351717Y542905D01*
X351644Y542811D01*
X351573Y542715D01*
X351506Y542617D01*
X351442Y542517D01*
X351381Y542414D01*
X351324Y542310D01*
X351270Y542204D01*
X351220Y542096D01*
X351173Y541987D01*
X351129Y541876D01*
X351089Y541764D01*
X351053Y541650D01*
X351021Y541536D01*
X350992Y541420D01*
X350967Y541304D01*
X350946Y541187D01*
X350929Y541069D01*
X350915Y540951D01*
X350906Y540832D01*
X350900Y540713D01*
X350898Y540594D01*
X352704Y543755D02*
X357672Y546465D01*
X341246Y536982D02*
X337634Y536982D01*
X341246Y536982D02*
X341364Y536984D01*
X341482Y536990D01*
X341600Y536999D01*
X341717Y537013D01*
X341834Y537030D01*
X341951Y537051D01*
X342066Y537076D01*
X342181Y537105D01*
X342295Y537138D01*
X342407Y537174D01*
X342518Y537214D01*
X342628Y537257D01*
X342737Y537304D01*
X342844Y537354D01*
X342949Y537409D01*
X343052Y537466D01*
X343153Y537527D01*
X343253Y537591D01*
X343350Y537658D01*
X343445Y537728D01*
X343537Y537802D01*
X343628Y537878D01*
X343715Y537958D01*
X343800Y538040D01*
X343882Y538125D01*
X343962Y538212D01*
X344038Y538303D01*
X344112Y538395D01*
X344182Y538490D01*
X344249Y538587D01*
X344313Y538687D01*
X344374Y538788D01*
X344431Y538891D01*
X344486Y538996D01*
X344536Y539103D01*
X344583Y539212D01*
X344626Y539322D01*
X344666Y539433D01*
X344702Y539545D01*
X344735Y539659D01*
X344764Y539774D01*
X344789Y539889D01*
X344810Y540006D01*
X344827Y540123D01*
X344841Y540240D01*
X344850Y540358D01*
X344856Y540476D01*
X344858Y540594D01*
X344859Y540594D02*
X344859Y549626D01*
X344858Y549626D02*
X344856Y549744D01*
X344850Y549862D01*
X344841Y549980D01*
X344827Y550097D01*
X344810Y550214D01*
X344789Y550331D01*
X344764Y550446D01*
X344735Y550561D01*
X344702Y550675D01*
X344666Y550787D01*
X344626Y550898D01*
X344583Y551008D01*
X344536Y551117D01*
X344486Y551224D01*
X344431Y551329D01*
X344374Y551432D01*
X344313Y551533D01*
X344249Y551633D01*
X344182Y551730D01*
X344112Y551825D01*
X344038Y551917D01*
X343962Y552008D01*
X343882Y552095D01*
X343800Y552180D01*
X343715Y552262D01*
X343628Y552342D01*
X343537Y552418D01*
X343445Y552492D01*
X343350Y552562D01*
X343253Y552629D01*
X343153Y552693D01*
X343052Y552754D01*
X342949Y552811D01*
X342844Y552866D01*
X342737Y552916D01*
X342628Y552963D01*
X342518Y553006D01*
X342407Y553046D01*
X342295Y553082D01*
X342181Y553115D01*
X342066Y553144D01*
X341951Y553169D01*
X341834Y553190D01*
X341717Y553207D01*
X341600Y553221D01*
X341482Y553230D01*
X341364Y553236D01*
X341246Y553238D01*
X337634Y553238D01*
X326826Y553238D02*
X326701Y553236D01*
X326576Y553230D01*
X326451Y553221D01*
X326327Y553207D01*
X326203Y553190D01*
X326079Y553169D01*
X325957Y553144D01*
X325835Y553115D01*
X325714Y553083D01*
X325594Y553047D01*
X325475Y553007D01*
X325358Y552964D01*
X325242Y552917D01*
X325127Y552866D01*
X325015Y552812D01*
X324903Y552754D01*
X324794Y552694D01*
X324687Y552629D01*
X324581Y552562D01*
X324478Y552491D01*
X324377Y552417D01*
X324278Y552340D01*
X324182Y552260D01*
X324088Y552177D01*
X323997Y552092D01*
X323908Y552003D01*
X323823Y551912D01*
X323740Y551818D01*
X323660Y551722D01*
X323583Y551623D01*
X323509Y551522D01*
X323438Y551419D01*
X323371Y551313D01*
X323306Y551206D01*
X323246Y551097D01*
X323188Y550985D01*
X323134Y550873D01*
X323083Y550758D01*
X323036Y550642D01*
X322993Y550525D01*
X322953Y550406D01*
X322917Y550286D01*
X322885Y550165D01*
X322856Y550043D01*
X322831Y549921D01*
X322810Y549797D01*
X322793Y549673D01*
X322779Y549549D01*
X322770Y549424D01*
X322764Y549299D01*
X322762Y549174D01*
X326826Y553238D02*
X326969Y553236D01*
X327111Y553230D01*
X327254Y553220D01*
X327396Y553207D01*
X327537Y553189D01*
X327679Y553168D01*
X327819Y553143D01*
X327959Y553114D01*
X328098Y553081D01*
X328236Y553044D01*
X328373Y553004D01*
X328508Y552960D01*
X328643Y552912D01*
X328776Y552860D01*
X328908Y552805D01*
X329038Y552746D01*
X329166Y552684D01*
X329293Y552618D01*
X329418Y552549D01*
X329541Y552477D01*
X329662Y552401D01*
X329780Y552322D01*
X329897Y552239D01*
X330011Y552154D01*
X330123Y552065D01*
X330232Y551974D01*
X330339Y551879D01*
X330444Y551782D01*
X330545Y551681D01*
X330644Y551578D01*
X330740Y551473D01*
X330833Y551364D01*
X330923Y551253D01*
X331010Y551140D01*
X331094Y551025D01*
X331174Y550907D01*
X331252Y550787D01*
X331326Y550665D01*
X331396Y550541D01*
X331464Y550415D01*
X331527Y550287D01*
X331588Y550158D01*
X331645Y550027D01*
X331698Y549895D01*
X331747Y549761D01*
X331793Y549626D01*
X324117Y546013D02*
X324023Y546105D01*
X323933Y546199D01*
X323845Y546296D01*
X323760Y546396D01*
X323678Y546498D01*
X323599Y546603D01*
X323524Y546710D01*
X323452Y546819D01*
X323383Y546930D01*
X323317Y547044D01*
X323255Y547159D01*
X323196Y547276D01*
X323141Y547395D01*
X323090Y547515D01*
X323042Y547637D01*
X322997Y547760D01*
X322957Y547884D01*
X322920Y548010D01*
X322887Y548137D01*
X322858Y548264D01*
X322832Y548393D01*
X322811Y548522D01*
X322793Y548652D01*
X322780Y548782D01*
X322770Y548912D01*
X322764Y549043D01*
X322762Y549174D01*
X324117Y546013D02*
X331793Y536982D01*
X322762Y536982D01*
X305453Y271618D02*
X305453Y265014D01*
X305453Y271618D02*
X303618Y271618D01*
X303533Y271616D01*
X303449Y271610D01*
X303365Y271600D01*
X303281Y271587D01*
X303198Y271569D01*
X303116Y271548D01*
X303035Y271523D01*
X302955Y271494D01*
X302877Y271462D01*
X302801Y271426D01*
X302726Y271386D01*
X302653Y271343D01*
X302582Y271297D01*
X302513Y271248D01*
X302446Y271195D01*
X302382Y271139D01*
X302321Y271081D01*
X302263Y271020D01*
X302207Y270956D01*
X302154Y270889D01*
X302105Y270820D01*
X302059Y270749D01*
X302016Y270676D01*
X301976Y270601D01*
X301940Y270525D01*
X301908Y270447D01*
X301879Y270367D01*
X301854Y270286D01*
X301833Y270204D01*
X301815Y270121D01*
X301802Y270037D01*
X301792Y269953D01*
X301786Y269869D01*
X301784Y269784D01*
X301786Y269699D01*
X301792Y269615D01*
X301802Y269531D01*
X301815Y269447D01*
X301833Y269364D01*
X301854Y269282D01*
X301879Y269201D01*
X301908Y269121D01*
X301940Y269043D01*
X301976Y268967D01*
X302016Y268892D01*
X302059Y268819D01*
X302105Y268748D01*
X302154Y268679D01*
X302207Y268612D01*
X302263Y268548D01*
X302321Y268487D01*
X302382Y268429D01*
X302446Y268373D01*
X302513Y268320D01*
X302582Y268271D01*
X302653Y268225D01*
X302726Y268182D01*
X302801Y268142D01*
X302877Y268106D01*
X302955Y268074D01*
X303035Y268045D01*
X303116Y268020D01*
X303198Y267999D01*
X303281Y267981D01*
X303365Y267968D01*
X303449Y267958D01*
X303533Y267952D01*
X303618Y267950D01*
X303618Y267949D02*
X305453Y267949D01*
X303251Y267949D02*
X301784Y265014D01*
X296198Y271618D02*
X296119Y271616D01*
X296041Y271611D01*
X295963Y271601D01*
X295886Y271588D01*
X295809Y271571D01*
X295733Y271551D01*
X295658Y271527D01*
X295584Y271500D01*
X295512Y271469D01*
X295441Y271434D01*
X295373Y271397D01*
X295305Y271356D01*
X295240Y271312D01*
X295177Y271265D01*
X295117Y271215D01*
X295059Y271162D01*
X295003Y271106D01*
X294950Y271048D01*
X294900Y270988D01*
X294853Y270925D01*
X294809Y270860D01*
X294768Y270793D01*
X294731Y270724D01*
X294696Y270653D01*
X294665Y270581D01*
X294638Y270507D01*
X294614Y270432D01*
X294594Y270356D01*
X294577Y270279D01*
X294564Y270202D01*
X294554Y270124D01*
X294549Y270046D01*
X294547Y269967D01*
X296198Y271618D02*
X296287Y271616D01*
X296376Y271611D01*
X296464Y271601D01*
X296552Y271588D01*
X296639Y271572D01*
X296726Y271551D01*
X296811Y271527D01*
X296896Y271500D01*
X296979Y271469D01*
X297061Y271434D01*
X297142Y271396D01*
X297221Y271355D01*
X297297Y271311D01*
X297373Y271263D01*
X297446Y271212D01*
X297516Y271159D01*
X297585Y271102D01*
X297651Y271042D01*
X297714Y270980D01*
X297775Y270915D01*
X297833Y270848D01*
X297888Y270778D01*
X297941Y270706D01*
X297990Y270632D01*
X298036Y270556D01*
X298078Y270478D01*
X298118Y270398D01*
X298154Y270317D01*
X298187Y270234D01*
X298216Y270150D01*
X295098Y268683D02*
X295042Y268739D01*
X294988Y268798D01*
X294937Y268859D01*
X294888Y268923D01*
X294843Y268988D01*
X294800Y269056D01*
X294761Y269125D01*
X294724Y269196D01*
X294691Y269269D01*
X294662Y269343D01*
X294635Y269418D01*
X294612Y269494D01*
X294593Y269572D01*
X294577Y269650D01*
X294564Y269728D01*
X294555Y269808D01*
X294550Y269887D01*
X294548Y269967D01*
X295098Y268683D02*
X298216Y265014D01*
X294547Y265014D01*
X29453Y142618D02*
X29453Y136014D01*
X29453Y142618D02*
X27618Y142618D01*
X27533Y142616D01*
X27449Y142610D01*
X27365Y142600D01*
X27281Y142587D01*
X27198Y142569D01*
X27116Y142548D01*
X27035Y142523D01*
X26955Y142494D01*
X26877Y142462D01*
X26801Y142426D01*
X26726Y142386D01*
X26653Y142343D01*
X26582Y142297D01*
X26513Y142248D01*
X26446Y142195D01*
X26382Y142139D01*
X26321Y142081D01*
X26263Y142020D01*
X26207Y141956D01*
X26154Y141889D01*
X26105Y141820D01*
X26059Y141749D01*
X26016Y141676D01*
X25976Y141601D01*
X25940Y141525D01*
X25908Y141447D01*
X25879Y141367D01*
X25854Y141286D01*
X25833Y141204D01*
X25815Y141121D01*
X25802Y141037D01*
X25792Y140953D01*
X25786Y140869D01*
X25784Y140784D01*
X25786Y140699D01*
X25792Y140615D01*
X25802Y140531D01*
X25815Y140447D01*
X25833Y140364D01*
X25854Y140282D01*
X25879Y140201D01*
X25908Y140121D01*
X25940Y140043D01*
X25976Y139967D01*
X26016Y139892D01*
X26059Y139819D01*
X26105Y139748D01*
X26154Y139679D01*
X26207Y139612D01*
X26263Y139548D01*
X26321Y139487D01*
X26382Y139429D01*
X26446Y139373D01*
X26513Y139320D01*
X26582Y139271D01*
X26653Y139225D01*
X26726Y139182D01*
X26801Y139142D01*
X26877Y139106D01*
X26955Y139074D01*
X27035Y139045D01*
X27116Y139020D01*
X27198Y138999D01*
X27281Y138981D01*
X27365Y138968D01*
X27449Y138958D01*
X27533Y138952D01*
X27618Y138950D01*
X27618Y138949D02*
X29453Y138949D01*
X27251Y138949D02*
X25784Y136014D01*
X22216Y136014D02*
X20015Y136014D01*
X19941Y136016D01*
X19866Y136022D01*
X19793Y136031D01*
X19719Y136044D01*
X19647Y136061D01*
X19576Y136081D01*
X19505Y136105D01*
X19436Y136133D01*
X19369Y136164D01*
X19303Y136198D01*
X19238Y136236D01*
X19176Y136277D01*
X19116Y136321D01*
X19059Y136368D01*
X19004Y136418D01*
X18951Y136471D01*
X18901Y136526D01*
X18854Y136583D01*
X18810Y136643D01*
X18769Y136705D01*
X18731Y136770D01*
X18697Y136835D01*
X18666Y136903D01*
X18638Y136972D01*
X18614Y137043D01*
X18594Y137114D01*
X18577Y137186D01*
X18564Y137260D01*
X18555Y137333D01*
X18549Y137408D01*
X18547Y137482D01*
X18547Y138215D01*
X18549Y138289D01*
X18555Y138364D01*
X18564Y138437D01*
X18577Y138511D01*
X18594Y138583D01*
X18614Y138654D01*
X18638Y138725D01*
X18666Y138794D01*
X18697Y138861D01*
X18731Y138927D01*
X18769Y138992D01*
X18810Y139054D01*
X18854Y139114D01*
X18901Y139171D01*
X18951Y139226D01*
X19004Y139279D01*
X19059Y139329D01*
X19116Y139376D01*
X19176Y139420D01*
X19238Y139461D01*
X19303Y139499D01*
X19369Y139533D01*
X19436Y139564D01*
X19505Y139592D01*
X19576Y139616D01*
X19647Y139636D01*
X19719Y139653D01*
X19793Y139666D01*
X19866Y139675D01*
X19941Y139681D01*
X20015Y139683D01*
X22216Y139683D01*
X22216Y142618D01*
X18547Y142618D01*
X29453Y123618D02*
X29453Y117014D01*
X29453Y123618D02*
X27618Y123618D01*
X27533Y123616D01*
X27449Y123610D01*
X27365Y123600D01*
X27281Y123587D01*
X27198Y123569D01*
X27116Y123548D01*
X27035Y123523D01*
X26955Y123494D01*
X26877Y123462D01*
X26801Y123426D01*
X26726Y123386D01*
X26653Y123343D01*
X26582Y123297D01*
X26513Y123248D01*
X26446Y123195D01*
X26382Y123139D01*
X26321Y123081D01*
X26263Y123020D01*
X26207Y122956D01*
X26154Y122889D01*
X26105Y122820D01*
X26059Y122749D01*
X26016Y122676D01*
X25976Y122601D01*
X25940Y122525D01*
X25908Y122447D01*
X25879Y122367D01*
X25854Y122286D01*
X25833Y122204D01*
X25815Y122121D01*
X25802Y122037D01*
X25792Y121953D01*
X25786Y121869D01*
X25784Y121784D01*
X25786Y121699D01*
X25792Y121615D01*
X25802Y121531D01*
X25815Y121447D01*
X25833Y121364D01*
X25854Y121282D01*
X25879Y121201D01*
X25908Y121121D01*
X25940Y121043D01*
X25976Y120967D01*
X26016Y120892D01*
X26059Y120819D01*
X26105Y120748D01*
X26154Y120679D01*
X26207Y120612D01*
X26263Y120548D01*
X26321Y120487D01*
X26382Y120429D01*
X26446Y120373D01*
X26513Y120320D01*
X26582Y120271D01*
X26653Y120225D01*
X26726Y120182D01*
X26801Y120142D01*
X26877Y120106D01*
X26955Y120074D01*
X27035Y120045D01*
X27116Y120020D01*
X27198Y119999D01*
X27281Y119981D01*
X27365Y119968D01*
X27449Y119958D01*
X27533Y119952D01*
X27618Y119950D01*
X27618Y119949D02*
X29453Y119949D01*
X27251Y119949D02*
X25784Y117014D01*
X22216Y117014D02*
X20382Y117014D01*
X20382Y117015D02*
X20297Y117017D01*
X20213Y117023D01*
X20129Y117033D01*
X20045Y117046D01*
X19962Y117064D01*
X19880Y117085D01*
X19799Y117110D01*
X19719Y117139D01*
X19641Y117171D01*
X19565Y117207D01*
X19490Y117247D01*
X19417Y117290D01*
X19346Y117336D01*
X19277Y117385D01*
X19210Y117438D01*
X19146Y117494D01*
X19085Y117552D01*
X19027Y117613D01*
X18971Y117677D01*
X18918Y117744D01*
X18869Y117813D01*
X18823Y117884D01*
X18780Y117957D01*
X18740Y118032D01*
X18704Y118108D01*
X18672Y118186D01*
X18643Y118266D01*
X18618Y118347D01*
X18597Y118429D01*
X18579Y118512D01*
X18566Y118596D01*
X18556Y118680D01*
X18550Y118764D01*
X18548Y118849D01*
X18550Y118934D01*
X18556Y119018D01*
X18566Y119102D01*
X18579Y119186D01*
X18597Y119269D01*
X18618Y119351D01*
X18643Y119432D01*
X18672Y119512D01*
X18704Y119590D01*
X18740Y119666D01*
X18780Y119741D01*
X18823Y119814D01*
X18869Y119885D01*
X18918Y119954D01*
X18971Y120021D01*
X19027Y120085D01*
X19085Y120146D01*
X19146Y120204D01*
X19210Y120260D01*
X19277Y120313D01*
X19346Y120362D01*
X19417Y120408D01*
X19490Y120451D01*
X19565Y120491D01*
X19641Y120527D01*
X19719Y120559D01*
X19799Y120588D01*
X19880Y120613D01*
X19962Y120634D01*
X20045Y120652D01*
X20129Y120665D01*
X20213Y120675D01*
X20297Y120681D01*
X20382Y120683D01*
X20015Y123618D02*
X22216Y123618D01*
X20015Y123619D02*
X19939Y123617D01*
X19864Y123611D01*
X19789Y123602D01*
X19715Y123588D01*
X19641Y123571D01*
X19569Y123549D01*
X19497Y123525D01*
X19427Y123496D01*
X19359Y123464D01*
X19292Y123429D01*
X19227Y123390D01*
X19164Y123347D01*
X19104Y123302D01*
X19046Y123254D01*
X18990Y123202D01*
X18938Y123148D01*
X18888Y123091D01*
X18841Y123032D01*
X18797Y122971D01*
X18756Y122907D01*
X18719Y122841D01*
X18685Y122773D01*
X18655Y122704D01*
X18628Y122633D01*
X18605Y122561D01*
X18586Y122488D01*
X18571Y122414D01*
X18559Y122339D01*
X18551Y122264D01*
X18547Y122189D01*
X18547Y122113D01*
X18551Y122038D01*
X18559Y121963D01*
X18571Y121888D01*
X18586Y121814D01*
X18605Y121741D01*
X18628Y121669D01*
X18655Y121598D01*
X18685Y121529D01*
X18719Y121461D01*
X18756Y121395D01*
X18797Y121331D01*
X18841Y121270D01*
X18888Y121211D01*
X18938Y121154D01*
X18990Y121100D01*
X19046Y121048D01*
X19104Y121000D01*
X19164Y120955D01*
X19227Y120912D01*
X19292Y120873D01*
X19359Y120838D01*
X19427Y120806D01*
X19497Y120777D01*
X19569Y120753D01*
X19641Y120731D01*
X19715Y120714D01*
X19789Y120700D01*
X19864Y120691D01*
X19939Y120685D01*
X20015Y120683D01*
X21483Y120683D01*
X403453Y192382D02*
X403453Y198986D01*
X401618Y198986D01*
X401533Y198984D01*
X401449Y198978D01*
X401365Y198968D01*
X401281Y198955D01*
X401198Y198937D01*
X401116Y198916D01*
X401035Y198891D01*
X400955Y198862D01*
X400877Y198830D01*
X400801Y198794D01*
X400726Y198754D01*
X400653Y198711D01*
X400582Y198665D01*
X400513Y198616D01*
X400446Y198563D01*
X400382Y198507D01*
X400321Y198449D01*
X400263Y198388D01*
X400207Y198324D01*
X400154Y198257D01*
X400105Y198188D01*
X400059Y198117D01*
X400016Y198044D01*
X399976Y197969D01*
X399940Y197893D01*
X399908Y197815D01*
X399879Y197735D01*
X399854Y197654D01*
X399833Y197572D01*
X399815Y197489D01*
X399802Y197405D01*
X399792Y197321D01*
X399786Y197237D01*
X399784Y197152D01*
X399786Y197067D01*
X399792Y196983D01*
X399802Y196899D01*
X399815Y196815D01*
X399833Y196732D01*
X399854Y196650D01*
X399879Y196569D01*
X399908Y196489D01*
X399940Y196411D01*
X399976Y196335D01*
X400016Y196260D01*
X400059Y196187D01*
X400105Y196116D01*
X400154Y196047D01*
X400207Y195980D01*
X400263Y195916D01*
X400321Y195855D01*
X400382Y195797D01*
X400446Y195741D01*
X400513Y195688D01*
X400582Y195639D01*
X400653Y195593D01*
X400726Y195550D01*
X400801Y195510D01*
X400877Y195474D01*
X400955Y195442D01*
X401035Y195413D01*
X401116Y195388D01*
X401198Y195367D01*
X401281Y195349D01*
X401365Y195336D01*
X401449Y195326D01*
X401533Y195320D01*
X401618Y195318D01*
X401618Y195317D02*
X403453Y195317D01*
X401251Y195317D02*
X399784Y192382D01*
X396216Y193850D02*
X394749Y198986D01*
X396216Y193850D02*
X392547Y193850D01*
X393648Y195317D02*
X393648Y192382D01*
X358453Y192382D02*
X358453Y198986D01*
X356618Y198986D01*
X356533Y198984D01*
X356449Y198978D01*
X356365Y198968D01*
X356281Y198955D01*
X356198Y198937D01*
X356116Y198916D01*
X356035Y198891D01*
X355955Y198862D01*
X355877Y198830D01*
X355801Y198794D01*
X355726Y198754D01*
X355653Y198711D01*
X355582Y198665D01*
X355513Y198616D01*
X355446Y198563D01*
X355382Y198507D01*
X355321Y198449D01*
X355263Y198388D01*
X355207Y198324D01*
X355154Y198257D01*
X355105Y198188D01*
X355059Y198117D01*
X355016Y198044D01*
X354976Y197969D01*
X354940Y197893D01*
X354908Y197815D01*
X354879Y197735D01*
X354854Y197654D01*
X354833Y197572D01*
X354815Y197489D01*
X354802Y197405D01*
X354792Y197321D01*
X354786Y197237D01*
X354784Y197152D01*
X354786Y197067D01*
X354792Y196983D01*
X354802Y196899D01*
X354815Y196815D01*
X354833Y196732D01*
X354854Y196650D01*
X354879Y196569D01*
X354908Y196489D01*
X354940Y196411D01*
X354976Y196335D01*
X355016Y196260D01*
X355059Y196187D01*
X355105Y196116D01*
X355154Y196047D01*
X355207Y195980D01*
X355263Y195916D01*
X355321Y195855D01*
X355382Y195797D01*
X355446Y195741D01*
X355513Y195688D01*
X355582Y195639D01*
X355653Y195593D01*
X355726Y195550D01*
X355801Y195510D01*
X355877Y195474D01*
X355955Y195442D01*
X356035Y195413D01*
X356116Y195388D01*
X356198Y195367D01*
X356281Y195349D01*
X356365Y195336D01*
X356449Y195326D01*
X356533Y195320D01*
X356618Y195318D01*
X356618Y195317D02*
X358453Y195317D01*
X356251Y195317D02*
X354784Y192382D01*
X351216Y196051D02*
X349015Y196051D01*
X348941Y196049D01*
X348866Y196043D01*
X348793Y196034D01*
X348719Y196021D01*
X348647Y196004D01*
X348576Y195984D01*
X348505Y195960D01*
X348436Y195932D01*
X348369Y195901D01*
X348303Y195867D01*
X348238Y195829D01*
X348176Y195788D01*
X348116Y195744D01*
X348059Y195697D01*
X348004Y195647D01*
X347951Y195594D01*
X347901Y195539D01*
X347854Y195482D01*
X347810Y195422D01*
X347769Y195360D01*
X347731Y195295D01*
X347697Y195229D01*
X347666Y195162D01*
X347638Y195093D01*
X347614Y195022D01*
X347594Y194951D01*
X347577Y194879D01*
X347564Y194805D01*
X347555Y194732D01*
X347549Y194657D01*
X347547Y194583D01*
X347547Y194216D01*
X347548Y194216D02*
X347550Y194131D01*
X347556Y194047D01*
X347566Y193963D01*
X347579Y193879D01*
X347597Y193796D01*
X347618Y193714D01*
X347643Y193633D01*
X347672Y193553D01*
X347704Y193475D01*
X347740Y193399D01*
X347780Y193324D01*
X347823Y193251D01*
X347869Y193180D01*
X347918Y193111D01*
X347971Y193044D01*
X348027Y192980D01*
X348085Y192919D01*
X348146Y192861D01*
X348210Y192805D01*
X348277Y192752D01*
X348346Y192703D01*
X348417Y192657D01*
X348490Y192614D01*
X348565Y192574D01*
X348641Y192538D01*
X348719Y192506D01*
X348799Y192477D01*
X348880Y192452D01*
X348962Y192431D01*
X349045Y192413D01*
X349129Y192400D01*
X349213Y192390D01*
X349297Y192384D01*
X349382Y192382D01*
X349467Y192384D01*
X349551Y192390D01*
X349635Y192400D01*
X349719Y192413D01*
X349802Y192431D01*
X349884Y192452D01*
X349965Y192477D01*
X350045Y192506D01*
X350123Y192538D01*
X350199Y192574D01*
X350274Y192614D01*
X350347Y192657D01*
X350418Y192703D01*
X350487Y192752D01*
X350554Y192805D01*
X350618Y192861D01*
X350679Y192919D01*
X350737Y192980D01*
X350793Y193044D01*
X350846Y193111D01*
X350895Y193180D01*
X350941Y193251D01*
X350984Y193324D01*
X351024Y193399D01*
X351060Y193475D01*
X351092Y193553D01*
X351121Y193633D01*
X351146Y193714D01*
X351167Y193796D01*
X351185Y193879D01*
X351198Y193963D01*
X351208Y194047D01*
X351214Y194131D01*
X351216Y194216D01*
X351216Y196051D01*
X351214Y196158D01*
X351208Y196265D01*
X351198Y196372D01*
X351185Y196478D01*
X351167Y196584D01*
X351146Y196689D01*
X351121Y196793D01*
X351092Y196897D01*
X351059Y196999D01*
X351022Y197099D01*
X350982Y197199D01*
X350938Y197297D01*
X350891Y197393D01*
X350840Y197487D01*
X350786Y197580D01*
X350729Y197670D01*
X350668Y197759D01*
X350604Y197845D01*
X350537Y197928D01*
X350467Y198010D01*
X350394Y198088D01*
X350318Y198164D01*
X350240Y198237D01*
X350158Y198307D01*
X350075Y198374D01*
X349989Y198438D01*
X349900Y198499D01*
X349810Y198556D01*
X349717Y198610D01*
X349623Y198661D01*
X349527Y198708D01*
X349429Y198752D01*
X349330Y198792D01*
X349229Y198829D01*
X349127Y198862D01*
X349023Y198891D01*
X348919Y198916D01*
X348814Y198937D01*
X348708Y198955D01*
X348602Y198968D01*
X348495Y198978D01*
X348388Y198984D01*
X348281Y198986D01*
X48110Y30986D02*
X48110Y24382D01*
X48110Y30986D02*
X46276Y30986D01*
X46191Y30984D01*
X46107Y30978D01*
X46023Y30968D01*
X45939Y30955D01*
X45856Y30937D01*
X45774Y30916D01*
X45693Y30891D01*
X45613Y30862D01*
X45535Y30830D01*
X45459Y30794D01*
X45384Y30754D01*
X45311Y30711D01*
X45240Y30665D01*
X45171Y30616D01*
X45104Y30563D01*
X45040Y30507D01*
X44979Y30449D01*
X44921Y30388D01*
X44865Y30324D01*
X44812Y30257D01*
X44763Y30188D01*
X44717Y30117D01*
X44674Y30044D01*
X44634Y29969D01*
X44598Y29893D01*
X44566Y29815D01*
X44537Y29735D01*
X44512Y29654D01*
X44491Y29572D01*
X44473Y29489D01*
X44460Y29405D01*
X44450Y29321D01*
X44444Y29237D01*
X44442Y29152D01*
X44444Y29067D01*
X44450Y28983D01*
X44460Y28899D01*
X44473Y28815D01*
X44491Y28732D01*
X44512Y28650D01*
X44537Y28569D01*
X44566Y28489D01*
X44598Y28411D01*
X44634Y28335D01*
X44674Y28260D01*
X44717Y28187D01*
X44763Y28116D01*
X44812Y28047D01*
X44865Y27980D01*
X44921Y27916D01*
X44979Y27855D01*
X45040Y27797D01*
X45104Y27741D01*
X45171Y27688D01*
X45240Y27639D01*
X45311Y27593D01*
X45384Y27550D01*
X45459Y27510D01*
X45535Y27474D01*
X45613Y27442D01*
X45693Y27413D01*
X45774Y27388D01*
X45856Y27367D01*
X45939Y27349D01*
X46023Y27336D01*
X46107Y27326D01*
X46191Y27320D01*
X46276Y27318D01*
X46276Y27317D02*
X48110Y27317D01*
X45909Y27317D02*
X44441Y24382D01*
X40874Y29518D02*
X39039Y30986D01*
X39039Y24382D01*
X37205Y24382D02*
X40874Y24382D01*
X33558Y27684D02*
X33556Y27829D01*
X33550Y27974D01*
X33541Y28119D01*
X33527Y28264D01*
X33510Y28408D01*
X33488Y28551D01*
X33463Y28695D01*
X33434Y28837D01*
X33402Y28978D01*
X33365Y29119D01*
X33325Y29258D01*
X33281Y29397D01*
X33234Y29534D01*
X33183Y29670D01*
X33128Y29804D01*
X33070Y29937D01*
X33008Y30069D01*
X33009Y30069D02*
X32983Y30138D01*
X32954Y30205D01*
X32921Y30271D01*
X32885Y30334D01*
X32845Y30396D01*
X32802Y30455D01*
X32756Y30512D01*
X32707Y30566D01*
X32655Y30618D01*
X32600Y30667D01*
X32543Y30712D01*
X32483Y30755D01*
X32421Y30794D01*
X32358Y30830D01*
X32292Y30863D01*
X32225Y30891D01*
X32156Y30917D01*
X32086Y30938D01*
X32015Y30956D01*
X31943Y30969D01*
X31870Y30979D01*
X31797Y30985D01*
X31724Y30987D01*
X31724Y30986D02*
X31651Y30984D01*
X31578Y30978D01*
X31505Y30968D01*
X31434Y30955D01*
X31362Y30937D01*
X31292Y30916D01*
X31224Y30890D01*
X31156Y30862D01*
X31091Y30829D01*
X31027Y30793D01*
X30965Y30754D01*
X30906Y30712D01*
X30849Y30666D01*
X30794Y30617D01*
X30742Y30566D01*
X30693Y30511D01*
X30647Y30454D01*
X30604Y30395D01*
X30564Y30334D01*
X30528Y30270D01*
X30495Y30205D01*
X30466Y30138D01*
X30440Y30069D01*
X30378Y29937D01*
X30320Y29804D01*
X30265Y29670D01*
X30214Y29534D01*
X30167Y29397D01*
X30123Y29258D01*
X30083Y29119D01*
X30046Y28978D01*
X30014Y28837D01*
X29985Y28695D01*
X29960Y28552D01*
X29938Y28408D01*
X29921Y28264D01*
X29907Y28119D01*
X29898Y27974D01*
X29892Y27829D01*
X29890Y27684D01*
X33558Y27684D02*
X33556Y27539D01*
X33550Y27394D01*
X33541Y27249D01*
X33527Y27104D01*
X33510Y26960D01*
X33488Y26817D01*
X33463Y26674D01*
X33435Y26531D01*
X33402Y26390D01*
X33365Y26249D01*
X33325Y26110D01*
X33281Y25971D01*
X33234Y25834D01*
X33183Y25698D01*
X33128Y25564D01*
X33070Y25431D01*
X33008Y25299D01*
X33009Y25300D02*
X32983Y25231D01*
X32954Y25164D01*
X32921Y25098D01*
X32885Y25035D01*
X32845Y24973D01*
X32802Y24914D01*
X32756Y24857D01*
X32707Y24803D01*
X32655Y24751D01*
X32600Y24702D01*
X32543Y24657D01*
X32483Y24614D01*
X32421Y24575D01*
X32358Y24539D01*
X32292Y24506D01*
X32225Y24478D01*
X32156Y24452D01*
X32086Y24431D01*
X32015Y24413D01*
X31943Y24400D01*
X31870Y24390D01*
X31797Y24384D01*
X31724Y24382D01*
X30440Y25299D02*
X30378Y25431D01*
X30320Y25564D01*
X30265Y25698D01*
X30214Y25834D01*
X30167Y25971D01*
X30123Y26110D01*
X30083Y26249D01*
X30046Y26390D01*
X30014Y26531D01*
X29985Y26673D01*
X29960Y26816D01*
X29938Y26960D01*
X29921Y27104D01*
X29907Y27249D01*
X29898Y27394D01*
X29892Y27539D01*
X29890Y27684D01*
X30440Y25299D02*
X30466Y25230D01*
X30495Y25163D01*
X30528Y25098D01*
X30564Y25034D01*
X30604Y24973D01*
X30647Y24914D01*
X30693Y24857D01*
X30742Y24802D01*
X30794Y24751D01*
X30849Y24702D01*
X30906Y24656D01*
X30965Y24614D01*
X31027Y24575D01*
X31091Y24539D01*
X31156Y24506D01*
X31224Y24478D01*
X31292Y24452D01*
X31362Y24431D01*
X31434Y24413D01*
X31505Y24400D01*
X31578Y24390D01*
X31651Y24384D01*
X31724Y24382D01*
X33192Y25850D02*
X30257Y29518D01*
X318110Y30986D02*
X318110Y24382D01*
X318110Y30986D02*
X316276Y30986D01*
X316191Y30984D01*
X316107Y30978D01*
X316023Y30968D01*
X315939Y30955D01*
X315856Y30937D01*
X315774Y30916D01*
X315693Y30891D01*
X315613Y30862D01*
X315535Y30830D01*
X315459Y30794D01*
X315384Y30754D01*
X315311Y30711D01*
X315240Y30665D01*
X315171Y30616D01*
X315104Y30563D01*
X315040Y30507D01*
X314979Y30449D01*
X314921Y30388D01*
X314865Y30324D01*
X314812Y30257D01*
X314763Y30188D01*
X314717Y30117D01*
X314674Y30044D01*
X314634Y29969D01*
X314598Y29893D01*
X314566Y29815D01*
X314537Y29735D01*
X314512Y29654D01*
X314491Y29572D01*
X314473Y29489D01*
X314460Y29405D01*
X314450Y29321D01*
X314444Y29237D01*
X314442Y29152D01*
X314444Y29067D01*
X314450Y28983D01*
X314460Y28899D01*
X314473Y28815D01*
X314491Y28732D01*
X314512Y28650D01*
X314537Y28569D01*
X314566Y28489D01*
X314598Y28411D01*
X314634Y28335D01*
X314674Y28260D01*
X314717Y28187D01*
X314763Y28116D01*
X314812Y28047D01*
X314865Y27980D01*
X314921Y27916D01*
X314979Y27855D01*
X315040Y27797D01*
X315104Y27741D01*
X315171Y27688D01*
X315240Y27639D01*
X315311Y27593D01*
X315384Y27550D01*
X315459Y27510D01*
X315535Y27474D01*
X315613Y27442D01*
X315693Y27413D01*
X315774Y27388D01*
X315856Y27367D01*
X315939Y27349D01*
X316023Y27336D01*
X316107Y27326D01*
X316191Y27320D01*
X316276Y27318D01*
X316276Y27317D02*
X318110Y27317D01*
X315909Y27317D02*
X314441Y24382D01*
X310874Y29518D02*
X309039Y30986D01*
X309039Y24382D01*
X307205Y24382D02*
X310874Y24382D01*
X303559Y29518D02*
X301724Y30986D01*
X301724Y24382D01*
X299890Y24382D02*
X303559Y24382D01*
X-5014Y218890D02*
X-11618Y218890D01*
X-5014Y218890D02*
X-5014Y220724D01*
X-5016Y220809D01*
X-5022Y220893D01*
X-5032Y220977D01*
X-5045Y221061D01*
X-5063Y221144D01*
X-5084Y221226D01*
X-5109Y221307D01*
X-5138Y221387D01*
X-5170Y221465D01*
X-5206Y221541D01*
X-5246Y221616D01*
X-5289Y221689D01*
X-5335Y221760D01*
X-5384Y221829D01*
X-5437Y221896D01*
X-5493Y221960D01*
X-5551Y222021D01*
X-5612Y222079D01*
X-5676Y222135D01*
X-5743Y222188D01*
X-5812Y222237D01*
X-5883Y222283D01*
X-5956Y222326D01*
X-6031Y222366D01*
X-6107Y222402D01*
X-6185Y222434D01*
X-6265Y222463D01*
X-6346Y222488D01*
X-6428Y222509D01*
X-6511Y222527D01*
X-6595Y222540D01*
X-6679Y222550D01*
X-6763Y222556D01*
X-6848Y222558D01*
X-6933Y222556D01*
X-7017Y222550D01*
X-7101Y222540D01*
X-7185Y222527D01*
X-7268Y222509D01*
X-7350Y222488D01*
X-7431Y222463D01*
X-7511Y222434D01*
X-7589Y222402D01*
X-7665Y222366D01*
X-7740Y222326D01*
X-7813Y222283D01*
X-7884Y222237D01*
X-7953Y222188D01*
X-8020Y222135D01*
X-8084Y222079D01*
X-8145Y222021D01*
X-8203Y221960D01*
X-8259Y221896D01*
X-8312Y221829D01*
X-8361Y221760D01*
X-8407Y221689D01*
X-8450Y221616D01*
X-8490Y221541D01*
X-8526Y221465D01*
X-8558Y221387D01*
X-8587Y221307D01*
X-8612Y221226D01*
X-8633Y221144D01*
X-8651Y221061D01*
X-8664Y220977D01*
X-8674Y220893D01*
X-8680Y220809D01*
X-8682Y220724D01*
X-8683Y220724D02*
X-8683Y218890D01*
X-8683Y221091D02*
X-11618Y222559D01*
X-5014Y228144D02*
X-5016Y228223D01*
X-5021Y228301D01*
X-5031Y228379D01*
X-5044Y228456D01*
X-5061Y228533D01*
X-5081Y228609D01*
X-5105Y228684D01*
X-5132Y228758D01*
X-5163Y228830D01*
X-5198Y228901D01*
X-5235Y228970D01*
X-5276Y229037D01*
X-5320Y229102D01*
X-5367Y229165D01*
X-5417Y229225D01*
X-5470Y229283D01*
X-5526Y229339D01*
X-5584Y229392D01*
X-5644Y229442D01*
X-5707Y229489D01*
X-5772Y229533D01*
X-5840Y229574D01*
X-5908Y229611D01*
X-5979Y229646D01*
X-6051Y229677D01*
X-6125Y229704D01*
X-6200Y229728D01*
X-6276Y229748D01*
X-6353Y229765D01*
X-6430Y229778D01*
X-6508Y229788D01*
X-6586Y229793D01*
X-6665Y229795D01*
X-5014Y228144D02*
X-5016Y228055D01*
X-5021Y227966D01*
X-5031Y227878D01*
X-5044Y227790D01*
X-5060Y227703D01*
X-5081Y227616D01*
X-5105Y227531D01*
X-5132Y227446D01*
X-5163Y227363D01*
X-5198Y227281D01*
X-5236Y227200D01*
X-5277Y227121D01*
X-5321Y227045D01*
X-5369Y226969D01*
X-5420Y226896D01*
X-5473Y226826D01*
X-5530Y226757D01*
X-5590Y226691D01*
X-5652Y226628D01*
X-5717Y226567D01*
X-5784Y226509D01*
X-5854Y226454D01*
X-5926Y226401D01*
X-6000Y226352D01*
X-6076Y226306D01*
X-6154Y226264D01*
X-6234Y226224D01*
X-6315Y226188D01*
X-6398Y226155D01*
X-6482Y226126D01*
X-7949Y229245D02*
X-7893Y229301D01*
X-7834Y229355D01*
X-7773Y229406D01*
X-7709Y229455D01*
X-7644Y229500D01*
X-7576Y229543D01*
X-7507Y229582D01*
X-7436Y229619D01*
X-7363Y229652D01*
X-7289Y229681D01*
X-7214Y229708D01*
X-7138Y229731D01*
X-7060Y229750D01*
X-6982Y229766D01*
X-6904Y229779D01*
X-6824Y229788D01*
X-6745Y229793D01*
X-6665Y229795D01*
X-7949Y229245D02*
X-11618Y226126D01*
X-11618Y229795D01*
X-6482Y233441D02*
X-5014Y235276D01*
X-11618Y235276D01*
X-11618Y237110D02*
X-11618Y233441D01*
X227110Y31618D02*
X227110Y25014D01*
X227110Y31618D02*
X225276Y31618D01*
X225191Y31616D01*
X225107Y31610D01*
X225023Y31600D01*
X224939Y31587D01*
X224856Y31569D01*
X224774Y31548D01*
X224693Y31523D01*
X224613Y31494D01*
X224535Y31462D01*
X224459Y31426D01*
X224384Y31386D01*
X224311Y31343D01*
X224240Y31297D01*
X224171Y31248D01*
X224104Y31195D01*
X224040Y31139D01*
X223979Y31081D01*
X223921Y31020D01*
X223865Y30956D01*
X223812Y30889D01*
X223763Y30820D01*
X223717Y30749D01*
X223674Y30676D01*
X223634Y30601D01*
X223598Y30525D01*
X223566Y30447D01*
X223537Y30367D01*
X223512Y30286D01*
X223491Y30204D01*
X223473Y30121D01*
X223460Y30037D01*
X223450Y29953D01*
X223444Y29869D01*
X223442Y29784D01*
X223444Y29699D01*
X223450Y29615D01*
X223460Y29531D01*
X223473Y29447D01*
X223491Y29364D01*
X223512Y29282D01*
X223537Y29201D01*
X223566Y29121D01*
X223598Y29043D01*
X223634Y28967D01*
X223674Y28892D01*
X223717Y28819D01*
X223763Y28748D01*
X223812Y28679D01*
X223865Y28612D01*
X223921Y28548D01*
X223979Y28487D01*
X224040Y28429D01*
X224104Y28373D01*
X224171Y28320D01*
X224240Y28271D01*
X224311Y28225D01*
X224384Y28182D01*
X224459Y28142D01*
X224535Y28106D01*
X224613Y28074D01*
X224693Y28045D01*
X224774Y28020D01*
X224856Y27999D01*
X224939Y27981D01*
X225023Y27968D01*
X225107Y27958D01*
X225191Y27952D01*
X225276Y27950D01*
X225276Y27949D02*
X227110Y27949D01*
X224909Y27949D02*
X223441Y25014D01*
X217856Y31618D02*
X217777Y31616D01*
X217699Y31611D01*
X217621Y31601D01*
X217544Y31588D01*
X217467Y31571D01*
X217391Y31551D01*
X217316Y31527D01*
X217242Y31500D01*
X217170Y31469D01*
X217099Y31434D01*
X217031Y31397D01*
X216963Y31356D01*
X216898Y31312D01*
X216835Y31265D01*
X216775Y31215D01*
X216717Y31162D01*
X216661Y31106D01*
X216608Y31048D01*
X216558Y30988D01*
X216511Y30925D01*
X216467Y30860D01*
X216426Y30793D01*
X216389Y30724D01*
X216354Y30653D01*
X216323Y30581D01*
X216296Y30507D01*
X216272Y30432D01*
X216252Y30356D01*
X216235Y30279D01*
X216222Y30202D01*
X216212Y30124D01*
X216207Y30046D01*
X216205Y29967D01*
X217856Y31618D02*
X217945Y31616D01*
X218034Y31611D01*
X218122Y31601D01*
X218210Y31588D01*
X218297Y31572D01*
X218384Y31551D01*
X218469Y31527D01*
X218554Y31500D01*
X218637Y31469D01*
X218719Y31434D01*
X218800Y31396D01*
X218879Y31355D01*
X218955Y31311D01*
X219031Y31263D01*
X219104Y31212D01*
X219174Y31159D01*
X219243Y31102D01*
X219309Y31042D01*
X219372Y30980D01*
X219433Y30915D01*
X219491Y30848D01*
X219546Y30778D01*
X219599Y30706D01*
X219648Y30632D01*
X219694Y30556D01*
X219736Y30478D01*
X219776Y30398D01*
X219812Y30317D01*
X219845Y30234D01*
X219874Y30150D01*
X216755Y28683D02*
X216699Y28739D01*
X216645Y28798D01*
X216594Y28859D01*
X216545Y28923D01*
X216500Y28988D01*
X216457Y29056D01*
X216418Y29125D01*
X216381Y29196D01*
X216348Y29269D01*
X216319Y29343D01*
X216292Y29418D01*
X216269Y29494D01*
X216250Y29572D01*
X216234Y29650D01*
X216221Y29728D01*
X216212Y29808D01*
X216207Y29887D01*
X216205Y29967D01*
X216755Y28683D02*
X219874Y25014D01*
X216205Y25014D01*
X212559Y30884D02*
X212559Y31618D01*
X208890Y31618D01*
X210724Y25014D01*
M02*
