%TF.GenerationSoftware,KiCad,Pcbnew,7.0.9*%
%TF.CreationDate,2023-12-24T18:06:15-08:00*%
%TF.ProjectId,RatatoulliBoard,52617461-746f-4756-9c6c-69426f617264,rev?*%
%TF.SameCoordinates,Original*%
%TF.FileFunction,Soldermask,Bot*%
%TF.FilePolarity,Negative*%
%FSLAX46Y46*%
G04 Gerber Fmt 4.6, Leading zero omitted, Abs format (unit mm)*
G04 Created by KiCad (PCBNEW 7.0.9) date 2023-12-24 18:06:15*
%MOMM*%
%LPD*%
G01*
G04 APERTURE LIST*
G04 Aperture macros list*
%AMRoundRect*
0 Rectangle with rounded corners*
0 $1 Rounding radius*
0 $2 $3 $4 $5 $6 $7 $8 $9 X,Y pos of 4 corners*
0 Add a 4 corners polygon primitive as box body*
4,1,4,$2,$3,$4,$5,$6,$7,$8,$9,$2,$3,0*
0 Add four circle primitives for the rounded corners*
1,1,$1+$1,$2,$3*
1,1,$1+$1,$4,$5*
1,1,$1+$1,$6,$7*
1,1,$1+$1,$8,$9*
0 Add four rect primitives between the rounded corners*
20,1,$1+$1,$2,$3,$4,$5,0*
20,1,$1+$1,$4,$5,$6,$7,0*
20,1,$1+$1,$6,$7,$8,$9,0*
20,1,$1+$1,$8,$9,$2,$3,0*%
G04 Aperture macros list end*
%ADD10C,1.665000*%
%ADD11RoundRect,0.250000X0.750000X1.550000X-0.750000X1.550000X-0.750000X-1.550000X0.750000X-1.550000X0*%
%ADD12O,2.000000X3.600000*%
%ADD13RoundRect,0.250000X-1.100000X0.325000X-1.100000X-0.325000X1.100000X-0.325000X1.100000X0.325000X0*%
%ADD14RoundRect,0.250000X0.250000X0.475000X-0.250000X0.475000X-0.250000X-0.475000X0.250000X-0.475000X0*%
%ADD15RoundRect,0.250000X0.325000X0.650000X-0.325000X0.650000X-0.325000X-0.650000X0.325000X-0.650000X0*%
%ADD16R,3.100000X5.000000*%
%ADD17RoundRect,0.250000X-0.325000X-0.650000X0.325000X-0.650000X0.325000X0.650000X-0.325000X0.650000X0*%
%ADD18RoundRect,0.250000X-0.250000X-0.475000X0.250000X-0.475000X0.250000X0.475000X-0.250000X0.475000X0*%
%ADD19RoundRect,0.200000X-0.200000X-0.600000X0.200000X-0.600000X0.200000X0.600000X-0.200000X0.600000X0*%
%ADD20RoundRect,0.250001X-0.799999X-1.249999X0.799999X-1.249999X0.799999X1.249999X-0.799999X1.249999X0*%
G04 APERTURE END LIST*
D10*
%TO.C,IC1*%
X62903794Y-67993111D03*
X65443794Y-67993111D03*
X67983794Y-67993111D03*
X70523794Y-67993111D03*
X73063794Y-67993111D03*
X75603794Y-67993111D03*
X78143794Y-67993111D03*
X80683794Y-67993111D03*
X83223794Y-67993111D03*
X85763794Y-67993111D03*
X88303794Y-67993111D03*
X90843794Y-67993111D03*
X90843794Y-52753111D03*
X88303794Y-52753111D03*
X85763794Y-52753111D03*
X83223794Y-52753111D03*
X80683794Y-52753111D03*
X78143794Y-52753111D03*
X75603794Y-52753111D03*
X73063794Y-52753111D03*
X70523794Y-52753111D03*
X67983794Y-52753111D03*
X65443794Y-52753111D03*
X95923794Y-67993111D03*
X98463794Y-67993111D03*
X101003794Y-67993111D03*
X103543794Y-67993111D03*
X106083794Y-67993111D03*
X108623794Y-67993111D03*
X111163794Y-67993111D03*
X113703794Y-67993111D03*
X116243794Y-67993111D03*
X116243794Y-52753111D03*
X113703794Y-52753111D03*
X111163794Y-52753111D03*
X108623794Y-52753111D03*
X106083794Y-52753111D03*
X103543794Y-52753111D03*
X101003794Y-52753111D03*
X98463794Y-52753111D03*
X95923794Y-52753111D03*
X93383794Y-67993111D03*
X103543794Y-65453111D03*
X103543794Y-62913111D03*
X103543794Y-60373111D03*
X103543794Y-57833111D03*
X103543794Y-55293111D03*
X74333794Y-64943111D03*
X71793794Y-64943111D03*
X69253794Y-64943111D03*
X66713794Y-64943111D03*
X64173794Y-64943111D03*
X62903794Y-52753111D03*
X57823794Y-52753111D03*
X60363794Y-67993111D03*
X60363794Y-55293111D03*
X93383794Y-52753111D03*
X60363794Y-52753111D03*
X57823794Y-67993111D03*
%TD*%
D11*
%TO.C,J8*%
X65263975Y-40287754D03*
D12*
X60263975Y-40287754D03*
X55263975Y-40287754D03*
%TD*%
D11*
%TO.C,J2*%
X130500000Y-40777500D03*
D12*
X125500000Y-40777500D03*
%TD*%
%TO.C,J7*%
X107177614Y-40728079D03*
X112177614Y-40728079D03*
D11*
X117177614Y-40728079D03*
%TD*%
%TO.C,J1*%
X47000000Y-40277500D03*
D12*
X42000000Y-40277500D03*
%TD*%
D13*
%TO.C,C11*%
X121456044Y-67593552D03*
X121456044Y-64643552D03*
%TD*%
D14*
%TO.C,C14*%
X103423964Y-89819596D03*
X101523964Y-89819596D03*
%TD*%
D15*
%TO.C,F1*%
X66702346Y-73718046D03*
X63752346Y-73718046D03*
%TD*%
D14*
%TO.C,C18*%
X70480000Y-78740000D03*
X68580000Y-78740000D03*
%TD*%
D16*
%TO.C,L1*%
X40960608Y-55793094D03*
X52060608Y-55793094D03*
%TD*%
D14*
%TO.C,R2*%
X60960000Y-73660000D03*
X59060000Y-73660000D03*
%TD*%
%TO.C,C17*%
X103414143Y-84338461D03*
X101514143Y-84338461D03*
%TD*%
D17*
%TO.C,F2*%
X106270000Y-73660000D03*
X109220000Y-73660000D03*
%TD*%
D18*
%TO.C,R6*%
X118430000Y-73660000D03*
X120330000Y-73660000D03*
%TD*%
D14*
%TO.C,C15*%
X103500000Y-78740000D03*
X101600000Y-78740000D03*
%TD*%
D18*
%TO.C,R5*%
X113350000Y-73660000D03*
X115250000Y-73660000D03*
%TD*%
%TO.C,C5*%
X52390000Y-48260000D03*
X54290000Y-48260000D03*
%TD*%
D13*
%TO.C,C12*%
X126702466Y-64643552D03*
X126702466Y-67593552D03*
%TD*%
D19*
%TO.C,J9*%
X95895000Y-43040000D03*
X97145000Y-43040000D03*
D20*
X93345000Y-40140000D03*
X99695000Y-40140000D03*
%TD*%
D14*
%TO.C,R3*%
X55650000Y-73660000D03*
X53750000Y-73660000D03*
%TD*%
D13*
%TO.C,C7*%
X50800000Y-64565000D03*
X50800000Y-67515000D03*
%TD*%
D16*
%TO.C,L2*%
X132550000Y-55500000D03*
X121450000Y-55500000D03*
%TD*%
M02*
