G04 EAGLE Gerber RS-274X export*
G75*
%MOMM*%
%FSLAX34Y34*%
%LPD*%
%IN*%
%IPPOS*%
%AMOC8*
5,1,8,0,0,1.08239X$1,22.5*%
G01*
%ADD10C,0.254000*%


D10*
X-140000Y140000D02*
X0Y0D01*
X380000Y0D01*
X520000Y140000D01*
X520000Y560000D01*
X-140000Y560000D01*
X-140000Y140000D01*
X366500Y229460D02*
X366429Y228382D01*
X366288Y227311D01*
X366078Y226251D01*
X365798Y225208D01*
X365451Y224185D01*
X365037Y223187D01*
X364560Y222218D01*
X364019Y221282D01*
X363419Y220384D01*
X362762Y219527D01*
X362049Y218715D01*
X361285Y217951D01*
X360473Y217239D01*
X359616Y216581D01*
X358718Y215981D01*
X357782Y215441D01*
X356813Y214963D01*
X355815Y214549D01*
X354792Y214202D01*
X353749Y213922D01*
X352689Y213712D01*
X351618Y213571D01*
X350540Y213500D01*
X349460Y213500D01*
X348382Y213571D01*
X347311Y213712D01*
X346251Y213922D01*
X345208Y214202D01*
X344185Y214549D01*
X343187Y214963D01*
X342218Y215441D01*
X341282Y215981D01*
X340384Y216581D01*
X339527Y217239D01*
X338715Y217951D01*
X337951Y218715D01*
X337239Y219527D01*
X336581Y220384D01*
X335981Y221282D01*
X335441Y222218D01*
X334963Y223187D01*
X334549Y224185D01*
X334202Y225208D01*
X333922Y226251D01*
X333712Y227311D01*
X333571Y228382D01*
X333500Y229460D01*
X333500Y230540D01*
X333571Y231618D01*
X333712Y232689D01*
X333922Y233749D01*
X334202Y234792D01*
X334549Y235815D01*
X334963Y236813D01*
X335441Y237782D01*
X335981Y238718D01*
X336581Y239616D01*
X337239Y240473D01*
X337951Y241285D01*
X338715Y242049D01*
X339527Y242762D01*
X340384Y243419D01*
X341282Y244019D01*
X342218Y244560D01*
X343187Y245037D01*
X344185Y245451D01*
X345208Y245798D01*
X346251Y246078D01*
X347311Y246288D01*
X348382Y246429D01*
X349460Y246500D01*
X350540Y246500D01*
X351618Y246429D01*
X352689Y246288D01*
X353749Y246078D01*
X354792Y245798D01*
X355815Y245451D01*
X356813Y245037D01*
X357782Y244560D01*
X358718Y244019D01*
X359616Y243419D01*
X360473Y242762D01*
X361285Y242049D01*
X362049Y241285D01*
X362762Y240473D01*
X363419Y239616D01*
X364019Y238718D01*
X364560Y237782D01*
X365037Y236813D01*
X365451Y235815D01*
X365798Y234792D01*
X366078Y233749D01*
X366288Y232689D01*
X366429Y231618D01*
X366500Y230540D01*
X366500Y229460D01*
X46500Y229460D02*
X46429Y228382D01*
X46288Y227311D01*
X46078Y226251D01*
X45798Y225208D01*
X45451Y224185D01*
X45037Y223187D01*
X44560Y222218D01*
X44019Y221282D01*
X43419Y220384D01*
X42762Y219527D01*
X42049Y218715D01*
X41285Y217951D01*
X40473Y217239D01*
X39616Y216581D01*
X38718Y215981D01*
X37782Y215441D01*
X36813Y214963D01*
X35815Y214549D01*
X34792Y214202D01*
X33749Y213922D01*
X32689Y213712D01*
X31618Y213571D01*
X30540Y213500D01*
X29460Y213500D01*
X28382Y213571D01*
X27311Y213712D01*
X26251Y213922D01*
X25208Y214202D01*
X24185Y214549D01*
X23187Y214963D01*
X22218Y215441D01*
X21282Y215981D01*
X20384Y216581D01*
X19527Y217239D01*
X18715Y217951D01*
X17951Y218715D01*
X17239Y219527D01*
X16581Y220384D01*
X15981Y221282D01*
X15441Y222218D01*
X14963Y223187D01*
X14549Y224185D01*
X14202Y225208D01*
X13922Y226251D01*
X13712Y227311D01*
X13571Y228382D01*
X13500Y229460D01*
X13500Y230540D01*
X13571Y231618D01*
X13712Y232689D01*
X13922Y233749D01*
X14202Y234792D01*
X14549Y235815D01*
X14963Y236813D01*
X15441Y237782D01*
X15981Y238718D01*
X16581Y239616D01*
X17239Y240473D01*
X17951Y241285D01*
X18715Y242049D01*
X19527Y242762D01*
X20384Y243419D01*
X21282Y244019D01*
X22218Y244560D01*
X23187Y245037D01*
X24185Y245451D01*
X25208Y245798D01*
X26251Y246078D01*
X27311Y246288D01*
X28382Y246429D01*
X29460Y246500D01*
X30540Y246500D01*
X31618Y246429D01*
X32689Y246288D01*
X33749Y246078D01*
X34792Y245798D01*
X35815Y245451D01*
X36813Y245037D01*
X37782Y244560D01*
X38718Y244019D01*
X39616Y243419D01*
X40473Y242762D01*
X41285Y242049D01*
X42049Y241285D01*
X42762Y240473D01*
X43419Y239616D01*
X44019Y238718D01*
X44560Y237782D01*
X45037Y236813D01*
X45451Y235815D01*
X45798Y234792D01*
X46078Y233749D01*
X46288Y232689D01*
X46429Y231618D01*
X46500Y230540D01*
X46500Y229460D01*
X-116557Y370300D02*
X-117667Y370227D01*
X-118771Y370082D01*
X-119862Y369865D01*
X-120937Y369577D01*
X-121991Y369219D01*
X-123020Y368793D01*
X-124018Y368301D01*
X-124982Y367744D01*
X-125907Y367126D01*
X-126790Y366448D01*
X-127627Y365714D01*
X-128414Y364927D01*
X-129148Y364090D01*
X-129826Y363207D01*
X-130444Y362282D01*
X-131001Y361318D01*
X-131493Y360320D01*
X-131919Y359291D01*
X-132277Y358237D01*
X-132565Y357162D01*
X-132782Y356071D01*
X-132927Y354967D01*
X-133000Y353857D01*
X-133000Y352743D01*
X-132927Y351633D01*
X-132782Y350529D01*
X-132565Y349438D01*
X-132277Y348363D01*
X-131919Y347309D01*
X-131493Y346280D01*
X-131001Y345282D01*
X-130444Y344318D01*
X-129826Y343393D01*
X-129148Y342510D01*
X-128414Y341673D01*
X-127627Y340886D01*
X-126790Y340152D01*
X-125907Y339474D01*
X-124982Y338856D01*
X-124018Y338299D01*
X-123020Y337807D01*
X-121991Y337381D01*
X-120937Y337023D01*
X-119862Y336735D01*
X-118771Y336518D01*
X-117667Y336373D01*
X-116557Y336300D01*
X-115443Y336300D01*
X-114333Y336373D01*
X-113229Y336518D01*
X-112138Y336735D01*
X-111063Y337023D01*
X-110009Y337381D01*
X-108980Y337807D01*
X-107982Y338299D01*
X-107018Y338856D01*
X-106093Y339474D01*
X-105210Y340152D01*
X-104373Y340886D01*
X-103586Y341673D01*
X-102852Y342510D01*
X-102174Y343393D01*
X-101556Y344318D01*
X-100999Y345282D01*
X-100507Y346280D01*
X-100081Y347309D01*
X-99723Y348363D01*
X-99435Y349438D01*
X-99218Y350529D01*
X-99073Y351633D01*
X-99000Y352743D01*
X-99000Y353857D01*
X-99073Y354967D01*
X-99218Y356071D01*
X-99435Y357162D01*
X-99723Y358237D01*
X-100081Y359291D01*
X-100507Y360320D01*
X-100999Y361318D01*
X-101556Y362282D01*
X-102174Y363207D01*
X-102852Y364090D01*
X-103586Y364927D01*
X-104373Y365714D01*
X-105210Y366448D01*
X-106093Y367126D01*
X-107018Y367744D01*
X-107982Y368301D01*
X-108980Y368793D01*
X-110009Y369219D01*
X-111063Y369577D01*
X-112138Y369865D01*
X-113229Y370082D01*
X-114333Y370227D01*
X-115443Y370300D01*
X-116557Y370300D01*
X-116557Y423700D02*
X-117667Y423627D01*
X-118771Y423482D01*
X-119862Y423265D01*
X-120937Y422977D01*
X-121991Y422619D01*
X-123020Y422193D01*
X-124018Y421701D01*
X-124982Y421144D01*
X-125907Y420526D01*
X-126790Y419848D01*
X-127627Y419114D01*
X-128414Y418327D01*
X-129148Y417490D01*
X-129826Y416607D01*
X-130444Y415682D01*
X-131001Y414718D01*
X-131493Y413720D01*
X-131919Y412691D01*
X-132277Y411637D01*
X-132565Y410562D01*
X-132782Y409471D01*
X-132927Y408367D01*
X-133000Y407257D01*
X-133000Y406143D01*
X-132927Y405033D01*
X-132782Y403929D01*
X-132565Y402838D01*
X-132277Y401763D01*
X-131919Y400709D01*
X-131493Y399680D01*
X-131001Y398682D01*
X-130444Y397718D01*
X-129826Y396793D01*
X-129148Y395910D01*
X-128414Y395073D01*
X-127627Y394286D01*
X-126790Y393552D01*
X-125907Y392874D01*
X-124982Y392256D01*
X-124018Y391699D01*
X-123020Y391207D01*
X-121991Y390781D01*
X-120937Y390423D01*
X-119862Y390135D01*
X-118771Y389918D01*
X-117667Y389773D01*
X-116557Y389700D01*
X-115443Y389700D01*
X-114333Y389773D01*
X-113229Y389918D01*
X-112138Y390135D01*
X-111063Y390423D01*
X-110009Y390781D01*
X-108980Y391207D01*
X-107982Y391699D01*
X-107018Y392256D01*
X-106093Y392874D01*
X-105210Y393552D01*
X-104373Y394286D01*
X-103586Y395073D01*
X-102852Y395910D01*
X-102174Y396793D01*
X-101556Y397718D01*
X-100999Y398682D01*
X-100507Y399680D01*
X-100081Y400709D01*
X-99723Y401763D01*
X-99435Y402838D01*
X-99218Y403929D01*
X-99073Y405033D01*
X-99000Y406143D01*
X-99000Y407257D01*
X-99073Y408367D01*
X-99218Y409471D01*
X-99435Y410562D01*
X-99723Y411637D01*
X-100081Y412691D01*
X-100507Y413720D01*
X-100999Y414718D01*
X-101556Y415682D01*
X-102174Y416607D01*
X-102852Y417490D01*
X-103586Y418327D01*
X-104373Y419114D01*
X-105210Y419848D01*
X-106093Y420526D01*
X-107018Y421144D01*
X-107982Y421701D01*
X-108980Y422193D01*
X-110009Y422619D01*
X-111063Y422977D01*
X-112138Y423265D01*
X-113229Y423482D01*
X-114333Y423627D01*
X-115443Y423700D01*
X-116557Y423700D01*
M02*
