G04 EAGLE Gerber RS-274X export*
G75*
%MOMM*%
%FSLAX34Y34*%
%LPD*%
%INSoldermask Bottom*%
%IPPOS*%
%AMOC8*
5,1,8,0,0,1.08239X$1,22.5*%
G01*
%ADD10C,3.604800*%
%ADD11C,1.504800*%
%ADD12C,6.304800*%
%ADD13C,6.020800*%
%ADD14C,1.159600*%
%ADD15C,2.857500*%
%ADD16C,3.962400*%
%ADD17C,1.834800*%
%ADD18C,3.704800*%
%ADD19C,1.804800*%


D10*
X80000Y80000D03*
X720000Y80000D03*
X400000Y620000D03*
D11*
X124600Y374000D03*
X175400Y374000D03*
X150000Y374000D03*
X137300Y352000D03*
X162700Y352000D03*
D12*
X85750Y460000D02*
X85750Y520000D01*
X214250Y520000D02*
X214250Y460000D01*
D13*
X400000Y778455D03*
X400000Y709080D03*
D14*
X392500Y240000D03*
X367500Y240000D03*
X402600Y310000D03*
X377600Y310000D03*
D15*
X83900Y669200D03*
D16*
X83900Y770800D03*
D15*
X176100Y669200D03*
D16*
X176100Y770800D03*
D11*
X624600Y374000D03*
X675400Y374000D03*
X650000Y374000D03*
X637300Y352000D03*
X662700Y352000D03*
D12*
X585750Y460000D02*
X585750Y520000D01*
X714250Y520000D02*
X714250Y460000D01*
D15*
X623900Y669200D03*
D16*
X623900Y770800D03*
D15*
X716100Y669200D03*
D16*
X716100Y770800D03*
D13*
X50000Y348455D03*
X50000Y279080D03*
X750000Y348455D03*
X750000Y279080D03*
D17*
X425400Y37300D03*
X400000Y37300D03*
X374600Y37300D03*
X425400Y62700D03*
X400000Y62700D03*
X374600Y62700D03*
D18*
X524300Y21000D03*
X577700Y21000D03*
D11*
X420000Y340000D03*
D19*
X480000Y550000D03*
X480000Y490000D03*
X480000Y430000D03*
D11*
X330000Y455000D03*
X470000Y710000D03*
X540000Y90000D03*
X290000Y200000D03*
X290000Y80000D03*
X560000Y230000D03*
X560000Y180000D03*
X330000Y410000D03*
X426600Y399700D03*
M02*
