G04 EAGLE Gerber RS-274X export*
G75*
%MOMM*%
%FSLAX34Y34*%
%LPD*%
%INBottom Copper*%
%IPPOS*%
%AMOC8*
5,1,8,0,0,1.08239X$1,22.5*%
G01*
%ADD10C,1.447800*%
%ADD11R,1.100000X1.000000*%
%ADD12C,0.300000*%
%ADD13P,1.656057X8X202.500000*%
%ADD14P,1.656057X8X22.500000*%
%ADD15R,1.500000X0.900000*%
%ADD16R,2.000000X0.800000*%
%ADD17R,1.000000X1.100000*%
%ADD18P,1.649562X8X22.500000*%
%ADD19R,5.330000X1.650000*%
%ADD20R,3.000000X2.100000*%
%ADD21R,1.600000X0.800000*%
%ADD22C,1.800000*%
%ADD23C,1.530000*%
%ADD24C,0.654000*%
%ADD25C,0.200000*%
%ADD26C,0.600000*%
%ADD27C,1.200000*%


D10*
X-99400Y303800D03*
X-74000Y303800D03*
X-48600Y303800D03*
X-23200Y303800D03*
X2200Y303800D03*
X27600Y303800D03*
X53000Y303800D03*
X78400Y303800D03*
X103800Y303800D03*
X129200Y303800D03*
X154600Y303800D03*
X180000Y303800D03*
X205400Y303800D03*
X230800Y303800D03*
X281600Y303800D03*
X307000Y303800D03*
X332400Y303800D03*
X357800Y303800D03*
X230800Y456200D03*
X205400Y456200D03*
X180000Y456200D03*
X154600Y456200D03*
X129200Y456200D03*
X103800Y456200D03*
X78400Y456200D03*
X53000Y456200D03*
X27600Y456200D03*
X2200Y456200D03*
X-23200Y456200D03*
X-48600Y456200D03*
X-74000Y456200D03*
X-99400Y456200D03*
X256200Y303800D03*
X357800Y456200D03*
X332400Y456200D03*
X307000Y456200D03*
X281600Y456200D03*
X256200Y456200D03*
X383200Y303800D03*
X408600Y303800D03*
X434000Y303800D03*
X459400Y303800D03*
X484800Y303800D03*
X484800Y456200D03*
X383200Y456200D03*
X408600Y456200D03*
X434000Y456200D03*
X459400Y456200D03*
D11*
X111500Y280000D03*
X128500Y280000D03*
X201500Y280000D03*
X218500Y280000D03*
D12*
X92270Y283500D02*
X92270Y276500D01*
X85270Y276500D01*
X85270Y283500D01*
X92270Y283500D01*
X92270Y279350D02*
X85270Y279350D01*
X85270Y282200D02*
X92270Y282200D01*
X74730Y283500D02*
X74730Y276500D01*
X67730Y276500D01*
X67730Y283500D01*
X74730Y283500D01*
X74730Y279350D02*
X67730Y279350D01*
X67730Y282200D02*
X74730Y282200D01*
X182270Y283500D02*
X182270Y276500D01*
X175270Y276500D01*
X175270Y283500D01*
X182270Y283500D01*
X182270Y279350D02*
X175270Y279350D01*
X175270Y282200D02*
X182270Y282200D01*
X164730Y283500D02*
X164730Y276500D01*
X157730Y276500D01*
X157730Y283500D01*
X164730Y283500D01*
X164730Y279350D02*
X157730Y279350D01*
X157730Y282200D02*
X164730Y282200D01*
D13*
X322700Y122700D03*
X322700Y97300D03*
X297300Y122700D03*
X297300Y97300D03*
X82700Y122700D03*
X82700Y97300D03*
X57300Y122700D03*
X57300Y97300D03*
D14*
X267300Y507300D03*
X267300Y532700D03*
X292700Y507300D03*
X292700Y532700D03*
D12*
X272270Y283500D02*
X272270Y276500D01*
X265270Y276500D01*
X265270Y283500D01*
X272270Y283500D01*
X272270Y279350D02*
X265270Y279350D01*
X265270Y282200D02*
X272270Y282200D01*
X254730Y283500D02*
X254730Y276500D01*
X247730Y276500D01*
X247730Y283500D01*
X254730Y283500D01*
X254730Y279350D02*
X247730Y279350D01*
X247730Y282200D02*
X254730Y282200D01*
D15*
X213500Y252500D03*
X213500Y219500D03*
X164500Y252500D03*
X164500Y219500D03*
D16*
X109000Y48000D03*
X109000Y68000D03*
X109000Y88000D03*
X109000Y108000D03*
X109000Y128000D03*
X109000Y148000D03*
X109000Y168000D03*
X109000Y188000D03*
X271000Y188000D03*
X271000Y168000D03*
X271000Y148000D03*
X271000Y128000D03*
X271000Y108000D03*
X271000Y88000D03*
X271000Y68000D03*
X271000Y48000D03*
D17*
X83000Y67500D03*
X83000Y50500D03*
D18*
X190000Y20000D03*
D19*
X-9100Y392700D03*
X-9100Y367300D03*
D20*
X499000Y418000D03*
D21*
X470000Y380000D03*
D20*
X499000Y342000D03*
D21*
X470000Y392500D03*
X470000Y367500D03*
D11*
X291500Y280000D03*
X308500Y280000D03*
X-8500Y140000D03*
X8500Y140000D03*
X-7500Y121000D03*
X9500Y121000D03*
X403500Y184000D03*
X386500Y184000D03*
X361500Y184000D03*
X344500Y184000D03*
D17*
X-20000Y221500D03*
X-20000Y238500D03*
D22*
X-60000Y526000D03*
X-25000Y526000D03*
X-95000Y526000D03*
D23*
X56600Y532700D03*
X82000Y532700D03*
X107400Y532700D03*
X56600Y507300D03*
X82000Y507300D03*
X107400Y507300D03*
D24*
X-95000Y424000D03*
X154000Y82000D03*
X255000Y176000D03*
X234000Y134000D03*
X23328Y51944D03*
X308000Y32000D03*
X183000Y340000D03*
X38000Y149000D03*
X349000Y147000D03*
X84000Y357000D03*
X-20000Y157000D03*
X398000Y157556D03*
X470000Y190000D03*
X401629Y88345D03*
X-74000Y144000D03*
X-90000Y250000D03*
X-100000Y160000D03*
X392000Y36000D03*
X248000Y235000D03*
X137000Y89000D03*
X-10000Y70000D03*
X334000Y147000D03*
X482000Y285000D03*
X476000Y171000D03*
X117000Y31000D03*
X151000Y171000D03*
X157000Y159000D03*
X211000Y182000D03*
X275000Y212000D03*
X254000Y224000D03*
X68000Y206000D03*
X264000Y434000D03*
X177000Y526000D03*
X-50000Y250000D03*
X324000Y258000D03*
X293000Y258000D03*
D25*
X470000Y357000D02*
X470000Y367500D01*
X470000Y357000D02*
X469000Y356000D01*
D24*
X469000Y356000D03*
D25*
X-9000Y346000D02*
X-9100Y346100D01*
D26*
X-9100Y367300D01*
D27*
X-9000Y346000D03*
D25*
X271000Y48000D02*
X292000Y48000D01*
X308000Y32000D01*
X83000Y45000D02*
X83000Y50500D01*
X83000Y45000D02*
X77000Y39000D01*
X77000Y23000D01*
D24*
X77000Y23000D03*
D25*
X138000Y270500D02*
X128500Y280000D01*
X138000Y270500D02*
X138000Y263000D01*
D24*
X138000Y263000D03*
D25*
X218500Y280000D02*
X227000Y271500D01*
X227000Y268000D01*
D24*
X227000Y268000D03*
D25*
X308500Y280000D02*
X316698Y280000D01*
X323000Y286302D01*
D24*
X323000Y286302D03*
D25*
X129000Y68000D02*
X109000Y68000D01*
X129000Y68000D02*
X141000Y56000D01*
D24*
X141000Y56000D03*
D25*
X-20000Y221500D02*
X-47500Y221500D01*
X-66000Y240000D01*
D24*
X-66000Y240000D03*
D25*
X257000Y188000D02*
X271000Y188000D01*
X257000Y188000D02*
X255000Y186000D01*
D24*
X255000Y186000D03*
D25*
X164500Y219500D02*
X150698Y205698D01*
X150000Y205698D01*
D24*
X150000Y205698D03*
X-98000Y375000D03*
X-51000Y375000D03*
X272000Y348000D03*
X297000Y348000D03*
X118620Y436000D03*
X78456Y435456D03*
X490000Y236000D03*
X-66000Y406000D03*
X453000Y120000D03*
X343620Y29000D03*
X-106000Y202000D03*
X230000Y250000D03*
X325000Y426000D03*
X241620Y340000D03*
X162356Y424644D03*
X70552Y33985D03*
X83940Y34000D03*
X-50000Y100000D03*
X-40386Y90376D03*
X-65000Y179000D03*
X352940Y35000D03*
X461420Y128490D03*
X490000Y247940D03*
D25*
X71230Y270390D02*
X71230Y280000D01*
X71230Y270390D02*
X80000Y261620D01*
D24*
X80000Y261620D03*
D25*
X216000Y250000D02*
X230000Y250000D01*
X216000Y250000D02*
X213500Y252500D01*
D24*
X-82000Y406000D03*
X-52000Y409000D03*
X272000Y361698D03*
X297000Y361698D03*
X157000Y265000D03*
D25*
X95000Y79500D02*
X83000Y67500D01*
X95000Y79500D02*
X95000Y115000D01*
X157000Y267770D02*
X161230Y272000D01*
X157000Y267770D02*
X157000Y265000D01*
X161230Y272000D02*
X161230Y280000D01*
D24*
X330000Y190000D03*
D25*
X65400Y140000D02*
X8500Y140000D01*
X65400Y140000D02*
X82700Y122700D01*
X9500Y121000D02*
X9500Y139000D01*
X8500Y140000D01*
X82700Y122700D02*
X87300Y122700D01*
X95000Y115000D01*
X92600Y128000D02*
X109000Y128000D01*
X92600Y128000D02*
X87300Y122700D01*
X386500Y184000D02*
X386500Y187000D01*
X379230Y194270D01*
X351770Y194270D02*
X344500Y187000D01*
X344500Y184000D01*
X351770Y194270D02*
X379230Y194270D01*
X344500Y187000D02*
X341500Y190000D01*
X330000Y190000D01*
D24*
X168000Y369000D03*
D25*
X445000Y386000D02*
X445000Y170000D01*
X445000Y445200D02*
X434000Y456200D01*
X445000Y445200D02*
X445000Y386000D01*
X427000Y368000D01*
X169000Y368000D01*
X168000Y369000D01*
X322700Y97300D02*
X313524Y88124D01*
X313524Y80000D01*
X320000Y73524D01*
X348524Y73524D01*
X445000Y170000D01*
X82700Y97300D02*
X35400Y40000D01*
X-7000Y40000D01*
X-116000Y149000D02*
X-116000Y234000D01*
X-116000Y149000D02*
X-7000Y40000D01*
X-116000Y234000D02*
X-70000Y280000D01*
D24*
X80000Y370000D03*
D25*
X63000Y370000D01*
X-23200Y456200D01*
X-50000Y280000D02*
X-70000Y280000D01*
X-35091Y340739D02*
X-59000Y364648D01*
X-35091Y294909D02*
X-50000Y280000D01*
X-35091Y294909D02*
X-35091Y340739D01*
X-59000Y420400D02*
X-23200Y456200D01*
X-59000Y420400D02*
X-59000Y364648D01*
X216200Y456200D02*
X267300Y507300D01*
X216200Y456200D02*
X205400Y456200D01*
X111500Y280000D02*
X88770Y280000D01*
X178770Y280000D02*
X201500Y280000D01*
D24*
X240000Y260556D03*
D25*
X240000Y268770D02*
X251230Y280000D01*
X240000Y268770D02*
X240000Y260556D01*
D24*
X175000Y425000D03*
D25*
X276600Y456200D02*
X281600Y456200D01*
X276600Y456200D02*
X245400Y425000D01*
X175000Y425000D01*
X164500Y252500D02*
X114500Y252500D01*
X107000Y260000D01*
D24*
X107000Y260000D03*
D25*
X302800Y187000D02*
X306000Y187000D01*
X287600Y168000D02*
X271000Y168000D01*
X287600Y168000D02*
X302800Y187000D01*
D24*
X306000Y187000D03*
X230000Y340000D03*
D25*
X90000Y499300D02*
X82000Y507300D01*
X90000Y427088D02*
X157088Y360000D01*
X210000Y360000D01*
X230000Y340000D01*
X90000Y427088D02*
X90000Y499300D01*
X272000Y147000D02*
X302000Y147000D01*
X272000Y147000D02*
X271000Y148000D01*
D24*
X302000Y147000D03*
X210000Y340000D03*
D25*
X65000Y498900D02*
X56600Y507300D01*
X65000Y498900D02*
X65000Y440000D01*
X155000Y350000D01*
X200000Y350000D01*
X210000Y340000D01*
X271000Y108000D02*
X275152Y108000D01*
X286156Y98448D01*
X286156Y92098D01*
X304127Y74127D01*
X313254Y65000D01*
X357000Y65000D01*
X456066Y164066D02*
X456066Y274000D01*
D24*
X456066Y274000D03*
D25*
X456066Y164066D02*
X357000Y65000D01*
D24*
X297000Y70000D03*
D25*
X301127Y74127D01*
X304127Y74127D01*
X109000Y148000D02*
X80000Y177000D01*
X80000Y250000D01*
D24*
X80000Y250000D03*
X-65000Y112000D03*
D25*
X-16500Y112000D02*
X-7500Y121000D01*
X-16500Y112000D02*
X-65000Y112000D01*
D24*
X0Y160000D03*
D25*
X-8500Y151500D02*
X-8500Y140000D01*
X-8500Y151500D02*
X0Y160000D01*
D24*
X-76000Y210000D03*
D25*
X-60000Y210000D01*
X-40000Y190000D01*
D24*
X-40000Y190000D03*
D25*
X-20000Y238500D02*
X-23200Y241700D01*
X-23200Y303800D01*
D24*
X-7000Y216000D03*
D25*
X-8000Y217000D02*
X-8000Y226500D01*
X-8000Y217000D02*
X-7000Y216000D01*
X-8000Y226500D02*
X-20000Y238500D01*
D24*
X30000Y268000D03*
D25*
X30000Y275016D02*
X42524Y287540D01*
X30000Y275016D02*
X30000Y268000D01*
X42524Y311690D02*
X48000Y317166D01*
X90434Y317166D01*
X103800Y303800D01*
X42524Y311690D02*
X42524Y287540D01*
X361500Y184000D02*
X379000Y177500D01*
X379000Y168000D01*
D24*
X379000Y168000D03*
X390000Y138000D03*
D25*
X409000Y157000D02*
X411000Y157000D01*
X409000Y157000D02*
X390000Y138000D01*
D24*
X411000Y157000D03*
D25*
X403500Y184000D02*
X411000Y187500D01*
X411000Y157000D01*
X154600Y303800D02*
X153800Y303800D01*
D24*
X380000Y206000D03*
D25*
X180000Y330000D02*
X153800Y303800D01*
X380000Y277000D02*
X380000Y206000D01*
X380000Y277000D02*
X372000Y285000D01*
X372000Y316000D01*
X358000Y330000D01*
X180000Y330000D01*
D24*
X2000Y194000D03*
D25*
X1000Y195000D02*
X1000Y253000D01*
X1000Y195000D02*
X2000Y194000D01*
X1000Y253000D02*
X38000Y290000D01*
X45903Y325690D02*
X105310Y325690D01*
X127200Y303800D01*
X129200Y303800D01*
X38000Y290000D02*
X38000Y317787D01*
X45903Y325690D01*
D24*
X340000Y320000D03*
D25*
X196200Y320000D01*
X180000Y303800D01*
D24*
X50000Y30000D03*
D25*
X-13000Y30000D01*
X-122000Y139000D01*
X-57600Y303800D02*
X-48600Y303800D01*
X-57600Y303800D02*
X-122000Y239400D01*
X-122000Y139000D01*
D24*
X58000Y13000D03*
D25*
X-6790Y13000D01*
X-132844Y139054D01*
X-132844Y244956D02*
X-74000Y303800D01*
X-132844Y244956D02*
X-132844Y139054D01*
D24*
X320000Y20000D03*
D25*
X395306Y20000D01*
X515730Y272870D02*
X484800Y303800D01*
X515730Y140424D02*
X395306Y20000D01*
X515730Y140424D02*
X515730Y272870D01*
D24*
X331000Y29000D03*
D25*
X463400Y159305D01*
X463400Y299800D02*
X459400Y303800D01*
X463400Y299800D02*
X463400Y159305D01*
X190000Y20000D02*
X137000Y20000D01*
X109000Y48000D01*
D24*
X287000Y80000D03*
X362000Y106000D03*
D25*
X369272Y106000D01*
X420476Y157204D01*
X420476Y291924D02*
X408600Y303800D01*
X420476Y291924D02*
X420476Y157204D01*
X281000Y88000D02*
X271000Y88000D01*
X287000Y82000D02*
X287000Y80000D01*
X287000Y82000D02*
X281000Y88000D01*
D27*
X-46000Y392968D03*
D26*
X-45732Y392700D02*
X-9100Y392700D01*
X-45732Y392700D02*
X-46000Y392968D01*
D25*
X470000Y392500D02*
X470000Y441400D01*
X484800Y456200D01*
X459400Y456200D02*
X457400Y454200D01*
X457400Y383600D01*
X461000Y380000D01*
X470000Y380000D01*
X291500Y280000D02*
X268770Y280000D01*
X129200Y485500D02*
X107400Y507300D01*
X129200Y485500D02*
X129200Y456200D01*
X301121Y135879D02*
X308000Y129000D01*
X353000Y70000D02*
X449510Y166510D01*
X449510Y456677D02*
X433097Y473090D01*
X247690Y473090D02*
X230800Y456200D01*
X247690Y473090D02*
X433097Y473090D01*
X449510Y456677D02*
X449510Y166510D01*
X308000Y129000D02*
X308000Y78000D01*
X316000Y70000D01*
X353000Y70000D01*
X301121Y135879D02*
X280000Y135879D01*
X148444Y431556D02*
X141000Y439000D01*
X148444Y431556D02*
X206156Y431556D01*
X230800Y456200D01*
X141000Y439000D02*
X141000Y499100D01*
X107400Y532700D01*
X280000Y135879D02*
X272121Y128000D01*
X271000Y128000D01*
M02*
