G04 EAGLE Gerber RS-274X export*
G75*
%MOMM*%
%FSLAX34Y34*%
%LPD*%
%INTop Copper*%
%IPPOS*%
%AMOC8*
5,1,8,0,0,1.08239X$1,22.5*%
G01*
%ADD10R,0.355600X1.460500*%
%ADD11R,1.100000X1.000000*%
%ADD12R,0.850800X1.761200*%
%ADD13R,3.150800X1.761200*%
%ADD14R,1.000000X1.100000*%
%ADD15C,1.200000*%
%ADD16C,6.000000*%
%ADD17C,5.716000*%
%ADD18R,5.400000X2.900000*%
%ADD19R,2.160000X0.910000*%
%ADD20R,10.410000X10.800000*%
%ADD21C,0.854800*%
%ADD22R,2.500000X4.000000*%
%ADD23R,0.800000X0.800000*%
%ADD24R,3.000000X2.000000*%
%ADD25C,2.552700*%
%ADD26C,3.657600*%
%ADD27R,1.168400X1.930400*%
%ADD28R,0.900000X1.400000*%
%ADD29R,2.200000X1.400000*%
%ADD30R,1.400000X0.900000*%
%ADD31R,1.400000X2.200000*%
%ADD32R,1.676400X1.524000*%
%ADD33C,1.530000*%
%ADD34R,1.650000X5.330000*%
%ADD35C,0.704800*%
%ADD36C,0.200000*%
%ADD37C,0.812800*%
%ADD38C,1.500000*%
%ADD39C,1.000000*%
%ADD40C,0.800000*%
%ADD41C,0.654800*%
%ADD42C,0.152400*%
%ADD43C,0.400000*%

G36*
X515579Y2013D02*
X515579Y2013D01*
X515666Y2016D01*
X515718Y2033D01*
X515773Y2041D01*
X515852Y2076D01*
X515934Y2103D01*
X515980Y2134D01*
X516030Y2157D01*
X516096Y2213D01*
X516167Y2262D01*
X516202Y2304D01*
X516244Y2340D01*
X516291Y2413D01*
X516347Y2480D01*
X516368Y2530D01*
X516398Y2576D01*
X516424Y2659D01*
X516458Y2739D01*
X516465Y2793D01*
X516481Y2846D01*
X516482Y2933D01*
X516493Y3019D01*
X516484Y3073D01*
X516484Y3128D01*
X516461Y3212D01*
X516447Y3297D01*
X516424Y3347D01*
X516409Y3400D01*
X516364Y3474D01*
X516326Y3552D01*
X516290Y3593D01*
X516261Y3640D01*
X516197Y3698D01*
X516139Y3763D01*
X516096Y3789D01*
X516052Y3829D01*
X515949Y3878D01*
X515876Y3923D01*
X513537Y4892D01*
X508192Y10237D01*
X505299Y17220D01*
X505299Y24779D01*
X508192Y31763D01*
X513537Y37108D01*
X520521Y40001D01*
X528079Y40001D01*
X535063Y37108D01*
X540408Y31763D01*
X543301Y24779D01*
X543301Y17220D01*
X540408Y10237D01*
X535063Y4892D01*
X532724Y3923D01*
X532649Y3879D01*
X532570Y3843D01*
X532529Y3808D01*
X532481Y3780D01*
X532422Y3716D01*
X532356Y3660D01*
X532326Y3614D01*
X532289Y3574D01*
X532249Y3497D01*
X532202Y3424D01*
X532186Y3371D01*
X532161Y3322D01*
X532145Y3237D01*
X532119Y3154D01*
X532119Y3099D01*
X532108Y3045D01*
X532117Y2959D01*
X532116Y2872D01*
X532130Y2819D01*
X532135Y2765D01*
X532168Y2684D01*
X532191Y2600D01*
X532220Y2553D01*
X532240Y2503D01*
X532293Y2434D01*
X532339Y2360D01*
X532380Y2324D01*
X532413Y2280D01*
X532484Y2229D01*
X532548Y2171D01*
X532598Y2147D01*
X532642Y2115D01*
X532724Y2086D01*
X532802Y2048D01*
X532852Y2040D01*
X532908Y2021D01*
X533021Y2014D01*
X533107Y2001D01*
X568893Y2001D01*
X568979Y2013D01*
X569066Y2016D01*
X569118Y2033D01*
X569173Y2041D01*
X569252Y2076D01*
X569334Y2103D01*
X569380Y2134D01*
X569430Y2157D01*
X569496Y2213D01*
X569567Y2262D01*
X569602Y2304D01*
X569644Y2340D01*
X569691Y2413D01*
X569747Y2480D01*
X569768Y2530D01*
X569798Y2576D01*
X569824Y2659D01*
X569858Y2739D01*
X569865Y2793D01*
X569881Y2846D01*
X569882Y2933D01*
X569893Y3019D01*
X569884Y3073D01*
X569884Y3128D01*
X569861Y3212D01*
X569847Y3297D01*
X569824Y3347D01*
X569809Y3400D01*
X569764Y3474D01*
X569726Y3552D01*
X569690Y3593D01*
X569661Y3640D01*
X569597Y3698D01*
X569539Y3763D01*
X569496Y3789D01*
X569452Y3829D01*
X569349Y3878D01*
X569276Y3923D01*
X566937Y4892D01*
X561592Y10237D01*
X558699Y17220D01*
X558699Y24779D01*
X561592Y31763D01*
X566937Y37108D01*
X573921Y40001D01*
X581479Y40001D01*
X588463Y37108D01*
X593808Y31763D01*
X596701Y24779D01*
X596701Y17220D01*
X593808Y10237D01*
X588463Y4892D01*
X586124Y3923D01*
X586049Y3879D01*
X585970Y3843D01*
X585929Y3808D01*
X585881Y3780D01*
X585822Y3716D01*
X585756Y3660D01*
X585726Y3614D01*
X585689Y3574D01*
X585649Y3497D01*
X585602Y3424D01*
X585586Y3371D01*
X585561Y3322D01*
X585545Y3237D01*
X585519Y3154D01*
X585519Y3099D01*
X585508Y3045D01*
X585517Y2959D01*
X585516Y2872D01*
X585530Y2819D01*
X585535Y2765D01*
X585568Y2684D01*
X585591Y2600D01*
X585620Y2553D01*
X585640Y2503D01*
X585693Y2434D01*
X585739Y2360D01*
X585780Y2324D01*
X585813Y2280D01*
X585884Y2229D01*
X585948Y2171D01*
X585998Y2147D01*
X586042Y2115D01*
X586124Y2086D01*
X586202Y2048D01*
X586252Y2040D01*
X586308Y2021D01*
X586421Y2014D01*
X586507Y2001D01*
X797000Y2001D01*
X797064Y2010D01*
X797128Y2009D01*
X797203Y2030D01*
X797279Y2041D01*
X797338Y2067D01*
X797400Y2084D01*
X797466Y2125D01*
X797536Y2157D01*
X797585Y2199D01*
X797640Y2232D01*
X797692Y2290D01*
X797750Y2340D01*
X797786Y2394D01*
X797829Y2442D01*
X797862Y2511D01*
X797905Y2576D01*
X797924Y2638D01*
X797952Y2695D01*
X797963Y2765D01*
X797987Y2846D01*
X797988Y2931D01*
X797999Y3000D01*
X797999Y310000D01*
X797990Y310064D01*
X797991Y310128D01*
X797970Y310203D01*
X797959Y310279D01*
X797933Y310338D01*
X797916Y310400D01*
X797875Y310466D01*
X797843Y310536D01*
X797801Y310585D01*
X797768Y310640D01*
X797710Y310692D01*
X797660Y310750D01*
X797606Y310786D01*
X797558Y310829D01*
X797489Y310862D01*
X797424Y310905D01*
X797362Y310924D01*
X797305Y310952D01*
X797235Y310963D01*
X797154Y310987D01*
X797069Y310988D01*
X797000Y310999D01*
X706270Y310999D01*
X706206Y310990D01*
X706142Y310991D01*
X706067Y310970D01*
X705991Y310959D01*
X705932Y310933D01*
X705870Y310916D01*
X705804Y310875D01*
X705734Y310843D01*
X705685Y310801D01*
X705630Y310768D01*
X705578Y310710D01*
X705520Y310660D01*
X705484Y310606D01*
X705441Y310558D01*
X705408Y310489D01*
X705365Y310424D01*
X705346Y310362D01*
X705318Y310305D01*
X705307Y310235D01*
X705283Y310154D01*
X705282Y310069D01*
X705271Y310000D01*
X705271Y304474D01*
X704526Y303729D01*
X692474Y303729D01*
X691729Y304474D01*
X691729Y315526D01*
X692474Y316271D01*
X695230Y316271D01*
X695294Y316280D01*
X695358Y316279D01*
X695433Y316300D01*
X695509Y316311D01*
X695568Y316337D01*
X695630Y316354D01*
X695696Y316395D01*
X695766Y316427D01*
X695815Y316469D01*
X695870Y316502D01*
X695922Y316560D01*
X695980Y316610D01*
X696016Y316664D01*
X696059Y316712D01*
X696092Y316781D01*
X696135Y316846D01*
X696154Y316908D01*
X696182Y316965D01*
X696193Y317035D01*
X696217Y317116D01*
X696218Y317201D01*
X696229Y317270D01*
X696229Y317498D01*
X696216Y317593D01*
X696211Y317690D01*
X696196Y317733D01*
X696189Y317778D01*
X696150Y317865D01*
X696118Y317956D01*
X696093Y317990D01*
X696073Y318035D01*
X695990Y318132D01*
X695937Y318205D01*
X695289Y318852D01*
X694443Y320895D01*
X694443Y323105D01*
X695289Y325148D01*
X696852Y326711D01*
X698895Y327557D01*
X700000Y327557D01*
X700064Y327566D01*
X700128Y327565D01*
X700203Y327586D01*
X700279Y327597D01*
X700338Y327623D01*
X700400Y327640D01*
X700466Y327681D01*
X700536Y327713D01*
X700585Y327755D01*
X700640Y327788D01*
X700692Y327846D01*
X700750Y327896D01*
X700786Y327950D01*
X700829Y327998D01*
X700862Y328067D01*
X700905Y328132D01*
X700924Y328194D01*
X700952Y328251D01*
X700963Y328321D01*
X700987Y328402D01*
X700988Y328487D01*
X700999Y328556D01*
X700999Y400000D01*
X700990Y400064D01*
X700991Y400128D01*
X700970Y400203D01*
X700959Y400279D01*
X700933Y400338D01*
X700916Y400400D01*
X700875Y400466D01*
X700843Y400536D01*
X700802Y400585D01*
X700768Y400640D01*
X700710Y400692D01*
X700660Y400750D01*
X700606Y400786D01*
X700558Y400829D01*
X700489Y400862D01*
X700424Y400905D01*
X700362Y400924D01*
X700305Y400952D01*
X700235Y400963D01*
X700154Y400987D01*
X700069Y400988D01*
X700000Y400999D01*
X600000Y400999D01*
X599936Y400990D01*
X599872Y400991D01*
X599797Y400970D01*
X599721Y400959D01*
X599662Y400933D01*
X599600Y400916D01*
X599534Y400875D01*
X599464Y400843D01*
X599415Y400801D01*
X599360Y400768D01*
X599308Y400710D01*
X599250Y400660D01*
X599214Y400606D01*
X599171Y400558D01*
X599138Y400489D01*
X599095Y400424D01*
X599076Y400362D01*
X599048Y400305D01*
X599037Y400235D01*
X599013Y400154D01*
X599012Y400069D01*
X599001Y400000D01*
X599001Y327556D01*
X599010Y327492D01*
X599009Y327428D01*
X599030Y327353D01*
X599041Y327277D01*
X599067Y327218D01*
X599084Y327156D01*
X599125Y327090D01*
X599157Y327020D01*
X599199Y326971D01*
X599232Y326916D01*
X599290Y326864D01*
X599340Y326806D01*
X599394Y326770D01*
X599442Y326727D01*
X599511Y326694D01*
X599576Y326651D01*
X599638Y326632D01*
X599695Y326604D01*
X599765Y326593D01*
X599846Y326569D01*
X599931Y326568D01*
X600000Y326557D01*
X602105Y326557D01*
X604148Y325711D01*
X605711Y324148D01*
X606557Y322105D01*
X606557Y319895D01*
X605673Y317761D01*
X605666Y317752D01*
X605655Y317721D01*
X605637Y317694D01*
X605605Y317590D01*
X605566Y317488D01*
X605564Y317455D01*
X605554Y317424D01*
X605553Y317315D01*
X605544Y317207D01*
X605551Y317175D01*
X605550Y317142D01*
X605579Y317037D01*
X605602Y316931D01*
X605617Y316902D01*
X605626Y316870D01*
X605683Y316778D01*
X605734Y316682D01*
X605757Y316658D01*
X605774Y316630D01*
X605855Y316557D01*
X605930Y316479D01*
X605959Y316463D01*
X605983Y316441D01*
X606081Y316394D01*
X606176Y316340D01*
X606208Y316333D01*
X606237Y316318D01*
X606326Y316304D01*
X606450Y316275D01*
X606499Y316277D01*
X606542Y316271D01*
X607526Y316271D01*
X608271Y315526D01*
X608271Y304474D01*
X607526Y303729D01*
X595474Y303729D01*
X594729Y304474D01*
X594729Y310000D01*
X594720Y310064D01*
X594721Y310128D01*
X594700Y310203D01*
X594689Y310279D01*
X594663Y310338D01*
X594646Y310400D01*
X594605Y310466D01*
X594573Y310536D01*
X594531Y310585D01*
X594498Y310640D01*
X594440Y310692D01*
X594390Y310750D01*
X594336Y310786D01*
X594288Y310829D01*
X594219Y310862D01*
X594154Y310905D01*
X594092Y310924D01*
X594035Y310952D01*
X593965Y310963D01*
X593884Y310987D01*
X593799Y310988D01*
X593730Y310999D01*
X584320Y310999D01*
X584256Y310990D01*
X584192Y310991D01*
X584117Y310970D01*
X584041Y310959D01*
X583982Y310933D01*
X583920Y310916D01*
X583854Y310875D01*
X583784Y310843D01*
X583735Y310801D01*
X583680Y310768D01*
X583628Y310710D01*
X583570Y310660D01*
X583534Y310606D01*
X583491Y310558D01*
X583458Y310489D01*
X583415Y310424D01*
X583396Y310362D01*
X583368Y310305D01*
X583357Y310235D01*
X583333Y310154D01*
X583332Y310069D01*
X583321Y310000D01*
X583321Y285474D01*
X582576Y284729D01*
X540000Y284729D01*
X539936Y284720D01*
X539872Y284721D01*
X539797Y284700D01*
X539721Y284689D01*
X539662Y284663D01*
X539600Y284646D01*
X539534Y284605D01*
X539464Y284573D01*
X539415Y284531D01*
X539360Y284498D01*
X539308Y284440D01*
X539250Y284390D01*
X539214Y284336D01*
X539171Y284288D01*
X539138Y284219D01*
X539095Y284154D01*
X539076Y284092D01*
X539048Y284035D01*
X539037Y283965D01*
X539013Y283884D01*
X539012Y283799D01*
X539001Y283730D01*
X539001Y280999D01*
X470000Y280999D01*
X469936Y280990D01*
X469872Y280991D01*
X469797Y280970D01*
X469721Y280959D01*
X469662Y280933D01*
X469600Y280916D01*
X469534Y280875D01*
X469464Y280843D01*
X469415Y280801D01*
X469360Y280768D01*
X469308Y280710D01*
X469250Y280660D01*
X469214Y280606D01*
X469171Y280558D01*
X469138Y280489D01*
X469095Y280424D01*
X469076Y280362D01*
X469048Y280305D01*
X469037Y280235D01*
X469013Y280154D01*
X469012Y280069D01*
X469001Y280000D01*
X469001Y220999D01*
X260999Y220999D01*
X260999Y265330D01*
X260990Y265394D01*
X260991Y265458D01*
X260970Y265533D01*
X260959Y265609D01*
X260933Y265668D01*
X260916Y265730D01*
X260875Y265796D01*
X260843Y265866D01*
X260801Y265915D01*
X260768Y265970D01*
X260710Y266022D01*
X260660Y266080D01*
X260606Y266116D01*
X260558Y266159D01*
X260489Y266192D01*
X260424Y266235D01*
X260362Y266254D01*
X260305Y266282D01*
X260235Y266293D01*
X260154Y266317D01*
X260069Y266318D01*
X260000Y266329D01*
X254174Y266329D01*
X253429Y267074D01*
X253429Y297126D01*
X254174Y297871D01*
X260000Y297871D01*
X260064Y297880D01*
X260128Y297879D01*
X260203Y297900D01*
X260279Y297911D01*
X260338Y297937D01*
X260400Y297954D01*
X260466Y297995D01*
X260536Y298027D01*
X260585Y298069D01*
X260640Y298102D01*
X260692Y298160D01*
X260750Y298210D01*
X260786Y298264D01*
X260829Y298312D01*
X260862Y298381D01*
X260905Y298446D01*
X260924Y298508D01*
X260952Y298565D01*
X260963Y298635D01*
X260987Y298716D01*
X260988Y298801D01*
X260999Y298870D01*
X260999Y310000D01*
X260990Y310064D01*
X260991Y310128D01*
X260970Y310203D01*
X260959Y310279D01*
X260933Y310338D01*
X260916Y310400D01*
X260875Y310466D01*
X260843Y310536D01*
X260801Y310585D01*
X260768Y310640D01*
X260710Y310692D01*
X260660Y310750D01*
X260606Y310786D01*
X260558Y310829D01*
X260489Y310862D01*
X260424Y310905D01*
X260362Y310924D01*
X260305Y310952D01*
X260235Y310963D01*
X260154Y310987D01*
X260069Y310988D01*
X260000Y310999D01*
X206270Y310999D01*
X206206Y310990D01*
X206142Y310991D01*
X206067Y310970D01*
X205991Y310959D01*
X205932Y310933D01*
X205870Y310916D01*
X205804Y310875D01*
X205734Y310843D01*
X205685Y310801D01*
X205630Y310768D01*
X205578Y310710D01*
X205520Y310660D01*
X205484Y310606D01*
X205441Y310558D01*
X205408Y310489D01*
X205365Y310424D01*
X205346Y310362D01*
X205318Y310305D01*
X205307Y310235D01*
X205283Y310154D01*
X205282Y310069D01*
X205271Y310000D01*
X205271Y304474D01*
X204526Y303729D01*
X192474Y303729D01*
X191729Y304474D01*
X191729Y315526D01*
X192474Y316271D01*
X195230Y316271D01*
X195294Y316280D01*
X195358Y316279D01*
X195433Y316300D01*
X195509Y316311D01*
X195568Y316337D01*
X195630Y316354D01*
X195696Y316395D01*
X195766Y316427D01*
X195815Y316469D01*
X195870Y316502D01*
X195922Y316560D01*
X195980Y316610D01*
X196016Y316664D01*
X196059Y316712D01*
X196092Y316781D01*
X196135Y316846D01*
X196154Y316908D01*
X196182Y316965D01*
X196193Y317035D01*
X196217Y317116D01*
X196218Y317201D01*
X196229Y317270D01*
X196229Y318798D01*
X196223Y318840D01*
X196226Y318881D01*
X196206Y318965D01*
X196189Y319078D01*
X196165Y319131D01*
X196153Y319181D01*
X195443Y320895D01*
X195443Y323105D01*
X196289Y325148D01*
X197852Y326711D01*
X199895Y327557D01*
X200000Y327557D01*
X200064Y327566D01*
X200128Y327565D01*
X200203Y327586D01*
X200279Y327597D01*
X200338Y327623D01*
X200400Y327640D01*
X200466Y327681D01*
X200536Y327713D01*
X200585Y327755D01*
X200640Y327788D01*
X200692Y327846D01*
X200750Y327896D01*
X200786Y327950D01*
X200829Y327998D01*
X200862Y328067D01*
X200905Y328132D01*
X200924Y328194D01*
X200952Y328251D01*
X200963Y328321D01*
X200987Y328402D01*
X200988Y328487D01*
X200999Y328556D01*
X200999Y410000D01*
X200990Y410064D01*
X200991Y410128D01*
X200970Y410203D01*
X200959Y410279D01*
X200933Y410338D01*
X200916Y410400D01*
X200875Y410466D01*
X200843Y410536D01*
X200801Y410585D01*
X200768Y410640D01*
X200710Y410692D01*
X200660Y410750D01*
X200606Y410786D01*
X200558Y410829D01*
X200489Y410862D01*
X200424Y410905D01*
X200362Y410924D01*
X200305Y410952D01*
X200235Y410963D01*
X200154Y410987D01*
X200069Y410988D01*
X200000Y410999D01*
X100000Y410999D01*
X99936Y410990D01*
X99872Y410991D01*
X99797Y410970D01*
X99721Y410959D01*
X99662Y410933D01*
X99600Y410916D01*
X99534Y410875D01*
X99464Y410843D01*
X99415Y410801D01*
X99360Y410768D01*
X99308Y410710D01*
X99250Y410660D01*
X99214Y410606D01*
X99171Y410558D01*
X99138Y410489D01*
X99095Y410424D01*
X99076Y410362D01*
X99048Y410305D01*
X99037Y410235D01*
X99013Y410154D01*
X99012Y410069D01*
X99001Y410000D01*
X99001Y326306D01*
X99010Y326242D01*
X99009Y326178D01*
X99030Y326103D01*
X99041Y326027D01*
X99067Y325968D01*
X99084Y325906D01*
X99125Y325840D01*
X99157Y325770D01*
X99199Y325721D01*
X99232Y325666D01*
X99290Y325614D01*
X99340Y325556D01*
X99394Y325520D01*
X99442Y325477D01*
X99511Y325444D01*
X99576Y325401D01*
X99638Y325382D01*
X99695Y325354D01*
X99765Y325343D01*
X99846Y325319D01*
X99931Y325318D01*
X100000Y325307D01*
X101056Y325307D01*
X103006Y324499D01*
X104499Y323006D01*
X105307Y321056D01*
X105307Y318944D01*
X104772Y317652D01*
X104742Y317538D01*
X104707Y317424D01*
X104707Y317401D01*
X104701Y317379D01*
X104705Y317261D01*
X104704Y317142D01*
X104710Y317120D01*
X104711Y317097D01*
X104747Y316985D01*
X104779Y316870D01*
X104791Y316851D01*
X104798Y316829D01*
X104865Y316731D01*
X104927Y316630D01*
X104944Y316615D01*
X104957Y316596D01*
X105048Y316521D01*
X105136Y316441D01*
X105157Y316431D01*
X105175Y316417D01*
X105284Y316370D01*
X105390Y316318D01*
X105411Y316315D01*
X105434Y316305D01*
X105618Y316283D01*
X105695Y316271D01*
X107526Y316271D01*
X108271Y315526D01*
X108271Y304474D01*
X107526Y303729D01*
X95474Y303729D01*
X94729Y304474D01*
X94729Y310000D01*
X94720Y310064D01*
X94721Y310128D01*
X94700Y310203D01*
X94689Y310279D01*
X94663Y310338D01*
X94646Y310400D01*
X94605Y310466D01*
X94573Y310536D01*
X94531Y310585D01*
X94498Y310640D01*
X94440Y310692D01*
X94390Y310750D01*
X94336Y310786D01*
X94288Y310829D01*
X94219Y310862D01*
X94154Y310905D01*
X94092Y310924D01*
X94035Y310952D01*
X93965Y310963D01*
X93884Y310987D01*
X93799Y310988D01*
X93730Y310999D01*
X3000Y310999D01*
X2936Y310990D01*
X2872Y310991D01*
X2797Y310970D01*
X2721Y310959D01*
X2662Y310933D01*
X2600Y310916D01*
X2534Y310875D01*
X2464Y310843D01*
X2415Y310801D01*
X2360Y310768D01*
X2308Y310710D01*
X2250Y310660D01*
X2214Y310606D01*
X2171Y310558D01*
X2138Y310489D01*
X2095Y310424D01*
X2076Y310362D01*
X2048Y310305D01*
X2037Y310235D01*
X2013Y310154D01*
X2012Y310069D01*
X2001Y310000D01*
X2001Y3000D01*
X2010Y2936D01*
X2009Y2872D01*
X2030Y2797D01*
X2041Y2721D01*
X2067Y2662D01*
X2084Y2600D01*
X2125Y2534D01*
X2157Y2464D01*
X2199Y2415D01*
X2232Y2360D01*
X2290Y2308D01*
X2340Y2250D01*
X2394Y2214D01*
X2442Y2171D01*
X2511Y2138D01*
X2576Y2095D01*
X2638Y2076D01*
X2695Y2048D01*
X2765Y2037D01*
X2846Y2013D01*
X2931Y2012D01*
X3000Y2001D01*
X515493Y2001D01*
X515579Y2013D01*
G37*
G36*
X433794Y329010D02*
X433794Y329010D01*
X433858Y329009D01*
X433933Y329030D01*
X434009Y329041D01*
X434068Y329067D01*
X434130Y329084D01*
X434196Y329125D01*
X434266Y329157D01*
X434315Y329199D01*
X434370Y329232D01*
X434422Y329290D01*
X434480Y329340D01*
X434516Y329394D01*
X434559Y329442D01*
X434592Y329511D01*
X434635Y329576D01*
X434654Y329638D01*
X434682Y329695D01*
X434693Y329765D01*
X434717Y329846D01*
X434718Y329931D01*
X434729Y330000D01*
X434729Y332376D01*
X435296Y332943D01*
X435335Y332995D01*
X435382Y333040D01*
X435419Y333107D01*
X435466Y333169D01*
X435489Y333230D01*
X435520Y333286D01*
X435538Y333361D01*
X435565Y333433D01*
X435570Y333497D01*
X435585Y333560D01*
X435581Y333637D01*
X435587Y333714D01*
X435574Y333777D01*
X435570Y333842D01*
X435545Y333915D01*
X435529Y333990D01*
X435499Y334047D01*
X435478Y334108D01*
X435436Y334165D01*
X435397Y334239D01*
X435358Y334280D01*
X435341Y334306D01*
X435318Y334327D01*
X435296Y334357D01*
X435280Y334373D01*
X435230Y334410D01*
X435200Y334441D01*
X435177Y334455D01*
X435132Y334495D01*
X435091Y334515D01*
X435054Y334542D01*
X434964Y334576D01*
X434878Y334618D01*
X434836Y334624D01*
X434790Y334642D01*
X434663Y334651D01*
X434574Y334665D01*
X426439Y334665D01*
X426344Y334652D01*
X426248Y334647D01*
X426205Y334632D01*
X426160Y334625D01*
X426072Y334586D01*
X425982Y334554D01*
X425947Y334529D01*
X425903Y334509D01*
X425806Y334426D01*
X425733Y334373D01*
X424550Y333190D01*
X421598Y331967D01*
X418402Y331967D01*
X415450Y333190D01*
X413190Y335450D01*
X411967Y338402D01*
X411967Y341598D01*
X412645Y343235D01*
X412653Y343266D01*
X412668Y343295D01*
X412688Y343402D01*
X412715Y343508D01*
X412714Y343540D01*
X412720Y343572D01*
X412710Y343681D01*
X412706Y343790D01*
X412696Y343820D01*
X412693Y343853D01*
X412653Y343954D01*
X412619Y344058D01*
X412601Y344085D01*
X412589Y344115D01*
X412522Y344201D01*
X412460Y344291D01*
X412435Y344312D01*
X412415Y344337D01*
X412327Y344401D01*
X412242Y344470D01*
X412213Y344483D01*
X412187Y344502D01*
X412084Y344539D01*
X411983Y344582D01*
X411951Y344586D01*
X411921Y344596D01*
X411812Y344603D01*
X411703Y344616D01*
X411672Y344611D01*
X411639Y344613D01*
X411551Y344592D01*
X411425Y344571D01*
X411381Y344550D01*
X411340Y344540D01*
X411105Y344443D01*
X408895Y344443D01*
X406852Y345289D01*
X405289Y346852D01*
X404443Y348895D01*
X404443Y351105D01*
X405289Y353148D01*
X406852Y354711D01*
X408895Y355557D01*
X411105Y355557D01*
X411365Y355449D01*
X411374Y355447D01*
X411383Y355442D01*
X411511Y355412D01*
X411638Y355379D01*
X411648Y355379D01*
X411657Y355377D01*
X411790Y355384D01*
X411920Y355388D01*
X411929Y355391D01*
X411939Y355391D01*
X412064Y355435D01*
X412188Y355475D01*
X412196Y355481D01*
X412205Y355484D01*
X412268Y355529D01*
X412421Y355634D01*
X412437Y355653D01*
X412454Y355666D01*
X413437Y356648D01*
X413494Y356725D01*
X413559Y356796D01*
X413579Y356837D01*
X413606Y356873D01*
X413640Y356963D01*
X413682Y357050D01*
X413688Y357092D01*
X413705Y357137D01*
X413715Y357265D01*
X413729Y357354D01*
X413729Y367526D01*
X414474Y368271D01*
X425526Y368271D01*
X426271Y367526D01*
X426271Y355474D01*
X425526Y354729D01*
X418354Y354729D01*
X418260Y354716D01*
X418163Y354711D01*
X418120Y354696D01*
X418075Y354689D01*
X417988Y354650D01*
X417897Y354618D01*
X417862Y354593D01*
X417818Y354573D01*
X417721Y354490D01*
X417648Y354437D01*
X415666Y352454D01*
X415660Y352447D01*
X415652Y352441D01*
X415576Y352334D01*
X415496Y352229D01*
X415493Y352220D01*
X415487Y352212D01*
X415443Y352088D01*
X415397Y351965D01*
X415396Y351955D01*
X415393Y351946D01*
X415385Y351814D01*
X415375Y351684D01*
X415377Y351674D01*
X415376Y351665D01*
X415395Y351589D01*
X415433Y351408D01*
X415444Y351386D01*
X415449Y351365D01*
X415557Y351105D01*
X415557Y348895D01*
X415460Y348660D01*
X415452Y348629D01*
X415437Y348600D01*
X415417Y348493D01*
X415390Y348387D01*
X415391Y348355D01*
X415385Y348323D01*
X415395Y348214D01*
X415399Y348105D01*
X415409Y348075D01*
X415412Y348042D01*
X415452Y347941D01*
X415486Y347837D01*
X415504Y347810D01*
X415516Y347780D01*
X415583Y347694D01*
X415645Y347604D01*
X415670Y347583D01*
X415690Y347558D01*
X415778Y347494D01*
X415863Y347425D01*
X415892Y347412D01*
X415918Y347393D01*
X416021Y347357D01*
X416122Y347313D01*
X416154Y347309D01*
X416184Y347299D01*
X416293Y347292D01*
X416402Y347279D01*
X416433Y347284D01*
X416466Y347282D01*
X416554Y347303D01*
X416680Y347324D01*
X416724Y347345D01*
X416765Y347355D01*
X418402Y348033D01*
X421598Y348033D01*
X424550Y346810D01*
X425733Y345627D01*
X425809Y345570D01*
X425881Y345505D01*
X425922Y345485D01*
X425958Y345458D01*
X426048Y345424D01*
X426135Y345382D01*
X426177Y345376D01*
X426222Y345359D01*
X426350Y345349D01*
X426439Y345335D01*
X434574Y345335D01*
X434669Y345348D01*
X434765Y345353D01*
X434808Y345368D01*
X434853Y345375D01*
X434940Y345414D01*
X435031Y345446D01*
X435066Y345471D01*
X435110Y345491D01*
X435158Y345532D01*
X435179Y345543D01*
X435222Y345585D01*
X435280Y345627D01*
X435296Y345643D01*
X435311Y345663D01*
X435324Y345674D01*
X435343Y345702D01*
X435381Y345740D01*
X435419Y345807D01*
X435466Y345869D01*
X435488Y345929D01*
X435520Y345985D01*
X435538Y346060D01*
X435565Y346133D01*
X435570Y346197D01*
X435585Y346260D01*
X435581Y346337D01*
X435587Y346414D01*
X435574Y346477D01*
X435571Y346541D01*
X435545Y346614D01*
X435529Y346690D01*
X435499Y346747D01*
X435478Y346808D01*
X435437Y346864D01*
X435397Y346939D01*
X435338Y347000D01*
X435296Y347057D01*
X434729Y347624D01*
X434729Y357776D01*
X435474Y358521D01*
X458126Y358521D01*
X458159Y358488D01*
X458185Y358468D01*
X458206Y358444D01*
X458298Y358384D01*
X458385Y358318D01*
X458415Y358307D01*
X458442Y358289D01*
X458547Y358257D01*
X458649Y358219D01*
X458681Y358216D01*
X458712Y358207D01*
X458821Y358205D01*
X458930Y358197D01*
X458962Y358204D01*
X458994Y358203D01*
X459099Y358232D01*
X459206Y358255D01*
X459235Y358270D01*
X459266Y358278D01*
X459359Y358336D01*
X459455Y358387D01*
X459478Y358410D01*
X459506Y358427D01*
X459579Y358508D01*
X459657Y358584D01*
X459673Y358612D01*
X459695Y358636D01*
X459742Y358734D01*
X459796Y358829D01*
X459804Y358861D01*
X459818Y358890D01*
X459832Y358979D01*
X459861Y359104D01*
X459859Y359152D01*
X459865Y359194D01*
X459865Y371606D01*
X459861Y371638D01*
X459863Y371670D01*
X459841Y371777D01*
X459825Y371885D01*
X459812Y371914D01*
X459806Y371946D01*
X459754Y372043D01*
X459709Y372142D01*
X459688Y372166D01*
X459673Y372195D01*
X459597Y372273D01*
X459526Y372356D01*
X459499Y372374D01*
X459476Y372397D01*
X459381Y372451D01*
X459290Y372511D01*
X459259Y372520D01*
X459231Y372536D01*
X459125Y372561D01*
X459020Y372593D01*
X458988Y372594D01*
X458956Y372601D01*
X458847Y372595D01*
X458738Y372597D01*
X458707Y372588D01*
X458675Y372587D01*
X458572Y372551D01*
X458466Y372522D01*
X458439Y372505D01*
X458408Y372494D01*
X458335Y372441D01*
X458226Y372373D01*
X458194Y372337D01*
X458159Y372312D01*
X458126Y372279D01*
X435474Y372279D01*
X434729Y373024D01*
X434729Y383176D01*
X435554Y384001D01*
X435566Y384004D01*
X435632Y384045D01*
X435702Y384077D01*
X435751Y384119D01*
X435806Y384152D01*
X435858Y384210D01*
X435916Y384260D01*
X435952Y384314D01*
X435995Y384362D01*
X436028Y384431D01*
X436071Y384496D01*
X436090Y384558D01*
X436118Y384615D01*
X436129Y384685D01*
X436153Y384766D01*
X436154Y384851D01*
X436165Y384920D01*
X436165Y392730D01*
X436156Y392794D01*
X436157Y392858D01*
X436136Y392933D01*
X436125Y393009D01*
X436099Y393068D01*
X436082Y393130D01*
X436041Y393196D01*
X436009Y393266D01*
X435967Y393315D01*
X435934Y393370D01*
X435876Y393422D01*
X435826Y393480D01*
X435772Y393516D01*
X435724Y393559D01*
X435655Y393592D01*
X435590Y393635D01*
X435558Y393645D01*
X435130Y394073D01*
X435054Y394130D01*
X434982Y394195D01*
X434941Y394215D01*
X434905Y394242D01*
X434815Y394276D01*
X434728Y394318D01*
X434686Y394324D01*
X434641Y394341D01*
X434513Y394351D01*
X434424Y394365D01*
X433039Y394365D01*
X432944Y394352D01*
X432848Y394347D01*
X432805Y394332D01*
X432760Y394325D01*
X432672Y394286D01*
X432582Y394254D01*
X432547Y394229D01*
X432503Y394209D01*
X432406Y394126D01*
X432333Y394073D01*
X431150Y392890D01*
X428198Y391667D01*
X425002Y391667D01*
X422050Y392890D01*
X419790Y395150D01*
X418567Y398102D01*
X418567Y401298D01*
X419790Y404250D01*
X422050Y406510D01*
X425002Y407733D01*
X428198Y407733D01*
X431150Y406510D01*
X432333Y405327D01*
X432409Y405270D01*
X432481Y405205D01*
X432522Y405185D01*
X432558Y405158D01*
X432648Y405124D01*
X432735Y405082D01*
X432777Y405076D01*
X432822Y405059D01*
X432950Y405049D01*
X433039Y405035D01*
X433824Y405035D01*
X433919Y405048D01*
X434015Y405053D01*
X434058Y405068D01*
X434103Y405075D01*
X434190Y405114D01*
X434281Y405146D01*
X434316Y405171D01*
X434360Y405191D01*
X434457Y405274D01*
X434530Y405327D01*
X435474Y406271D01*
X447526Y406271D01*
X448271Y405526D01*
X448271Y394474D01*
X447446Y393649D01*
X447434Y393646D01*
X447368Y393605D01*
X447298Y393573D01*
X447249Y393531D01*
X447194Y393498D01*
X447142Y393440D01*
X447084Y393390D01*
X447048Y393336D01*
X447005Y393288D01*
X446972Y393219D01*
X446929Y393154D01*
X446910Y393092D01*
X446882Y393035D01*
X446871Y392965D01*
X446847Y392884D01*
X446846Y392799D01*
X446835Y392730D01*
X446835Y386024D01*
X446848Y385929D01*
X446853Y385833D01*
X446868Y385789D01*
X446875Y385744D01*
X446914Y385657D01*
X446946Y385566D01*
X446971Y385532D01*
X446991Y385487D01*
X447074Y385390D01*
X447127Y385317D01*
X448231Y384213D01*
X448308Y384156D01*
X448379Y384091D01*
X448420Y384071D01*
X448457Y384044D01*
X448547Y384010D01*
X448633Y383968D01*
X448675Y383962D01*
X448720Y383945D01*
X448848Y383935D01*
X448938Y383921D01*
X458126Y383921D01*
X458159Y383888D01*
X458185Y383868D01*
X458206Y383844D01*
X458298Y383784D01*
X458385Y383718D01*
X458415Y383707D01*
X458442Y383689D01*
X458547Y383657D01*
X458649Y383619D01*
X458681Y383616D01*
X458712Y383607D01*
X458821Y383605D01*
X458930Y383597D01*
X458962Y383604D01*
X458994Y383603D01*
X459099Y383632D01*
X459206Y383655D01*
X459235Y383670D01*
X459266Y383678D01*
X459359Y383736D01*
X459455Y383787D01*
X459478Y383810D01*
X459506Y383827D01*
X459579Y383908D01*
X459657Y383984D01*
X459673Y384012D01*
X459695Y384036D01*
X459742Y384134D01*
X459796Y384229D01*
X459804Y384261D01*
X459818Y384290D01*
X459832Y384379D01*
X459861Y384504D01*
X459859Y384552D01*
X459865Y384594D01*
X459865Y390976D01*
X459856Y391038D01*
X459857Y391082D01*
X459850Y391108D01*
X459847Y391167D01*
X459832Y391211D01*
X459825Y391256D01*
X459786Y391343D01*
X459754Y391434D01*
X459729Y391468D01*
X459709Y391513D01*
X459626Y391610D01*
X459573Y391683D01*
X457819Y393437D01*
X457742Y393494D01*
X457671Y393559D01*
X457630Y393579D01*
X457593Y393606D01*
X457504Y393640D01*
X457417Y393682D01*
X457375Y393688D01*
X457330Y393705D01*
X457202Y393715D01*
X457112Y393729D01*
X452474Y393729D01*
X451729Y394474D01*
X451729Y405526D01*
X452474Y406271D01*
X464526Y406271D01*
X465271Y405526D01*
X465271Y401488D01*
X465284Y401392D01*
X465289Y401296D01*
X465304Y401253D01*
X465311Y401208D01*
X465350Y401121D01*
X465382Y401030D01*
X465407Y400996D01*
X465427Y400951D01*
X465510Y400854D01*
X465563Y400781D01*
X468081Y398263D01*
X469723Y396622D01*
X470535Y394661D01*
X470535Y354139D01*
X469723Y352178D01*
X465722Y348177D01*
X463761Y347365D01*
X459026Y347365D01*
X458932Y347352D01*
X458836Y347347D01*
X458793Y347332D01*
X458747Y347325D01*
X458660Y347286D01*
X458570Y347255D01*
X458535Y347229D01*
X458490Y347209D01*
X458443Y347169D01*
X458421Y347157D01*
X458378Y347115D01*
X458320Y347073D01*
X458304Y347057D01*
X458290Y347038D01*
X458276Y347026D01*
X458257Y346998D01*
X458219Y346960D01*
X458181Y346893D01*
X458135Y346832D01*
X458112Y346771D01*
X458080Y346715D01*
X458062Y346640D01*
X458035Y346568D01*
X458030Y346504D01*
X458015Y346441D01*
X458019Y346363D01*
X458013Y346287D01*
X458026Y346224D01*
X458029Y346159D01*
X458055Y346086D01*
X458070Y346011D01*
X458101Y345954D01*
X458122Y345892D01*
X458163Y345836D01*
X458203Y345762D01*
X458242Y345721D01*
X458259Y345694D01*
X458282Y345673D01*
X458304Y345643D01*
X458320Y345627D01*
X458369Y345590D01*
X458399Y345559D01*
X458423Y345546D01*
X458468Y345505D01*
X458509Y345485D01*
X458545Y345458D01*
X458635Y345424D01*
X458722Y345382D01*
X458764Y345376D01*
X458809Y345359D01*
X458937Y345349D01*
X459026Y345335D01*
X475680Y345335D01*
X475744Y345344D01*
X475808Y345343D01*
X475883Y345364D01*
X475959Y345375D01*
X476018Y345401D01*
X476080Y345418D01*
X476146Y345459D01*
X476216Y345491D01*
X476265Y345533D01*
X476320Y345566D01*
X476372Y345624D01*
X476430Y345674D01*
X476466Y345728D01*
X476509Y345776D01*
X476542Y345845D01*
X476585Y345910D01*
X476604Y345972D01*
X476632Y346029D01*
X476643Y346099D01*
X476667Y346180D01*
X476668Y346265D01*
X476679Y346334D01*
X476679Y394526D01*
X477424Y395271D01*
X582576Y395271D01*
X583321Y394526D01*
X583321Y330000D01*
X583330Y329936D01*
X583329Y329872D01*
X583350Y329797D01*
X583361Y329721D01*
X583387Y329662D01*
X583404Y329600D01*
X583445Y329534D01*
X583477Y329464D01*
X583519Y329415D01*
X583552Y329360D01*
X583610Y329308D01*
X583660Y329250D01*
X583714Y329214D01*
X583762Y329171D01*
X583831Y329138D01*
X583896Y329095D01*
X583958Y329076D01*
X584015Y329048D01*
X584085Y329037D01*
X584166Y329013D01*
X584251Y329012D01*
X584320Y329001D01*
X590000Y329001D01*
X590064Y329010D01*
X590128Y329009D01*
X590203Y329030D01*
X590279Y329041D01*
X590338Y329067D01*
X590400Y329084D01*
X590466Y329125D01*
X590536Y329157D01*
X590585Y329199D01*
X590640Y329232D01*
X590692Y329290D01*
X590750Y329340D01*
X590786Y329394D01*
X590829Y329442D01*
X590862Y329511D01*
X590905Y329576D01*
X590924Y329638D01*
X590952Y329695D01*
X590963Y329765D01*
X590987Y329846D01*
X590988Y329931D01*
X590999Y330000D01*
X590999Y400000D01*
X590991Y400059D01*
X590991Y400075D01*
X590990Y400078D01*
X590991Y400128D01*
X590970Y400203D01*
X590959Y400279D01*
X590933Y400338D01*
X590916Y400400D01*
X590875Y400466D01*
X590843Y400536D01*
X590801Y400585D01*
X590768Y400640D01*
X590710Y400692D01*
X590660Y400750D01*
X590606Y400786D01*
X590558Y400829D01*
X590489Y400862D01*
X590424Y400905D01*
X590362Y400924D01*
X590305Y400952D01*
X590235Y400963D01*
X590154Y400987D01*
X590069Y400988D01*
X590000Y400999D01*
X520999Y400999D01*
X520999Y417730D01*
X520990Y417794D01*
X520991Y417858D01*
X520970Y417933D01*
X520959Y418009D01*
X520933Y418068D01*
X520916Y418130D01*
X520875Y418196D01*
X520843Y418266D01*
X520801Y418315D01*
X520768Y418370D01*
X520710Y418422D01*
X520660Y418480D01*
X520606Y418516D01*
X520558Y418559D01*
X520489Y418592D01*
X520424Y418635D01*
X520362Y418654D01*
X520305Y418682D01*
X520235Y418693D01*
X520154Y418717D01*
X520069Y418718D01*
X520000Y418729D01*
X498474Y418729D01*
X497729Y419474D01*
X497729Y432730D01*
X497720Y432794D01*
X497721Y432858D01*
X497700Y432933D01*
X497689Y433009D01*
X497663Y433068D01*
X497646Y433130D01*
X497605Y433196D01*
X497573Y433266D01*
X497531Y433315D01*
X497498Y433370D01*
X497440Y433422D01*
X497390Y433480D01*
X497336Y433516D01*
X497288Y433559D01*
X497219Y433592D01*
X497154Y433635D01*
X497092Y433654D01*
X497035Y433682D01*
X496965Y433693D01*
X496884Y433717D01*
X496799Y433718D01*
X496730Y433729D01*
X493011Y433729D01*
X492916Y433716D01*
X492820Y433711D01*
X492777Y433696D01*
X492732Y433689D01*
X492645Y433650D01*
X492554Y433618D01*
X492519Y433593D01*
X492475Y433573D01*
X492378Y433490D01*
X492305Y433437D01*
X489825Y430957D01*
X489768Y430880D01*
X489703Y430809D01*
X489683Y430768D01*
X489656Y430732D01*
X489622Y430642D01*
X489580Y430555D01*
X489574Y430513D01*
X489557Y430468D01*
X489547Y430340D01*
X489533Y430251D01*
X489533Y428104D01*
X488081Y424600D01*
X485400Y421919D01*
X481896Y420467D01*
X478104Y420467D01*
X474600Y421919D01*
X471919Y424600D01*
X470467Y428104D01*
X470467Y431896D01*
X471919Y435400D01*
X474600Y438081D01*
X478104Y439533D01*
X480251Y439533D01*
X480346Y439546D01*
X480442Y439551D01*
X480485Y439566D01*
X480530Y439573D01*
X480617Y439612D01*
X480708Y439644D01*
X480743Y439669D01*
X480787Y439689D01*
X480884Y439772D01*
X480957Y439825D01*
X486448Y445316D01*
X488753Y446271D01*
X496730Y446271D01*
X496794Y446280D01*
X496858Y446279D01*
X496933Y446300D01*
X497009Y446311D01*
X497068Y446337D01*
X497130Y446354D01*
X497196Y446395D01*
X497266Y446427D01*
X497315Y446469D01*
X497370Y446502D01*
X497422Y446560D01*
X497480Y446610D01*
X497516Y446664D01*
X497559Y446712D01*
X497592Y446781D01*
X497635Y446846D01*
X497654Y446908D01*
X497682Y446965D01*
X497693Y447035D01*
X497717Y447116D01*
X497718Y447201D01*
X497729Y447270D01*
X497729Y460526D01*
X498474Y461271D01*
X520000Y461271D01*
X520064Y461280D01*
X520128Y461279D01*
X520203Y461300D01*
X520279Y461311D01*
X520338Y461337D01*
X520400Y461354D01*
X520466Y461395D01*
X520536Y461427D01*
X520585Y461469D01*
X520640Y461502D01*
X520692Y461560D01*
X520750Y461610D01*
X520786Y461664D01*
X520829Y461712D01*
X520862Y461781D01*
X520905Y461846D01*
X520924Y461908D01*
X520952Y461965D01*
X520963Y462035D01*
X520987Y462116D01*
X520988Y462201D01*
X520999Y462270D01*
X520999Y477730D01*
X520990Y477794D01*
X520991Y477858D01*
X520970Y477933D01*
X520959Y478009D01*
X520933Y478068D01*
X520916Y478130D01*
X520875Y478196D01*
X520843Y478266D01*
X520801Y478315D01*
X520768Y478370D01*
X520710Y478422D01*
X520660Y478480D01*
X520606Y478516D01*
X520558Y478559D01*
X520489Y478592D01*
X520424Y478635D01*
X520362Y478654D01*
X520305Y478682D01*
X520235Y478693D01*
X520154Y478717D01*
X520069Y478718D01*
X520000Y478729D01*
X498474Y478729D01*
X497729Y479474D01*
X497729Y492730D01*
X497720Y492794D01*
X497721Y492858D01*
X497700Y492933D01*
X497689Y493009D01*
X497663Y493068D01*
X497646Y493130D01*
X497605Y493196D01*
X497573Y493266D01*
X497531Y493315D01*
X497498Y493370D01*
X497440Y493422D01*
X497390Y493480D01*
X497336Y493516D01*
X497288Y493559D01*
X497219Y493592D01*
X497154Y493635D01*
X497092Y493654D01*
X497035Y493682D01*
X496965Y493693D01*
X496884Y493717D01*
X496799Y493718D01*
X496730Y493729D01*
X493011Y493729D01*
X492916Y493716D01*
X492820Y493711D01*
X492777Y493696D01*
X492732Y493689D01*
X492645Y493650D01*
X492554Y493618D01*
X492519Y493593D01*
X492475Y493573D01*
X492378Y493490D01*
X492305Y493437D01*
X489825Y490957D01*
X489768Y490880D01*
X489703Y490809D01*
X489683Y490768D01*
X489656Y490732D01*
X489622Y490642D01*
X489580Y490555D01*
X489574Y490513D01*
X489557Y490468D01*
X489547Y490340D01*
X489533Y490251D01*
X489533Y488104D01*
X488081Y484600D01*
X485400Y481919D01*
X481896Y480467D01*
X478104Y480467D01*
X474600Y481919D01*
X471919Y484600D01*
X470467Y488104D01*
X470467Y491896D01*
X471919Y495400D01*
X474600Y498081D01*
X478104Y499533D01*
X480251Y499533D01*
X480346Y499546D01*
X480442Y499551D01*
X480485Y499566D01*
X480530Y499573D01*
X480617Y499612D01*
X480708Y499644D01*
X480743Y499669D01*
X480787Y499689D01*
X480884Y499772D01*
X480957Y499825D01*
X486448Y505316D01*
X488753Y506271D01*
X496730Y506271D01*
X496794Y506280D01*
X496858Y506279D01*
X496933Y506300D01*
X497009Y506311D01*
X497068Y506337D01*
X497130Y506354D01*
X497196Y506395D01*
X497266Y506427D01*
X497315Y506469D01*
X497370Y506502D01*
X497422Y506560D01*
X497480Y506610D01*
X497516Y506664D01*
X497559Y506712D01*
X497592Y506781D01*
X497635Y506846D01*
X497654Y506908D01*
X497682Y506965D01*
X497693Y507035D01*
X497717Y507116D01*
X497718Y507201D01*
X497729Y507270D01*
X497729Y520526D01*
X498474Y521271D01*
X520000Y521271D01*
X520064Y521280D01*
X520128Y521279D01*
X520203Y521300D01*
X520279Y521311D01*
X520338Y521337D01*
X520400Y521354D01*
X520466Y521395D01*
X520536Y521427D01*
X520585Y521469D01*
X520640Y521502D01*
X520692Y521560D01*
X520750Y521610D01*
X520786Y521664D01*
X520829Y521712D01*
X520862Y521781D01*
X520905Y521846D01*
X520924Y521908D01*
X520952Y521965D01*
X520963Y522035D01*
X520987Y522116D01*
X520988Y522201D01*
X520999Y522270D01*
X520999Y537730D01*
X520990Y537794D01*
X520991Y537858D01*
X520970Y537933D01*
X520959Y538009D01*
X520933Y538068D01*
X520916Y538130D01*
X520875Y538196D01*
X520843Y538266D01*
X520801Y538315D01*
X520768Y538370D01*
X520710Y538422D01*
X520660Y538480D01*
X520606Y538516D01*
X520558Y538559D01*
X520489Y538592D01*
X520424Y538635D01*
X520362Y538654D01*
X520305Y538682D01*
X520235Y538693D01*
X520154Y538717D01*
X520069Y538718D01*
X520000Y538729D01*
X498474Y538729D01*
X497729Y539474D01*
X497729Y552730D01*
X497720Y552794D01*
X497721Y552858D01*
X497700Y552933D01*
X497689Y553009D01*
X497663Y553068D01*
X497646Y553130D01*
X497605Y553196D01*
X497573Y553266D01*
X497531Y553315D01*
X497498Y553370D01*
X497440Y553422D01*
X497390Y553480D01*
X497336Y553516D01*
X497288Y553559D01*
X497219Y553592D01*
X497154Y553635D01*
X497092Y553654D01*
X497035Y553682D01*
X496965Y553693D01*
X496884Y553717D01*
X496799Y553718D01*
X496730Y553729D01*
X493011Y553729D01*
X492916Y553716D01*
X492820Y553711D01*
X492777Y553696D01*
X492732Y553689D01*
X492645Y553650D01*
X492554Y553618D01*
X492519Y553593D01*
X492475Y553573D01*
X492378Y553490D01*
X492305Y553437D01*
X489825Y550957D01*
X489768Y550880D01*
X489703Y550809D01*
X489683Y550768D01*
X489656Y550732D01*
X489622Y550642D01*
X489580Y550555D01*
X489574Y550513D01*
X489557Y550468D01*
X489547Y550340D01*
X489533Y550251D01*
X489533Y548104D01*
X488081Y544600D01*
X485400Y541919D01*
X481896Y540467D01*
X478104Y540467D01*
X474600Y541919D01*
X471919Y544600D01*
X470467Y548104D01*
X470467Y551896D01*
X471919Y555400D01*
X474600Y558081D01*
X478104Y559533D01*
X480251Y559533D01*
X480346Y559546D01*
X480442Y559551D01*
X480485Y559566D01*
X480530Y559573D01*
X480617Y559612D01*
X480708Y559644D01*
X480743Y559669D01*
X480787Y559689D01*
X480884Y559772D01*
X480957Y559825D01*
X486448Y565316D01*
X488753Y566271D01*
X496730Y566271D01*
X496794Y566280D01*
X496858Y566279D01*
X496933Y566300D01*
X497009Y566311D01*
X497068Y566337D01*
X497130Y566354D01*
X497196Y566395D01*
X497266Y566427D01*
X497315Y566469D01*
X497370Y566502D01*
X497422Y566560D01*
X497480Y566610D01*
X497516Y566664D01*
X497559Y566712D01*
X497592Y566781D01*
X497635Y566846D01*
X497654Y566908D01*
X497682Y566965D01*
X497693Y567035D01*
X497717Y567116D01*
X497718Y567201D01*
X497729Y567270D01*
X497729Y580526D01*
X498474Y581271D01*
X520000Y581271D01*
X520064Y581280D01*
X520128Y581279D01*
X520203Y581300D01*
X520279Y581311D01*
X520338Y581337D01*
X520400Y581354D01*
X520466Y581395D01*
X520536Y581427D01*
X520585Y581469D01*
X520640Y581502D01*
X520692Y581560D01*
X520750Y581610D01*
X520786Y581664D01*
X520829Y581712D01*
X520862Y581781D01*
X520905Y581846D01*
X520924Y581908D01*
X520952Y581965D01*
X520963Y582035D01*
X520987Y582116D01*
X520988Y582201D01*
X520999Y582270D01*
X520999Y639001D01*
X670000Y639001D01*
X670064Y639010D01*
X670128Y639009D01*
X670203Y639030D01*
X670279Y639041D01*
X670338Y639067D01*
X670400Y639084D01*
X670466Y639125D01*
X670536Y639157D01*
X670585Y639199D01*
X670640Y639232D01*
X670692Y639290D01*
X670750Y639340D01*
X670786Y639394D01*
X670829Y639442D01*
X670862Y639511D01*
X670905Y639576D01*
X670924Y639638D01*
X670952Y639695D01*
X670963Y639765D01*
X670987Y639846D01*
X670988Y639931D01*
X670999Y640000D01*
X670999Y817000D01*
X670990Y817064D01*
X670991Y817128D01*
X670970Y817203D01*
X670959Y817279D01*
X670933Y817338D01*
X670916Y817400D01*
X670875Y817466D01*
X670843Y817536D01*
X670801Y817585D01*
X670768Y817640D01*
X670710Y817692D01*
X670660Y817750D01*
X670606Y817786D01*
X670558Y817829D01*
X670489Y817862D01*
X670424Y817905D01*
X670362Y817924D01*
X670305Y817952D01*
X670235Y817963D01*
X670154Y817987D01*
X670069Y817988D01*
X670000Y817999D01*
X130000Y817999D01*
X129936Y817990D01*
X129872Y817991D01*
X129797Y817970D01*
X129721Y817959D01*
X129662Y817933D01*
X129600Y817916D01*
X129534Y817875D01*
X129464Y817843D01*
X129415Y817801D01*
X129360Y817768D01*
X129308Y817710D01*
X129250Y817660D01*
X129214Y817606D01*
X129171Y817558D01*
X129138Y817489D01*
X129095Y817424D01*
X129076Y817362D01*
X129048Y817305D01*
X129037Y817235D01*
X129013Y817154D01*
X129012Y817069D01*
X129001Y817000D01*
X129001Y640000D01*
X129010Y639936D01*
X129009Y639872D01*
X129030Y639797D01*
X129041Y639721D01*
X129067Y639662D01*
X129084Y639600D01*
X129125Y639534D01*
X129157Y639464D01*
X129199Y639415D01*
X129232Y639360D01*
X129290Y639308D01*
X129340Y639250D01*
X129394Y639214D01*
X129442Y639171D01*
X129511Y639138D01*
X129576Y639095D01*
X129638Y639076D01*
X129695Y639048D01*
X129765Y639037D01*
X129846Y639013D01*
X129931Y639012D01*
X130000Y639001D01*
X279001Y639001D01*
X279001Y410999D01*
X210000Y410999D01*
X209936Y410990D01*
X209872Y410991D01*
X209797Y410970D01*
X209721Y410959D01*
X209662Y410933D01*
X209600Y410916D01*
X209534Y410875D01*
X209464Y410843D01*
X209415Y410801D01*
X209360Y410768D01*
X209308Y410710D01*
X209250Y410660D01*
X209214Y410606D01*
X209171Y410558D01*
X209138Y410489D01*
X209095Y410424D01*
X209076Y410362D01*
X209048Y410305D01*
X209037Y410235D01*
X209013Y410154D01*
X209012Y410069D01*
X209001Y410000D01*
X209001Y330000D01*
X209010Y329936D01*
X209009Y329872D01*
X209030Y329797D01*
X209041Y329721D01*
X209067Y329662D01*
X209084Y329600D01*
X209125Y329534D01*
X209157Y329464D01*
X209199Y329415D01*
X209232Y329360D01*
X209290Y329308D01*
X209340Y329250D01*
X209394Y329214D01*
X209442Y329171D01*
X209511Y329138D01*
X209576Y329095D01*
X209638Y329076D01*
X209695Y329048D01*
X209765Y329037D01*
X209846Y329013D01*
X209931Y329012D01*
X210000Y329001D01*
X433730Y329001D01*
X433794Y329010D01*
G37*
G36*
X640064Y409010D02*
X640064Y409010D01*
X640128Y409009D01*
X640203Y409030D01*
X640279Y409041D01*
X640338Y409067D01*
X640400Y409084D01*
X640466Y409125D01*
X640536Y409157D01*
X640585Y409199D01*
X640640Y409232D01*
X640692Y409290D01*
X640750Y409340D01*
X640786Y409394D01*
X640829Y409442D01*
X640862Y409511D01*
X640905Y409576D01*
X640924Y409638D01*
X640952Y409695D01*
X640963Y409765D01*
X640987Y409846D01*
X640988Y409931D01*
X640999Y410000D01*
X640999Y569001D01*
X797000Y569001D01*
X797064Y569010D01*
X797128Y569009D01*
X797203Y569030D01*
X797279Y569041D01*
X797338Y569067D01*
X797400Y569084D01*
X797466Y569125D01*
X797536Y569157D01*
X797585Y569199D01*
X797640Y569232D01*
X797692Y569290D01*
X797750Y569340D01*
X797786Y569394D01*
X797829Y569442D01*
X797862Y569511D01*
X797905Y569576D01*
X797924Y569638D01*
X797952Y569695D01*
X797963Y569765D01*
X797987Y569846D01*
X797988Y569931D01*
X797999Y570000D01*
X797999Y817000D01*
X797990Y817064D01*
X797991Y817128D01*
X797970Y817203D01*
X797959Y817279D01*
X797933Y817338D01*
X797916Y817400D01*
X797875Y817466D01*
X797843Y817536D01*
X797801Y817585D01*
X797768Y817640D01*
X797710Y817692D01*
X797660Y817750D01*
X797606Y817786D01*
X797558Y817829D01*
X797489Y817862D01*
X797424Y817905D01*
X797362Y817924D01*
X797305Y817952D01*
X797235Y817963D01*
X797154Y817987D01*
X797069Y817988D01*
X797000Y817999D01*
X680000Y817999D01*
X679936Y817990D01*
X679872Y817991D01*
X679797Y817970D01*
X679721Y817959D01*
X679662Y817933D01*
X679600Y817916D01*
X679534Y817875D01*
X679464Y817843D01*
X679415Y817801D01*
X679360Y817768D01*
X679308Y817710D01*
X679250Y817660D01*
X679214Y817606D01*
X679171Y817558D01*
X679138Y817489D01*
X679095Y817424D01*
X679076Y817362D01*
X679048Y817305D01*
X679037Y817235D01*
X679013Y817154D01*
X679012Y817069D01*
X679001Y817000D01*
X679001Y630999D01*
X530000Y630999D01*
X529936Y630990D01*
X529872Y630991D01*
X529797Y630970D01*
X529721Y630959D01*
X529662Y630933D01*
X529600Y630916D01*
X529534Y630875D01*
X529464Y630843D01*
X529415Y630801D01*
X529360Y630768D01*
X529308Y630710D01*
X529250Y630660D01*
X529214Y630606D01*
X529171Y630558D01*
X529138Y630489D01*
X529095Y630424D01*
X529076Y630362D01*
X529048Y630305D01*
X529037Y630235D01*
X529013Y630154D01*
X529012Y630069D01*
X529001Y630000D01*
X529001Y410000D01*
X529010Y409936D01*
X529009Y409872D01*
X529030Y409797D01*
X529041Y409721D01*
X529067Y409662D01*
X529084Y409600D01*
X529125Y409534D01*
X529157Y409464D01*
X529199Y409415D01*
X529232Y409360D01*
X529290Y409308D01*
X529340Y409250D01*
X529394Y409214D01*
X529442Y409171D01*
X529511Y409138D01*
X529576Y409095D01*
X529638Y409076D01*
X529695Y409048D01*
X529765Y409037D01*
X529846Y409013D01*
X529931Y409012D01*
X530000Y409001D01*
X640000Y409001D01*
X640064Y409010D01*
G37*
G36*
X270064Y419010D02*
X270064Y419010D01*
X270128Y419009D01*
X270203Y419030D01*
X270279Y419041D01*
X270338Y419067D01*
X270400Y419084D01*
X270466Y419125D01*
X270536Y419157D01*
X270585Y419199D01*
X270640Y419232D01*
X270692Y419290D01*
X270750Y419340D01*
X270786Y419394D01*
X270829Y419442D01*
X270862Y419511D01*
X270905Y419576D01*
X270924Y419638D01*
X270952Y419695D01*
X270963Y419765D01*
X270987Y419846D01*
X270988Y419931D01*
X270999Y420000D01*
X270999Y630000D01*
X270990Y630064D01*
X270991Y630128D01*
X270970Y630203D01*
X270959Y630279D01*
X270933Y630338D01*
X270916Y630400D01*
X270875Y630466D01*
X270843Y630536D01*
X270801Y630585D01*
X270768Y630640D01*
X270710Y630692D01*
X270660Y630750D01*
X270606Y630786D01*
X270558Y630829D01*
X270489Y630862D01*
X270424Y630905D01*
X270362Y630924D01*
X270305Y630952D01*
X270235Y630963D01*
X270154Y630987D01*
X270069Y630988D01*
X270000Y630999D01*
X120999Y630999D01*
X120999Y817000D01*
X120990Y817064D01*
X120991Y817128D01*
X120970Y817203D01*
X120959Y817279D01*
X120933Y817338D01*
X120916Y817400D01*
X120875Y817466D01*
X120843Y817536D01*
X120801Y817585D01*
X120768Y817640D01*
X120710Y817692D01*
X120660Y817750D01*
X120606Y817786D01*
X120558Y817829D01*
X120489Y817862D01*
X120424Y817905D01*
X120362Y817924D01*
X120305Y817952D01*
X120235Y817963D01*
X120154Y817987D01*
X120069Y817988D01*
X120000Y817999D01*
X3000Y817999D01*
X2936Y817990D01*
X2872Y817991D01*
X2797Y817970D01*
X2721Y817959D01*
X2662Y817933D01*
X2600Y817916D01*
X2534Y817875D01*
X2464Y817843D01*
X2415Y817801D01*
X2360Y817768D01*
X2308Y817710D01*
X2250Y817660D01*
X2214Y817606D01*
X2171Y817558D01*
X2138Y817489D01*
X2095Y817424D01*
X2076Y817362D01*
X2048Y817305D01*
X2037Y817235D01*
X2013Y817154D01*
X2012Y817069D01*
X2001Y817000D01*
X2001Y570000D01*
X2010Y569936D01*
X2009Y569872D01*
X2030Y569797D01*
X2041Y569721D01*
X2067Y569662D01*
X2084Y569600D01*
X2125Y569534D01*
X2157Y569464D01*
X2199Y569415D01*
X2232Y569360D01*
X2290Y569308D01*
X2340Y569250D01*
X2394Y569214D01*
X2442Y569171D01*
X2511Y569138D01*
X2576Y569095D01*
X2638Y569076D01*
X2695Y569048D01*
X2765Y569037D01*
X2846Y569013D01*
X2931Y569012D01*
X3000Y569001D01*
X159001Y569001D01*
X159001Y420000D01*
X159010Y419936D01*
X159009Y419872D01*
X159030Y419797D01*
X159041Y419721D01*
X159067Y419662D01*
X159084Y419600D01*
X159125Y419534D01*
X159157Y419464D01*
X159199Y419415D01*
X159232Y419360D01*
X159290Y419308D01*
X159340Y419250D01*
X159394Y419214D01*
X159442Y419171D01*
X159511Y419138D01*
X159576Y419095D01*
X159638Y419076D01*
X159695Y419048D01*
X159765Y419037D01*
X159846Y419013D01*
X159931Y419012D01*
X160000Y419001D01*
X270000Y419001D01*
X270064Y419010D01*
G37*
G36*
X797064Y319010D02*
X797064Y319010D01*
X797128Y319009D01*
X797203Y319030D01*
X797279Y319041D01*
X797338Y319067D01*
X797400Y319084D01*
X797466Y319125D01*
X797536Y319157D01*
X797585Y319199D01*
X797640Y319232D01*
X797692Y319290D01*
X797750Y319340D01*
X797786Y319394D01*
X797829Y319442D01*
X797862Y319511D01*
X797905Y319576D01*
X797924Y319638D01*
X797952Y319695D01*
X797963Y319765D01*
X797987Y319846D01*
X797988Y319931D01*
X797999Y320000D01*
X797999Y560000D01*
X797990Y560064D01*
X797991Y560128D01*
X797970Y560203D01*
X797959Y560279D01*
X797933Y560338D01*
X797916Y560400D01*
X797875Y560466D01*
X797843Y560536D01*
X797801Y560585D01*
X797768Y560640D01*
X797710Y560692D01*
X797660Y560750D01*
X797606Y560786D01*
X797558Y560829D01*
X797489Y560862D01*
X797424Y560905D01*
X797362Y560924D01*
X797305Y560952D01*
X797235Y560963D01*
X797154Y560987D01*
X797069Y560988D01*
X797000Y560999D01*
X650000Y560999D01*
X649936Y560990D01*
X649872Y560991D01*
X649797Y560970D01*
X649721Y560959D01*
X649662Y560933D01*
X649600Y560916D01*
X649534Y560875D01*
X649464Y560843D01*
X649415Y560801D01*
X649360Y560768D01*
X649308Y560710D01*
X649250Y560660D01*
X649214Y560606D01*
X649171Y560558D01*
X649138Y560489D01*
X649095Y560424D01*
X649076Y560362D01*
X649048Y560305D01*
X649037Y560235D01*
X649013Y560154D01*
X649012Y560069D01*
X649001Y560000D01*
X649001Y410000D01*
X649010Y409936D01*
X649009Y409872D01*
X649030Y409797D01*
X649041Y409721D01*
X649067Y409662D01*
X649084Y409600D01*
X649125Y409534D01*
X649157Y409464D01*
X649199Y409415D01*
X649232Y409360D01*
X649290Y409308D01*
X649340Y409250D01*
X649394Y409214D01*
X649442Y409171D01*
X649511Y409138D01*
X649576Y409095D01*
X649638Y409076D01*
X649695Y409048D01*
X649765Y409037D01*
X649846Y409013D01*
X649931Y409012D01*
X650000Y409001D01*
X709001Y409001D01*
X709001Y320000D01*
X709010Y319936D01*
X709009Y319872D01*
X709030Y319797D01*
X709041Y319721D01*
X709067Y319662D01*
X709084Y319600D01*
X709125Y319534D01*
X709157Y319464D01*
X709199Y319415D01*
X709232Y319360D01*
X709290Y319308D01*
X709340Y319250D01*
X709394Y319214D01*
X709442Y319171D01*
X709511Y319138D01*
X709576Y319095D01*
X709638Y319076D01*
X709695Y319048D01*
X709765Y319037D01*
X709846Y319013D01*
X709931Y319012D01*
X710000Y319001D01*
X797000Y319001D01*
X797064Y319010D01*
G37*
G36*
X90064Y319010D02*
X90064Y319010D01*
X90128Y319009D01*
X90203Y319030D01*
X90279Y319041D01*
X90338Y319067D01*
X90400Y319084D01*
X90466Y319125D01*
X90536Y319157D01*
X90585Y319199D01*
X90640Y319232D01*
X90692Y319290D01*
X90750Y319340D01*
X90786Y319394D01*
X90829Y319442D01*
X90862Y319511D01*
X90905Y319576D01*
X90924Y319638D01*
X90952Y319695D01*
X90963Y319765D01*
X90987Y319846D01*
X90988Y319931D01*
X90999Y320000D01*
X90999Y419001D01*
X150000Y419001D01*
X150064Y419010D01*
X150128Y419009D01*
X150203Y419030D01*
X150279Y419041D01*
X150338Y419067D01*
X150400Y419084D01*
X150466Y419125D01*
X150536Y419157D01*
X150585Y419199D01*
X150640Y419232D01*
X150692Y419290D01*
X150750Y419340D01*
X150786Y419394D01*
X150829Y419442D01*
X150862Y419511D01*
X150905Y419576D01*
X150924Y419638D01*
X150952Y419695D01*
X150963Y419765D01*
X150987Y419846D01*
X150988Y419931D01*
X150999Y420000D01*
X150999Y560000D01*
X150990Y560064D01*
X150991Y560128D01*
X150970Y560203D01*
X150959Y560279D01*
X150933Y560338D01*
X150916Y560400D01*
X150875Y560466D01*
X150843Y560536D01*
X150801Y560585D01*
X150768Y560640D01*
X150710Y560692D01*
X150660Y560750D01*
X150606Y560786D01*
X150558Y560829D01*
X150489Y560862D01*
X150424Y560905D01*
X150362Y560924D01*
X150305Y560952D01*
X150235Y560963D01*
X150154Y560987D01*
X150069Y560988D01*
X150000Y560999D01*
X3000Y560999D01*
X2936Y560990D01*
X2872Y560991D01*
X2797Y560970D01*
X2721Y560959D01*
X2662Y560933D01*
X2600Y560916D01*
X2534Y560875D01*
X2464Y560843D01*
X2415Y560801D01*
X2360Y560768D01*
X2308Y560710D01*
X2250Y560660D01*
X2214Y560606D01*
X2171Y560558D01*
X2138Y560489D01*
X2095Y560424D01*
X2076Y560362D01*
X2048Y560305D01*
X2037Y560235D01*
X2013Y560154D01*
X2012Y560069D01*
X2001Y560000D01*
X2001Y320000D01*
X2010Y319936D01*
X2009Y319872D01*
X2030Y319797D01*
X2041Y319721D01*
X2067Y319662D01*
X2084Y319600D01*
X2125Y319534D01*
X2157Y319464D01*
X2199Y319415D01*
X2232Y319360D01*
X2290Y319308D01*
X2340Y319250D01*
X2394Y319214D01*
X2442Y319171D01*
X2511Y319138D01*
X2576Y319095D01*
X2638Y319076D01*
X2695Y319048D01*
X2765Y319037D01*
X2846Y319013D01*
X2931Y319012D01*
X3000Y319001D01*
X90000Y319001D01*
X90064Y319010D01*
G37*
%LPC*%
G36*
X403579Y24509D02*
X403579Y24509D01*
X401957Y26132D01*
X400002Y28087D01*
X399925Y28144D01*
X399854Y28209D01*
X399813Y28229D01*
X399777Y28256D01*
X399687Y28290D01*
X399600Y28332D01*
X399558Y28338D01*
X399513Y28355D01*
X399385Y28365D01*
X399296Y28379D01*
X398226Y28379D01*
X394947Y29737D01*
X392437Y32247D01*
X391079Y35526D01*
X391079Y39074D01*
X392437Y42353D01*
X394947Y44863D01*
X398226Y46221D01*
X401774Y46221D01*
X405053Y44863D01*
X407563Y42353D01*
X408921Y39074D01*
X408921Y35526D01*
X407563Y32247D01*
X406072Y30757D01*
X406053Y30731D01*
X406029Y30710D01*
X405968Y30618D01*
X405903Y30531D01*
X405892Y30501D01*
X405874Y30474D01*
X405842Y30369D01*
X405804Y30267D01*
X405801Y30235D01*
X405792Y30204D01*
X405790Y30095D01*
X405782Y29986D01*
X405788Y29954D01*
X405788Y29922D01*
X405817Y29817D01*
X405839Y29710D01*
X405855Y29681D01*
X405863Y29650D01*
X405920Y29557D01*
X405972Y29461D01*
X405994Y29438D01*
X406011Y29410D01*
X406092Y29337D01*
X406169Y29259D01*
X406197Y29243D01*
X406221Y29221D01*
X406319Y29174D01*
X406414Y29120D01*
X406445Y29112D01*
X406474Y29098D01*
X406564Y29084D01*
X406688Y29055D01*
X406737Y29057D01*
X406779Y29051D01*
X418621Y29051D01*
X418653Y29055D01*
X418685Y29053D01*
X418792Y29075D01*
X418900Y29091D01*
X418930Y29104D01*
X418961Y29110D01*
X419057Y29162D01*
X419157Y29207D01*
X419182Y29228D01*
X419210Y29243D01*
X419288Y29319D01*
X419371Y29390D01*
X419389Y29417D01*
X419412Y29440D01*
X419466Y29535D01*
X419526Y29626D01*
X419535Y29657D01*
X419551Y29685D01*
X419576Y29791D01*
X419608Y29896D01*
X419609Y29928D01*
X419616Y29959D01*
X419611Y30069D01*
X419612Y30178D01*
X419603Y30209D01*
X419602Y30241D01*
X419566Y30344D01*
X419537Y30450D01*
X419520Y30477D01*
X419509Y30508D01*
X419456Y30581D01*
X419389Y30690D01*
X419353Y30722D01*
X419328Y30757D01*
X417837Y32247D01*
X416479Y35526D01*
X416479Y39074D01*
X417837Y42353D01*
X420347Y44863D01*
X423626Y46221D01*
X427174Y46221D01*
X430453Y44863D01*
X431343Y43972D01*
X431369Y43953D01*
X431390Y43929D01*
X431482Y43869D01*
X431569Y43803D01*
X431599Y43792D01*
X431626Y43774D01*
X431731Y43742D01*
X431833Y43704D01*
X431865Y43701D01*
X431896Y43692D01*
X432005Y43690D01*
X432114Y43682D01*
X432146Y43688D01*
X432178Y43688D01*
X432283Y43717D01*
X432390Y43739D01*
X432419Y43755D01*
X432450Y43763D01*
X432543Y43820D01*
X432639Y43872D01*
X432662Y43894D01*
X432690Y43911D01*
X432763Y43992D01*
X432841Y44069D01*
X432857Y44097D01*
X432879Y44121D01*
X432926Y44219D01*
X432980Y44314D01*
X432988Y44345D01*
X433002Y44374D01*
X433016Y44464D01*
X433045Y44588D01*
X433043Y44637D01*
X433049Y44679D01*
X433049Y55321D01*
X433045Y55353D01*
X433047Y55385D01*
X433025Y55492D01*
X433009Y55600D01*
X432996Y55630D01*
X432990Y55661D01*
X432938Y55758D01*
X432893Y55857D01*
X432872Y55882D01*
X432857Y55910D01*
X432781Y55989D01*
X432710Y56071D01*
X432683Y56089D01*
X432660Y56112D01*
X432565Y56166D01*
X432474Y56226D01*
X432443Y56235D01*
X432415Y56251D01*
X432309Y56276D01*
X432204Y56308D01*
X432172Y56309D01*
X432141Y56316D01*
X432031Y56311D01*
X431922Y56312D01*
X431891Y56303D01*
X431859Y56302D01*
X431756Y56266D01*
X431650Y56237D01*
X431623Y56220D01*
X431592Y56209D01*
X431519Y56156D01*
X431410Y56089D01*
X431378Y56053D01*
X431343Y56028D01*
X430453Y55137D01*
X427174Y53779D01*
X423626Y53779D01*
X420347Y55137D01*
X417837Y57647D01*
X416479Y60926D01*
X416479Y64474D01*
X417837Y67753D01*
X420347Y70263D01*
X422512Y71160D01*
X422521Y71164D01*
X422530Y71167D01*
X422642Y71236D01*
X422755Y71303D01*
X422762Y71310D01*
X422770Y71315D01*
X422858Y71413D01*
X422948Y71509D01*
X422952Y71517D01*
X422959Y71524D01*
X423016Y71643D01*
X423076Y71760D01*
X423078Y71770D01*
X423082Y71778D01*
X423094Y71854D01*
X423128Y72038D01*
X423126Y72061D01*
X423129Y72083D01*
X423129Y96346D01*
X423116Y96440D01*
X423111Y96537D01*
X423096Y96580D01*
X423089Y96625D01*
X423050Y96712D01*
X423018Y96803D01*
X422993Y96838D01*
X422973Y96882D01*
X422890Y96979D01*
X422837Y97052D01*
X418452Y101437D01*
X418375Y101494D01*
X418304Y101559D01*
X418263Y101579D01*
X418227Y101606D01*
X418136Y101640D01*
X418050Y101682D01*
X418008Y101688D01*
X417963Y101705D01*
X417835Y101715D01*
X417746Y101729D01*
X410770Y101729D01*
X410706Y101720D01*
X410642Y101721D01*
X410567Y101700D01*
X410491Y101689D01*
X410432Y101663D01*
X410370Y101646D01*
X410304Y101605D01*
X410234Y101573D01*
X410185Y101531D01*
X410130Y101498D01*
X410078Y101440D01*
X410020Y101390D01*
X409984Y101336D01*
X409941Y101288D01*
X409908Y101219D01*
X409865Y101154D01*
X409846Y101092D01*
X409818Y101035D01*
X409807Y100965D01*
X409783Y100884D01*
X409782Y100799D01*
X409771Y100730D01*
X409771Y97974D01*
X409026Y97229D01*
X397974Y97229D01*
X397229Y97974D01*
X397229Y106646D01*
X397216Y106740D01*
X397211Y106837D01*
X397196Y106880D01*
X397189Y106925D01*
X397150Y107012D01*
X397118Y107103D01*
X397093Y107138D01*
X397073Y107182D01*
X396990Y107279D01*
X396937Y107352D01*
X396177Y108111D01*
X396177Y108112D01*
X394477Y109812D01*
X394451Y109831D01*
X394430Y109856D01*
X394338Y109916D01*
X394251Y109981D01*
X394221Y109993D01*
X394194Y110010D01*
X394089Y110042D01*
X393987Y110081D01*
X393955Y110083D01*
X393924Y110093D01*
X393815Y110094D01*
X393706Y110103D01*
X393674Y110096D01*
X393642Y110097D01*
X393537Y110067D01*
X393430Y110045D01*
X393401Y110030D01*
X393370Y110021D01*
X393277Y109964D01*
X393181Y109913D01*
X393158Y109890D01*
X393130Y109873D01*
X393057Y109792D01*
X392979Y109716D01*
X392963Y109688D01*
X392941Y109664D01*
X392894Y109566D01*
X392840Y109471D01*
X392832Y109439D01*
X392818Y109410D01*
X392804Y109321D01*
X392775Y109196D01*
X392777Y109148D01*
X392771Y109106D01*
X392771Y97974D01*
X392026Y97229D01*
X380974Y97229D01*
X380229Y97974D01*
X380229Y100730D01*
X380220Y100794D01*
X380221Y100858D01*
X380200Y100933D01*
X380189Y101009D01*
X380163Y101068D01*
X380146Y101130D01*
X380105Y101196D01*
X380073Y101266D01*
X380031Y101315D01*
X379998Y101370D01*
X379940Y101422D01*
X379890Y101480D01*
X379836Y101516D01*
X379788Y101559D01*
X379719Y101592D01*
X379654Y101635D01*
X379592Y101654D01*
X379535Y101682D01*
X379465Y101693D01*
X379384Y101717D01*
X379299Y101718D01*
X379230Y101729D01*
X245354Y101729D01*
X245260Y101716D01*
X245163Y101711D01*
X245120Y101696D01*
X245075Y101689D01*
X244988Y101650D01*
X244897Y101618D01*
X244862Y101593D01*
X244818Y101573D01*
X244721Y101490D01*
X244648Y101437D01*
X242563Y99352D01*
X240941Y97729D01*
X218024Y97729D01*
X217960Y97720D01*
X217896Y97721D01*
X217821Y97700D01*
X217745Y97689D01*
X217686Y97663D01*
X217624Y97646D01*
X217558Y97605D01*
X217488Y97573D01*
X217439Y97531D01*
X217384Y97498D01*
X217332Y97440D01*
X217274Y97390D01*
X217238Y97336D01*
X217195Y97288D01*
X217162Y97219D01*
X217119Y97154D01*
X217100Y97092D01*
X217072Y97035D01*
X217061Y96965D01*
X217037Y96884D01*
X217036Y96799D01*
X217025Y96730D01*
X217025Y90418D01*
X216280Y89673D01*
X183720Y89673D01*
X182975Y90418D01*
X182975Y109082D01*
X183720Y109827D01*
X196855Y109827D01*
X196919Y109836D01*
X196983Y109835D01*
X197058Y109856D01*
X197134Y109867D01*
X197193Y109893D01*
X197255Y109910D01*
X197321Y109951D01*
X197391Y109983D01*
X197440Y110025D01*
X197495Y110058D01*
X197547Y110116D01*
X197605Y110166D01*
X197641Y110220D01*
X197684Y110268D01*
X197717Y110337D01*
X197760Y110402D01*
X197779Y110464D01*
X197807Y110521D01*
X197818Y110591D01*
X197842Y110672D01*
X197843Y110757D01*
X197854Y110826D01*
X197854Y149174D01*
X197845Y149238D01*
X197846Y149302D01*
X197825Y149377D01*
X197814Y149453D01*
X197788Y149512D01*
X197771Y149574D01*
X197730Y149640D01*
X197698Y149710D01*
X197656Y149759D01*
X197623Y149814D01*
X197565Y149866D01*
X197515Y149924D01*
X197461Y149960D01*
X197413Y150003D01*
X197344Y150036D01*
X197279Y150079D01*
X197217Y150098D01*
X197160Y150126D01*
X197090Y150137D01*
X197009Y150161D01*
X196924Y150162D01*
X196855Y150173D01*
X195220Y150173D01*
X194475Y150918D01*
X194475Y169582D01*
X195220Y170327D01*
X196730Y170327D01*
X196794Y170336D01*
X196858Y170335D01*
X196933Y170356D01*
X197009Y170367D01*
X197068Y170393D01*
X197130Y170410D01*
X197196Y170451D01*
X197266Y170483D01*
X197315Y170525D01*
X197370Y170558D01*
X197422Y170616D01*
X197480Y170666D01*
X197516Y170720D01*
X197559Y170768D01*
X197592Y170837D01*
X197635Y170902D01*
X197654Y170964D01*
X197682Y171021D01*
X197693Y171091D01*
X197717Y171172D01*
X197718Y171257D01*
X197729Y171326D01*
X197729Y171746D01*
X197716Y171840D01*
X197711Y171937D01*
X197696Y171980D01*
X197689Y172025D01*
X197650Y172112D01*
X197618Y172203D01*
X197593Y172238D01*
X197573Y172282D01*
X197490Y172379D01*
X197437Y172452D01*
X192352Y177537D01*
X192275Y177594D01*
X192204Y177659D01*
X192163Y177679D01*
X192127Y177706D01*
X192036Y177740D01*
X191950Y177782D01*
X191908Y177788D01*
X191863Y177805D01*
X191735Y177815D01*
X191646Y177829D01*
X169954Y177829D01*
X169860Y177816D01*
X169763Y177811D01*
X169720Y177796D01*
X169675Y177789D01*
X169588Y177750D01*
X169497Y177718D01*
X169462Y177693D01*
X169418Y177673D01*
X169321Y177590D01*
X169248Y177537D01*
X155063Y163352D01*
X155006Y163275D01*
X154941Y163204D01*
X154921Y163163D01*
X154894Y163127D01*
X154860Y163036D01*
X154818Y162950D01*
X154812Y162908D01*
X154795Y162863D01*
X154785Y162735D01*
X154771Y162646D01*
X154771Y153974D01*
X154026Y153229D01*
X145354Y153229D01*
X145260Y153216D01*
X145163Y153211D01*
X145120Y153196D01*
X145075Y153189D01*
X144988Y153150D01*
X144897Y153118D01*
X144862Y153093D01*
X144818Y153073D01*
X144721Y152990D01*
X144648Y152937D01*
X130563Y138852D01*
X128941Y137229D01*
X119270Y137229D01*
X119206Y137220D01*
X119142Y137221D01*
X119067Y137200D01*
X118991Y137189D01*
X118932Y137163D01*
X118870Y137146D01*
X118804Y137105D01*
X118734Y137073D01*
X118685Y137031D01*
X118630Y136998D01*
X118578Y136940D01*
X118520Y136890D01*
X118484Y136836D01*
X118441Y136788D01*
X118408Y136719D01*
X118365Y136654D01*
X118346Y136592D01*
X118318Y136535D01*
X118307Y136465D01*
X118283Y136384D01*
X118282Y136299D01*
X118271Y136230D01*
X118271Y127974D01*
X117526Y127229D01*
X102474Y127229D01*
X101729Y127974D01*
X101729Y151026D01*
X102474Y151771D01*
X117526Y151771D01*
X118271Y151026D01*
X118271Y142770D01*
X118280Y142706D01*
X118279Y142642D01*
X118300Y142567D01*
X118311Y142491D01*
X118337Y142432D01*
X118354Y142370D01*
X118395Y142304D01*
X118427Y142234D01*
X118469Y142185D01*
X118502Y142130D01*
X118560Y142078D01*
X118610Y142020D01*
X118664Y141984D01*
X118712Y141941D01*
X118781Y141908D01*
X118846Y141865D01*
X118908Y141846D01*
X118965Y141818D01*
X119035Y141807D01*
X119116Y141783D01*
X119201Y141782D01*
X119270Y141771D01*
X126646Y141771D01*
X126740Y141784D01*
X126837Y141789D01*
X126880Y141804D01*
X126925Y141811D01*
X127012Y141850D01*
X127103Y141882D01*
X127138Y141907D01*
X127182Y141927D01*
X127279Y142010D01*
X127352Y142063D01*
X136812Y151523D01*
X136831Y151549D01*
X136856Y151570D01*
X136916Y151662D01*
X136981Y151749D01*
X136993Y151779D01*
X137010Y151806D01*
X137042Y151911D01*
X137081Y152013D01*
X137083Y152045D01*
X137093Y152076D01*
X137094Y152185D01*
X137103Y152294D01*
X137096Y152326D01*
X137097Y152358D01*
X137067Y152463D01*
X137045Y152570D01*
X137030Y152599D01*
X137021Y152630D01*
X136964Y152723D01*
X136913Y152819D01*
X136890Y152842D01*
X136873Y152870D01*
X136792Y152943D01*
X136716Y153021D01*
X136688Y153037D01*
X136664Y153059D01*
X136566Y153106D01*
X136471Y153160D01*
X136439Y153168D01*
X136410Y153182D01*
X136321Y153196D01*
X136196Y153225D01*
X136148Y153223D01*
X136106Y153229D01*
X125974Y153229D01*
X125229Y153974D01*
X125229Y162646D01*
X125216Y162740D01*
X125211Y162837D01*
X125196Y162880D01*
X125189Y162925D01*
X125150Y163012D01*
X125118Y163103D01*
X125093Y163138D01*
X125073Y163182D01*
X124990Y163279D01*
X124937Y163352D01*
X122552Y165737D01*
X122475Y165794D01*
X122404Y165859D01*
X122363Y165879D01*
X122327Y165906D01*
X122236Y165940D01*
X122150Y165982D01*
X122108Y165988D01*
X122063Y166005D01*
X121935Y166015D01*
X121846Y166029D01*
X57154Y166029D01*
X57060Y166016D01*
X56963Y166011D01*
X56920Y165996D01*
X56875Y165989D01*
X56788Y165950D01*
X56697Y165918D01*
X56662Y165893D01*
X56618Y165873D01*
X56521Y165790D01*
X56448Y165737D01*
X53063Y162352D01*
X53006Y162275D01*
X52941Y162204D01*
X52921Y162163D01*
X52894Y162127D01*
X52860Y162036D01*
X52818Y161950D01*
X52812Y161908D01*
X52795Y161863D01*
X52785Y161735D01*
X52771Y161646D01*
X52771Y155474D01*
X52026Y154729D01*
X42974Y154729D01*
X42229Y155474D01*
X42229Y164526D01*
X42974Y165271D01*
X49146Y165271D01*
X49240Y165284D01*
X49337Y165289D01*
X49380Y165304D01*
X49425Y165311D01*
X49512Y165350D01*
X49603Y165382D01*
X49638Y165407D01*
X49682Y165427D01*
X49779Y165510D01*
X49852Y165563D01*
X54859Y170571D01*
X124141Y170571D01*
X127648Y167063D01*
X127725Y167006D01*
X127796Y166941D01*
X127837Y166921D01*
X127873Y166894D01*
X127964Y166860D01*
X128050Y166818D01*
X128092Y166812D01*
X128137Y166795D01*
X128265Y166785D01*
X128354Y166771D01*
X137026Y166771D01*
X137771Y166026D01*
X137771Y154894D01*
X137775Y154862D01*
X137773Y154830D01*
X137795Y154723D01*
X137811Y154615D01*
X137824Y154586D01*
X137830Y154554D01*
X137882Y154458D01*
X137927Y154358D01*
X137948Y154334D01*
X137963Y154305D01*
X138039Y154227D01*
X138110Y154144D01*
X138137Y154126D01*
X138160Y154103D01*
X138255Y154049D01*
X138346Y153990D01*
X138377Y153980D01*
X138405Y153964D01*
X138512Y153939D01*
X138616Y153907D01*
X138648Y153907D01*
X138679Y153899D01*
X138789Y153905D01*
X138898Y153903D01*
X138929Y153912D01*
X138961Y153914D01*
X139064Y153949D01*
X139170Y153979D01*
X139197Y153996D01*
X139228Y154006D01*
X139301Y154059D01*
X139410Y154127D01*
X139442Y154163D01*
X139477Y154188D01*
X141937Y156648D01*
X141994Y156725D01*
X142059Y156796D01*
X142078Y156837D01*
X142106Y156873D01*
X142140Y156963D01*
X142182Y157050D01*
X142188Y157092D01*
X142205Y157137D01*
X142215Y157265D01*
X142229Y157354D01*
X142229Y166026D01*
X142974Y166771D01*
X151646Y166771D01*
X151740Y166784D01*
X151837Y166789D01*
X151880Y166804D01*
X151925Y166811D01*
X152012Y166850D01*
X152103Y166882D01*
X152138Y166907D01*
X152182Y166927D01*
X152279Y167010D01*
X152352Y167063D01*
X167659Y182371D01*
X193941Y182371D01*
X202271Y174041D01*
X202271Y171326D01*
X202280Y171262D01*
X202279Y171198D01*
X202300Y171123D01*
X202311Y171047D01*
X202337Y170988D01*
X202354Y170926D01*
X202395Y170860D01*
X202427Y170790D01*
X202469Y170741D01*
X202502Y170686D01*
X202560Y170634D01*
X202610Y170576D01*
X202664Y170540D01*
X202712Y170497D01*
X202781Y170464D01*
X202846Y170421D01*
X202908Y170402D01*
X202965Y170374D01*
X203035Y170363D01*
X203116Y170339D01*
X203201Y170338D01*
X203270Y170327D01*
X204780Y170327D01*
X205525Y169582D01*
X205525Y150918D01*
X204780Y150173D01*
X203395Y150173D01*
X203331Y150164D01*
X203267Y150165D01*
X203192Y150144D01*
X203116Y150133D01*
X203057Y150107D01*
X202995Y150090D01*
X202929Y150049D01*
X202859Y150017D01*
X202810Y149975D01*
X202755Y149942D01*
X202703Y149884D01*
X202645Y149834D01*
X202609Y149780D01*
X202566Y149732D01*
X202533Y149663D01*
X202490Y149598D01*
X202471Y149536D01*
X202443Y149479D01*
X202432Y149409D01*
X202408Y149328D01*
X202407Y149243D01*
X202396Y149174D01*
X202396Y110826D01*
X202405Y110762D01*
X202404Y110698D01*
X202425Y110623D01*
X202436Y110547D01*
X202462Y110488D01*
X202479Y110426D01*
X202520Y110360D01*
X202552Y110290D01*
X202594Y110241D01*
X202627Y110186D01*
X202685Y110134D01*
X202735Y110076D01*
X202789Y110040D01*
X202837Y109997D01*
X202906Y109964D01*
X202971Y109921D01*
X203033Y109902D01*
X203090Y109874D01*
X203160Y109863D01*
X203241Y109839D01*
X203326Y109838D01*
X203395Y109827D01*
X216280Y109827D01*
X217025Y109082D01*
X217025Y103270D01*
X217034Y103206D01*
X217033Y103142D01*
X217054Y103067D01*
X217065Y102991D01*
X217091Y102932D01*
X217108Y102870D01*
X217149Y102804D01*
X217181Y102734D01*
X217223Y102685D01*
X217256Y102630D01*
X217314Y102578D01*
X217364Y102520D01*
X217418Y102484D01*
X217466Y102441D01*
X217535Y102408D01*
X217600Y102365D01*
X217662Y102346D01*
X217719Y102318D01*
X217789Y102307D01*
X217870Y102283D01*
X217955Y102282D01*
X218024Y102271D01*
X238646Y102271D01*
X238740Y102284D01*
X238837Y102289D01*
X238880Y102304D01*
X238925Y102311D01*
X239012Y102350D01*
X239103Y102382D01*
X239138Y102407D01*
X239182Y102427D01*
X239279Y102510D01*
X239352Y102563D01*
X241437Y104648D01*
X247437Y110648D01*
X247494Y110725D01*
X247559Y110796D01*
X247579Y110837D01*
X247606Y110873D01*
X247640Y110964D01*
X247682Y111050D01*
X247688Y111092D01*
X247705Y111137D01*
X247715Y111265D01*
X247729Y111354D01*
X247729Y113730D01*
X247720Y113794D01*
X247721Y113858D01*
X247700Y113933D01*
X247689Y114009D01*
X247663Y114068D01*
X247646Y114130D01*
X247605Y114196D01*
X247573Y114266D01*
X247531Y114315D01*
X247498Y114370D01*
X247440Y114422D01*
X247390Y114480D01*
X247336Y114516D01*
X247288Y114559D01*
X247219Y114592D01*
X247154Y114635D01*
X247092Y114654D01*
X247035Y114682D01*
X246965Y114693D01*
X246884Y114717D01*
X246799Y114718D01*
X246730Y114729D01*
X244474Y114729D01*
X243729Y115474D01*
X243729Y127526D01*
X244474Y128271D01*
X255526Y128271D01*
X256271Y127526D01*
X256271Y115474D01*
X255526Y114729D01*
X253270Y114729D01*
X253206Y114720D01*
X253142Y114721D01*
X253067Y114700D01*
X252991Y114689D01*
X252932Y114663D01*
X252870Y114646D01*
X252804Y114605D01*
X252734Y114573D01*
X252685Y114531D01*
X252630Y114498D01*
X252578Y114440D01*
X252520Y114390D01*
X252484Y114336D01*
X252441Y114288D01*
X252408Y114219D01*
X252365Y114154D01*
X252346Y114092D01*
X252318Y114035D01*
X252307Y113965D01*
X252283Y113884D01*
X252282Y113799D01*
X252271Y113730D01*
X252271Y109059D01*
X251188Y107977D01*
X251169Y107951D01*
X251144Y107930D01*
X251084Y107838D01*
X251019Y107751D01*
X251007Y107721D01*
X250990Y107694D01*
X250958Y107589D01*
X250919Y107487D01*
X250917Y107455D01*
X250907Y107424D01*
X250906Y107315D01*
X250897Y107206D01*
X250904Y107174D01*
X250903Y107142D01*
X250933Y107037D01*
X250955Y106930D01*
X250970Y106901D01*
X250979Y106870D01*
X251036Y106777D01*
X251087Y106681D01*
X251110Y106658D01*
X251127Y106630D01*
X251208Y106557D01*
X251284Y106479D01*
X251312Y106463D01*
X251336Y106441D01*
X251434Y106394D01*
X251529Y106340D01*
X251561Y106332D01*
X251590Y106318D01*
X251679Y106304D01*
X251804Y106275D01*
X251852Y106277D01*
X251894Y106271D01*
X379230Y106271D01*
X379294Y106280D01*
X379358Y106279D01*
X379433Y106300D01*
X379509Y106311D01*
X379568Y106337D01*
X379630Y106354D01*
X379696Y106395D01*
X379766Y106427D01*
X379815Y106469D01*
X379870Y106502D01*
X379922Y106560D01*
X379980Y106610D01*
X380016Y106664D01*
X380059Y106712D01*
X380092Y106781D01*
X380135Y106846D01*
X380154Y106908D01*
X380182Y106965D01*
X380193Y107035D01*
X380217Y107116D01*
X380218Y107201D01*
X380229Y107270D01*
X380229Y110026D01*
X380974Y110771D01*
X383230Y110771D01*
X383294Y110780D01*
X383358Y110779D01*
X383433Y110800D01*
X383509Y110811D01*
X383568Y110837D01*
X383630Y110854D01*
X383696Y110895D01*
X383766Y110927D01*
X383815Y110969D01*
X383870Y111002D01*
X383922Y111060D01*
X383980Y111110D01*
X384016Y111164D01*
X384059Y111212D01*
X384092Y111281D01*
X384135Y111346D01*
X384154Y111408D01*
X384182Y111465D01*
X384193Y111535D01*
X384217Y111616D01*
X384218Y111701D01*
X384229Y111770D01*
X384229Y117730D01*
X384220Y117794D01*
X384221Y117858D01*
X384200Y117933D01*
X384189Y118009D01*
X384163Y118068D01*
X384146Y118130D01*
X384105Y118196D01*
X384073Y118266D01*
X384031Y118315D01*
X383998Y118370D01*
X383940Y118422D01*
X383890Y118480D01*
X383836Y118516D01*
X383788Y118559D01*
X383719Y118592D01*
X383654Y118635D01*
X383592Y118654D01*
X383535Y118682D01*
X383465Y118693D01*
X383384Y118717D01*
X383299Y118718D01*
X383230Y118729D01*
X380474Y118729D01*
X379729Y119474D01*
X379729Y130526D01*
X380474Y131271D01*
X387205Y131271D01*
X387269Y131280D01*
X387333Y131279D01*
X387408Y131300D01*
X387484Y131311D01*
X387543Y131337D01*
X387605Y131354D01*
X387671Y131395D01*
X387741Y131427D01*
X387790Y131469D01*
X387845Y131502D01*
X387897Y131560D01*
X387955Y131610D01*
X387991Y131664D01*
X388034Y131712D01*
X388067Y131781D01*
X388110Y131846D01*
X388129Y131908D01*
X388157Y131965D01*
X388168Y132035D01*
X388192Y132116D01*
X388193Y132201D01*
X388204Y132270D01*
X388204Y133548D01*
X388200Y133580D01*
X388202Y133612D01*
X388180Y133719D01*
X388164Y133827D01*
X388151Y133856D01*
X388145Y133888D01*
X388093Y133985D01*
X388048Y134084D01*
X388027Y134108D01*
X388012Y134137D01*
X387936Y134215D01*
X387865Y134298D01*
X387838Y134316D01*
X387815Y134339D01*
X387720Y134393D01*
X387629Y134453D01*
X387598Y134462D01*
X387570Y134478D01*
X387464Y134503D01*
X387359Y134535D01*
X387327Y134536D01*
X387295Y134543D01*
X387186Y134537D01*
X387077Y134539D01*
X387046Y134530D01*
X387014Y134529D01*
X386911Y134493D01*
X386805Y134464D01*
X386778Y134447D01*
X386747Y134436D01*
X386674Y134383D01*
X386565Y134315D01*
X386533Y134279D01*
X386498Y134254D01*
X386429Y134185D01*
X381821Y134185D01*
X381657Y134349D01*
X381605Y134388D01*
X381560Y134434D01*
X381493Y134472D01*
X381431Y134519D01*
X381371Y134541D01*
X381315Y134573D01*
X381240Y134591D01*
X381167Y134618D01*
X381103Y134623D01*
X381040Y134638D01*
X380963Y134634D01*
X380886Y134640D01*
X380823Y134627D01*
X380759Y134624D01*
X380686Y134598D01*
X380610Y134582D01*
X380553Y134552D01*
X380492Y134531D01*
X380436Y134490D01*
X380361Y134450D01*
X380300Y134391D01*
X380243Y134349D01*
X380079Y134185D01*
X375471Y134185D01*
X374726Y134930D01*
X374726Y150689D01*
X374748Y150727D01*
X374765Y150802D01*
X374793Y150874D01*
X374798Y150938D01*
X374813Y151001D01*
X374809Y151078D01*
X374815Y151156D01*
X374802Y151218D01*
X374798Y151283D01*
X374773Y151356D01*
X374757Y151432D01*
X374727Y151488D01*
X374706Y151549D01*
X374664Y151606D01*
X374625Y151681D01*
X374565Y151742D01*
X374524Y151798D01*
X370156Y156167D01*
X370079Y156224D01*
X370007Y156289D01*
X369966Y156309D01*
X369930Y156336D01*
X369840Y156370D01*
X369754Y156412D01*
X369712Y156418D01*
X369666Y156435D01*
X369539Y156445D01*
X369449Y156459D01*
X356119Y156459D01*
X353142Y159437D01*
X353065Y159494D01*
X352994Y159559D01*
X352953Y159579D01*
X352916Y159606D01*
X352826Y159640D01*
X352740Y159682D01*
X352698Y159688D01*
X352652Y159705D01*
X352525Y159715D01*
X352435Y159729D01*
X340474Y159729D01*
X339729Y160474D01*
X339729Y169146D01*
X339716Y169240D01*
X339711Y169337D01*
X339696Y169380D01*
X339689Y169425D01*
X339650Y169512D01*
X339618Y169603D01*
X339593Y169638D01*
X339573Y169682D01*
X339490Y169779D01*
X339437Y169852D01*
X338852Y170437D01*
X338775Y170494D01*
X338704Y170559D01*
X338663Y170579D01*
X338627Y170606D01*
X338536Y170640D01*
X338450Y170682D01*
X338408Y170688D01*
X338363Y170705D01*
X338235Y170715D01*
X338146Y170729D01*
X252559Y170729D01*
X154352Y268937D01*
X154275Y268994D01*
X154204Y269059D01*
X154163Y269079D01*
X154127Y269106D01*
X154036Y269140D01*
X153950Y269182D01*
X153908Y269188D01*
X153863Y269205D01*
X153735Y269215D01*
X153646Y269229D01*
X147770Y269229D01*
X147706Y269220D01*
X147642Y269221D01*
X147567Y269200D01*
X147491Y269189D01*
X147432Y269163D01*
X147370Y269146D01*
X147304Y269105D01*
X147234Y269073D01*
X147185Y269031D01*
X147130Y268998D01*
X147078Y268940D01*
X147020Y268890D01*
X146984Y268836D01*
X146941Y268788D01*
X146908Y268719D01*
X146865Y268654D01*
X146846Y268592D01*
X146818Y268535D01*
X146807Y268465D01*
X146783Y268384D01*
X146782Y268299D01*
X146771Y268230D01*
X146771Y265974D01*
X146026Y265229D01*
X133974Y265229D01*
X133229Y265974D01*
X133229Y268230D01*
X133220Y268294D01*
X133221Y268358D01*
X133200Y268433D01*
X133189Y268509D01*
X133163Y268568D01*
X133146Y268630D01*
X133105Y268696D01*
X133073Y268766D01*
X133031Y268815D01*
X132998Y268870D01*
X132940Y268922D01*
X132890Y268980D01*
X132836Y269016D01*
X132788Y269059D01*
X132719Y269092D01*
X132654Y269135D01*
X132592Y269154D01*
X132535Y269182D01*
X132465Y269193D01*
X132384Y269217D01*
X132299Y269218D01*
X132230Y269229D01*
X117770Y269229D01*
X117706Y269220D01*
X117642Y269221D01*
X117567Y269200D01*
X117491Y269189D01*
X117432Y269163D01*
X117370Y269146D01*
X117304Y269105D01*
X117234Y269073D01*
X117185Y269031D01*
X117130Y268998D01*
X117078Y268940D01*
X117020Y268890D01*
X116984Y268836D01*
X116941Y268788D01*
X116908Y268719D01*
X116865Y268654D01*
X116846Y268592D01*
X116818Y268535D01*
X116807Y268465D01*
X116783Y268384D01*
X116782Y268299D01*
X116771Y268230D01*
X116771Y265974D01*
X116026Y265229D01*
X103974Y265229D01*
X103229Y265974D01*
X103229Y277026D01*
X103974Y277771D01*
X116026Y277771D01*
X116771Y277026D01*
X116771Y274770D01*
X116779Y274709D01*
X116779Y274668D01*
X116779Y274667D01*
X116779Y274642D01*
X116800Y274567D01*
X116811Y274491D01*
X116837Y274432D01*
X116854Y274370D01*
X116895Y274304D01*
X116927Y274234D01*
X116969Y274185D01*
X117002Y274130D01*
X117060Y274078D01*
X117110Y274020D01*
X117164Y273984D01*
X117212Y273941D01*
X117281Y273908D01*
X117346Y273865D01*
X117408Y273846D01*
X117465Y273818D01*
X117535Y273807D01*
X117616Y273783D01*
X117701Y273782D01*
X117770Y273771D01*
X132230Y273771D01*
X132294Y273780D01*
X132358Y273779D01*
X132433Y273800D01*
X132509Y273811D01*
X132568Y273837D01*
X132630Y273854D01*
X132696Y273895D01*
X132766Y273927D01*
X132815Y273969D01*
X132870Y274002D01*
X132922Y274060D01*
X132980Y274110D01*
X133016Y274164D01*
X133059Y274212D01*
X133092Y274281D01*
X133135Y274346D01*
X133154Y274408D01*
X133182Y274465D01*
X133193Y274535D01*
X133217Y274616D01*
X133218Y274701D01*
X133229Y274770D01*
X133229Y277026D01*
X133974Y277771D01*
X146026Y277771D01*
X146771Y277026D01*
X146771Y274770D01*
X146779Y274709D01*
X146779Y274668D01*
X146779Y274667D01*
X146779Y274642D01*
X146800Y274567D01*
X146811Y274491D01*
X146837Y274432D01*
X146854Y274370D01*
X146895Y274304D01*
X146927Y274234D01*
X146969Y274185D01*
X147002Y274130D01*
X147060Y274078D01*
X147110Y274020D01*
X147164Y273984D01*
X147212Y273941D01*
X147281Y273908D01*
X147346Y273865D01*
X147408Y273846D01*
X147465Y273818D01*
X147535Y273807D01*
X147616Y273783D01*
X147701Y273782D01*
X147770Y273771D01*
X155941Y273771D01*
X161523Y268188D01*
X161549Y268168D01*
X161570Y268144D01*
X161662Y268084D01*
X161749Y268019D01*
X161779Y268007D01*
X161806Y267990D01*
X161911Y267958D01*
X162013Y267919D01*
X162045Y267917D01*
X162076Y267907D01*
X162185Y267906D01*
X162294Y267897D01*
X162326Y267904D01*
X162358Y267903D01*
X162463Y267933D01*
X162570Y267955D01*
X162599Y267970D01*
X162630Y267979D01*
X162723Y268036D01*
X162819Y268087D01*
X162842Y268110D01*
X162870Y268127D01*
X162943Y268208D01*
X163021Y268284D01*
X163037Y268312D01*
X163059Y268336D01*
X163106Y268434D01*
X163160Y268529D01*
X163168Y268561D01*
X163182Y268590D01*
X163196Y268679D01*
X163225Y268804D01*
X163223Y268852D01*
X163229Y268894D01*
X163229Y277026D01*
X163974Y277771D01*
X176026Y277771D01*
X176771Y277026D01*
X176771Y275902D01*
X176787Y275785D01*
X176799Y275666D01*
X176807Y275645D01*
X176811Y275623D01*
X176859Y275515D01*
X176903Y275404D01*
X176917Y275386D01*
X176927Y275366D01*
X177004Y275276D01*
X177077Y275182D01*
X177095Y275169D01*
X177110Y275151D01*
X177210Y275086D01*
X177306Y275017D01*
X177327Y275009D01*
X177346Y274997D01*
X177460Y274962D01*
X177571Y274923D01*
X177594Y274921D01*
X177616Y274915D01*
X177734Y274913D01*
X177853Y274906D01*
X177874Y274911D01*
X177898Y274911D01*
X178077Y274960D01*
X178152Y274979D01*
X178944Y275307D01*
X181056Y275307D01*
X183006Y274499D01*
X184499Y273006D01*
X185307Y271056D01*
X185307Y268944D01*
X184499Y266994D01*
X183006Y265501D01*
X181056Y264693D01*
X178944Y264693D01*
X177119Y265449D01*
X177110Y265452D01*
X177101Y265456D01*
X176973Y265487D01*
X176846Y265520D01*
X176836Y265519D01*
X176827Y265521D01*
X176695Y265515D01*
X176564Y265510D01*
X176555Y265508D01*
X176545Y265507D01*
X176421Y265464D01*
X176296Y265423D01*
X176288Y265418D01*
X176279Y265415D01*
X176216Y265369D01*
X176063Y265264D01*
X176047Y265246D01*
X176030Y265233D01*
X176026Y265229D01*
X166894Y265229D01*
X166862Y265225D01*
X166830Y265227D01*
X166723Y265205D01*
X166615Y265189D01*
X166586Y265176D01*
X166554Y265170D01*
X166458Y265118D01*
X166358Y265073D01*
X166334Y265052D01*
X166305Y265037D01*
X166227Y264961D01*
X166144Y264890D01*
X166126Y264863D01*
X166103Y264840D01*
X166049Y264745D01*
X165990Y264654D01*
X165980Y264623D01*
X165964Y264595D01*
X165939Y264488D01*
X165907Y264384D01*
X165907Y264352D01*
X165899Y264321D01*
X165905Y264211D01*
X165903Y264102D01*
X165912Y264071D01*
X165914Y264039D01*
X165949Y263936D01*
X165979Y263830D01*
X165996Y263803D01*
X166006Y263772D01*
X166059Y263699D01*
X166127Y263590D01*
X166163Y263558D01*
X166188Y263523D01*
X196023Y233688D01*
X196049Y233669D01*
X196070Y233644D01*
X196162Y233584D01*
X196249Y233519D01*
X196279Y233507D01*
X196306Y233490D01*
X196411Y233458D01*
X196513Y233419D01*
X196545Y233417D01*
X196576Y233407D01*
X196685Y233406D01*
X196794Y233397D01*
X196826Y233404D01*
X196858Y233403D01*
X196963Y233433D01*
X197070Y233455D01*
X197099Y233470D01*
X197130Y233479D01*
X197223Y233536D01*
X197319Y233587D01*
X197342Y233610D01*
X197370Y233627D01*
X197443Y233708D01*
X197521Y233784D01*
X197537Y233812D01*
X197559Y233836D01*
X197606Y233934D01*
X197660Y234029D01*
X197668Y234061D01*
X197682Y234090D01*
X197696Y234179D01*
X197725Y234304D01*
X197723Y234352D01*
X197729Y234394D01*
X197729Y264230D01*
X197720Y264294D01*
X197721Y264358D01*
X197700Y264433D01*
X197689Y264509D01*
X197663Y264568D01*
X197646Y264630D01*
X197605Y264696D01*
X197573Y264766D01*
X197531Y264815D01*
X197498Y264870D01*
X197440Y264922D01*
X197390Y264980D01*
X197336Y265016D01*
X197288Y265059D01*
X197219Y265092D01*
X197154Y265135D01*
X197092Y265154D01*
X197035Y265182D01*
X196965Y265193D01*
X196884Y265217D01*
X196799Y265218D01*
X196730Y265229D01*
X193974Y265229D01*
X193229Y265974D01*
X193229Y277026D01*
X193974Y277771D01*
X204146Y277771D01*
X204241Y277784D01*
X204337Y277789D01*
X204380Y277804D01*
X204425Y277811D01*
X204512Y277850D01*
X204603Y277882D01*
X204638Y277907D01*
X204682Y277927D01*
X204779Y278010D01*
X204852Y278063D01*
X207437Y280648D01*
X207494Y280725D01*
X207559Y280796D01*
X207579Y280837D01*
X207606Y280873D01*
X207640Y280964D01*
X207682Y281050D01*
X207688Y281092D01*
X207705Y281137D01*
X207715Y281265D01*
X207729Y281354D01*
X207729Y281520D01*
X207725Y281552D01*
X207727Y281584D01*
X207705Y281691D01*
X207689Y281799D01*
X207676Y281828D01*
X207670Y281860D01*
X207618Y281957D01*
X207573Y282056D01*
X207552Y282080D01*
X207537Y282109D01*
X207461Y282187D01*
X207390Y282270D01*
X207363Y282288D01*
X207340Y282311D01*
X207245Y282365D01*
X207154Y282425D01*
X207123Y282434D01*
X207095Y282450D01*
X206989Y282475D01*
X206884Y282507D01*
X206852Y282508D01*
X206820Y282515D01*
X206711Y282509D01*
X206602Y282511D01*
X206571Y282502D01*
X206539Y282501D01*
X206436Y282465D01*
X206330Y282436D01*
X206303Y282419D01*
X206272Y282408D01*
X206199Y282355D01*
X206090Y282287D01*
X206058Y282251D01*
X206027Y282229D01*
X193974Y282229D01*
X193229Y282974D01*
X193229Y285230D01*
X193220Y285294D01*
X193221Y285358D01*
X193200Y285433D01*
X193189Y285509D01*
X193163Y285568D01*
X193146Y285630D01*
X193105Y285696D01*
X193073Y285766D01*
X193031Y285815D01*
X192998Y285870D01*
X192940Y285922D01*
X192890Y285980D01*
X192836Y286016D01*
X192788Y286059D01*
X192719Y286092D01*
X192654Y286135D01*
X192592Y286154D01*
X192535Y286182D01*
X192465Y286193D01*
X192384Y286217D01*
X192299Y286218D01*
X192230Y286229D01*
X177770Y286229D01*
X177706Y286220D01*
X177642Y286221D01*
X177567Y286200D01*
X177491Y286189D01*
X177432Y286163D01*
X177370Y286146D01*
X177304Y286105D01*
X177234Y286073D01*
X177185Y286031D01*
X177130Y285998D01*
X177078Y285940D01*
X177020Y285890D01*
X176984Y285836D01*
X176941Y285788D01*
X176908Y285719D01*
X176865Y285654D01*
X176846Y285592D01*
X176818Y285535D01*
X176807Y285465D01*
X176783Y285384D01*
X176782Y285299D01*
X176771Y285230D01*
X176771Y282974D01*
X176026Y282229D01*
X163974Y282229D01*
X163229Y282974D01*
X163229Y291646D01*
X163216Y291740D01*
X163211Y291837D01*
X163196Y291880D01*
X163189Y291925D01*
X163150Y292012D01*
X163118Y292103D01*
X163093Y292138D01*
X163073Y292182D01*
X162990Y292279D01*
X162937Y292352D01*
X156229Y299059D01*
X156229Y302230D01*
X156220Y302294D01*
X156221Y302358D01*
X156200Y302433D01*
X156189Y302509D01*
X156163Y302568D01*
X156146Y302630D01*
X156105Y302696D01*
X156073Y302766D01*
X156031Y302815D01*
X155998Y302870D01*
X155940Y302922D01*
X155890Y302980D01*
X155836Y303016D01*
X155788Y303059D01*
X155719Y303092D01*
X155654Y303135D01*
X155592Y303154D01*
X155535Y303182D01*
X155465Y303193D01*
X155384Y303217D01*
X155299Y303218D01*
X155230Y303229D01*
X152974Y303229D01*
X152229Y303974D01*
X152229Y316026D01*
X152974Y316771D01*
X164026Y316771D01*
X164771Y316026D01*
X164771Y303974D01*
X164026Y303229D01*
X161770Y303229D01*
X161706Y303220D01*
X161642Y303221D01*
X161567Y303200D01*
X161491Y303189D01*
X161432Y303163D01*
X161370Y303146D01*
X161304Y303105D01*
X161234Y303073D01*
X161185Y303031D01*
X161130Y302998D01*
X161078Y302940D01*
X161020Y302890D01*
X160984Y302836D01*
X160941Y302788D01*
X160908Y302719D01*
X160865Y302654D01*
X160846Y302592D01*
X160818Y302535D01*
X160807Y302465D01*
X160783Y302384D01*
X160782Y302299D01*
X160771Y302230D01*
X160771Y301354D01*
X160784Y301260D01*
X160789Y301163D01*
X160804Y301120D01*
X160811Y301075D01*
X160850Y300988D01*
X160882Y300897D01*
X160907Y300862D01*
X160927Y300818D01*
X161010Y300721D01*
X161063Y300648D01*
X162418Y299293D01*
X162495Y299236D01*
X162566Y299171D01*
X162607Y299151D01*
X162643Y299124D01*
X162733Y299090D01*
X162820Y299048D01*
X162862Y299042D01*
X162907Y299025D01*
X163035Y299015D01*
X163124Y299001D01*
X180876Y299001D01*
X180907Y299005D01*
X180940Y299003D01*
X181047Y299025D01*
X181155Y299041D01*
X181184Y299054D01*
X181216Y299060D01*
X181312Y299112D01*
X181412Y299157D01*
X181436Y299178D01*
X181465Y299193D01*
X181543Y299269D01*
X181626Y299340D01*
X181644Y299367D01*
X181667Y299390D01*
X181721Y299485D01*
X181780Y299576D01*
X181790Y299607D01*
X181806Y299635D01*
X181831Y299742D01*
X181863Y299846D01*
X181863Y299878D01*
X181871Y299910D01*
X181865Y300019D01*
X181867Y300128D01*
X181858Y300159D01*
X181856Y300191D01*
X181821Y300294D01*
X181791Y300400D01*
X181774Y300427D01*
X181764Y300458D01*
X181711Y300531D01*
X181643Y300640D01*
X181607Y300672D01*
X181582Y300707D01*
X179125Y303164D01*
X179105Y303196D01*
X179073Y303266D01*
X179031Y303315D01*
X178998Y303370D01*
X178940Y303422D01*
X178890Y303480D01*
X178836Y303516D01*
X178788Y303559D01*
X178719Y303592D01*
X178654Y303635D01*
X178592Y303654D01*
X178535Y303682D01*
X178465Y303693D01*
X178384Y303717D01*
X178299Y303718D01*
X178230Y303729D01*
X175474Y303729D01*
X174729Y304474D01*
X174729Y315526D01*
X175474Y316271D01*
X187526Y316271D01*
X188271Y315526D01*
X188271Y304474D01*
X187526Y303729D01*
X187394Y303729D01*
X187362Y303725D01*
X187330Y303727D01*
X187223Y303705D01*
X187115Y303689D01*
X187086Y303676D01*
X187054Y303670D01*
X186958Y303618D01*
X186858Y303573D01*
X186834Y303552D01*
X186805Y303537D01*
X186727Y303461D01*
X186644Y303390D01*
X186626Y303363D01*
X186603Y303340D01*
X186549Y303245D01*
X186490Y303154D01*
X186480Y303123D01*
X186464Y303095D01*
X186439Y302989D01*
X186407Y302884D01*
X186407Y302852D01*
X186399Y302821D01*
X186405Y302711D01*
X186403Y302602D01*
X186412Y302571D01*
X186414Y302539D01*
X186449Y302436D01*
X186479Y302330D01*
X186496Y302303D01*
X186506Y302272D01*
X186559Y302199D01*
X186627Y302090D01*
X186663Y302058D01*
X186688Y302023D01*
X189148Y299563D01*
X189225Y299506D01*
X189296Y299441D01*
X189337Y299421D01*
X189373Y299394D01*
X189464Y299360D01*
X189550Y299318D01*
X189592Y299312D01*
X189637Y299295D01*
X189765Y299285D01*
X189854Y299271D01*
X206151Y299271D01*
X207774Y297648D01*
X210648Y294774D01*
X212271Y293151D01*
X212271Y279059D01*
X207063Y273852D01*
X207006Y273775D01*
X206941Y273704D01*
X206921Y273663D01*
X206894Y273627D01*
X206860Y273537D01*
X206818Y273450D01*
X206812Y273408D01*
X206795Y273363D01*
X206785Y273235D01*
X206771Y273146D01*
X206771Y265974D01*
X206026Y265229D01*
X203270Y265229D01*
X203206Y265220D01*
X203142Y265221D01*
X203067Y265200D01*
X202991Y265189D01*
X202932Y265163D01*
X202870Y265146D01*
X202804Y265105D01*
X202734Y265073D01*
X202685Y265031D01*
X202630Y264998D01*
X202578Y264940D01*
X202520Y264890D01*
X202484Y264836D01*
X202441Y264788D01*
X202408Y264719D01*
X202365Y264654D01*
X202346Y264592D01*
X202318Y264535D01*
X202307Y264465D01*
X202283Y264384D01*
X202282Y264299D01*
X202271Y264230D01*
X202271Y232854D01*
X202284Y232760D01*
X202289Y232663D01*
X202304Y232620D01*
X202311Y232575D01*
X202350Y232488D01*
X202382Y232397D01*
X202407Y232362D01*
X202427Y232318D01*
X202506Y232226D01*
X202529Y232188D01*
X202544Y232175D01*
X202563Y232148D01*
X255148Y179563D01*
X255225Y179506D01*
X255296Y179441D01*
X255337Y179421D01*
X255373Y179394D01*
X255464Y179360D01*
X255550Y179318D01*
X255592Y179312D01*
X255637Y179295D01*
X255765Y179285D01*
X255854Y179271D01*
X371102Y179271D01*
X371134Y179275D01*
X371166Y179273D01*
X371273Y179295D01*
X371381Y179311D01*
X371411Y179324D01*
X371442Y179330D01*
X371539Y179382D01*
X371638Y179427D01*
X371663Y179448D01*
X371691Y179463D01*
X371770Y179539D01*
X371853Y179610D01*
X371870Y179637D01*
X371893Y179660D01*
X371947Y179755D01*
X372007Y179846D01*
X372017Y179877D01*
X372032Y179905D01*
X372058Y180011D01*
X372089Y180116D01*
X372090Y180148D01*
X372097Y180180D01*
X372092Y180289D01*
X372093Y180398D01*
X372085Y180429D01*
X372083Y180461D01*
X372047Y180564D01*
X372018Y180670D01*
X372001Y180697D01*
X371990Y180728D01*
X371937Y180801D01*
X371870Y180910D01*
X371834Y180942D01*
X371809Y180977D01*
X371791Y180994D01*
X370983Y182944D01*
X370983Y185056D01*
X371791Y187006D01*
X373284Y188499D01*
X374109Y188841D01*
X374118Y188845D01*
X374127Y188848D01*
X374239Y188918D01*
X374352Y188984D01*
X374359Y188991D01*
X374367Y188996D01*
X374455Y189094D01*
X374545Y189190D01*
X374549Y189198D01*
X374556Y189205D01*
X374613Y189324D01*
X374673Y189441D01*
X374675Y189451D01*
X374679Y189459D01*
X374691Y189535D01*
X374725Y189719D01*
X374723Y189742D01*
X374726Y189764D01*
X374726Y205070D01*
X375471Y205815D01*
X380079Y205815D01*
X380243Y205651D01*
X380295Y205612D01*
X380340Y205566D01*
X380407Y205528D01*
X380469Y205481D01*
X380529Y205459D01*
X380585Y205427D01*
X380660Y205409D01*
X380733Y205382D01*
X380797Y205377D01*
X380860Y205362D01*
X380937Y205366D01*
X381014Y205360D01*
X381077Y205373D01*
X381141Y205376D01*
X381214Y205402D01*
X381290Y205418D01*
X381347Y205448D01*
X381408Y205469D01*
X381464Y205510D01*
X381539Y205550D01*
X381600Y205609D01*
X381657Y205651D01*
X381821Y205815D01*
X386429Y205815D01*
X386593Y205651D01*
X386645Y205612D01*
X386690Y205566D01*
X386757Y205528D01*
X386819Y205481D01*
X386879Y205459D01*
X386935Y205427D01*
X387010Y205409D01*
X387083Y205382D01*
X387147Y205377D01*
X387210Y205362D01*
X387287Y205366D01*
X387364Y205360D01*
X387427Y205373D01*
X387491Y205376D01*
X387564Y205402D01*
X387640Y205418D01*
X387697Y205448D01*
X387758Y205469D01*
X387814Y205510D01*
X387889Y205550D01*
X387950Y205609D01*
X388007Y205651D01*
X388171Y205815D01*
X392779Y205815D01*
X392943Y205651D01*
X392995Y205612D01*
X393040Y205566D01*
X393107Y205528D01*
X393169Y205481D01*
X393229Y205459D01*
X393285Y205427D01*
X393360Y205409D01*
X393433Y205382D01*
X393497Y205377D01*
X393560Y205362D01*
X393637Y205366D01*
X393714Y205360D01*
X393777Y205373D01*
X393841Y205376D01*
X393914Y205402D01*
X393990Y205418D01*
X394047Y205448D01*
X394108Y205469D01*
X394164Y205510D01*
X394239Y205550D01*
X394300Y205609D01*
X394357Y205651D01*
X394521Y205815D01*
X399129Y205815D01*
X399293Y205651D01*
X399345Y205612D01*
X399390Y205566D01*
X399457Y205528D01*
X399519Y205481D01*
X399579Y205459D01*
X399635Y205427D01*
X399710Y205409D01*
X399783Y205382D01*
X399847Y205377D01*
X399910Y205362D01*
X399987Y205366D01*
X400064Y205360D01*
X400127Y205373D01*
X400191Y205376D01*
X400264Y205402D01*
X400340Y205418D01*
X400397Y205448D01*
X400458Y205469D01*
X400514Y205510D01*
X400589Y205550D01*
X400650Y205609D01*
X400707Y205651D01*
X400871Y205815D01*
X405479Y205815D01*
X405643Y205651D01*
X405695Y205612D01*
X405740Y205566D01*
X405807Y205528D01*
X405869Y205481D01*
X405929Y205459D01*
X405985Y205427D01*
X406060Y205409D01*
X406133Y205382D01*
X406197Y205377D01*
X406260Y205362D01*
X406337Y205366D01*
X406414Y205360D01*
X406477Y205373D01*
X406541Y205376D01*
X406614Y205402D01*
X406690Y205418D01*
X406747Y205448D01*
X406808Y205469D01*
X406864Y205510D01*
X406939Y205550D01*
X407000Y205609D01*
X407057Y205651D01*
X407221Y205815D01*
X411829Y205815D01*
X411993Y205651D01*
X412045Y205612D01*
X412090Y205566D01*
X412157Y205528D01*
X412219Y205481D01*
X412279Y205459D01*
X412335Y205427D01*
X412410Y205409D01*
X412483Y205382D01*
X412547Y205377D01*
X412610Y205362D01*
X412687Y205366D01*
X412764Y205360D01*
X412827Y205373D01*
X412891Y205376D01*
X412964Y205402D01*
X413040Y205418D01*
X413097Y205448D01*
X413158Y205469D01*
X413214Y205510D01*
X413289Y205550D01*
X413350Y205609D01*
X413407Y205651D01*
X413571Y205815D01*
X414190Y205815D01*
X414284Y205828D01*
X414381Y205833D01*
X414424Y205848D01*
X414469Y205855D01*
X414556Y205894D01*
X414647Y205926D01*
X414682Y205951D01*
X414726Y205971D01*
X414823Y206054D01*
X414896Y206107D01*
X418059Y209271D01*
X575146Y209271D01*
X575240Y209284D01*
X575337Y209289D01*
X575380Y209304D01*
X575425Y209311D01*
X575512Y209350D01*
X575603Y209382D01*
X575638Y209407D01*
X575682Y209427D01*
X575779Y209510D01*
X575852Y209563D01*
X627437Y261148D01*
X627494Y261225D01*
X627559Y261296D01*
X627579Y261337D01*
X627606Y261373D01*
X627640Y261464D01*
X627682Y261550D01*
X627688Y261592D01*
X627705Y261637D01*
X627715Y261765D01*
X627729Y261854D01*
X627729Y264230D01*
X627720Y264294D01*
X627721Y264358D01*
X627700Y264433D01*
X627689Y264509D01*
X627663Y264568D01*
X627646Y264630D01*
X627605Y264696D01*
X627573Y264766D01*
X627531Y264815D01*
X627498Y264870D01*
X627440Y264922D01*
X627390Y264980D01*
X627336Y265016D01*
X627288Y265059D01*
X627219Y265092D01*
X627154Y265135D01*
X627092Y265154D01*
X627035Y265182D01*
X626965Y265193D01*
X626884Y265217D01*
X626799Y265218D01*
X626730Y265229D01*
X623974Y265229D01*
X623229Y265974D01*
X623229Y277026D01*
X623974Y277771D01*
X631935Y277771D01*
X632030Y277784D01*
X632126Y277789D01*
X632169Y277804D01*
X632214Y277811D01*
X632302Y277850D01*
X632393Y277882D01*
X632427Y277907D01*
X632471Y277927D01*
X632569Y278010D01*
X632642Y278063D01*
X635102Y280523D01*
X635121Y280549D01*
X635146Y280570D01*
X635206Y280662D01*
X635271Y280749D01*
X635283Y280779D01*
X635300Y280806D01*
X635332Y280911D01*
X635371Y281013D01*
X635373Y281045D01*
X635383Y281076D01*
X635384Y281185D01*
X635393Y281294D01*
X635386Y281326D01*
X635386Y281358D01*
X635357Y281463D01*
X635335Y281570D01*
X635320Y281599D01*
X635311Y281630D01*
X635254Y281723D01*
X635202Y281819D01*
X635180Y281842D01*
X635163Y281870D01*
X635082Y281943D01*
X635006Y282021D01*
X634978Y282037D01*
X634954Y282059D01*
X634855Y282106D01*
X634760Y282160D01*
X634729Y282168D01*
X634700Y282182D01*
X634611Y282196D01*
X634486Y282225D01*
X634437Y282223D01*
X634395Y282229D01*
X623974Y282229D01*
X623229Y282974D01*
X623229Y285230D01*
X623220Y285294D01*
X623221Y285358D01*
X623200Y285433D01*
X623189Y285509D01*
X623163Y285568D01*
X623146Y285630D01*
X623105Y285696D01*
X623073Y285766D01*
X623031Y285815D01*
X622998Y285870D01*
X622940Y285922D01*
X622890Y285980D01*
X622836Y286016D01*
X622788Y286059D01*
X622719Y286092D01*
X622654Y286135D01*
X622592Y286154D01*
X622535Y286182D01*
X622465Y286193D01*
X622384Y286217D01*
X622299Y286218D01*
X622230Y286229D01*
X607770Y286229D01*
X607706Y286220D01*
X607642Y286221D01*
X607567Y286200D01*
X607491Y286189D01*
X607432Y286163D01*
X607370Y286146D01*
X607304Y286105D01*
X607234Y286073D01*
X607185Y286031D01*
X607130Y285998D01*
X607078Y285940D01*
X607020Y285890D01*
X606984Y285836D01*
X606941Y285788D01*
X606908Y285719D01*
X606865Y285654D01*
X606846Y285592D01*
X606818Y285535D01*
X606807Y285465D01*
X606783Y285384D01*
X606782Y285299D01*
X606771Y285230D01*
X606771Y282974D01*
X606026Y282229D01*
X593974Y282229D01*
X593229Y282974D01*
X593229Y294026D01*
X593974Y294771D01*
X606026Y294771D01*
X606771Y294026D01*
X606771Y291770D01*
X606780Y291707D01*
X606779Y291655D01*
X606779Y291642D01*
X606800Y291567D01*
X606811Y291491D01*
X606837Y291432D01*
X606854Y291370D01*
X606895Y291304D01*
X606927Y291234D01*
X606969Y291185D01*
X607002Y291130D01*
X607060Y291078D01*
X607110Y291020D01*
X607164Y290984D01*
X607212Y290941D01*
X607281Y290908D01*
X607346Y290865D01*
X607408Y290846D01*
X607465Y290818D01*
X607535Y290807D01*
X607616Y290783D01*
X607701Y290782D01*
X607770Y290771D01*
X622230Y290771D01*
X622294Y290780D01*
X622358Y290779D01*
X622433Y290800D01*
X622509Y290811D01*
X622568Y290837D01*
X622630Y290854D01*
X622696Y290895D01*
X622766Y290927D01*
X622815Y290969D01*
X622870Y291002D01*
X622922Y291060D01*
X622980Y291110D01*
X623016Y291164D01*
X623059Y291212D01*
X623092Y291281D01*
X623135Y291346D01*
X623154Y291408D01*
X623182Y291465D01*
X623193Y291535D01*
X623217Y291616D01*
X623218Y291701D01*
X623229Y291770D01*
X623229Y294026D01*
X623974Y294771D01*
X632646Y294771D01*
X632740Y294784D01*
X632837Y294789D01*
X632880Y294804D01*
X632925Y294811D01*
X633012Y294850D01*
X633103Y294882D01*
X633138Y294907D01*
X633182Y294927D01*
X633279Y295010D01*
X633352Y295063D01*
X638937Y300648D01*
X638994Y300725D01*
X639059Y300796D01*
X639079Y300837D01*
X639106Y300873D01*
X639140Y300964D01*
X639182Y301050D01*
X639188Y301092D01*
X639205Y301137D01*
X639215Y301265D01*
X639229Y301354D01*
X639229Y302230D01*
X639220Y302294D01*
X639221Y302358D01*
X639200Y302433D01*
X639189Y302509D01*
X639163Y302568D01*
X639146Y302630D01*
X639105Y302696D01*
X639073Y302766D01*
X639031Y302815D01*
X638998Y302870D01*
X638940Y302922D01*
X638890Y302980D01*
X638836Y303016D01*
X638788Y303059D01*
X638719Y303092D01*
X638654Y303135D01*
X638592Y303154D01*
X638535Y303182D01*
X638465Y303193D01*
X638384Y303217D01*
X638299Y303218D01*
X638230Y303229D01*
X635974Y303229D01*
X635229Y303974D01*
X635229Y316026D01*
X635974Y316771D01*
X647026Y316771D01*
X647771Y316026D01*
X647771Y303974D01*
X647026Y303229D01*
X644770Y303229D01*
X644706Y303220D01*
X644642Y303221D01*
X644567Y303200D01*
X644491Y303189D01*
X644432Y303163D01*
X644370Y303146D01*
X644304Y303105D01*
X644234Y303073D01*
X644185Y303031D01*
X644130Y302998D01*
X644078Y302940D01*
X644020Y302890D01*
X643984Y302836D01*
X643941Y302788D01*
X643908Y302719D01*
X643865Y302654D01*
X643846Y302592D01*
X643818Y302535D01*
X643807Y302465D01*
X643783Y302384D01*
X643782Y302299D01*
X643771Y302230D01*
X643771Y300000D01*
X643780Y299936D01*
X643779Y299872D01*
X643800Y299797D01*
X643811Y299721D01*
X643837Y299662D01*
X643854Y299600D01*
X643895Y299534D01*
X643927Y299464D01*
X643969Y299415D01*
X644002Y299360D01*
X644060Y299308D01*
X644110Y299250D01*
X644164Y299214D01*
X644212Y299171D01*
X644281Y299138D01*
X644346Y299095D01*
X644408Y299076D01*
X644465Y299048D01*
X644535Y299037D01*
X644616Y299013D01*
X644701Y299012D01*
X644770Y299001D01*
X653165Y299001D01*
X653260Y299014D01*
X653356Y299019D01*
X653400Y299034D01*
X653445Y299041D01*
X653532Y299080D01*
X653623Y299112D01*
X653657Y299137D01*
X653701Y299157D01*
X653799Y299240D01*
X653872Y299293D01*
X654155Y299577D01*
X667452Y299577D01*
X667546Y299590D01*
X667643Y299595D01*
X667686Y299610D01*
X667731Y299617D01*
X667818Y299656D01*
X667909Y299688D01*
X667944Y299713D01*
X667988Y299733D01*
X668085Y299816D01*
X668158Y299869D01*
X674437Y306148D01*
X674494Y306225D01*
X674559Y306296D01*
X674579Y306337D01*
X674606Y306373D01*
X674640Y306464D01*
X674682Y306550D01*
X674688Y306592D01*
X674705Y306637D01*
X674715Y306765D01*
X674729Y306854D01*
X674729Y315526D01*
X675474Y316271D01*
X687526Y316271D01*
X688271Y315526D01*
X688271Y304474D01*
X687526Y303729D01*
X678854Y303729D01*
X678840Y303727D01*
X678760Y303716D01*
X678711Y303713D01*
X678663Y303711D01*
X678620Y303696D01*
X678575Y303689D01*
X678488Y303650D01*
X678397Y303618D01*
X678363Y303593D01*
X678318Y303573D01*
X678221Y303490D01*
X678148Y303437D01*
X675418Y300707D01*
X675418Y300706D01*
X671379Y296668D01*
X671308Y296573D01*
X671233Y296482D01*
X671224Y296461D01*
X671210Y296443D01*
X671168Y296332D01*
X671121Y296223D01*
X671119Y296200D01*
X671111Y296179D01*
X671101Y296060D01*
X671087Y295943D01*
X671091Y295920D01*
X671089Y295897D01*
X671113Y295781D01*
X671132Y295664D01*
X671142Y295644D01*
X671146Y295621D01*
X671202Y295517D01*
X671253Y295410D01*
X671268Y295393D01*
X671279Y295372D01*
X671362Y295287D01*
X671440Y295199D01*
X671459Y295188D01*
X671476Y295170D01*
X671638Y295079D01*
X671704Y295038D01*
X673006Y294499D01*
X674499Y293006D01*
X675307Y291056D01*
X675307Y288944D01*
X674499Y286994D01*
X673006Y285501D01*
X671056Y284693D01*
X668944Y284693D01*
X668152Y285021D01*
X668037Y285051D01*
X667924Y285085D01*
X667901Y285086D01*
X667879Y285091D01*
X667761Y285088D01*
X667642Y285089D01*
X667620Y285083D01*
X667597Y285082D01*
X667485Y285046D01*
X667370Y285014D01*
X667351Y285002D01*
X667329Y284995D01*
X667231Y284928D01*
X667130Y284866D01*
X667115Y284849D01*
X667096Y284836D01*
X667021Y284745D01*
X666941Y284657D01*
X666931Y284636D01*
X666917Y284618D01*
X666870Y284510D01*
X666818Y284403D01*
X666815Y284381D01*
X666805Y284359D01*
X666783Y284174D01*
X666771Y284098D01*
X666771Y282974D01*
X666026Y282229D01*
X653974Y282229D01*
X653229Y282974D01*
X653229Y289816D01*
X653225Y289848D01*
X653227Y289880D01*
X653221Y289910D01*
X653221Y289913D01*
X653218Y289923D01*
X653205Y289987D01*
X653189Y290095D01*
X653176Y290124D01*
X653170Y290156D01*
X653118Y290253D01*
X653073Y290352D01*
X653052Y290376D01*
X653037Y290405D01*
X652961Y290483D01*
X652890Y290566D01*
X652863Y290584D01*
X652840Y290607D01*
X652745Y290661D01*
X652654Y290721D01*
X652623Y290730D01*
X652595Y290746D01*
X652488Y290771D01*
X652384Y290803D01*
X652352Y290804D01*
X652321Y290811D01*
X652211Y290805D01*
X652102Y290807D01*
X652071Y290798D01*
X652039Y290797D01*
X651936Y290761D01*
X651830Y290732D01*
X651803Y290715D01*
X651772Y290704D01*
X651699Y290651D01*
X651590Y290584D01*
X651558Y290547D01*
X651523Y290522D01*
X637063Y276062D01*
X637006Y275986D01*
X636941Y275914D01*
X636921Y275873D01*
X636894Y275837D01*
X636860Y275747D01*
X636818Y275660D01*
X636812Y275618D01*
X636795Y275573D01*
X636785Y275445D01*
X636771Y275356D01*
X636771Y267894D01*
X636775Y267862D01*
X636773Y267830D01*
X636795Y267723D01*
X636811Y267615D01*
X636824Y267586D01*
X636830Y267554D01*
X636882Y267458D01*
X636927Y267358D01*
X636948Y267334D01*
X636963Y267305D01*
X637039Y267227D01*
X637110Y267144D01*
X637137Y267126D01*
X637160Y267103D01*
X637255Y267049D01*
X637346Y266990D01*
X637377Y266980D01*
X637405Y266964D01*
X637512Y266939D01*
X637616Y266907D01*
X637648Y266907D01*
X637679Y266899D01*
X637789Y266905D01*
X637898Y266903D01*
X637929Y266912D01*
X637961Y266914D01*
X638064Y266949D01*
X638170Y266979D01*
X638197Y266996D01*
X638228Y267006D01*
X638301Y267059D01*
X638410Y267127D01*
X638442Y267163D01*
X638477Y267188D01*
X645059Y273771D01*
X652230Y273771D01*
X652294Y273780D01*
X652358Y273779D01*
X652433Y273800D01*
X652509Y273811D01*
X652568Y273837D01*
X652630Y273854D01*
X652696Y273895D01*
X652766Y273927D01*
X652815Y273969D01*
X652870Y274002D01*
X652922Y274060D01*
X652980Y274110D01*
X653016Y274164D01*
X653059Y274212D01*
X653092Y274281D01*
X653135Y274346D01*
X653154Y274408D01*
X653182Y274465D01*
X653193Y274535D01*
X653217Y274616D01*
X653218Y274701D01*
X653229Y274770D01*
X653229Y277026D01*
X653974Y277771D01*
X666026Y277771D01*
X666771Y277026D01*
X666771Y274770D01*
X666779Y274709D01*
X666779Y274668D01*
X666779Y274667D01*
X666779Y274642D01*
X666800Y274567D01*
X666811Y274491D01*
X666837Y274432D01*
X666854Y274370D01*
X666895Y274304D01*
X666927Y274234D01*
X666969Y274185D01*
X667002Y274130D01*
X667060Y274078D01*
X667110Y274020D01*
X667164Y273984D01*
X667212Y273941D01*
X667281Y273908D01*
X667346Y273865D01*
X667408Y273846D01*
X667465Y273818D01*
X667535Y273807D01*
X667616Y273783D01*
X667701Y273782D01*
X667770Y273771D01*
X682230Y273771D01*
X682294Y273780D01*
X682358Y273779D01*
X682433Y273800D01*
X682509Y273811D01*
X682568Y273837D01*
X682630Y273854D01*
X682696Y273895D01*
X682766Y273927D01*
X682815Y273969D01*
X682870Y274002D01*
X682922Y274060D01*
X682980Y274110D01*
X683016Y274164D01*
X683059Y274212D01*
X683092Y274281D01*
X683135Y274346D01*
X683154Y274408D01*
X683182Y274465D01*
X683193Y274535D01*
X683217Y274616D01*
X683218Y274701D01*
X683229Y274770D01*
X683229Y277026D01*
X683974Y277771D01*
X696026Y277771D01*
X696771Y277026D01*
X696771Y265974D01*
X696026Y265229D01*
X683974Y265229D01*
X683229Y265974D01*
X683229Y268230D01*
X683220Y268294D01*
X683221Y268358D01*
X683200Y268433D01*
X683189Y268509D01*
X683163Y268568D01*
X683146Y268630D01*
X683105Y268696D01*
X683073Y268766D01*
X683031Y268815D01*
X682998Y268870D01*
X682940Y268922D01*
X682890Y268980D01*
X682836Y269016D01*
X682788Y269059D01*
X682719Y269092D01*
X682654Y269135D01*
X682592Y269154D01*
X682535Y269182D01*
X682465Y269193D01*
X682384Y269217D01*
X682299Y269218D01*
X682230Y269229D01*
X667770Y269229D01*
X667706Y269220D01*
X667642Y269221D01*
X667567Y269200D01*
X667491Y269189D01*
X667432Y269163D01*
X667370Y269146D01*
X667304Y269105D01*
X667234Y269073D01*
X667185Y269031D01*
X667130Y268998D01*
X667078Y268940D01*
X667020Y268890D01*
X666984Y268836D01*
X666941Y268788D01*
X666908Y268719D01*
X666865Y268654D01*
X666846Y268592D01*
X666818Y268535D01*
X666807Y268465D01*
X666783Y268384D01*
X666782Y268299D01*
X666771Y268230D01*
X666771Y265974D01*
X666026Y265229D01*
X653974Y265229D01*
X653229Y265974D01*
X653229Y268230D01*
X653220Y268294D01*
X653221Y268358D01*
X653200Y268433D01*
X653189Y268509D01*
X653163Y268568D01*
X653146Y268630D01*
X653105Y268696D01*
X653073Y268766D01*
X653031Y268815D01*
X652998Y268870D01*
X652940Y268922D01*
X652890Y268980D01*
X652836Y269016D01*
X652788Y269059D01*
X652719Y269092D01*
X652654Y269135D01*
X652592Y269154D01*
X652535Y269182D01*
X652465Y269193D01*
X652384Y269217D01*
X652299Y269218D01*
X652230Y269229D01*
X647354Y269229D01*
X647260Y269216D01*
X647163Y269211D01*
X647120Y269196D01*
X647075Y269189D01*
X646988Y269150D01*
X646897Y269118D01*
X646862Y269093D01*
X646818Y269073D01*
X646721Y268990D01*
X646648Y268937D01*
X578191Y200479D01*
X443729Y200479D01*
X443634Y200466D01*
X443538Y200461D01*
X443495Y200446D01*
X443450Y200439D01*
X443362Y200400D01*
X443271Y200368D01*
X443237Y200343D01*
X443193Y200323D01*
X443095Y200240D01*
X443022Y200187D01*
X414295Y171459D01*
X396166Y171459D01*
X396071Y171446D01*
X395975Y171441D01*
X395932Y171426D01*
X395887Y171419D01*
X395800Y171380D01*
X395709Y171348D01*
X395674Y171323D01*
X395630Y171303D01*
X395533Y171220D01*
X395460Y171167D01*
X385002Y160709D01*
X384931Y160614D01*
X384855Y160522D01*
X384846Y160501D01*
X384833Y160483D01*
X384791Y160372D01*
X384744Y160263D01*
X384741Y160241D01*
X384733Y160219D01*
X384724Y160101D01*
X384709Y159983D01*
X384713Y159961D01*
X384711Y159938D01*
X384735Y159822D01*
X384754Y159705D01*
X384764Y159684D01*
X384769Y159662D01*
X384825Y159557D01*
X384875Y159450D01*
X384891Y159433D01*
X384901Y159413D01*
X384984Y159328D01*
X385063Y159239D01*
X385081Y159228D01*
X385098Y159211D01*
X385260Y159119D01*
X385326Y159079D01*
X386924Y158417D01*
X388417Y156924D01*
X389225Y154974D01*
X389225Y152863D01*
X389163Y152713D01*
X389134Y152599D01*
X389099Y152485D01*
X389099Y152462D01*
X389093Y152440D01*
X389097Y152322D01*
X389095Y152203D01*
X389101Y152181D01*
X389102Y152158D01*
X389139Y152046D01*
X389170Y151931D01*
X389182Y151912D01*
X389189Y151890D01*
X389256Y151792D01*
X389319Y151691D01*
X389335Y151676D01*
X389348Y151657D01*
X389440Y151582D01*
X389528Y151502D01*
X389548Y151492D01*
X389566Y151478D01*
X389675Y151431D01*
X389782Y151379D01*
X389803Y151376D01*
X389825Y151366D01*
X390010Y151344D01*
X390086Y151332D01*
X392779Y151332D01*
X392943Y151168D01*
X392995Y151129D01*
X393040Y151083D01*
X393072Y151065D01*
X393078Y151060D01*
X393102Y151048D01*
X393107Y151045D01*
X393169Y150998D01*
X393229Y150976D01*
X393285Y150944D01*
X393360Y150926D01*
X393433Y150899D01*
X393497Y150894D01*
X393559Y150879D01*
X393637Y150883D01*
X393714Y150877D01*
X393777Y150890D01*
X393841Y150893D01*
X393914Y150919D01*
X393990Y150935D01*
X394047Y150965D01*
X394108Y150986D01*
X394164Y151027D01*
X394183Y151037D01*
X394200Y151045D01*
X394204Y151049D01*
X394239Y151067D01*
X394300Y151126D01*
X394357Y151168D01*
X394521Y151332D01*
X399129Y151332D01*
X399293Y151168D01*
X399345Y151129D01*
X399390Y151083D01*
X399422Y151065D01*
X399428Y151060D01*
X399452Y151048D01*
X399457Y151045D01*
X399519Y150998D01*
X399579Y150976D01*
X399635Y150944D01*
X399710Y150926D01*
X399783Y150899D01*
X399847Y150894D01*
X399909Y150879D01*
X399987Y150883D01*
X400064Y150877D01*
X400127Y150890D01*
X400191Y150893D01*
X400264Y150919D01*
X400340Y150935D01*
X400397Y150965D01*
X400458Y150986D01*
X400514Y151027D01*
X400533Y151037D01*
X400550Y151045D01*
X400554Y151049D01*
X400589Y151067D01*
X400650Y151126D01*
X400707Y151168D01*
X400871Y151332D01*
X405479Y151332D01*
X405643Y151168D01*
X405695Y151129D01*
X405740Y151083D01*
X405772Y151065D01*
X405778Y151060D01*
X405802Y151048D01*
X405807Y151045D01*
X405869Y150998D01*
X405929Y150976D01*
X405985Y150944D01*
X406060Y150926D01*
X406133Y150899D01*
X406197Y150894D01*
X406259Y150879D01*
X406337Y150883D01*
X406414Y150877D01*
X406477Y150890D01*
X406541Y150893D01*
X406614Y150919D01*
X406690Y150935D01*
X406747Y150965D01*
X406808Y150986D01*
X406864Y151027D01*
X406883Y151037D01*
X406900Y151045D01*
X406904Y151049D01*
X406939Y151067D01*
X407000Y151126D01*
X407057Y151168D01*
X407221Y151332D01*
X411829Y151332D01*
X411993Y151168D01*
X412045Y151129D01*
X412090Y151083D01*
X412122Y151065D01*
X412128Y151060D01*
X412152Y151048D01*
X412157Y151045D01*
X412219Y150998D01*
X412279Y150976D01*
X412335Y150944D01*
X412410Y150926D01*
X412483Y150899D01*
X412547Y150894D01*
X412609Y150879D01*
X412687Y150883D01*
X412764Y150877D01*
X412827Y150890D01*
X412891Y150893D01*
X412964Y150919D01*
X413040Y150935D01*
X413097Y150965D01*
X413158Y150986D01*
X413214Y151027D01*
X413233Y151037D01*
X413250Y151045D01*
X413254Y151049D01*
X413289Y151067D01*
X413350Y151126D01*
X413407Y151168D01*
X413571Y151332D01*
X418179Y151332D01*
X418343Y151168D01*
X418395Y151129D01*
X418440Y151083D01*
X418472Y151065D01*
X418478Y151060D01*
X418502Y151048D01*
X418507Y151045D01*
X418569Y150998D01*
X418629Y150976D01*
X418685Y150944D01*
X418760Y150926D01*
X418833Y150899D01*
X418897Y150894D01*
X418959Y150879D01*
X419037Y150883D01*
X419114Y150877D01*
X419177Y150890D01*
X419241Y150893D01*
X419314Y150919D01*
X419390Y150935D01*
X419447Y150965D01*
X419508Y150986D01*
X419564Y151027D01*
X419583Y151037D01*
X419600Y151045D01*
X419604Y151049D01*
X419639Y151067D01*
X419700Y151126D01*
X419757Y151168D01*
X419921Y151332D01*
X424529Y151332D01*
X425274Y150587D01*
X425274Y134930D01*
X424788Y134444D01*
X424731Y134368D01*
X424666Y134296D01*
X424646Y134255D01*
X424619Y134219D01*
X424585Y134129D01*
X424543Y134042D01*
X424537Y134000D01*
X424520Y133955D01*
X424510Y133827D01*
X424496Y133738D01*
X424496Y122672D01*
X424509Y122577D01*
X424514Y122481D01*
X424529Y122438D01*
X424536Y122393D01*
X424575Y122305D01*
X424607Y122214D01*
X424632Y122180D01*
X424652Y122136D01*
X424735Y122039D01*
X424788Y121965D01*
X437591Y109163D01*
X437591Y31650D01*
X435968Y30028D01*
X432072Y26132D01*
X430450Y24509D01*
X403579Y24509D01*
G37*
%LPD*%
G36*
X460064Y229010D02*
X460064Y229010D01*
X460128Y229009D01*
X460203Y229030D01*
X460279Y229041D01*
X460338Y229067D01*
X460400Y229084D01*
X460466Y229125D01*
X460536Y229157D01*
X460585Y229199D01*
X460640Y229232D01*
X460692Y229290D01*
X460750Y229340D01*
X460786Y229394D01*
X460829Y229442D01*
X460862Y229511D01*
X460905Y229576D01*
X460924Y229638D01*
X460952Y229695D01*
X460963Y229765D01*
X460987Y229846D01*
X460988Y229931D01*
X460999Y230000D01*
X460999Y320000D01*
X460991Y320058D01*
X460991Y320060D01*
X460990Y320063D01*
X460990Y320064D01*
X460991Y320128D01*
X460970Y320203D01*
X460959Y320279D01*
X460933Y320338D01*
X460916Y320400D01*
X460875Y320466D01*
X460843Y320536D01*
X460801Y320585D01*
X460768Y320640D01*
X460710Y320692D01*
X460660Y320750D01*
X460606Y320786D01*
X460558Y320829D01*
X460489Y320862D01*
X460424Y320905D01*
X460362Y320924D01*
X460305Y320952D01*
X460235Y320963D01*
X460154Y320987D01*
X460069Y320988D01*
X460000Y320999D01*
X270000Y320999D01*
X269936Y320990D01*
X269872Y320991D01*
X269797Y320970D01*
X269721Y320959D01*
X269662Y320933D01*
X269600Y320916D01*
X269534Y320875D01*
X269464Y320843D01*
X269415Y320801D01*
X269360Y320768D01*
X269308Y320710D01*
X269250Y320660D01*
X269214Y320606D01*
X269171Y320558D01*
X269138Y320489D01*
X269095Y320424D01*
X269076Y320362D01*
X269048Y320305D01*
X269037Y320235D01*
X269013Y320154D01*
X269012Y320069D01*
X269001Y320000D01*
X269001Y230000D01*
X269010Y229936D01*
X269009Y229872D01*
X269030Y229797D01*
X269041Y229721D01*
X269067Y229662D01*
X269084Y229600D01*
X269125Y229534D01*
X269157Y229464D01*
X269199Y229415D01*
X269232Y229360D01*
X269290Y229308D01*
X269340Y229250D01*
X269394Y229214D01*
X269442Y229171D01*
X269511Y229138D01*
X269576Y229095D01*
X269638Y229076D01*
X269695Y229048D01*
X269765Y229037D01*
X269846Y229013D01*
X269931Y229012D01*
X270000Y229001D01*
X460000Y229001D01*
X460064Y229010D01*
G37*
%LPC*%
G36*
X254174Y365329D02*
X254174Y365329D01*
X253429Y366074D01*
X253429Y396126D01*
X254174Y396871D01*
X275366Y396871D01*
X275430Y396880D01*
X275494Y396879D01*
X275569Y396900D01*
X275645Y396911D01*
X275704Y396937D01*
X275766Y396954D01*
X275832Y396995D01*
X275902Y397027D01*
X275951Y397069D01*
X276006Y397102D01*
X276058Y397160D01*
X276116Y397210D01*
X276152Y397264D01*
X276195Y397312D01*
X276228Y397381D01*
X276271Y397446D01*
X276290Y397508D01*
X276318Y397565D01*
X276329Y397635D01*
X276353Y397716D01*
X276354Y397801D01*
X276365Y397870D01*
X276365Y399511D01*
X277177Y401472D01*
X283437Y407731D01*
X283494Y407808D01*
X283559Y407879D01*
X283579Y407920D01*
X283606Y407957D01*
X283640Y408047D01*
X283682Y408133D01*
X283688Y408175D01*
X283705Y408220D01*
X283715Y408348D01*
X283729Y408438D01*
X283729Y427276D01*
X284474Y428021D01*
X315526Y428021D01*
X316271Y427276D01*
X316271Y423084D01*
X316280Y423020D01*
X316279Y422956D01*
X316300Y422881D01*
X316311Y422805D01*
X316337Y422746D01*
X316354Y422684D01*
X316395Y422618D01*
X316427Y422548D01*
X316469Y422499D01*
X316502Y422444D01*
X316560Y422392D01*
X316610Y422334D01*
X316664Y422298D01*
X316712Y422255D01*
X316781Y422222D01*
X316846Y422179D01*
X316908Y422160D01*
X316965Y422132D01*
X317035Y422121D01*
X317116Y422097D01*
X317201Y422096D01*
X317270Y422085D01*
X324311Y422085D01*
X326272Y421273D01*
X329219Y418325D01*
X329296Y418268D01*
X329367Y418203D01*
X329408Y418183D01*
X329445Y418156D01*
X329535Y418122D01*
X329621Y418080D01*
X329663Y418074D01*
X329709Y418057D01*
X329836Y418047D01*
X329926Y418033D01*
X331598Y418033D01*
X334550Y416810D01*
X336810Y414550D01*
X338033Y411598D01*
X338033Y408402D01*
X336810Y405450D01*
X334550Y403190D01*
X331598Y401967D01*
X328402Y401967D01*
X325450Y403190D01*
X323190Y405450D01*
X321967Y408402D01*
X321967Y410074D01*
X321954Y410169D01*
X321949Y410266D01*
X321934Y410309D01*
X321927Y410354D01*
X321888Y410441D01*
X321856Y410532D01*
X321831Y410566D01*
X321811Y410611D01*
X321728Y410708D01*
X321675Y410781D01*
X321333Y411123D01*
X321256Y411180D01*
X321185Y411245D01*
X321144Y411265D01*
X321107Y411292D01*
X321017Y411326D01*
X320931Y411368D01*
X320889Y411374D01*
X320843Y411391D01*
X320716Y411401D01*
X320626Y411415D01*
X317270Y411415D01*
X317206Y411406D01*
X317142Y411407D01*
X317067Y411386D01*
X316991Y411375D01*
X316932Y411349D01*
X316870Y411332D01*
X316804Y411291D01*
X316734Y411259D01*
X316685Y411217D01*
X316630Y411184D01*
X316578Y411126D01*
X316520Y411076D01*
X316484Y411022D01*
X316441Y410974D01*
X316408Y410905D01*
X316365Y410840D01*
X316346Y410778D01*
X316318Y410721D01*
X316307Y410651D01*
X316283Y410570D01*
X316282Y410485D01*
X316271Y410416D01*
X316271Y406224D01*
X315526Y405479D01*
X296688Y405479D01*
X296593Y405466D01*
X296496Y405461D01*
X296453Y405446D01*
X296408Y405439D01*
X296321Y405400D01*
X296230Y405368D01*
X296196Y405343D01*
X296151Y405323D01*
X296054Y405240D01*
X295981Y405187D01*
X289371Y398577D01*
X289352Y398551D01*
X289327Y398530D01*
X289267Y398438D01*
X289202Y398351D01*
X289190Y398321D01*
X289173Y398294D01*
X289141Y398189D01*
X289102Y398087D01*
X289100Y398055D01*
X289090Y398024D01*
X289089Y397915D01*
X289080Y397806D01*
X289087Y397774D01*
X289087Y397742D01*
X289116Y397637D01*
X289138Y397530D01*
X289153Y397501D01*
X289162Y397470D01*
X289219Y397377D01*
X289270Y397281D01*
X289293Y397258D01*
X289310Y397230D01*
X289391Y397157D01*
X289467Y397079D01*
X289495Y397063D01*
X289519Y397041D01*
X289617Y396994D01*
X289713Y396940D01*
X289744Y396932D01*
X289773Y396918D01*
X289862Y396904D01*
X289987Y396875D01*
X290036Y396877D01*
X290078Y396871D01*
X309226Y396871D01*
X309971Y396126D01*
X309971Y366074D01*
X309226Y365329D01*
X254174Y365329D01*
G37*
%LPD*%
%LPC*%
G36*
X396070Y679229D02*
X396070Y679229D01*
X388478Y681264D01*
X381671Y685193D01*
X376113Y690751D01*
X372184Y697558D01*
X370149Y705150D01*
X370149Y713010D01*
X372184Y720602D01*
X376113Y727409D01*
X381671Y732967D01*
X388478Y736896D01*
X396070Y738931D01*
X403930Y738931D01*
X411522Y736896D01*
X418329Y732967D01*
X423887Y727409D01*
X427816Y720602D01*
X429851Y713010D01*
X429851Y705150D01*
X427816Y697558D01*
X423887Y690751D01*
X418329Y685193D01*
X411522Y681264D01*
X403930Y679229D01*
X396070Y679229D01*
G37*
%LPD*%
%LPC*%
G36*
X746070Y249229D02*
X746070Y249229D01*
X738478Y251264D01*
X731671Y255193D01*
X726113Y260751D01*
X722184Y267558D01*
X720149Y275150D01*
X720149Y283010D01*
X722184Y290602D01*
X726113Y297409D01*
X731671Y302967D01*
X738478Y306896D01*
X746070Y308931D01*
X753930Y308931D01*
X761522Y306896D01*
X768329Y302967D01*
X773887Y297409D01*
X777816Y290602D01*
X779851Y283010D01*
X779851Y275150D01*
X777816Y267558D01*
X773887Y260751D01*
X768329Y255193D01*
X761522Y251264D01*
X753930Y249229D01*
X746070Y249229D01*
G37*
%LPD*%
%LPC*%
G36*
X46070Y249229D02*
X46070Y249229D01*
X38478Y251264D01*
X31671Y255193D01*
X26113Y260751D01*
X22184Y267558D01*
X20149Y275150D01*
X20149Y283010D01*
X22184Y290602D01*
X26113Y297409D01*
X31671Y302967D01*
X38478Y306896D01*
X46070Y308931D01*
X53930Y308931D01*
X61522Y306896D01*
X68329Y302967D01*
X73887Y297409D01*
X77816Y290602D01*
X79851Y283010D01*
X79851Y275150D01*
X77816Y267558D01*
X73887Y260751D01*
X68329Y255193D01*
X61522Y251264D01*
X53930Y249229D01*
X46070Y249229D01*
G37*
%LPD*%
%LPC*%
G36*
X538402Y81967D02*
X538402Y81967D01*
X535450Y83190D01*
X533190Y85450D01*
X531967Y88402D01*
X531967Y91598D01*
X533190Y94550D01*
X534373Y95733D01*
X534430Y95809D01*
X534495Y95881D01*
X534515Y95922D01*
X534542Y95958D01*
X534576Y96048D01*
X534618Y96135D01*
X534624Y96177D01*
X534641Y96222D01*
X534651Y96350D01*
X534665Y96439D01*
X534665Y98980D01*
X534657Y99039D01*
X534657Y99056D01*
X534656Y99058D01*
X534657Y99108D01*
X534636Y99183D01*
X534625Y99259D01*
X534599Y99318D01*
X534582Y99380D01*
X534541Y99446D01*
X534509Y99516D01*
X534467Y99565D01*
X534434Y99620D01*
X534376Y99672D01*
X534326Y99730D01*
X534272Y99766D01*
X534224Y99809D01*
X534155Y99842D01*
X534090Y99885D01*
X534028Y99904D01*
X533971Y99932D01*
X533901Y99943D01*
X533820Y99967D01*
X533735Y99968D01*
X533666Y99979D01*
X529524Y99979D01*
X528779Y100724D01*
X528779Y155076D01*
X529524Y155821D01*
X547076Y155821D01*
X547821Y155076D01*
X547821Y100724D01*
X547076Y99979D01*
X546334Y99979D01*
X546270Y99970D01*
X546206Y99971D01*
X546131Y99950D01*
X546055Y99939D01*
X545996Y99913D01*
X545934Y99896D01*
X545868Y99855D01*
X545798Y99823D01*
X545749Y99781D01*
X545694Y99748D01*
X545642Y99690D01*
X545584Y99640D01*
X545548Y99586D01*
X545505Y99538D01*
X545472Y99469D01*
X545429Y99404D01*
X545410Y99342D01*
X545382Y99285D01*
X545371Y99215D01*
X545347Y99134D01*
X545346Y99049D01*
X545335Y98980D01*
X545335Y96439D01*
X545348Y96344D01*
X545353Y96248D01*
X545368Y96205D01*
X545375Y96160D01*
X545414Y96072D01*
X545446Y95982D01*
X545471Y95947D01*
X545491Y95903D01*
X545574Y95806D01*
X545627Y95733D01*
X546810Y94550D01*
X548033Y91598D01*
X548033Y88402D01*
X546810Y85450D01*
X544550Y83190D01*
X541598Y81967D01*
X538402Y81967D01*
G37*
%LPD*%
%LPC*%
G36*
X396320Y601499D02*
X396320Y601499D01*
X389520Y604316D01*
X384316Y609520D01*
X381499Y616320D01*
X381499Y623680D01*
X384316Y630480D01*
X389520Y635684D01*
X396320Y638501D01*
X403680Y638501D01*
X410480Y635684D01*
X415684Y630480D01*
X418501Y623680D01*
X418501Y616320D01*
X415684Y609520D01*
X410480Y604316D01*
X403680Y601499D01*
X396320Y601499D01*
G37*
%LPD*%
%LPC*%
G36*
X716320Y61499D02*
X716320Y61499D01*
X709520Y64316D01*
X704316Y69520D01*
X701499Y76320D01*
X701499Y83680D01*
X704316Y90480D01*
X709520Y95684D01*
X716320Y98501D01*
X723680Y98501D01*
X730480Y95684D01*
X735684Y90480D01*
X738501Y83680D01*
X738501Y76320D01*
X735684Y69520D01*
X730480Y64316D01*
X723680Y61499D01*
X716320Y61499D01*
G37*
%LPD*%
%LPC*%
G36*
X76320Y61499D02*
X76320Y61499D01*
X69520Y64316D01*
X64316Y69520D01*
X61499Y76320D01*
X61499Y83680D01*
X64316Y90480D01*
X69520Y95684D01*
X76320Y98501D01*
X83680Y98501D01*
X90480Y95684D01*
X95684Y90480D01*
X98501Y83680D01*
X98501Y76320D01*
X95684Y69520D01*
X90480Y64316D01*
X83680Y61499D01*
X76320Y61499D01*
G37*
%LPD*%
%LPC*%
G36*
X328402Y446967D02*
X328402Y446967D01*
X325450Y448190D01*
X323190Y450450D01*
X321967Y453402D01*
X321967Y455074D01*
X321954Y455169D01*
X321949Y455266D01*
X321934Y455309D01*
X321927Y455354D01*
X321888Y455441D01*
X321856Y455532D01*
X321831Y455566D01*
X321811Y455611D01*
X321728Y455708D01*
X321675Y455781D01*
X319833Y457623D01*
X319756Y457680D01*
X319685Y457745D01*
X319644Y457765D01*
X319607Y457792D01*
X319517Y457826D01*
X319431Y457868D01*
X319389Y457874D01*
X319343Y457891D01*
X319216Y457901D01*
X319126Y457915D01*
X317270Y457915D01*
X317206Y457906D01*
X317142Y457907D01*
X317067Y457886D01*
X316991Y457875D01*
X316932Y457849D01*
X316870Y457832D01*
X316804Y457791D01*
X316734Y457759D01*
X316685Y457717D01*
X316630Y457684D01*
X316578Y457626D01*
X316520Y457576D01*
X316484Y457522D01*
X316441Y457474D01*
X316408Y457405D01*
X316365Y457340D01*
X316346Y457278D01*
X316318Y457221D01*
X316307Y457151D01*
X316283Y457070D01*
X316282Y456985D01*
X316271Y456916D01*
X316271Y452724D01*
X315526Y451979D01*
X284474Y451979D01*
X283729Y452724D01*
X283729Y473776D01*
X284474Y474521D01*
X315526Y474521D01*
X316271Y473776D01*
X316271Y469584D01*
X316280Y469520D01*
X316279Y469456D01*
X316300Y469381D01*
X316311Y469305D01*
X316337Y469246D01*
X316354Y469184D01*
X316395Y469118D01*
X316427Y469048D01*
X316469Y468999D01*
X316502Y468944D01*
X316560Y468892D01*
X316610Y468834D01*
X316664Y468798D01*
X316712Y468755D01*
X316781Y468722D01*
X316846Y468679D01*
X316908Y468660D01*
X316965Y468632D01*
X317035Y468621D01*
X317116Y468597D01*
X317201Y468596D01*
X317270Y468585D01*
X322811Y468585D01*
X324772Y467773D01*
X329219Y463325D01*
X329296Y463268D01*
X329367Y463203D01*
X329408Y463183D01*
X329445Y463156D01*
X329535Y463122D01*
X329621Y463080D01*
X329663Y463074D01*
X329709Y463057D01*
X329836Y463047D01*
X329926Y463033D01*
X331598Y463033D01*
X334550Y461810D01*
X336810Y459550D01*
X338033Y456598D01*
X338033Y453402D01*
X336810Y450450D01*
X334550Y448190D01*
X331598Y446967D01*
X328402Y446967D01*
G37*
%LPD*%
%LPC*%
G36*
X42974Y194729D02*
X42974Y194729D01*
X42229Y195474D01*
X42229Y204526D01*
X42974Y205271D01*
X49146Y205271D01*
X49240Y205284D01*
X49337Y205289D01*
X49380Y205304D01*
X49425Y205311D01*
X49512Y205350D01*
X49603Y205382D01*
X49638Y205407D01*
X49682Y205427D01*
X49779Y205510D01*
X49852Y205563D01*
X56559Y212271D01*
X124230Y212271D01*
X124294Y212280D01*
X124358Y212279D01*
X124433Y212300D01*
X124509Y212311D01*
X124568Y212337D01*
X124630Y212354D01*
X124696Y212395D01*
X124766Y212427D01*
X124815Y212469D01*
X124870Y212502D01*
X124922Y212560D01*
X124980Y212610D01*
X125016Y212664D01*
X125059Y212712D01*
X125092Y212781D01*
X125135Y212846D01*
X125154Y212908D01*
X125182Y212965D01*
X125193Y213035D01*
X125217Y213116D01*
X125218Y213201D01*
X125229Y213270D01*
X125229Y216026D01*
X125974Y216771D01*
X137026Y216771D01*
X137771Y216026D01*
X137771Y203974D01*
X137026Y203229D01*
X125974Y203229D01*
X125229Y203974D01*
X125229Y206730D01*
X125220Y206794D01*
X125221Y206858D01*
X125200Y206933D01*
X125189Y207009D01*
X125163Y207068D01*
X125146Y207130D01*
X125105Y207196D01*
X125073Y207266D01*
X125031Y207315D01*
X124998Y207370D01*
X124940Y207422D01*
X124890Y207480D01*
X124836Y207516D01*
X124788Y207559D01*
X124719Y207592D01*
X124654Y207635D01*
X124592Y207654D01*
X124535Y207682D01*
X124465Y207693D01*
X124384Y207717D01*
X124299Y207718D01*
X124230Y207729D01*
X58854Y207729D01*
X58760Y207716D01*
X58663Y207711D01*
X58620Y207696D01*
X58575Y207689D01*
X58488Y207650D01*
X58397Y207618D01*
X58362Y207593D01*
X58318Y207573D01*
X58221Y207490D01*
X58148Y207437D01*
X53063Y202352D01*
X53006Y202275D01*
X52941Y202204D01*
X52921Y202163D01*
X52894Y202127D01*
X52860Y202036D01*
X52818Y201950D01*
X52812Y201908D01*
X52795Y201863D01*
X52785Y201735D01*
X52771Y201646D01*
X52771Y195474D01*
X52026Y194729D01*
X42974Y194729D01*
G37*
%LPD*%
%LPC*%
G36*
X42974Y174729D02*
X42974Y174729D01*
X42229Y175474D01*
X42229Y184526D01*
X42974Y185271D01*
X49146Y185271D01*
X49240Y185284D01*
X49337Y185289D01*
X49380Y185304D01*
X49425Y185311D01*
X49512Y185350D01*
X49603Y185382D01*
X49638Y185407D01*
X49682Y185427D01*
X49779Y185510D01*
X49852Y185563D01*
X54059Y189771D01*
X124660Y189771D01*
X124755Y189784D01*
X124851Y189789D01*
X124894Y189804D01*
X124939Y189811D01*
X125027Y189850D01*
X125117Y189882D01*
X125152Y189907D01*
X125196Y189927D01*
X125293Y190010D01*
X125366Y190063D01*
X125974Y190671D01*
X137026Y190671D01*
X137771Y189926D01*
X137771Y177874D01*
X137026Y177129D01*
X125974Y177129D01*
X125229Y177874D01*
X125229Y184230D01*
X125220Y184294D01*
X125221Y184358D01*
X125200Y184433D01*
X125189Y184509D01*
X125163Y184568D01*
X125146Y184630D01*
X125105Y184696D01*
X125073Y184766D01*
X125031Y184815D01*
X124998Y184870D01*
X124940Y184922D01*
X124890Y184980D01*
X124836Y185016D01*
X124788Y185059D01*
X124719Y185092D01*
X124654Y185135D01*
X124592Y185154D01*
X124535Y185182D01*
X124465Y185193D01*
X124384Y185217D01*
X124299Y185218D01*
X124230Y185229D01*
X56354Y185229D01*
X56260Y185216D01*
X56163Y185211D01*
X56120Y185196D01*
X56075Y185189D01*
X55988Y185150D01*
X55897Y185118D01*
X55862Y185093D01*
X55818Y185073D01*
X55721Y184990D01*
X55648Y184937D01*
X53063Y182352D01*
X53006Y182275D01*
X52941Y182204D01*
X52921Y182163D01*
X52894Y182127D01*
X52860Y182036D01*
X52818Y181950D01*
X52812Y181908D01*
X52795Y181863D01*
X52785Y181735D01*
X52771Y181646D01*
X52771Y175474D01*
X52026Y174729D01*
X42974Y174729D01*
G37*
%LPD*%
%LPC*%
G36*
X468402Y701967D02*
X468402Y701967D01*
X465450Y703190D01*
X463190Y705450D01*
X461967Y708402D01*
X461967Y711598D01*
X463190Y714550D01*
X464437Y715797D01*
X464494Y715873D01*
X464559Y715945D01*
X464579Y715986D01*
X464606Y716022D01*
X464640Y716112D01*
X464682Y716199D01*
X464688Y716241D01*
X464705Y716286D01*
X464715Y716414D01*
X464729Y716503D01*
X464729Y720425D01*
X464720Y720489D01*
X464721Y720553D01*
X464700Y720628D01*
X464689Y720704D01*
X464663Y720763D01*
X464646Y720825D01*
X464605Y720891D01*
X464573Y720961D01*
X464531Y721010D01*
X464498Y721065D01*
X464440Y721117D01*
X464390Y721175D01*
X464336Y721211D01*
X464288Y721254D01*
X464219Y721287D01*
X464154Y721330D01*
X464092Y721349D01*
X464035Y721377D01*
X463965Y721388D01*
X463884Y721412D01*
X463799Y721413D01*
X463730Y721424D01*
X461092Y721424D01*
X460347Y722169D01*
X460347Y738461D01*
X461092Y739206D01*
X478908Y739206D01*
X479653Y738461D01*
X479653Y722169D01*
X478908Y721424D01*
X476270Y721424D01*
X476206Y721415D01*
X476142Y721416D01*
X476067Y721395D01*
X475991Y721384D01*
X475932Y721358D01*
X475870Y721341D01*
X475804Y721300D01*
X475734Y721268D01*
X475685Y721226D01*
X475630Y721193D01*
X475578Y721135D01*
X475520Y721085D01*
X475484Y721031D01*
X475441Y720983D01*
X475408Y720914D01*
X475365Y720849D01*
X475346Y720787D01*
X475318Y720730D01*
X475307Y720660D01*
X475283Y720579D01*
X475282Y720494D01*
X475271Y720425D01*
X475271Y716503D01*
X475284Y716408D01*
X475289Y716312D01*
X475304Y716269D01*
X475311Y716224D01*
X475350Y716136D01*
X475382Y716046D01*
X475407Y716011D01*
X475427Y715967D01*
X475510Y715870D01*
X475563Y715797D01*
X476810Y714550D01*
X478033Y711598D01*
X478033Y708402D01*
X476810Y705450D01*
X474550Y703190D01*
X471598Y701967D01*
X468402Y701967D01*
G37*
%LPD*%
%LPC*%
G36*
X135974Y303229D02*
X135974Y303229D01*
X135229Y303974D01*
X135229Y316026D01*
X135974Y316771D01*
X138230Y316771D01*
X138294Y316780D01*
X138358Y316779D01*
X138433Y316800D01*
X138509Y316811D01*
X138568Y316837D01*
X138630Y316854D01*
X138696Y316895D01*
X138766Y316927D01*
X138815Y316969D01*
X138870Y317002D01*
X138922Y317060D01*
X138980Y317110D01*
X139016Y317164D01*
X139059Y317212D01*
X139092Y317281D01*
X139135Y317346D01*
X139154Y317408D01*
X139182Y317465D01*
X139193Y317535D01*
X139217Y317616D01*
X139218Y317701D01*
X139229Y317770D01*
X139229Y331741D01*
X140852Y333363D01*
X155723Y348234D01*
X155728Y348241D01*
X155736Y348247D01*
X155813Y348354D01*
X155892Y348459D01*
X155895Y348468D01*
X155901Y348476D01*
X155945Y348600D01*
X155991Y348723D01*
X155992Y348733D01*
X155995Y348742D01*
X156003Y348873D01*
X156013Y349004D01*
X156011Y349014D01*
X156012Y349023D01*
X155997Y349083D01*
X155997Y349091D01*
X155988Y349127D01*
X155956Y349281D01*
X155944Y349302D01*
X155939Y349323D01*
X155429Y350554D01*
X155429Y353446D01*
X156536Y356119D01*
X158581Y358164D01*
X161254Y359271D01*
X164146Y359271D01*
X166819Y358164D01*
X168864Y356119D01*
X169971Y353446D01*
X169971Y350554D01*
X168864Y347881D01*
X166819Y345836D01*
X164146Y344729D01*
X161254Y344729D01*
X160023Y345239D01*
X160014Y345241D01*
X160005Y345246D01*
X159876Y345277D01*
X159750Y345309D01*
X159740Y345309D01*
X159731Y345311D01*
X159598Y345304D01*
X159468Y345300D01*
X159459Y345297D01*
X159449Y345297D01*
X159325Y345254D01*
X159200Y345213D01*
X159192Y345207D01*
X159183Y345204D01*
X159121Y345159D01*
X158967Y345054D01*
X158951Y345035D01*
X158934Y345023D01*
X144063Y330152D01*
X144006Y330075D01*
X143941Y330004D01*
X143921Y329963D01*
X143894Y329927D01*
X143860Y329836D01*
X143818Y329750D01*
X143812Y329708D01*
X143795Y329663D01*
X143785Y329535D01*
X143771Y329446D01*
X143771Y317770D01*
X143780Y317706D01*
X143779Y317642D01*
X143800Y317567D01*
X143811Y317491D01*
X143837Y317432D01*
X143854Y317370D01*
X143895Y317304D01*
X143927Y317234D01*
X143969Y317185D01*
X144002Y317130D01*
X144060Y317078D01*
X144110Y317020D01*
X144164Y316984D01*
X144212Y316941D01*
X144281Y316908D01*
X144346Y316865D01*
X144408Y316846D01*
X144465Y316818D01*
X144535Y316807D01*
X144616Y316783D01*
X144701Y316782D01*
X144770Y316771D01*
X147026Y316771D01*
X147771Y316026D01*
X147771Y303974D01*
X147026Y303229D01*
X135974Y303229D01*
G37*
%LPD*%
%LPC*%
G36*
X652974Y303229D02*
X652974Y303229D01*
X652229Y303974D01*
X652229Y316026D01*
X652974Y316771D01*
X655230Y316771D01*
X655294Y316780D01*
X655358Y316779D01*
X655433Y316800D01*
X655509Y316811D01*
X655568Y316837D01*
X655630Y316854D01*
X655696Y316895D01*
X655766Y316927D01*
X655815Y316969D01*
X655870Y317002D01*
X655922Y317060D01*
X655980Y317110D01*
X656016Y317164D01*
X656059Y317212D01*
X656092Y317281D01*
X656135Y317346D01*
X656154Y317408D01*
X656182Y317465D01*
X656193Y317535D01*
X656217Y317616D01*
X656218Y317701D01*
X656229Y317770D01*
X656229Y348424D01*
X656223Y348465D01*
X656226Y348506D01*
X656206Y348590D01*
X656189Y348703D01*
X656165Y348756D01*
X656153Y348806D01*
X655429Y350554D01*
X655429Y353446D01*
X656536Y356119D01*
X658581Y358164D01*
X661254Y359271D01*
X664146Y359271D01*
X666819Y358164D01*
X668864Y356119D01*
X669971Y353446D01*
X669971Y350554D01*
X668864Y347881D01*
X666819Y345836D01*
X664146Y344729D01*
X661770Y344729D01*
X661706Y344720D01*
X661642Y344721D01*
X661567Y344700D01*
X661491Y344689D01*
X661432Y344663D01*
X661370Y344646D01*
X661304Y344605D01*
X661234Y344573D01*
X661185Y344531D01*
X661130Y344498D01*
X661078Y344440D01*
X661020Y344390D01*
X660984Y344336D01*
X660941Y344288D01*
X660908Y344219D01*
X660865Y344154D01*
X660846Y344092D01*
X660818Y344035D01*
X660807Y343965D01*
X660783Y343884D01*
X660782Y343799D01*
X660771Y343730D01*
X660771Y317770D01*
X660780Y317706D01*
X660779Y317642D01*
X660800Y317567D01*
X660811Y317491D01*
X660837Y317432D01*
X660854Y317370D01*
X660895Y317304D01*
X660927Y317234D01*
X660969Y317185D01*
X661002Y317130D01*
X661060Y317078D01*
X661110Y317020D01*
X661164Y316984D01*
X661212Y316941D01*
X661281Y316908D01*
X661346Y316865D01*
X661408Y316846D01*
X661465Y316818D01*
X661535Y316807D01*
X661616Y316783D01*
X661701Y316782D01*
X661770Y316771D01*
X664026Y316771D01*
X664771Y316026D01*
X664771Y303974D01*
X664026Y303229D01*
X652974Y303229D01*
G37*
%LPD*%
%LPC*%
G36*
X218220Y150173D02*
X218220Y150173D01*
X217475Y150918D01*
X217475Y169582D01*
X217811Y169918D01*
X217849Y169969D01*
X217895Y170014D01*
X217933Y170081D01*
X217980Y170143D01*
X218003Y170203D01*
X218034Y170259D01*
X218052Y170335D01*
X218079Y170407D01*
X218084Y170471D01*
X218099Y170534D01*
X218095Y170611D01*
X218101Y170688D01*
X218088Y170751D01*
X218085Y170815D01*
X218060Y170889D01*
X218044Y170964D01*
X218013Y171021D01*
X217992Y171082D01*
X217951Y171139D01*
X217911Y171213D01*
X217852Y171274D01*
X217811Y171331D01*
X216289Y172852D01*
X215443Y174895D01*
X215443Y177105D01*
X216289Y179148D01*
X217852Y180711D01*
X219895Y181557D01*
X222105Y181557D01*
X224148Y180711D01*
X225711Y179148D01*
X226557Y177105D01*
X226557Y174895D01*
X225711Y172852D01*
X225563Y172705D01*
X225506Y172628D01*
X225441Y172557D01*
X225421Y172516D01*
X225394Y172479D01*
X225360Y172389D01*
X225318Y172303D01*
X225312Y172261D01*
X225295Y172216D01*
X225285Y172088D01*
X225271Y171998D01*
X225271Y171326D01*
X225280Y171262D01*
X225279Y171198D01*
X225300Y171123D01*
X225311Y171047D01*
X225337Y170988D01*
X225354Y170926D01*
X225395Y170860D01*
X225427Y170790D01*
X225469Y170741D01*
X225502Y170686D01*
X225560Y170634D01*
X225610Y170576D01*
X225664Y170540D01*
X225712Y170497D01*
X225781Y170464D01*
X225846Y170421D01*
X225908Y170402D01*
X225965Y170374D01*
X226035Y170363D01*
X226116Y170339D01*
X226201Y170338D01*
X226270Y170327D01*
X227780Y170327D01*
X228525Y169582D01*
X228525Y150918D01*
X227780Y150173D01*
X218220Y150173D01*
G37*
%LPD*%
%LPC*%
G36*
X508974Y261729D02*
X508974Y261729D01*
X508229Y262474D01*
X508229Y265730D01*
X508220Y265794D01*
X508221Y265858D01*
X508200Y265933D01*
X508189Y266009D01*
X508163Y266068D01*
X508146Y266130D01*
X508105Y266196D01*
X508073Y266266D01*
X508031Y266315D01*
X507998Y266370D01*
X507940Y266422D01*
X507890Y266480D01*
X507836Y266516D01*
X507788Y266559D01*
X507719Y266592D01*
X507654Y266635D01*
X507592Y266654D01*
X507535Y266682D01*
X507465Y266693D01*
X507384Y266717D01*
X507299Y266718D01*
X507230Y266729D01*
X505002Y266729D01*
X504907Y266716D01*
X504810Y266711D01*
X504767Y266696D01*
X504722Y266689D01*
X504635Y266650D01*
X504544Y266618D01*
X504510Y266593D01*
X504465Y266573D01*
X504368Y266490D01*
X504295Y266437D01*
X503148Y265289D01*
X501105Y264443D01*
X498895Y264443D01*
X496852Y265289D01*
X495289Y266852D01*
X494443Y268895D01*
X494443Y271105D01*
X495289Y273148D01*
X496852Y274711D01*
X498895Y275557D01*
X501105Y275557D01*
X503148Y274711D01*
X504295Y273563D01*
X504372Y273506D01*
X504443Y273441D01*
X504484Y273421D01*
X504521Y273394D01*
X504611Y273360D01*
X504697Y273318D01*
X504739Y273312D01*
X504784Y273295D01*
X504912Y273285D01*
X505002Y273271D01*
X507230Y273271D01*
X507294Y273280D01*
X507358Y273279D01*
X507433Y273300D01*
X507509Y273311D01*
X507568Y273337D01*
X507630Y273354D01*
X507696Y273395D01*
X507766Y273427D01*
X507815Y273469D01*
X507870Y273502D01*
X507922Y273560D01*
X507980Y273610D01*
X508016Y273664D01*
X508059Y273712D01*
X508092Y273781D01*
X508135Y273846D01*
X508154Y273908D01*
X508182Y273965D01*
X508193Y274035D01*
X508217Y274116D01*
X508218Y274201D01*
X508229Y274270D01*
X508229Y277526D01*
X508974Y278271D01*
X519026Y278271D01*
X519771Y277526D01*
X519771Y262474D01*
X519026Y261729D01*
X508974Y261729D01*
G37*
%LPD*%
%LPC*%
G36*
X142974Y203229D02*
X142974Y203229D01*
X142229Y203974D01*
X142229Y216026D01*
X142974Y216771D01*
X146730Y216771D01*
X146794Y216780D01*
X146858Y216779D01*
X146933Y216800D01*
X147009Y216811D01*
X147068Y216837D01*
X147130Y216854D01*
X147196Y216895D01*
X147266Y216927D01*
X147315Y216969D01*
X147370Y217002D01*
X147422Y217060D01*
X147480Y217110D01*
X147516Y217164D01*
X147559Y217212D01*
X147592Y217281D01*
X147635Y217346D01*
X147654Y217408D01*
X147682Y217465D01*
X147693Y217535D01*
X147717Y217616D01*
X147718Y217701D01*
X147729Y217770D01*
X147729Y224258D01*
X147728Y224268D01*
X147729Y224277D01*
X147708Y224407D01*
X147689Y224538D01*
X147686Y224546D01*
X147684Y224556D01*
X147627Y224675D01*
X147573Y224794D01*
X147567Y224802D01*
X147563Y224810D01*
X147475Y224909D01*
X147390Y225009D01*
X147382Y225014D01*
X147376Y225021D01*
X147310Y225061D01*
X147154Y225163D01*
X147131Y225170D01*
X147112Y225182D01*
X146852Y225289D01*
X145289Y226852D01*
X144443Y228895D01*
X144443Y231105D01*
X145289Y233148D01*
X146852Y234711D01*
X148895Y235557D01*
X151105Y235557D01*
X153148Y234711D01*
X154711Y233148D01*
X155557Y231105D01*
X155557Y228895D01*
X154711Y226852D01*
X153148Y225289D01*
X152888Y225182D01*
X152879Y225177D01*
X152870Y225174D01*
X152758Y225105D01*
X152645Y225038D01*
X152638Y225031D01*
X152630Y225026D01*
X152542Y224928D01*
X152452Y224832D01*
X152448Y224824D01*
X152441Y224817D01*
X152384Y224698D01*
X152324Y224581D01*
X152322Y224571D01*
X152318Y224563D01*
X152306Y224487D01*
X152272Y224304D01*
X152274Y224280D01*
X152271Y224258D01*
X152271Y217770D01*
X152279Y217712D01*
X152279Y217711D01*
X152279Y217709D01*
X152280Y217706D01*
X152279Y217642D01*
X152300Y217567D01*
X152311Y217491D01*
X152337Y217432D01*
X152354Y217370D01*
X152395Y217304D01*
X152427Y217234D01*
X152469Y217185D01*
X152502Y217130D01*
X152560Y217078D01*
X152610Y217020D01*
X152664Y216984D01*
X152712Y216941D01*
X152781Y216908D01*
X152846Y216865D01*
X152908Y216846D01*
X152965Y216818D01*
X153035Y216807D01*
X153116Y216783D01*
X153201Y216782D01*
X153270Y216771D01*
X154026Y216771D01*
X154771Y216026D01*
X154771Y203974D01*
X154026Y203229D01*
X142974Y203229D01*
G37*
%LPD*%
%LPC*%
G36*
X8895Y184443D02*
X8895Y184443D01*
X6852Y185289D01*
X5289Y186852D01*
X4443Y188895D01*
X4443Y191105D01*
X5289Y193148D01*
X6852Y194711D01*
X8895Y195557D01*
X11105Y195557D01*
X11365Y195449D01*
X11375Y195447D01*
X11383Y195442D01*
X11512Y195412D01*
X11638Y195379D01*
X11648Y195379D01*
X11657Y195377D01*
X11790Y195384D01*
X11920Y195388D01*
X11929Y195391D01*
X11939Y195391D01*
X12064Y195435D01*
X12189Y195475D01*
X12196Y195481D01*
X12205Y195484D01*
X12268Y195529D01*
X12422Y195634D01*
X12437Y195653D01*
X12454Y195666D01*
X19059Y202271D01*
X26230Y202271D01*
X26294Y202280D01*
X26358Y202279D01*
X26433Y202300D01*
X26509Y202311D01*
X26568Y202337D01*
X26630Y202354D01*
X26696Y202395D01*
X26766Y202427D01*
X26815Y202469D01*
X26870Y202502D01*
X26922Y202560D01*
X26980Y202610D01*
X27016Y202664D01*
X27059Y202712D01*
X27092Y202781D01*
X27135Y202846D01*
X27154Y202908D01*
X27182Y202965D01*
X27193Y203035D01*
X27217Y203116D01*
X27218Y203201D01*
X27229Y203270D01*
X27229Y204526D01*
X27974Y205271D01*
X37026Y205271D01*
X37771Y204526D01*
X37771Y195474D01*
X37026Y194729D01*
X27974Y194729D01*
X27229Y195474D01*
X27229Y196730D01*
X27220Y196794D01*
X27221Y196858D01*
X27200Y196933D01*
X27189Y197009D01*
X27163Y197068D01*
X27146Y197130D01*
X27105Y197196D01*
X27073Y197266D01*
X27031Y197315D01*
X26998Y197370D01*
X26940Y197422D01*
X26890Y197480D01*
X26836Y197516D01*
X26788Y197559D01*
X26719Y197592D01*
X26654Y197635D01*
X26592Y197654D01*
X26535Y197682D01*
X26465Y197693D01*
X26384Y197717D01*
X26299Y197718D01*
X26230Y197729D01*
X21354Y197729D01*
X21260Y197716D01*
X21163Y197711D01*
X21120Y197696D01*
X21075Y197689D01*
X20988Y197650D01*
X20897Y197618D01*
X20862Y197593D01*
X20818Y197573D01*
X20721Y197490D01*
X20648Y197437D01*
X15666Y192454D01*
X15660Y192447D01*
X15652Y192441D01*
X15575Y192334D01*
X15496Y192229D01*
X15493Y192220D01*
X15487Y192212D01*
X15444Y192089D01*
X15397Y191965D01*
X15396Y191955D01*
X15393Y191946D01*
X15385Y191815D01*
X15375Y191684D01*
X15377Y191674D01*
X15376Y191665D01*
X15395Y191590D01*
X15433Y191408D01*
X15444Y191386D01*
X15449Y191365D01*
X15557Y191105D01*
X15557Y188895D01*
X14711Y186852D01*
X13148Y185289D01*
X11105Y184443D01*
X8895Y184443D01*
G37*
%LPD*%
%LPC*%
G36*
X8895Y164443D02*
X8895Y164443D01*
X6852Y165289D01*
X5289Y166852D01*
X4443Y168895D01*
X4443Y171105D01*
X5289Y173148D01*
X6852Y174711D01*
X8895Y175557D01*
X11105Y175557D01*
X11365Y175449D01*
X11375Y175447D01*
X11383Y175442D01*
X11512Y175412D01*
X11638Y175379D01*
X11648Y175379D01*
X11657Y175377D01*
X11790Y175384D01*
X11920Y175388D01*
X11929Y175391D01*
X11939Y175391D01*
X12064Y175435D01*
X12189Y175475D01*
X12196Y175481D01*
X12205Y175484D01*
X12268Y175529D01*
X12422Y175634D01*
X12437Y175653D01*
X12454Y175666D01*
X19059Y182271D01*
X26230Y182271D01*
X26294Y182280D01*
X26358Y182279D01*
X26433Y182300D01*
X26509Y182311D01*
X26568Y182337D01*
X26630Y182354D01*
X26696Y182395D01*
X26766Y182427D01*
X26815Y182469D01*
X26870Y182502D01*
X26922Y182560D01*
X26980Y182610D01*
X27016Y182664D01*
X27059Y182712D01*
X27092Y182781D01*
X27135Y182846D01*
X27154Y182908D01*
X27182Y182965D01*
X27193Y183035D01*
X27217Y183116D01*
X27218Y183201D01*
X27229Y183270D01*
X27229Y184526D01*
X27974Y185271D01*
X37026Y185271D01*
X37771Y184526D01*
X37771Y175474D01*
X37026Y174729D01*
X27974Y174729D01*
X27229Y175474D01*
X27229Y176730D01*
X27220Y176794D01*
X27221Y176858D01*
X27200Y176933D01*
X27189Y177009D01*
X27163Y177068D01*
X27146Y177130D01*
X27105Y177196D01*
X27073Y177266D01*
X27031Y177315D01*
X26998Y177370D01*
X26940Y177422D01*
X26890Y177480D01*
X26836Y177516D01*
X26788Y177559D01*
X26719Y177592D01*
X26654Y177635D01*
X26592Y177654D01*
X26535Y177682D01*
X26465Y177693D01*
X26384Y177717D01*
X26299Y177718D01*
X26230Y177729D01*
X21354Y177729D01*
X21260Y177716D01*
X21163Y177711D01*
X21120Y177696D01*
X21075Y177689D01*
X20988Y177650D01*
X20897Y177618D01*
X20862Y177593D01*
X20818Y177573D01*
X20721Y177490D01*
X20648Y177437D01*
X15666Y172454D01*
X15660Y172447D01*
X15652Y172441D01*
X15575Y172334D01*
X15496Y172229D01*
X15493Y172220D01*
X15487Y172212D01*
X15444Y172089D01*
X15397Y171965D01*
X15396Y171955D01*
X15393Y171946D01*
X15385Y171815D01*
X15375Y171684D01*
X15377Y171674D01*
X15376Y171665D01*
X15395Y171590D01*
X15433Y171408D01*
X15444Y171386D01*
X15449Y171365D01*
X15557Y171105D01*
X15557Y168895D01*
X14711Y166852D01*
X13148Y165289D01*
X11105Y164443D01*
X8895Y164443D01*
G37*
%LPD*%
%LPC*%
G36*
X8895Y144443D02*
X8895Y144443D01*
X6852Y145289D01*
X5289Y146852D01*
X4443Y148895D01*
X4443Y151105D01*
X5289Y153148D01*
X6852Y154711D01*
X8895Y155557D01*
X11105Y155557D01*
X11365Y155449D01*
X11375Y155447D01*
X11383Y155442D01*
X11512Y155412D01*
X11638Y155379D01*
X11648Y155379D01*
X11657Y155377D01*
X11790Y155384D01*
X11920Y155388D01*
X11929Y155391D01*
X11939Y155391D01*
X12064Y155435D01*
X12189Y155475D01*
X12196Y155481D01*
X12205Y155484D01*
X12268Y155529D01*
X12422Y155634D01*
X12437Y155653D01*
X12454Y155666D01*
X19059Y162271D01*
X26230Y162271D01*
X26294Y162280D01*
X26358Y162279D01*
X26433Y162300D01*
X26509Y162311D01*
X26568Y162337D01*
X26630Y162354D01*
X26696Y162395D01*
X26766Y162427D01*
X26815Y162469D01*
X26870Y162502D01*
X26922Y162560D01*
X26980Y162610D01*
X27016Y162664D01*
X27059Y162712D01*
X27092Y162781D01*
X27135Y162846D01*
X27154Y162908D01*
X27182Y162965D01*
X27193Y163035D01*
X27217Y163116D01*
X27218Y163201D01*
X27229Y163270D01*
X27229Y164526D01*
X27974Y165271D01*
X37026Y165271D01*
X37771Y164526D01*
X37771Y155474D01*
X37026Y154729D01*
X27974Y154729D01*
X27229Y155474D01*
X27229Y156730D01*
X27220Y156794D01*
X27221Y156858D01*
X27200Y156933D01*
X27189Y157009D01*
X27163Y157068D01*
X27146Y157130D01*
X27105Y157196D01*
X27073Y157266D01*
X27031Y157315D01*
X26998Y157370D01*
X26940Y157422D01*
X26890Y157480D01*
X26836Y157516D01*
X26788Y157559D01*
X26719Y157592D01*
X26654Y157635D01*
X26592Y157654D01*
X26535Y157682D01*
X26465Y157693D01*
X26384Y157717D01*
X26299Y157718D01*
X26230Y157729D01*
X21354Y157729D01*
X21260Y157716D01*
X21163Y157711D01*
X21120Y157696D01*
X21075Y157689D01*
X20988Y157650D01*
X20897Y157618D01*
X20862Y157593D01*
X20818Y157573D01*
X20721Y157490D01*
X20648Y157437D01*
X15666Y152454D01*
X15660Y152447D01*
X15652Y152441D01*
X15575Y152334D01*
X15496Y152229D01*
X15493Y152220D01*
X15487Y152212D01*
X15444Y152089D01*
X15397Y151965D01*
X15396Y151955D01*
X15393Y151946D01*
X15385Y151815D01*
X15375Y151684D01*
X15377Y151674D01*
X15376Y151665D01*
X15395Y151590D01*
X15433Y151408D01*
X15444Y151386D01*
X15449Y151365D01*
X15557Y151105D01*
X15557Y148895D01*
X14711Y146852D01*
X13148Y145289D01*
X11105Y144443D01*
X8895Y144443D01*
G37*
%LPD*%
%LPC*%
G36*
X435474Y296079D02*
X435474Y296079D01*
X434729Y296824D01*
X434729Y306976D01*
X435474Y307721D01*
X458126Y307721D01*
X458871Y306976D01*
X458871Y296824D01*
X458126Y296079D01*
X435474Y296079D01*
G37*
%LPD*%
%LPC*%
G36*
X146895Y103443D02*
X146895Y103443D01*
X144852Y104289D01*
X143289Y105852D01*
X142443Y107895D01*
X142443Y110105D01*
X143289Y112148D01*
X144466Y113324D01*
X144504Y113375D01*
X144550Y113420D01*
X144588Y113488D01*
X144635Y113550D01*
X144658Y113610D01*
X144689Y113666D01*
X144707Y113741D01*
X144734Y113814D01*
X144739Y113878D01*
X144754Y113940D01*
X144750Y114018D01*
X144756Y114095D01*
X144743Y114158D01*
X144740Y114222D01*
X144715Y114295D01*
X144699Y114371D01*
X144668Y114428D01*
X144647Y114488D01*
X144606Y114545D01*
X144566Y114620D01*
X144507Y114681D01*
X144466Y114737D01*
X143729Y115474D01*
X143729Y127526D01*
X144474Y128271D01*
X155526Y128271D01*
X156271Y127526D01*
X156271Y115474D01*
X155526Y114729D01*
X153270Y114729D01*
X153206Y114720D01*
X153142Y114721D01*
X153067Y114700D01*
X152991Y114689D01*
X152932Y114663D01*
X152870Y114646D01*
X152804Y114605D01*
X152734Y114573D01*
X152685Y114531D01*
X152630Y114498D01*
X152578Y114440D01*
X152520Y114390D01*
X152484Y114336D01*
X152441Y114288D01*
X152408Y114219D01*
X152365Y114154D01*
X152346Y114092D01*
X152318Y114035D01*
X152307Y113965D01*
X152283Y113884D01*
X152282Y113799D01*
X152271Y113730D01*
X152271Y113002D01*
X152284Y112907D01*
X152289Y112810D01*
X152304Y112767D01*
X152311Y112722D01*
X152350Y112635D01*
X152382Y112544D01*
X152407Y112510D01*
X152427Y112465D01*
X152510Y112368D01*
X152563Y112295D01*
X152711Y112148D01*
X153557Y110105D01*
X153557Y107895D01*
X152711Y105852D01*
X151148Y104289D01*
X149105Y103443D01*
X146895Y103443D01*
G37*
%LPD*%
%LPC*%
G36*
X244474Y131729D02*
X244474Y131729D01*
X243729Y132474D01*
X243729Y144526D01*
X244474Y145271D01*
X245458Y145271D01*
X245491Y145275D01*
X245524Y145273D01*
X245630Y145295D01*
X245738Y145311D01*
X245767Y145324D01*
X245800Y145331D01*
X245896Y145382D01*
X245995Y145427D01*
X246019Y145448D01*
X246048Y145463D01*
X246126Y145540D01*
X246209Y145610D01*
X246227Y145638D01*
X246250Y145660D01*
X246304Y145755D01*
X246363Y145846D01*
X246373Y145877D01*
X246389Y145906D01*
X246414Y146012D01*
X246446Y146116D01*
X246446Y146149D01*
X246454Y146180D01*
X246448Y146289D01*
X246450Y146398D01*
X246441Y146429D01*
X246439Y146462D01*
X246403Y146565D01*
X246374Y146670D01*
X246357Y146698D01*
X246346Y146728D01*
X246333Y146747D01*
X245443Y148895D01*
X245443Y151105D01*
X246289Y153148D01*
X247852Y154711D01*
X249895Y155557D01*
X252105Y155557D01*
X254148Y154711D01*
X255711Y153148D01*
X256557Y151105D01*
X256557Y148895D01*
X255711Y146852D01*
X255534Y146676D01*
X255496Y146625D01*
X255450Y146580D01*
X255412Y146512D01*
X255365Y146450D01*
X255342Y146390D01*
X255311Y146334D01*
X255293Y146259D01*
X255266Y146187D01*
X255261Y146123D01*
X255246Y146060D01*
X255250Y145982D01*
X255244Y145905D01*
X255257Y145843D01*
X255260Y145778D01*
X255286Y145705D01*
X255301Y145629D01*
X255331Y145573D01*
X255353Y145512D01*
X255394Y145455D01*
X255434Y145380D01*
X255493Y145319D01*
X255534Y145263D01*
X256271Y144526D01*
X256271Y132474D01*
X255526Y131729D01*
X244474Y131729D01*
G37*
%LPD*%
%LPC*%
G36*
X365944Y108693D02*
X365944Y108693D01*
X363994Y109501D01*
X362501Y110994D01*
X361693Y112944D01*
X361693Y115056D01*
X362501Y117006D01*
X363142Y117647D01*
X363181Y117699D01*
X363227Y117744D01*
X363265Y117811D01*
X363312Y117873D01*
X363334Y117933D01*
X363366Y117989D01*
X363384Y118064D01*
X363411Y118137D01*
X363416Y118201D01*
X363431Y118263D01*
X363427Y118341D01*
X363433Y118418D01*
X363420Y118481D01*
X363417Y118545D01*
X363391Y118618D01*
X363375Y118694D01*
X363345Y118751D01*
X363324Y118811D01*
X363283Y118868D01*
X363243Y118943D01*
X363184Y119004D01*
X363142Y119060D01*
X362729Y119474D01*
X362729Y130526D01*
X363474Y131271D01*
X375526Y131271D01*
X376271Y130526D01*
X376271Y119474D01*
X375526Y118729D01*
X372770Y118729D01*
X372706Y118720D01*
X372642Y118721D01*
X372567Y118700D01*
X372491Y118689D01*
X372432Y118663D01*
X372370Y118646D01*
X372304Y118605D01*
X372234Y118573D01*
X372185Y118531D01*
X372130Y118498D01*
X372078Y118440D01*
X372020Y118390D01*
X371984Y118336D01*
X371941Y118288D01*
X371908Y118219D01*
X371865Y118154D01*
X371846Y118092D01*
X371818Y118035D01*
X371807Y117965D01*
X371783Y117884D01*
X371782Y117799D01*
X371771Y117730D01*
X371771Y116548D01*
X371777Y116507D01*
X371774Y116466D01*
X371794Y116382D01*
X371811Y116269D01*
X371835Y116216D01*
X371847Y116166D01*
X372307Y115056D01*
X372307Y112944D01*
X371499Y110994D01*
X370006Y109501D01*
X368056Y108693D01*
X365944Y108693D01*
G37*
%LPD*%
%LPC*%
G36*
X372826Y53779D02*
X372826Y53779D01*
X369547Y55137D01*
X367037Y57647D01*
X365679Y60926D01*
X365679Y64474D01*
X367037Y67753D01*
X369547Y70263D01*
X372826Y71621D01*
X376374Y71621D01*
X379653Y70263D01*
X382163Y67753D01*
X383521Y64474D01*
X383521Y60926D01*
X382163Y57647D01*
X379653Y55137D01*
X376374Y53779D01*
X372826Y53779D01*
G37*
%LPD*%
%LPC*%
G36*
X398226Y53779D02*
X398226Y53779D01*
X394947Y55137D01*
X392437Y57647D01*
X391079Y60926D01*
X391079Y64474D01*
X392437Y67753D01*
X394947Y70263D01*
X398226Y71621D01*
X401774Y71621D01*
X405053Y70263D01*
X407563Y67753D01*
X408921Y64474D01*
X408921Y60926D01*
X407563Y57647D01*
X405053Y55137D01*
X401774Y53779D01*
X398226Y53779D01*
G37*
%LPD*%
%LPC*%
G36*
X372826Y28379D02*
X372826Y28379D01*
X369547Y29737D01*
X367037Y32247D01*
X365679Y35526D01*
X365679Y39074D01*
X367037Y42353D01*
X369547Y44863D01*
X372826Y46221D01*
X376374Y46221D01*
X379653Y44863D01*
X382163Y42353D01*
X383521Y39074D01*
X383521Y35526D01*
X382163Y32247D01*
X379653Y29737D01*
X376374Y28379D01*
X372826Y28379D01*
G37*
%LPD*%
%LPC*%
G36*
X608944Y264693D02*
X608944Y264693D01*
X607119Y265449D01*
X607110Y265452D01*
X607101Y265456D01*
X606973Y265487D01*
X606846Y265520D01*
X606836Y265519D01*
X606827Y265521D01*
X606695Y265515D01*
X606564Y265510D01*
X606555Y265508D01*
X606545Y265507D01*
X606421Y265464D01*
X606296Y265423D01*
X606288Y265418D01*
X606279Y265415D01*
X606216Y265369D01*
X606063Y265264D01*
X606047Y265246D01*
X606030Y265233D01*
X606026Y265229D01*
X593974Y265229D01*
X593229Y265974D01*
X593229Y277026D01*
X593974Y277771D01*
X606026Y277771D01*
X606771Y277026D01*
X606771Y275902D01*
X606787Y275785D01*
X606799Y275666D01*
X606807Y275645D01*
X606811Y275623D01*
X606859Y275515D01*
X606903Y275404D01*
X606917Y275386D01*
X606927Y275366D01*
X607004Y275276D01*
X607077Y275182D01*
X607095Y275169D01*
X607110Y275151D01*
X607210Y275086D01*
X607306Y275017D01*
X607327Y275009D01*
X607346Y274997D01*
X607460Y274962D01*
X607571Y274923D01*
X607594Y274921D01*
X607616Y274915D01*
X607734Y274913D01*
X607853Y274906D01*
X607874Y274911D01*
X607898Y274911D01*
X608077Y274960D01*
X608152Y274979D01*
X608944Y275307D01*
X611056Y275307D01*
X613006Y274499D01*
X614499Y273006D01*
X615307Y271056D01*
X615307Y268944D01*
X614499Y266994D01*
X613006Y265501D01*
X611056Y264693D01*
X608944Y264693D01*
G37*
%LPD*%
%LPC*%
G36*
X133974Y282229D02*
X133974Y282229D01*
X133229Y282974D01*
X133229Y294026D01*
X133974Y294771D01*
X146026Y294771D01*
X146030Y294767D01*
X146037Y294761D01*
X146043Y294754D01*
X146150Y294677D01*
X146255Y294598D01*
X146264Y294595D01*
X146272Y294589D01*
X146395Y294545D01*
X146519Y294498D01*
X146529Y294498D01*
X146538Y294494D01*
X146669Y294487D01*
X146800Y294477D01*
X146810Y294478D01*
X146819Y294478D01*
X146895Y294496D01*
X147077Y294534D01*
X147098Y294545D01*
X147119Y294551D01*
X148944Y295307D01*
X151056Y295307D01*
X153006Y294499D01*
X154499Y293006D01*
X155307Y291056D01*
X155307Y288944D01*
X154499Y286994D01*
X153006Y285501D01*
X151056Y284693D01*
X148944Y284693D01*
X148152Y285021D01*
X148037Y285051D01*
X147924Y285085D01*
X147901Y285086D01*
X147879Y285091D01*
X147761Y285088D01*
X147642Y285089D01*
X147620Y285083D01*
X147597Y285082D01*
X147485Y285046D01*
X147370Y285014D01*
X147351Y285002D01*
X147329Y284995D01*
X147231Y284928D01*
X147130Y284866D01*
X147115Y284849D01*
X147096Y284836D01*
X147021Y284745D01*
X146941Y284657D01*
X146931Y284636D01*
X146917Y284618D01*
X146870Y284510D01*
X146818Y284403D01*
X146815Y284381D01*
X146805Y284359D01*
X146783Y284174D01*
X146771Y284098D01*
X146771Y282974D01*
X146026Y282229D01*
X133974Y282229D01*
G37*
%LPD*%
%LPC*%
G36*
X173954Y366729D02*
X173954Y366729D01*
X171281Y367836D01*
X169236Y369881D01*
X168129Y372554D01*
X168129Y375446D01*
X169236Y378119D01*
X171281Y380164D01*
X173954Y381271D01*
X176846Y381271D01*
X179519Y380164D01*
X181564Y378119D01*
X182671Y375446D01*
X182671Y372554D01*
X181564Y369881D01*
X179519Y367836D01*
X176846Y366729D01*
X173954Y366729D01*
G37*
%LPD*%
%LPC*%
G36*
X148554Y366729D02*
X148554Y366729D01*
X145881Y367836D01*
X143836Y369881D01*
X142729Y372554D01*
X142729Y375446D01*
X143836Y378119D01*
X145881Y380164D01*
X148554Y381271D01*
X151446Y381271D01*
X154119Y380164D01*
X156164Y378119D01*
X157271Y375446D01*
X157271Y372554D01*
X156164Y369881D01*
X154119Y367836D01*
X151446Y366729D01*
X148554Y366729D01*
G37*
%LPD*%
%LPC*%
G36*
X623154Y366729D02*
X623154Y366729D01*
X620481Y367836D01*
X618436Y369881D01*
X617329Y372554D01*
X617329Y375446D01*
X618436Y378119D01*
X620481Y380164D01*
X623154Y381271D01*
X626046Y381271D01*
X628719Y380164D01*
X630764Y378119D01*
X631871Y375446D01*
X631871Y372554D01*
X630764Y369881D01*
X628719Y367836D01*
X626046Y366729D01*
X623154Y366729D01*
G37*
%LPD*%
%LPC*%
G36*
X673954Y366729D02*
X673954Y366729D01*
X671281Y367836D01*
X669236Y369881D01*
X668129Y372554D01*
X668129Y375446D01*
X669236Y378119D01*
X671281Y380164D01*
X673954Y381271D01*
X676846Y381271D01*
X679519Y380164D01*
X681564Y378119D01*
X682671Y375446D01*
X682671Y372554D01*
X681564Y369881D01*
X679519Y367836D01*
X676846Y366729D01*
X673954Y366729D01*
G37*
%LPD*%
%LPC*%
G36*
X648554Y366729D02*
X648554Y366729D01*
X645881Y367836D01*
X643836Y369881D01*
X642729Y372554D01*
X642729Y375446D01*
X643836Y378119D01*
X645881Y380164D01*
X648554Y381271D01*
X651446Y381271D01*
X654119Y380164D01*
X656164Y378119D01*
X657271Y375446D01*
X657271Y372554D01*
X656164Y369881D01*
X654119Y367836D01*
X651446Y366729D01*
X648554Y366729D01*
G37*
%LPD*%
%LPC*%
G36*
X123154Y366729D02*
X123154Y366729D01*
X120481Y367836D01*
X118436Y369881D01*
X117329Y372554D01*
X117329Y375446D01*
X118436Y378119D01*
X120481Y380164D01*
X123154Y381271D01*
X126046Y381271D01*
X128719Y380164D01*
X130764Y378119D01*
X131871Y375446D01*
X131871Y372554D01*
X130764Y369881D01*
X128719Y367836D01*
X126046Y366729D01*
X123154Y366729D01*
G37*
%LPD*%
%LPC*%
G36*
X401497Y304455D02*
X401497Y304455D01*
X399459Y305299D01*
X397899Y306859D01*
X397055Y308897D01*
X397055Y311103D01*
X397899Y313141D01*
X399459Y314701D01*
X401497Y315545D01*
X403703Y315545D01*
X405741Y314701D01*
X407301Y313141D01*
X408145Y311103D01*
X408145Y308897D01*
X407301Y306859D01*
X405741Y305299D01*
X403703Y304455D01*
X401497Y304455D01*
G37*
%LPD*%
%LPC*%
G36*
X391397Y234455D02*
X391397Y234455D01*
X389359Y235299D01*
X387799Y236859D01*
X386955Y238897D01*
X386955Y241103D01*
X387799Y243141D01*
X389359Y244701D01*
X391397Y245545D01*
X393603Y245545D01*
X395641Y244701D01*
X397201Y243141D01*
X398045Y241103D01*
X398045Y238897D01*
X397201Y236859D01*
X395641Y235299D01*
X393603Y234455D01*
X391397Y234455D01*
G37*
%LPD*%
D10*
X422225Y197242D03*
X415875Y197242D03*
X409525Y197242D03*
X403175Y197242D03*
X396825Y197242D03*
X390475Y197242D03*
X384125Y197242D03*
X377775Y197242D03*
X377775Y142759D03*
X384125Y142759D03*
X390475Y142759D03*
X396825Y142759D03*
X403175Y142759D03*
X409525Y142759D03*
X415875Y142759D03*
X422225Y142759D03*
D11*
X346500Y166000D03*
X363500Y166000D03*
D12*
X223000Y160250D03*
X200000Y160250D03*
X177000Y160250D03*
D13*
X200000Y99750D03*
D14*
X150000Y138500D03*
X150000Y121500D03*
X250000Y121500D03*
X250000Y138500D03*
D15*
X124600Y374000D03*
X175400Y374000D03*
X150000Y374000D03*
X137300Y352000D03*
X162700Y352000D03*
D16*
X85750Y460000D02*
X85750Y520000D01*
X214250Y520000D02*
X214250Y460000D01*
D11*
X118500Y310000D03*
X101500Y310000D03*
D14*
X141500Y310000D03*
X158500Y310000D03*
D11*
X170000Y271500D03*
X170000Y288500D03*
X140000Y271500D03*
X140000Y288500D03*
X110000Y271500D03*
X110000Y288500D03*
X200000Y271500D03*
X200000Y288500D03*
X181500Y310000D03*
X198500Y310000D03*
D17*
X400000Y778455D03*
X400000Y709080D03*
D18*
X281700Y381100D03*
X281700Y282100D03*
D19*
X446800Y378100D03*
X446800Y365400D03*
X446800Y352700D03*
X446800Y340000D03*
X446800Y327300D03*
X446800Y314600D03*
X446800Y301900D03*
D20*
X530000Y340000D03*
D14*
X420000Y378500D03*
X420000Y361500D03*
D11*
X458500Y400000D03*
X441500Y400000D03*
D21*
X392500Y240000D03*
X367500Y240000D03*
X402600Y310000D03*
X377600Y310000D03*
D22*
X448500Y560000D03*
X511500Y560000D03*
X448500Y500000D03*
X511500Y500000D03*
X448500Y440000D03*
X511500Y440000D03*
D11*
X386500Y125000D03*
X369500Y125000D03*
D14*
X131500Y160000D03*
X148500Y160000D03*
X131500Y183900D03*
X148500Y183900D03*
X131500Y210000D03*
X148500Y210000D03*
D23*
X32500Y160000D03*
X47500Y160000D03*
X32500Y180000D03*
X47500Y180000D03*
X32500Y200000D03*
X47500Y200000D03*
D24*
X300000Y463250D03*
X300000Y416750D03*
D25*
X83900Y669200D03*
D26*
X83900Y770800D03*
D25*
X176100Y669200D03*
D26*
X176100Y770800D03*
D27*
X257300Y250000D03*
X282700Y250000D03*
D28*
X514000Y270000D03*
D29*
X539500Y270000D03*
D30*
X110000Y114000D03*
D31*
X110000Y139500D03*
D14*
X403500Y104000D03*
X386500Y104000D03*
D15*
X624600Y374000D03*
X675400Y374000D03*
X650000Y374000D03*
X637300Y352000D03*
X662700Y352000D03*
D16*
X585750Y460000D02*
X585750Y520000D01*
X714250Y520000D02*
X714250Y460000D01*
D11*
X618500Y310000D03*
X601500Y310000D03*
D14*
X658500Y310000D03*
X641500Y310000D03*
D11*
X600000Y271500D03*
X600000Y288500D03*
X660000Y271500D03*
X660000Y288500D03*
X690000Y271500D03*
X690000Y288500D03*
X630000Y271500D03*
X630000Y288500D03*
X681500Y310000D03*
X698500Y310000D03*
D25*
X623900Y669200D03*
D26*
X623900Y770800D03*
D25*
X716100Y669200D03*
D26*
X716100Y770800D03*
D17*
X50000Y348455D03*
X50000Y279080D03*
X750000Y348455D03*
X750000Y279080D03*
D32*
X470000Y730315D03*
X470000Y769685D03*
D33*
X425400Y37300D03*
X400000Y37300D03*
X374600Y37300D03*
X425400Y62700D03*
X400000Y62700D03*
X374600Y62700D03*
D34*
X563700Y127900D03*
X538300Y127900D03*
D35*
X251000Y150000D03*
D36*
X251000Y139500D02*
X250000Y138500D01*
X251000Y139500D02*
X251000Y150000D01*
D35*
X148000Y109000D03*
D36*
X150000Y111000D02*
X150000Y121500D01*
X150000Y111000D02*
X148000Y109000D01*
D35*
X221000Y176000D03*
D36*
X223000Y174000D01*
X223000Y160250D01*
D35*
X410000Y350000D03*
D15*
X420000Y340000D03*
D36*
X420000Y360000D02*
X420000Y361500D01*
X420000Y360000D02*
X410000Y350000D01*
D37*
X420000Y340000D02*
X446800Y340000D01*
X530000Y340000D01*
D38*
X480000Y550000D03*
X480000Y490000D03*
X480000Y430000D03*
D39*
X480000Y550000D02*
X490000Y560000D01*
X511500Y560000D01*
X490000Y500000D02*
X480000Y490000D01*
X490000Y500000D02*
X511500Y500000D01*
X490000Y440000D02*
X480000Y430000D01*
X490000Y440000D02*
X511500Y440000D01*
D35*
X10000Y150000D03*
D15*
X330000Y455000D03*
D37*
X321750Y463250D02*
X300000Y463250D01*
X321750Y463250D02*
X330000Y455000D01*
D36*
X20000Y160000D02*
X10000Y150000D01*
X20000Y160000D02*
X32500Y160000D01*
D35*
X10000Y190000D03*
X10000Y170000D03*
D36*
X20000Y180000D01*
X32500Y180000D01*
X20000Y200000D02*
X10000Y190000D01*
X20000Y200000D02*
X32500Y200000D01*
D35*
X201000Y322000D03*
D36*
X198500Y319500D02*
X198500Y310000D01*
X198500Y319500D02*
X201000Y322000D01*
X601000Y310500D02*
X601500Y310000D01*
X601000Y310500D02*
X601000Y321000D01*
D35*
X601000Y321000D03*
X700000Y322000D03*
D36*
X698500Y320500D02*
X698500Y310000D01*
X698500Y320500D02*
X700000Y322000D01*
D40*
X470000Y710000D02*
X470000Y730315D01*
D15*
X470000Y710000D03*
D36*
X369500Y125000D02*
X369500Y116500D01*
X367000Y114000D01*
D41*
X367000Y114000D03*
D36*
X384125Y142759D02*
X384125Y153711D01*
X383918Y153918D01*
D41*
X383918Y153918D03*
D36*
X384125Y187875D02*
X384125Y197242D01*
X384125Y187875D02*
X387918Y184082D01*
D41*
X387918Y184082D03*
D36*
X409525Y184475D02*
X409525Y197242D01*
X409525Y184475D02*
X410000Y184000D01*
D41*
X410000Y184000D03*
D36*
X403175Y186175D02*
X403175Y197242D01*
X403175Y186175D02*
X401000Y184000D01*
D41*
X401000Y184000D03*
D36*
X148500Y288500D02*
X140000Y288500D01*
X148500Y288500D02*
X150000Y290000D01*
D41*
X150000Y290000D03*
D36*
X170000Y271500D02*
X178500Y271500D01*
X180000Y270000D01*
D41*
X180000Y270000D03*
D37*
X538300Y127900D02*
X540000Y126200D01*
X540000Y90000D01*
D15*
X540000Y90000D03*
D36*
X101500Y310000D02*
X101500Y318500D01*
X100000Y320000D01*
D41*
X100000Y320000D03*
D36*
X365500Y168000D02*
X375000Y168000D01*
X365500Y168000D02*
X363500Y166000D01*
D41*
X375000Y168000D03*
D36*
X660000Y288500D02*
X661500Y290000D01*
X670000Y290000D01*
D41*
X670000Y290000D03*
D36*
X608500Y271500D02*
X600000Y271500D01*
X608500Y271500D02*
X610000Y270000D01*
D41*
X610000Y270000D03*
D15*
X290000Y200000D03*
X290000Y80000D03*
X560000Y230000D03*
X560000Y180000D03*
D36*
X435320Y32591D02*
X429509Y26780D01*
X422225Y121318D02*
X422225Y142759D01*
X400000Y37300D02*
X400000Y31300D01*
X404520Y26780D01*
X429509Y26780D01*
X435320Y32591D02*
X435320Y108223D01*
X422225Y121318D01*
D41*
X419000Y111000D03*
D36*
X419306Y119612D02*
X415875Y123043D01*
X415875Y142759D01*
X419306Y111306D02*
X419000Y111000D01*
X419306Y111306D02*
X419306Y119612D01*
D41*
X410000Y119000D03*
D36*
X409525Y119475D01*
X409525Y142759D01*
X403175Y142759D02*
X403175Y129044D01*
X403131Y129000D01*
D41*
X403131Y129000D03*
D36*
X396825Y110675D02*
X403500Y104000D01*
X396825Y110675D02*
X396825Y142759D01*
X425400Y97700D02*
X425400Y62700D01*
X419100Y104000D02*
X403500Y104000D01*
X419100Y104000D02*
X425400Y97700D01*
X200125Y99875D02*
X200000Y99750D01*
X200125Y99875D02*
X200250Y100000D01*
X240000Y100000D01*
X244000Y104000D02*
X250000Y110000D01*
X250000Y121500D01*
X200125Y160125D02*
X200000Y160250D01*
X200125Y160125D02*
X200125Y99875D01*
X148500Y160000D02*
X168600Y180100D01*
X193000Y180100D01*
X200000Y173100D02*
X200000Y160250D01*
X200000Y173100D02*
X193000Y180100D01*
D42*
X250000Y121500D02*
X250500Y121000D01*
D36*
X148500Y160000D02*
X128000Y139500D01*
X110000Y139500D01*
X390475Y142759D02*
X390475Y128975D01*
X386500Y125000D01*
X386500Y104000D01*
X244000Y104000D01*
X240000Y100000D01*
X141500Y330800D02*
X162700Y352000D01*
X141500Y330800D02*
X141500Y310000D01*
X155210Y310000D02*
X158500Y310000D01*
X158500Y300000D01*
X170000Y288500D01*
X200000Y288500D01*
X140000Y271500D02*
X110000Y271500D01*
X140000Y271500D02*
X155000Y271500D01*
X339500Y173000D02*
X346500Y166000D01*
X339500Y173000D02*
X253500Y173000D01*
X155000Y271500D01*
X377775Y151759D02*
X377775Y142759D01*
X377775Y151759D02*
X370804Y158730D01*
X357060Y158730D01*
X349790Y166000D02*
X346500Y166000D01*
X349790Y166000D02*
X357060Y158730D01*
X660000Y271500D02*
X690000Y271500D01*
X394812Y173730D02*
X379812Y158730D01*
X370804Y158730D01*
X646000Y271500D02*
X660000Y271500D01*
X646000Y271500D02*
X577250Y202750D01*
X413355Y173730D02*
X394812Y173730D01*
X442375Y202750D02*
X577250Y202750D01*
X442375Y202750D02*
X413355Y173730D01*
D35*
X150000Y230000D03*
X240000Y340000D03*
D43*
X500000Y270000D02*
X514000Y270000D01*
D35*
X500000Y270000D03*
D41*
X400000Y340000D03*
D36*
X150000Y230000D02*
X150000Y211500D01*
X148500Y210000D01*
D37*
X281700Y381100D02*
X281700Y398450D01*
X300000Y416750D01*
X441500Y400000D02*
X441500Y383400D01*
X446800Y378100D01*
D15*
X330000Y410000D03*
X426600Y399700D03*
D37*
X323250Y416750D02*
X300000Y416750D01*
X323250Y416750D02*
X330000Y410000D01*
X426600Y399700D02*
X441200Y399700D01*
X441500Y400000D01*
X458800Y400000D02*
X465200Y393600D01*
X458800Y400000D02*
X458500Y400000D01*
X465200Y393600D02*
X465200Y355200D01*
X462700Y352700D01*
X446800Y352700D01*
D36*
X131500Y160000D02*
X123200Y168300D01*
X55800Y168300D01*
X47500Y160000D01*
X55000Y187500D02*
X127900Y187500D01*
X55000Y187500D02*
X47500Y180000D01*
X127900Y187500D02*
X131500Y183900D01*
X57500Y210000D02*
X47500Y200000D01*
X57500Y210000D02*
X131500Y210000D01*
X377775Y197242D02*
X377775Y185485D01*
X376290Y184000D01*
D41*
X376290Y184000D03*
D36*
X254500Y177000D02*
X200000Y231500D01*
X200000Y270000D02*
X200000Y271500D01*
X200000Y270000D02*
X200000Y231500D01*
X412000Y177000D02*
X422225Y187225D01*
X422225Y197242D01*
X412000Y177000D02*
X254500Y177000D01*
X188500Y297000D02*
X181500Y304000D01*
X181500Y310000D01*
X205210Y297000D02*
X210000Y292210D01*
X210000Y280000D01*
X200000Y270000D01*
X205210Y297000D02*
X188500Y297000D01*
X681500Y310000D02*
X684210Y310000D01*
X681500Y310000D02*
X668806Y297306D01*
X655096Y297306D02*
X630000Y272210D01*
X630000Y271500D01*
X655096Y297306D02*
X668806Y297306D01*
X630000Y271500D02*
X630000Y260500D01*
X576500Y207000D01*
X419000Y207000D01*
X415875Y203875D01*
X415875Y197242D01*
X658500Y310000D02*
X658500Y347800D01*
X662700Y352000D01*
X641500Y310000D02*
X641500Y307000D01*
X630000Y288500D02*
X600000Y288500D01*
X630000Y288500D02*
X641500Y300000D01*
X641500Y310000D01*
M02*
