G04 EAGLE Gerber RS-274X export*
G75*
%MOMM*%
%FSLAX34Y34*%
%LPD*%
%INBottom Copper*%
%IPPOS*%
%AMOC8*
5,1,8,0,0,1.08239X$1,22.5*%
G01*
%ADD10C,1.200000*%
%ADD11C,6.000000*%
%ADD12C,5.716000*%
%ADD13C,0.854800*%
%ADD14C,2.552700*%
%ADD15C,3.657600*%
%ADD16C,1.530000*%
%ADD17C,0.704800*%
%ADD18C,1.500000*%
%ADD19C,0.654800*%
%ADD20C,0.812800*%
%ADD21C,0.200000*%
%ADD22C,0.400000*%

G36*
X516786Y2016D02*
X516786Y2016D01*
X516883Y2026D01*
X516907Y2036D01*
X516933Y2040D01*
X517019Y2086D01*
X517108Y2126D01*
X517127Y2143D01*
X517150Y2156D01*
X517217Y2226D01*
X517289Y2292D01*
X517301Y2315D01*
X517319Y2334D01*
X517360Y2422D01*
X517407Y2508D01*
X517412Y2533D01*
X517423Y2557D01*
X517434Y2654D01*
X517451Y2750D01*
X517447Y2776D01*
X517450Y2801D01*
X517430Y2897D01*
X517415Y2993D01*
X517404Y3016D01*
X517398Y3042D01*
X517348Y3125D01*
X517304Y3212D01*
X517285Y3231D01*
X517272Y3253D01*
X517198Y3316D01*
X517128Y3384D01*
X517100Y3400D01*
X517085Y3413D01*
X517054Y3425D01*
X516981Y3465D01*
X513537Y4892D01*
X508192Y10237D01*
X505299Y17221D01*
X505299Y24779D01*
X508192Y31763D01*
X513537Y37108D01*
X520521Y40001D01*
X528079Y40001D01*
X535063Y37108D01*
X540408Y31763D01*
X543301Y24779D01*
X543301Y17221D01*
X540408Y10237D01*
X535063Y4892D01*
X531619Y3465D01*
X531536Y3414D01*
X531450Y3368D01*
X531432Y3349D01*
X531410Y3336D01*
X531348Y3261D01*
X531281Y3190D01*
X531270Y3166D01*
X531253Y3146D01*
X531218Y3055D01*
X531177Y2967D01*
X531174Y2941D01*
X531165Y2917D01*
X531161Y2819D01*
X531150Y2723D01*
X531155Y2697D01*
X531154Y2671D01*
X531181Y2577D01*
X531202Y2482D01*
X531215Y2460D01*
X531223Y2435D01*
X531278Y2355D01*
X531328Y2271D01*
X531348Y2254D01*
X531363Y2233D01*
X531441Y2174D01*
X531515Y2111D01*
X531539Y2101D01*
X531560Y2086D01*
X531653Y2056D01*
X531743Y2019D01*
X531776Y2016D01*
X531794Y2010D01*
X531827Y2010D01*
X531910Y2001D01*
X570090Y2001D01*
X570186Y2016D01*
X570283Y2026D01*
X570307Y2036D01*
X570333Y2040D01*
X570419Y2086D01*
X570508Y2126D01*
X570527Y2143D01*
X570550Y2156D01*
X570617Y2226D01*
X570689Y2292D01*
X570701Y2315D01*
X570719Y2334D01*
X570760Y2422D01*
X570807Y2508D01*
X570812Y2533D01*
X570823Y2557D01*
X570834Y2654D01*
X570851Y2750D01*
X570847Y2776D01*
X570850Y2801D01*
X570830Y2897D01*
X570815Y2993D01*
X570804Y3016D01*
X570798Y3042D01*
X570748Y3125D01*
X570704Y3212D01*
X570685Y3231D01*
X570672Y3253D01*
X570598Y3316D01*
X570528Y3384D01*
X570500Y3400D01*
X570485Y3413D01*
X570454Y3425D01*
X570381Y3465D01*
X566937Y4892D01*
X561592Y10237D01*
X558699Y17221D01*
X558699Y24779D01*
X561592Y31763D01*
X566937Y37108D01*
X573921Y40001D01*
X581479Y40001D01*
X588463Y37108D01*
X593808Y31763D01*
X596701Y24779D01*
X596701Y17221D01*
X593808Y10237D01*
X588463Y4892D01*
X585019Y3465D01*
X584936Y3414D01*
X584850Y3368D01*
X584832Y3349D01*
X584810Y3336D01*
X584748Y3261D01*
X584681Y3190D01*
X584670Y3166D01*
X584653Y3146D01*
X584618Y3055D01*
X584577Y2967D01*
X584574Y2941D01*
X584565Y2917D01*
X584561Y2819D01*
X584550Y2723D01*
X584555Y2697D01*
X584554Y2671D01*
X584581Y2577D01*
X584602Y2482D01*
X584615Y2460D01*
X584623Y2435D01*
X584678Y2355D01*
X584728Y2271D01*
X584748Y2254D01*
X584763Y2233D01*
X584841Y2174D01*
X584915Y2111D01*
X584939Y2101D01*
X584960Y2086D01*
X585053Y2056D01*
X585143Y2019D01*
X585176Y2016D01*
X585194Y2010D01*
X585227Y2010D01*
X585310Y2001D01*
X797238Y2001D01*
X797258Y2004D01*
X797277Y2002D01*
X797379Y2024D01*
X797481Y2040D01*
X797498Y2050D01*
X797518Y2054D01*
X797607Y2107D01*
X797698Y2156D01*
X797712Y2170D01*
X797729Y2180D01*
X797796Y2259D01*
X797868Y2334D01*
X797876Y2352D01*
X797889Y2367D01*
X797928Y2463D01*
X797971Y2557D01*
X797973Y2577D01*
X797981Y2595D01*
X797999Y2762D01*
X797999Y817238D01*
X797996Y817258D01*
X797998Y817277D01*
X797976Y817379D01*
X797960Y817481D01*
X797950Y817498D01*
X797946Y817518D01*
X797893Y817607D01*
X797844Y817698D01*
X797830Y817712D01*
X797820Y817729D01*
X797741Y817796D01*
X797666Y817868D01*
X797648Y817876D01*
X797633Y817889D01*
X797537Y817928D01*
X797443Y817971D01*
X797423Y817973D01*
X797405Y817981D01*
X797238Y817999D01*
X2762Y817999D01*
X2742Y817996D01*
X2723Y817998D01*
X2621Y817976D01*
X2519Y817960D01*
X2502Y817950D01*
X2482Y817946D01*
X2393Y817893D01*
X2302Y817844D01*
X2288Y817830D01*
X2271Y817820D01*
X2204Y817741D01*
X2132Y817666D01*
X2124Y817648D01*
X2111Y817633D01*
X2072Y817537D01*
X2029Y817443D01*
X2027Y817423D01*
X2019Y817405D01*
X2001Y817238D01*
X2001Y2762D01*
X2004Y2742D01*
X2002Y2723D01*
X2024Y2621D01*
X2040Y2519D01*
X2050Y2502D01*
X2054Y2482D01*
X2107Y2393D01*
X2156Y2302D01*
X2170Y2288D01*
X2180Y2271D01*
X2259Y2204D01*
X2334Y2132D01*
X2352Y2124D01*
X2367Y2111D01*
X2463Y2072D01*
X2557Y2029D01*
X2577Y2027D01*
X2595Y2019D01*
X2762Y2001D01*
X516690Y2001D01*
X516786Y2016D01*
G37*
%LPC*%
G36*
X710133Y428729D02*
X710133Y428729D01*
X702180Y430860D01*
X695049Y434977D01*
X689227Y440799D01*
X685110Y447930D01*
X682979Y455883D01*
X682979Y524117D01*
X685110Y532070D01*
X689227Y539201D01*
X695049Y545023D01*
X702180Y549140D01*
X710133Y551271D01*
X718367Y551271D01*
X726320Y549140D01*
X733451Y545023D01*
X739273Y539201D01*
X743390Y532070D01*
X745521Y524117D01*
X745521Y455883D01*
X743390Y447930D01*
X739273Y440799D01*
X733451Y434977D01*
X726320Y430860D01*
X718367Y428729D01*
X710133Y428729D01*
G37*
%LPD*%
%LPC*%
G36*
X581633Y428729D02*
X581633Y428729D01*
X573680Y430860D01*
X566549Y434977D01*
X560727Y440799D01*
X556610Y447930D01*
X554479Y455883D01*
X554479Y524117D01*
X556610Y532070D01*
X560727Y539201D01*
X566549Y545023D01*
X573680Y549140D01*
X581633Y551271D01*
X589867Y551271D01*
X597820Y549140D01*
X604951Y545023D01*
X610773Y539201D01*
X614890Y532070D01*
X617021Y524117D01*
X617021Y455883D01*
X614890Y447930D01*
X610773Y440799D01*
X604951Y434977D01*
X597820Y430860D01*
X589867Y428729D01*
X581633Y428729D01*
G37*
%LPD*%
%LPC*%
G36*
X210133Y428729D02*
X210133Y428729D01*
X202180Y430860D01*
X195049Y434977D01*
X189227Y440799D01*
X185110Y447930D01*
X182979Y455883D01*
X182979Y524117D01*
X185110Y532070D01*
X189227Y539201D01*
X195049Y545023D01*
X202180Y549140D01*
X210133Y551271D01*
X218367Y551271D01*
X226320Y549140D01*
X233451Y545023D01*
X239273Y539201D01*
X243390Y532070D01*
X245521Y524117D01*
X245521Y455883D01*
X243390Y447930D01*
X239273Y440799D01*
X233451Y434977D01*
X226320Y430860D01*
X218367Y428729D01*
X210133Y428729D01*
G37*
%LPD*%
%LPC*%
G36*
X81633Y428729D02*
X81633Y428729D01*
X73680Y430860D01*
X66549Y434977D01*
X60727Y440799D01*
X56610Y447930D01*
X54479Y455883D01*
X54479Y524117D01*
X56610Y532070D01*
X60727Y539201D01*
X66549Y545023D01*
X73680Y549140D01*
X81633Y551271D01*
X89867Y551271D01*
X97820Y549140D01*
X104951Y545023D01*
X110773Y539201D01*
X114890Y532070D01*
X117021Y524117D01*
X117021Y455883D01*
X114890Y447930D01*
X110773Y440799D01*
X104951Y434977D01*
X97820Y430860D01*
X89867Y428729D01*
X81633Y428729D01*
G37*
%LPD*%
%LPC*%
G36*
X396070Y748604D02*
X396070Y748604D01*
X388478Y750639D01*
X381671Y754568D01*
X376113Y760126D01*
X372184Y766933D01*
X370149Y774525D01*
X370149Y782385D01*
X372184Y789977D01*
X376113Y796784D01*
X381671Y802342D01*
X388478Y806271D01*
X396070Y808306D01*
X403930Y808306D01*
X411522Y806271D01*
X418329Y802342D01*
X423887Y796784D01*
X427816Y789977D01*
X429851Y782385D01*
X429851Y774525D01*
X427816Y766933D01*
X423887Y760126D01*
X418329Y754568D01*
X411522Y750639D01*
X403930Y748604D01*
X396070Y748604D01*
G37*
%LPD*%
%LPC*%
G36*
X746070Y318604D02*
X746070Y318604D01*
X738478Y320639D01*
X731671Y324568D01*
X726113Y330126D01*
X722184Y336933D01*
X720149Y344525D01*
X720149Y352385D01*
X722184Y359977D01*
X726113Y366784D01*
X731671Y372342D01*
X738478Y376271D01*
X746070Y378306D01*
X753930Y378306D01*
X761522Y376271D01*
X768329Y372342D01*
X773887Y366784D01*
X777816Y359977D01*
X779851Y352385D01*
X779851Y344525D01*
X777816Y336933D01*
X773887Y330126D01*
X768329Y324568D01*
X761522Y320639D01*
X753930Y318604D01*
X746070Y318604D01*
G37*
%LPD*%
%LPC*%
G36*
X46070Y318604D02*
X46070Y318604D01*
X38478Y320639D01*
X31671Y324568D01*
X26113Y330126D01*
X22184Y336933D01*
X20149Y344525D01*
X20149Y352385D01*
X22184Y359977D01*
X26113Y366784D01*
X31671Y372342D01*
X38478Y376271D01*
X46070Y378306D01*
X53930Y378306D01*
X61522Y376271D01*
X68329Y372342D01*
X73887Y366784D01*
X77816Y359977D01*
X79851Y352385D01*
X79851Y344525D01*
X77816Y336933D01*
X73887Y330126D01*
X68329Y324568D01*
X61522Y320639D01*
X53930Y318604D01*
X46070Y318604D01*
G37*
%LPD*%
%LPC*%
G36*
X398226Y28379D02*
X398226Y28379D01*
X394947Y29737D01*
X392437Y32247D01*
X391079Y35526D01*
X391079Y39074D01*
X392437Y42353D01*
X394947Y44863D01*
X398332Y46265D01*
X398415Y46316D01*
X398501Y46362D01*
X398519Y46381D01*
X398541Y46394D01*
X398603Y46469D01*
X398670Y46540D01*
X398681Y46564D01*
X398698Y46584D01*
X398733Y46675D01*
X398774Y46763D01*
X398776Y46789D01*
X398786Y46813D01*
X398790Y46911D01*
X398801Y47007D01*
X398795Y47033D01*
X398796Y47059D01*
X398769Y47153D01*
X398748Y47248D01*
X398735Y47270D01*
X398728Y47295D01*
X398672Y47375D01*
X398622Y47459D01*
X398602Y47476D01*
X398587Y47497D01*
X398509Y47556D01*
X398435Y47619D01*
X398411Y47629D01*
X398390Y47644D01*
X398298Y47674D01*
X398207Y47711D01*
X398175Y47714D01*
X398156Y47720D01*
X398123Y47720D01*
X398040Y47729D01*
X380359Y47729D01*
X378806Y49282D01*
X374532Y53556D01*
X374458Y53609D01*
X374389Y53669D01*
X374359Y53681D01*
X374333Y53700D01*
X374246Y53727D01*
X374161Y53761D01*
X374120Y53765D01*
X374098Y53772D01*
X374065Y53771D01*
X373994Y53779D01*
X372826Y53779D01*
X369547Y55137D01*
X367037Y57647D01*
X365679Y60926D01*
X365679Y64474D01*
X367037Y67753D01*
X369547Y70263D01*
X372826Y71621D01*
X376374Y71621D01*
X379653Y70263D01*
X382163Y67753D01*
X383521Y64474D01*
X383521Y60926D01*
X382163Y57647D01*
X380052Y55536D01*
X380040Y55520D01*
X380025Y55507D01*
X379969Y55420D01*
X379908Y55336D01*
X379902Y55317D01*
X379892Y55300D01*
X379866Y55200D01*
X379836Y55101D01*
X379836Y55081D01*
X379832Y55062D01*
X379840Y54959D01*
X379842Y54855D01*
X379849Y54837D01*
X379851Y54817D01*
X379891Y54722D01*
X379927Y54624D01*
X379939Y54609D01*
X379947Y54590D01*
X380052Y54459D01*
X382018Y52494D01*
X382092Y52441D01*
X382161Y52381D01*
X382191Y52369D01*
X382217Y52350D01*
X382304Y52323D01*
X382389Y52289D01*
X382430Y52285D01*
X382452Y52278D01*
X382485Y52279D01*
X382556Y52271D01*
X398040Y52271D01*
X398136Y52286D01*
X398233Y52296D01*
X398257Y52306D01*
X398283Y52310D01*
X398369Y52356D01*
X398458Y52396D01*
X398477Y52413D01*
X398501Y52426D01*
X398567Y52496D01*
X398639Y52562D01*
X398652Y52585D01*
X398670Y52604D01*
X398711Y52692D01*
X398758Y52778D01*
X398763Y52803D01*
X398774Y52827D01*
X398784Y52924D01*
X398802Y53020D01*
X398798Y53046D01*
X398801Y53071D01*
X398780Y53167D01*
X398766Y53263D01*
X398754Y53286D01*
X398748Y53312D01*
X398698Y53395D01*
X398654Y53482D01*
X398636Y53501D01*
X398622Y53523D01*
X398548Y53586D01*
X398479Y53654D01*
X398450Y53670D01*
X398435Y53683D01*
X398405Y53695D01*
X398332Y53735D01*
X394947Y55137D01*
X392437Y57647D01*
X391079Y60926D01*
X391079Y64474D01*
X392437Y67753D01*
X394947Y70263D01*
X398226Y71621D01*
X400099Y71621D01*
X400119Y71624D01*
X400138Y71622D01*
X400240Y71644D01*
X400342Y71660D01*
X400359Y71670D01*
X400379Y71674D01*
X400468Y71727D01*
X400559Y71776D01*
X400573Y71790D01*
X400590Y71800D01*
X400657Y71879D01*
X400729Y71954D01*
X400737Y71972D01*
X400750Y71987D01*
X400789Y72083D01*
X400832Y72177D01*
X400834Y72197D01*
X400842Y72215D01*
X400860Y72382D01*
X400860Y123451D01*
X400846Y123541D01*
X400838Y123632D01*
X400826Y123661D01*
X400821Y123693D01*
X400778Y123774D01*
X400742Y123858D01*
X400716Y123890D01*
X400705Y123911D01*
X400682Y123933D01*
X400637Y123989D01*
X397824Y126802D01*
X397824Y131198D01*
X400933Y134307D01*
X405329Y134307D01*
X408438Y131198D01*
X408438Y126802D01*
X407242Y125606D01*
X407200Y125548D01*
X407151Y125496D01*
X407129Y125449D01*
X407099Y125407D01*
X407077Y125338D01*
X407047Y125273D01*
X407042Y125221D01*
X407026Y125171D01*
X407028Y125100D01*
X407020Y125029D01*
X407031Y124978D01*
X407033Y124926D01*
X407057Y124858D01*
X407072Y124788D01*
X407099Y124743D01*
X407117Y124695D01*
X407162Y124639D01*
X407199Y124577D01*
X407238Y124543D01*
X407271Y124503D01*
X407331Y124464D01*
X407386Y124417D01*
X407434Y124398D01*
X407478Y124370D01*
X407547Y124352D01*
X407614Y124325D01*
X407685Y124317D01*
X407716Y124309D01*
X407739Y124311D01*
X407780Y124307D01*
X412198Y124307D01*
X415307Y121198D01*
X415307Y116649D01*
X415318Y116579D01*
X415320Y116507D01*
X415338Y116458D01*
X415346Y116407D01*
X415380Y116343D01*
X415405Y116276D01*
X415437Y116235D01*
X415462Y116189D01*
X415513Y116140D01*
X415558Y116084D01*
X415602Y116056D01*
X415640Y116020D01*
X415705Y115990D01*
X415765Y115951D01*
X415816Y115938D01*
X415863Y115916D01*
X415934Y115908D01*
X416004Y115891D01*
X416056Y115895D01*
X416107Y115889D01*
X416178Y115904D01*
X416249Y115910D01*
X416297Y115930D01*
X416348Y115941D01*
X416409Y115978D01*
X416475Y116006D01*
X416531Y116051D01*
X416559Y116068D01*
X416574Y116085D01*
X416606Y116111D01*
X416802Y116307D01*
X421198Y116307D01*
X424307Y113198D01*
X424307Y108802D01*
X421198Y105693D01*
X418512Y105693D01*
X418492Y105690D01*
X418473Y105692D01*
X418371Y105670D01*
X418269Y105654D01*
X418252Y105644D01*
X418232Y105640D01*
X418143Y105587D01*
X418052Y105538D01*
X418038Y105524D01*
X418021Y105514D01*
X417954Y105435D01*
X417882Y105360D01*
X417874Y105342D01*
X417861Y105327D01*
X417822Y105231D01*
X417779Y105137D01*
X417777Y105117D01*
X417769Y105099D01*
X417751Y104932D01*
X417751Y69504D01*
X417762Y69434D01*
X417764Y69362D01*
X417782Y69313D01*
X417790Y69262D01*
X417824Y69198D01*
X417849Y69131D01*
X417881Y69090D01*
X417906Y69044D01*
X417958Y68995D01*
X418002Y68939D01*
X418046Y68911D01*
X418084Y68875D01*
X418149Y68845D01*
X418209Y68806D01*
X418260Y68793D01*
X418307Y68771D01*
X418378Y68763D01*
X418448Y68746D01*
X418500Y68750D01*
X418551Y68744D01*
X418622Y68759D01*
X418693Y68765D01*
X418741Y68785D01*
X418792Y68796D01*
X418853Y68833D01*
X418919Y68861D01*
X418975Y68906D01*
X419003Y68923D01*
X419018Y68940D01*
X419050Y68966D01*
X420347Y70263D01*
X423626Y71621D01*
X427174Y71621D01*
X430453Y70263D01*
X432963Y67753D01*
X434321Y64474D01*
X434321Y60926D01*
X432963Y57647D01*
X430453Y55137D01*
X427174Y53779D01*
X423626Y53779D01*
X420347Y55137D01*
X419050Y56434D01*
X418992Y56476D01*
X418940Y56525D01*
X418893Y56547D01*
X418851Y56577D01*
X418782Y56599D01*
X418717Y56629D01*
X418665Y56634D01*
X418615Y56650D01*
X418544Y56648D01*
X418473Y56656D01*
X418422Y56645D01*
X418370Y56643D01*
X418302Y56619D01*
X418232Y56604D01*
X418187Y56577D01*
X418139Y56559D01*
X418083Y56514D01*
X418021Y56477D01*
X417987Y56438D01*
X417947Y56405D01*
X417908Y56345D01*
X417861Y56291D01*
X417842Y56242D01*
X417814Y56198D01*
X417796Y56129D01*
X417769Y56062D01*
X417761Y55991D01*
X417753Y55960D01*
X417755Y55937D01*
X417751Y55896D01*
X417751Y48476D01*
X417765Y48386D01*
X417773Y48295D01*
X417785Y48265D01*
X417790Y48233D01*
X417833Y48153D01*
X417869Y48069D01*
X417895Y48036D01*
X417906Y48016D01*
X417929Y47994D01*
X417974Y47938D01*
X420483Y45428D01*
X420578Y45360D01*
X420672Y45290D01*
X420678Y45288D01*
X420683Y45284D01*
X420794Y45250D01*
X420906Y45214D01*
X420912Y45214D01*
X420918Y45212D01*
X421035Y45215D01*
X421152Y45216D01*
X421159Y45218D01*
X421164Y45218D01*
X421182Y45225D01*
X421313Y45263D01*
X423626Y46221D01*
X427174Y46221D01*
X430453Y44863D01*
X432963Y42353D01*
X434321Y39074D01*
X434321Y35526D01*
X432963Y32247D01*
X430453Y29737D01*
X427174Y28379D01*
X423626Y28379D01*
X420347Y29737D01*
X417837Y32247D01*
X416479Y35526D01*
X416479Y39074D01*
X417437Y41387D01*
X417464Y41501D01*
X417492Y41614D01*
X417492Y41620D01*
X417493Y41626D01*
X417482Y41743D01*
X417473Y41859D01*
X417471Y41865D01*
X417470Y41871D01*
X417422Y41979D01*
X417377Y42086D01*
X417372Y42091D01*
X417370Y42096D01*
X417358Y42110D01*
X417272Y42217D01*
X413209Y46279D01*
X413209Y56831D01*
X413207Y56843D01*
X413208Y56850D01*
X413200Y56889D01*
X413198Y56902D01*
X413196Y56974D01*
X413178Y57023D01*
X413170Y57074D01*
X413136Y57137D01*
X413111Y57205D01*
X413079Y57245D01*
X413054Y57291D01*
X413002Y57341D01*
X412958Y57397D01*
X412914Y57425D01*
X412876Y57461D01*
X412811Y57491D01*
X412751Y57530D01*
X412700Y57542D01*
X412653Y57564D01*
X412582Y57572D01*
X412512Y57590D01*
X412460Y57586D01*
X412409Y57591D01*
X412338Y57576D01*
X412267Y57571D01*
X412219Y57550D01*
X412168Y57539D01*
X412107Y57502D01*
X412041Y57474D01*
X411985Y57429D01*
X411957Y57413D01*
X411942Y57395D01*
X411910Y57369D01*
X410718Y56177D01*
X402270Y47729D01*
X401960Y47729D01*
X401863Y47714D01*
X401767Y47704D01*
X401743Y47694D01*
X401717Y47690D01*
X401631Y47644D01*
X401542Y47604D01*
X401523Y47587D01*
X401499Y47574D01*
X401432Y47504D01*
X401361Y47438D01*
X401348Y47415D01*
X401330Y47396D01*
X401289Y47308D01*
X401242Y47222D01*
X401237Y47197D01*
X401226Y47173D01*
X401216Y47076D01*
X401198Y46980D01*
X401202Y46954D01*
X401199Y46929D01*
X401220Y46833D01*
X401234Y46737D01*
X401246Y46714D01*
X401252Y46688D01*
X401302Y46605D01*
X401346Y46518D01*
X401364Y46499D01*
X401378Y46477D01*
X401452Y46414D01*
X401521Y46346D01*
X401550Y46330D01*
X401565Y46317D01*
X401595Y46305D01*
X401668Y46265D01*
X405053Y44863D01*
X407563Y42353D01*
X408921Y39074D01*
X408921Y35526D01*
X407563Y32247D01*
X405053Y29737D01*
X401774Y28379D01*
X398226Y28379D01*
G37*
%LPD*%
%LPC*%
G36*
X288402Y71967D02*
X288402Y71967D01*
X285450Y73190D01*
X283190Y75450D01*
X281967Y78402D01*
X281967Y81598D01*
X283190Y84550D01*
X284442Y85802D01*
X284495Y85876D01*
X284555Y85946D01*
X284567Y85976D01*
X284586Y86002D01*
X284613Y86089D01*
X284647Y86174D01*
X284651Y86215D01*
X284658Y86237D01*
X284657Y86269D01*
X284665Y86341D01*
X284665Y193659D01*
X284651Y193750D01*
X284643Y193840D01*
X284631Y193870D01*
X284626Y193902D01*
X284583Y193983D01*
X284547Y194067D01*
X284521Y194099D01*
X284510Y194120D01*
X284487Y194142D01*
X284442Y194198D01*
X283190Y195450D01*
X281967Y198402D01*
X281967Y201598D01*
X283190Y204550D01*
X285450Y206810D01*
X288402Y208033D01*
X291598Y208033D01*
X294550Y206810D01*
X296810Y204550D01*
X298033Y201598D01*
X298033Y198402D01*
X296810Y195450D01*
X295558Y194198D01*
X295505Y194124D01*
X295445Y194054D01*
X295433Y194024D01*
X295414Y193998D01*
X295387Y193911D01*
X295353Y193826D01*
X295349Y193785D01*
X295342Y193763D01*
X295343Y193731D01*
X295335Y193659D01*
X295335Y86341D01*
X295349Y86250D01*
X295357Y86160D01*
X295369Y86130D01*
X295374Y86098D01*
X295417Y86017D01*
X295453Y85933D01*
X295479Y85901D01*
X295490Y85880D01*
X295513Y85858D01*
X295558Y85802D01*
X296810Y84550D01*
X298033Y81598D01*
X298033Y78402D01*
X296810Y75450D01*
X294550Y73190D01*
X291598Y71967D01*
X288402Y71967D01*
G37*
%LPD*%
%LPC*%
G36*
X425002Y391667D02*
X425002Y391667D01*
X422050Y392890D01*
X419790Y395150D01*
X418567Y398102D01*
X418567Y399873D01*
X418553Y399963D01*
X418545Y400054D01*
X418533Y400084D01*
X418528Y400116D01*
X418485Y400196D01*
X418449Y400280D01*
X418423Y400312D01*
X418412Y400333D01*
X418389Y400355D01*
X418344Y400411D01*
X414313Y404442D01*
X414239Y404495D01*
X414170Y404555D01*
X414140Y404567D01*
X414113Y404586D01*
X414027Y404613D01*
X413942Y404647D01*
X413901Y404651D01*
X413878Y404658D01*
X413846Y404657D01*
X413775Y404665D01*
X336341Y404665D01*
X336250Y404651D01*
X336160Y404643D01*
X336130Y404631D01*
X336098Y404626D01*
X336017Y404583D01*
X335933Y404547D01*
X335901Y404521D01*
X335880Y404510D01*
X335858Y404487D01*
X335802Y404442D01*
X334550Y403190D01*
X331598Y401967D01*
X328402Y401967D01*
X325450Y403190D01*
X323190Y405450D01*
X321967Y408402D01*
X321967Y411598D01*
X323190Y414550D01*
X325450Y416810D01*
X328402Y418033D01*
X331598Y418033D01*
X334550Y416810D01*
X335802Y415558D01*
X335876Y415505D01*
X335946Y415445D01*
X335976Y415433D01*
X336002Y415414D01*
X336089Y415387D01*
X336174Y415353D01*
X336215Y415349D01*
X336237Y415342D01*
X336269Y415343D01*
X336341Y415335D01*
X417361Y415335D01*
X419322Y414523D01*
X425889Y407956D01*
X425963Y407903D01*
X426032Y407843D01*
X426062Y407831D01*
X426089Y407812D01*
X426175Y407785D01*
X426260Y407751D01*
X426301Y407747D01*
X426324Y407740D01*
X426356Y407741D01*
X426427Y407733D01*
X428198Y407733D01*
X431150Y406510D01*
X433410Y404250D01*
X434633Y401298D01*
X434633Y398102D01*
X433410Y395150D01*
X431150Y392890D01*
X428198Y391667D01*
X425002Y391667D01*
G37*
%LPD*%
%LPC*%
G36*
X712210Y751241D02*
X712210Y751241D01*
X705021Y754219D01*
X699519Y759721D01*
X696541Y766910D01*
X696541Y774690D01*
X699519Y781879D01*
X705021Y787381D01*
X712210Y790359D01*
X719990Y790359D01*
X727179Y787381D01*
X732681Y781879D01*
X735659Y774690D01*
X735659Y766910D01*
X732681Y759721D01*
X727179Y754219D01*
X719990Y751241D01*
X712210Y751241D01*
G37*
%LPD*%
%LPC*%
G36*
X620010Y751241D02*
X620010Y751241D01*
X612821Y754219D01*
X607319Y759721D01*
X604341Y766910D01*
X604341Y774690D01*
X607319Y781879D01*
X612821Y787381D01*
X620010Y790359D01*
X627790Y790359D01*
X634979Y787381D01*
X640481Y781879D01*
X643459Y774690D01*
X643459Y766910D01*
X640481Y759721D01*
X634979Y754219D01*
X627790Y751241D01*
X620010Y751241D01*
G37*
%LPD*%
%LPC*%
G36*
X172210Y751241D02*
X172210Y751241D01*
X165021Y754219D01*
X159519Y759721D01*
X156541Y766910D01*
X156541Y774690D01*
X159519Y781879D01*
X165021Y787381D01*
X172210Y790359D01*
X179990Y790359D01*
X187179Y787381D01*
X192681Y781879D01*
X195659Y774690D01*
X195659Y766910D01*
X192681Y759721D01*
X187179Y754219D01*
X179990Y751241D01*
X172210Y751241D01*
G37*
%LPD*%
%LPC*%
G36*
X80010Y751241D02*
X80010Y751241D01*
X72821Y754219D01*
X67319Y759721D01*
X64341Y766910D01*
X64341Y774690D01*
X67319Y781879D01*
X72821Y787381D01*
X80010Y790359D01*
X87790Y790359D01*
X94979Y787381D01*
X100481Y781879D01*
X103459Y774690D01*
X103459Y766910D01*
X100481Y759721D01*
X94979Y754219D01*
X87790Y751241D01*
X80010Y751241D01*
G37*
%LPD*%
%LPC*%
G36*
X396320Y601499D02*
X396320Y601499D01*
X389520Y604316D01*
X384316Y609520D01*
X381499Y616320D01*
X381499Y623680D01*
X384316Y630480D01*
X389520Y635684D01*
X396320Y638501D01*
X403680Y638501D01*
X410480Y635684D01*
X415684Y630480D01*
X418501Y623680D01*
X418501Y616320D01*
X415684Y609520D01*
X410480Y604316D01*
X403680Y601499D01*
X396320Y601499D01*
G37*
%LPD*%
%LPC*%
G36*
X716320Y61499D02*
X716320Y61499D01*
X709520Y64316D01*
X704316Y69520D01*
X701499Y76320D01*
X701499Y83680D01*
X704316Y90480D01*
X709520Y95684D01*
X716320Y98501D01*
X723680Y98501D01*
X730480Y95684D01*
X735684Y90480D01*
X738501Y83680D01*
X738501Y76320D01*
X735684Y69520D01*
X730480Y64316D01*
X723680Y61499D01*
X716320Y61499D01*
G37*
%LPD*%
%LPC*%
G36*
X76320Y61499D02*
X76320Y61499D01*
X69520Y64316D01*
X64316Y69520D01*
X61499Y76320D01*
X61499Y83680D01*
X64316Y90480D01*
X69520Y95684D01*
X76320Y98501D01*
X83680Y98501D01*
X90480Y95684D01*
X95684Y90480D01*
X98501Y83680D01*
X98501Y76320D01*
X95684Y69520D01*
X90480Y64316D01*
X83680Y61499D01*
X76320Y61499D01*
G37*
%LPD*%
%LPC*%
G36*
X372826Y28379D02*
X372826Y28379D01*
X369547Y29737D01*
X367037Y32247D01*
X365679Y35526D01*
X365679Y39074D01*
X366666Y41458D01*
X366693Y41571D01*
X366722Y41685D01*
X366721Y41691D01*
X366723Y41697D01*
X366712Y41814D01*
X366703Y41930D01*
X366700Y41936D01*
X366700Y41942D01*
X366652Y42050D01*
X366606Y42156D01*
X366602Y42162D01*
X366600Y42167D01*
X366587Y42181D01*
X366501Y42287D01*
X357729Y51059D01*
X357729Y168650D01*
X370760Y181682D01*
X370814Y181756D01*
X370873Y181825D01*
X370885Y181855D01*
X370904Y181881D01*
X370931Y181968D01*
X370965Y182053D01*
X370969Y182094D01*
X370976Y182116D01*
X370975Y182149D01*
X370983Y182220D01*
X370983Y186198D01*
X374092Y189307D01*
X378488Y189307D01*
X381597Y186198D01*
X381597Y181802D01*
X378488Y178693D01*
X374510Y178693D01*
X374420Y178679D01*
X374329Y178671D01*
X374299Y178659D01*
X374267Y178654D01*
X374187Y178611D01*
X374103Y178575D01*
X374071Y178549D01*
X374050Y178538D01*
X374028Y178515D01*
X373972Y178470D01*
X362494Y166992D01*
X362441Y166918D01*
X362381Y166849D01*
X362369Y166819D01*
X362350Y166793D01*
X362323Y166706D01*
X362289Y166621D01*
X362285Y166580D01*
X362278Y166557D01*
X362279Y166525D01*
X362271Y166454D01*
X362271Y53256D01*
X362285Y53166D01*
X362293Y53075D01*
X362305Y53045D01*
X362310Y53013D01*
X362353Y52932D01*
X362389Y52849D01*
X362415Y52816D01*
X362426Y52796D01*
X362449Y52774D01*
X362494Y52718D01*
X369754Y45457D01*
X369848Y45390D01*
X369943Y45319D01*
X369949Y45317D01*
X369954Y45314D01*
X370065Y45280D01*
X370177Y45243D01*
X370183Y45243D01*
X370189Y45241D01*
X370306Y45244D01*
X370423Y45245D01*
X370430Y45248D01*
X370435Y45248D01*
X370452Y45254D01*
X370584Y45292D01*
X372826Y46221D01*
X376374Y46221D01*
X379653Y44863D01*
X382163Y42353D01*
X383521Y39074D01*
X383521Y35526D01*
X382163Y32247D01*
X379653Y29737D01*
X376374Y28379D01*
X372826Y28379D01*
G37*
%LPD*%
%LPC*%
G36*
X498895Y264443D02*
X498895Y264443D01*
X496852Y265289D01*
X495635Y266506D01*
X495561Y266559D01*
X495492Y266619D01*
X495462Y266631D01*
X495436Y266650D01*
X495349Y266677D01*
X495264Y266711D01*
X495223Y266715D01*
X495200Y266722D01*
X495168Y266721D01*
X495097Y266729D01*
X468645Y266729D01*
X400904Y334470D01*
X400830Y334523D01*
X400761Y334583D01*
X400731Y334595D01*
X400704Y334614D01*
X400617Y334641D01*
X400533Y334675D01*
X400492Y334679D01*
X400469Y334686D01*
X400437Y334685D01*
X400366Y334693D01*
X397802Y334693D01*
X394693Y337802D01*
X394693Y342198D01*
X397802Y345307D01*
X402198Y345307D01*
X405307Y342198D01*
X405307Y339634D01*
X405321Y339544D01*
X405329Y339453D01*
X405341Y339423D01*
X405346Y339391D01*
X405389Y339311D01*
X405425Y339227D01*
X405451Y339195D01*
X405462Y339174D01*
X405485Y339152D01*
X405530Y339096D01*
X471132Y273494D01*
X471206Y273441D01*
X471275Y273381D01*
X471305Y273369D01*
X471332Y273350D01*
X471419Y273323D01*
X471503Y273289D01*
X471544Y273285D01*
X471567Y273278D01*
X471599Y273279D01*
X471670Y273271D01*
X495097Y273271D01*
X495187Y273285D01*
X495278Y273293D01*
X495308Y273305D01*
X495340Y273310D01*
X495420Y273353D01*
X495504Y273389D01*
X495536Y273415D01*
X495557Y273426D01*
X495579Y273449D01*
X495635Y273494D01*
X496852Y274711D01*
X498895Y275557D01*
X501105Y275557D01*
X503148Y274711D01*
X504711Y273148D01*
X505557Y271105D01*
X505557Y268895D01*
X504711Y266852D01*
X503148Y265289D01*
X501105Y264443D01*
X498895Y264443D01*
G37*
%LPD*%
%LPC*%
G36*
X148895Y224443D02*
X148895Y224443D01*
X146852Y225289D01*
X145289Y226852D01*
X144443Y228895D01*
X144443Y231105D01*
X145289Y233148D01*
X146852Y234711D01*
X147259Y234879D01*
X147358Y234941D01*
X147459Y235001D01*
X147463Y235006D01*
X147468Y235009D01*
X147542Y235098D01*
X147619Y235188D01*
X147621Y235194D01*
X147625Y235198D01*
X147667Y235306D01*
X147711Y235416D01*
X147712Y235423D01*
X147713Y235428D01*
X147714Y235446D01*
X147729Y235583D01*
X147729Y250941D01*
X234447Y337658D01*
X234515Y337753D01*
X234585Y337847D01*
X234587Y337853D01*
X234590Y337858D01*
X234625Y337969D01*
X234661Y338081D01*
X234661Y338087D01*
X234663Y338093D01*
X234660Y338210D01*
X234659Y338327D01*
X234656Y338334D01*
X234656Y338339D01*
X234650Y338356D01*
X234612Y338488D01*
X234443Y338895D01*
X234443Y341105D01*
X235289Y343148D01*
X236852Y344711D01*
X238895Y345557D01*
X241105Y345557D01*
X243148Y344711D01*
X244711Y343148D01*
X245557Y341105D01*
X245557Y338895D01*
X244711Y336852D01*
X243148Y335289D01*
X241105Y334443D01*
X238895Y334443D01*
X238488Y334612D01*
X238423Y334627D01*
X238370Y334649D01*
X238306Y334656D01*
X238261Y334667D01*
X238254Y334667D01*
X238248Y334668D01*
X238219Y334665D01*
X238203Y334667D01*
X238194Y334667D01*
X238134Y334657D01*
X238132Y334657D01*
X238015Y334648D01*
X238010Y334646D01*
X238003Y334645D01*
X237971Y334631D01*
X237951Y334627D01*
X237886Y334593D01*
X237789Y334552D01*
X237783Y334547D01*
X237779Y334545D01*
X237765Y334532D01*
X237752Y334522D01*
X237733Y334512D01*
X237713Y334491D01*
X237658Y334447D01*
X152494Y249282D01*
X152441Y249208D01*
X152381Y249139D01*
X152369Y249109D01*
X152350Y249083D01*
X152323Y248996D01*
X152289Y248911D01*
X152285Y248870D01*
X152278Y248848D01*
X152279Y248815D01*
X152271Y248744D01*
X152271Y235583D01*
X152289Y235468D01*
X152307Y235352D01*
X152309Y235346D01*
X152310Y235340D01*
X152365Y235237D01*
X152418Y235132D01*
X152423Y235128D01*
X152426Y235123D01*
X152510Y235042D01*
X152594Y234960D01*
X152600Y234957D01*
X152604Y234953D01*
X152621Y234945D01*
X152741Y234879D01*
X153148Y234711D01*
X154711Y233148D01*
X155557Y231105D01*
X155557Y228895D01*
X154711Y226852D01*
X153148Y225289D01*
X151105Y224443D01*
X148895Y224443D01*
G37*
%LPD*%
%LPC*%
G36*
X558402Y171967D02*
X558402Y171967D01*
X555450Y173190D01*
X553190Y175450D01*
X551967Y178402D01*
X551967Y181598D01*
X553190Y184550D01*
X554442Y185802D01*
X554495Y185876D01*
X554555Y185946D01*
X554567Y185976D01*
X554586Y186002D01*
X554613Y186089D01*
X554647Y186174D01*
X554651Y186215D01*
X554658Y186237D01*
X554657Y186269D01*
X554665Y186341D01*
X554665Y223659D01*
X554651Y223750D01*
X554643Y223840D01*
X554631Y223870D01*
X554626Y223902D01*
X554583Y223983D01*
X554547Y224067D01*
X554521Y224099D01*
X554510Y224120D01*
X554487Y224142D01*
X554442Y224198D01*
X553190Y225450D01*
X551967Y228402D01*
X551967Y231598D01*
X553190Y234550D01*
X555450Y236810D01*
X558402Y238033D01*
X561598Y238033D01*
X564550Y236810D01*
X566810Y234550D01*
X568033Y231598D01*
X568033Y228402D01*
X566810Y225450D01*
X565558Y224198D01*
X565505Y224124D01*
X565445Y224054D01*
X565433Y224024D01*
X565414Y223998D01*
X565387Y223911D01*
X565353Y223826D01*
X565349Y223785D01*
X565342Y223763D01*
X565343Y223731D01*
X565335Y223659D01*
X565335Y186341D01*
X565349Y186250D01*
X565357Y186160D01*
X565369Y186130D01*
X565374Y186098D01*
X565417Y186017D01*
X565453Y185933D01*
X565479Y185901D01*
X565490Y185880D01*
X565513Y185858D01*
X565558Y185802D01*
X566810Y184550D01*
X568033Y181598D01*
X568033Y178402D01*
X566810Y175450D01*
X564550Y173190D01*
X561598Y171967D01*
X558402Y171967D01*
G37*
%LPD*%
%LPC*%
G36*
X713308Y655166D02*
X713308Y655166D01*
X708150Y657302D01*
X704202Y661250D01*
X702066Y666408D01*
X702066Y671992D01*
X704202Y677150D01*
X708150Y681098D01*
X713308Y683234D01*
X718892Y683234D01*
X724050Y681098D01*
X727998Y677150D01*
X730134Y671992D01*
X730134Y666408D01*
X727998Y661250D01*
X724050Y657302D01*
X718892Y655166D01*
X713308Y655166D01*
G37*
%LPD*%
%LPC*%
G36*
X621108Y655166D02*
X621108Y655166D01*
X615950Y657302D01*
X612002Y661250D01*
X609866Y666408D01*
X609866Y671992D01*
X612002Y677150D01*
X615950Y681098D01*
X621108Y683234D01*
X626692Y683234D01*
X631850Y681098D01*
X635798Y677150D01*
X637934Y671992D01*
X637934Y666408D01*
X635798Y661250D01*
X631850Y657302D01*
X626692Y655166D01*
X621108Y655166D01*
G37*
%LPD*%
%LPC*%
G36*
X173308Y655166D02*
X173308Y655166D01*
X168150Y657302D01*
X164202Y661250D01*
X162066Y666408D01*
X162066Y671992D01*
X164202Y677150D01*
X168150Y681098D01*
X173308Y683234D01*
X178892Y683234D01*
X184050Y681098D01*
X187998Y677150D01*
X190134Y671992D01*
X190134Y666408D01*
X187998Y661250D01*
X184050Y657302D01*
X178892Y655166D01*
X173308Y655166D01*
G37*
%LPD*%
%LPC*%
G36*
X81108Y655166D02*
X81108Y655166D01*
X75950Y657302D01*
X72002Y661250D01*
X69866Y666408D01*
X69866Y671992D01*
X72002Y677150D01*
X75950Y681098D01*
X81108Y683234D01*
X86692Y683234D01*
X91850Y681098D01*
X95798Y677150D01*
X97934Y671992D01*
X97934Y666408D01*
X95798Y661250D01*
X91850Y657302D01*
X86692Y655166D01*
X81108Y655166D01*
G37*
%LPD*%
%LPC*%
G36*
X661254Y344729D02*
X661254Y344729D01*
X658581Y345836D01*
X656536Y347881D01*
X655429Y350554D01*
X655429Y353446D01*
X656536Y356119D01*
X658581Y358164D01*
X661254Y359271D01*
X664146Y359271D01*
X666819Y358164D01*
X668864Y356119D01*
X669971Y353446D01*
X669971Y350554D01*
X668864Y347881D01*
X666819Y345836D01*
X664146Y344729D01*
X661254Y344729D01*
G37*
%LPD*%
%LPC*%
G36*
X635854Y344729D02*
X635854Y344729D01*
X633181Y345836D01*
X631136Y347881D01*
X630029Y350554D01*
X630029Y353446D01*
X631136Y356119D01*
X633181Y358164D01*
X635854Y359271D01*
X638746Y359271D01*
X641419Y358164D01*
X643464Y356119D01*
X644571Y353446D01*
X644571Y350554D01*
X643464Y347881D01*
X641419Y345836D01*
X638746Y344729D01*
X635854Y344729D01*
G37*
%LPD*%
%LPC*%
G36*
X161254Y344729D02*
X161254Y344729D01*
X158581Y345836D01*
X156536Y347881D01*
X155429Y350554D01*
X155429Y353446D01*
X156536Y356119D01*
X158581Y358164D01*
X161254Y359271D01*
X164146Y359271D01*
X166819Y358164D01*
X168864Y356119D01*
X169971Y353446D01*
X169971Y350554D01*
X168864Y347881D01*
X166819Y345836D01*
X164146Y344729D01*
X161254Y344729D01*
G37*
%LPD*%
%LPC*%
G36*
X135854Y344729D02*
X135854Y344729D01*
X133181Y345836D01*
X131136Y347881D01*
X130029Y350554D01*
X130029Y353446D01*
X131136Y356119D01*
X133181Y358164D01*
X135854Y359271D01*
X138746Y359271D01*
X141419Y358164D01*
X143464Y356119D01*
X144571Y353446D01*
X144571Y350554D01*
X143464Y347881D01*
X141419Y345836D01*
X138746Y344729D01*
X135854Y344729D01*
G37*
%LPD*%
%LPC*%
G36*
X376497Y304455D02*
X376497Y304455D01*
X374459Y305299D01*
X372899Y306859D01*
X372055Y308897D01*
X372055Y311103D01*
X372899Y313141D01*
X374459Y314701D01*
X376497Y315545D01*
X378703Y315545D01*
X380741Y314701D01*
X382301Y313141D01*
X383145Y311103D01*
X383145Y308897D01*
X382301Y306859D01*
X380741Y305299D01*
X378703Y304455D01*
X376497Y304455D01*
G37*
%LPD*%
%LPC*%
G36*
X366397Y234455D02*
X366397Y234455D01*
X364359Y235299D01*
X362799Y236859D01*
X361955Y238897D01*
X361955Y241103D01*
X362799Y243141D01*
X364359Y244701D01*
X366397Y245545D01*
X368603Y245545D01*
X370641Y244701D01*
X372201Y243141D01*
X373045Y241103D01*
X373045Y238897D01*
X372201Y236859D01*
X370641Y235299D01*
X368603Y234455D01*
X366397Y234455D01*
G37*
%LPD*%
D10*
X124600Y374000D03*
X175400Y374000D03*
X150000Y374000D03*
X137300Y352000D03*
X162700Y352000D03*
D11*
X85750Y460000D02*
X85750Y520000D01*
X214250Y520000D02*
X214250Y460000D01*
D12*
X400000Y778455D03*
X400000Y709080D03*
D13*
X392500Y240000D03*
X367500Y240000D03*
X402600Y310000D03*
X377600Y310000D03*
D14*
X83900Y669200D03*
D15*
X83900Y770800D03*
D14*
X176100Y669200D03*
D15*
X176100Y770800D03*
D10*
X624600Y374000D03*
X675400Y374000D03*
X650000Y374000D03*
X637300Y352000D03*
X662700Y352000D03*
D11*
X585750Y460000D02*
X585750Y520000D01*
X714250Y520000D02*
X714250Y460000D01*
D14*
X623900Y669200D03*
D15*
X623900Y770800D03*
D14*
X716100Y669200D03*
D15*
X716100Y770800D03*
D12*
X50000Y348455D03*
X50000Y279080D03*
X750000Y348455D03*
X750000Y279080D03*
D16*
X425400Y37300D03*
X400000Y37300D03*
X374600Y37300D03*
X425400Y62700D03*
X400000Y62700D03*
X374600Y62700D03*
D17*
X251000Y150000D03*
X148000Y109000D03*
X221000Y176000D03*
X410000Y350000D03*
D10*
X420000Y340000D03*
D18*
X480000Y550000D03*
X480000Y490000D03*
X480000Y430000D03*
D17*
X10000Y150000D03*
D10*
X330000Y455000D03*
D17*
X10000Y190000D03*
X10000Y170000D03*
X201000Y322000D03*
X601000Y321000D03*
X700000Y322000D03*
D10*
X470000Y710000D03*
D19*
X367000Y114000D03*
X383918Y153918D03*
X387918Y184082D03*
X410000Y184000D03*
X401000Y184000D03*
X150000Y290000D03*
X180000Y270000D03*
D10*
X540000Y90000D03*
D19*
X100000Y320000D03*
X375000Y168000D03*
X670000Y290000D03*
X610000Y270000D03*
D10*
X290000Y200000D03*
X290000Y80000D03*
X560000Y230000D03*
X560000Y180000D03*
D20*
X560000Y230000D01*
X290000Y200000D02*
X290000Y80000D01*
D19*
X419000Y111000D03*
D21*
X415480Y107480D02*
X415480Y47220D01*
X415480Y107480D02*
X419000Y111000D01*
X415480Y47220D02*
X425400Y37300D01*
X381300Y50000D02*
X374600Y56700D01*
X374600Y62700D01*
D19*
X410000Y119000D03*
D21*
X410000Y58671D02*
X401329Y50000D01*
X410000Y58671D02*
X410000Y119000D01*
X401329Y50000D02*
X381300Y50000D01*
D19*
X403131Y129000D03*
D21*
X403131Y65831D01*
X400000Y62700D01*
D17*
X150000Y230000D03*
D21*
X150000Y250000D01*
X240000Y340000D01*
D17*
X240000Y340000D03*
X500000Y270000D03*
D22*
X470000Y270000D01*
X400000Y340000D01*
D19*
X400000Y340000D03*
D10*
X330000Y410000D03*
X426600Y399700D03*
D20*
X416300Y410000D02*
X330000Y410000D01*
X416300Y410000D02*
X426600Y399700D01*
D19*
X376290Y184000D03*
D21*
X360000Y167710D01*
X360000Y52000D01*
X374600Y37400D02*
X374600Y37300D01*
X374600Y37400D02*
X360000Y52000D01*
M02*
