G04 EAGLE Gerber RS-274X export*
G75*
%MOMM*%
%FSLAX34Y34*%
%LPD*%
%INSoldermask Top*%
%IPPOS*%
%AMOC8*
5,1,8,0,0,1.08239X$1,22.5*%
G01*
%ADD10C,3.604800*%
%ADD11R,0.660400X1.765300*%
%ADD12R,1.404800X1.304800*%
%ADD13R,1.155600X2.066000*%
%ADD14R,3.455600X2.066000*%
%ADD15R,1.304800X1.404800*%
%ADD16C,1.504800*%
%ADD17C,6.304800*%
%ADD18C,6.020800*%
%ADD19R,5.704800X3.204800*%
%ADD20R,2.464800X1.214800*%
%ADD21R,10.714800X11.104800*%
%ADD22C,1.159600*%
%ADD23R,2.804800X4.304800*%
%ADD24R,1.104800X1.104800*%
%ADD25R,3.304800X2.304800*%
%ADD26C,2.857500*%
%ADD27C,3.962400*%
%ADD28R,1.473200X2.235200*%
%ADD29R,1.204800X1.704800*%
%ADD30R,2.504800X1.704800*%
%ADD31R,1.704800X1.204800*%
%ADD32R,1.704800X2.504800*%
%ADD33R,1.981200X1.828800*%
%ADD34C,1.834800*%
%ADD35R,1.954800X5.634800*%
%ADD36C,3.704800*%
%ADD37C,1.804800*%


D10*
X80000Y80000D03*
X720000Y80000D03*
X400000Y620000D03*
D11*
X422225Y197242D03*
X415875Y197242D03*
X409525Y197242D03*
X403175Y197242D03*
X396825Y197242D03*
X390475Y197242D03*
X384125Y197242D03*
X377775Y197242D03*
X377775Y142759D03*
X384125Y142759D03*
X390475Y142759D03*
X396825Y142759D03*
X403175Y142759D03*
X409525Y142759D03*
X415875Y142759D03*
X422225Y142759D03*
D12*
X346500Y166000D03*
X363500Y166000D03*
D13*
X223000Y160250D03*
X200000Y160250D03*
X177000Y160250D03*
D14*
X200000Y99750D03*
D15*
X150000Y138500D03*
X150000Y121500D03*
X250000Y121500D03*
X250000Y138500D03*
D16*
X124600Y374000D03*
X175400Y374000D03*
X150000Y374000D03*
X137300Y352000D03*
X162700Y352000D03*
D17*
X85750Y460000D02*
X85750Y520000D01*
X214250Y520000D02*
X214250Y460000D01*
D12*
X118500Y310000D03*
X101500Y310000D03*
D15*
X141500Y310000D03*
X158500Y310000D03*
D12*
X170000Y271500D03*
X170000Y288500D03*
X140000Y271500D03*
X140000Y288500D03*
X110000Y271500D03*
X110000Y288500D03*
X200000Y271500D03*
X200000Y288500D03*
X181500Y310000D03*
X198500Y310000D03*
D18*
X400000Y778455D03*
X400000Y709080D03*
D19*
X281700Y381100D03*
X281700Y282100D03*
D20*
X446800Y378100D03*
X446800Y365400D03*
X446800Y352700D03*
X446800Y340000D03*
X446800Y327300D03*
X446800Y314600D03*
X446800Y301900D03*
D21*
X530000Y340000D03*
D15*
X420000Y378500D03*
X420000Y361500D03*
D12*
X458500Y400000D03*
X441500Y400000D03*
D22*
X392500Y240000D03*
X367500Y240000D03*
X402600Y310000D03*
X377600Y310000D03*
D23*
X448500Y560000D03*
X511500Y560000D03*
X448500Y500000D03*
X511500Y500000D03*
X448500Y440000D03*
X511500Y440000D03*
D12*
X386500Y125000D03*
X369500Y125000D03*
D15*
X131500Y160000D03*
X148500Y160000D03*
X131500Y183900D03*
X148500Y183900D03*
X131500Y210000D03*
X148500Y210000D03*
D24*
X32500Y160000D03*
X47500Y160000D03*
X32500Y180000D03*
X47500Y180000D03*
X32500Y200000D03*
X47500Y200000D03*
D25*
X300000Y463250D03*
X300000Y416750D03*
D26*
X83900Y669200D03*
D27*
X83900Y770800D03*
D26*
X176100Y669200D03*
D27*
X176100Y770800D03*
D28*
X257300Y250000D03*
X282700Y250000D03*
D29*
X514000Y270000D03*
D30*
X539500Y270000D03*
D31*
X110000Y114000D03*
D32*
X110000Y139500D03*
D15*
X403500Y104000D03*
X386500Y104000D03*
D16*
X624600Y374000D03*
X675400Y374000D03*
X650000Y374000D03*
X637300Y352000D03*
X662700Y352000D03*
D17*
X585750Y460000D02*
X585750Y520000D01*
X714250Y520000D02*
X714250Y460000D01*
D12*
X618500Y310000D03*
X601500Y310000D03*
D15*
X658500Y310000D03*
X641500Y310000D03*
D12*
X600000Y271500D03*
X600000Y288500D03*
X660000Y271500D03*
X660000Y288500D03*
X690000Y271500D03*
X690000Y288500D03*
X630000Y271500D03*
X630000Y288500D03*
X681500Y310000D03*
X698500Y310000D03*
D26*
X623900Y669200D03*
D27*
X623900Y770800D03*
D26*
X716100Y669200D03*
D27*
X716100Y770800D03*
D18*
X50000Y348455D03*
X50000Y279080D03*
X750000Y348455D03*
X750000Y279080D03*
D33*
X470000Y730315D03*
X470000Y769685D03*
D34*
X425400Y37300D03*
X400000Y37300D03*
X374600Y37300D03*
X425400Y62700D03*
X400000Y62700D03*
X374600Y62700D03*
D35*
X563700Y127900D03*
X538300Y127900D03*
D36*
X524300Y21000D03*
X577700Y21000D03*
D16*
X420000Y340000D03*
D37*
X480000Y550000D03*
X480000Y490000D03*
X480000Y430000D03*
D16*
X330000Y455000D03*
X470000Y710000D03*
X540000Y90000D03*
X290000Y200000D03*
X290000Y80000D03*
X560000Y230000D03*
X560000Y180000D03*
X330000Y410000D03*
X426600Y399700D03*
M02*
