G04 EAGLE Gerber RS-274X export*
G75*
%MOMM*%
%FSLAX34Y34*%
%LPD*%
%INSolderpaste Top*%
%IPPOS*%
%AMOC8*
5,1,8,0,0,1.08239X$1,22.5*%
G01*
%ADD10R,0.355600X1.460500*%
%ADD11R,1.100000X1.000000*%
%ADD12R,0.850800X1.761200*%
%ADD13R,3.150800X1.761200*%
%ADD14R,1.000000X1.100000*%
%ADD15R,5.400000X2.900000*%
%ADD16R,2.160000X0.910000*%
%ADD17R,10.410000X10.800000*%
%ADD18R,2.500000X4.000000*%
%ADD19R,0.800000X0.800000*%
%ADD20R,3.000000X2.000000*%
%ADD21R,1.168400X1.930400*%
%ADD22R,0.900000X1.400000*%
%ADD23R,2.200000X1.400000*%
%ADD24R,1.400000X0.900000*%
%ADD25R,1.400000X2.200000*%
%ADD26R,1.676400X1.524000*%
%ADD27R,1.650000X5.330000*%


D10*
X422225Y197242D03*
X415875Y197242D03*
X409525Y197242D03*
X403175Y197242D03*
X396825Y197242D03*
X390475Y197242D03*
X384125Y197242D03*
X377775Y197242D03*
X377775Y142759D03*
X384125Y142759D03*
X390475Y142759D03*
X396825Y142759D03*
X403175Y142759D03*
X409525Y142759D03*
X415875Y142759D03*
X422225Y142759D03*
D11*
X346500Y166000D03*
X363500Y166000D03*
D12*
X223000Y160250D03*
X200000Y160250D03*
X177000Y160250D03*
D13*
X200000Y99750D03*
D14*
X150000Y138500D03*
X150000Y121500D03*
X250000Y121500D03*
X250000Y138500D03*
D11*
X118500Y310000D03*
X101500Y310000D03*
D14*
X141500Y310000D03*
X158500Y310000D03*
D11*
X170000Y271500D03*
X170000Y288500D03*
X140000Y271500D03*
X140000Y288500D03*
X110000Y271500D03*
X110000Y288500D03*
X200000Y271500D03*
X200000Y288500D03*
X181500Y310000D03*
X198500Y310000D03*
D15*
X281700Y381100D03*
X281700Y282100D03*
D16*
X446800Y378100D03*
X446800Y365400D03*
X446800Y352700D03*
X446800Y340000D03*
X446800Y327300D03*
X446800Y314600D03*
X446800Y301900D03*
D17*
X530000Y340000D03*
D14*
X420000Y378500D03*
X420000Y361500D03*
D11*
X458500Y400000D03*
X441500Y400000D03*
D18*
X448500Y560000D03*
X511500Y560000D03*
X448500Y500000D03*
X511500Y500000D03*
X448500Y440000D03*
X511500Y440000D03*
D11*
X386500Y125000D03*
X369500Y125000D03*
D14*
X131500Y160000D03*
X148500Y160000D03*
X131500Y183900D03*
X148500Y183900D03*
X131500Y210000D03*
X148500Y210000D03*
D19*
X32500Y160000D03*
X47500Y160000D03*
X32500Y180000D03*
X47500Y180000D03*
X32500Y200000D03*
X47500Y200000D03*
D20*
X300000Y463250D03*
X300000Y416750D03*
D21*
X257300Y250000D03*
X282700Y250000D03*
D22*
X514000Y270000D03*
D23*
X539500Y270000D03*
D24*
X110000Y114000D03*
D25*
X110000Y139500D03*
D14*
X403500Y104000D03*
X386500Y104000D03*
D11*
X618500Y310000D03*
X601500Y310000D03*
D14*
X658500Y310000D03*
X641500Y310000D03*
D11*
X600000Y271500D03*
X600000Y288500D03*
X660000Y271500D03*
X660000Y288500D03*
X690000Y271500D03*
X690000Y288500D03*
X630000Y271500D03*
X630000Y288500D03*
X681500Y310000D03*
X698500Y310000D03*
D26*
X470000Y730315D03*
X470000Y769685D03*
D27*
X563700Y127900D03*
X538300Y127900D03*
M02*
