%TF.GenerationSoftware,KiCad,Pcbnew,8.0.2*%
%TF.CreationDate,2024-10-02T19:45:14-04:00*%
%TF.ProjectId,FewawiControlBoard,46657761-7769-4436-9f6e-74726f6c426f,rev?*%
%TF.SameCoordinates,Original*%
%TF.FileFunction,Soldermask,Bot*%
%TF.FilePolarity,Negative*%
%FSLAX46Y46*%
G04 Gerber Fmt 4.6, Leading zero omitted, Abs format (unit mm)*
G04 Created by KiCad (PCBNEW 8.0.2) date 2024-10-02 19:45:14*
%MOMM*%
%LPD*%
G01*
G04 APERTURE LIST*
G04 Aperture macros list*
%AMRoundRect*
0 Rectangle with rounded corners*
0 $1 Rounding radius*
0 $2 $3 $4 $5 $6 $7 $8 $9 X,Y pos of 4 corners*
0 Add a 4 corners polygon primitive as box body*
4,1,4,$2,$3,$4,$5,$6,$7,$8,$9,$2,$3,0*
0 Add four circle primitives for the rounded corners*
1,1,$1+$1,$2,$3*
1,1,$1+$1,$4,$5*
1,1,$1+$1,$6,$7*
1,1,$1+$1,$8,$9*
0 Add four rect primitives between the rounded corners*
20,1,$1+$1,$2,$3,$4,$5,0*
20,1,$1+$1,$4,$5,$6,$7,0*
20,1,$1+$1,$6,$7,$8,$9,0*
20,1,$1+$1,$8,$9,$2,$3,0*%
G04 Aperture macros list end*
%ADD10RoundRect,0.250000X-0.625000X0.350000X-0.625000X-0.350000X0.625000X-0.350000X0.625000X0.350000X0*%
%ADD11O,1.750000X1.200000*%
%ADD12RoundRect,0.250000X0.625000X-0.350000X0.625000X0.350000X-0.625000X0.350000X-0.625000X-0.350000X0*%
%ADD13RoundRect,0.250000X-0.350000X-0.625000X0.350000X-0.625000X0.350000X0.625000X-0.350000X0.625000X0*%
%ADD14O,1.200000X1.750000*%
%ADD15RoundRect,0.250000X0.350000X0.625000X-0.350000X0.625000X-0.350000X-0.625000X0.350000X-0.625000X0*%
%ADD16C,1.512000*%
%ADD17C,1.462000*%
%ADD18C,1.412000*%
%ADD19C,6.000000*%
%ADD20R,3.800000X3.800000*%
%ADD21C,4.000000*%
%ADD22C,1.700000*%
%ADD23C,3.987800*%
%ADD24C,1.712000*%
%ADD25C,2.454000*%
%ADD26C,1.524000*%
G04 APERTURE END LIST*
D10*
%TO.C,J6*%
X103930000Y-81440000D03*
D11*
X103930000Y-83440000D03*
X103930000Y-85440000D03*
%TD*%
D12*
%TO.C,J11*%
X196030000Y-86940000D03*
D11*
X196030000Y-84940000D03*
X196030000Y-82940000D03*
%TD*%
D13*
%TO.C,J22*%
X116480000Y-131490000D03*
D14*
X118480000Y-131490000D03*
X120480000Y-131490000D03*
%TD*%
D13*
%TO.C,J16*%
X127480000Y-131490000D03*
D14*
X129480000Y-131490000D03*
X131480000Y-131490000D03*
%TD*%
D13*
%TO.C,J2*%
X191500000Y-131550000D03*
D14*
X193500000Y-131550000D03*
X195500000Y-131550000D03*
X197500000Y-131550000D03*
X199500000Y-131550000D03*
%TD*%
D15*
%TO.C,J20*%
X113980000Y-59890000D03*
D14*
X111980000Y-59890000D03*
X109980000Y-59890000D03*
%TD*%
D15*
%TO.C,J8*%
X156980000Y-59890000D03*
D14*
X154980000Y-59890000D03*
X152980000Y-59890000D03*
%TD*%
D16*
%TO.C,U1*%
X102310000Y-122180000D03*
X104850000Y-122180000D03*
X107390000Y-122180000D03*
X109930000Y-122180000D03*
X135330000Y-122180000D03*
X104850000Y-106940000D03*
X145490000Y-117100000D03*
X112470000Y-122180000D03*
X115010000Y-122180000D03*
D17*
X106120000Y-119130000D03*
D16*
X117550000Y-122180000D03*
X120090000Y-122180000D03*
X122630000Y-122180000D03*
X125170000Y-122180000D03*
X127710000Y-122180000D03*
X130250000Y-122180000D03*
X132790000Y-122180000D03*
X132790000Y-106940000D03*
X130250000Y-106940000D03*
X127710000Y-106940000D03*
X125170000Y-106940000D03*
X122630000Y-106940000D03*
X120090000Y-106940000D03*
X117550000Y-106940000D03*
X115010000Y-106940000D03*
X112470000Y-106940000D03*
X109930000Y-106940000D03*
X107390000Y-106940000D03*
X137870000Y-122180000D03*
X140410000Y-122180000D03*
X142950000Y-122180000D03*
X145490000Y-122180000D03*
X148030000Y-122180000D03*
X150570000Y-122180000D03*
X153110000Y-122180000D03*
X155650000Y-122180000D03*
X158190000Y-122180000D03*
X158190000Y-106940000D03*
X155650000Y-106940000D03*
X153110000Y-106940000D03*
X150570000Y-106940000D03*
X148030000Y-106940000D03*
X145490000Y-106940000D03*
X142950000Y-106940000D03*
X140410000Y-106940000D03*
X137870000Y-106940000D03*
D17*
X111200000Y-119130000D03*
X108660000Y-119130000D03*
D16*
X99770000Y-122180000D03*
X135330000Y-106940000D03*
X102310000Y-106940000D03*
X145490000Y-114560000D03*
D18*
X114740000Y-111390000D03*
X112740000Y-111390000D03*
D16*
X145490000Y-109480000D03*
X145490000Y-112020000D03*
D18*
X112740000Y-109390000D03*
X114740000Y-109390000D03*
X114740000Y-113390000D03*
X112740000Y-113390000D03*
D17*
X113740000Y-119130000D03*
X116280000Y-119130000D03*
D16*
X145490000Y-119640000D03*
X99770000Y-106940000D03*
X102310000Y-109480000D03*
%TD*%
D19*
%TO.C,REF\u002A\u002A*%
X196500000Y-112000000D03*
%TD*%
D15*
%TO.C,J14*%
X103480000Y-59890000D03*
D14*
X101480000Y-59890000D03*
X99480000Y-59890000D03*
%TD*%
D20*
%TO.C,J26*%
X199250000Y-104500000D03*
D21*
X194250000Y-104500000D03*
%TD*%
D22*
%TO.C,U2*%
X170670000Y-108360000D03*
D23*
X175670000Y-108360000D03*
D22*
X180670000Y-108360000D03*
D24*
X171860000Y-113440000D03*
X179480000Y-113440000D03*
D25*
X178180000Y-103280000D03*
X171860000Y-105820000D03*
%TD*%
D15*
%TO.C,J24*%
X167480000Y-59890000D03*
D14*
X165480000Y-59890000D03*
X163480000Y-59890000D03*
%TD*%
D20*
%TO.C,J27*%
X199480000Y-119940000D03*
D21*
X194480000Y-119940000D03*
%TD*%
D12*
%TO.C,J10*%
X196030000Y-75940000D03*
D11*
X196030000Y-73940000D03*
X196030000Y-71940000D03*
%TD*%
D13*
%TO.C,J25*%
X183480000Y-131490000D03*
D14*
X185480000Y-131490000D03*
%TD*%
D15*
%TO.C,J15*%
X199980000Y-59890000D03*
D14*
X197980000Y-59890000D03*
X195980000Y-59890000D03*
%TD*%
D15*
%TO.C,J18*%
X135480000Y-59890000D03*
D14*
X133480000Y-59890000D03*
X131480000Y-59890000D03*
%TD*%
D26*
%TO.C,U3*%
X140480000Y-84440000D03*
X140480000Y-86940000D03*
X140480000Y-89440000D03*
X140480000Y-91940000D03*
X140480000Y-94496000D03*
X140480000Y-97036000D03*
X162980000Y-84440000D03*
X162980000Y-86940000D03*
X162980000Y-89440000D03*
X162980000Y-91956000D03*
X162980000Y-94496000D03*
X162980000Y-97036000D03*
%TD*%
D15*
%TO.C,J3*%
X124480000Y-59890000D03*
D14*
X122480000Y-59890000D03*
X120480000Y-59890000D03*
%TD*%
D13*
%TO.C,J4*%
X138480000Y-131490000D03*
D14*
X140480000Y-131490000D03*
X142480000Y-131490000D03*
%TD*%
D13*
%TO.C,J23*%
X172980000Y-131490000D03*
D14*
X174980000Y-131490000D03*
X176980000Y-131490000D03*
%TD*%
D13*
%TO.C,J9*%
X149480000Y-131490000D03*
D14*
X151480000Y-131490000D03*
X153480000Y-131490000D03*
X155480000Y-131490000D03*
%TD*%
D13*
%TO.C,J17*%
X162980000Y-131490000D03*
D14*
X164980000Y-131490000D03*
X166980000Y-131490000D03*
%TD*%
D15*
%TO.C,J19*%
X146480000Y-59890000D03*
D14*
X144480000Y-59890000D03*
X142480000Y-59890000D03*
%TD*%
D15*
%TO.C,J13*%
X178480000Y-59940000D03*
D14*
X176480000Y-59940000D03*
X174480000Y-59940000D03*
%TD*%
D12*
%TO.C,J12*%
X196030000Y-98440000D03*
D11*
X196030000Y-96440000D03*
X196030000Y-94440000D03*
%TD*%
D10*
%TO.C,J7*%
X103930000Y-92440000D03*
D11*
X103930000Y-94440000D03*
X103930000Y-96440000D03*
%TD*%
D13*
%TO.C,J1*%
X101250000Y-131550000D03*
D14*
X103250000Y-131550000D03*
X105250000Y-131550000D03*
X107250000Y-131550000D03*
X109250000Y-131550000D03*
%TD*%
D19*
%TO.C,REF\u002A\u002A*%
X137000000Y-72750000D03*
%TD*%
D10*
%TO.C,J5*%
X103930000Y-70940000D03*
D11*
X103930000Y-72940000D03*
X103930000Y-74940000D03*
%TD*%
D15*
%TO.C,J21*%
X189530000Y-59890000D03*
D14*
X187530000Y-59890000D03*
X185530000Y-59890000D03*
%TD*%
M02*
