%TF.GenerationSoftware,KiCad,Pcbnew,8.0.2*%
%TF.CreationDate,2024-10-02T19:45:14-04:00*%
%TF.ProjectId,FewawiControlBoard,46657761-7769-4436-9f6e-74726f6c426f,rev?*%
%TF.SameCoordinates,Original*%
%TF.FileFunction,Legend,Bot*%
%TF.FilePolarity,Positive*%
%FSLAX46Y46*%
G04 Gerber Fmt 4.6, Leading zero omitted, Abs format (unit mm)*
G04 Created by KiCad (PCBNEW 8.0.2) date 2024-10-02 19:45:14*
%MOMM*%
%LPD*%
G01*
G04 APERTURE LIST*
G04 Aperture macros list*
%AMRoundRect*
0 Rectangle with rounded corners*
0 $1 Rounding radius*
0 $2 $3 $4 $5 $6 $7 $8 $9 X,Y pos of 4 corners*
0 Add a 4 corners polygon primitive as box body*
4,1,4,$2,$3,$4,$5,$6,$7,$8,$9,$2,$3,0*
0 Add four circle primitives for the rounded corners*
1,1,$1+$1,$2,$3*
1,1,$1+$1,$4,$5*
1,1,$1+$1,$6,$7*
1,1,$1+$1,$8,$9*
0 Add four rect primitives between the rounded corners*
20,1,$1+$1,$2,$3,$4,$5,0*
20,1,$1+$1,$4,$5,$6,$7,0*
20,1,$1+$1,$6,$7,$8,$9,0*
20,1,$1+$1,$8,$9,$2,$3,0*%
G04 Aperture macros list end*
%ADD10C,0.100000*%
%ADD11RoundRect,0.250000X-0.625000X0.350000X-0.625000X-0.350000X0.625000X-0.350000X0.625000X0.350000X0*%
%ADD12O,1.750000X1.200000*%
%ADD13RoundRect,0.250000X0.625000X-0.350000X0.625000X0.350000X-0.625000X0.350000X-0.625000X-0.350000X0*%
%ADD14RoundRect,0.250000X-0.350000X-0.625000X0.350000X-0.625000X0.350000X0.625000X-0.350000X0.625000X0*%
%ADD15O,1.200000X1.750000*%
%ADD16RoundRect,0.250000X0.350000X0.625000X-0.350000X0.625000X-0.350000X-0.625000X0.350000X-0.625000X0*%
%ADD17C,1.512000*%
%ADD18C,1.462000*%
%ADD19C,1.412000*%
%ADD20C,6.000000*%
%ADD21R,3.800000X3.800000*%
%ADD22C,4.000000*%
%ADD23C,1.700000*%
%ADD24C,3.987800*%
%ADD25C,1.712000*%
%ADD26C,2.454000*%
%ADD27C,1.524000*%
G04 APERTURE END LIST*
D10*
X199660401Y-135372419D02*
X199660401Y-136086704D01*
X199660401Y-136086704D02*
X199708020Y-136229561D01*
X199708020Y-136229561D02*
X199803258Y-136324800D01*
X199803258Y-136324800D02*
X199946115Y-136372419D01*
X199946115Y-136372419D02*
X200041353Y-136372419D01*
X199184210Y-136372419D02*
X199184210Y-135705752D01*
X199184210Y-135372419D02*
X199231829Y-135420038D01*
X199231829Y-135420038D02*
X199184210Y-135467657D01*
X199184210Y-135467657D02*
X199136591Y-135420038D01*
X199136591Y-135420038D02*
X199184210Y-135372419D01*
X199184210Y-135372419D02*
X199184210Y-135467657D01*
X198708020Y-135705752D02*
X198708020Y-136372419D01*
X198708020Y-135800990D02*
X198660401Y-135753371D01*
X198660401Y-135753371D02*
X198565163Y-135705752D01*
X198565163Y-135705752D02*
X198422306Y-135705752D01*
X198422306Y-135705752D02*
X198327068Y-135753371D01*
X198327068Y-135753371D02*
X198279449Y-135848609D01*
X198279449Y-135848609D02*
X198279449Y-136372419D01*
X197803258Y-136372419D02*
X197803258Y-135372419D01*
X197374687Y-136372419D02*
X197374687Y-135848609D01*
X197374687Y-135848609D02*
X197422306Y-135753371D01*
X197422306Y-135753371D02*
X197517544Y-135705752D01*
X197517544Y-135705752D02*
X197660401Y-135705752D01*
X197660401Y-135705752D02*
X197755639Y-135753371D01*
X197755639Y-135753371D02*
X197803258Y-135800990D01*
X196517544Y-136324800D02*
X196612782Y-136372419D01*
X196612782Y-136372419D02*
X196803258Y-136372419D01*
X196803258Y-136372419D02*
X196898496Y-136324800D01*
X196898496Y-136324800D02*
X196946115Y-136229561D01*
X196946115Y-136229561D02*
X196946115Y-135848609D01*
X196946115Y-135848609D02*
X196898496Y-135753371D01*
X196898496Y-135753371D02*
X196803258Y-135705752D01*
X196803258Y-135705752D02*
X196612782Y-135705752D01*
X196612782Y-135705752D02*
X196517544Y-135753371D01*
X196517544Y-135753371D02*
X196469925Y-135848609D01*
X196469925Y-135848609D02*
X196469925Y-135943847D01*
X196469925Y-135943847D02*
X196946115Y-136039085D01*
X195660401Y-136324800D02*
X195755639Y-136372419D01*
X195755639Y-136372419D02*
X195946115Y-136372419D01*
X195946115Y-136372419D02*
X196041353Y-136324800D01*
X196041353Y-136324800D02*
X196088972Y-136229561D01*
X196088972Y-136229561D02*
X196088972Y-135848609D01*
X196088972Y-135848609D02*
X196041353Y-135753371D01*
X196041353Y-135753371D02*
X195946115Y-135705752D01*
X195946115Y-135705752D02*
X195755639Y-135705752D01*
X195755639Y-135705752D02*
X195660401Y-135753371D01*
X195660401Y-135753371D02*
X195612782Y-135848609D01*
X195612782Y-135848609D02*
X195612782Y-135943847D01*
X195612782Y-135943847D02*
X196088972Y-136039085D01*
X194422305Y-135705752D02*
X194422305Y-136372419D01*
X194422305Y-135800990D02*
X194374686Y-135753371D01*
X194374686Y-135753371D02*
X194279448Y-135705752D01*
X194279448Y-135705752D02*
X194136591Y-135705752D01*
X194136591Y-135705752D02*
X194041353Y-135753371D01*
X194041353Y-135753371D02*
X193993734Y-135848609D01*
X193993734Y-135848609D02*
X193993734Y-136372419D01*
X193136591Y-136324800D02*
X193231829Y-136372419D01*
X193231829Y-136372419D02*
X193422305Y-136372419D01*
X193422305Y-136372419D02*
X193517543Y-136324800D01*
X193517543Y-136324800D02*
X193565162Y-136229561D01*
X193565162Y-136229561D02*
X193565162Y-135848609D01*
X193565162Y-135848609D02*
X193517543Y-135753371D01*
X193517543Y-135753371D02*
X193422305Y-135705752D01*
X193422305Y-135705752D02*
X193231829Y-135705752D01*
X193231829Y-135705752D02*
X193136591Y-135753371D01*
X193136591Y-135753371D02*
X193088972Y-135848609D01*
X193088972Y-135848609D02*
X193088972Y-135943847D01*
X193088972Y-135943847D02*
X193565162Y-136039085D01*
X192279448Y-136324800D02*
X192374686Y-136372419D01*
X192374686Y-136372419D02*
X192565162Y-136372419D01*
X192565162Y-136372419D02*
X192660400Y-136324800D01*
X192660400Y-136324800D02*
X192708019Y-136229561D01*
X192708019Y-136229561D02*
X192708019Y-135848609D01*
X192708019Y-135848609D02*
X192660400Y-135753371D01*
X192660400Y-135753371D02*
X192565162Y-135705752D01*
X192565162Y-135705752D02*
X192374686Y-135705752D01*
X192374686Y-135705752D02*
X192279448Y-135753371D01*
X192279448Y-135753371D02*
X192231829Y-135848609D01*
X192231829Y-135848609D02*
X192231829Y-135943847D01*
X192231829Y-135943847D02*
X192708019Y-136039085D01*
X191374686Y-136372419D02*
X191374686Y-135372419D01*
X191374686Y-136324800D02*
X191469924Y-136372419D01*
X191469924Y-136372419D02*
X191660400Y-136372419D01*
X191660400Y-136372419D02*
X191755638Y-136324800D01*
X191755638Y-136324800D02*
X191803257Y-136277180D01*
X191803257Y-136277180D02*
X191850876Y-136181942D01*
X191850876Y-136181942D02*
X191850876Y-135896228D01*
X191850876Y-135896228D02*
X191803257Y-135800990D01*
X191803257Y-135800990D02*
X191755638Y-135753371D01*
X191755638Y-135753371D02*
X191660400Y-135705752D01*
X191660400Y-135705752D02*
X191469924Y-135705752D01*
X191469924Y-135705752D02*
X191374686Y-135753371D01*
X190946114Y-136324800D02*
X190850876Y-136372419D01*
X190850876Y-136372419D02*
X190660400Y-136372419D01*
X190660400Y-136372419D02*
X190565162Y-136324800D01*
X190565162Y-136324800D02*
X190517543Y-136229561D01*
X190517543Y-136229561D02*
X190517543Y-136181942D01*
X190517543Y-136181942D02*
X190565162Y-136086704D01*
X190565162Y-136086704D02*
X190660400Y-136039085D01*
X190660400Y-136039085D02*
X190803257Y-136039085D01*
X190803257Y-136039085D02*
X190898495Y-135991466D01*
X190898495Y-135991466D02*
X190946114Y-135896228D01*
X190946114Y-135896228D02*
X190946114Y-135848609D01*
X190946114Y-135848609D02*
X190898495Y-135753371D01*
X190898495Y-135753371D02*
X190803257Y-135705752D01*
X190803257Y-135705752D02*
X190660400Y-135705752D01*
X190660400Y-135705752D02*
X190565162Y-135753371D01*
X188898495Y-136372419D02*
X188898495Y-135848609D01*
X188898495Y-135848609D02*
X188946114Y-135753371D01*
X188946114Y-135753371D02*
X189041352Y-135705752D01*
X189041352Y-135705752D02*
X189231828Y-135705752D01*
X189231828Y-135705752D02*
X189327066Y-135753371D01*
X188898495Y-136324800D02*
X188993733Y-136372419D01*
X188993733Y-136372419D02*
X189231828Y-136372419D01*
X189231828Y-136372419D02*
X189327066Y-136324800D01*
X189327066Y-136324800D02*
X189374685Y-136229561D01*
X189374685Y-136229561D02*
X189374685Y-136134323D01*
X189374685Y-136134323D02*
X189327066Y-136039085D01*
X189327066Y-136039085D02*
X189231828Y-135991466D01*
X189231828Y-135991466D02*
X188993733Y-135991466D01*
X188993733Y-135991466D02*
X188898495Y-135943847D01*
X187708018Y-136324800D02*
X187612780Y-136372419D01*
X187612780Y-136372419D02*
X187422304Y-136372419D01*
X187422304Y-136372419D02*
X187327066Y-136324800D01*
X187327066Y-136324800D02*
X187279447Y-136229561D01*
X187279447Y-136229561D02*
X187279447Y-136181942D01*
X187279447Y-136181942D02*
X187327066Y-136086704D01*
X187327066Y-136086704D02*
X187422304Y-136039085D01*
X187422304Y-136039085D02*
X187565161Y-136039085D01*
X187565161Y-136039085D02*
X187660399Y-135991466D01*
X187660399Y-135991466D02*
X187708018Y-135896228D01*
X187708018Y-135896228D02*
X187708018Y-135848609D01*
X187708018Y-135848609D02*
X187660399Y-135753371D01*
X187660399Y-135753371D02*
X187565161Y-135705752D01*
X187565161Y-135705752D02*
X187422304Y-135705752D01*
X187422304Y-135705752D02*
X187327066Y-135753371D01*
X186850875Y-136372419D02*
X186850875Y-135372419D01*
X186422304Y-136372419D02*
X186422304Y-135848609D01*
X186422304Y-135848609D02*
X186469923Y-135753371D01*
X186469923Y-135753371D02*
X186565161Y-135705752D01*
X186565161Y-135705752D02*
X186708018Y-135705752D01*
X186708018Y-135705752D02*
X186803256Y-135753371D01*
X186803256Y-135753371D02*
X186850875Y-135800990D01*
X185803256Y-136372419D02*
X185898494Y-136324800D01*
X185898494Y-136324800D02*
X185946113Y-136277180D01*
X185946113Y-136277180D02*
X185993732Y-136181942D01*
X185993732Y-136181942D02*
X185993732Y-135896228D01*
X185993732Y-135896228D02*
X185946113Y-135800990D01*
X185946113Y-135800990D02*
X185898494Y-135753371D01*
X185898494Y-135753371D02*
X185803256Y-135705752D01*
X185803256Y-135705752D02*
X185660399Y-135705752D01*
X185660399Y-135705752D02*
X185565161Y-135753371D01*
X185565161Y-135753371D02*
X185517542Y-135800990D01*
X185517542Y-135800990D02*
X185469923Y-135896228D01*
X185469923Y-135896228D02*
X185469923Y-136181942D01*
X185469923Y-136181942D02*
X185517542Y-136277180D01*
X185517542Y-136277180D02*
X185565161Y-136324800D01*
X185565161Y-136324800D02*
X185660399Y-136372419D01*
X185660399Y-136372419D02*
X185803256Y-136372419D01*
X185136589Y-135705752D02*
X184946113Y-136372419D01*
X184946113Y-136372419D02*
X184755637Y-135896228D01*
X184755637Y-135896228D02*
X184565161Y-136372419D01*
X184565161Y-136372419D02*
X184374685Y-135705752D01*
X183612780Y-136324800D02*
X183708018Y-136372419D01*
X183708018Y-136372419D02*
X183898494Y-136372419D01*
X183898494Y-136372419D02*
X183993732Y-136324800D01*
X183993732Y-136324800D02*
X184041351Y-136229561D01*
X184041351Y-136229561D02*
X184041351Y-135848609D01*
X184041351Y-135848609D02*
X183993732Y-135753371D01*
X183993732Y-135753371D02*
X183898494Y-135705752D01*
X183898494Y-135705752D02*
X183708018Y-135705752D01*
X183708018Y-135705752D02*
X183612780Y-135753371D01*
X183612780Y-135753371D02*
X183565161Y-135848609D01*
X183565161Y-135848609D02*
X183565161Y-135943847D01*
X183565161Y-135943847D02*
X184041351Y-136039085D01*
X183136589Y-136372419D02*
X183136589Y-135705752D01*
X183136589Y-135896228D02*
X183088970Y-135800990D01*
X183088970Y-135800990D02*
X183041351Y-135753371D01*
X183041351Y-135753371D02*
X182946113Y-135705752D01*
X182946113Y-135705752D02*
X182850875Y-135705752D01*
X182469922Y-136324800D02*
X182469922Y-136372419D01*
X182469922Y-136372419D02*
X182517541Y-136467657D01*
X182517541Y-136467657D02*
X182565160Y-136515276D01*
X181374684Y-135372419D02*
X180708018Y-136372419D01*
X180708018Y-135372419D02*
X181374684Y-136372419D01*
X179898494Y-136372419D02*
X179898494Y-135848609D01*
X179898494Y-135848609D02*
X179946113Y-135753371D01*
X179946113Y-135753371D02*
X180041351Y-135705752D01*
X180041351Y-135705752D02*
X180231827Y-135705752D01*
X180231827Y-135705752D02*
X180327065Y-135753371D01*
X179898494Y-136324800D02*
X179993732Y-136372419D01*
X179993732Y-136372419D02*
X180231827Y-136372419D01*
X180231827Y-136372419D02*
X180327065Y-136324800D01*
X180327065Y-136324800D02*
X180374684Y-136229561D01*
X180374684Y-136229561D02*
X180374684Y-136134323D01*
X180374684Y-136134323D02*
X180327065Y-136039085D01*
X180327065Y-136039085D02*
X180231827Y-135991466D01*
X180231827Y-135991466D02*
X179993732Y-135991466D01*
X179993732Y-135991466D02*
X179898494Y-135943847D01*
X179422303Y-135705752D02*
X179422303Y-136372419D01*
X179422303Y-135800990D02*
X179374684Y-135753371D01*
X179374684Y-135753371D02*
X179279446Y-135705752D01*
X179279446Y-135705752D02*
X179136589Y-135705752D01*
X179136589Y-135705752D02*
X179041351Y-135753371D01*
X179041351Y-135753371D02*
X178993732Y-135848609D01*
X178993732Y-135848609D02*
X178993732Y-136372419D01*
X178088970Y-136372419D02*
X178088970Y-135372419D01*
X178088970Y-136324800D02*
X178184208Y-136372419D01*
X178184208Y-136372419D02*
X178374684Y-136372419D01*
X178374684Y-136372419D02*
X178469922Y-136324800D01*
X178469922Y-136324800D02*
X178517541Y-136277180D01*
X178517541Y-136277180D02*
X178565160Y-136181942D01*
X178565160Y-136181942D02*
X178565160Y-135896228D01*
X178565160Y-135896228D02*
X178517541Y-135800990D01*
X178517541Y-135800990D02*
X178469922Y-135753371D01*
X178469922Y-135753371D02*
X178374684Y-135705752D01*
X178374684Y-135705752D02*
X178184208Y-135705752D01*
X178184208Y-135705752D02*
X178088970Y-135753371D01*
X177231827Y-136324800D02*
X177327065Y-136372419D01*
X177327065Y-136372419D02*
X177517541Y-136372419D01*
X177517541Y-136372419D02*
X177612779Y-136324800D01*
X177612779Y-136324800D02*
X177660398Y-136229561D01*
X177660398Y-136229561D02*
X177660398Y-135848609D01*
X177660398Y-135848609D02*
X177612779Y-135753371D01*
X177612779Y-135753371D02*
X177517541Y-135705752D01*
X177517541Y-135705752D02*
X177327065Y-135705752D01*
X177327065Y-135705752D02*
X177231827Y-135753371D01*
X177231827Y-135753371D02*
X177184208Y-135848609D01*
X177184208Y-135848609D02*
X177184208Y-135943847D01*
X177184208Y-135943847D02*
X177660398Y-136039085D01*
X176755636Y-136372419D02*
X176755636Y-135705752D01*
X176755636Y-135896228D02*
X176708017Y-135800990D01*
X176708017Y-135800990D02*
X176660398Y-135753371D01*
X176660398Y-135753371D02*
X176565160Y-135705752D01*
X176565160Y-135705752D02*
X176469922Y-135705752D01*
X175374683Y-136372419D02*
X175374683Y-135705752D01*
X175374683Y-135372419D02*
X175422302Y-135420038D01*
X175422302Y-135420038D02*
X175374683Y-135467657D01*
X175374683Y-135467657D02*
X175327064Y-135420038D01*
X175327064Y-135420038D02*
X175374683Y-135372419D01*
X175374683Y-135372419D02*
X175374683Y-135467657D01*
X174946112Y-136324800D02*
X174850874Y-136372419D01*
X174850874Y-136372419D02*
X174660398Y-136372419D01*
X174660398Y-136372419D02*
X174565160Y-136324800D01*
X174565160Y-136324800D02*
X174517541Y-136229561D01*
X174517541Y-136229561D02*
X174517541Y-136181942D01*
X174517541Y-136181942D02*
X174565160Y-136086704D01*
X174565160Y-136086704D02*
X174660398Y-136039085D01*
X174660398Y-136039085D02*
X174803255Y-136039085D01*
X174803255Y-136039085D02*
X174898493Y-135991466D01*
X174898493Y-135991466D02*
X174946112Y-135896228D01*
X174946112Y-135896228D02*
X174946112Y-135848609D01*
X174946112Y-135848609D02*
X174898493Y-135753371D01*
X174898493Y-135753371D02*
X174803255Y-135705752D01*
X174803255Y-135705752D02*
X174660398Y-135705752D01*
X174660398Y-135705752D02*
X174565160Y-135753371D01*
X172898493Y-136372419D02*
X172898493Y-135848609D01*
X172898493Y-135848609D02*
X172946112Y-135753371D01*
X172946112Y-135753371D02*
X173041350Y-135705752D01*
X173041350Y-135705752D02*
X173231826Y-135705752D01*
X173231826Y-135705752D02*
X173327064Y-135753371D01*
X172898493Y-136324800D02*
X172993731Y-136372419D01*
X172993731Y-136372419D02*
X173231826Y-136372419D01*
X173231826Y-136372419D02*
X173327064Y-136324800D01*
X173327064Y-136324800D02*
X173374683Y-136229561D01*
X173374683Y-136229561D02*
X173374683Y-136134323D01*
X173374683Y-136134323D02*
X173327064Y-136039085D01*
X173327064Y-136039085D02*
X173231826Y-135991466D01*
X173231826Y-135991466D02*
X172993731Y-135991466D01*
X172993731Y-135991466D02*
X172898493Y-135943847D01*
X171660397Y-135705752D02*
X171660397Y-136372419D01*
X171660397Y-135800990D02*
X171612778Y-135753371D01*
X171612778Y-135753371D02*
X171517540Y-135705752D01*
X171517540Y-135705752D02*
X171374683Y-135705752D01*
X171374683Y-135705752D02*
X171279445Y-135753371D01*
X171279445Y-135753371D02*
X171231826Y-135848609D01*
X171231826Y-135848609D02*
X171231826Y-136372419D01*
X170327064Y-136372419D02*
X170327064Y-135848609D01*
X170327064Y-135848609D02*
X170374683Y-135753371D01*
X170374683Y-135753371D02*
X170469921Y-135705752D01*
X170469921Y-135705752D02*
X170660397Y-135705752D01*
X170660397Y-135705752D02*
X170755635Y-135753371D01*
X170327064Y-136324800D02*
X170422302Y-136372419D01*
X170422302Y-136372419D02*
X170660397Y-136372419D01*
X170660397Y-136372419D02*
X170755635Y-136324800D01*
X170755635Y-136324800D02*
X170803254Y-136229561D01*
X170803254Y-136229561D02*
X170803254Y-136134323D01*
X170803254Y-136134323D02*
X170755635Y-136039085D01*
X170755635Y-136039085D02*
X170660397Y-135991466D01*
X170660397Y-135991466D02*
X170422302Y-135991466D01*
X170422302Y-135991466D02*
X170327064Y-135943847D01*
X169898492Y-136324800D02*
X169803254Y-136372419D01*
X169803254Y-136372419D02*
X169612778Y-136372419D01*
X169612778Y-136372419D02*
X169517540Y-136324800D01*
X169517540Y-136324800D02*
X169469921Y-136229561D01*
X169469921Y-136229561D02*
X169469921Y-136181942D01*
X169469921Y-136181942D02*
X169517540Y-136086704D01*
X169517540Y-136086704D02*
X169612778Y-136039085D01*
X169612778Y-136039085D02*
X169755635Y-136039085D01*
X169755635Y-136039085D02*
X169850873Y-135991466D01*
X169850873Y-135991466D02*
X169898492Y-135896228D01*
X169898492Y-135896228D02*
X169898492Y-135848609D01*
X169898492Y-135848609D02*
X169850873Y-135753371D01*
X169850873Y-135753371D02*
X169755635Y-135705752D01*
X169755635Y-135705752D02*
X169612778Y-135705752D01*
X169612778Y-135705752D02*
X169517540Y-135753371D01*
X169184206Y-135705752D02*
X168803254Y-135705752D01*
X169041349Y-135372419D02*
X169041349Y-136229561D01*
X169041349Y-136229561D02*
X168993730Y-136324800D01*
X168993730Y-136324800D02*
X168898492Y-136372419D01*
X168898492Y-136372419D02*
X168803254Y-136372419D01*
X168565158Y-135705752D02*
X168327063Y-136372419D01*
X168088968Y-135705752D02*
X168327063Y-136372419D01*
X168327063Y-136372419D02*
X168422301Y-136610514D01*
X168422301Y-136610514D02*
X168469920Y-136658133D01*
X168469920Y-136658133D02*
X168565158Y-136705752D01*
X166517539Y-135705752D02*
X166517539Y-136515276D01*
X166517539Y-136515276D02*
X166565158Y-136610514D01*
X166565158Y-136610514D02*
X166612777Y-136658133D01*
X166612777Y-136658133D02*
X166708015Y-136705752D01*
X166708015Y-136705752D02*
X166850872Y-136705752D01*
X166850872Y-136705752D02*
X166946110Y-136658133D01*
X166517539Y-136324800D02*
X166612777Y-136372419D01*
X166612777Y-136372419D02*
X166803253Y-136372419D01*
X166803253Y-136372419D02*
X166898491Y-136324800D01*
X166898491Y-136324800D02*
X166946110Y-136277180D01*
X166946110Y-136277180D02*
X166993729Y-136181942D01*
X166993729Y-136181942D02*
X166993729Y-135896228D01*
X166993729Y-135896228D02*
X166946110Y-135800990D01*
X166946110Y-135800990D02*
X166898491Y-135753371D01*
X166898491Y-135753371D02*
X166803253Y-135705752D01*
X166803253Y-135705752D02*
X166612777Y-135705752D01*
X166612777Y-135705752D02*
X166517539Y-135753371D01*
X166041348Y-136372419D02*
X166041348Y-135705752D01*
X166041348Y-135372419D02*
X166088967Y-135420038D01*
X166088967Y-135420038D02*
X166041348Y-135467657D01*
X166041348Y-135467657D02*
X165993729Y-135420038D01*
X165993729Y-135420038D02*
X166041348Y-135372419D01*
X166041348Y-135372419D02*
X166041348Y-135467657D01*
X165565158Y-136372419D02*
X165565158Y-135705752D01*
X165565158Y-135896228D02*
X165517539Y-135800990D01*
X165517539Y-135800990D02*
X165469920Y-135753371D01*
X165469920Y-135753371D02*
X165374682Y-135705752D01*
X165374682Y-135705752D02*
X165279444Y-135705752D01*
X164803253Y-136372419D02*
X164898491Y-136324800D01*
X164898491Y-136324800D02*
X164946110Y-136229561D01*
X164946110Y-136229561D02*
X164946110Y-135372419D01*
X164374681Y-136324800D02*
X164374681Y-136372419D01*
X164374681Y-136372419D02*
X164422300Y-136467657D01*
X164422300Y-136467657D02*
X164469919Y-136515276D01*
X162612777Y-136277180D02*
X162660396Y-136324800D01*
X162660396Y-136324800D02*
X162803253Y-136372419D01*
X162803253Y-136372419D02*
X162898491Y-136372419D01*
X162898491Y-136372419D02*
X163041348Y-136324800D01*
X163041348Y-136324800D02*
X163136586Y-136229561D01*
X163136586Y-136229561D02*
X163184205Y-136134323D01*
X163184205Y-136134323D02*
X163231824Y-135943847D01*
X163231824Y-135943847D02*
X163231824Y-135800990D01*
X163231824Y-135800990D02*
X163184205Y-135610514D01*
X163184205Y-135610514D02*
X163136586Y-135515276D01*
X163136586Y-135515276D02*
X163041348Y-135420038D01*
X163041348Y-135420038D02*
X162898491Y-135372419D01*
X162898491Y-135372419D02*
X162803253Y-135372419D01*
X162803253Y-135372419D02*
X162660396Y-135420038D01*
X162660396Y-135420038D02*
X162612777Y-135467657D01*
X162041348Y-136372419D02*
X162136586Y-136324800D01*
X162136586Y-136324800D02*
X162184205Y-136277180D01*
X162184205Y-136277180D02*
X162231824Y-136181942D01*
X162231824Y-136181942D02*
X162231824Y-135896228D01*
X162231824Y-135896228D02*
X162184205Y-135800990D01*
X162184205Y-135800990D02*
X162136586Y-135753371D01*
X162136586Y-135753371D02*
X162041348Y-135705752D01*
X162041348Y-135705752D02*
X161898491Y-135705752D01*
X161898491Y-135705752D02*
X161803253Y-135753371D01*
X161803253Y-135753371D02*
X161755634Y-135800990D01*
X161755634Y-135800990D02*
X161708015Y-135896228D01*
X161708015Y-135896228D02*
X161708015Y-136181942D01*
X161708015Y-136181942D02*
X161755634Y-136277180D01*
X161755634Y-136277180D02*
X161803253Y-136324800D01*
X161803253Y-136324800D02*
X161898491Y-136372419D01*
X161898491Y-136372419D02*
X162041348Y-136372419D01*
X161279443Y-136372419D02*
X161279443Y-135705752D01*
X161279443Y-135896228D02*
X161231824Y-135800990D01*
X161231824Y-135800990D02*
X161184205Y-135753371D01*
X161184205Y-135753371D02*
X161088967Y-135705752D01*
X161088967Y-135705752D02*
X160993729Y-135705752D01*
X160231824Y-136372419D02*
X160231824Y-135372419D01*
X160231824Y-136324800D02*
X160327062Y-136372419D01*
X160327062Y-136372419D02*
X160517538Y-136372419D01*
X160517538Y-136372419D02*
X160612776Y-136324800D01*
X160612776Y-136324800D02*
X160660395Y-136277180D01*
X160660395Y-136277180D02*
X160708014Y-136181942D01*
X160708014Y-136181942D02*
X160708014Y-135896228D01*
X160708014Y-135896228D02*
X160660395Y-135800990D01*
X160660395Y-135800990D02*
X160612776Y-135753371D01*
X160612776Y-135753371D02*
X160517538Y-135705752D01*
X160517538Y-135705752D02*
X160327062Y-135705752D01*
X160327062Y-135705752D02*
X160231824Y-135753371D01*
X158993728Y-136372419D02*
X158993728Y-135705752D01*
X158993728Y-135372419D02*
X159041347Y-135420038D01*
X159041347Y-135420038D02*
X158993728Y-135467657D01*
X158993728Y-135467657D02*
X158946109Y-135420038D01*
X158946109Y-135420038D02*
X158993728Y-135372419D01*
X158993728Y-135372419D02*
X158993728Y-135467657D01*
X158565157Y-136324800D02*
X158469919Y-136372419D01*
X158469919Y-136372419D02*
X158279443Y-136372419D01*
X158279443Y-136372419D02*
X158184205Y-136324800D01*
X158184205Y-136324800D02*
X158136586Y-136229561D01*
X158136586Y-136229561D02*
X158136586Y-136181942D01*
X158136586Y-136181942D02*
X158184205Y-136086704D01*
X158184205Y-136086704D02*
X158279443Y-136039085D01*
X158279443Y-136039085D02*
X158422300Y-136039085D01*
X158422300Y-136039085D02*
X158517538Y-135991466D01*
X158517538Y-135991466D02*
X158565157Y-135896228D01*
X158565157Y-135896228D02*
X158565157Y-135848609D01*
X158565157Y-135848609D02*
X158517538Y-135753371D01*
X158517538Y-135753371D02*
X158422300Y-135705752D01*
X158422300Y-135705752D02*
X158279443Y-135705752D01*
X158279443Y-135705752D02*
X158184205Y-135753371D01*
X157088966Y-135705752D02*
X156708014Y-135705752D01*
X156946109Y-135372419D02*
X156946109Y-136229561D01*
X156946109Y-136229561D02*
X156898490Y-136324800D01*
X156898490Y-136324800D02*
X156803252Y-136372419D01*
X156803252Y-136372419D02*
X156708014Y-136372419D01*
X156374680Y-136372419D02*
X156374680Y-135372419D01*
X155946109Y-136372419D02*
X155946109Y-135848609D01*
X155946109Y-135848609D02*
X155993728Y-135753371D01*
X155993728Y-135753371D02*
X156088966Y-135705752D01*
X156088966Y-135705752D02*
X156231823Y-135705752D01*
X156231823Y-135705752D02*
X156327061Y-135753371D01*
X156327061Y-135753371D02*
X156374680Y-135800990D01*
X155088966Y-136324800D02*
X155184204Y-136372419D01*
X155184204Y-136372419D02*
X155374680Y-136372419D01*
X155374680Y-136372419D02*
X155469918Y-136324800D01*
X155469918Y-136324800D02*
X155517537Y-136229561D01*
X155517537Y-136229561D02*
X155517537Y-135848609D01*
X155517537Y-135848609D02*
X155469918Y-135753371D01*
X155469918Y-135753371D02*
X155374680Y-135705752D01*
X155374680Y-135705752D02*
X155184204Y-135705752D01*
X155184204Y-135705752D02*
X155088966Y-135753371D01*
X155088966Y-135753371D02*
X155041347Y-135848609D01*
X155041347Y-135848609D02*
X155041347Y-135943847D01*
X155041347Y-135943847D02*
X155517537Y-136039085D01*
X153850870Y-136372419D02*
X153850870Y-135705752D01*
X153850870Y-135896228D02*
X153803251Y-135800990D01*
X153803251Y-135800990D02*
X153755632Y-135753371D01*
X153755632Y-135753371D02*
X153660394Y-135705752D01*
X153660394Y-135705752D02*
X153565156Y-135705752D01*
X153231822Y-136372419D02*
X153231822Y-135705752D01*
X153231822Y-135372419D02*
X153279441Y-135420038D01*
X153279441Y-135420038D02*
X153231822Y-135467657D01*
X153231822Y-135467657D02*
X153184203Y-135420038D01*
X153184203Y-135420038D02*
X153231822Y-135372419D01*
X153231822Y-135372419D02*
X153231822Y-135467657D01*
X152850870Y-135705752D02*
X152327061Y-135705752D01*
X152327061Y-135705752D02*
X152850870Y-136372419D01*
X152850870Y-136372419D02*
X152327061Y-136372419D01*
X152041346Y-135705752D02*
X151517537Y-135705752D01*
X151517537Y-135705752D02*
X152041346Y-136372419D01*
X152041346Y-136372419D02*
X151517537Y-136372419D01*
X150993727Y-136372419D02*
X151088965Y-136324800D01*
X151088965Y-136324800D02*
X151136584Y-136229561D01*
X151136584Y-136229561D02*
X151136584Y-135372419D01*
X150231822Y-136324800D02*
X150327060Y-136372419D01*
X150327060Y-136372419D02*
X150517536Y-136372419D01*
X150517536Y-136372419D02*
X150612774Y-136324800D01*
X150612774Y-136324800D02*
X150660393Y-136229561D01*
X150660393Y-136229561D02*
X150660393Y-135848609D01*
X150660393Y-135848609D02*
X150612774Y-135753371D01*
X150612774Y-135753371D02*
X150517536Y-135705752D01*
X150517536Y-135705752D02*
X150327060Y-135705752D01*
X150327060Y-135705752D02*
X150231822Y-135753371D01*
X150231822Y-135753371D02*
X150184203Y-135848609D01*
X150184203Y-135848609D02*
X150184203Y-135943847D01*
X150184203Y-135943847D02*
X150660393Y-136039085D01*
X149755631Y-136372419D02*
X149755631Y-135705752D01*
X149755631Y-135896228D02*
X149708012Y-135800990D01*
X149708012Y-135800990D02*
X149660393Y-135753371D01*
X149660393Y-135753371D02*
X149565155Y-135705752D01*
X149565155Y-135705752D02*
X149469917Y-135705752D01*
%LPC*%
D11*
%TO.C,J6*%
X103930000Y-81440000D03*
D12*
X103930000Y-83440000D03*
X103930000Y-85440000D03*
%TD*%
D13*
%TO.C,J11*%
X196030000Y-86940000D03*
D12*
X196030000Y-84940000D03*
X196030000Y-82940000D03*
%TD*%
D14*
%TO.C,J22*%
X116480000Y-131490000D03*
D15*
X118480000Y-131490000D03*
X120480000Y-131490000D03*
%TD*%
D14*
%TO.C,J16*%
X127480000Y-131490000D03*
D15*
X129480000Y-131490000D03*
X131480000Y-131490000D03*
%TD*%
D14*
%TO.C,J2*%
X191500000Y-131550000D03*
D15*
X193500000Y-131550000D03*
X195500000Y-131550000D03*
X197500000Y-131550000D03*
X199500000Y-131550000D03*
%TD*%
D16*
%TO.C,J20*%
X113980000Y-59890000D03*
D15*
X111980000Y-59890000D03*
X109980000Y-59890000D03*
%TD*%
D16*
%TO.C,J8*%
X156980000Y-59890000D03*
D15*
X154980000Y-59890000D03*
X152980000Y-59890000D03*
%TD*%
D17*
%TO.C,U1*%
X102310000Y-122180000D03*
X104850000Y-122180000D03*
X107390000Y-122180000D03*
X109930000Y-122180000D03*
X135330000Y-122180000D03*
X104850000Y-106940000D03*
X145490000Y-117100000D03*
X112470000Y-122180000D03*
X115010000Y-122180000D03*
D18*
X106120000Y-119130000D03*
D17*
X117550000Y-122180000D03*
X120090000Y-122180000D03*
X122630000Y-122180000D03*
X125170000Y-122180000D03*
X127710000Y-122180000D03*
X130250000Y-122180000D03*
X132790000Y-122180000D03*
X132790000Y-106940000D03*
X130250000Y-106940000D03*
X127710000Y-106940000D03*
X125170000Y-106940000D03*
X122630000Y-106940000D03*
X120090000Y-106940000D03*
X117550000Y-106940000D03*
X115010000Y-106940000D03*
X112470000Y-106940000D03*
X109930000Y-106940000D03*
X107390000Y-106940000D03*
X137870000Y-122180000D03*
X140410000Y-122180000D03*
X142950000Y-122180000D03*
X145490000Y-122180000D03*
X148030000Y-122180000D03*
X150570000Y-122180000D03*
X153110000Y-122180000D03*
X155650000Y-122180000D03*
X158190000Y-122180000D03*
X158190000Y-106940000D03*
X155650000Y-106940000D03*
X153110000Y-106940000D03*
X150570000Y-106940000D03*
X148030000Y-106940000D03*
X145490000Y-106940000D03*
X142950000Y-106940000D03*
X140410000Y-106940000D03*
X137870000Y-106940000D03*
D18*
X111200000Y-119130000D03*
X108660000Y-119130000D03*
D17*
X99770000Y-122180000D03*
X135330000Y-106940000D03*
X102310000Y-106940000D03*
X145490000Y-114560000D03*
D19*
X114740000Y-111390000D03*
X112740000Y-111390000D03*
D17*
X145490000Y-109480000D03*
X145490000Y-112020000D03*
D19*
X112740000Y-109390000D03*
X114740000Y-109390000D03*
X114740000Y-113390000D03*
X112740000Y-113390000D03*
D18*
X113740000Y-119130000D03*
X116280000Y-119130000D03*
D17*
X145490000Y-119640000D03*
X99770000Y-106940000D03*
X102310000Y-109480000D03*
%TD*%
D20*
%TO.C,REF\u002A\u002A*%
X196500000Y-112000000D03*
%TD*%
D16*
%TO.C,J14*%
X103480000Y-59890000D03*
D15*
X101480000Y-59890000D03*
X99480000Y-59890000D03*
%TD*%
D21*
%TO.C,J26*%
X199250000Y-104500000D03*
D22*
X194250000Y-104500000D03*
%TD*%
D23*
%TO.C,U2*%
X170670000Y-108360000D03*
D24*
X175670000Y-108360000D03*
D23*
X180670000Y-108360000D03*
D25*
X171860000Y-113440000D03*
X179480000Y-113440000D03*
D26*
X178180000Y-103280000D03*
X171860000Y-105820000D03*
%TD*%
D16*
%TO.C,J24*%
X167480000Y-59890000D03*
D15*
X165480000Y-59890000D03*
X163480000Y-59890000D03*
%TD*%
D21*
%TO.C,J27*%
X199480000Y-119940000D03*
D22*
X194480000Y-119940000D03*
%TD*%
D13*
%TO.C,J10*%
X196030000Y-75940000D03*
D12*
X196030000Y-73940000D03*
X196030000Y-71940000D03*
%TD*%
D14*
%TO.C,J25*%
X183480000Y-131490000D03*
D15*
X185480000Y-131490000D03*
%TD*%
D16*
%TO.C,J15*%
X199980000Y-59890000D03*
D15*
X197980000Y-59890000D03*
X195980000Y-59890000D03*
%TD*%
D16*
%TO.C,J18*%
X135480000Y-59890000D03*
D15*
X133480000Y-59890000D03*
X131480000Y-59890000D03*
%TD*%
D27*
%TO.C,U3*%
X140480000Y-84440000D03*
X140480000Y-86940000D03*
X140480000Y-89440000D03*
X140480000Y-91940000D03*
X140480000Y-94496000D03*
X140480000Y-97036000D03*
X162980000Y-84440000D03*
X162980000Y-86940000D03*
X162980000Y-89440000D03*
X162980000Y-91956000D03*
X162980000Y-94496000D03*
X162980000Y-97036000D03*
%TD*%
D16*
%TO.C,J3*%
X124480000Y-59890000D03*
D15*
X122480000Y-59890000D03*
X120480000Y-59890000D03*
%TD*%
D14*
%TO.C,J4*%
X138480000Y-131490000D03*
D15*
X140480000Y-131490000D03*
X142480000Y-131490000D03*
%TD*%
D14*
%TO.C,J23*%
X172980000Y-131490000D03*
D15*
X174980000Y-131490000D03*
X176980000Y-131490000D03*
%TD*%
D14*
%TO.C,J9*%
X149480000Y-131490000D03*
D15*
X151480000Y-131490000D03*
X153480000Y-131490000D03*
X155480000Y-131490000D03*
%TD*%
D14*
%TO.C,J17*%
X162980000Y-131490000D03*
D15*
X164980000Y-131490000D03*
X166980000Y-131490000D03*
%TD*%
D16*
%TO.C,J19*%
X146480000Y-59890000D03*
D15*
X144480000Y-59890000D03*
X142480000Y-59890000D03*
%TD*%
D16*
%TO.C,J13*%
X178480000Y-59940000D03*
D15*
X176480000Y-59940000D03*
X174480000Y-59940000D03*
%TD*%
D13*
%TO.C,J12*%
X196030000Y-98440000D03*
D12*
X196030000Y-96440000D03*
X196030000Y-94440000D03*
%TD*%
D11*
%TO.C,J7*%
X103930000Y-92440000D03*
D12*
X103930000Y-94440000D03*
X103930000Y-96440000D03*
%TD*%
D14*
%TO.C,J1*%
X101250000Y-131550000D03*
D15*
X103250000Y-131550000D03*
X105250000Y-131550000D03*
X107250000Y-131550000D03*
X109250000Y-131550000D03*
%TD*%
D20*
%TO.C,REF\u002A\u002A*%
X137000000Y-72750000D03*
%TD*%
D11*
%TO.C,J5*%
X103930000Y-70940000D03*
D12*
X103930000Y-72940000D03*
X103930000Y-74940000D03*
%TD*%
D16*
%TO.C,J21*%
X189530000Y-59890000D03*
D15*
X187530000Y-59890000D03*
X185530000Y-59890000D03*
%TD*%
%LPD*%
M02*
