%TF.GenerationSoftware,KiCad,Pcbnew,8.0.2*%
%TF.CreationDate,2024-10-02T19:45:14-04:00*%
%TF.ProjectId,FewawiControlBoard,46657761-7769-4436-9f6e-74726f6c426f,rev?*%
%TF.SameCoordinates,Original*%
%TF.FileFunction,Soldermask,Top*%
%TF.FilePolarity,Negative*%
%FSLAX46Y46*%
G04 Gerber Fmt 4.6, Leading zero omitted, Abs format (unit mm)*
G04 Created by KiCad (PCBNEW 8.0.2) date 2024-10-02 19:45:14*
%MOMM*%
%LPD*%
G01*
G04 APERTURE LIST*
G04 Aperture macros list*
%AMRoundRect*
0 Rectangle with rounded corners*
0 $1 Rounding radius*
0 $2 $3 $4 $5 $6 $7 $8 $9 X,Y pos of 4 corners*
0 Add a 4 corners polygon primitive as box body*
4,1,4,$2,$3,$4,$5,$6,$7,$8,$9,$2,$3,0*
0 Add four circle primitives for the rounded corners*
1,1,$1+$1,$2,$3*
1,1,$1+$1,$4,$5*
1,1,$1+$1,$6,$7*
1,1,$1+$1,$8,$9*
0 Add four rect primitives between the rounded corners*
20,1,$1+$1,$2,$3,$4,$5,0*
20,1,$1+$1,$4,$5,$6,$7,0*
20,1,$1+$1,$6,$7,$8,$9,0*
20,1,$1+$1,$8,$9,$2,$3,0*%
G04 Aperture macros list end*
%ADD10RoundRect,0.250000X0.475000X-0.337500X0.475000X0.337500X-0.475000X0.337500X-0.475000X-0.337500X0*%
%ADD11RoundRect,0.250000X-0.625000X0.350000X-0.625000X-0.350000X0.625000X-0.350000X0.625000X0.350000X0*%
%ADD12O,1.750000X1.200000*%
%ADD13RoundRect,0.250000X0.450000X-0.325000X0.450000X0.325000X-0.450000X0.325000X-0.450000X-0.325000X0*%
%ADD14RoundRect,0.250000X0.625000X-0.350000X0.625000X0.350000X-0.625000X0.350000X-0.625000X-0.350000X0*%
%ADD15RoundRect,0.250000X-0.350000X-0.625000X0.350000X-0.625000X0.350000X0.625000X-0.350000X0.625000X0*%
%ADD16O,1.200000X1.750000*%
%ADD17RoundRect,0.250000X0.450000X-0.350000X0.450000X0.350000X-0.450000X0.350000X-0.450000X-0.350000X0*%
%ADD18RoundRect,0.085500X0.751500X0.256500X-0.751500X0.256500X-0.751500X-0.256500X0.751500X-0.256500X0*%
%ADD19RoundRect,0.250000X0.350000X0.450000X-0.350000X0.450000X-0.350000X-0.450000X0.350000X-0.450000X0*%
%ADD20RoundRect,0.250000X-0.350000X-0.450000X0.350000X-0.450000X0.350000X0.450000X-0.350000X0.450000X0*%
%ADD21RoundRect,0.250000X-0.475000X0.337500X-0.475000X-0.337500X0.475000X-0.337500X0.475000X0.337500X0*%
%ADD22RoundRect,0.250000X-0.337500X-0.475000X0.337500X-0.475000X0.337500X0.475000X-0.337500X0.475000X0*%
%ADD23RoundRect,0.250000X-0.325000X-0.450000X0.325000X-0.450000X0.325000X0.450000X-0.325000X0.450000X0*%
%ADD24RoundRect,0.250000X0.337500X0.475000X-0.337500X0.475000X-0.337500X-0.475000X0.337500X-0.475000X0*%
%ADD25RoundRect,0.250000X-0.450000X0.350000X-0.450000X-0.350000X0.450000X-0.350000X0.450000X0.350000X0*%
%ADD26RoundRect,0.102000X-1.000000X0.800000X-1.000000X-0.800000X1.000000X-0.800000X1.000000X0.800000X0*%
%ADD27RoundRect,0.102000X1.000000X-0.800000X1.000000X0.800000X-1.000000X0.800000X-1.000000X-0.800000X0*%
%ADD28RoundRect,0.250000X0.350000X0.625000X-0.350000X0.625000X-0.350000X-0.625000X0.350000X-0.625000X0*%
%ADD29C,1.512000*%
%ADD30C,1.462000*%
%ADD31C,1.412000*%
%ADD32C,6.000000*%
%ADD33R,3.800000X3.800000*%
%ADD34C,4.000000*%
%ADD35RoundRect,0.250000X0.325000X0.450000X-0.325000X0.450000X-0.325000X-0.450000X0.325000X-0.450000X0*%
%ADD36C,1.700000*%
%ADD37C,3.987800*%
%ADD38C,1.712000*%
%ADD39C,2.454000*%
%ADD40C,1.524000*%
G04 APERTURE END LIST*
D10*
%TO.C,C3*%
X125480000Y-66977500D03*
X125480000Y-64902500D03*
%TD*%
D11*
%TO.C,J6*%
X103930000Y-81440000D03*
D12*
X103930000Y-83440000D03*
X103930000Y-85440000D03*
%TD*%
D13*
%TO.C,D9*%
X151480000Y-66965000D03*
X151480000Y-64915000D03*
%TD*%
D14*
%TO.C,J11*%
X196030000Y-86940000D03*
D12*
X196030000Y-84940000D03*
X196030000Y-82940000D03*
%TD*%
D15*
%TO.C,J22*%
X116480000Y-131490000D03*
D16*
X118480000Y-131490000D03*
X120480000Y-131490000D03*
%TD*%
D17*
%TO.C,R1*%
X109250000Y-127750000D03*
X109250000Y-125750000D03*
%TD*%
D18*
%TO.C,U4*%
X184900000Y-126975000D03*
X184900000Y-126325000D03*
X184900000Y-125675000D03*
X184900000Y-125025000D03*
X180600000Y-125025000D03*
X180600000Y-125675000D03*
X180600000Y-126325000D03*
X180600000Y-126975000D03*
%TD*%
D19*
%TO.C,R16*%
X189480000Y-96440000D03*
X187480000Y-96440000D03*
%TD*%
D20*
%TO.C,R12*%
X109480000Y-84440000D03*
X111480000Y-84440000D03*
%TD*%
D21*
%TO.C,C20*%
X187480000Y-64902500D03*
X187480000Y-66977500D03*
%TD*%
D22*
%TO.C,C11*%
X187405000Y-99940000D03*
X189480000Y-99940000D03*
%TD*%
D15*
%TO.C,J16*%
X127480000Y-131490000D03*
D16*
X129480000Y-131490000D03*
X131480000Y-131490000D03*
%TD*%
D23*
%TO.C,D8*%
X187455000Y-81440000D03*
X189505000Y-81440000D03*
%TD*%
D24*
%TO.C,C6*%
X111517500Y-81440000D03*
X109442500Y-81440000D03*
%TD*%
D25*
%TO.C,R18*%
X154980000Y-64940000D03*
X154980000Y-66940000D03*
%TD*%
D15*
%TO.C,J2*%
X191500000Y-131550000D03*
D16*
X193500000Y-131550000D03*
X195500000Y-131550000D03*
X197500000Y-131550000D03*
X199500000Y-131550000D03*
%TD*%
D26*
%TO.C,Q3*%
X121710000Y-88130000D03*
X121710000Y-90670000D03*
X121710000Y-93210000D03*
X121710000Y-95750000D03*
D27*
X131250000Y-95750000D03*
X131250000Y-93210000D03*
X131250000Y-90670000D03*
X131250000Y-88130000D03*
%TD*%
D28*
%TO.C,J20*%
X113980000Y-59890000D03*
D16*
X111980000Y-59890000D03*
X109980000Y-59890000D03*
%TD*%
D28*
%TO.C,J8*%
X156980000Y-59890000D03*
D16*
X154980000Y-59890000D03*
X152980000Y-59890000D03*
%TD*%
D29*
%TO.C,U1*%
X102310000Y-122180000D03*
X104850000Y-122180000D03*
X107390000Y-122180000D03*
X109930000Y-122180000D03*
X135330000Y-122180000D03*
X104850000Y-106940000D03*
X145490000Y-117100000D03*
X112470000Y-122180000D03*
X115010000Y-122180000D03*
D30*
X106120000Y-119130000D03*
D29*
X117550000Y-122180000D03*
X120090000Y-122180000D03*
X122630000Y-122180000D03*
X125170000Y-122180000D03*
X127710000Y-122180000D03*
X130250000Y-122180000D03*
X132790000Y-122180000D03*
X132790000Y-106940000D03*
X130250000Y-106940000D03*
X127710000Y-106940000D03*
X125170000Y-106940000D03*
X122630000Y-106940000D03*
X120090000Y-106940000D03*
X117550000Y-106940000D03*
X115010000Y-106940000D03*
X112470000Y-106940000D03*
X109930000Y-106940000D03*
X107390000Y-106940000D03*
X137870000Y-122180000D03*
X140410000Y-122180000D03*
X142950000Y-122180000D03*
X145490000Y-122180000D03*
X148030000Y-122180000D03*
X150570000Y-122180000D03*
X153110000Y-122180000D03*
X155650000Y-122180000D03*
X158190000Y-122180000D03*
X158190000Y-106940000D03*
X155650000Y-106940000D03*
X153110000Y-106940000D03*
X150570000Y-106940000D03*
X148030000Y-106940000D03*
X145490000Y-106940000D03*
X142950000Y-106940000D03*
X140410000Y-106940000D03*
X137870000Y-106940000D03*
D30*
X111200000Y-119130000D03*
X108660000Y-119130000D03*
D29*
X99770000Y-122180000D03*
X135330000Y-106940000D03*
X102310000Y-106940000D03*
X145490000Y-114560000D03*
D31*
X114740000Y-111390000D03*
X112740000Y-111390000D03*
D29*
X145490000Y-109480000D03*
X145490000Y-112020000D03*
D31*
X112740000Y-109390000D03*
X114740000Y-109390000D03*
X114740000Y-113390000D03*
X112740000Y-113390000D03*
D30*
X113740000Y-119130000D03*
X116280000Y-119130000D03*
D29*
X145490000Y-119640000D03*
X99770000Y-106940000D03*
X102310000Y-109480000D03*
%TD*%
D27*
%TO.C,Q4*%
X181750000Y-82750000D03*
X181750000Y-80210000D03*
X181750000Y-77670000D03*
X181750000Y-75130000D03*
D26*
X172210000Y-75130000D03*
X172210000Y-77670000D03*
X172210000Y-80210000D03*
X172210000Y-82750000D03*
%TD*%
D32*
%TO.C,REF\u002A\u002A*%
X196500000Y-112000000D03*
%TD*%
D20*
%TO.C,R13*%
X109480000Y-95940000D03*
X111480000Y-95940000D03*
%TD*%
D21*
%TO.C,C17*%
X133480000Y-64902500D03*
X133480000Y-66977500D03*
%TD*%
D17*
%TO.C,R4*%
X105750000Y-127750000D03*
X105750000Y-125750000D03*
%TD*%
D27*
%TO.C,Q5*%
X181750000Y-95750000D03*
X181750000Y-93210000D03*
X181750000Y-90670000D03*
X181750000Y-88130000D03*
D26*
X172210000Y-88130000D03*
X172210000Y-90670000D03*
X172210000Y-93210000D03*
X172210000Y-95750000D03*
%TD*%
D28*
%TO.C,J14*%
X103480000Y-59890000D03*
D16*
X101480000Y-59890000D03*
X99480000Y-59890000D03*
%TD*%
D33*
%TO.C,J26*%
X199250000Y-104500000D03*
D34*
X194250000Y-104500000D03*
%TD*%
D35*
%TO.C,D3*%
X111505000Y-87440000D03*
X109455000Y-87440000D03*
%TD*%
D10*
%TO.C,C22*%
X171750000Y-127537500D03*
X171750000Y-125462500D03*
%TD*%
D36*
%TO.C,U2*%
X170670000Y-108360000D03*
D37*
X175670000Y-108360000D03*
D36*
X180670000Y-108360000D03*
D38*
X171860000Y-113440000D03*
X179480000Y-113440000D03*
D39*
X178180000Y-103280000D03*
X171860000Y-105820000D03*
%TD*%
D21*
%TO.C,C23*%
X165480000Y-64902500D03*
X165480000Y-66977500D03*
%TD*%
D10*
%TO.C,C2*%
X104980000Y-103477500D03*
X104980000Y-101402500D03*
%TD*%
D28*
%TO.C,J24*%
X167480000Y-59890000D03*
D16*
X165480000Y-59890000D03*
X163480000Y-59890000D03*
%TD*%
D21*
%TO.C,C19*%
X111980000Y-64902500D03*
X111980000Y-66977500D03*
%TD*%
D13*
%TO.C,D1*%
X118480000Y-66965000D03*
X118480000Y-64915000D03*
%TD*%
D25*
%TO.C,R10*%
X121980000Y-64940000D03*
X121980000Y-66940000D03*
%TD*%
D27*
%TO.C,Q6*%
X156750000Y-90250000D03*
X156750000Y-87710000D03*
X156750000Y-85170000D03*
X156750000Y-82630000D03*
D26*
X147210000Y-82630000D03*
X147210000Y-85170000D03*
X147210000Y-87710000D03*
X147210000Y-90250000D03*
%TD*%
D10*
%TO.C,C16*%
X164980000Y-127477500D03*
X164980000Y-125402500D03*
%TD*%
D17*
%TO.C,R5*%
X196750000Y-127500000D03*
X196750000Y-125500000D03*
%TD*%
D33*
%TO.C,J27*%
X199480000Y-119940000D03*
D34*
X194480000Y-119940000D03*
%TD*%
D14*
%TO.C,J10*%
X196030000Y-75940000D03*
D12*
X196030000Y-73940000D03*
X196030000Y-71940000D03*
%TD*%
D20*
%TO.C,R11*%
X109480000Y-73940000D03*
X111480000Y-73940000D03*
%TD*%
D13*
%TO.C,D5*%
X172980000Y-66990000D03*
X172980000Y-64940000D03*
%TD*%
D19*
%TO.C,R15*%
X189480000Y-74940000D03*
X187480000Y-74940000D03*
%TD*%
D15*
%TO.C,J25*%
X183480000Y-131490000D03*
D16*
X185480000Y-131490000D03*
%TD*%
D10*
%TO.C,C8*%
X158480000Y-66977500D03*
X158480000Y-64902500D03*
%TD*%
D17*
%TO.C,R9*%
X181000000Y-121500000D03*
X181000000Y-119500000D03*
%TD*%
D10*
%TO.C,C15*%
X129480000Y-127477500D03*
X129480000Y-125402500D03*
%TD*%
D28*
%TO.C,J15*%
X199980000Y-59890000D03*
D16*
X197980000Y-59890000D03*
X195980000Y-59890000D03*
%TD*%
D10*
%TO.C,C4*%
X140480000Y-127477500D03*
X140480000Y-125402500D03*
%TD*%
D28*
%TO.C,J18*%
X135480000Y-59890000D03*
D16*
X133480000Y-59890000D03*
X131480000Y-59890000D03*
%TD*%
D19*
%TO.C,R17*%
X189500000Y-84940000D03*
X187500000Y-84940000D03*
%TD*%
D26*
%TO.C,Q2*%
X121710000Y-75130000D03*
X121710000Y-77670000D03*
X121710000Y-80210000D03*
X121710000Y-82750000D03*
D27*
X131250000Y-82750000D03*
X131250000Y-80210000D03*
X131250000Y-77670000D03*
X131250000Y-75130000D03*
%TD*%
D17*
%TO.C,R19*%
X189980000Y-127440000D03*
X189980000Y-125440000D03*
%TD*%
D40*
%TO.C,U3*%
X140480000Y-84440000D03*
X140480000Y-86940000D03*
X140480000Y-89440000D03*
X140480000Y-91940000D03*
X140480000Y-94496000D03*
X140480000Y-97036000D03*
X162980000Y-84440000D03*
X162980000Y-86940000D03*
X162980000Y-89440000D03*
X162980000Y-91956000D03*
X162980000Y-94496000D03*
X162980000Y-97036000D03*
%TD*%
D22*
%TO.C,C9*%
X187442500Y-77940000D03*
X189517500Y-77940000D03*
%TD*%
D23*
%TO.C,D6*%
X187430000Y-71940000D03*
X189480000Y-71940000D03*
%TD*%
%TO.C,D7*%
X187455000Y-92440000D03*
X189505000Y-92440000D03*
%TD*%
D21*
%TO.C,C1*%
X101480000Y-101402500D03*
X101480000Y-103477500D03*
%TD*%
D28*
%TO.C,J3*%
X124480000Y-59890000D03*
D16*
X122480000Y-59890000D03*
X120480000Y-59890000D03*
%TD*%
D15*
%TO.C,J4*%
X138480000Y-131490000D03*
D16*
X140480000Y-131490000D03*
X142480000Y-131490000D03*
%TD*%
D10*
%TO.C,C21*%
X118480000Y-127515000D03*
X118480000Y-125440000D03*
%TD*%
D15*
%TO.C,J23*%
X172980000Y-131490000D03*
D16*
X174980000Y-131490000D03*
X176980000Y-131490000D03*
%TD*%
D17*
%TO.C,R7*%
X193500000Y-127440000D03*
X193500000Y-125440000D03*
%TD*%
D15*
%TO.C,J9*%
X149480000Y-131490000D03*
D16*
X151480000Y-131490000D03*
X153480000Y-131490000D03*
X155480000Y-131490000D03*
%TD*%
D17*
%TO.C,R20*%
X175250000Y-127500000D03*
X175250000Y-125500000D03*
%TD*%
D15*
%TO.C,J17*%
X162980000Y-131490000D03*
D16*
X164980000Y-131490000D03*
X166980000Y-131490000D03*
%TD*%
D28*
%TO.C,J19*%
X146480000Y-59890000D03*
D16*
X144480000Y-59890000D03*
X142480000Y-59890000D03*
%TD*%
D22*
%TO.C,C10*%
X187442500Y-88440000D03*
X189517500Y-88440000D03*
%TD*%
D28*
%TO.C,J13*%
X178480000Y-59940000D03*
D16*
X176480000Y-59940000D03*
X174480000Y-59940000D03*
%TD*%
D21*
%TO.C,C18*%
X144480000Y-64902500D03*
X144480000Y-66977500D03*
%TD*%
D20*
%TO.C,R3*%
X187480000Y-103940000D03*
X189480000Y-103940000D03*
%TD*%
D35*
%TO.C,D2*%
X111505000Y-76940000D03*
X109455000Y-76940000D03*
%TD*%
D14*
%TO.C,J12*%
X196030000Y-98440000D03*
D12*
X196030000Y-96440000D03*
X196030000Y-94440000D03*
%TD*%
D24*
%TO.C,C7*%
X111517500Y-92440000D03*
X109442500Y-92440000D03*
%TD*%
D11*
%TO.C,J7*%
X103930000Y-92440000D03*
D12*
X103930000Y-94440000D03*
X103930000Y-96440000D03*
%TD*%
D15*
%TO.C,J1*%
X101250000Y-131550000D03*
D16*
X103250000Y-131550000D03*
X105250000Y-131550000D03*
X107250000Y-131550000D03*
X109250000Y-131550000D03*
%TD*%
D10*
%TO.C,C12*%
X179480000Y-66977500D03*
X179480000Y-64902500D03*
%TD*%
D35*
%TO.C,D4*%
X111505000Y-99440000D03*
X109455000Y-99440000D03*
%TD*%
D24*
%TO.C,C5*%
X111517500Y-70940000D03*
X109442500Y-70940000D03*
%TD*%
D21*
%TO.C,C13*%
X108480000Y-64902500D03*
X108480000Y-66977500D03*
%TD*%
D25*
%TO.C,R14*%
X176480000Y-64940000D03*
X176480000Y-66940000D03*
%TD*%
D32*
%TO.C,REF\u002A\u002A*%
X137000000Y-72750000D03*
%TD*%
D17*
%TO.C,R2*%
X200000000Y-127500000D03*
X200000000Y-125500000D03*
%TD*%
%TO.C,R6*%
X102500000Y-127750000D03*
X102500000Y-125750000D03*
%TD*%
D11*
%TO.C,J5*%
X103930000Y-70940000D03*
D12*
X103930000Y-72940000D03*
X103930000Y-74940000D03*
%TD*%
D28*
%TO.C,J21*%
X189530000Y-59890000D03*
D16*
X187530000Y-59890000D03*
X185530000Y-59890000D03*
%TD*%
D25*
%TO.C,R8*%
X184500000Y-119500000D03*
X184500000Y-121500000D03*
%TD*%
D21*
%TO.C,C14*%
X190980000Y-64865000D03*
X190980000Y-66940000D03*
%TD*%
M02*
