G04 EAGLE Gerber RS-274X export*
G75*
%MOMM*%
%FSLAX34Y34*%
%LPD*%
%INTop Copper*%
%IPPOS*%
%AMOC8*
5,1,8,0,0,1.08239X$1,22.5*%
G01*
%ADD10C,1.524000*%
%ADD11R,0.800000X2.000000*%
%ADD12R,1.100000X1.000000*%
%ADD13P,1.649562X8X22.500000*%
%ADD14R,1.000000X0.700000*%
%ADD15R,1.270000X2.060000*%
%ADD16R,1.600000X5.700000*%
%ADD17R,0.400000X1.350000*%
%ADD18R,1.600000X1.400000*%
%ADD19R,1.900000X1.900000*%
%ADD20C,0.900000*%
%ADD21C,0.137500*%
%ADD22R,1.000000X1.100000*%
%ADD23R,2.000000X5.500000*%
%ADD24R,0.800000X0.800000*%
%ADD25C,1.879600*%
%ADD26R,0.900000X1.000000*%
%ADD27R,0.700000X1.000000*%
%ADD28R,3.500000X1.000000*%
%ADD29R,3.400000X1.500000*%
%ADD30C,0.654800*%
%ADD31C,0.200000*%
%ADD32C,0.406400*%
%ADD33C,0.152400*%
%ADD34C,0.704800*%
%ADD35C,0.508000*%
%ADD36C,0.406000*%

G36*
X122307Y114032D02*
X122307Y114032D01*
X122310Y114012D01*
X122308Y113993D01*
X122330Y113891D01*
X122346Y113789D01*
X122356Y113772D01*
X122360Y113752D01*
X122413Y113663D01*
X122462Y113572D01*
X122476Y113558D01*
X122486Y113541D01*
X122565Y113474D01*
X122640Y113402D01*
X122658Y113394D01*
X122673Y113381D01*
X122769Y113342D01*
X122863Y113299D01*
X122883Y113297D01*
X122901Y113289D01*
X123068Y113271D01*
X124168Y113271D01*
X124188Y113274D01*
X124207Y113272D01*
X124309Y113294D01*
X124411Y113310D01*
X124428Y113320D01*
X124448Y113324D01*
X124537Y113377D01*
X124628Y113426D01*
X124642Y113440D01*
X124659Y113450D01*
X124726Y113529D01*
X124798Y113604D01*
X124806Y113622D01*
X124819Y113637D01*
X124858Y113733D01*
X124901Y113827D01*
X124903Y113847D01*
X124904Y113848D01*
X125517Y114462D01*
X125529Y114478D01*
X125545Y114490D01*
X125601Y114578D01*
X125661Y114661D01*
X125667Y114680D01*
X125678Y114697D01*
X125703Y114798D01*
X125733Y114897D01*
X125733Y114916D01*
X125738Y114936D01*
X125730Y115039D01*
X125727Y115142D01*
X125720Y115161D01*
X125718Y115181D01*
X125678Y115276D01*
X125642Y115373D01*
X125630Y115389D01*
X125622Y115407D01*
X125517Y115538D01*
X124929Y116126D01*
X124929Y121874D01*
X125517Y122462D01*
X125529Y122478D01*
X125545Y122490D01*
X125601Y122578D01*
X125661Y122661D01*
X125667Y122680D01*
X125678Y122697D01*
X125703Y122798D01*
X125733Y122897D01*
X125733Y122916D01*
X125738Y122936D01*
X125730Y123039D01*
X125727Y123142D01*
X125720Y123161D01*
X125718Y123181D01*
X125678Y123276D01*
X125642Y123373D01*
X125630Y123389D01*
X125622Y123407D01*
X125517Y123538D01*
X124929Y124126D01*
X124929Y129874D01*
X126076Y131021D01*
X142324Y131021D01*
X143471Y129874D01*
X143471Y124126D01*
X142883Y123538D01*
X142871Y123522D01*
X142855Y123510D01*
X142799Y123422D01*
X142739Y123339D01*
X142733Y123320D01*
X142722Y123303D01*
X142697Y123202D01*
X142667Y123103D01*
X142667Y123084D01*
X142662Y123064D01*
X142670Y122961D01*
X142673Y122858D01*
X142680Y122839D01*
X142682Y122819D01*
X142722Y122724D01*
X142758Y122627D01*
X142770Y122611D01*
X142778Y122593D01*
X142883Y122462D01*
X143471Y121874D01*
X143471Y116126D01*
X142883Y115538D01*
X142871Y115522D01*
X142855Y115510D01*
X142799Y115422D01*
X142739Y115339D01*
X142733Y115320D01*
X142722Y115303D01*
X142697Y115202D01*
X142667Y115103D01*
X142667Y115084D01*
X142662Y115064D01*
X142670Y114961D01*
X142673Y114858D01*
X142680Y114839D01*
X142682Y114819D01*
X142722Y114724D01*
X142758Y114627D01*
X142770Y114611D01*
X142778Y114593D01*
X142883Y114462D01*
X143471Y113874D01*
X143471Y108126D01*
X142883Y107538D01*
X142871Y107522D01*
X142855Y107510D01*
X142799Y107422D01*
X142739Y107339D01*
X142733Y107320D01*
X142722Y107303D01*
X142697Y107202D01*
X142667Y107103D01*
X142667Y107084D01*
X142662Y107064D01*
X142670Y106961D01*
X142673Y106858D01*
X142680Y106839D01*
X142682Y106819D01*
X142722Y106724D01*
X142758Y106627D01*
X142770Y106611D01*
X142778Y106593D01*
X142883Y106462D01*
X143471Y105874D01*
X143471Y100126D01*
X142883Y99538D01*
X142871Y99522D01*
X142855Y99510D01*
X142799Y99422D01*
X142739Y99339D01*
X142733Y99320D01*
X142722Y99303D01*
X142697Y99202D01*
X142667Y99103D01*
X142667Y99084D01*
X142662Y99064D01*
X142670Y98961D01*
X142673Y98858D01*
X142680Y98839D01*
X142682Y98819D01*
X142722Y98724D01*
X142758Y98627D01*
X142770Y98611D01*
X142778Y98593D01*
X142883Y98462D01*
X143471Y97874D01*
X143471Y92126D01*
X142324Y90979D01*
X135165Y90979D01*
X135075Y90965D01*
X134984Y90957D01*
X134955Y90945D01*
X134923Y90940D01*
X134842Y90897D01*
X134758Y90861D01*
X134726Y90835D01*
X134705Y90824D01*
X134683Y90801D01*
X134627Y90756D01*
X133874Y90003D01*
X126813Y90003D01*
X126723Y89989D01*
X126632Y89981D01*
X126602Y89969D01*
X126570Y89964D01*
X126490Y89921D01*
X126406Y89885D01*
X126374Y89859D01*
X126353Y89848D01*
X126331Y89825D01*
X126275Y89780D01*
X119462Y82967D01*
X119409Y82893D01*
X119349Y82824D01*
X119337Y82794D01*
X119318Y82767D01*
X119291Y82680D01*
X119257Y82596D01*
X119253Y82555D01*
X119246Y82532D01*
X119247Y82500D01*
X119239Y82429D01*
X119239Y41628D01*
X119250Y41557D01*
X119252Y41485D01*
X119270Y41436D01*
X119279Y41385D01*
X119312Y41322D01*
X119337Y41254D01*
X119369Y41214D01*
X119394Y41167D01*
X119446Y41118D01*
X119490Y41062D01*
X119534Y41034D01*
X119572Y40998D01*
X119637Y40968D01*
X119697Y40929D01*
X119748Y40916D01*
X119795Y40894D01*
X119866Y40887D01*
X119936Y40869D01*
X119988Y40873D01*
X120039Y40867D01*
X120110Y40883D01*
X120181Y40888D01*
X120229Y40909D01*
X120280Y40920D01*
X120341Y40956D01*
X120407Y40985D01*
X120463Y41029D01*
X120491Y41046D01*
X120506Y41064D01*
X120538Y41089D01*
X121436Y41987D01*
X121489Y42061D01*
X121549Y42131D01*
X121561Y42161D01*
X121580Y42187D01*
X121607Y42274D01*
X121641Y42359D01*
X121645Y42400D01*
X121652Y42422D01*
X121651Y42454D01*
X121659Y42526D01*
X121659Y75228D01*
X124706Y78275D01*
X124759Y78349D01*
X124819Y78419D01*
X124831Y78449D01*
X124850Y78475D01*
X124877Y78562D01*
X124911Y78647D01*
X124915Y78688D01*
X124922Y78710D01*
X124921Y78742D01*
X124929Y78813D01*
X124929Y81874D01*
X126076Y83021D01*
X142324Y83021D01*
X143471Y81874D01*
X143471Y76126D01*
X142883Y75538D01*
X142871Y75522D01*
X142855Y75510D01*
X142799Y75422D01*
X142739Y75339D01*
X142733Y75320D01*
X142722Y75303D01*
X142697Y75202D01*
X142667Y75103D01*
X142667Y75084D01*
X142662Y75064D01*
X142670Y74961D01*
X142673Y74858D01*
X142680Y74839D01*
X142682Y74819D01*
X142722Y74724D01*
X142758Y74627D01*
X142770Y74611D01*
X142778Y74593D01*
X142883Y74462D01*
X143471Y73874D01*
X143471Y68126D01*
X142883Y67538D01*
X142871Y67522D01*
X142855Y67510D01*
X142799Y67422D01*
X142739Y67339D01*
X142733Y67320D01*
X142722Y67303D01*
X142697Y67202D01*
X142667Y67103D01*
X142667Y67084D01*
X142662Y67064D01*
X142670Y66961D01*
X142673Y66858D01*
X142680Y66839D01*
X142682Y66819D01*
X142722Y66724D01*
X142758Y66627D01*
X142770Y66611D01*
X142778Y66593D01*
X142883Y66462D01*
X143502Y65843D01*
X143510Y65789D01*
X143520Y65772D01*
X143524Y65752D01*
X143577Y65663D01*
X143626Y65572D01*
X143640Y65558D01*
X143650Y65541D01*
X143729Y65474D01*
X143804Y65402D01*
X143822Y65394D01*
X143837Y65381D01*
X143933Y65342D01*
X144027Y65299D01*
X144047Y65297D01*
X144065Y65289D01*
X144232Y65271D01*
X158451Y65271D01*
X158541Y65285D01*
X158632Y65293D01*
X158661Y65305D01*
X158693Y65310D01*
X158774Y65353D01*
X158858Y65389D01*
X158890Y65415D01*
X158911Y65426D01*
X158933Y65449D01*
X158989Y65494D01*
X161802Y68307D01*
X166198Y68307D01*
X169307Y65198D01*
X169307Y60802D01*
X166198Y57693D01*
X161802Y57693D01*
X158989Y60506D01*
X158915Y60559D01*
X158845Y60619D01*
X158815Y60631D01*
X158789Y60650D01*
X158702Y60677D01*
X158617Y60711D01*
X158576Y60715D01*
X158554Y60722D01*
X158522Y60721D01*
X158451Y60729D01*
X152613Y60729D01*
X152543Y60718D01*
X152471Y60716D01*
X152422Y60698D01*
X152371Y60690D01*
X152307Y60656D01*
X152240Y60631D01*
X152199Y60599D01*
X152153Y60574D01*
X152104Y60522D01*
X152048Y60478D01*
X152020Y60434D01*
X151984Y60396D01*
X151954Y60331D01*
X151915Y60271D01*
X151902Y60220D01*
X151880Y60173D01*
X151872Y60102D01*
X151855Y60032D01*
X151859Y59980D01*
X151853Y59929D01*
X151868Y59858D01*
X151874Y59787D01*
X151894Y59739D01*
X151905Y59688D01*
X151942Y59627D01*
X151970Y59561D01*
X152015Y59505D01*
X152032Y59477D01*
X152049Y59462D01*
X152075Y59430D01*
X154027Y57478D01*
X154027Y53082D01*
X150918Y49973D01*
X146522Y49973D01*
X144458Y52037D01*
X144442Y52049D01*
X144429Y52064D01*
X144358Y52110D01*
X144331Y52133D01*
X144316Y52139D01*
X144258Y52181D01*
X144239Y52186D01*
X144222Y52197D01*
X144122Y52223D01*
X144023Y52253D01*
X144003Y52252D01*
X143984Y52257D01*
X143881Y52249D01*
X143777Y52247D01*
X143759Y52240D01*
X143739Y52238D01*
X143644Y52198D01*
X143546Y52162D01*
X143531Y52150D01*
X143512Y52142D01*
X143451Y52093D01*
X143443Y52088D01*
X143434Y52079D01*
X143381Y52037D01*
X142883Y51538D01*
X142871Y51522D01*
X142855Y51510D01*
X142799Y51422D01*
X142739Y51339D01*
X142733Y51320D01*
X142722Y51303D01*
X142697Y51202D01*
X142667Y51103D01*
X142667Y51084D01*
X142662Y51064D01*
X142670Y50961D01*
X142673Y50858D01*
X142680Y50839D01*
X142682Y50819D01*
X142722Y50724D01*
X142758Y50627D01*
X142770Y50611D01*
X142778Y50593D01*
X142883Y50462D01*
X143471Y49874D01*
X143471Y44126D01*
X142324Y42979D01*
X137232Y42979D01*
X137212Y42976D01*
X137193Y42978D01*
X137091Y42956D01*
X136989Y42940D01*
X136972Y42930D01*
X136952Y42926D01*
X136863Y42873D01*
X136772Y42824D01*
X136758Y42810D01*
X136741Y42800D01*
X136674Y42721D01*
X136602Y42646D01*
X136594Y42628D01*
X136581Y42613D01*
X136542Y42517D01*
X136499Y42423D01*
X136497Y42403D01*
X136489Y42385D01*
X136471Y42218D01*
X136471Y40010D01*
X136485Y39920D01*
X136493Y39829D01*
X136505Y39800D01*
X136510Y39768D01*
X136553Y39687D01*
X136589Y39603D01*
X136615Y39571D01*
X136626Y39550D01*
X136649Y39528D01*
X136694Y39472D01*
X137968Y38198D01*
X137968Y33802D01*
X134859Y30693D01*
X130463Y30693D01*
X127354Y33802D01*
X127354Y38198D01*
X130463Y41307D01*
X131168Y41307D01*
X131188Y41310D01*
X131207Y41308D01*
X131309Y41330D01*
X131411Y41346D01*
X131428Y41356D01*
X131448Y41360D01*
X131537Y41413D01*
X131628Y41462D01*
X131642Y41476D01*
X131659Y41486D01*
X131726Y41565D01*
X131798Y41640D01*
X131806Y41658D01*
X131819Y41673D01*
X131858Y41769D01*
X131901Y41863D01*
X131903Y41883D01*
X131911Y41901D01*
X131929Y42068D01*
X131929Y42218D01*
X131926Y42238D01*
X131928Y42257D01*
X131906Y42359D01*
X131890Y42461D01*
X131880Y42478D01*
X131876Y42498D01*
X131823Y42587D01*
X131774Y42678D01*
X131760Y42692D01*
X131750Y42709D01*
X131671Y42776D01*
X131596Y42848D01*
X131578Y42856D01*
X131563Y42869D01*
X131467Y42908D01*
X131373Y42951D01*
X131353Y42953D01*
X131335Y42961D01*
X131168Y42979D01*
X126962Y42979D01*
X126942Y42976D01*
X126923Y42978D01*
X126821Y42956D01*
X126719Y42940D01*
X126702Y42930D01*
X126682Y42926D01*
X126593Y42873D01*
X126502Y42824D01*
X126488Y42810D01*
X126471Y42800D01*
X126404Y42721D01*
X126332Y42646D01*
X126324Y42628D01*
X126311Y42613D01*
X126272Y42517D01*
X126229Y42423D01*
X126227Y42403D01*
X126219Y42385D01*
X126201Y42218D01*
X126201Y40329D01*
X119462Y33590D01*
X119409Y33516D01*
X119349Y33447D01*
X119337Y33417D01*
X119318Y33390D01*
X119291Y33303D01*
X119257Y33219D01*
X119253Y33178D01*
X119246Y33155D01*
X119247Y33123D01*
X119239Y33052D01*
X119239Y2762D01*
X119242Y2742D01*
X119240Y2723D01*
X119262Y2621D01*
X119279Y2519D01*
X119288Y2502D01*
X119292Y2482D01*
X119345Y2393D01*
X119394Y2302D01*
X119408Y2288D01*
X119418Y2271D01*
X119497Y2204D01*
X119572Y2132D01*
X119590Y2124D01*
X119605Y2111D01*
X119701Y2072D01*
X119795Y2029D01*
X119815Y2027D01*
X119833Y2019D01*
X120000Y2001D01*
X134418Y2001D01*
X134438Y2004D01*
X134457Y2002D01*
X134559Y2024D01*
X134661Y2040D01*
X134678Y2050D01*
X134698Y2054D01*
X134787Y2107D01*
X134878Y2156D01*
X134892Y2170D01*
X134909Y2180D01*
X134976Y2259D01*
X135048Y2334D01*
X135056Y2352D01*
X135069Y2367D01*
X135108Y2463D01*
X135151Y2557D01*
X135153Y2577D01*
X135161Y2595D01*
X135179Y2762D01*
X135179Y5706D01*
X135176Y5726D01*
X135178Y5745D01*
X135156Y5847D01*
X135140Y5949D01*
X135130Y5966D01*
X135126Y5986D01*
X135073Y6075D01*
X135024Y6166D01*
X135010Y6180D01*
X135000Y6197D01*
X134921Y6264D01*
X134846Y6336D01*
X134828Y6344D01*
X134813Y6357D01*
X134717Y6396D01*
X134623Y6439D01*
X134603Y6441D01*
X134585Y6449D01*
X134418Y6467D01*
X132287Y6467D01*
X132197Y6453D01*
X132106Y6445D01*
X132077Y6433D01*
X132045Y6428D01*
X131964Y6385D01*
X131880Y6349D01*
X131848Y6323D01*
X131827Y6312D01*
X131805Y6289D01*
X131749Y6244D01*
X129198Y3693D01*
X124802Y3693D01*
X121693Y6802D01*
X121693Y11198D01*
X124802Y14307D01*
X129198Y14307D01*
X132324Y11181D01*
X132330Y11153D01*
X132346Y11051D01*
X132356Y11034D01*
X132360Y11014D01*
X132413Y10925D01*
X132462Y10834D01*
X132476Y10820D01*
X132486Y10803D01*
X132565Y10736D01*
X132640Y10664D01*
X132658Y10656D01*
X132673Y10643D01*
X132769Y10604D01*
X132863Y10561D01*
X132883Y10559D01*
X132901Y10551D01*
X133068Y10533D01*
X134418Y10533D01*
X134438Y10536D01*
X134457Y10534D01*
X134559Y10556D01*
X134661Y10572D01*
X134678Y10582D01*
X134698Y10586D01*
X134787Y10639D01*
X134878Y10688D01*
X134892Y10702D01*
X134909Y10712D01*
X134976Y10791D01*
X135048Y10866D01*
X135056Y10884D01*
X135069Y10899D01*
X135108Y10995D01*
X135151Y11089D01*
X135153Y11109D01*
X135161Y11127D01*
X135179Y11294D01*
X135179Y14168D01*
X135176Y14188D01*
X135178Y14207D01*
X135156Y14309D01*
X135140Y14411D01*
X135130Y14428D01*
X135126Y14448D01*
X135073Y14537D01*
X135024Y14628D01*
X135010Y14642D01*
X135000Y14659D01*
X134921Y14726D01*
X134846Y14798D01*
X134828Y14806D01*
X134813Y14819D01*
X134717Y14858D01*
X134623Y14901D01*
X134603Y14903D01*
X134585Y14911D01*
X134418Y14929D01*
X132130Y14929D01*
X130347Y16712D01*
X130252Y16780D01*
X130159Y16850D01*
X130153Y16852D01*
X130147Y16855D01*
X130036Y16890D01*
X129925Y16926D01*
X129918Y16926D01*
X129912Y16928D01*
X129796Y16925D01*
X129679Y16924D01*
X129671Y16921D01*
X129667Y16921D01*
X129649Y16915D01*
X129518Y16877D01*
X129111Y16708D01*
X126900Y16708D01*
X124858Y17554D01*
X123295Y19117D01*
X122449Y21160D01*
X122449Y23370D01*
X123295Y25413D01*
X124858Y26976D01*
X126900Y27822D01*
X129111Y27822D01*
X131153Y26976D01*
X132716Y25413D01*
X133562Y23370D01*
X133562Y21160D01*
X133393Y20753D01*
X133367Y20638D01*
X133338Y20526D01*
X133339Y20519D01*
X133337Y20513D01*
X133348Y20397D01*
X133357Y20280D01*
X133360Y20275D01*
X133360Y20268D01*
X133408Y20162D01*
X133454Y20054D01*
X133458Y20048D01*
X133460Y20044D01*
X133473Y20030D01*
X133559Y19923D01*
X133788Y19694D01*
X133862Y19641D01*
X133931Y19581D01*
X133961Y19569D01*
X133988Y19550D01*
X134075Y19523D01*
X134159Y19489D01*
X134200Y19485D01*
X134223Y19478D01*
X134255Y19479D01*
X134326Y19471D01*
X147747Y19471D01*
X147818Y19482D01*
X147890Y19484D01*
X147939Y19502D01*
X147990Y19510D01*
X148053Y19544D01*
X148121Y19569D01*
X148161Y19601D01*
X148207Y19626D01*
X148257Y19678D01*
X148313Y19722D01*
X148341Y19766D01*
X148377Y19804D01*
X148407Y19869D01*
X148446Y19929D01*
X148458Y19980D01*
X148480Y20027D01*
X148488Y20098D01*
X148506Y20168D01*
X148502Y20220D01*
X148507Y20271D01*
X148492Y20342D01*
X148487Y20413D01*
X148466Y20461D01*
X148455Y20512D01*
X148418Y20573D01*
X148390Y20639D01*
X148345Y20695D01*
X148329Y20723D01*
X148311Y20738D01*
X148285Y20770D01*
X146979Y22076D01*
X146979Y38324D01*
X148126Y39471D01*
X153874Y39471D01*
X154462Y38883D01*
X154478Y38871D01*
X154490Y38855D01*
X154578Y38799D01*
X154661Y38739D01*
X154680Y38733D01*
X154697Y38722D01*
X154798Y38697D01*
X154897Y38667D01*
X154916Y38667D01*
X154936Y38662D01*
X155039Y38670D01*
X155142Y38673D01*
X155161Y38680D01*
X155181Y38682D01*
X155276Y38722D01*
X155373Y38758D01*
X155389Y38770D01*
X155407Y38778D01*
X155538Y38883D01*
X156126Y39471D01*
X161874Y39471D01*
X163021Y38324D01*
X163021Y22076D01*
X161874Y20929D01*
X160256Y20929D01*
X160166Y20915D01*
X160075Y20907D01*
X160045Y20895D01*
X160013Y20890D01*
X159932Y20847D01*
X159849Y20811D01*
X159816Y20785D01*
X159796Y20774D01*
X159774Y20751D01*
X159718Y20706D01*
X153941Y14929D01*
X149482Y14929D01*
X149462Y14926D01*
X149443Y14928D01*
X149341Y14906D01*
X149239Y14890D01*
X149222Y14880D01*
X149202Y14876D01*
X149113Y14823D01*
X149022Y14774D01*
X149008Y14760D01*
X148991Y14750D01*
X148924Y14671D01*
X148852Y14596D01*
X148844Y14578D01*
X148831Y14563D01*
X148792Y14467D01*
X148749Y14373D01*
X148747Y14353D01*
X148739Y14335D01*
X148721Y14168D01*
X148721Y2762D01*
X148724Y2742D01*
X148722Y2723D01*
X148744Y2621D01*
X148760Y2519D01*
X148770Y2502D01*
X148774Y2482D01*
X148827Y2393D01*
X148876Y2302D01*
X148890Y2288D01*
X148900Y2271D01*
X148979Y2204D01*
X149054Y2132D01*
X149072Y2124D01*
X149087Y2111D01*
X149183Y2072D01*
X149277Y2029D01*
X149297Y2027D01*
X149315Y2019D01*
X149482Y2001D01*
X423038Y2001D01*
X423058Y2004D01*
X423077Y2002D01*
X423179Y2024D01*
X423281Y2040D01*
X423298Y2050D01*
X423318Y2054D01*
X423407Y2107D01*
X423498Y2156D01*
X423512Y2170D01*
X423529Y2180D01*
X423596Y2259D01*
X423668Y2334D01*
X423676Y2352D01*
X423689Y2367D01*
X423728Y2463D01*
X423771Y2557D01*
X423773Y2577D01*
X423781Y2595D01*
X423799Y2762D01*
X423799Y35664D01*
X423788Y35735D01*
X423786Y35807D01*
X423768Y35856D01*
X423760Y35907D01*
X423726Y35970D01*
X423701Y36038D01*
X423669Y36079D01*
X423644Y36125D01*
X423593Y36174D01*
X423548Y36230D01*
X423504Y36258D01*
X423466Y36294D01*
X423401Y36324D01*
X423341Y36363D01*
X423290Y36376D01*
X423243Y36398D01*
X423172Y36405D01*
X423102Y36423D01*
X423050Y36419D01*
X422999Y36425D01*
X422928Y36409D01*
X422857Y36404D01*
X422809Y36383D01*
X422758Y36372D01*
X422697Y36336D01*
X422631Y36307D01*
X422575Y36263D01*
X422547Y36246D01*
X422533Y36229D01*
X413756Y36229D01*
X413666Y36215D01*
X413575Y36207D01*
X413545Y36195D01*
X413513Y36190D01*
X413432Y36147D01*
X413349Y36111D01*
X413316Y36085D01*
X413296Y36074D01*
X413274Y36051D01*
X413218Y36006D01*
X411894Y34682D01*
X411841Y34608D01*
X411781Y34539D01*
X411769Y34509D01*
X411750Y34483D01*
X411723Y34396D01*
X411689Y34311D01*
X411685Y34270D01*
X411678Y34248D01*
X411679Y34215D01*
X411671Y34144D01*
X411671Y28116D01*
X411690Y28001D01*
X411707Y27885D01*
X411709Y27879D01*
X411710Y27873D01*
X411765Y27770D01*
X411818Y27666D01*
X411823Y27661D01*
X411826Y27656D01*
X411910Y27576D01*
X411994Y27493D01*
X412000Y27490D01*
X412004Y27486D01*
X412021Y27479D01*
X412141Y27413D01*
X415443Y26045D01*
X418445Y23043D01*
X420069Y19122D01*
X420069Y14878D01*
X418445Y10957D01*
X415443Y7955D01*
X411522Y6331D01*
X407278Y6331D01*
X403357Y7955D01*
X400355Y10957D01*
X398731Y14878D01*
X398731Y19122D01*
X400099Y22425D01*
X400126Y22538D01*
X400155Y22652D01*
X400154Y22658D01*
X400155Y22664D01*
X400144Y22781D01*
X400135Y22897D01*
X400133Y22903D01*
X400132Y22909D01*
X400085Y23017D01*
X400039Y23123D01*
X400034Y23129D01*
X400032Y23134D01*
X400020Y23148D01*
X399934Y23254D01*
X390452Y32736D01*
X390378Y32789D01*
X390309Y32849D01*
X390279Y32861D01*
X390253Y32880D01*
X390166Y32907D01*
X390081Y32941D01*
X390040Y32945D01*
X390018Y32952D01*
X389985Y32951D01*
X389914Y32959D01*
X388119Y32959D01*
X380572Y40506D01*
X380506Y40554D01*
X380460Y40598D01*
X380446Y40604D01*
X380429Y40619D01*
X380399Y40631D01*
X380372Y40650D01*
X380298Y40673D01*
X380237Y40701D01*
X380220Y40703D01*
X380201Y40711D01*
X380160Y40715D01*
X380137Y40722D01*
X380105Y40721D01*
X380034Y40729D01*
X380032Y40729D01*
X380012Y40726D01*
X379993Y40728D01*
X379941Y40717D01*
X379891Y40716D01*
X379844Y40698D01*
X379789Y40690D01*
X379772Y40680D01*
X379752Y40676D01*
X379705Y40648D01*
X379660Y40631D01*
X379623Y40602D01*
X379572Y40574D01*
X379558Y40560D01*
X379541Y40550D01*
X379503Y40505D01*
X379468Y40478D01*
X379444Y40440D01*
X379402Y40396D01*
X379394Y40378D01*
X379381Y40363D01*
X379359Y40307D01*
X379335Y40271D01*
X379325Y40229D01*
X379299Y40173D01*
X379297Y40153D01*
X379289Y40135D01*
X379280Y40050D01*
X379275Y40032D01*
X379276Y40019D01*
X379271Y39968D01*
X379271Y36974D01*
X378526Y36229D01*
X367474Y36229D01*
X366729Y36974D01*
X366729Y48680D01*
X366718Y48751D01*
X366716Y48823D01*
X366698Y48872D01*
X366690Y48923D01*
X366656Y48986D01*
X366631Y49054D01*
X366599Y49094D01*
X366574Y49140D01*
X366522Y49190D01*
X366478Y49246D01*
X366434Y49274D01*
X366396Y49310D01*
X366331Y49340D01*
X366271Y49379D01*
X366220Y49391D01*
X366173Y49413D01*
X366102Y49421D01*
X366032Y49439D01*
X365980Y49435D01*
X365929Y49440D01*
X365858Y49425D01*
X365787Y49420D01*
X365739Y49399D01*
X365688Y49388D01*
X365627Y49351D01*
X365561Y49323D01*
X365505Y49278D01*
X365477Y49262D01*
X365462Y49244D01*
X365430Y49218D01*
X362494Y46282D01*
X362441Y46208D01*
X362381Y46139D01*
X362369Y46109D01*
X362350Y46083D01*
X362323Y45995D01*
X362289Y45911D01*
X362285Y45870D01*
X362278Y45848D01*
X362279Y45815D01*
X362271Y45744D01*
X362271Y35549D01*
X362285Y35459D01*
X362293Y35368D01*
X362305Y35339D01*
X362310Y35307D01*
X362353Y35226D01*
X362389Y35142D01*
X362415Y35110D01*
X362426Y35089D01*
X362449Y35067D01*
X362494Y35011D01*
X365307Y32198D01*
X365307Y27802D01*
X362198Y24693D01*
X357802Y24693D01*
X354693Y27802D01*
X354693Y32198D01*
X357506Y35011D01*
X357559Y35085D01*
X357619Y35155D01*
X357631Y35185D01*
X357650Y35211D01*
X357677Y35298D01*
X357711Y35383D01*
X357715Y35424D01*
X357722Y35446D01*
X357721Y35478D01*
X357729Y35549D01*
X357729Y47941D01*
X359282Y49494D01*
X366506Y56718D01*
X366559Y56792D01*
X366619Y56861D01*
X366631Y56891D01*
X366650Y56917D01*
X366677Y57004D01*
X366711Y57089D01*
X366715Y57130D01*
X366722Y57152D01*
X366721Y57185D01*
X366729Y57256D01*
X366729Y66026D01*
X367474Y66771D01*
X378526Y66771D01*
X379271Y66026D01*
X379271Y62256D01*
X379285Y62166D01*
X379293Y62075D01*
X379305Y62045D01*
X379310Y62013D01*
X379353Y61932D01*
X379389Y61849D01*
X379415Y61816D01*
X379426Y61796D01*
X379449Y61774D01*
X379494Y61718D01*
X387430Y53782D01*
X387488Y53740D01*
X387540Y53690D01*
X387587Y53668D01*
X387629Y53638D01*
X387698Y53617D01*
X387763Y53587D01*
X387815Y53581D01*
X387865Y53566D01*
X387936Y53568D01*
X388007Y53560D01*
X388058Y53571D01*
X388110Y53572D01*
X388178Y53597D01*
X388248Y53612D01*
X388292Y53639D01*
X388341Y53656D01*
X388397Y53701D01*
X388459Y53738D01*
X388493Y53778D01*
X388533Y53810D01*
X388572Y53870D01*
X388619Y53925D01*
X388638Y53973D01*
X388666Y54017D01*
X388684Y54087D01*
X388711Y54153D01*
X388719Y54224D01*
X388727Y54256D01*
X388725Y54279D01*
X388729Y54320D01*
X388729Y66026D01*
X389474Y66771D01*
X398244Y66771D01*
X398334Y66785D01*
X398425Y66793D01*
X398455Y66805D01*
X398487Y66810D01*
X398568Y66853D01*
X398651Y66889D01*
X398684Y66915D01*
X398704Y66926D01*
X398726Y66949D01*
X398782Y66994D01*
X400470Y68682D01*
X400523Y68756D01*
X400583Y68825D01*
X400595Y68855D01*
X400614Y68881D01*
X400641Y68968D01*
X400675Y69053D01*
X400679Y69094D01*
X400686Y69116D01*
X400685Y69149D01*
X400693Y69220D01*
X400693Y73198D01*
X403802Y76307D01*
X408198Y76307D01*
X411307Y73198D01*
X411307Y69220D01*
X411321Y69130D01*
X411329Y69039D01*
X411341Y69009D01*
X411346Y68977D01*
X411389Y68897D01*
X411425Y68813D01*
X411451Y68780D01*
X411462Y68760D01*
X411485Y68738D01*
X411530Y68682D01*
X413218Y66994D01*
X413292Y66941D01*
X413361Y66881D01*
X413391Y66869D01*
X413417Y66850D01*
X413504Y66823D01*
X413589Y66789D01*
X413630Y66785D01*
X413652Y66778D01*
X413685Y66779D01*
X413756Y66771D01*
X422537Y66771D01*
X422558Y66755D01*
X422610Y66706D01*
X422657Y66684D01*
X422699Y66654D01*
X422768Y66633D01*
X422833Y66602D01*
X422885Y66597D01*
X422934Y66581D01*
X423006Y66583D01*
X423077Y66575D01*
X423128Y66586D01*
X423180Y66588D01*
X423248Y66612D01*
X423318Y66628D01*
X423363Y66654D01*
X423411Y66672D01*
X423467Y66717D01*
X423529Y66754D01*
X423563Y66793D01*
X423603Y66826D01*
X423642Y66886D01*
X423689Y66941D01*
X423708Y66989D01*
X423736Y67033D01*
X423754Y67102D01*
X423781Y67169D01*
X423789Y67240D01*
X423797Y67271D01*
X423795Y67295D01*
X423799Y67336D01*
X423799Y110164D01*
X423788Y110235D01*
X423786Y110307D01*
X423768Y110356D01*
X423760Y110407D01*
X423726Y110470D01*
X423701Y110538D01*
X423669Y110579D01*
X423644Y110625D01*
X423593Y110674D01*
X423548Y110730D01*
X423504Y110758D01*
X423466Y110794D01*
X423401Y110824D01*
X423341Y110863D01*
X423290Y110876D01*
X423243Y110898D01*
X423172Y110905D01*
X423102Y110923D01*
X423050Y110919D01*
X422999Y110925D01*
X422928Y110909D01*
X422857Y110904D01*
X422809Y110883D01*
X422758Y110872D01*
X422697Y110836D01*
X422631Y110807D01*
X422575Y110763D01*
X422547Y110746D01*
X422533Y110729D01*
X413756Y110729D01*
X413666Y110715D01*
X413575Y110707D01*
X413545Y110695D01*
X413513Y110690D01*
X413432Y110647D01*
X413349Y110611D01*
X413316Y110585D01*
X413296Y110574D01*
X413274Y110551D01*
X413218Y110506D01*
X411894Y109182D01*
X411841Y109108D01*
X411781Y109039D01*
X411769Y109009D01*
X411750Y108983D01*
X411723Y108896D01*
X411689Y108811D01*
X411685Y108770D01*
X411678Y108748D01*
X411679Y108715D01*
X411671Y108644D01*
X411671Y101616D01*
X411690Y101501D01*
X411707Y101385D01*
X411709Y101379D01*
X411710Y101373D01*
X411765Y101270D01*
X411818Y101166D01*
X411823Y101161D01*
X411826Y101156D01*
X411910Y101076D01*
X411994Y100993D01*
X412000Y100990D01*
X412004Y100986D01*
X412021Y100979D01*
X412141Y100913D01*
X415443Y99545D01*
X418445Y96543D01*
X420069Y92622D01*
X420069Y88378D01*
X418445Y84457D01*
X415443Y81455D01*
X411522Y79831D01*
X407278Y79831D01*
X403975Y81199D01*
X403862Y81226D01*
X403748Y81255D01*
X403742Y81254D01*
X403736Y81255D01*
X403619Y81244D01*
X403503Y81235D01*
X403497Y81233D01*
X403491Y81232D01*
X403383Y81185D01*
X403277Y81139D01*
X403271Y81134D01*
X403266Y81132D01*
X403252Y81120D01*
X403146Y81034D01*
X398673Y76561D01*
X378226Y76561D01*
X374781Y80006D01*
X374707Y80059D01*
X374638Y80119D01*
X374608Y80131D01*
X374582Y80150D01*
X374495Y80177D01*
X374410Y80211D01*
X374369Y80215D01*
X374347Y80222D01*
X374314Y80221D01*
X374243Y80229D01*
X368032Y80229D01*
X368012Y80226D01*
X367993Y80228D01*
X367891Y80206D01*
X367789Y80190D01*
X367772Y80180D01*
X367752Y80176D01*
X367663Y80123D01*
X367572Y80074D01*
X367558Y80060D01*
X367541Y80050D01*
X367474Y79971D01*
X367402Y79896D01*
X367394Y79878D01*
X367381Y79863D01*
X367342Y79767D01*
X367299Y79673D01*
X367297Y79653D01*
X367289Y79635D01*
X367271Y79468D01*
X367271Y76474D01*
X366526Y75729D01*
X363613Y75729D01*
X363543Y75718D01*
X363471Y75716D01*
X363422Y75698D01*
X363371Y75690D01*
X363307Y75656D01*
X363240Y75631D01*
X363199Y75599D01*
X363153Y75574D01*
X363104Y75522D01*
X363048Y75478D01*
X363020Y75434D01*
X362984Y75396D01*
X362954Y75331D01*
X362915Y75271D01*
X362902Y75220D01*
X362880Y75173D01*
X362872Y75102D01*
X362855Y75032D01*
X362859Y74980D01*
X362853Y74929D01*
X362868Y74858D01*
X362874Y74787D01*
X362894Y74739D01*
X362905Y74688D01*
X362942Y74627D01*
X362970Y74561D01*
X363015Y74505D01*
X363032Y74477D01*
X363049Y74462D01*
X363075Y74430D01*
X365307Y72198D01*
X365307Y67802D01*
X362198Y64693D01*
X357802Y64693D01*
X356891Y65604D01*
X356875Y65615D01*
X356863Y65631D01*
X356775Y65687D01*
X356692Y65747D01*
X356673Y65753D01*
X356656Y65764D01*
X356555Y65789D01*
X356457Y65820D01*
X356437Y65819D01*
X356417Y65824D01*
X356314Y65816D01*
X356211Y65813D01*
X356192Y65806D01*
X356172Y65805D01*
X356077Y65764D01*
X355980Y65729D01*
X355964Y65716D01*
X355946Y65708D01*
X355815Y65604D01*
X353494Y63282D01*
X353441Y63208D01*
X353381Y63139D01*
X353369Y63109D01*
X353350Y63083D01*
X353323Y62995D01*
X353289Y62911D01*
X353285Y62870D01*
X353278Y62848D01*
X353279Y62815D01*
X353271Y62744D01*
X353271Y53974D01*
X352526Y53229D01*
X341474Y53229D01*
X340729Y53974D01*
X340729Y56968D01*
X340726Y56988D01*
X340728Y57007D01*
X340706Y57109D01*
X340690Y57211D01*
X340680Y57228D01*
X340676Y57248D01*
X340623Y57337D01*
X340574Y57428D01*
X340560Y57442D01*
X340550Y57459D01*
X340471Y57526D01*
X340396Y57598D01*
X340378Y57606D01*
X340363Y57619D01*
X340267Y57658D01*
X340173Y57701D01*
X340153Y57703D01*
X340135Y57711D01*
X339968Y57729D01*
X329032Y57729D01*
X329012Y57726D01*
X328993Y57728D01*
X328891Y57706D01*
X328789Y57690D01*
X328772Y57680D01*
X328752Y57676D01*
X328663Y57623D01*
X328572Y57574D01*
X328558Y57560D01*
X328541Y57550D01*
X328474Y57471D01*
X328402Y57396D01*
X328394Y57378D01*
X328381Y57363D01*
X328342Y57267D01*
X328299Y57173D01*
X328297Y57153D01*
X328289Y57135D01*
X328271Y56968D01*
X328271Y53974D01*
X327526Y53229D01*
X316820Y53229D01*
X316749Y53218D01*
X316677Y53216D01*
X316628Y53198D01*
X316577Y53190D01*
X316514Y53156D01*
X316446Y53131D01*
X316406Y53099D01*
X316360Y53074D01*
X316310Y53022D01*
X316254Y52978D01*
X316226Y52934D01*
X316190Y52896D01*
X316160Y52831D01*
X316121Y52771D01*
X316109Y52720D01*
X316087Y52673D01*
X316079Y52602D01*
X316061Y52532D01*
X316065Y52480D01*
X316060Y52429D01*
X316075Y52358D01*
X316080Y52287D01*
X316101Y52239D01*
X316112Y52188D01*
X316149Y52127D01*
X316177Y52061D01*
X316222Y52005D01*
X316238Y51977D01*
X316256Y51962D01*
X316282Y51930D01*
X318218Y49994D01*
X318292Y49941D01*
X318361Y49881D01*
X318391Y49869D01*
X318417Y49850D01*
X318505Y49823D01*
X318589Y49789D01*
X318630Y49785D01*
X318652Y49778D01*
X318685Y49779D01*
X318756Y49771D01*
X327526Y49771D01*
X328271Y49026D01*
X328271Y36974D01*
X327526Y36229D01*
X316474Y36229D01*
X315729Y36974D01*
X315729Y45744D01*
X315715Y45834D01*
X315707Y45925D01*
X315695Y45955D01*
X315690Y45987D01*
X315647Y46068D01*
X315611Y46151D01*
X315585Y46184D01*
X315574Y46204D01*
X315551Y46226D01*
X315506Y46282D01*
X305570Y56218D01*
X305512Y56260D01*
X305460Y56310D01*
X305413Y56332D01*
X305371Y56362D01*
X305302Y56383D01*
X305237Y56413D01*
X305185Y56419D01*
X305135Y56434D01*
X305064Y56432D01*
X304993Y56440D01*
X304942Y56429D01*
X304890Y56428D01*
X304822Y56403D01*
X304752Y56388D01*
X304707Y56361D01*
X304659Y56344D01*
X304603Y56299D01*
X304541Y56262D01*
X304507Y56222D01*
X304467Y56190D01*
X304428Y56130D01*
X304381Y56075D01*
X304362Y56027D01*
X304334Y55983D01*
X304316Y55913D01*
X304289Y55847D01*
X304281Y55776D01*
X304273Y55744D01*
X304275Y55721D01*
X304271Y55680D01*
X304271Y53974D01*
X303526Y53229D01*
X294756Y53229D01*
X294666Y53215D01*
X294575Y53207D01*
X294545Y53195D01*
X294513Y53190D01*
X294433Y53147D01*
X294349Y53111D01*
X294316Y53085D01*
X294296Y53074D01*
X294274Y53051D01*
X294218Y53006D01*
X292282Y51070D01*
X292240Y51012D01*
X292190Y50960D01*
X292168Y50913D01*
X292138Y50871D01*
X292117Y50802D01*
X292087Y50737D01*
X292081Y50685D01*
X292066Y50635D01*
X292068Y50564D01*
X292060Y50493D01*
X292071Y50442D01*
X292072Y50390D01*
X292097Y50322D01*
X292112Y50252D01*
X292139Y50207D01*
X292156Y50159D01*
X292201Y50103D01*
X292238Y50041D01*
X292278Y50007D01*
X292310Y49967D01*
X292370Y49928D01*
X292425Y49881D01*
X292473Y49862D01*
X292517Y49834D01*
X292587Y49816D01*
X292653Y49789D01*
X292724Y49781D01*
X292756Y49773D01*
X292779Y49775D01*
X292820Y49771D01*
X303526Y49771D01*
X304271Y49026D01*
X304271Y40256D01*
X304285Y40166D01*
X304293Y40075D01*
X304305Y40045D01*
X304310Y40013D01*
X304353Y39932D01*
X304389Y39849D01*
X304415Y39816D01*
X304426Y39796D01*
X304449Y39774D01*
X304494Y39718D01*
X319223Y24988D01*
X319240Y24976D01*
X319252Y24961D01*
X319339Y24905D01*
X319423Y24844D01*
X319442Y24838D01*
X319459Y24828D01*
X319559Y24802D01*
X319658Y24772D01*
X319678Y24772D01*
X319697Y24768D01*
X319800Y24776D01*
X319904Y24778D01*
X319923Y24785D01*
X319943Y24787D01*
X320038Y24827D01*
X320135Y24863D01*
X320151Y24875D01*
X320169Y24883D01*
X320300Y24988D01*
X322357Y27045D01*
X326278Y28669D01*
X330522Y28669D01*
X333825Y27301D01*
X333938Y27274D01*
X334052Y27245D01*
X334058Y27246D01*
X334064Y27245D01*
X334181Y27256D01*
X334297Y27265D01*
X334303Y27267D01*
X334309Y27268D01*
X334417Y27315D01*
X334523Y27361D01*
X334529Y27366D01*
X334534Y27368D01*
X334548Y27380D01*
X334654Y27466D01*
X342118Y34930D01*
X342160Y34988D01*
X342210Y35040D01*
X342232Y35087D01*
X342262Y35129D01*
X342283Y35198D01*
X342313Y35263D01*
X342319Y35315D01*
X342334Y35365D01*
X342332Y35436D01*
X342340Y35507D01*
X342329Y35558D01*
X342328Y35610D01*
X342303Y35678D01*
X342288Y35748D01*
X342261Y35792D01*
X342244Y35841D01*
X342199Y35897D01*
X342162Y35959D01*
X342122Y35993D01*
X342090Y36033D01*
X342030Y36072D01*
X341975Y36119D01*
X341927Y36138D01*
X341883Y36166D01*
X341813Y36184D01*
X341747Y36211D01*
X341676Y36219D01*
X341644Y36227D01*
X341621Y36225D01*
X341580Y36229D01*
X341474Y36229D01*
X340729Y36974D01*
X340729Y49026D01*
X341474Y49771D01*
X352526Y49771D01*
X353271Y49026D01*
X353271Y36974D01*
X352526Y36229D01*
X350032Y36229D01*
X350012Y36226D01*
X349993Y36228D01*
X349891Y36206D01*
X349789Y36190D01*
X349772Y36180D01*
X349752Y36176D01*
X349663Y36123D01*
X349572Y36074D01*
X349558Y36060D01*
X349541Y36050D01*
X349474Y35971D01*
X349402Y35896D01*
X349394Y35878D01*
X349381Y35863D01*
X349342Y35767D01*
X349311Y35700D01*
X347718Y34106D01*
X337866Y24254D01*
X337798Y24160D01*
X337728Y24066D01*
X337726Y24060D01*
X337722Y24055D01*
X337688Y23944D01*
X337652Y23832D01*
X337652Y23826D01*
X337650Y23820D01*
X337653Y23703D01*
X337654Y23586D01*
X337656Y23579D01*
X337656Y23574D01*
X337663Y23556D01*
X337701Y23425D01*
X339069Y20122D01*
X339069Y15878D01*
X337445Y11957D01*
X334443Y8955D01*
X330522Y7331D01*
X326278Y7331D01*
X322357Y8955D01*
X319355Y11957D01*
X317731Y15878D01*
X317731Y19742D01*
X317717Y19832D01*
X317709Y19923D01*
X317697Y19953D01*
X317692Y19985D01*
X317649Y20066D01*
X317613Y20149D01*
X317587Y20182D01*
X317576Y20202D01*
X317553Y20224D01*
X317508Y20280D01*
X301782Y36006D01*
X301708Y36059D01*
X301639Y36119D01*
X301609Y36131D01*
X301583Y36150D01*
X301496Y36177D01*
X301411Y36211D01*
X301370Y36215D01*
X301348Y36222D01*
X301315Y36221D01*
X301244Y36229D01*
X292474Y36229D01*
X291729Y36974D01*
X291729Y48680D01*
X291718Y48751D01*
X291716Y48823D01*
X291698Y48872D01*
X291690Y48923D01*
X291656Y48986D01*
X291631Y49054D01*
X291599Y49094D01*
X291574Y49140D01*
X291522Y49190D01*
X291478Y49246D01*
X291434Y49274D01*
X291396Y49310D01*
X291331Y49340D01*
X291271Y49379D01*
X291220Y49391D01*
X291173Y49413D01*
X291102Y49421D01*
X291032Y49439D01*
X290980Y49435D01*
X290929Y49440D01*
X290858Y49425D01*
X290787Y49420D01*
X290739Y49399D01*
X290688Y49388D01*
X290627Y49351D01*
X290561Y49323D01*
X290505Y49279D01*
X290477Y49262D01*
X290462Y49244D01*
X290430Y49218D01*
X284264Y43052D01*
X284211Y42978D01*
X284151Y42909D01*
X284139Y42879D01*
X284120Y42853D01*
X284093Y42766D01*
X284059Y42681D01*
X284055Y42640D01*
X284048Y42618D01*
X284049Y42585D01*
X284041Y42514D01*
X284041Y34369D01*
X267331Y17659D01*
X218772Y17659D01*
X217219Y19212D01*
X215725Y20706D01*
X215651Y20759D01*
X215581Y20819D01*
X215551Y20831D01*
X215525Y20850D01*
X215438Y20877D01*
X215353Y20911D01*
X215312Y20915D01*
X215290Y20922D01*
X215258Y20921D01*
X215187Y20929D01*
X212126Y20929D01*
X211538Y21517D01*
X211522Y21529D01*
X211510Y21545D01*
X211422Y21601D01*
X211339Y21661D01*
X211320Y21667D01*
X211303Y21678D01*
X211202Y21703D01*
X211103Y21733D01*
X211084Y21733D01*
X211064Y21738D01*
X210961Y21730D01*
X210858Y21727D01*
X210839Y21720D01*
X210819Y21718D01*
X210724Y21678D01*
X210627Y21642D01*
X210611Y21630D01*
X210593Y21622D01*
X210462Y21517D01*
X209874Y20929D01*
X204126Y20929D01*
X203538Y21517D01*
X203522Y21529D01*
X203510Y21545D01*
X203422Y21601D01*
X203339Y21661D01*
X203320Y21667D01*
X203303Y21678D01*
X203202Y21703D01*
X203103Y21733D01*
X203084Y21733D01*
X203064Y21738D01*
X202961Y21730D01*
X202858Y21727D01*
X202839Y21720D01*
X202819Y21718D01*
X202724Y21678D01*
X202627Y21642D01*
X202611Y21630D01*
X202593Y21622D01*
X202462Y21517D01*
X201874Y20929D01*
X196126Y20929D01*
X195538Y21517D01*
X195522Y21529D01*
X195510Y21545D01*
X195422Y21601D01*
X195339Y21661D01*
X195320Y21667D01*
X195303Y21678D01*
X195202Y21703D01*
X195103Y21733D01*
X195084Y21733D01*
X195064Y21738D01*
X194961Y21730D01*
X194858Y21727D01*
X194839Y21720D01*
X194819Y21718D01*
X194724Y21678D01*
X194627Y21642D01*
X194611Y21630D01*
X194593Y21622D01*
X194462Y21517D01*
X193874Y20929D01*
X188126Y20929D01*
X187538Y21517D01*
X187522Y21529D01*
X187510Y21545D01*
X187422Y21601D01*
X187339Y21661D01*
X187320Y21667D01*
X187303Y21678D01*
X187202Y21703D01*
X187103Y21733D01*
X187084Y21733D01*
X187064Y21738D01*
X186961Y21730D01*
X186858Y21727D01*
X186839Y21720D01*
X186819Y21718D01*
X186724Y21678D01*
X186627Y21642D01*
X186611Y21630D01*
X186593Y21622D01*
X186462Y21517D01*
X185874Y20929D01*
X180126Y20929D01*
X179602Y21453D01*
X179544Y21495D01*
X179492Y21545D01*
X179445Y21567D01*
X179403Y21597D01*
X179334Y21618D01*
X179269Y21648D01*
X179217Y21654D01*
X179167Y21669D01*
X179096Y21667D01*
X179025Y21675D01*
X178974Y21664D01*
X178922Y21663D01*
X178854Y21638D01*
X178784Y21623D01*
X178739Y21596D01*
X178691Y21578D01*
X178635Y21534D01*
X178573Y21497D01*
X178539Y21457D01*
X178499Y21425D01*
X178460Y21364D01*
X178413Y21310D01*
X178394Y21262D01*
X178366Y21218D01*
X178348Y21148D01*
X178321Y21082D01*
X178313Y21011D01*
X178305Y20979D01*
X178307Y20956D01*
X178303Y20915D01*
X178303Y16683D01*
X178317Y16593D01*
X178325Y16502D01*
X178337Y16473D01*
X178342Y16441D01*
X178385Y16360D01*
X178421Y16276D01*
X178447Y16244D01*
X178458Y16223D01*
X178481Y16201D01*
X178526Y16145D01*
X178891Y15780D01*
X178965Y15727D01*
X179034Y15667D01*
X179065Y15655D01*
X179091Y15636D01*
X179178Y15609D01*
X179263Y15575D01*
X179304Y15571D01*
X179326Y15564D01*
X179358Y15565D01*
X179429Y15557D01*
X181105Y15557D01*
X183148Y14711D01*
X184711Y13148D01*
X185557Y11105D01*
X185557Y8895D01*
X184711Y6852D01*
X183148Y5289D01*
X181105Y4443D01*
X178895Y4443D01*
X176852Y5289D01*
X175289Y6852D01*
X174443Y8895D01*
X174443Y10571D01*
X174429Y10661D01*
X174421Y10752D01*
X174409Y10781D01*
X174404Y10813D01*
X174361Y10894D01*
X174325Y10978D01*
X174299Y11010D01*
X174288Y11031D01*
X174265Y11053D01*
X174220Y11109D01*
X171697Y13632D01*
X171697Y21043D01*
X171695Y21058D01*
X171696Y21071D01*
X171682Y21135D01*
X171675Y21224D01*
X171663Y21254D01*
X171658Y21286D01*
X171644Y21311D01*
X171644Y21312D01*
X171642Y21315D01*
X171615Y21366D01*
X171579Y21450D01*
X171553Y21482D01*
X171542Y21503D01*
X171519Y21525D01*
X171474Y21581D01*
X170979Y22076D01*
X170979Y38324D01*
X172126Y39471D01*
X176968Y39471D01*
X176988Y39474D01*
X177007Y39472D01*
X177109Y39494D01*
X177211Y39510D01*
X177228Y39520D01*
X177248Y39524D01*
X177337Y39577D01*
X177428Y39626D01*
X177442Y39640D01*
X177459Y39650D01*
X177526Y39729D01*
X177598Y39804D01*
X177606Y39822D01*
X177619Y39837D01*
X177658Y39933D01*
X177701Y40027D01*
X177703Y40047D01*
X177711Y40065D01*
X177729Y40232D01*
X177729Y44112D01*
X177715Y44202D01*
X177707Y44293D01*
X177695Y44322D01*
X177690Y44354D01*
X177647Y44435D01*
X177611Y44519D01*
X177585Y44551D01*
X177574Y44572D01*
X177551Y44594D01*
X177506Y44650D01*
X174693Y47463D01*
X174693Y51859D01*
X177802Y54968D01*
X182198Y54968D01*
X185307Y51859D01*
X185307Y47463D01*
X182494Y44650D01*
X182441Y44576D01*
X182381Y44506D01*
X182369Y44476D01*
X182350Y44450D01*
X182323Y44363D01*
X182289Y44278D01*
X182285Y44237D01*
X182278Y44215D01*
X182279Y44183D01*
X182271Y44112D01*
X182271Y40373D01*
X182285Y40283D01*
X182293Y40192D01*
X182305Y40162D01*
X182310Y40130D01*
X182353Y40049D01*
X182389Y39965D01*
X182415Y39933D01*
X182426Y39913D01*
X182449Y39890D01*
X182494Y39834D01*
X182634Y39694D01*
X182708Y39641D01*
X182778Y39581D01*
X182808Y39569D01*
X182834Y39550D01*
X182921Y39523D01*
X183006Y39489D01*
X183047Y39485D01*
X183069Y39478D01*
X183101Y39479D01*
X183173Y39471D01*
X185874Y39471D01*
X186462Y38883D01*
X186478Y38871D01*
X186490Y38855D01*
X186578Y38799D01*
X186661Y38739D01*
X186680Y38733D01*
X186697Y38722D01*
X186798Y38697D01*
X186897Y38667D01*
X186916Y38667D01*
X186936Y38662D01*
X187039Y38670D01*
X187142Y38673D01*
X187161Y38680D01*
X187181Y38682D01*
X187276Y38722D01*
X187373Y38758D01*
X187389Y38770D01*
X187407Y38778D01*
X187538Y38883D01*
X188157Y39502D01*
X188211Y39510D01*
X188228Y39520D01*
X188248Y39524D01*
X188337Y39577D01*
X188428Y39626D01*
X188442Y39640D01*
X188459Y39650D01*
X188526Y39729D01*
X188598Y39804D01*
X188606Y39822D01*
X188619Y39837D01*
X188658Y39933D01*
X188701Y40027D01*
X188703Y40047D01*
X188711Y40065D01*
X188729Y40232D01*
X188729Y40941D01*
X189470Y41682D01*
X189523Y41756D01*
X189583Y41825D01*
X189595Y41855D01*
X189614Y41881D01*
X189641Y41968D01*
X189675Y42053D01*
X189679Y42094D01*
X189686Y42116D01*
X189685Y42149D01*
X189693Y42220D01*
X189693Y46198D01*
X192802Y49307D01*
X197198Y49307D01*
X200307Y46198D01*
X200307Y41802D01*
X199275Y40770D01*
X199233Y40712D01*
X199184Y40660D01*
X199162Y40613D01*
X199132Y40571D01*
X199110Y40502D01*
X199080Y40437D01*
X199075Y40385D01*
X199059Y40335D01*
X199061Y40264D01*
X199053Y40193D01*
X199064Y40142D01*
X199066Y40090D01*
X199090Y40022D01*
X199105Y39952D01*
X199132Y39907D01*
X199150Y39859D01*
X199195Y39803D01*
X199232Y39741D01*
X199271Y39707D01*
X199304Y39667D01*
X199364Y39628D01*
X199419Y39581D01*
X199467Y39562D01*
X199511Y39534D01*
X199580Y39516D01*
X199647Y39489D01*
X199718Y39481D01*
X199749Y39473D01*
X199772Y39475D01*
X199813Y39471D01*
X201874Y39471D01*
X202462Y38883D01*
X202478Y38871D01*
X202490Y38855D01*
X202578Y38799D01*
X202661Y38739D01*
X202680Y38733D01*
X202697Y38722D01*
X202798Y38697D01*
X202897Y38667D01*
X202916Y38667D01*
X202936Y38662D01*
X203039Y38670D01*
X203142Y38673D01*
X203161Y38680D01*
X203181Y38682D01*
X203276Y38722D01*
X203373Y38758D01*
X203389Y38770D01*
X203407Y38778D01*
X203538Y38883D01*
X204126Y39471D01*
X209874Y39471D01*
X210462Y38883D01*
X210478Y38871D01*
X210490Y38855D01*
X210578Y38799D01*
X210661Y38739D01*
X210680Y38733D01*
X210697Y38722D01*
X210798Y38697D01*
X210897Y38667D01*
X210916Y38667D01*
X210936Y38662D01*
X211039Y38670D01*
X211142Y38673D01*
X211161Y38680D01*
X211181Y38682D01*
X211276Y38722D01*
X211373Y38758D01*
X211389Y38770D01*
X211407Y38778D01*
X211538Y38883D01*
X212126Y39471D01*
X214742Y39471D01*
X214813Y39482D01*
X214885Y39484D01*
X214934Y39502D01*
X214985Y39510D01*
X215048Y39544D01*
X215116Y39569D01*
X215156Y39601D01*
X215202Y39626D01*
X215252Y39678D01*
X215308Y39722D01*
X215336Y39766D01*
X215372Y39804D01*
X215402Y39869D01*
X215441Y39929D01*
X215453Y39980D01*
X215475Y40027D01*
X215483Y40098D01*
X215501Y40168D01*
X215497Y40220D01*
X215502Y40271D01*
X215487Y40342D01*
X215482Y40413D01*
X215461Y40461D01*
X215450Y40512D01*
X215413Y40573D01*
X215385Y40639D01*
X215340Y40695D01*
X215324Y40723D01*
X215306Y40738D01*
X215280Y40770D01*
X214235Y41816D01*
X214235Y46212D01*
X217343Y49321D01*
X221740Y49321D01*
X223394Y47667D01*
X223452Y47625D01*
X223504Y47575D01*
X223551Y47553D01*
X223593Y47523D01*
X223662Y47502D01*
X223727Y47472D01*
X223779Y47466D01*
X223829Y47451D01*
X223900Y47453D01*
X223971Y47445D01*
X224022Y47456D01*
X224074Y47457D01*
X224142Y47482D01*
X224212Y47497D01*
X224257Y47524D01*
X224305Y47542D01*
X224361Y47586D01*
X224423Y47623D01*
X224457Y47663D01*
X224497Y47695D01*
X224536Y47756D01*
X224583Y47810D01*
X224602Y47858D01*
X224630Y47902D01*
X224648Y47972D01*
X224675Y48038D01*
X224683Y48110D01*
X224691Y48141D01*
X224689Y48164D01*
X224693Y48205D01*
X224693Y52198D01*
X227802Y55307D01*
X232198Y55307D01*
X235307Y52198D01*
X235307Y47802D01*
X233494Y45989D01*
X233441Y45915D01*
X233381Y45845D01*
X233369Y45815D01*
X233350Y45789D01*
X233323Y45702D01*
X233289Y45617D01*
X233285Y45576D01*
X233278Y45554D01*
X233279Y45522D01*
X233271Y45451D01*
X233271Y40232D01*
X233274Y40212D01*
X233272Y40193D01*
X233294Y40091D01*
X233310Y39989D01*
X233320Y39972D01*
X233324Y39952D01*
X233377Y39863D01*
X233426Y39772D01*
X233440Y39758D01*
X233450Y39741D01*
X233529Y39674D01*
X233604Y39602D01*
X233622Y39594D01*
X233637Y39581D01*
X233733Y39542D01*
X233827Y39499D01*
X233847Y39497D01*
X233848Y39496D01*
X235021Y38324D01*
X235021Y22962D01*
X235024Y22942D01*
X235022Y22923D01*
X235044Y22821D01*
X235060Y22719D01*
X235070Y22702D01*
X235074Y22682D01*
X235127Y22593D01*
X235176Y22502D01*
X235190Y22488D01*
X235200Y22471D01*
X235279Y22404D01*
X235354Y22332D01*
X235372Y22324D01*
X235387Y22311D01*
X235483Y22272D01*
X235577Y22229D01*
X235597Y22227D01*
X235615Y22219D01*
X235782Y22201D01*
X265134Y22201D01*
X265224Y22215D01*
X265315Y22223D01*
X265345Y22235D01*
X265377Y22240D01*
X265458Y22283D01*
X265542Y22319D01*
X265574Y22345D01*
X265594Y22356D01*
X265617Y22379D01*
X265673Y22424D01*
X276929Y33680D01*
X276971Y33738D01*
X277020Y33790D01*
X277042Y33837D01*
X277072Y33879D01*
X277093Y33948D01*
X277124Y34013D01*
X277129Y34065D01*
X277145Y34115D01*
X277143Y34186D01*
X277151Y34257D01*
X277140Y34308D01*
X277138Y34360D01*
X277114Y34428D01*
X277098Y34498D01*
X277072Y34543D01*
X277054Y34591D01*
X277009Y34647D01*
X276972Y34709D01*
X276933Y34743D01*
X276900Y34783D01*
X276840Y34822D01*
X276785Y34869D01*
X276737Y34888D01*
X276693Y34916D01*
X276624Y34934D01*
X276557Y34961D01*
X276486Y34969D01*
X276455Y34977D01*
X276431Y34975D01*
X276390Y34979D01*
X270919Y34979D01*
X270829Y34965D01*
X270738Y34957D01*
X270709Y34945D01*
X270677Y34940D01*
X270596Y34897D01*
X270512Y34861D01*
X270480Y34835D01*
X270459Y34824D01*
X270437Y34801D01*
X270381Y34756D01*
X270148Y34523D01*
X266787Y34523D01*
X266697Y34509D01*
X266606Y34501D01*
X266577Y34489D01*
X266545Y34484D01*
X266464Y34441D01*
X266380Y34405D01*
X266348Y34379D01*
X266327Y34368D01*
X266305Y34345D01*
X266249Y34300D01*
X263198Y31249D01*
X258802Y31249D01*
X255693Y34358D01*
X255693Y38754D01*
X258802Y41863D01*
X263198Y41863D01*
X266249Y38812D01*
X266323Y38759D01*
X266393Y38699D01*
X266423Y38687D01*
X266449Y38668D01*
X266536Y38641D01*
X266621Y38607D01*
X266662Y38603D01*
X266684Y38596D01*
X266716Y38597D01*
X266787Y38589D01*
X267468Y38589D01*
X267488Y38592D01*
X267507Y38590D01*
X267609Y38612D01*
X267711Y38628D01*
X267728Y38638D01*
X267748Y38642D01*
X267837Y38695D01*
X267928Y38744D01*
X267942Y38758D01*
X267959Y38768D01*
X268026Y38847D01*
X268098Y38922D01*
X268106Y38940D01*
X268119Y38955D01*
X268158Y39051D01*
X268201Y39145D01*
X268203Y39165D01*
X268211Y39183D01*
X268229Y39350D01*
X268229Y47776D01*
X268974Y48521D01*
X280026Y48521D01*
X280779Y47768D01*
X280782Y47749D01*
X280784Y47677D01*
X280802Y47628D01*
X280810Y47577D01*
X280844Y47514D01*
X280869Y47446D01*
X280901Y47406D01*
X280926Y47360D01*
X280978Y47310D01*
X281022Y47254D01*
X281066Y47226D01*
X281104Y47190D01*
X281169Y47160D01*
X281229Y47121D01*
X281280Y47109D01*
X281327Y47087D01*
X281398Y47079D01*
X281468Y47061D01*
X281520Y47065D01*
X281571Y47060D01*
X281642Y47075D01*
X281713Y47080D01*
X281761Y47101D01*
X281812Y47112D01*
X281873Y47149D01*
X281939Y47177D01*
X281995Y47221D01*
X282023Y47238D01*
X282038Y47256D01*
X282070Y47282D01*
X291506Y56718D01*
X291559Y56792D01*
X291619Y56861D01*
X291631Y56891D01*
X291650Y56917D01*
X291677Y57004D01*
X291711Y57089D01*
X291715Y57130D01*
X291722Y57152D01*
X291721Y57185D01*
X291729Y57256D01*
X291729Y66026D01*
X292474Y66771D01*
X303526Y66771D01*
X304271Y66026D01*
X304271Y63032D01*
X304274Y63012D01*
X304272Y62993D01*
X304294Y62891D01*
X304310Y62789D01*
X304320Y62772D01*
X304324Y62752D01*
X304377Y62663D01*
X304426Y62572D01*
X304440Y62558D01*
X304450Y62541D01*
X304529Y62474D01*
X304604Y62402D01*
X304622Y62394D01*
X304637Y62381D01*
X304733Y62342D01*
X304827Y62299D01*
X304847Y62297D01*
X304865Y62289D01*
X305032Y62271D01*
X305941Y62271D01*
X314430Y53782D01*
X314488Y53740D01*
X314540Y53690D01*
X314587Y53668D01*
X314629Y53638D01*
X314698Y53617D01*
X314763Y53587D01*
X314815Y53581D01*
X314865Y53566D01*
X314936Y53568D01*
X315007Y53560D01*
X315058Y53571D01*
X315110Y53572D01*
X315178Y53597D01*
X315248Y53612D01*
X315293Y53639D01*
X315341Y53656D01*
X315397Y53701D01*
X315459Y53738D01*
X315493Y53778D01*
X315533Y53810D01*
X315572Y53870D01*
X315619Y53925D01*
X315638Y53973D01*
X315666Y54017D01*
X315684Y54087D01*
X315711Y54153D01*
X315719Y54224D01*
X315727Y54256D01*
X315725Y54279D01*
X315729Y54320D01*
X315729Y66026D01*
X316474Y66771D01*
X327526Y66771D01*
X328271Y66026D01*
X328271Y63032D01*
X328274Y63012D01*
X328272Y62993D01*
X328294Y62891D01*
X328310Y62789D01*
X328320Y62772D01*
X328324Y62752D01*
X328377Y62663D01*
X328426Y62572D01*
X328440Y62558D01*
X328450Y62541D01*
X328529Y62474D01*
X328604Y62402D01*
X328622Y62394D01*
X328637Y62381D01*
X328733Y62342D01*
X328827Y62299D01*
X328847Y62297D01*
X328865Y62289D01*
X329032Y62271D01*
X339968Y62271D01*
X339988Y62274D01*
X340007Y62272D01*
X340109Y62294D01*
X340211Y62310D01*
X340228Y62320D01*
X340248Y62324D01*
X340337Y62377D01*
X340428Y62426D01*
X340442Y62440D01*
X340459Y62450D01*
X340526Y62529D01*
X340598Y62604D01*
X340606Y62622D01*
X340619Y62637D01*
X340658Y62733D01*
X340701Y62827D01*
X340703Y62847D01*
X340711Y62865D01*
X340729Y63032D01*
X340729Y66026D01*
X341474Y66771D01*
X350244Y66771D01*
X350334Y66785D01*
X350425Y66793D01*
X350455Y66805D01*
X350487Y66810D01*
X350568Y66853D01*
X350651Y66889D01*
X350684Y66915D01*
X350704Y66926D01*
X350726Y66949D01*
X350782Y66994D01*
X354470Y70682D01*
X354523Y70756D01*
X354583Y70825D01*
X354595Y70855D01*
X354614Y70881D01*
X354641Y70968D01*
X354675Y71053D01*
X354679Y71094D01*
X354686Y71116D01*
X354685Y71149D01*
X354693Y71220D01*
X354693Y72198D01*
X356925Y74430D01*
X356967Y74488D01*
X357016Y74540D01*
X357038Y74587D01*
X357068Y74629D01*
X357090Y74698D01*
X357120Y74763D01*
X357125Y74815D01*
X357141Y74865D01*
X357139Y74936D01*
X357147Y75007D01*
X357136Y75058D01*
X357134Y75110D01*
X357110Y75178D01*
X357095Y75248D01*
X357068Y75293D01*
X357050Y75341D01*
X357005Y75397D01*
X356968Y75459D01*
X356929Y75493D01*
X356896Y75533D01*
X356836Y75572D01*
X356781Y75619D01*
X356733Y75638D01*
X356689Y75666D01*
X356620Y75684D01*
X356553Y75711D01*
X356482Y75719D01*
X356451Y75727D01*
X356428Y75725D01*
X356387Y75729D01*
X355474Y75729D01*
X354729Y76474D01*
X354729Y88180D01*
X354718Y88251D01*
X354716Y88323D01*
X354698Y88372D01*
X354690Y88423D01*
X354656Y88486D01*
X354631Y88554D01*
X354599Y88594D01*
X354574Y88640D01*
X354522Y88690D01*
X354478Y88746D01*
X354434Y88774D01*
X354396Y88810D01*
X354331Y88840D01*
X354271Y88879D01*
X354220Y88891D01*
X354173Y88913D01*
X354102Y88921D01*
X354032Y88939D01*
X353980Y88935D01*
X353929Y88940D01*
X353858Y88925D01*
X353787Y88920D01*
X353739Y88899D01*
X353688Y88888D01*
X353627Y88851D01*
X353561Y88823D01*
X353505Y88779D01*
X353477Y88762D01*
X353462Y88744D01*
X353430Y88718D01*
X349494Y84782D01*
X349441Y84708D01*
X349381Y84639D01*
X349369Y84609D01*
X349350Y84583D01*
X349323Y84495D01*
X349289Y84411D01*
X349285Y84370D01*
X349278Y84348D01*
X349279Y84315D01*
X349271Y84244D01*
X349271Y81549D01*
X349285Y81459D01*
X349293Y81368D01*
X349305Y81339D01*
X349310Y81307D01*
X349353Y81226D01*
X349389Y81142D01*
X349415Y81110D01*
X349426Y81089D01*
X349449Y81067D01*
X349494Y81011D01*
X352307Y78198D01*
X352307Y73802D01*
X349198Y70693D01*
X344802Y70693D01*
X341693Y73802D01*
X341693Y78198D01*
X344506Y81011D01*
X344559Y81085D01*
X344619Y81155D01*
X344631Y81185D01*
X344650Y81211D01*
X344677Y81298D01*
X344711Y81383D01*
X344715Y81424D01*
X344722Y81446D01*
X344721Y81478D01*
X344729Y81549D01*
X344729Y86441D01*
X354506Y96218D01*
X354559Y96292D01*
X354619Y96361D01*
X354631Y96391D01*
X354650Y96417D01*
X354677Y96504D01*
X354711Y96589D01*
X354715Y96630D01*
X354722Y96652D01*
X354721Y96685D01*
X354729Y96756D01*
X354729Y105526D01*
X355486Y106283D01*
X355529Y106284D01*
X355578Y106302D01*
X355629Y106310D01*
X355693Y106344D01*
X355760Y106369D01*
X355801Y106401D01*
X355847Y106426D01*
X355896Y106477D01*
X355952Y106522D01*
X355980Y106566D01*
X356016Y106604D01*
X356046Y106669D01*
X356085Y106729D01*
X356098Y106780D01*
X356120Y106827D01*
X356128Y106898D01*
X356145Y106968D01*
X356141Y107020D01*
X356147Y107071D01*
X356132Y107142D01*
X356126Y107213D01*
X356106Y107261D01*
X356095Y107312D01*
X356058Y107373D01*
X356030Y107439D01*
X355985Y107495D01*
X355968Y107523D01*
X355951Y107538D01*
X355947Y107544D01*
X355943Y107548D01*
X355925Y107570D01*
X352684Y110811D01*
X352668Y110822D01*
X352656Y110838D01*
X352568Y110894D01*
X352485Y110954D01*
X352466Y110960D01*
X352449Y110971D01*
X352348Y110996D01*
X352250Y111027D01*
X352230Y111026D01*
X352210Y111031D01*
X352107Y111023D01*
X352004Y111020D01*
X351985Y111013D01*
X351965Y111012D01*
X351870Y110971D01*
X351773Y110936D01*
X351757Y110923D01*
X351739Y110916D01*
X351608Y110811D01*
X351526Y110729D01*
X340474Y110729D01*
X339729Y111474D01*
X339729Y123180D01*
X339718Y123251D01*
X339716Y123323D01*
X339698Y123372D01*
X339690Y123423D01*
X339656Y123486D01*
X339631Y123554D01*
X339599Y123594D01*
X339574Y123640D01*
X339522Y123690D01*
X339478Y123746D01*
X339434Y123774D01*
X339396Y123810D01*
X339331Y123840D01*
X339271Y123879D01*
X339220Y123891D01*
X339173Y123913D01*
X339102Y123921D01*
X339032Y123939D01*
X338980Y123935D01*
X338929Y123940D01*
X338858Y123925D01*
X338787Y123920D01*
X338739Y123899D01*
X338688Y123888D01*
X338627Y123851D01*
X338561Y123823D01*
X338505Y123779D01*
X338477Y123762D01*
X338462Y123744D01*
X338430Y123718D01*
X329941Y115229D01*
X329032Y115229D01*
X329012Y115226D01*
X328993Y115228D01*
X328891Y115206D01*
X328789Y115190D01*
X328772Y115180D01*
X328752Y115176D01*
X328663Y115123D01*
X328572Y115074D01*
X328558Y115060D01*
X328541Y115050D01*
X328474Y114971D01*
X328402Y114896D01*
X328394Y114878D01*
X328381Y114863D01*
X328342Y114767D01*
X328299Y114673D01*
X328297Y114653D01*
X328289Y114635D01*
X328271Y114468D01*
X328271Y111474D01*
X327526Y110729D01*
X316474Y110729D01*
X315729Y111474D01*
X315729Y116968D01*
X315727Y116980D01*
X315728Y116989D01*
X315727Y116995D01*
X315728Y117007D01*
X315706Y117109D01*
X315690Y117211D01*
X315680Y117228D01*
X315676Y117248D01*
X315623Y117337D01*
X315574Y117428D01*
X315560Y117442D01*
X315550Y117459D01*
X315471Y117526D01*
X315396Y117598D01*
X315378Y117606D01*
X315363Y117619D01*
X315267Y117658D01*
X315173Y117701D01*
X315153Y117703D01*
X315135Y117711D01*
X314968Y117729D01*
X305549Y117729D01*
X305460Y117715D01*
X305368Y117707D01*
X305339Y117695D01*
X305307Y117690D01*
X305226Y117647D01*
X305142Y117611D01*
X305110Y117585D01*
X305089Y117574D01*
X305073Y117557D01*
X305071Y117556D01*
X305063Y117548D01*
X305011Y117506D01*
X304075Y116570D01*
X304033Y116512D01*
X303984Y116460D01*
X303962Y116413D01*
X303932Y116371D01*
X303910Y116302D01*
X303880Y116237D01*
X303875Y116185D01*
X303859Y116135D01*
X303861Y116064D01*
X303853Y115993D01*
X303864Y115942D01*
X303866Y115890D01*
X303890Y115822D01*
X303905Y115752D01*
X303932Y115707D01*
X303950Y115659D01*
X303995Y115603D01*
X304032Y115541D01*
X304071Y115507D01*
X304104Y115467D01*
X304164Y115428D01*
X304219Y115381D01*
X304267Y115362D01*
X304311Y115334D01*
X304380Y115316D01*
X304447Y115289D01*
X304518Y115281D01*
X304549Y115273D01*
X304572Y115275D01*
X304613Y115271D01*
X306841Y115271D01*
X308394Y113718D01*
X322146Y99966D01*
X322240Y99898D01*
X322334Y99828D01*
X322340Y99826D01*
X322345Y99822D01*
X322456Y99788D01*
X322568Y99752D01*
X322574Y99752D01*
X322580Y99750D01*
X322697Y99753D01*
X322814Y99754D01*
X322821Y99756D01*
X322826Y99756D01*
X322844Y99763D01*
X322975Y99801D01*
X326278Y101169D01*
X330522Y101169D01*
X334443Y99545D01*
X337445Y96543D01*
X339069Y92622D01*
X339069Y88378D01*
X337445Y84457D01*
X334443Y81455D01*
X330522Y79831D01*
X326278Y79831D01*
X322357Y81455D01*
X319355Y84457D01*
X317731Y88378D01*
X317731Y92622D01*
X319099Y95925D01*
X319126Y96038D01*
X319155Y96152D01*
X319154Y96158D01*
X319155Y96164D01*
X319144Y96281D01*
X319135Y96397D01*
X319133Y96403D01*
X319132Y96409D01*
X319085Y96517D01*
X319039Y96623D01*
X319034Y96629D01*
X319032Y96634D01*
X319020Y96648D01*
X318934Y96754D01*
X305182Y110506D01*
X305108Y110559D01*
X305039Y110619D01*
X305009Y110631D01*
X304983Y110650D01*
X304896Y110677D01*
X304811Y110711D01*
X304770Y110715D01*
X304748Y110722D01*
X304715Y110721D01*
X304644Y110729D01*
X294032Y110729D01*
X294012Y110726D01*
X293993Y110728D01*
X293891Y110706D01*
X293789Y110690D01*
X293772Y110680D01*
X293752Y110676D01*
X293663Y110623D01*
X293572Y110574D01*
X293558Y110560D01*
X293541Y110550D01*
X293474Y110471D01*
X293402Y110396D01*
X293394Y110378D01*
X293381Y110363D01*
X293342Y110267D01*
X293299Y110173D01*
X293297Y110153D01*
X293289Y110135D01*
X293271Y109968D01*
X293271Y107474D01*
X292526Y106729D01*
X283756Y106729D01*
X283666Y106715D01*
X283575Y106707D01*
X283545Y106695D01*
X283513Y106690D01*
X283432Y106647D01*
X283349Y106611D01*
X283316Y106585D01*
X283296Y106574D01*
X283274Y106551D01*
X283218Y106506D01*
X280292Y103581D01*
X280281Y103565D01*
X280265Y103553D01*
X280209Y103465D01*
X280149Y103381D01*
X280143Y103362D01*
X280132Y103346D01*
X280107Y103245D01*
X280077Y103146D01*
X280077Y103126D01*
X280072Y103107D01*
X280080Y103004D01*
X280083Y102900D01*
X280090Y102882D01*
X280091Y102862D01*
X280132Y102767D01*
X280167Y102669D01*
X280180Y102654D01*
X280188Y102636D01*
X280271Y102532D01*
X280271Y90474D01*
X279526Y89729D01*
X268820Y89729D01*
X268749Y89718D01*
X268677Y89716D01*
X268628Y89698D01*
X268577Y89690D01*
X268514Y89656D01*
X268446Y89631D01*
X268406Y89599D01*
X268360Y89574D01*
X268310Y89522D01*
X268254Y89478D01*
X268226Y89434D01*
X268190Y89396D01*
X268160Y89331D01*
X268121Y89271D01*
X268109Y89220D01*
X268087Y89173D01*
X268079Y89102D01*
X268061Y89032D01*
X268065Y88980D01*
X268060Y88929D01*
X268075Y88858D01*
X268080Y88787D01*
X268101Y88739D01*
X268112Y88688D01*
X268149Y88627D01*
X268177Y88561D01*
X268222Y88505D01*
X268238Y88477D01*
X268256Y88462D01*
X268282Y88430D01*
X270218Y86494D01*
X270292Y86441D01*
X270361Y86381D01*
X270391Y86369D01*
X270417Y86350D01*
X270505Y86323D01*
X270589Y86289D01*
X270630Y86285D01*
X270652Y86278D01*
X270685Y86279D01*
X270756Y86271D01*
X279526Y86271D01*
X280271Y85526D01*
X280271Y73474D01*
X279526Y72729D01*
X268474Y72729D01*
X267924Y73279D01*
X267908Y73290D01*
X267896Y73306D01*
X267808Y73362D01*
X267724Y73422D01*
X267705Y73428D01*
X267689Y73439D01*
X267588Y73464D01*
X267489Y73495D01*
X267469Y73494D01*
X267450Y73499D01*
X267347Y73491D01*
X267243Y73488D01*
X267225Y73481D01*
X267205Y73480D01*
X267110Y73440D01*
X267012Y73404D01*
X266997Y73391D01*
X266979Y73384D01*
X266848Y73279D01*
X257294Y63725D01*
X257241Y63651D01*
X257181Y63581D01*
X257169Y63551D01*
X257150Y63525D01*
X257123Y63438D01*
X257089Y63353D01*
X257085Y63312D01*
X257078Y63290D01*
X257079Y63258D01*
X257071Y63187D01*
X257071Y60126D01*
X255924Y58979D01*
X239676Y58979D01*
X238529Y60126D01*
X238529Y65874D01*
X239117Y66462D01*
X239129Y66478D01*
X239145Y66490D01*
X239201Y66578D01*
X239261Y66661D01*
X239267Y66680D01*
X239278Y66697D01*
X239303Y66798D01*
X239333Y66897D01*
X239333Y66916D01*
X239338Y66936D01*
X239330Y67039D01*
X239327Y67142D01*
X239320Y67161D01*
X239318Y67181D01*
X239278Y67276D01*
X239242Y67373D01*
X239230Y67389D01*
X239222Y67407D01*
X239117Y67538D01*
X238529Y68126D01*
X238529Y70238D01*
X238518Y70308D01*
X238516Y70380D01*
X238498Y70429D01*
X238490Y70480D01*
X238456Y70544D01*
X238431Y70611D01*
X238399Y70652D01*
X238374Y70698D01*
X238323Y70747D01*
X238278Y70803D01*
X238234Y70831D01*
X238196Y70867D01*
X238131Y70897D01*
X238071Y70936D01*
X238020Y70949D01*
X237973Y70971D01*
X237902Y70979D01*
X237832Y70996D01*
X237780Y70992D01*
X237729Y70998D01*
X237658Y70983D01*
X237587Y70977D01*
X237539Y70957D01*
X237488Y70946D01*
X237427Y70909D01*
X237361Y70881D01*
X237305Y70836D01*
X237277Y70820D01*
X237262Y70802D01*
X237230Y70776D01*
X235530Y69076D01*
X235477Y69002D01*
X235417Y68933D01*
X235405Y68902D01*
X235386Y68876D01*
X235359Y68789D01*
X235325Y68704D01*
X235321Y68663D01*
X235314Y68641D01*
X235315Y68609D01*
X235307Y68538D01*
X235307Y64776D01*
X232198Y61667D01*
X227802Y61667D01*
X224693Y64776D01*
X224693Y69172D01*
X227802Y72281D01*
X227979Y72281D01*
X228049Y72292D01*
X228121Y72294D01*
X228170Y72312D01*
X228221Y72320D01*
X228285Y72354D01*
X228352Y72379D01*
X228393Y72411D01*
X228439Y72436D01*
X228488Y72488D01*
X228544Y72532D01*
X228572Y72576D01*
X228608Y72614D01*
X228638Y72679D01*
X228677Y72739D01*
X228690Y72790D01*
X228712Y72837D01*
X228720Y72908D01*
X228737Y72978D01*
X228733Y73030D01*
X228739Y73081D01*
X228724Y73152D01*
X228718Y73223D01*
X228698Y73271D01*
X228687Y73322D01*
X228650Y73383D01*
X228622Y73449D01*
X228577Y73505D01*
X228560Y73533D01*
X228543Y73548D01*
X228517Y73580D01*
X225693Y76404D01*
X225693Y80800D01*
X228802Y83909D01*
X232780Y83909D01*
X232870Y83923D01*
X232961Y83931D01*
X232991Y83943D01*
X233023Y83948D01*
X233104Y83991D01*
X233187Y84027D01*
X233220Y84053D01*
X233240Y84064D01*
X233262Y84087D01*
X233318Y84132D01*
X236904Y87718D01*
X238306Y89120D01*
X238359Y89194D01*
X238419Y89263D01*
X238431Y89293D01*
X238450Y89319D01*
X238477Y89406D01*
X238511Y89491D01*
X238515Y89532D01*
X238522Y89554D01*
X238521Y89587D01*
X238529Y89658D01*
X238529Y89874D01*
X239117Y90462D01*
X239129Y90478D01*
X239145Y90490D01*
X239201Y90578D01*
X239261Y90661D01*
X239267Y90680D01*
X239278Y90697D01*
X239303Y90798D01*
X239333Y90897D01*
X239333Y90916D01*
X239338Y90936D01*
X239330Y91039D01*
X239327Y91142D01*
X239320Y91161D01*
X239318Y91181D01*
X239278Y91276D01*
X239242Y91373D01*
X239230Y91389D01*
X239222Y91407D01*
X239117Y91538D01*
X238498Y92157D01*
X238490Y92211D01*
X238480Y92228D01*
X238476Y92248D01*
X238423Y92337D01*
X238374Y92428D01*
X238360Y92442D01*
X238350Y92459D01*
X238271Y92526D01*
X238196Y92598D01*
X238178Y92606D01*
X238163Y92619D01*
X238067Y92658D01*
X237973Y92701D01*
X237953Y92703D01*
X237935Y92711D01*
X237768Y92729D01*
X237068Y92729D01*
X237048Y92726D01*
X237029Y92728D01*
X236927Y92706D01*
X236825Y92690D01*
X236808Y92680D01*
X236788Y92676D01*
X236699Y92623D01*
X236608Y92574D01*
X236594Y92560D01*
X236577Y92550D01*
X236510Y92471D01*
X236438Y92396D01*
X236430Y92378D01*
X236417Y92363D01*
X236378Y92267D01*
X236335Y92173D01*
X236333Y92153D01*
X236325Y92135D01*
X236307Y91968D01*
X236307Y89802D01*
X233198Y86693D01*
X228802Y86693D01*
X225693Y89802D01*
X225693Y94198D01*
X228802Y97307D01*
X233339Y97307D01*
X233383Y97289D01*
X233424Y97285D01*
X233446Y97278D01*
X233478Y97279D01*
X233549Y97271D01*
X237768Y97271D01*
X237788Y97274D01*
X237807Y97272D01*
X237909Y97294D01*
X238011Y97310D01*
X238028Y97320D01*
X238048Y97324D01*
X238137Y97377D01*
X238228Y97426D01*
X238242Y97440D01*
X238259Y97450D01*
X238326Y97529D01*
X238398Y97604D01*
X238406Y97622D01*
X238419Y97637D01*
X238458Y97733D01*
X238501Y97827D01*
X238503Y97847D01*
X238504Y97848D01*
X239117Y98462D01*
X239129Y98478D01*
X239145Y98490D01*
X239201Y98578D01*
X239261Y98661D01*
X239267Y98680D01*
X239278Y98697D01*
X239303Y98798D01*
X239333Y98897D01*
X239333Y98916D01*
X239338Y98936D01*
X239330Y99039D01*
X239327Y99142D01*
X239320Y99161D01*
X239318Y99181D01*
X239278Y99276D01*
X239242Y99373D01*
X239230Y99389D01*
X239222Y99407D01*
X239117Y99538D01*
X238529Y100126D01*
X238529Y101366D01*
X238526Y101386D01*
X238528Y101405D01*
X238506Y101507D01*
X238490Y101609D01*
X238480Y101626D01*
X238476Y101646D01*
X238423Y101735D01*
X238374Y101826D01*
X238360Y101840D01*
X238350Y101857D01*
X238271Y101924D01*
X238196Y101996D01*
X238178Y102004D01*
X238163Y102017D01*
X238067Y102056D01*
X237973Y102099D01*
X237953Y102101D01*
X237935Y102109D01*
X237768Y102127D01*
X236549Y102127D01*
X236459Y102113D01*
X236368Y102105D01*
X236339Y102093D01*
X236307Y102088D01*
X236226Y102045D01*
X236142Y102009D01*
X236110Y101983D01*
X236089Y101972D01*
X236067Y101949D01*
X236011Y101904D01*
X233198Y99091D01*
X228802Y99091D01*
X225693Y102200D01*
X225693Y106596D01*
X228802Y109705D01*
X233198Y109705D01*
X236011Y106892D01*
X236085Y106839D01*
X236155Y106779D01*
X236185Y106767D01*
X236211Y106748D01*
X236298Y106721D01*
X236383Y106687D01*
X236424Y106683D01*
X236446Y106676D01*
X236478Y106677D01*
X236549Y106669D01*
X238149Y106669D01*
X238220Y106680D01*
X238292Y106682D01*
X238341Y106700D01*
X238392Y106708D01*
X238455Y106742D01*
X238523Y106767D01*
X238563Y106799D01*
X238609Y106824D01*
X238659Y106875D01*
X238715Y106920D01*
X238743Y106964D01*
X238779Y107002D01*
X238809Y107067D01*
X238848Y107127D01*
X238860Y107178D01*
X238882Y107225D01*
X238890Y107296D01*
X238908Y107366D01*
X238904Y107418D01*
X238909Y107469D01*
X238894Y107540D01*
X238889Y107611D01*
X238868Y107659D01*
X238857Y107710D01*
X238820Y107771D01*
X238792Y107837D01*
X238747Y107893D01*
X238731Y107921D01*
X238713Y107936D01*
X238687Y107968D01*
X238529Y108126D01*
X238529Y113874D01*
X239117Y114462D01*
X239129Y114478D01*
X239145Y114490D01*
X239201Y114578D01*
X239261Y114661D01*
X239267Y114680D01*
X239278Y114697D01*
X239303Y114798D01*
X239333Y114897D01*
X239333Y114916D01*
X239338Y114936D01*
X239330Y115039D01*
X239327Y115142D01*
X239320Y115161D01*
X239318Y115181D01*
X239278Y115276D01*
X239242Y115373D01*
X239230Y115389D01*
X239222Y115407D01*
X239117Y115538D01*
X238529Y116126D01*
X238529Y121874D01*
X239117Y122462D01*
X239129Y122478D01*
X239145Y122490D01*
X239201Y122578D01*
X239261Y122661D01*
X239267Y122680D01*
X239278Y122697D01*
X239303Y122798D01*
X239333Y122897D01*
X239333Y122916D01*
X239338Y122936D01*
X239330Y123039D01*
X239327Y123142D01*
X239320Y123161D01*
X239318Y123181D01*
X239278Y123276D01*
X239242Y123373D01*
X239230Y123389D01*
X239222Y123407D01*
X239117Y123538D01*
X238529Y124126D01*
X238529Y129874D01*
X239676Y131021D01*
X243243Y131021D01*
X243339Y131036D01*
X243436Y131046D01*
X243460Y131056D01*
X243486Y131060D01*
X243572Y131106D01*
X243661Y131146D01*
X243680Y131163D01*
X243703Y131176D01*
X243770Y131246D01*
X243842Y131312D01*
X243855Y131335D01*
X243873Y131354D01*
X243914Y131442D01*
X243961Y131528D01*
X243965Y131553D01*
X243976Y131577D01*
X243987Y131674D01*
X244004Y131770D01*
X244000Y131796D01*
X244003Y131821D01*
X243983Y131917D01*
X243969Y132013D01*
X243957Y132036D01*
X243951Y132062D01*
X243901Y132145D01*
X243857Y132232D01*
X243838Y132251D01*
X243825Y132273D01*
X243751Y132336D01*
X243681Y132404D01*
X243653Y132420D01*
X243638Y132433D01*
X243607Y132445D01*
X243534Y132485D01*
X241777Y133213D01*
X240213Y134777D01*
X239367Y136819D01*
X239367Y139029D01*
X240213Y141072D01*
X241777Y142635D01*
X243819Y143481D01*
X246029Y143481D01*
X246436Y143312D01*
X246550Y143286D01*
X246664Y143257D01*
X246670Y143258D01*
X246676Y143256D01*
X246792Y143267D01*
X246909Y143276D01*
X246915Y143279D01*
X246921Y143279D01*
X247028Y143327D01*
X247135Y143373D01*
X247141Y143377D01*
X247146Y143379D01*
X247159Y143392D01*
X247266Y143477D01*
X247620Y143832D01*
X247647Y143869D01*
X247681Y143900D01*
X247695Y143925D01*
X247696Y143926D01*
X247699Y143933D01*
X247719Y143968D01*
X247764Y144032D01*
X247777Y144075D01*
X247800Y144116D01*
X247814Y144192D01*
X247836Y144267D01*
X247835Y144312D01*
X247843Y144358D01*
X247832Y144435D01*
X247830Y144512D01*
X247814Y144556D01*
X247808Y144601D01*
X247772Y144670D01*
X247746Y144743D01*
X247717Y144779D01*
X247696Y144820D01*
X247640Y144875D01*
X247592Y144936D01*
X247553Y144960D01*
X247520Y144992D01*
X247401Y145058D01*
X247385Y145069D01*
X247380Y145070D01*
X247374Y145073D01*
X246852Y145289D01*
X245289Y146852D01*
X244443Y148895D01*
X244443Y151105D01*
X245289Y153148D01*
X246852Y154711D01*
X248895Y155557D01*
X251105Y155557D01*
X253148Y154711D01*
X254711Y153148D01*
X254879Y152741D01*
X254941Y152642D01*
X255001Y152541D01*
X255006Y152537D01*
X255009Y152532D01*
X255098Y152458D01*
X255188Y152381D01*
X255194Y152379D01*
X255198Y152375D01*
X255306Y152333D01*
X255416Y152289D01*
X255423Y152288D01*
X255428Y152287D01*
X255446Y152286D01*
X255583Y152271D01*
X256444Y152271D01*
X256534Y152285D01*
X256625Y152293D01*
X256655Y152305D01*
X256687Y152310D01*
X256768Y152353D01*
X256851Y152389D01*
X256884Y152415D01*
X256904Y152426D01*
X256926Y152449D01*
X256982Y152494D01*
X263956Y159468D01*
X264009Y159542D01*
X264069Y159611D01*
X264081Y159641D01*
X264100Y159667D01*
X264127Y159754D01*
X264161Y159839D01*
X264165Y159880D01*
X264172Y159902D01*
X264171Y159935D01*
X264179Y160006D01*
X264179Y168776D01*
X264924Y169521D01*
X276976Y169521D01*
X277721Y168776D01*
X277721Y157770D01*
X277732Y157699D01*
X277734Y157627D01*
X277752Y157578D01*
X277760Y157527D01*
X277794Y157464D01*
X277819Y157396D01*
X277851Y157356D01*
X277876Y157310D01*
X277928Y157260D01*
X277972Y157204D01*
X278016Y157176D01*
X278054Y157140D01*
X278119Y157110D01*
X278179Y157071D01*
X278230Y157059D01*
X278277Y157037D01*
X278348Y157029D01*
X278418Y157011D01*
X278470Y157015D01*
X278521Y157010D01*
X278592Y157025D01*
X278663Y157030D01*
X278711Y157051D01*
X278762Y157062D01*
X278823Y157099D01*
X278889Y157127D01*
X278945Y157171D01*
X278973Y157188D01*
X278988Y157206D01*
X279020Y157232D01*
X312220Y190432D01*
X312273Y190506D01*
X312333Y190575D01*
X312345Y190605D01*
X312364Y190631D01*
X312391Y190718D01*
X312425Y190803D01*
X312429Y190844D01*
X312436Y190866D01*
X312435Y190899D01*
X312443Y190970D01*
X312443Y241887D01*
X313996Y243440D01*
X313996Y243441D01*
X327506Y256950D01*
X327559Y257024D01*
X327619Y257094D01*
X327631Y257124D01*
X327650Y257150D01*
X327677Y257237D01*
X327711Y257322D01*
X327715Y257363D01*
X327722Y257385D01*
X327721Y257417D01*
X327729Y257489D01*
X327729Y277968D01*
X327726Y277988D01*
X327728Y278007D01*
X327706Y278109D01*
X327690Y278211D01*
X327680Y278228D01*
X327676Y278248D01*
X327623Y278337D01*
X327574Y278428D01*
X327560Y278442D01*
X327550Y278459D01*
X327471Y278526D01*
X327396Y278598D01*
X327378Y278606D01*
X327363Y278619D01*
X327267Y278658D01*
X327173Y278701D01*
X327153Y278703D01*
X327135Y278711D01*
X326968Y278729D01*
X319474Y278729D01*
X318729Y279474D01*
X318729Y335526D01*
X319474Y336271D01*
X340526Y336271D01*
X341271Y335526D01*
X341271Y316532D01*
X341274Y316512D01*
X341272Y316493D01*
X341294Y316391D01*
X341310Y316289D01*
X341320Y316272D01*
X341324Y316252D01*
X341377Y316163D01*
X341426Y316072D01*
X341440Y316058D01*
X341450Y316041D01*
X341529Y315974D01*
X341604Y315902D01*
X341622Y315894D01*
X341637Y315881D01*
X341733Y315842D01*
X341827Y315799D01*
X341847Y315797D01*
X341865Y315789D01*
X342032Y315771D01*
X366968Y315771D01*
X366988Y315774D01*
X367007Y315772D01*
X367109Y315794D01*
X367211Y315810D01*
X367228Y315820D01*
X367248Y315824D01*
X367337Y315877D01*
X367428Y315926D01*
X367442Y315940D01*
X367459Y315950D01*
X367526Y316029D01*
X367598Y316104D01*
X367606Y316122D01*
X367619Y316137D01*
X367658Y316233D01*
X367701Y316327D01*
X367703Y316347D01*
X367711Y316365D01*
X367729Y316532D01*
X367729Y319526D01*
X368474Y320271D01*
X379526Y320271D01*
X380271Y319526D01*
X380271Y307474D01*
X379526Y306729D01*
X368474Y306729D01*
X367729Y307474D01*
X367729Y310468D01*
X367726Y310488D01*
X367728Y310507D01*
X367706Y310609D01*
X367690Y310711D01*
X367680Y310728D01*
X367676Y310748D01*
X367623Y310837D01*
X367574Y310928D01*
X367560Y310942D01*
X367550Y310959D01*
X367471Y311026D01*
X367396Y311098D01*
X367378Y311106D01*
X367363Y311119D01*
X367267Y311158D01*
X367173Y311201D01*
X367153Y311203D01*
X367135Y311211D01*
X366968Y311229D01*
X342032Y311229D01*
X342012Y311226D01*
X341993Y311228D01*
X341891Y311206D01*
X341789Y311190D01*
X341772Y311180D01*
X341752Y311176D01*
X341663Y311123D01*
X341572Y311074D01*
X341558Y311060D01*
X341541Y311050D01*
X341474Y310971D01*
X341402Y310896D01*
X341394Y310878D01*
X341381Y310863D01*
X341342Y310767D01*
X341299Y310673D01*
X341297Y310653D01*
X341289Y310635D01*
X341271Y310468D01*
X341271Y279474D01*
X340526Y278729D01*
X333032Y278729D01*
X333012Y278726D01*
X332993Y278728D01*
X332891Y278706D01*
X332789Y278690D01*
X332772Y278680D01*
X332752Y278676D01*
X332663Y278623D01*
X332572Y278574D01*
X332558Y278560D01*
X332541Y278550D01*
X332474Y278471D01*
X332402Y278396D01*
X332394Y278378D01*
X332381Y278363D01*
X332342Y278267D01*
X332299Y278173D01*
X332297Y278153D01*
X332289Y278135D01*
X332271Y277968D01*
X332271Y255292D01*
X319549Y242570D01*
X319507Y242512D01*
X319457Y242460D01*
X319435Y242413D01*
X319405Y242371D01*
X319384Y242302D01*
X319354Y242237D01*
X319348Y242185D01*
X319333Y242135D01*
X319335Y242064D01*
X319327Y241993D01*
X319338Y241942D01*
X319339Y241890D01*
X319364Y241822D01*
X319379Y241752D01*
X319406Y241707D01*
X319424Y241659D01*
X319468Y241603D01*
X319505Y241541D01*
X319545Y241507D01*
X319577Y241467D01*
X319638Y241428D01*
X319692Y241381D01*
X319740Y241362D01*
X319784Y241334D01*
X319854Y241316D01*
X319920Y241289D01*
X319992Y241281D01*
X320023Y241273D01*
X320046Y241275D01*
X320087Y241271D01*
X340526Y241271D01*
X341271Y240526D01*
X341271Y207532D01*
X341274Y207515D01*
X341272Y207499D01*
X341272Y207497D01*
X341272Y207493D01*
X341294Y207391D01*
X341310Y207289D01*
X341320Y207272D01*
X341324Y207252D01*
X341377Y207163D01*
X341426Y207072D01*
X341440Y207058D01*
X341450Y207041D01*
X341529Y206974D01*
X341604Y206902D01*
X341622Y206894D01*
X341637Y206881D01*
X341733Y206842D01*
X341827Y206799D01*
X341847Y206797D01*
X341865Y206789D01*
X342032Y206771D01*
X366968Y206771D01*
X366988Y206774D01*
X367007Y206772D01*
X367109Y206794D01*
X367211Y206810D01*
X367228Y206820D01*
X367248Y206824D01*
X367337Y206877D01*
X367428Y206926D01*
X367442Y206940D01*
X367459Y206950D01*
X367526Y207029D01*
X367598Y207104D01*
X367606Y207122D01*
X367619Y207137D01*
X367658Y207233D01*
X367701Y207327D01*
X367703Y207347D01*
X367711Y207365D01*
X367729Y207532D01*
X367729Y210526D01*
X368474Y211271D01*
X378238Y211271D01*
X378258Y211274D01*
X378277Y211272D01*
X378379Y211294D01*
X378481Y211310D01*
X378498Y211320D01*
X378518Y211324D01*
X378607Y211377D01*
X378698Y211426D01*
X378712Y211440D01*
X378729Y211450D01*
X378796Y211529D01*
X378868Y211604D01*
X378876Y211622D01*
X378889Y211637D01*
X378928Y211733D01*
X378971Y211827D01*
X378973Y211847D01*
X378981Y211865D01*
X378999Y212032D01*
X378999Y213968D01*
X378996Y213988D01*
X378998Y214007D01*
X378976Y214109D01*
X378960Y214211D01*
X378950Y214228D01*
X378946Y214248D01*
X378893Y214337D01*
X378844Y214428D01*
X378830Y214442D01*
X378820Y214459D01*
X378741Y214526D01*
X378666Y214598D01*
X378648Y214606D01*
X378633Y214619D01*
X378537Y214658D01*
X378443Y214701D01*
X378423Y214703D01*
X378405Y214711D01*
X378238Y214729D01*
X368474Y214729D01*
X367729Y215474D01*
X367729Y223387D01*
X367718Y223457D01*
X367716Y223529D01*
X367698Y223578D01*
X367690Y223629D01*
X367656Y223693D01*
X367631Y223760D01*
X367599Y223801D01*
X367574Y223847D01*
X367522Y223896D01*
X367478Y223952D01*
X367434Y223980D01*
X367396Y224016D01*
X367331Y224046D01*
X367271Y224085D01*
X367220Y224098D01*
X367173Y224120D01*
X367102Y224128D01*
X367032Y224145D01*
X366980Y224141D01*
X366929Y224147D01*
X366858Y224132D01*
X366787Y224126D01*
X366739Y224106D01*
X366688Y224095D01*
X366627Y224058D01*
X366561Y224030D01*
X366505Y223985D01*
X366477Y223968D01*
X366462Y223951D01*
X366430Y223925D01*
X364198Y221693D01*
X359802Y221693D01*
X356693Y224802D01*
X356693Y229198D01*
X359802Y232307D01*
X364198Y232307D01*
X367011Y229494D01*
X367085Y229441D01*
X367155Y229381D01*
X367185Y229369D01*
X367211Y229350D01*
X367298Y229323D01*
X367383Y229289D01*
X367424Y229285D01*
X367446Y229278D01*
X367478Y229279D01*
X367549Y229271D01*
X369441Y229271D01*
X370218Y228494D01*
X370292Y228441D01*
X370361Y228381D01*
X370391Y228369D01*
X370417Y228350D01*
X370504Y228323D01*
X370589Y228289D01*
X370630Y228285D01*
X370652Y228278D01*
X370685Y228279D01*
X370756Y228271D01*
X378238Y228271D01*
X378258Y228274D01*
X378277Y228272D01*
X378379Y228294D01*
X378481Y228310D01*
X378498Y228320D01*
X378518Y228324D01*
X378607Y228377D01*
X378698Y228426D01*
X378712Y228440D01*
X378729Y228450D01*
X378796Y228529D01*
X378868Y228604D01*
X378876Y228622D01*
X378889Y228637D01*
X378928Y228733D01*
X378971Y228827D01*
X378973Y228847D01*
X378981Y228865D01*
X378999Y229032D01*
X378999Y234351D01*
X378988Y234421D01*
X378986Y234493D01*
X378968Y234542D01*
X378960Y234593D01*
X378926Y234657D01*
X378901Y234724D01*
X378869Y234765D01*
X378844Y234811D01*
X378792Y234860D01*
X378748Y234916D01*
X378704Y234944D01*
X378666Y234980D01*
X378601Y235010D01*
X378541Y235049D01*
X378490Y235062D01*
X378443Y235084D01*
X378372Y235092D01*
X378302Y235109D01*
X378250Y235105D01*
X378199Y235111D01*
X378128Y235096D01*
X378057Y235090D01*
X378009Y235070D01*
X377958Y235059D01*
X377897Y235022D01*
X377831Y234994D01*
X377775Y234949D01*
X377747Y234932D01*
X377732Y234915D01*
X377700Y234889D01*
X376198Y233387D01*
X371802Y233387D01*
X368693Y236496D01*
X368693Y240892D01*
X371231Y243430D01*
X371273Y243488D01*
X371322Y243540D01*
X371344Y243587D01*
X371374Y243629D01*
X371396Y243698D01*
X371426Y243763D01*
X371431Y243815D01*
X371447Y243865D01*
X371445Y243936D01*
X371453Y244007D01*
X371442Y244058D01*
X371440Y244110D01*
X371416Y244178D01*
X371401Y244248D01*
X371374Y244293D01*
X371356Y244341D01*
X371311Y244397D01*
X371274Y244459D01*
X371235Y244493D01*
X371202Y244533D01*
X371142Y244572D01*
X371087Y244619D01*
X371039Y244638D01*
X370995Y244666D01*
X370926Y244684D01*
X370859Y244711D01*
X370788Y244719D01*
X370757Y244727D01*
X370734Y244725D01*
X370693Y244729D01*
X368474Y244729D01*
X367729Y245474D01*
X367729Y257526D01*
X368474Y258271D01*
X379526Y258271D01*
X380271Y257526D01*
X380271Y247320D01*
X380282Y247249D01*
X380284Y247177D01*
X380302Y247128D01*
X380310Y247077D01*
X380344Y247014D01*
X380369Y246946D01*
X380401Y246906D01*
X380426Y246860D01*
X380477Y246810D01*
X380522Y246754D01*
X380566Y246726D01*
X380604Y246690D01*
X380669Y246660D01*
X380729Y246621D01*
X380780Y246609D01*
X380827Y246587D01*
X380898Y246579D01*
X380968Y246561D01*
X381020Y246565D01*
X381071Y246560D01*
X381142Y246575D01*
X381213Y246580D01*
X381261Y246601D01*
X381312Y246612D01*
X381373Y246649D01*
X381439Y246677D01*
X381495Y246721D01*
X381523Y246738D01*
X381538Y246756D01*
X381570Y246782D01*
X393587Y258798D01*
X393614Y258836D01*
X393648Y258867D01*
X393685Y258935D01*
X393731Y258998D01*
X393744Y259042D01*
X393766Y259082D01*
X393780Y259159D01*
X393803Y259233D01*
X393802Y259279D01*
X393810Y259324D01*
X393799Y259401D01*
X393797Y259479D01*
X393781Y259522D01*
X393774Y259568D01*
X393739Y259637D01*
X393712Y259710D01*
X393684Y259746D01*
X393663Y259787D01*
X393607Y259841D01*
X393559Y259902D01*
X393520Y259927D01*
X393487Y259959D01*
X393367Y260025D01*
X393352Y260035D01*
X393347Y260036D01*
X393340Y260040D01*
X393044Y260163D01*
X390543Y262664D01*
X389189Y265932D01*
X389189Y269468D01*
X390543Y272736D01*
X393044Y275237D01*
X396312Y276591D01*
X415088Y276591D01*
X418356Y275237D01*
X420857Y272736D01*
X422211Y269468D01*
X422211Y265932D01*
X420857Y262664D01*
X418356Y260163D01*
X415088Y258809D01*
X400336Y258809D01*
X400246Y258795D01*
X400155Y258787D01*
X400125Y258775D01*
X400093Y258770D01*
X400012Y258727D01*
X399929Y258691D01*
X399896Y258665D01*
X399876Y258654D01*
X399854Y258631D01*
X399798Y258586D01*
X392344Y251132D01*
X392287Y251053D01*
X392225Y250978D01*
X392215Y250954D01*
X392200Y250933D01*
X392172Y250840D01*
X392137Y250749D01*
X392136Y250723D01*
X392128Y250698D01*
X392130Y250600D01*
X392126Y250503D01*
X392133Y250478D01*
X392134Y250452D01*
X392168Y250360D01*
X392195Y250267D01*
X392210Y250245D01*
X392219Y250221D01*
X392280Y250144D01*
X392335Y250065D01*
X392356Y250049D01*
X392372Y250029D01*
X392454Y249976D01*
X392532Y249918D01*
X392557Y249910D01*
X392579Y249896D01*
X392674Y249872D01*
X392766Y249842D01*
X392792Y249842D01*
X392818Y249836D01*
X392915Y249843D01*
X393012Y249844D01*
X393044Y249853D01*
X393063Y249855D01*
X393093Y249868D01*
X393173Y249891D01*
X396312Y251191D01*
X415088Y251191D01*
X418356Y249837D01*
X420857Y247336D01*
X422211Y244068D01*
X422211Y240532D01*
X420857Y237264D01*
X418356Y234763D01*
X415088Y233409D01*
X396312Y233409D01*
X393044Y234763D01*
X390543Y237264D01*
X389189Y240532D01*
X389189Y244068D01*
X390489Y247207D01*
X390511Y247302D01*
X390540Y247395D01*
X390539Y247421D01*
X390545Y247446D01*
X390536Y247543D01*
X390534Y247640D01*
X390525Y247665D01*
X390522Y247691D01*
X390483Y247780D01*
X390449Y247871D01*
X390433Y247892D01*
X390422Y247916D01*
X390356Y247987D01*
X390296Y248063D01*
X390274Y248078D01*
X390256Y248097D01*
X390170Y248144D01*
X390089Y248196D01*
X390063Y248203D01*
X390040Y248215D01*
X389944Y248233D01*
X389850Y248257D01*
X389824Y248255D01*
X389798Y248259D01*
X389702Y248245D01*
X389605Y248237D01*
X389581Y248227D01*
X389555Y248223D01*
X389468Y248179D01*
X389379Y248141D01*
X389353Y248121D01*
X389336Y248112D01*
X389312Y248088D01*
X389248Y248036D01*
X383764Y242552D01*
X383711Y242478D01*
X383651Y242409D01*
X383639Y242379D01*
X383620Y242353D01*
X383593Y242266D01*
X383559Y242181D01*
X383555Y242140D01*
X383548Y242118D01*
X383549Y242085D01*
X383541Y242014D01*
X383541Y197119D01*
X366881Y180459D01*
X326904Y180459D01*
X326814Y180445D01*
X326723Y180437D01*
X326693Y180425D01*
X326661Y180420D01*
X326581Y180377D01*
X326497Y180341D01*
X326465Y180315D01*
X326444Y180304D01*
X326422Y180281D01*
X326366Y180236D01*
X287700Y141570D01*
X287658Y141512D01*
X287608Y141460D01*
X287586Y141413D01*
X287556Y141371D01*
X287535Y141302D01*
X287505Y141237D01*
X287499Y141185D01*
X287484Y141135D01*
X287486Y141064D01*
X287478Y140993D01*
X287489Y140942D01*
X287490Y140890D01*
X287515Y140822D01*
X287530Y140752D01*
X287557Y140707D01*
X287575Y140659D01*
X287619Y140603D01*
X287656Y140541D01*
X287696Y140507D01*
X287728Y140467D01*
X287789Y140428D01*
X287843Y140381D01*
X287891Y140362D01*
X287935Y140334D01*
X288005Y140316D01*
X288071Y140289D01*
X288143Y140281D01*
X288174Y140273D01*
X288197Y140275D01*
X288238Y140271D01*
X292526Y140271D01*
X293271Y139526D01*
X293271Y137032D01*
X293274Y137012D01*
X293272Y136993D01*
X293294Y136891D01*
X293310Y136789D01*
X293320Y136772D01*
X293324Y136752D01*
X293377Y136663D01*
X293426Y136572D01*
X293440Y136558D01*
X293450Y136541D01*
X293529Y136474D01*
X293604Y136402D01*
X293622Y136394D01*
X293637Y136381D01*
X293733Y136342D01*
X293827Y136299D01*
X293847Y136297D01*
X293865Y136289D01*
X294032Y136271D01*
X296823Y136271D01*
X296913Y136285D01*
X297004Y136293D01*
X297033Y136305D01*
X297065Y136310D01*
X297146Y136353D01*
X297230Y136389D01*
X297262Y136415D01*
X297283Y136426D01*
X297305Y136449D01*
X297361Y136494D01*
X297802Y136935D01*
X302198Y136935D01*
X305307Y133826D01*
X305307Y129430D01*
X302229Y126352D01*
X302218Y126336D01*
X302202Y126324D01*
X302146Y126236D01*
X302086Y126153D01*
X302080Y126134D01*
X302069Y126117D01*
X302044Y126016D01*
X302013Y125917D01*
X302014Y125898D01*
X302009Y125878D01*
X302017Y125775D01*
X302020Y125672D01*
X302026Y125653D01*
X302028Y125633D01*
X302068Y125538D01*
X302104Y125441D01*
X302117Y125425D01*
X302124Y125407D01*
X302229Y125276D01*
X305011Y122494D01*
X305085Y122441D01*
X305155Y122381D01*
X305185Y122369D01*
X305211Y122350D01*
X305298Y122323D01*
X305383Y122289D01*
X305424Y122285D01*
X305446Y122278D01*
X305478Y122279D01*
X305549Y122271D01*
X314968Y122271D01*
X314988Y122274D01*
X315007Y122272D01*
X315109Y122294D01*
X315211Y122310D01*
X315228Y122320D01*
X315248Y122324D01*
X315337Y122377D01*
X315428Y122426D01*
X315442Y122440D01*
X315459Y122450D01*
X315526Y122529D01*
X315598Y122604D01*
X315606Y122622D01*
X315619Y122637D01*
X315658Y122733D01*
X315701Y122827D01*
X315703Y122847D01*
X315711Y122865D01*
X315729Y123032D01*
X315729Y123526D01*
X316474Y124271D01*
X327526Y124271D01*
X328271Y123526D01*
X328271Y121820D01*
X328282Y121749D01*
X328284Y121677D01*
X328302Y121628D01*
X328310Y121577D01*
X328344Y121514D01*
X328369Y121446D01*
X328401Y121406D01*
X328426Y121360D01*
X328478Y121310D01*
X328522Y121254D01*
X328566Y121226D01*
X328604Y121190D01*
X328669Y121160D01*
X328729Y121121D01*
X328780Y121109D01*
X328827Y121087D01*
X328898Y121079D01*
X328968Y121061D01*
X329020Y121065D01*
X329071Y121060D01*
X329142Y121075D01*
X329213Y121080D01*
X329261Y121101D01*
X329312Y121112D01*
X329373Y121149D01*
X329439Y121177D01*
X329495Y121221D01*
X329523Y121238D01*
X329538Y121256D01*
X329570Y121282D01*
X339506Y131218D01*
X339559Y131292D01*
X339619Y131361D01*
X339631Y131391D01*
X339650Y131417D01*
X339677Y131504D01*
X339711Y131589D01*
X339715Y131630D01*
X339722Y131652D01*
X339721Y131685D01*
X339729Y131756D01*
X339729Y136890D01*
X339718Y136961D01*
X339716Y137033D01*
X339698Y137082D01*
X339690Y137133D01*
X339656Y137197D01*
X339631Y137264D01*
X339599Y137305D01*
X339574Y137351D01*
X339522Y137400D01*
X339478Y137456D01*
X339434Y137484D01*
X339396Y137520D01*
X339331Y137550D01*
X339271Y137589D01*
X339220Y137602D01*
X339173Y137624D01*
X339102Y137631D01*
X339032Y137649D01*
X338980Y137645D01*
X338929Y137651D01*
X338858Y137635D01*
X338787Y137630D01*
X338739Y137609D01*
X338688Y137598D01*
X338627Y137562D01*
X338561Y137534D01*
X338505Y137489D01*
X338477Y137472D01*
X338462Y137454D01*
X338430Y137429D01*
X333230Y132229D01*
X329032Y132229D01*
X329012Y132226D01*
X328993Y132228D01*
X328891Y132206D01*
X328789Y132190D01*
X328772Y132180D01*
X328752Y132176D01*
X328663Y132123D01*
X328572Y132074D01*
X328558Y132060D01*
X328541Y132050D01*
X328474Y131971D01*
X328402Y131896D01*
X328394Y131878D01*
X328381Y131863D01*
X328342Y131767D01*
X328299Y131673D01*
X328297Y131653D01*
X328289Y131635D01*
X328271Y131468D01*
X328271Y128474D01*
X327526Y127729D01*
X316474Y127729D01*
X315729Y128474D01*
X315729Y140526D01*
X316474Y141271D01*
X327526Y141271D01*
X328271Y140526D01*
X328271Y137532D01*
X328274Y137512D01*
X328272Y137493D01*
X328294Y137391D01*
X328310Y137289D01*
X328320Y137272D01*
X328324Y137252D01*
X328377Y137163D01*
X328426Y137072D01*
X328440Y137058D01*
X328450Y137041D01*
X328529Y136974D01*
X328604Y136902D01*
X328622Y136894D01*
X328637Y136881D01*
X328733Y136842D01*
X328827Y136799D01*
X328847Y136797D01*
X328865Y136789D01*
X329032Y136771D01*
X331034Y136771D01*
X331124Y136785D01*
X331215Y136793D01*
X331245Y136805D01*
X331277Y136810D01*
X331357Y136853D01*
X331441Y136889D01*
X331473Y136915D01*
X331494Y136926D01*
X331516Y136949D01*
X331572Y136994D01*
X339119Y144541D01*
X339414Y144541D01*
X339504Y144555D01*
X339595Y144563D01*
X339625Y144575D01*
X339657Y144580D01*
X339738Y144623D01*
X339821Y144659D01*
X339854Y144685D01*
X339874Y144696D01*
X339896Y144719D01*
X339952Y144764D01*
X350934Y155746D01*
X351002Y155840D01*
X351072Y155934D01*
X351074Y155940D01*
X351078Y155945D01*
X351112Y156056D01*
X351148Y156168D01*
X351148Y156174D01*
X351150Y156180D01*
X351147Y156297D01*
X351146Y156414D01*
X351144Y156421D01*
X351144Y156426D01*
X351137Y156444D01*
X351099Y156575D01*
X349731Y159878D01*
X349731Y164122D01*
X351355Y168043D01*
X354357Y171045D01*
X358278Y172669D01*
X362522Y172669D01*
X366443Y171045D01*
X369445Y168043D01*
X371069Y164122D01*
X371069Y159878D01*
X369445Y155957D01*
X366443Y152955D01*
X363141Y151587D01*
X363041Y151526D01*
X362941Y151466D01*
X362937Y151461D01*
X362932Y151458D01*
X362857Y151367D01*
X362781Y151279D01*
X362779Y151273D01*
X362775Y151268D01*
X362733Y151160D01*
X362689Y151051D01*
X362688Y151043D01*
X362687Y151039D01*
X362686Y151020D01*
X362671Y150884D01*
X362671Y145356D01*
X362685Y145266D01*
X362693Y145175D01*
X362705Y145145D01*
X362710Y145113D01*
X362753Y145033D01*
X362789Y144949D01*
X362815Y144916D01*
X362826Y144896D01*
X362849Y144874D01*
X362894Y144818D01*
X366218Y141494D01*
X366292Y141441D01*
X366361Y141381D01*
X366391Y141369D01*
X366417Y141350D01*
X366504Y141323D01*
X366589Y141289D01*
X366630Y141285D01*
X366652Y141278D01*
X366685Y141279D01*
X366756Y141271D01*
X375526Y141271D01*
X376271Y140526D01*
X376271Y128474D01*
X375526Y127729D01*
X364474Y127729D01*
X363729Y128474D01*
X363729Y137244D01*
X363715Y137334D01*
X363707Y137425D01*
X363695Y137455D01*
X363690Y137487D01*
X363647Y137568D01*
X363611Y137651D01*
X363585Y137684D01*
X363574Y137704D01*
X363551Y137726D01*
X363506Y137782D01*
X358129Y143159D01*
X358129Y150884D01*
X358110Y150999D01*
X358093Y151115D01*
X358091Y151121D01*
X358090Y151127D01*
X358035Y151230D01*
X357982Y151334D01*
X357977Y151339D01*
X357974Y151344D01*
X357891Y151423D01*
X357806Y151507D01*
X357800Y151510D01*
X357796Y151514D01*
X357779Y151521D01*
X357659Y151587D01*
X354975Y152699D01*
X354862Y152726D01*
X354748Y152755D01*
X354742Y152754D01*
X354736Y152755D01*
X354619Y152744D01*
X354503Y152735D01*
X354497Y152733D01*
X354491Y152732D01*
X354383Y152685D01*
X354277Y152639D01*
X354271Y152634D01*
X354266Y152632D01*
X354252Y152620D01*
X354146Y152534D01*
X344182Y142570D01*
X344140Y142512D01*
X344090Y142460D01*
X344068Y142413D01*
X344038Y142371D01*
X344017Y142302D01*
X343987Y142237D01*
X343981Y142185D01*
X343966Y142135D01*
X343968Y142064D01*
X343960Y141993D01*
X343971Y141942D01*
X343972Y141890D01*
X343997Y141822D01*
X344012Y141752D01*
X344039Y141708D01*
X344056Y141659D01*
X344101Y141603D01*
X344138Y141541D01*
X344178Y141507D01*
X344210Y141467D01*
X344270Y141428D01*
X344325Y141381D01*
X344373Y141362D01*
X344417Y141334D01*
X344487Y141316D01*
X344553Y141289D01*
X344624Y141281D01*
X344656Y141273D01*
X344679Y141275D01*
X344720Y141271D01*
X351526Y141271D01*
X352271Y140526D01*
X352271Y128474D01*
X351526Y127729D01*
X342756Y127729D01*
X342666Y127715D01*
X342575Y127707D01*
X342545Y127695D01*
X342513Y127690D01*
X342433Y127647D01*
X342349Y127611D01*
X342316Y127585D01*
X342296Y127574D01*
X342274Y127551D01*
X342218Y127506D01*
X340282Y125570D01*
X340240Y125512D01*
X340190Y125460D01*
X340168Y125413D01*
X340138Y125371D01*
X340117Y125302D01*
X340087Y125237D01*
X340081Y125185D01*
X340066Y125135D01*
X340068Y125064D01*
X340060Y124993D01*
X340071Y124942D01*
X340072Y124890D01*
X340097Y124822D01*
X340112Y124752D01*
X340139Y124707D01*
X340156Y124659D01*
X340201Y124603D01*
X340238Y124541D01*
X340278Y124507D01*
X340310Y124467D01*
X340370Y124428D01*
X340425Y124381D01*
X340473Y124362D01*
X340517Y124334D01*
X340587Y124316D01*
X340653Y124289D01*
X340724Y124281D01*
X340756Y124273D01*
X340779Y124275D01*
X340820Y124271D01*
X351526Y124271D01*
X352271Y123526D01*
X352271Y120532D01*
X352274Y120512D01*
X352272Y120493D01*
X352294Y120391D01*
X352310Y120289D01*
X352320Y120272D01*
X352324Y120252D01*
X352377Y120163D01*
X352426Y120072D01*
X352440Y120058D01*
X352450Y120041D01*
X352529Y119974D01*
X352604Y119902D01*
X352622Y119894D01*
X352637Y119881D01*
X352733Y119842D01*
X352827Y119799D01*
X352847Y119797D01*
X352865Y119789D01*
X353032Y119771D01*
X354441Y119771D01*
X355682Y118530D01*
X355756Y118477D01*
X355825Y118417D01*
X355855Y118405D01*
X355881Y118386D01*
X355968Y118359D01*
X356053Y118325D01*
X356094Y118321D01*
X356116Y118314D01*
X356149Y118315D01*
X356220Y118307D01*
X360198Y118307D01*
X362430Y116075D01*
X362488Y116033D01*
X362540Y115984D01*
X362587Y115962D01*
X362629Y115932D01*
X362698Y115910D01*
X362763Y115880D01*
X362815Y115875D01*
X362865Y115859D01*
X362936Y115861D01*
X363007Y115853D01*
X363058Y115864D01*
X363110Y115866D01*
X363178Y115890D01*
X363248Y115905D01*
X363293Y115932D01*
X363341Y115950D01*
X363397Y115995D01*
X363459Y116032D01*
X363493Y116071D01*
X363533Y116104D01*
X363572Y116164D01*
X363619Y116219D01*
X363638Y116267D01*
X363666Y116311D01*
X363684Y116380D01*
X363711Y116447D01*
X363719Y116518D01*
X363727Y116549D01*
X363725Y116572D01*
X363729Y116613D01*
X363729Y123526D01*
X364474Y124271D01*
X375526Y124271D01*
X376271Y123526D01*
X376271Y115110D01*
X376282Y115039D01*
X376284Y114967D01*
X376302Y114918D01*
X376310Y114867D01*
X376344Y114803D01*
X376369Y114736D01*
X376401Y114695D01*
X376426Y114649D01*
X376478Y114600D01*
X376522Y114544D01*
X376566Y114516D01*
X376604Y114480D01*
X376669Y114450D01*
X376729Y114411D01*
X376780Y114398D01*
X376827Y114376D01*
X376898Y114369D01*
X376968Y114351D01*
X377020Y114355D01*
X377071Y114349D01*
X377142Y114365D01*
X377213Y114370D01*
X377261Y114391D01*
X377312Y114402D01*
X377373Y114438D01*
X377439Y114466D01*
X377495Y114511D01*
X377523Y114528D01*
X377538Y114546D01*
X377570Y114571D01*
X382770Y119771D01*
X387968Y119771D01*
X387988Y119774D01*
X388007Y119772D01*
X388109Y119794D01*
X388211Y119810D01*
X388228Y119820D01*
X388248Y119824D01*
X388337Y119877D01*
X388428Y119926D01*
X388442Y119940D01*
X388459Y119950D01*
X388526Y120029D01*
X388598Y120104D01*
X388606Y120122D01*
X388619Y120137D01*
X388658Y120233D01*
X388701Y120327D01*
X388703Y120347D01*
X388711Y120365D01*
X388729Y120532D01*
X388729Y123526D01*
X389474Y124271D01*
X400526Y124271D01*
X401271Y123526D01*
X401271Y111474D01*
X400526Y110729D01*
X389474Y110729D01*
X388729Y111474D01*
X388729Y114468D01*
X388726Y114488D01*
X388728Y114507D01*
X388706Y114609D01*
X388690Y114711D01*
X388680Y114728D01*
X388676Y114748D01*
X388623Y114837D01*
X388574Y114928D01*
X388560Y114942D01*
X388550Y114959D01*
X388471Y115026D01*
X388396Y115098D01*
X388378Y115106D01*
X388363Y115119D01*
X388267Y115158D01*
X388173Y115201D01*
X388153Y115203D01*
X388135Y115211D01*
X387968Y115229D01*
X384966Y115229D01*
X384876Y115215D01*
X384785Y115207D01*
X384755Y115195D01*
X384723Y115190D01*
X384643Y115147D01*
X384559Y115111D01*
X384527Y115085D01*
X384506Y115074D01*
X384484Y115051D01*
X384428Y115006D01*
X376881Y107459D01*
X372486Y107459D01*
X372396Y107445D01*
X372305Y107437D01*
X372275Y107425D01*
X372243Y107420D01*
X372162Y107377D01*
X372079Y107341D01*
X372046Y107315D01*
X372026Y107304D01*
X372004Y107281D01*
X371948Y107236D01*
X367494Y102782D01*
X367441Y102708D01*
X367381Y102639D01*
X367369Y102609D01*
X367350Y102583D01*
X367323Y102496D01*
X367289Y102411D01*
X367285Y102370D01*
X367278Y102348D01*
X367279Y102315D01*
X367271Y102244D01*
X367271Y93474D01*
X366526Y92729D01*
X357756Y92729D01*
X357666Y92715D01*
X357575Y92707D01*
X357545Y92695D01*
X357513Y92690D01*
X357433Y92647D01*
X357349Y92611D01*
X357316Y92585D01*
X357296Y92574D01*
X357274Y92551D01*
X357218Y92506D01*
X355282Y90570D01*
X355240Y90512D01*
X355190Y90460D01*
X355168Y90413D01*
X355138Y90371D01*
X355117Y90302D01*
X355087Y90237D01*
X355081Y90185D01*
X355066Y90135D01*
X355068Y90064D01*
X355060Y89993D01*
X355071Y89942D01*
X355072Y89890D01*
X355097Y89822D01*
X355112Y89752D01*
X355139Y89707D01*
X355156Y89659D01*
X355201Y89603D01*
X355238Y89541D01*
X355278Y89507D01*
X355310Y89467D01*
X355370Y89428D01*
X355425Y89381D01*
X355473Y89362D01*
X355517Y89334D01*
X355587Y89316D01*
X355653Y89289D01*
X355724Y89281D01*
X355756Y89273D01*
X355779Y89275D01*
X355820Y89271D01*
X366526Y89271D01*
X367271Y88526D01*
X367271Y85532D01*
X367274Y85512D01*
X367272Y85493D01*
X367294Y85391D01*
X367310Y85289D01*
X367320Y85272D01*
X367324Y85252D01*
X367377Y85163D01*
X367426Y85072D01*
X367440Y85058D01*
X367450Y85041D01*
X367529Y84974D01*
X367604Y84902D01*
X367622Y84894D01*
X367637Y84881D01*
X367733Y84842D01*
X367827Y84799D01*
X367847Y84797D01*
X367865Y84789D01*
X368032Y84771D01*
X376440Y84771D01*
X379885Y81326D01*
X379958Y81273D01*
X380028Y81213D01*
X380058Y81201D01*
X380084Y81182D01*
X380171Y81155D01*
X380256Y81121D01*
X380297Y81117D01*
X380319Y81110D01*
X380352Y81111D01*
X380423Y81103D01*
X396476Y81103D01*
X396566Y81117D01*
X396657Y81125D01*
X396687Y81137D01*
X396719Y81142D01*
X396799Y81185D01*
X396883Y81221D01*
X396916Y81247D01*
X396936Y81258D01*
X396958Y81281D01*
X397014Y81326D01*
X399934Y84246D01*
X400002Y84340D01*
X400072Y84434D01*
X400074Y84440D01*
X400078Y84445D01*
X400112Y84556D01*
X400148Y84668D01*
X400148Y84674D01*
X400150Y84680D01*
X400147Y84797D01*
X400146Y84914D01*
X400144Y84921D01*
X400144Y84926D01*
X400137Y84944D01*
X400099Y85075D01*
X398731Y88378D01*
X398731Y92622D01*
X400355Y96543D01*
X403357Y99545D01*
X406659Y100913D01*
X406759Y100974D01*
X406859Y101034D01*
X406863Y101039D01*
X406868Y101042D01*
X406943Y101133D01*
X407019Y101221D01*
X407021Y101227D01*
X407025Y101232D01*
X407067Y101340D01*
X407111Y101449D01*
X407112Y101457D01*
X407113Y101461D01*
X407114Y101480D01*
X407129Y101616D01*
X407129Y110841D01*
X410506Y114218D01*
X410559Y114292D01*
X410619Y114361D01*
X410631Y114391D01*
X410650Y114417D01*
X410677Y114504D01*
X410711Y114589D01*
X410715Y114630D01*
X410722Y114652D01*
X410721Y114685D01*
X410729Y114756D01*
X410729Y123526D01*
X411474Y124271D01*
X422537Y124271D01*
X422558Y124255D01*
X422610Y124206D01*
X422657Y124184D01*
X422699Y124154D01*
X422768Y124133D01*
X422833Y124102D01*
X422885Y124097D01*
X422934Y124081D01*
X423006Y124083D01*
X423077Y124075D01*
X423128Y124086D01*
X423180Y124088D01*
X423248Y124112D01*
X423318Y124128D01*
X423363Y124154D01*
X423411Y124172D01*
X423467Y124217D01*
X423529Y124254D01*
X423563Y124293D01*
X423603Y124326D01*
X423642Y124386D01*
X423689Y124441D01*
X423708Y124489D01*
X423736Y124533D01*
X423754Y124602D01*
X423781Y124669D01*
X423789Y124740D01*
X423797Y124771D01*
X423795Y124795D01*
X423799Y124836D01*
X423799Y127164D01*
X423788Y127235D01*
X423786Y127307D01*
X423768Y127356D01*
X423760Y127407D01*
X423726Y127470D01*
X423701Y127538D01*
X423669Y127579D01*
X423644Y127625D01*
X423593Y127674D01*
X423548Y127730D01*
X423504Y127758D01*
X423466Y127794D01*
X423401Y127824D01*
X423341Y127863D01*
X423290Y127876D01*
X423243Y127898D01*
X423172Y127905D01*
X423102Y127923D01*
X423050Y127919D01*
X422999Y127925D01*
X422928Y127909D01*
X422857Y127904D01*
X422809Y127883D01*
X422758Y127872D01*
X422697Y127836D01*
X422631Y127807D01*
X422575Y127763D01*
X422547Y127746D01*
X422533Y127729D01*
X411474Y127729D01*
X410729Y128474D01*
X410729Y137244D01*
X410715Y137334D01*
X410707Y137425D01*
X410695Y137455D01*
X410690Y137487D01*
X410647Y137568D01*
X410611Y137651D01*
X410585Y137684D01*
X410574Y137704D01*
X410551Y137726D01*
X410506Y137782D01*
X407818Y140470D01*
X407744Y140523D01*
X407675Y140583D01*
X407645Y140595D01*
X407619Y140614D01*
X407531Y140641D01*
X407447Y140675D01*
X407406Y140679D01*
X407384Y140686D01*
X407351Y140685D01*
X407280Y140693D01*
X404720Y140693D01*
X404630Y140679D01*
X404539Y140671D01*
X404509Y140659D01*
X404477Y140654D01*
X404396Y140611D01*
X404313Y140575D01*
X404280Y140549D01*
X404260Y140538D01*
X404238Y140515D01*
X404182Y140470D01*
X401494Y137782D01*
X401441Y137708D01*
X401381Y137639D01*
X401369Y137609D01*
X401350Y137583D01*
X401323Y137496D01*
X401289Y137411D01*
X401285Y137370D01*
X401278Y137348D01*
X401279Y137315D01*
X401271Y137244D01*
X401271Y128474D01*
X400526Y127729D01*
X389474Y127729D01*
X388729Y128474D01*
X388729Y140526D01*
X389474Y141271D01*
X398244Y141271D01*
X398334Y141285D01*
X398425Y141293D01*
X398455Y141305D01*
X398487Y141310D01*
X398568Y141353D01*
X398651Y141389D01*
X398684Y141415D01*
X398704Y141426D01*
X398726Y141449D01*
X398782Y141494D01*
X400470Y143182D01*
X400523Y143256D01*
X400583Y143325D01*
X400595Y143355D01*
X400614Y143381D01*
X400641Y143468D01*
X400675Y143553D01*
X400679Y143594D01*
X400686Y143616D01*
X400685Y143649D01*
X400693Y143720D01*
X400693Y148198D01*
X403802Y151307D01*
X408198Y151307D01*
X411307Y148198D01*
X411307Y143720D01*
X411321Y143630D01*
X411329Y143539D01*
X411341Y143509D01*
X411346Y143477D01*
X411389Y143397D01*
X411425Y143313D01*
X411451Y143280D01*
X411462Y143260D01*
X411485Y143238D01*
X411530Y143182D01*
X413218Y141494D01*
X413292Y141441D01*
X413361Y141381D01*
X413391Y141369D01*
X413417Y141350D01*
X413504Y141323D01*
X413589Y141289D01*
X413630Y141285D01*
X413652Y141278D01*
X413685Y141279D01*
X413756Y141271D01*
X422537Y141271D01*
X422558Y141255D01*
X422610Y141206D01*
X422657Y141184D01*
X422699Y141154D01*
X422768Y141133D01*
X422833Y141102D01*
X422885Y141097D01*
X422934Y141081D01*
X423006Y141083D01*
X423077Y141075D01*
X423128Y141086D01*
X423180Y141088D01*
X423248Y141112D01*
X423318Y141128D01*
X423363Y141154D01*
X423411Y141172D01*
X423467Y141217D01*
X423529Y141254D01*
X423563Y141293D01*
X423603Y141326D01*
X423642Y141386D01*
X423689Y141441D01*
X423708Y141489D01*
X423736Y141533D01*
X423754Y141602D01*
X423781Y141669D01*
X423789Y141740D01*
X423797Y141771D01*
X423795Y141795D01*
X423799Y141836D01*
X423799Y365000D01*
X423796Y365020D01*
X423798Y365039D01*
X423776Y365141D01*
X423760Y365243D01*
X423750Y365260D01*
X423746Y365280D01*
X423693Y365369D01*
X423644Y365460D01*
X423630Y365474D01*
X423620Y365491D01*
X423541Y365558D01*
X423466Y365630D01*
X423448Y365638D01*
X423433Y365651D01*
X423337Y365690D01*
X423243Y365733D01*
X423223Y365735D01*
X423205Y365743D01*
X423038Y365761D01*
X285274Y365761D01*
X285203Y365750D01*
X285131Y365748D01*
X285082Y365730D01*
X285031Y365722D01*
X284968Y365688D01*
X284900Y365663D01*
X284859Y365631D01*
X284814Y365606D01*
X284764Y365555D01*
X284708Y365510D01*
X284680Y365466D01*
X284644Y365428D01*
X284614Y365363D01*
X284575Y365303D01*
X284562Y365252D01*
X284541Y365205D01*
X284533Y365134D01*
X284515Y365064D01*
X284519Y365012D01*
X284513Y364961D01*
X284529Y364890D01*
X284534Y364819D01*
X284555Y364771D01*
X284566Y364720D01*
X284603Y364659D01*
X284631Y364593D01*
X284675Y364537D01*
X284692Y364509D01*
X284710Y364494D01*
X284721Y364480D01*
X284721Y356982D01*
X284724Y356962D01*
X284722Y356943D01*
X284744Y356841D01*
X284760Y356739D01*
X284770Y356722D01*
X284774Y356702D01*
X284827Y356613D01*
X284876Y356522D01*
X284890Y356508D01*
X284900Y356491D01*
X284979Y356424D01*
X285054Y356352D01*
X285072Y356344D01*
X285087Y356331D01*
X285183Y356292D01*
X285277Y356249D01*
X285297Y356247D01*
X285315Y356239D01*
X285482Y356221D01*
X403332Y356221D01*
X403422Y356235D01*
X403513Y356243D01*
X403543Y356255D01*
X403575Y356260D01*
X403655Y356303D01*
X403739Y356339D01*
X403771Y356365D01*
X403792Y356376D01*
X403814Y356399D01*
X403870Y356444D01*
X406317Y358891D01*
X413683Y358891D01*
X418891Y353683D01*
X418891Y346317D01*
X413683Y341109D01*
X406317Y341109D01*
X401109Y346317D01*
X401109Y350918D01*
X401106Y350938D01*
X401108Y350957D01*
X401086Y351059D01*
X401070Y351161D01*
X401060Y351178D01*
X401056Y351198D01*
X401003Y351287D01*
X400954Y351378D01*
X400940Y351392D01*
X400930Y351409D01*
X400851Y351476D01*
X400776Y351548D01*
X400758Y351556D01*
X400743Y351569D01*
X400647Y351608D01*
X400553Y351651D01*
X400533Y351653D01*
X400515Y351661D01*
X400348Y351679D01*
X285482Y351679D01*
X285462Y351676D01*
X285443Y351678D01*
X285341Y351656D01*
X285239Y351640D01*
X285222Y351630D01*
X285202Y351626D01*
X285113Y351573D01*
X285022Y351524D01*
X285008Y351510D01*
X284991Y351500D01*
X284924Y351421D01*
X284852Y351346D01*
X284844Y351328D01*
X284831Y351313D01*
X284792Y351217D01*
X284749Y351123D01*
X284747Y351103D01*
X284739Y351085D01*
X284721Y350918D01*
X284721Y343424D01*
X283976Y342679D01*
X274924Y342679D01*
X274179Y343424D01*
X274179Y364482D01*
X274206Y364520D01*
X274256Y364572D01*
X274278Y364619D01*
X274308Y364661D01*
X274329Y364730D01*
X274359Y364795D01*
X274365Y364847D01*
X274381Y364897D01*
X274379Y364968D01*
X274387Y365039D01*
X274376Y365090D01*
X274374Y365142D01*
X274350Y365210D01*
X274334Y365280D01*
X274308Y365324D01*
X274290Y365373D01*
X274245Y365429D01*
X274208Y365491D01*
X274169Y365525D01*
X274136Y365565D01*
X274076Y365604D01*
X274021Y365651D01*
X273973Y365670D01*
X273929Y365698D01*
X273860Y365716D01*
X273793Y365743D01*
X273722Y365751D01*
X273691Y365759D01*
X273667Y365757D01*
X273626Y365761D01*
X265274Y365761D01*
X265203Y365750D01*
X265131Y365748D01*
X265082Y365730D01*
X265031Y365722D01*
X264968Y365688D01*
X264900Y365663D01*
X264859Y365631D01*
X264814Y365606D01*
X264764Y365555D01*
X264708Y365510D01*
X264680Y365466D01*
X264644Y365428D01*
X264614Y365363D01*
X264575Y365303D01*
X264562Y365252D01*
X264541Y365205D01*
X264533Y365134D01*
X264515Y365064D01*
X264519Y365012D01*
X264513Y364961D01*
X264529Y364890D01*
X264534Y364819D01*
X264555Y364771D01*
X264566Y364720D01*
X264603Y364659D01*
X264631Y364593D01*
X264675Y364537D01*
X264692Y364509D01*
X264710Y364494D01*
X264721Y364480D01*
X264721Y343424D01*
X263976Y342679D01*
X254924Y342679D01*
X254179Y343424D01*
X254179Y364482D01*
X254206Y364520D01*
X254256Y364572D01*
X254278Y364619D01*
X254308Y364661D01*
X254329Y364730D01*
X254359Y364795D01*
X254365Y364847D01*
X254381Y364897D01*
X254379Y364968D01*
X254387Y365039D01*
X254376Y365090D01*
X254374Y365142D01*
X254350Y365210D01*
X254334Y365280D01*
X254308Y365324D01*
X254290Y365373D01*
X254245Y365429D01*
X254208Y365491D01*
X254169Y365525D01*
X254136Y365565D01*
X254076Y365604D01*
X254021Y365651D01*
X253973Y365670D01*
X253929Y365698D01*
X253860Y365716D01*
X253793Y365743D01*
X253722Y365751D01*
X253691Y365759D01*
X253667Y365757D01*
X253626Y365761D01*
X245274Y365761D01*
X245203Y365750D01*
X245131Y365748D01*
X245082Y365730D01*
X245031Y365722D01*
X244968Y365688D01*
X244900Y365663D01*
X244859Y365631D01*
X244814Y365606D01*
X244764Y365555D01*
X244708Y365510D01*
X244680Y365466D01*
X244644Y365428D01*
X244614Y365363D01*
X244575Y365303D01*
X244562Y365252D01*
X244541Y365205D01*
X244533Y365134D01*
X244515Y365064D01*
X244519Y365012D01*
X244513Y364961D01*
X244529Y364890D01*
X244534Y364819D01*
X244555Y364771D01*
X244566Y364720D01*
X244603Y364659D01*
X244631Y364593D01*
X244675Y364537D01*
X244692Y364509D01*
X244710Y364494D01*
X244721Y364480D01*
X244721Y343424D01*
X243976Y342679D01*
X234924Y342679D01*
X234179Y343424D01*
X234179Y364482D01*
X234206Y364520D01*
X234256Y364572D01*
X234278Y364619D01*
X234308Y364661D01*
X234329Y364730D01*
X234359Y364795D01*
X234365Y364847D01*
X234381Y364897D01*
X234379Y364968D01*
X234387Y365039D01*
X234376Y365090D01*
X234374Y365142D01*
X234350Y365210D01*
X234334Y365280D01*
X234308Y365324D01*
X234290Y365373D01*
X234245Y365429D01*
X234208Y365491D01*
X234169Y365525D01*
X234136Y365565D01*
X234076Y365604D01*
X234021Y365651D01*
X233973Y365670D01*
X233929Y365698D01*
X233860Y365716D01*
X233793Y365743D01*
X233722Y365751D01*
X233691Y365759D01*
X233667Y365757D01*
X233626Y365761D01*
X225274Y365761D01*
X225203Y365750D01*
X225131Y365748D01*
X225082Y365730D01*
X225031Y365722D01*
X224968Y365688D01*
X224900Y365663D01*
X224859Y365631D01*
X224814Y365606D01*
X224764Y365555D01*
X224708Y365510D01*
X224680Y365466D01*
X224644Y365428D01*
X224614Y365363D01*
X224575Y365303D01*
X224562Y365252D01*
X224541Y365205D01*
X224533Y365134D01*
X224515Y365064D01*
X224519Y365012D01*
X224513Y364961D01*
X224529Y364890D01*
X224534Y364819D01*
X224555Y364771D01*
X224566Y364720D01*
X224603Y364659D01*
X224631Y364593D01*
X224675Y364537D01*
X224692Y364509D01*
X224710Y364494D01*
X224721Y364480D01*
X224721Y343424D01*
X223976Y342679D01*
X214924Y342679D01*
X214179Y343424D01*
X214179Y364482D01*
X214206Y364520D01*
X214256Y364572D01*
X214278Y364619D01*
X214308Y364661D01*
X214329Y364730D01*
X214359Y364795D01*
X214365Y364847D01*
X214381Y364897D01*
X214379Y364968D01*
X214387Y365039D01*
X214376Y365090D01*
X214374Y365142D01*
X214350Y365210D01*
X214334Y365280D01*
X214308Y365324D01*
X214290Y365373D01*
X214245Y365429D01*
X214208Y365491D01*
X214169Y365525D01*
X214136Y365565D01*
X214076Y365604D01*
X214021Y365651D01*
X213973Y365670D01*
X213929Y365698D01*
X213860Y365716D01*
X213793Y365743D01*
X213722Y365751D01*
X213691Y365759D01*
X213667Y365757D01*
X213626Y365761D01*
X195057Y365761D01*
X195037Y365758D01*
X195018Y365760D01*
X194916Y365738D01*
X194814Y365722D01*
X194797Y365712D01*
X194777Y365708D01*
X194688Y365655D01*
X194597Y365606D01*
X194583Y365592D01*
X194566Y365582D01*
X194499Y365503D01*
X194427Y365428D01*
X194419Y365410D01*
X194406Y365395D01*
X194367Y365299D01*
X194324Y365205D01*
X194322Y365185D01*
X194314Y365167D01*
X194296Y365000D01*
X194296Y363802D01*
X191187Y360693D01*
X187209Y360693D01*
X187119Y360679D01*
X187028Y360671D01*
X186998Y360659D01*
X186966Y360654D01*
X186885Y360611D01*
X186802Y360575D01*
X186769Y360549D01*
X186749Y360538D01*
X186727Y360515D01*
X186671Y360470D01*
X184944Y358743D01*
X184891Y358669D01*
X184831Y358600D01*
X184819Y358570D01*
X184800Y358544D01*
X184773Y358457D01*
X184739Y358372D01*
X184735Y358331D01*
X184728Y358309D01*
X184729Y358276D01*
X184721Y358205D01*
X184721Y343424D01*
X183976Y342679D01*
X174924Y342679D01*
X174179Y343424D01*
X174179Y364482D01*
X174206Y364520D01*
X174256Y364572D01*
X174278Y364619D01*
X174308Y364661D01*
X174329Y364730D01*
X174359Y364795D01*
X174365Y364847D01*
X174381Y364897D01*
X174379Y364968D01*
X174387Y365039D01*
X174376Y365090D01*
X174374Y365142D01*
X174350Y365210D01*
X174334Y365280D01*
X174308Y365324D01*
X174290Y365373D01*
X174245Y365429D01*
X174208Y365491D01*
X174169Y365525D01*
X174136Y365565D01*
X174076Y365604D01*
X174021Y365651D01*
X173973Y365670D01*
X173929Y365698D01*
X173860Y365716D01*
X173793Y365743D01*
X173722Y365751D01*
X173691Y365759D01*
X173667Y365757D01*
X173626Y365761D01*
X165274Y365761D01*
X165203Y365750D01*
X165131Y365748D01*
X165082Y365730D01*
X165031Y365722D01*
X164968Y365688D01*
X164900Y365663D01*
X164859Y365631D01*
X164814Y365606D01*
X164764Y365555D01*
X164708Y365510D01*
X164680Y365466D01*
X164644Y365428D01*
X164614Y365363D01*
X164575Y365303D01*
X164562Y365252D01*
X164541Y365205D01*
X164533Y365134D01*
X164515Y365064D01*
X164519Y365012D01*
X164513Y364961D01*
X164529Y364890D01*
X164534Y364819D01*
X164555Y364771D01*
X164566Y364720D01*
X164603Y364659D01*
X164631Y364593D01*
X164675Y364537D01*
X164692Y364509D01*
X164710Y364494D01*
X164721Y364480D01*
X164721Y343424D01*
X163976Y342679D01*
X154924Y342679D01*
X154179Y343424D01*
X154179Y364482D01*
X154206Y364520D01*
X154256Y364572D01*
X154278Y364619D01*
X154308Y364661D01*
X154329Y364730D01*
X154359Y364795D01*
X154365Y364847D01*
X154381Y364897D01*
X154379Y364968D01*
X154387Y365039D01*
X154376Y365090D01*
X154374Y365142D01*
X154350Y365210D01*
X154334Y365280D01*
X154308Y365324D01*
X154290Y365373D01*
X154245Y365429D01*
X154208Y365491D01*
X154169Y365525D01*
X154136Y365565D01*
X154076Y365604D01*
X154021Y365651D01*
X153973Y365670D01*
X153929Y365698D01*
X153860Y365716D01*
X153793Y365743D01*
X153722Y365751D01*
X153691Y365759D01*
X153667Y365757D01*
X153626Y365761D01*
X145274Y365761D01*
X145203Y365750D01*
X145131Y365748D01*
X145082Y365730D01*
X145031Y365722D01*
X144968Y365688D01*
X144900Y365663D01*
X144859Y365631D01*
X144814Y365606D01*
X144764Y365555D01*
X144708Y365510D01*
X144680Y365466D01*
X144644Y365428D01*
X144614Y365363D01*
X144575Y365303D01*
X144562Y365252D01*
X144541Y365205D01*
X144533Y365134D01*
X144515Y365064D01*
X144519Y365012D01*
X144513Y364961D01*
X144529Y364890D01*
X144534Y364819D01*
X144555Y364771D01*
X144566Y364720D01*
X144603Y364659D01*
X144631Y364593D01*
X144675Y364537D01*
X144692Y364509D01*
X144710Y364494D01*
X144721Y364480D01*
X144721Y343424D01*
X143976Y342679D01*
X134924Y342679D01*
X134179Y343424D01*
X134179Y364482D01*
X134206Y364520D01*
X134256Y364572D01*
X134278Y364619D01*
X134308Y364661D01*
X134329Y364730D01*
X134359Y364795D01*
X134365Y364847D01*
X134381Y364897D01*
X134379Y364968D01*
X134387Y365039D01*
X134376Y365090D01*
X134374Y365142D01*
X134350Y365210D01*
X134334Y365280D01*
X134308Y365324D01*
X134290Y365373D01*
X134245Y365429D01*
X134208Y365491D01*
X134169Y365525D01*
X134136Y365565D01*
X134076Y365604D01*
X134021Y365651D01*
X133973Y365670D01*
X133929Y365698D01*
X133860Y365716D01*
X133793Y365743D01*
X133722Y365751D01*
X133691Y365759D01*
X133667Y365757D01*
X133626Y365761D01*
X120000Y365761D01*
X119980Y365758D01*
X119961Y365760D01*
X119859Y365738D01*
X119757Y365722D01*
X119740Y365712D01*
X119720Y365708D01*
X119631Y365655D01*
X119540Y365606D01*
X119526Y365592D01*
X119509Y365582D01*
X119442Y365503D01*
X119371Y365428D01*
X119362Y365410D01*
X119349Y365395D01*
X119310Y365299D01*
X119267Y365205D01*
X119265Y365185D01*
X119257Y365167D01*
X119239Y365000D01*
X119239Y220761D01*
X104572Y220761D01*
X104552Y220758D01*
X104533Y220760D01*
X104431Y220738D01*
X104329Y220722D01*
X104312Y220712D01*
X104292Y220708D01*
X104203Y220655D01*
X104112Y220606D01*
X104098Y220592D01*
X104081Y220582D01*
X104014Y220503D01*
X103942Y220428D01*
X103934Y220410D01*
X103921Y220395D01*
X103882Y220299D01*
X103839Y220205D01*
X103837Y220185D01*
X103829Y220167D01*
X103811Y220000D01*
X103811Y208422D01*
X101356Y205966D01*
X101355Y205966D01*
X85344Y189955D01*
X85344Y189954D01*
X82888Y187499D01*
X80000Y187499D01*
X79980Y187496D01*
X79961Y187498D01*
X79859Y187476D01*
X79757Y187460D01*
X79740Y187450D01*
X79720Y187446D01*
X79631Y187393D01*
X79540Y187344D01*
X79526Y187330D01*
X79509Y187320D01*
X79442Y187241D01*
X79371Y187166D01*
X79362Y187148D01*
X79349Y187133D01*
X79310Y187037D01*
X79267Y186943D01*
X79265Y186923D01*
X79257Y186905D01*
X79239Y186738D01*
X79239Y70000D01*
X79242Y69980D01*
X79240Y69961D01*
X79262Y69859D01*
X79279Y69757D01*
X79288Y69740D01*
X79292Y69720D01*
X79345Y69631D01*
X79394Y69540D01*
X79408Y69526D01*
X79418Y69509D01*
X79497Y69442D01*
X79572Y69371D01*
X79590Y69362D01*
X79605Y69349D01*
X79701Y69310D01*
X79795Y69267D01*
X79815Y69265D01*
X79833Y69257D01*
X80000Y69239D01*
X103682Y69239D01*
X103702Y69242D01*
X103721Y69240D01*
X103823Y69262D01*
X103925Y69279D01*
X103942Y69288D01*
X103962Y69292D01*
X104051Y69345D01*
X104142Y69394D01*
X104156Y69408D01*
X104173Y69418D01*
X104240Y69497D01*
X104312Y69572D01*
X104320Y69590D01*
X104333Y69605D01*
X104372Y69701D01*
X104415Y69795D01*
X104417Y69815D01*
X104425Y69833D01*
X104443Y70000D01*
X104443Y71105D01*
X105289Y73148D01*
X106474Y74333D01*
X106527Y74407D01*
X106587Y74476D01*
X106599Y74506D01*
X106618Y74532D01*
X106645Y74619D01*
X106679Y74704D01*
X106683Y74745D01*
X106690Y74768D01*
X106689Y74800D01*
X106697Y74871D01*
X106697Y79544D01*
X120538Y93385D01*
X120591Y93459D01*
X120651Y93529D01*
X120663Y93559D01*
X120682Y93585D01*
X120709Y93672D01*
X120743Y93757D01*
X120747Y93798D01*
X120754Y93820D01*
X120753Y93852D01*
X120761Y93924D01*
X120761Y96021D01*
X120750Y96091D01*
X120748Y96163D01*
X120730Y96212D01*
X120722Y96263D01*
X120688Y96327D01*
X120663Y96394D01*
X120631Y96435D01*
X120606Y96481D01*
X120555Y96530D01*
X120510Y96586D01*
X120466Y96614D01*
X120428Y96650D01*
X120363Y96680D01*
X120303Y96719D01*
X120252Y96732D01*
X120205Y96754D01*
X120134Y96762D01*
X120064Y96779D01*
X120012Y96775D01*
X119961Y96781D01*
X119890Y96766D01*
X119819Y96760D01*
X119771Y96740D01*
X119720Y96729D01*
X119659Y96692D01*
X119593Y96664D01*
X119537Y96619D01*
X119509Y96602D01*
X119494Y96585D01*
X119462Y96559D01*
X119198Y96295D01*
X114802Y96295D01*
X111693Y99404D01*
X111693Y103800D01*
X114802Y106909D01*
X119198Y106909D01*
X119462Y106645D01*
X119520Y106603D01*
X119572Y106554D01*
X119619Y106532D01*
X119661Y106502D01*
X119730Y106481D01*
X119795Y106450D01*
X119847Y106445D01*
X119897Y106429D01*
X119968Y106431D01*
X120039Y106423D01*
X120090Y106434D01*
X120142Y106436D01*
X120210Y106460D01*
X120280Y106475D01*
X120324Y106502D01*
X120373Y106520D01*
X120429Y106565D01*
X120491Y106602D01*
X120525Y106641D01*
X120565Y106674D01*
X120604Y106734D01*
X120651Y106789D01*
X120670Y106837D01*
X120698Y106881D01*
X120716Y106950D01*
X120743Y107017D01*
X120751Y107088D01*
X120759Y107119D01*
X120757Y107142D01*
X120761Y107183D01*
X120761Y107968D01*
X120758Y107988D01*
X120760Y108007D01*
X120738Y108109D01*
X120722Y108211D01*
X120712Y108228D01*
X120708Y108248D01*
X120655Y108337D01*
X120606Y108428D01*
X120592Y108442D01*
X120582Y108459D01*
X120503Y108526D01*
X120428Y108598D01*
X120410Y108606D01*
X120395Y108619D01*
X120299Y108658D01*
X120205Y108701D01*
X120185Y108703D01*
X120167Y108711D01*
X120067Y108722D01*
X119318Y109470D01*
X119244Y109523D01*
X119175Y109583D01*
X119145Y109595D01*
X119119Y109614D01*
X119032Y109641D01*
X118947Y109675D01*
X118906Y109679D01*
X118884Y109686D01*
X118851Y109685D01*
X118780Y109693D01*
X114802Y109693D01*
X111693Y112802D01*
X111693Y117198D01*
X114802Y120307D01*
X119198Y120307D01*
X122307Y117198D01*
X122307Y114032D01*
G37*
%LPC*%
G36*
X187632Y94697D02*
X187632Y94697D01*
X185109Y97220D01*
X185035Y97273D01*
X184966Y97333D01*
X184935Y97345D01*
X184909Y97364D01*
X184822Y97391D01*
X184737Y97425D01*
X184696Y97429D01*
X184674Y97436D01*
X184642Y97435D01*
X184571Y97443D01*
X182895Y97443D01*
X180852Y98289D01*
X179289Y99852D01*
X178443Y101895D01*
X178443Y104105D01*
X179289Y106148D01*
X180852Y107711D01*
X182895Y108557D01*
X185105Y108557D01*
X187148Y107711D01*
X188711Y106148D01*
X189557Y104105D01*
X189557Y102429D01*
X189571Y102339D01*
X189579Y102248D01*
X189591Y102219D01*
X189596Y102187D01*
X189639Y102106D01*
X189675Y102022D01*
X189701Y101990D01*
X189712Y101969D01*
X189735Y101947D01*
X189780Y101891D01*
X190145Y101526D01*
X190219Y101473D01*
X190288Y101413D01*
X190319Y101401D01*
X190345Y101382D01*
X190432Y101355D01*
X190517Y101321D01*
X190558Y101317D01*
X190580Y101310D01*
X190612Y101311D01*
X190683Y101303D01*
X196913Y101303D01*
X197003Y101317D01*
X197094Y101325D01*
X197124Y101337D01*
X197156Y101342D01*
X197237Y101385D01*
X197321Y101421D01*
X197353Y101447D01*
X197374Y101458D01*
X197396Y101481D01*
X197452Y101526D01*
X199320Y103394D01*
X199362Y103452D01*
X199411Y103504D01*
X199433Y103551D01*
X199463Y103593D01*
X199484Y103662D01*
X199515Y103727D01*
X199520Y103779D01*
X199536Y103829D01*
X199534Y103900D01*
X199542Y103971D01*
X199531Y104022D01*
X199529Y104074D01*
X199505Y104142D01*
X199489Y104212D01*
X199463Y104257D01*
X199445Y104305D01*
X199400Y104361D01*
X199363Y104423D01*
X199324Y104457D01*
X199291Y104497D01*
X199231Y104536D01*
X199176Y104583D01*
X199128Y104602D01*
X199084Y104630D01*
X199015Y104648D01*
X198948Y104675D01*
X198877Y104683D01*
X198846Y104691D01*
X198822Y104689D01*
X198781Y104693D01*
X197802Y104693D01*
X194693Y107802D01*
X194693Y112198D01*
X197802Y115307D01*
X200507Y115307D01*
X200527Y115310D01*
X200546Y115308D01*
X200648Y115330D01*
X200750Y115346D01*
X200767Y115356D01*
X200787Y115360D01*
X200876Y115413D01*
X200967Y115462D01*
X200981Y115476D01*
X200998Y115486D01*
X201065Y115565D01*
X201137Y115640D01*
X201145Y115658D01*
X201158Y115673D01*
X201197Y115769D01*
X201240Y115863D01*
X201242Y115883D01*
X201250Y115901D01*
X201268Y116068D01*
X201268Y133768D01*
X201265Y133788D01*
X201267Y133807D01*
X201245Y133909D01*
X201229Y134011D01*
X201219Y134028D01*
X201215Y134048D01*
X201162Y134137D01*
X201113Y134228D01*
X201099Y134242D01*
X201089Y134259D01*
X201010Y134326D01*
X200935Y134398D01*
X200917Y134406D01*
X200902Y134419D01*
X200806Y134458D01*
X200712Y134501D01*
X200692Y134503D01*
X200674Y134511D01*
X200507Y134529D01*
X199173Y134529D01*
X199083Y134515D01*
X198992Y134507D01*
X198962Y134495D01*
X198930Y134490D01*
X198849Y134447D01*
X198765Y134411D01*
X198733Y134385D01*
X198712Y134374D01*
X198690Y134351D01*
X198634Y134306D01*
X196886Y132558D01*
X195333Y131005D01*
X194532Y131005D01*
X194442Y130991D01*
X194351Y130983D01*
X194321Y130971D01*
X194289Y130966D01*
X194209Y130923D01*
X194125Y130887D01*
X194092Y130861D01*
X194072Y130850D01*
X194050Y130827D01*
X193994Y130782D01*
X191530Y128318D01*
X191477Y128244D01*
X191417Y128175D01*
X191405Y128145D01*
X191386Y128119D01*
X191359Y128032D01*
X191325Y127947D01*
X191321Y127906D01*
X191314Y127884D01*
X191315Y127851D01*
X191307Y127780D01*
X191307Y123802D01*
X188198Y120693D01*
X183802Y120693D01*
X180693Y123802D01*
X180693Y128198D01*
X183802Y131307D01*
X187780Y131307D01*
X187870Y131321D01*
X187961Y131329D01*
X187991Y131341D01*
X188023Y131346D01*
X188104Y131389D01*
X188187Y131425D01*
X188220Y131451D01*
X188240Y131462D01*
X188262Y131485D01*
X188318Y131530D01*
X190018Y133230D01*
X190060Y133288D01*
X190110Y133340D01*
X190132Y133387D01*
X190162Y133429D01*
X190183Y133498D01*
X190213Y133563D01*
X190219Y133615D01*
X190234Y133665D01*
X190232Y133736D01*
X190240Y133807D01*
X190229Y133858D01*
X190228Y133910D01*
X190203Y133978D01*
X190188Y134048D01*
X190161Y134092D01*
X190144Y134141D01*
X190099Y134197D01*
X190062Y134259D01*
X190022Y134293D01*
X189990Y134333D01*
X189930Y134372D01*
X189875Y134419D01*
X189827Y134438D01*
X189783Y134466D01*
X189713Y134484D01*
X189647Y134511D01*
X189576Y134519D01*
X189544Y134527D01*
X189521Y134525D01*
X189480Y134529D01*
X188126Y134529D01*
X187538Y135117D01*
X187522Y135129D01*
X187510Y135145D01*
X187422Y135201D01*
X187339Y135261D01*
X187320Y135267D01*
X187303Y135278D01*
X187202Y135303D01*
X187103Y135333D01*
X187084Y135333D01*
X187064Y135338D01*
X186961Y135330D01*
X186858Y135327D01*
X186839Y135320D01*
X186819Y135318D01*
X186724Y135278D01*
X186627Y135242D01*
X186611Y135230D01*
X186593Y135222D01*
X186462Y135117D01*
X185874Y134529D01*
X180126Y134529D01*
X179538Y135117D01*
X179522Y135129D01*
X179510Y135145D01*
X179422Y135201D01*
X179339Y135261D01*
X179320Y135267D01*
X179303Y135278D01*
X179202Y135303D01*
X179103Y135333D01*
X179084Y135333D01*
X179064Y135338D01*
X178961Y135330D01*
X178858Y135327D01*
X178839Y135320D01*
X178819Y135318D01*
X178724Y135278D01*
X178627Y135242D01*
X178611Y135230D01*
X178593Y135222D01*
X178462Y135117D01*
X177874Y134529D01*
X172126Y134529D01*
X171538Y135117D01*
X171522Y135129D01*
X171510Y135145D01*
X171422Y135201D01*
X171339Y135261D01*
X171320Y135267D01*
X171303Y135278D01*
X171202Y135303D01*
X171103Y135333D01*
X171084Y135333D01*
X171064Y135338D01*
X170961Y135330D01*
X170858Y135327D01*
X170839Y135320D01*
X170819Y135318D01*
X170724Y135278D01*
X170627Y135242D01*
X170611Y135230D01*
X170593Y135222D01*
X170462Y135117D01*
X169874Y134529D01*
X164017Y134529D01*
X163963Y134554D01*
X163911Y134560D01*
X163862Y134575D01*
X163790Y134573D01*
X163719Y134581D01*
X163668Y134570D01*
X163616Y134569D01*
X163548Y134544D01*
X163478Y134529D01*
X163434Y134502D01*
X163385Y134485D01*
X163329Y134440D01*
X163267Y134403D01*
X163233Y134363D01*
X163193Y134331D01*
X163154Y134271D01*
X163107Y134216D01*
X163088Y134168D01*
X163060Y134124D01*
X163042Y134054D01*
X163015Y133988D01*
X163007Y133917D01*
X162999Y133886D01*
X163001Y133862D01*
X162997Y133821D01*
X162997Y131046D01*
X163011Y130956D01*
X163019Y130865D01*
X163031Y130836D01*
X163036Y130804D01*
X163079Y130723D01*
X163115Y130639D01*
X163141Y130607D01*
X163152Y130586D01*
X163175Y130564D01*
X163220Y130508D01*
X164530Y129198D01*
X164530Y124802D01*
X161421Y121693D01*
X157025Y121693D01*
X153916Y124802D01*
X153916Y129198D01*
X156168Y131450D01*
X156221Y131524D01*
X156281Y131594D01*
X156293Y131624D01*
X156312Y131650D01*
X156339Y131737D01*
X156373Y131822D01*
X156377Y131863D01*
X156384Y131885D01*
X156383Y131917D01*
X156391Y131988D01*
X156391Y133949D01*
X156377Y134039D01*
X156369Y134130D01*
X156357Y134160D01*
X156352Y134192D01*
X156309Y134272D01*
X156273Y134356D01*
X156247Y134388D01*
X156236Y134409D01*
X156213Y134431D01*
X156168Y134487D01*
X154979Y135676D01*
X154979Y151924D01*
X156126Y153071D01*
X161874Y153071D01*
X162462Y152483D01*
X162478Y152471D01*
X162490Y152455D01*
X162578Y152399D01*
X162661Y152339D01*
X162680Y152333D01*
X162697Y152322D01*
X162798Y152297D01*
X162897Y152267D01*
X162916Y152267D01*
X162936Y152262D01*
X163039Y152270D01*
X163142Y152273D01*
X163161Y152280D01*
X163181Y152282D01*
X163276Y152322D01*
X163373Y152358D01*
X163389Y152370D01*
X163407Y152378D01*
X163538Y152483D01*
X164157Y153102D01*
X164211Y153110D01*
X164228Y153120D01*
X164248Y153124D01*
X164337Y153177D01*
X164428Y153226D01*
X164442Y153240D01*
X164459Y153250D01*
X164526Y153329D01*
X164598Y153404D01*
X164606Y153422D01*
X164619Y153437D01*
X164658Y153533D01*
X164701Y153627D01*
X164703Y153647D01*
X164711Y153665D01*
X164729Y153832D01*
X164729Y154041D01*
X166282Y155594D01*
X167082Y156394D01*
X167124Y156452D01*
X167174Y156504D01*
X167196Y156551D01*
X167226Y156593D01*
X167247Y156662D01*
X167277Y156727D01*
X167283Y156779D01*
X167298Y156829D01*
X167296Y156900D01*
X167304Y156971D01*
X167293Y157022D01*
X167292Y157074D01*
X167267Y157142D01*
X167252Y157212D01*
X167225Y157257D01*
X167208Y157305D01*
X167163Y157361D01*
X167126Y157423D01*
X167086Y157457D01*
X167054Y157497D01*
X166994Y157536D01*
X166939Y157583D01*
X166891Y157602D01*
X166847Y157630D01*
X166777Y157648D01*
X166711Y157675D01*
X166640Y157683D01*
X166608Y157691D01*
X166585Y157689D01*
X166544Y157693D01*
X162802Y157693D01*
X161070Y159425D01*
X161012Y159467D01*
X160960Y159516D01*
X160913Y159538D01*
X160871Y159568D01*
X160802Y159590D01*
X160737Y159620D01*
X160685Y159625D01*
X160635Y159641D01*
X160564Y159639D01*
X160493Y159647D01*
X160442Y159636D01*
X160390Y159634D01*
X160322Y159610D01*
X160252Y159595D01*
X160207Y159568D01*
X160159Y159550D01*
X160103Y159505D01*
X160041Y159468D01*
X160007Y159429D01*
X159967Y159396D01*
X159928Y159336D01*
X159881Y159281D01*
X159862Y159233D01*
X159834Y159189D01*
X159816Y159120D01*
X159789Y159053D01*
X159781Y158982D01*
X159773Y158951D01*
X159775Y158928D01*
X159771Y158887D01*
X159771Y157474D01*
X159026Y156729D01*
X146974Y156729D01*
X146229Y157474D01*
X146229Y168526D01*
X146974Y169271D01*
X159026Y169271D01*
X159771Y168526D01*
X159771Y167113D01*
X159782Y167043D01*
X159784Y166971D01*
X159802Y166922D01*
X159810Y166871D01*
X159844Y166807D01*
X159869Y166740D01*
X159901Y166699D01*
X159926Y166653D01*
X159978Y166604D01*
X160022Y166548D01*
X160066Y166520D01*
X160104Y166484D01*
X160169Y166454D01*
X160229Y166415D01*
X160280Y166402D01*
X160327Y166380D01*
X160398Y166372D01*
X160468Y166355D01*
X160520Y166359D01*
X160571Y166353D01*
X160642Y166368D01*
X160713Y166374D01*
X160761Y166394D01*
X160812Y166405D01*
X160873Y166442D01*
X160939Y166470D01*
X160995Y166515D01*
X161023Y166532D01*
X161038Y166549D01*
X161070Y166575D01*
X162802Y168307D01*
X167198Y168307D01*
X168830Y166675D01*
X168888Y166633D01*
X168940Y166584D01*
X168987Y166562D01*
X169029Y166532D01*
X169098Y166510D01*
X169163Y166480D01*
X169215Y166475D01*
X169265Y166459D01*
X169336Y166461D01*
X169407Y166453D01*
X169458Y166464D01*
X169510Y166466D01*
X169578Y166490D01*
X169648Y166505D01*
X169693Y166532D01*
X169741Y166550D01*
X169797Y166595D01*
X169859Y166632D01*
X169893Y166671D01*
X169933Y166704D01*
X169972Y166764D01*
X170019Y166819D01*
X170038Y166867D01*
X170066Y166911D01*
X170084Y166980D01*
X170111Y167047D01*
X170119Y167118D01*
X170127Y167149D01*
X170125Y167172D01*
X170129Y167213D01*
X170129Y168526D01*
X170874Y169271D01*
X173680Y169271D01*
X173751Y169282D01*
X173823Y169284D01*
X173872Y169302D01*
X173923Y169310D01*
X173986Y169344D01*
X174054Y169369D01*
X174094Y169401D01*
X174140Y169426D01*
X174190Y169478D01*
X174246Y169522D01*
X174274Y169566D01*
X174310Y169604D01*
X174340Y169669D01*
X174379Y169729D01*
X174391Y169780D01*
X174413Y169827D01*
X174421Y169898D01*
X174439Y169968D01*
X174435Y170020D01*
X174440Y170071D01*
X174425Y170142D01*
X174420Y170213D01*
X174399Y170261D01*
X174388Y170312D01*
X174351Y170373D01*
X174323Y170439D01*
X174278Y170495D01*
X174262Y170523D01*
X174244Y170538D01*
X174218Y170570D01*
X171318Y173470D01*
X171244Y173523D01*
X171175Y173583D01*
X171145Y173595D01*
X171119Y173614D01*
X171031Y173641D01*
X170947Y173675D01*
X170906Y173679D01*
X170884Y173686D01*
X170851Y173685D01*
X170780Y173693D01*
X166802Y173693D01*
X163693Y176802D01*
X163693Y179918D01*
X163690Y179938D01*
X163692Y179957D01*
X163670Y180059D01*
X163654Y180161D01*
X163644Y180178D01*
X163640Y180198D01*
X163587Y180287D01*
X163538Y180378D01*
X163524Y180392D01*
X163514Y180409D01*
X163435Y180476D01*
X163360Y180548D01*
X163342Y180556D01*
X163327Y180569D01*
X163231Y180608D01*
X163137Y180651D01*
X163117Y180653D01*
X163099Y180661D01*
X162932Y180679D01*
X155068Y180679D01*
X155048Y180676D01*
X155029Y180678D01*
X154927Y180656D01*
X154825Y180640D01*
X154808Y180630D01*
X154788Y180626D01*
X154699Y180573D01*
X154608Y180524D01*
X154594Y180510D01*
X154577Y180500D01*
X154510Y180421D01*
X154438Y180346D01*
X154430Y180328D01*
X154417Y180313D01*
X154378Y180217D01*
X154335Y180123D01*
X154333Y180103D01*
X154325Y180085D01*
X154307Y179918D01*
X154307Y177802D01*
X151198Y174693D01*
X146802Y174693D01*
X143693Y177802D01*
X143693Y179918D01*
X143690Y179938D01*
X143692Y179957D01*
X143670Y180059D01*
X143654Y180161D01*
X143644Y180178D01*
X143640Y180198D01*
X143587Y180287D01*
X143538Y180378D01*
X143524Y180392D01*
X143514Y180409D01*
X143435Y180476D01*
X143360Y180548D01*
X143342Y180556D01*
X143327Y180569D01*
X143231Y180608D01*
X143137Y180651D01*
X143117Y180653D01*
X143099Y180661D01*
X142932Y180679D01*
X135318Y180679D01*
X135298Y180676D01*
X135279Y180678D01*
X135177Y180656D01*
X135075Y180640D01*
X135058Y180630D01*
X135038Y180626D01*
X134949Y180573D01*
X134858Y180524D01*
X134844Y180510D01*
X134827Y180500D01*
X134760Y180421D01*
X134688Y180346D01*
X134680Y180328D01*
X134667Y180313D01*
X134628Y180217D01*
X134585Y180123D01*
X134583Y180103D01*
X134575Y180085D01*
X134557Y179918D01*
X134557Y178895D01*
X133711Y176852D01*
X132148Y175289D01*
X130105Y174443D01*
X127895Y174443D01*
X125852Y175289D01*
X124289Y176852D01*
X123443Y178895D01*
X123443Y181105D01*
X124289Y183148D01*
X125852Y184711D01*
X127895Y185557D01*
X129571Y185557D01*
X129661Y185571D01*
X129752Y185579D01*
X129781Y185591D01*
X129813Y185596D01*
X129894Y185639D01*
X129978Y185675D01*
X130010Y185701D01*
X130031Y185712D01*
X130053Y185735D01*
X130109Y185780D01*
X133956Y189627D01*
X134009Y189701D01*
X134069Y189770D01*
X134081Y189801D01*
X134100Y189827D01*
X134127Y189914D01*
X134161Y189999D01*
X134165Y190040D01*
X134172Y190062D01*
X134171Y190094D01*
X134179Y190165D01*
X134179Y202476D01*
X134924Y203221D01*
X143976Y203221D01*
X144721Y202476D01*
X144721Y185063D01*
X144732Y184993D01*
X144734Y184921D01*
X144752Y184872D01*
X144760Y184821D01*
X144794Y184757D01*
X144819Y184690D01*
X144851Y184649D01*
X144876Y184603D01*
X144928Y184554D01*
X144972Y184498D01*
X145016Y184470D01*
X145054Y184434D01*
X145119Y184404D01*
X145179Y184365D01*
X145230Y184352D01*
X145277Y184330D01*
X145348Y184322D01*
X145418Y184305D01*
X145470Y184309D01*
X145521Y184303D01*
X145592Y184318D01*
X145663Y184324D01*
X145711Y184344D01*
X145762Y184355D01*
X145823Y184392D01*
X145889Y184420D01*
X145945Y184465D01*
X145973Y184482D01*
X145988Y184499D01*
X146020Y184525D01*
X146802Y185307D01*
X150780Y185307D01*
X150870Y185321D01*
X150961Y185329D01*
X150991Y185341D01*
X151023Y185346D01*
X151104Y185389D01*
X151187Y185425D01*
X151220Y185451D01*
X151240Y185462D01*
X151262Y185485D01*
X151318Y185530D01*
X153956Y188168D01*
X154009Y188242D01*
X154069Y188311D01*
X154081Y188341D01*
X154100Y188367D01*
X154127Y188454D01*
X154161Y188539D01*
X154165Y188580D01*
X154172Y188602D01*
X154171Y188635D01*
X154179Y188706D01*
X154179Y202476D01*
X154924Y203221D01*
X163976Y203221D01*
X164721Y202476D01*
X164721Y184063D01*
X164732Y183993D01*
X164734Y183921D01*
X164752Y183872D01*
X164760Y183821D01*
X164794Y183757D01*
X164819Y183690D01*
X164851Y183649D01*
X164876Y183603D01*
X164928Y183554D01*
X164972Y183498D01*
X165016Y183470D01*
X165054Y183434D01*
X165119Y183404D01*
X165179Y183365D01*
X165230Y183352D01*
X165277Y183330D01*
X165348Y183322D01*
X165418Y183305D01*
X165470Y183309D01*
X165521Y183303D01*
X165592Y183318D01*
X165663Y183324D01*
X165711Y183344D01*
X165762Y183355D01*
X165823Y183392D01*
X165889Y183420D01*
X165945Y183465D01*
X165973Y183482D01*
X165988Y183499D01*
X166020Y183525D01*
X166802Y184307D01*
X170780Y184307D01*
X170870Y184321D01*
X170961Y184329D01*
X170991Y184341D01*
X171023Y184346D01*
X171103Y184389D01*
X171187Y184425D01*
X171220Y184451D01*
X171240Y184462D01*
X171262Y184485D01*
X171318Y184530D01*
X173956Y187168D01*
X174009Y187242D01*
X174069Y187311D01*
X174081Y187341D01*
X174100Y187367D01*
X174127Y187454D01*
X174161Y187539D01*
X174165Y187580D01*
X174172Y187602D01*
X174171Y187635D01*
X174179Y187706D01*
X174179Y202476D01*
X174924Y203221D01*
X183976Y203221D01*
X184721Y202476D01*
X184721Y185063D01*
X184732Y184993D01*
X184734Y184921D01*
X184752Y184872D01*
X184760Y184821D01*
X184794Y184757D01*
X184819Y184690D01*
X184851Y184649D01*
X184876Y184603D01*
X184928Y184554D01*
X184972Y184498D01*
X185016Y184470D01*
X185054Y184434D01*
X185119Y184404D01*
X185179Y184365D01*
X185230Y184352D01*
X185277Y184330D01*
X185348Y184322D01*
X185418Y184305D01*
X185470Y184309D01*
X185521Y184303D01*
X185592Y184318D01*
X185663Y184324D01*
X185711Y184344D01*
X185762Y184355D01*
X185823Y184392D01*
X185889Y184420D01*
X185945Y184465D01*
X185973Y184482D01*
X185988Y184499D01*
X186020Y184525D01*
X186802Y185307D01*
X190780Y185307D01*
X190870Y185321D01*
X190961Y185329D01*
X190991Y185341D01*
X191023Y185346D01*
X191104Y185389D01*
X191187Y185425D01*
X191220Y185451D01*
X191240Y185462D01*
X191262Y185485D01*
X191318Y185530D01*
X193956Y188168D01*
X194009Y188242D01*
X194069Y188311D01*
X194081Y188341D01*
X194100Y188367D01*
X194127Y188454D01*
X194161Y188539D01*
X194165Y188580D01*
X194172Y188602D01*
X194171Y188635D01*
X194179Y188706D01*
X194179Y202476D01*
X194924Y203221D01*
X203976Y203221D01*
X204721Y202476D01*
X204721Y183950D01*
X204732Y183880D01*
X204734Y183808D01*
X204752Y183759D01*
X204760Y183708D01*
X204794Y183644D01*
X204819Y183577D01*
X204851Y183536D01*
X204876Y183490D01*
X204928Y183441D01*
X204972Y183385D01*
X205016Y183357D01*
X205054Y183321D01*
X205119Y183291D01*
X205179Y183252D01*
X205230Y183239D01*
X205277Y183217D01*
X205348Y183209D01*
X205418Y183192D01*
X205470Y183196D01*
X205521Y183190D01*
X205592Y183205D01*
X205663Y183211D01*
X205711Y183231D01*
X205762Y183242D01*
X205823Y183279D01*
X205889Y183307D01*
X205945Y183352D01*
X205973Y183369D01*
X205988Y183386D01*
X206020Y183412D01*
X206802Y184194D01*
X210780Y184194D01*
X210870Y184208D01*
X210961Y184216D01*
X210991Y184228D01*
X211023Y184233D01*
X211104Y184276D01*
X211187Y184312D01*
X211220Y184338D01*
X211240Y184349D01*
X211262Y184372D01*
X211318Y184417D01*
X213956Y187055D01*
X214009Y187129D01*
X214069Y187198D01*
X214081Y187228D01*
X214100Y187254D01*
X214127Y187341D01*
X214161Y187426D01*
X214165Y187467D01*
X214172Y187489D01*
X214171Y187522D01*
X214179Y187593D01*
X214179Y202476D01*
X214924Y203221D01*
X223976Y203221D01*
X224721Y202476D01*
X224721Y182950D01*
X224732Y182880D01*
X224734Y182808D01*
X224752Y182759D01*
X224760Y182708D01*
X224794Y182644D01*
X224819Y182577D01*
X224851Y182536D01*
X224876Y182490D01*
X224928Y182441D01*
X224972Y182385D01*
X225016Y182357D01*
X225054Y182321D01*
X225119Y182291D01*
X225179Y182252D01*
X225230Y182239D01*
X225277Y182217D01*
X225348Y182209D01*
X225418Y182192D01*
X225470Y182196D01*
X225521Y182190D01*
X225592Y182205D01*
X225663Y182211D01*
X225711Y182231D01*
X225762Y182242D01*
X225823Y182279D01*
X225889Y182307D01*
X225945Y182352D01*
X225973Y182369D01*
X225988Y182386D01*
X226020Y182412D01*
X227802Y184194D01*
X228167Y184194D01*
X228257Y184208D01*
X228348Y184216D01*
X228378Y184228D01*
X228410Y184233D01*
X228491Y184276D01*
X228574Y184312D01*
X228607Y184338D01*
X228627Y184349D01*
X228649Y184372D01*
X228705Y184417D01*
X233956Y189668D01*
X234009Y189742D01*
X234069Y189811D01*
X234081Y189841D01*
X234100Y189867D01*
X234127Y189954D01*
X234161Y190039D01*
X234165Y190080D01*
X234172Y190102D01*
X234171Y190135D01*
X234179Y190206D01*
X234179Y202476D01*
X234924Y203221D01*
X243976Y203221D01*
X244721Y202476D01*
X244721Y181299D01*
X244708Y181273D01*
X244703Y181221D01*
X244687Y181172D01*
X244689Y181100D01*
X244681Y181029D01*
X244692Y180978D01*
X244694Y180926D01*
X244718Y180858D01*
X244734Y180788D01*
X244760Y180744D01*
X244778Y180695D01*
X244823Y180639D01*
X244860Y180577D01*
X244899Y180543D01*
X244932Y180503D01*
X244992Y180464D01*
X245047Y180417D01*
X245095Y180398D01*
X245139Y180370D01*
X245208Y180352D01*
X245275Y180325D01*
X245346Y180317D01*
X245377Y180309D01*
X245400Y180311D01*
X245442Y180307D01*
X248198Y180307D01*
X251307Y177198D01*
X251307Y172802D01*
X248198Y169693D01*
X244220Y169693D01*
X244130Y169679D01*
X244039Y169671D01*
X244009Y169659D01*
X243977Y169654D01*
X243896Y169611D01*
X243813Y169575D01*
X243780Y169549D01*
X243760Y169538D01*
X243738Y169515D01*
X243682Y169470D01*
X243557Y169345D01*
X225032Y169345D01*
X225012Y169342D01*
X224993Y169344D01*
X224891Y169322D01*
X224789Y169306D01*
X224772Y169296D01*
X224752Y169292D01*
X224663Y169239D01*
X224572Y169190D01*
X224558Y169176D01*
X224541Y169166D01*
X224474Y169087D01*
X224402Y169012D01*
X224394Y168994D01*
X224381Y168979D01*
X224342Y168883D01*
X224299Y168789D01*
X224297Y168769D01*
X224289Y168751D01*
X224271Y168584D01*
X224271Y157474D01*
X223526Y156729D01*
X214419Y156729D01*
X214329Y156715D01*
X214238Y156707D01*
X214209Y156695D01*
X214177Y156690D01*
X214096Y156647D01*
X214012Y156611D01*
X213980Y156585D01*
X213959Y156574D01*
X213937Y156551D01*
X213881Y156506D01*
X211745Y154370D01*
X211703Y154312D01*
X211654Y154260D01*
X211632Y154213D01*
X211601Y154171D01*
X211580Y154102D01*
X211550Y154037D01*
X211544Y153985D01*
X211529Y153935D01*
X211531Y153864D01*
X211523Y153793D01*
X211534Y153742D01*
X211535Y153690D01*
X211560Y153622D01*
X211575Y153552D01*
X211602Y153508D01*
X211620Y153459D01*
X211665Y153403D01*
X211701Y153341D01*
X211741Y153307D01*
X211774Y153267D01*
X211834Y153228D01*
X211888Y153181D01*
X211937Y153162D01*
X211981Y153134D01*
X212050Y153116D01*
X212117Y153089D01*
X212188Y153081D01*
X212219Y153073D01*
X212242Y153075D01*
X212283Y153071D01*
X217874Y153071D01*
X218462Y152483D01*
X218478Y152471D01*
X218490Y152455D01*
X218578Y152399D01*
X218661Y152339D01*
X218680Y152333D01*
X218697Y152322D01*
X218798Y152297D01*
X218897Y152267D01*
X218916Y152267D01*
X218936Y152262D01*
X219039Y152270D01*
X219142Y152273D01*
X219161Y152280D01*
X219181Y152282D01*
X219276Y152322D01*
X219373Y152358D01*
X219389Y152370D01*
X219407Y152378D01*
X219538Y152483D01*
X220126Y153071D01*
X225874Y153071D01*
X227021Y151924D01*
X227021Y135676D01*
X226526Y135181D01*
X226473Y135107D01*
X226413Y135038D01*
X226401Y135008D01*
X226382Y134982D01*
X226355Y134895D01*
X226321Y134810D01*
X226317Y134769D01*
X226310Y134747D01*
X226311Y134714D01*
X226303Y134643D01*
X226303Y121035D01*
X224145Y118878D01*
X202122Y96855D01*
X199965Y94697D01*
X187632Y94697D01*
G37*
%LPD*%
G36*
X66020Y59242D02*
X66020Y59242D01*
X66039Y59240D01*
X66141Y59262D01*
X66243Y59279D01*
X66260Y59288D01*
X66280Y59292D01*
X66369Y59345D01*
X66460Y59394D01*
X66474Y59408D01*
X66491Y59418D01*
X66558Y59497D01*
X66630Y59572D01*
X66638Y59590D01*
X66651Y59605D01*
X66690Y59701D01*
X66733Y59795D01*
X66735Y59815D01*
X66743Y59833D01*
X66761Y60000D01*
X66761Y124000D01*
X66758Y124020D01*
X66760Y124039D01*
X66738Y124141D01*
X66722Y124243D01*
X66712Y124260D01*
X66708Y124280D01*
X66655Y124369D01*
X66606Y124460D01*
X66592Y124474D01*
X66582Y124491D01*
X66503Y124558D01*
X66428Y124630D01*
X66410Y124638D01*
X66395Y124651D01*
X66299Y124690D01*
X66205Y124733D01*
X66185Y124735D01*
X66167Y124743D01*
X66000Y124761D01*
X44761Y124761D01*
X44761Y138000D01*
X44758Y138020D01*
X44760Y138039D01*
X44738Y138141D01*
X44722Y138243D01*
X44712Y138260D01*
X44708Y138280D01*
X44655Y138369D01*
X44606Y138460D01*
X44592Y138474D01*
X44582Y138491D01*
X44503Y138558D01*
X44428Y138630D01*
X44410Y138638D01*
X44395Y138651D01*
X44299Y138690D01*
X44205Y138733D01*
X44185Y138735D01*
X44167Y138743D01*
X44000Y138761D01*
X28000Y138761D01*
X27980Y138758D01*
X27961Y138760D01*
X27859Y138738D01*
X27757Y138722D01*
X27740Y138712D01*
X27720Y138708D01*
X27631Y138655D01*
X27540Y138606D01*
X27526Y138592D01*
X27509Y138582D01*
X27442Y138503D01*
X27371Y138428D01*
X27362Y138410D01*
X27349Y138395D01*
X27310Y138299D01*
X27267Y138205D01*
X27265Y138185D01*
X27257Y138167D01*
X27239Y138000D01*
X27239Y107382D01*
X27250Y107312D01*
X27252Y107240D01*
X27270Y107191D01*
X27279Y107140D01*
X27312Y107076D01*
X27337Y107009D01*
X27369Y106968D01*
X27394Y106922D01*
X27446Y106873D01*
X27490Y106817D01*
X27534Y106789D01*
X27572Y106753D01*
X27637Y106723D01*
X27697Y106684D01*
X27748Y106671D01*
X27795Y106649D01*
X27866Y106641D01*
X27936Y106624D01*
X27988Y106628D01*
X28039Y106622D01*
X28110Y106637D01*
X28181Y106643D01*
X28229Y106663D01*
X28280Y106674D01*
X28341Y106711D01*
X28407Y106739D01*
X28463Y106784D01*
X28491Y106801D01*
X28506Y106818D01*
X28538Y106844D01*
X30001Y108307D01*
X34397Y108307D01*
X36242Y106462D01*
X36316Y106409D01*
X36386Y106349D01*
X36416Y106337D01*
X36442Y106318D01*
X36529Y106291D01*
X36614Y106257D01*
X36655Y106253D01*
X36677Y106246D01*
X36709Y106247D01*
X36780Y106239D01*
X40239Y106239D01*
X40239Y60000D01*
X40242Y59980D01*
X40240Y59961D01*
X40262Y59859D01*
X40279Y59757D01*
X40288Y59740D01*
X40292Y59720D01*
X40345Y59631D01*
X40394Y59540D01*
X40408Y59526D01*
X40418Y59509D01*
X40497Y59442D01*
X40572Y59371D01*
X40590Y59362D01*
X40605Y59349D01*
X40701Y59310D01*
X40795Y59267D01*
X40815Y59265D01*
X40833Y59257D01*
X41000Y59239D01*
X66000Y59239D01*
X66020Y59242D01*
G37*
G36*
X65020Y141242D02*
X65020Y141242D01*
X65039Y141240D01*
X65141Y141262D01*
X65243Y141279D01*
X65260Y141288D01*
X65280Y141292D01*
X65369Y141345D01*
X65460Y141394D01*
X65474Y141408D01*
X65491Y141418D01*
X65558Y141497D01*
X65630Y141572D01*
X65638Y141590D01*
X65651Y141605D01*
X65690Y141701D01*
X65733Y141795D01*
X65735Y141815D01*
X65743Y141833D01*
X65761Y142000D01*
X65761Y183000D01*
X65758Y183020D01*
X65760Y183039D01*
X65738Y183141D01*
X65722Y183243D01*
X65712Y183260D01*
X65708Y183280D01*
X65655Y183369D01*
X65606Y183460D01*
X65592Y183474D01*
X65582Y183491D01*
X65503Y183558D01*
X65428Y183630D01*
X65410Y183638D01*
X65395Y183651D01*
X65299Y183690D01*
X65205Y183733D01*
X65185Y183735D01*
X65167Y183743D01*
X65000Y183761D01*
X48078Y183761D01*
X47988Y183747D01*
X47897Y183739D01*
X47867Y183727D01*
X47835Y183722D01*
X47754Y183679D01*
X47670Y183643D01*
X47638Y183617D01*
X47618Y183606D01*
X47595Y183583D01*
X47539Y183538D01*
X46000Y181999D01*
X28000Y181999D01*
X27980Y181996D01*
X27961Y181998D01*
X27859Y181976D01*
X27757Y181960D01*
X27740Y181950D01*
X27720Y181946D01*
X27631Y181893D01*
X27540Y181844D01*
X27526Y181830D01*
X27509Y181820D01*
X27442Y181741D01*
X27371Y181666D01*
X27362Y181648D01*
X27349Y181633D01*
X27310Y181537D01*
X27267Y181443D01*
X27265Y181423D01*
X27257Y181405D01*
X27239Y181238D01*
X27239Y171334D01*
X27254Y171244D01*
X27261Y171153D01*
X27273Y171124D01*
X27279Y171092D01*
X27321Y171011D01*
X27357Y170927D01*
X27383Y170895D01*
X27394Y170874D01*
X27417Y170852D01*
X27462Y170796D01*
X27796Y170462D01*
X27870Y170409D01*
X27939Y170349D01*
X27970Y170337D01*
X27996Y170318D01*
X28083Y170291D01*
X28168Y170257D01*
X28209Y170253D01*
X28231Y170246D01*
X28263Y170247D01*
X28334Y170239D01*
X46239Y170239D01*
X46239Y148761D01*
X30000Y148761D01*
X29980Y148758D01*
X29961Y148760D01*
X29859Y148738D01*
X29757Y148722D01*
X29740Y148712D01*
X29720Y148708D01*
X29631Y148655D01*
X29540Y148606D01*
X29526Y148592D01*
X29509Y148582D01*
X29442Y148503D01*
X29371Y148428D01*
X29362Y148410D01*
X29349Y148395D01*
X29310Y148299D01*
X29267Y148205D01*
X29265Y148185D01*
X29257Y148167D01*
X29239Y148000D01*
X29239Y142000D01*
X29242Y141980D01*
X29240Y141961D01*
X29262Y141859D01*
X29279Y141757D01*
X29288Y141740D01*
X29292Y141720D01*
X29345Y141631D01*
X29394Y141540D01*
X29408Y141526D01*
X29418Y141509D01*
X29497Y141442D01*
X29572Y141371D01*
X29590Y141362D01*
X29605Y141349D01*
X29701Y141310D01*
X29795Y141267D01*
X29815Y141265D01*
X29833Y141257D01*
X30000Y141239D01*
X65000Y141239D01*
X65020Y141242D01*
G37*
%LPC*%
G36*
X386032Y279797D02*
X386032Y279797D01*
X376323Y289506D01*
X376249Y289559D01*
X376180Y289619D01*
X376149Y289631D01*
X376123Y289650D01*
X376036Y289677D01*
X375951Y289711D01*
X375910Y289715D01*
X375888Y289722D01*
X375856Y289721D01*
X375785Y289729D01*
X368474Y289729D01*
X367729Y290474D01*
X367729Y302526D01*
X368474Y303271D01*
X379526Y303271D01*
X380271Y302526D01*
X380271Y295215D01*
X380285Y295125D01*
X380293Y295034D01*
X380305Y295005D01*
X380310Y294973D01*
X380353Y294892D01*
X380389Y294808D01*
X380415Y294776D01*
X380426Y294755D01*
X380449Y294733D01*
X380494Y294677D01*
X388545Y286626D01*
X388619Y286573D01*
X388688Y286513D01*
X388719Y286501D01*
X388745Y286482D01*
X388832Y286455D01*
X388917Y286421D01*
X388958Y286417D01*
X388980Y286410D01*
X389012Y286411D01*
X389083Y286403D01*
X390366Y286403D01*
X390437Y286414D01*
X390509Y286416D01*
X390557Y286434D01*
X390609Y286442D01*
X390672Y286476D01*
X390740Y286501D01*
X390780Y286533D01*
X390826Y286558D01*
X390876Y286610D01*
X390932Y286654D01*
X390960Y286698D01*
X390996Y286736D01*
X391026Y286801D01*
X391065Y286861D01*
X391077Y286912D01*
X391099Y286959D01*
X391107Y287030D01*
X391125Y287100D01*
X391121Y287152D01*
X391126Y287203D01*
X391111Y287274D01*
X391105Y287345D01*
X391085Y287393D01*
X391074Y287444D01*
X391037Y287505D01*
X391009Y287571D01*
X390964Y287627D01*
X390948Y287655D01*
X390930Y287670D01*
X390904Y287702D01*
X390543Y288064D01*
X389189Y291332D01*
X389189Y294868D01*
X390543Y298136D01*
X393044Y300637D01*
X396312Y301991D01*
X415088Y301991D01*
X418356Y300637D01*
X420857Y298136D01*
X422211Y294868D01*
X422211Y291332D01*
X420857Y288064D01*
X418356Y285563D01*
X415088Y284209D01*
X401795Y284209D01*
X401705Y284195D01*
X401614Y284187D01*
X401585Y284175D01*
X401553Y284170D01*
X401472Y284127D01*
X401388Y284091D01*
X401356Y284065D01*
X401335Y284054D01*
X401313Y284031D01*
X401257Y283986D01*
X397068Y279797D01*
X386032Y279797D01*
G37*
%LPD*%
G36*
X6753Y104242D02*
X6753Y104242D01*
X6772Y104240D01*
X6874Y104262D01*
X6976Y104279D01*
X6993Y104288D01*
X7013Y104292D01*
X7102Y104345D01*
X7193Y104394D01*
X7207Y104408D01*
X7224Y104418D01*
X7291Y104497D01*
X7363Y104572D01*
X7371Y104590D01*
X7384Y104605D01*
X7423Y104701D01*
X7466Y104795D01*
X7468Y104815D01*
X7476Y104833D01*
X7494Y105000D01*
X7494Y105198D01*
X10603Y108307D01*
X14999Y108307D01*
X18108Y105198D01*
X18108Y105000D01*
X18111Y104980D01*
X18109Y104961D01*
X18131Y104859D01*
X18147Y104757D01*
X18157Y104740D01*
X18161Y104720D01*
X18214Y104631D01*
X18263Y104540D01*
X18277Y104526D01*
X18287Y104509D01*
X18366Y104442D01*
X18441Y104371D01*
X18459Y104362D01*
X18474Y104349D01*
X18570Y104310D01*
X18664Y104267D01*
X18684Y104265D01*
X18702Y104257D01*
X18869Y104239D01*
X22000Y104239D01*
X22020Y104242D01*
X22039Y104240D01*
X22141Y104262D01*
X22243Y104279D01*
X22260Y104288D01*
X22280Y104292D01*
X22369Y104345D01*
X22460Y104394D01*
X22474Y104408D01*
X22491Y104418D01*
X22558Y104497D01*
X22630Y104572D01*
X22638Y104590D01*
X22651Y104605D01*
X22690Y104701D01*
X22733Y104795D01*
X22735Y104815D01*
X22743Y104833D01*
X22761Y105000D01*
X22761Y150000D01*
X22758Y150020D01*
X22760Y150039D01*
X22738Y150141D01*
X22722Y150243D01*
X22712Y150260D01*
X22708Y150280D01*
X22655Y150369D01*
X22606Y150460D01*
X22592Y150474D01*
X22582Y150491D01*
X22503Y150558D01*
X22428Y150630D01*
X22410Y150638D01*
X22395Y150651D01*
X22299Y150690D01*
X22205Y150733D01*
X22185Y150735D01*
X22167Y150743D01*
X22000Y150761D01*
X21105Y150761D01*
X21015Y150747D01*
X20924Y150739D01*
X20895Y150727D01*
X20863Y150722D01*
X20782Y150679D01*
X20698Y150643D01*
X20666Y150617D01*
X20645Y150606D01*
X20623Y150583D01*
X20567Y150538D01*
X19758Y149729D01*
X8705Y149729D01*
X7896Y150538D01*
X7822Y150591D01*
X7753Y150651D01*
X7723Y150663D01*
X7697Y150682D01*
X7610Y150709D01*
X7525Y150743D01*
X7484Y150747D01*
X7462Y150754D01*
X7429Y150753D01*
X7358Y150761D01*
X5000Y150761D01*
X4980Y150758D01*
X4961Y150760D01*
X4859Y150738D01*
X4757Y150722D01*
X4740Y150712D01*
X4720Y150708D01*
X4631Y150655D01*
X4540Y150606D01*
X4526Y150592D01*
X4509Y150582D01*
X4442Y150503D01*
X4371Y150428D01*
X4362Y150410D01*
X4349Y150395D01*
X4310Y150299D01*
X4267Y150205D01*
X4265Y150185D01*
X4257Y150167D01*
X4239Y150000D01*
X4239Y105000D01*
X4242Y104980D01*
X4240Y104961D01*
X4262Y104859D01*
X4279Y104757D01*
X4288Y104740D01*
X4292Y104720D01*
X4345Y104631D01*
X4394Y104540D01*
X4408Y104526D01*
X4418Y104509D01*
X4497Y104442D01*
X4572Y104371D01*
X4590Y104362D01*
X4605Y104349D01*
X4701Y104310D01*
X4795Y104267D01*
X4815Y104265D01*
X4833Y104257D01*
X5000Y104239D01*
X6733Y104239D01*
X6753Y104242D01*
G37*
%LPC*%
G36*
X396312Y208009D02*
X396312Y208009D01*
X393044Y209363D01*
X390543Y211864D01*
X389189Y215132D01*
X389189Y218668D01*
X390543Y221936D01*
X393044Y224437D01*
X396312Y225791D01*
X415088Y225791D01*
X418356Y224437D01*
X420857Y221936D01*
X422211Y218668D01*
X422211Y215132D01*
X420857Y211864D01*
X418356Y209363D01*
X415088Y208009D01*
X396312Y208009D01*
G37*
%LPD*%
%LPC*%
G36*
X396312Y182609D02*
X396312Y182609D01*
X393044Y183963D01*
X390543Y186464D01*
X389189Y189732D01*
X389189Y193268D01*
X390543Y196536D01*
X393044Y199037D01*
X396312Y200391D01*
X415088Y200391D01*
X418356Y199037D01*
X420857Y196536D01*
X422211Y193268D01*
X422211Y189732D01*
X420857Y186464D01*
X418356Y183963D01*
X415088Y182609D01*
X396312Y182609D01*
G37*
%LPD*%
%LPC*%
G36*
X396312Y157209D02*
X396312Y157209D01*
X393044Y158563D01*
X390543Y161064D01*
X389189Y164332D01*
X389189Y167868D01*
X390543Y171136D01*
X393044Y173637D01*
X396312Y174991D01*
X415088Y174991D01*
X418356Y173637D01*
X420857Y171136D01*
X422211Y167868D01*
X422211Y164332D01*
X420857Y161064D01*
X418356Y158563D01*
X415088Y157209D01*
X396312Y157209D01*
G37*
%LPD*%
%LPC*%
G36*
X288672Y176220D02*
X288672Y176220D01*
X286629Y177066D01*
X285066Y178629D01*
X284412Y180209D01*
X284350Y180309D01*
X284290Y180409D01*
X284286Y180413D01*
X284282Y180418D01*
X284192Y180493D01*
X284103Y180569D01*
X284098Y180571D01*
X284093Y180575D01*
X283984Y180617D01*
X283875Y180661D01*
X283868Y180662D01*
X283863Y180663D01*
X283845Y180664D01*
X283708Y180679D01*
X274924Y180679D01*
X274179Y181424D01*
X274179Y202476D01*
X274924Y203221D01*
X283976Y203221D01*
X284721Y202476D01*
X284721Y191665D01*
X284735Y191575D01*
X284743Y191484D01*
X284755Y191455D01*
X284760Y191423D01*
X284803Y191342D01*
X284839Y191258D01*
X284865Y191226D01*
X284876Y191205D01*
X284899Y191183D01*
X284944Y191127D01*
X288514Y187557D01*
X288588Y187504D01*
X288657Y187444D01*
X288688Y187432D01*
X288714Y187413D01*
X288801Y187386D01*
X288886Y187352D01*
X288927Y187348D01*
X288949Y187341D01*
X288981Y187342D01*
X289052Y187334D01*
X290882Y187334D01*
X292925Y186488D01*
X294488Y184925D01*
X295334Y182882D01*
X295334Y180672D01*
X294488Y178629D01*
X292925Y177066D01*
X290882Y176220D01*
X288672Y176220D01*
G37*
%LPD*%
%LPC*%
G36*
X356924Y327929D02*
X356924Y327929D01*
X356179Y328674D01*
X356179Y336837D01*
X356168Y336907D01*
X356166Y336979D01*
X356148Y337028D01*
X356140Y337079D01*
X356106Y337143D01*
X356081Y337210D01*
X356049Y337251D01*
X356024Y337297D01*
X355972Y337346D01*
X355928Y337402D01*
X355884Y337430D01*
X355846Y337466D01*
X355781Y337496D01*
X355721Y337535D01*
X355670Y337548D01*
X355623Y337570D01*
X355552Y337578D01*
X355482Y337595D01*
X355430Y337591D01*
X355379Y337597D01*
X355308Y337582D01*
X355237Y337576D01*
X355189Y337556D01*
X355138Y337545D01*
X355077Y337508D01*
X355011Y337480D01*
X354955Y337435D01*
X354927Y337418D01*
X354912Y337401D01*
X354880Y337375D01*
X352198Y334693D01*
X347802Y334693D01*
X344693Y337802D01*
X344693Y342198D01*
X347802Y345307D01*
X352198Y345307D01*
X355249Y342256D01*
X355323Y342203D01*
X355393Y342143D01*
X355423Y342131D01*
X355449Y342112D01*
X355536Y342085D01*
X355621Y342051D01*
X355662Y342047D01*
X355684Y342040D01*
X355716Y342041D01*
X355787Y342033D01*
X357992Y342033D01*
X359331Y340694D01*
X359405Y340641D01*
X359474Y340581D01*
X359505Y340569D01*
X359531Y340550D01*
X359618Y340523D01*
X359703Y340489D01*
X359744Y340485D01*
X359766Y340478D01*
X359798Y340479D01*
X359869Y340471D01*
X368976Y340471D01*
X369721Y339726D01*
X369721Y328674D01*
X368976Y327929D01*
X356924Y327929D01*
G37*
%LPD*%
%LPC*%
G36*
X245802Y31693D02*
X245802Y31693D01*
X242693Y34802D01*
X242693Y39198D01*
X244474Y40979D01*
X244527Y41053D01*
X244587Y41123D01*
X244599Y41153D01*
X244618Y41179D01*
X244645Y41266D01*
X244679Y41351D01*
X244683Y41392D01*
X244690Y41414D01*
X244689Y41446D01*
X244697Y41517D01*
X244697Y42218D01*
X244694Y42238D01*
X244696Y42257D01*
X244674Y42359D01*
X244658Y42461D01*
X244648Y42478D01*
X244644Y42498D01*
X244591Y42587D01*
X244542Y42678D01*
X244528Y42692D01*
X244518Y42709D01*
X244439Y42776D01*
X244364Y42848D01*
X244346Y42856D01*
X244331Y42869D01*
X244235Y42908D01*
X244141Y42951D01*
X244121Y42953D01*
X244103Y42961D01*
X243936Y42979D01*
X239676Y42979D01*
X238529Y44126D01*
X238529Y49874D01*
X239676Y51021D01*
X255924Y51021D01*
X257071Y49874D01*
X257071Y44126D01*
X255924Y42979D01*
X252064Y42979D01*
X252044Y42976D01*
X252025Y42978D01*
X251923Y42956D01*
X251821Y42940D01*
X251804Y42930D01*
X251784Y42926D01*
X251695Y42873D01*
X251604Y42824D01*
X251590Y42810D01*
X251573Y42800D01*
X251506Y42721D01*
X251434Y42646D01*
X251426Y42628D01*
X251413Y42613D01*
X251374Y42517D01*
X251331Y42423D01*
X251329Y42403D01*
X251321Y42385D01*
X251303Y42218D01*
X251303Y41517D01*
X251317Y41427D01*
X251325Y41336D01*
X251337Y41307D01*
X251342Y41275D01*
X251385Y41194D01*
X251421Y41110D01*
X251447Y41078D01*
X251458Y41057D01*
X251481Y41035D01*
X251526Y40979D01*
X253307Y39198D01*
X253307Y34802D01*
X250198Y31693D01*
X245802Y31693D01*
G37*
%LPD*%
%LPC*%
G36*
X254924Y180679D02*
X254924Y180679D01*
X254179Y181424D01*
X254179Y202476D01*
X254924Y203221D01*
X263976Y203221D01*
X264721Y202476D01*
X264721Y181424D01*
X263976Y180679D01*
X254924Y180679D01*
G37*
%LPD*%
D10*
X398080Y318500D02*
X413320Y318500D01*
X413320Y293100D02*
X398080Y293100D01*
X398080Y267700D02*
X413320Y267700D01*
X413320Y242300D02*
X398080Y242300D01*
X398080Y216900D02*
X413320Y216900D01*
X413320Y191500D02*
X398080Y191500D01*
X398080Y166100D02*
X413320Y166100D01*
D11*
X279450Y353950D03*
X259450Y353950D03*
X239450Y353950D03*
X219450Y353950D03*
X199450Y353950D03*
X179450Y353950D03*
X159450Y353950D03*
X139450Y353950D03*
X139450Y191950D03*
X159450Y191950D03*
X179450Y191950D03*
X199450Y191950D03*
X219450Y191950D03*
X239450Y191950D03*
X259450Y191950D03*
X279450Y191950D03*
D12*
X379950Y334200D03*
X362950Y334200D03*
X201400Y374600D03*
X218400Y374600D03*
D13*
X410000Y350000D03*
D14*
X36222Y145000D03*
X14232Y145000D03*
X36222Y135500D03*
X14232Y135500D03*
X36222Y154500D03*
X14232Y154500D03*
D12*
X16727Y115000D03*
X33727Y115000D03*
X18047Y177000D03*
X35047Y177000D03*
D15*
X92550Y109000D03*
X57450Y109000D03*
X92550Y73000D03*
X57450Y73000D03*
D16*
X59500Y159000D03*
X106500Y159000D03*
D17*
X29000Y41750D03*
X35500Y41750D03*
X42000Y41750D03*
X48500Y41750D03*
X55000Y41750D03*
D18*
X10000Y39500D03*
X74000Y39500D03*
D19*
X30000Y15000D03*
X54000Y15000D03*
D20*
X9000Y10500D02*
X9000Y19500D01*
X75000Y19500D02*
X75000Y10500D01*
D12*
X111950Y43000D03*
X94950Y43000D03*
D21*
X153063Y37513D02*
X153063Y22887D01*
X148937Y22887D01*
X148937Y37513D01*
X153063Y37513D01*
X153063Y24193D02*
X148937Y24193D01*
X148937Y25499D02*
X153063Y25499D01*
X153063Y26805D02*
X148937Y26805D01*
X148937Y28111D02*
X153063Y28111D01*
X153063Y29417D02*
X148937Y29417D01*
X148937Y30723D02*
X153063Y30723D01*
X153063Y32029D02*
X148937Y32029D01*
X148937Y33335D02*
X153063Y33335D01*
X153063Y34641D02*
X148937Y34641D01*
X148937Y35947D02*
X153063Y35947D01*
X153063Y37253D02*
X148937Y37253D01*
X161063Y37513D02*
X161063Y22887D01*
X156937Y22887D01*
X156937Y37513D01*
X161063Y37513D01*
X161063Y24193D02*
X156937Y24193D01*
X156937Y25499D02*
X161063Y25499D01*
X161063Y26805D02*
X156937Y26805D01*
X156937Y28111D02*
X161063Y28111D01*
X161063Y29417D02*
X156937Y29417D01*
X156937Y30723D02*
X161063Y30723D01*
X161063Y32029D02*
X156937Y32029D01*
X156937Y33335D02*
X161063Y33335D01*
X161063Y34641D02*
X156937Y34641D01*
X156937Y35947D02*
X161063Y35947D01*
X161063Y37253D02*
X156937Y37253D01*
X169063Y37513D02*
X169063Y22887D01*
X164937Y22887D01*
X164937Y37513D01*
X169063Y37513D01*
X169063Y24193D02*
X164937Y24193D01*
X164937Y25499D02*
X169063Y25499D01*
X169063Y26805D02*
X164937Y26805D01*
X164937Y28111D02*
X169063Y28111D01*
X169063Y29417D02*
X164937Y29417D01*
X164937Y30723D02*
X169063Y30723D01*
X169063Y32029D02*
X164937Y32029D01*
X164937Y33335D02*
X169063Y33335D01*
X169063Y34641D02*
X164937Y34641D01*
X164937Y35947D02*
X169063Y35947D01*
X169063Y37253D02*
X164937Y37253D01*
X177063Y37513D02*
X177063Y22887D01*
X172937Y22887D01*
X172937Y37513D01*
X177063Y37513D01*
X177063Y24193D02*
X172937Y24193D01*
X172937Y25499D02*
X177063Y25499D01*
X177063Y26805D02*
X172937Y26805D01*
X172937Y28111D02*
X177063Y28111D01*
X177063Y29417D02*
X172937Y29417D01*
X172937Y30723D02*
X177063Y30723D01*
X177063Y32029D02*
X172937Y32029D01*
X172937Y33335D02*
X177063Y33335D01*
X177063Y34641D02*
X172937Y34641D01*
X172937Y35947D02*
X177063Y35947D01*
X177063Y37253D02*
X172937Y37253D01*
X185063Y37513D02*
X185063Y22887D01*
X180937Y22887D01*
X180937Y37513D01*
X185063Y37513D01*
X185063Y24193D02*
X180937Y24193D01*
X180937Y25499D02*
X185063Y25499D01*
X185063Y26805D02*
X180937Y26805D01*
X180937Y28111D02*
X185063Y28111D01*
X185063Y29417D02*
X180937Y29417D01*
X180937Y30723D02*
X185063Y30723D01*
X185063Y32029D02*
X180937Y32029D01*
X180937Y33335D02*
X185063Y33335D01*
X185063Y34641D02*
X180937Y34641D01*
X180937Y35947D02*
X185063Y35947D01*
X185063Y37253D02*
X180937Y37253D01*
X193063Y37513D02*
X193063Y22887D01*
X188937Y22887D01*
X188937Y37513D01*
X193063Y37513D01*
X193063Y24193D02*
X188937Y24193D01*
X188937Y25499D02*
X193063Y25499D01*
X193063Y26805D02*
X188937Y26805D01*
X188937Y28111D02*
X193063Y28111D01*
X193063Y29417D02*
X188937Y29417D01*
X188937Y30723D02*
X193063Y30723D01*
X193063Y32029D02*
X188937Y32029D01*
X188937Y33335D02*
X193063Y33335D01*
X193063Y34641D02*
X188937Y34641D01*
X188937Y35947D02*
X193063Y35947D01*
X193063Y37253D02*
X188937Y37253D01*
X201063Y37513D02*
X201063Y22887D01*
X196937Y22887D01*
X196937Y37513D01*
X201063Y37513D01*
X201063Y24193D02*
X196937Y24193D01*
X196937Y25499D02*
X201063Y25499D01*
X201063Y26805D02*
X196937Y26805D01*
X196937Y28111D02*
X201063Y28111D01*
X201063Y29417D02*
X196937Y29417D01*
X196937Y30723D02*
X201063Y30723D01*
X201063Y32029D02*
X196937Y32029D01*
X196937Y33335D02*
X201063Y33335D01*
X201063Y34641D02*
X196937Y34641D01*
X196937Y35947D02*
X201063Y35947D01*
X201063Y37253D02*
X196937Y37253D01*
X209063Y37513D02*
X209063Y22887D01*
X204937Y22887D01*
X204937Y37513D01*
X209063Y37513D01*
X209063Y24193D02*
X204937Y24193D01*
X204937Y25499D02*
X209063Y25499D01*
X209063Y26805D02*
X204937Y26805D01*
X204937Y28111D02*
X209063Y28111D01*
X209063Y29417D02*
X204937Y29417D01*
X204937Y30723D02*
X209063Y30723D01*
X209063Y32029D02*
X204937Y32029D01*
X204937Y33335D02*
X209063Y33335D01*
X209063Y34641D02*
X204937Y34641D01*
X204937Y35947D02*
X209063Y35947D01*
X209063Y37253D02*
X204937Y37253D01*
X217063Y37513D02*
X217063Y22887D01*
X212937Y22887D01*
X212937Y37513D01*
X217063Y37513D01*
X217063Y24193D02*
X212937Y24193D01*
X212937Y25499D02*
X217063Y25499D01*
X217063Y26805D02*
X212937Y26805D01*
X212937Y28111D02*
X217063Y28111D01*
X217063Y29417D02*
X212937Y29417D01*
X212937Y30723D02*
X217063Y30723D01*
X217063Y32029D02*
X212937Y32029D01*
X212937Y33335D02*
X217063Y33335D01*
X217063Y34641D02*
X212937Y34641D01*
X212937Y35947D02*
X217063Y35947D01*
X217063Y37253D02*
X212937Y37253D01*
X225063Y37513D02*
X225063Y22887D01*
X220937Y22887D01*
X220937Y37513D01*
X225063Y37513D01*
X225063Y24193D02*
X220937Y24193D01*
X220937Y25499D02*
X225063Y25499D01*
X225063Y26805D02*
X220937Y26805D01*
X220937Y28111D02*
X225063Y28111D01*
X225063Y29417D02*
X220937Y29417D01*
X220937Y30723D02*
X225063Y30723D01*
X225063Y32029D02*
X220937Y32029D01*
X220937Y33335D02*
X225063Y33335D01*
X225063Y34641D02*
X220937Y34641D01*
X220937Y35947D02*
X225063Y35947D01*
X225063Y37253D02*
X220937Y37253D01*
X233063Y37513D02*
X233063Y22887D01*
X228937Y22887D01*
X228937Y37513D01*
X233063Y37513D01*
X233063Y24193D02*
X228937Y24193D01*
X228937Y25499D02*
X233063Y25499D01*
X233063Y26805D02*
X228937Y26805D01*
X228937Y28111D02*
X233063Y28111D01*
X233063Y29417D02*
X228937Y29417D01*
X228937Y30723D02*
X233063Y30723D01*
X233063Y32029D02*
X228937Y32029D01*
X228937Y33335D02*
X233063Y33335D01*
X233063Y34641D02*
X228937Y34641D01*
X228937Y35947D02*
X233063Y35947D01*
X233063Y37253D02*
X228937Y37253D01*
X233063Y136487D02*
X233063Y151113D01*
X233063Y136487D02*
X228937Y136487D01*
X228937Y151113D01*
X233063Y151113D01*
X233063Y137793D02*
X228937Y137793D01*
X228937Y139099D02*
X233063Y139099D01*
X233063Y140405D02*
X228937Y140405D01*
X228937Y141711D02*
X233063Y141711D01*
X233063Y143017D02*
X228937Y143017D01*
X228937Y144323D02*
X233063Y144323D01*
X233063Y145629D02*
X228937Y145629D01*
X228937Y146935D02*
X233063Y146935D01*
X233063Y148241D02*
X228937Y148241D01*
X228937Y149547D02*
X233063Y149547D01*
X233063Y150853D02*
X228937Y150853D01*
X225063Y151113D02*
X225063Y136487D01*
X220937Y136487D01*
X220937Y151113D01*
X225063Y151113D01*
X225063Y137793D02*
X220937Y137793D01*
X220937Y139099D02*
X225063Y139099D01*
X225063Y140405D02*
X220937Y140405D01*
X220937Y141711D02*
X225063Y141711D01*
X225063Y143017D02*
X220937Y143017D01*
X220937Y144323D02*
X225063Y144323D01*
X225063Y145629D02*
X220937Y145629D01*
X220937Y146935D02*
X225063Y146935D01*
X225063Y148241D02*
X220937Y148241D01*
X220937Y149547D02*
X225063Y149547D01*
X225063Y150853D02*
X220937Y150853D01*
X217063Y151113D02*
X217063Y136487D01*
X212937Y136487D01*
X212937Y151113D01*
X217063Y151113D01*
X217063Y137793D02*
X212937Y137793D01*
X212937Y139099D02*
X217063Y139099D01*
X217063Y140405D02*
X212937Y140405D01*
X212937Y141711D02*
X217063Y141711D01*
X217063Y143017D02*
X212937Y143017D01*
X212937Y144323D02*
X217063Y144323D01*
X217063Y145629D02*
X212937Y145629D01*
X212937Y146935D02*
X217063Y146935D01*
X217063Y148241D02*
X212937Y148241D01*
X212937Y149547D02*
X217063Y149547D01*
X217063Y150853D02*
X212937Y150853D01*
X209063Y151113D02*
X209063Y136487D01*
X204937Y136487D01*
X204937Y151113D01*
X209063Y151113D01*
X209063Y137793D02*
X204937Y137793D01*
X204937Y139099D02*
X209063Y139099D01*
X209063Y140405D02*
X204937Y140405D01*
X204937Y141711D02*
X209063Y141711D01*
X209063Y143017D02*
X204937Y143017D01*
X204937Y144323D02*
X209063Y144323D01*
X209063Y145629D02*
X204937Y145629D01*
X204937Y146935D02*
X209063Y146935D01*
X209063Y148241D02*
X204937Y148241D01*
X204937Y149547D02*
X209063Y149547D01*
X209063Y150853D02*
X204937Y150853D01*
X201063Y151113D02*
X201063Y136487D01*
X196937Y136487D01*
X196937Y151113D01*
X201063Y151113D01*
X201063Y137793D02*
X196937Y137793D01*
X196937Y139099D02*
X201063Y139099D01*
X201063Y140405D02*
X196937Y140405D01*
X196937Y141711D02*
X201063Y141711D01*
X201063Y143017D02*
X196937Y143017D01*
X196937Y144323D02*
X201063Y144323D01*
X201063Y145629D02*
X196937Y145629D01*
X196937Y146935D02*
X201063Y146935D01*
X201063Y148241D02*
X196937Y148241D01*
X196937Y149547D02*
X201063Y149547D01*
X201063Y150853D02*
X196937Y150853D01*
X193063Y151113D02*
X193063Y136487D01*
X188937Y136487D01*
X188937Y151113D01*
X193063Y151113D01*
X193063Y137793D02*
X188937Y137793D01*
X188937Y139099D02*
X193063Y139099D01*
X193063Y140405D02*
X188937Y140405D01*
X188937Y141711D02*
X193063Y141711D01*
X193063Y143017D02*
X188937Y143017D01*
X188937Y144323D02*
X193063Y144323D01*
X193063Y145629D02*
X188937Y145629D01*
X188937Y146935D02*
X193063Y146935D01*
X193063Y148241D02*
X188937Y148241D01*
X188937Y149547D02*
X193063Y149547D01*
X193063Y150853D02*
X188937Y150853D01*
X185063Y151113D02*
X185063Y136487D01*
X180937Y136487D01*
X180937Y151113D01*
X185063Y151113D01*
X185063Y137793D02*
X180937Y137793D01*
X180937Y139099D02*
X185063Y139099D01*
X185063Y140405D02*
X180937Y140405D01*
X180937Y141711D02*
X185063Y141711D01*
X185063Y143017D02*
X180937Y143017D01*
X180937Y144323D02*
X185063Y144323D01*
X185063Y145629D02*
X180937Y145629D01*
X180937Y146935D02*
X185063Y146935D01*
X185063Y148241D02*
X180937Y148241D01*
X180937Y149547D02*
X185063Y149547D01*
X185063Y150853D02*
X180937Y150853D01*
X177063Y151113D02*
X177063Y136487D01*
X172937Y136487D01*
X172937Y151113D01*
X177063Y151113D01*
X177063Y137793D02*
X172937Y137793D01*
X172937Y139099D02*
X177063Y139099D01*
X177063Y140405D02*
X172937Y140405D01*
X172937Y141711D02*
X177063Y141711D01*
X177063Y143017D02*
X172937Y143017D01*
X172937Y144323D02*
X177063Y144323D01*
X177063Y145629D02*
X172937Y145629D01*
X172937Y146935D02*
X177063Y146935D01*
X177063Y148241D02*
X172937Y148241D01*
X172937Y149547D02*
X177063Y149547D01*
X177063Y150853D02*
X172937Y150853D01*
X169063Y151113D02*
X169063Y136487D01*
X164937Y136487D01*
X164937Y151113D01*
X169063Y151113D01*
X169063Y137793D02*
X164937Y137793D01*
X164937Y139099D02*
X169063Y139099D01*
X169063Y140405D02*
X164937Y140405D01*
X164937Y141711D02*
X169063Y141711D01*
X169063Y143017D02*
X164937Y143017D01*
X164937Y144323D02*
X169063Y144323D01*
X169063Y145629D02*
X164937Y145629D01*
X164937Y146935D02*
X169063Y146935D01*
X169063Y148241D02*
X164937Y148241D01*
X164937Y149547D02*
X169063Y149547D01*
X169063Y150853D02*
X164937Y150853D01*
X161063Y151113D02*
X161063Y136487D01*
X156937Y136487D01*
X156937Y151113D01*
X161063Y151113D01*
X161063Y137793D02*
X156937Y137793D01*
X156937Y139099D02*
X161063Y139099D01*
X161063Y140405D02*
X156937Y140405D01*
X156937Y141711D02*
X161063Y141711D01*
X161063Y143017D02*
X156937Y143017D01*
X156937Y144323D02*
X161063Y144323D01*
X161063Y145629D02*
X156937Y145629D01*
X156937Y146935D02*
X161063Y146935D01*
X161063Y148241D02*
X156937Y148241D01*
X156937Y149547D02*
X161063Y149547D01*
X161063Y150853D02*
X156937Y150853D01*
X153063Y151113D02*
X153063Y136487D01*
X148937Y136487D01*
X148937Y151113D01*
X153063Y151113D01*
X153063Y137793D02*
X148937Y137793D01*
X148937Y139099D02*
X153063Y139099D01*
X153063Y140405D02*
X148937Y140405D01*
X148937Y141711D02*
X153063Y141711D01*
X153063Y143017D02*
X148937Y143017D01*
X148937Y144323D02*
X153063Y144323D01*
X153063Y145629D02*
X148937Y145629D01*
X148937Y146935D02*
X153063Y146935D01*
X153063Y148241D02*
X148937Y148241D01*
X148937Y149547D02*
X153063Y149547D01*
X153063Y150853D02*
X148937Y150853D01*
X141513Y124937D02*
X126887Y124937D01*
X126887Y129063D01*
X141513Y129063D01*
X141513Y124937D01*
X141513Y126243D02*
X126887Y126243D01*
X126887Y127549D02*
X141513Y127549D01*
X141513Y128855D02*
X126887Y128855D01*
X126887Y116937D02*
X141513Y116937D01*
X126887Y116937D02*
X126887Y121063D01*
X141513Y121063D01*
X141513Y116937D01*
X141513Y118243D02*
X126887Y118243D01*
X126887Y119549D02*
X141513Y119549D01*
X141513Y120855D02*
X126887Y120855D01*
X126887Y108937D02*
X141513Y108937D01*
X126887Y108937D02*
X126887Y113063D01*
X141513Y113063D01*
X141513Y108937D01*
X141513Y110243D02*
X126887Y110243D01*
X126887Y111549D02*
X141513Y111549D01*
X141513Y112855D02*
X126887Y112855D01*
X126887Y100937D02*
X141513Y100937D01*
X126887Y100937D02*
X126887Y105063D01*
X141513Y105063D01*
X141513Y100937D01*
X141513Y102243D02*
X126887Y102243D01*
X126887Y103549D02*
X141513Y103549D01*
X141513Y104855D02*
X126887Y104855D01*
X126887Y92937D02*
X141513Y92937D01*
X126887Y92937D02*
X126887Y97063D01*
X141513Y97063D01*
X141513Y92937D01*
X141513Y94243D02*
X126887Y94243D01*
X126887Y95549D02*
X141513Y95549D01*
X141513Y96855D02*
X126887Y96855D01*
X126887Y84937D02*
X141513Y84937D01*
X126887Y84937D02*
X126887Y89063D01*
X141513Y89063D01*
X141513Y84937D01*
X141513Y86243D02*
X126887Y86243D01*
X126887Y87549D02*
X141513Y87549D01*
X141513Y88855D02*
X126887Y88855D01*
X126887Y76937D02*
X141513Y76937D01*
X126887Y76937D02*
X126887Y81063D01*
X141513Y81063D01*
X141513Y76937D01*
X141513Y78243D02*
X126887Y78243D01*
X126887Y79549D02*
X141513Y79549D01*
X141513Y80855D02*
X126887Y80855D01*
X126887Y68937D02*
X141513Y68937D01*
X126887Y68937D02*
X126887Y73063D01*
X141513Y73063D01*
X141513Y68937D01*
X141513Y70243D02*
X126887Y70243D01*
X126887Y71549D02*
X141513Y71549D01*
X141513Y72855D02*
X126887Y72855D01*
X126887Y60937D02*
X141513Y60937D01*
X126887Y60937D02*
X126887Y65063D01*
X141513Y65063D01*
X141513Y60937D01*
X141513Y62243D02*
X126887Y62243D01*
X126887Y63549D02*
X141513Y63549D01*
X141513Y64855D02*
X126887Y64855D01*
X126887Y52937D02*
X141513Y52937D01*
X126887Y52937D02*
X126887Y57063D01*
X141513Y57063D01*
X141513Y52937D01*
X141513Y54243D02*
X126887Y54243D01*
X126887Y55549D02*
X141513Y55549D01*
X141513Y56855D02*
X126887Y56855D01*
X126887Y44937D02*
X141513Y44937D01*
X126887Y44937D02*
X126887Y49063D01*
X141513Y49063D01*
X141513Y44937D01*
X141513Y46243D02*
X126887Y46243D01*
X126887Y47549D02*
X141513Y47549D01*
X141513Y48855D02*
X126887Y48855D01*
X240487Y44937D02*
X255113Y44937D01*
X240487Y44937D02*
X240487Y49063D01*
X255113Y49063D01*
X255113Y44937D01*
X255113Y46243D02*
X240487Y46243D01*
X240487Y47549D02*
X255113Y47549D01*
X255113Y48855D02*
X240487Y48855D01*
X240487Y52937D02*
X255113Y52937D01*
X240487Y52937D02*
X240487Y57063D01*
X255113Y57063D01*
X255113Y52937D01*
X255113Y54243D02*
X240487Y54243D01*
X240487Y55549D02*
X255113Y55549D01*
X255113Y56855D02*
X240487Y56855D01*
X240487Y60937D02*
X255113Y60937D01*
X240487Y60937D02*
X240487Y65063D01*
X255113Y65063D01*
X255113Y60937D01*
X255113Y62243D02*
X240487Y62243D01*
X240487Y63549D02*
X255113Y63549D01*
X255113Y64855D02*
X240487Y64855D01*
X240487Y68937D02*
X255113Y68937D01*
X240487Y68937D02*
X240487Y73063D01*
X255113Y73063D01*
X255113Y68937D01*
X255113Y70243D02*
X240487Y70243D01*
X240487Y71549D02*
X255113Y71549D01*
X255113Y72855D02*
X240487Y72855D01*
X240487Y76937D02*
X255113Y76937D01*
X240487Y76937D02*
X240487Y81063D01*
X255113Y81063D01*
X255113Y76937D01*
X255113Y78243D02*
X240487Y78243D01*
X240487Y79549D02*
X255113Y79549D01*
X255113Y80855D02*
X240487Y80855D01*
X240487Y84937D02*
X255113Y84937D01*
X240487Y84937D02*
X240487Y89063D01*
X255113Y89063D01*
X255113Y84937D01*
X255113Y86243D02*
X240487Y86243D01*
X240487Y87549D02*
X255113Y87549D01*
X255113Y88855D02*
X240487Y88855D01*
X240487Y92937D02*
X255113Y92937D01*
X240487Y92937D02*
X240487Y97063D01*
X255113Y97063D01*
X255113Y92937D01*
X255113Y94243D02*
X240487Y94243D01*
X240487Y95549D02*
X255113Y95549D01*
X255113Y96855D02*
X240487Y96855D01*
X240487Y100937D02*
X255113Y100937D01*
X240487Y100937D02*
X240487Y105063D01*
X255113Y105063D01*
X255113Y100937D01*
X255113Y102243D02*
X240487Y102243D01*
X240487Y103549D02*
X255113Y103549D01*
X255113Y104855D02*
X240487Y104855D01*
X240487Y108937D02*
X255113Y108937D01*
X240487Y108937D02*
X240487Y113063D01*
X255113Y113063D01*
X255113Y108937D01*
X255113Y110243D02*
X240487Y110243D01*
X240487Y111549D02*
X255113Y111549D01*
X255113Y112855D02*
X240487Y112855D01*
X240487Y116937D02*
X255113Y116937D01*
X240487Y116937D02*
X240487Y121063D01*
X255113Y121063D01*
X255113Y116937D01*
X255113Y118243D02*
X240487Y118243D01*
X240487Y119549D02*
X255113Y119549D01*
X255113Y120855D02*
X240487Y120855D01*
X240487Y124937D02*
X255113Y124937D01*
X240487Y124937D02*
X240487Y129063D01*
X255113Y129063D01*
X255113Y124937D01*
X255113Y126243D02*
X240487Y126243D01*
X240487Y127549D02*
X255113Y127549D01*
X255113Y128855D02*
X240487Y128855D01*
D12*
X136000Y163000D03*
X153000Y163000D03*
D22*
X274500Y58750D03*
X274500Y41750D03*
D12*
X253950Y163250D03*
X270950Y163250D03*
X158950Y8500D03*
X141950Y8500D03*
X176900Y163000D03*
X193900Y163000D03*
D22*
X374000Y313500D03*
X374000Y296500D03*
X374000Y204500D03*
X374000Y221500D03*
D23*
X330000Y212500D03*
X330000Y307500D03*
D24*
X11500Y314000D03*
X26500Y314000D03*
X74500Y314000D03*
X89500Y314000D03*
D12*
X90500Y337500D03*
X73500Y337500D03*
D22*
X13000Y73500D03*
X13000Y90500D03*
X32000Y73500D03*
X32000Y90500D03*
D25*
X384000Y17000D03*
X409400Y17000D03*
D22*
X417000Y60000D03*
X417000Y43000D03*
D12*
X12500Y337500D03*
X29500Y337500D03*
D26*
X50500Y355000D03*
X50500Y371000D03*
X9500Y371000D03*
X9500Y355000D03*
D22*
X73000Y354500D03*
X73000Y371500D03*
X100000Y371500D03*
X100000Y354500D03*
D27*
X53000Y308000D03*
X43500Y284000D03*
X62500Y284000D03*
D12*
X217500Y163000D03*
X234500Y163000D03*
D22*
X373000Y60000D03*
X373000Y43000D03*
X395000Y43000D03*
X395000Y60000D03*
D25*
X303000Y18000D03*
X328400Y18000D03*
D22*
X347000Y60000D03*
X347000Y43000D03*
X298000Y60000D03*
X298000Y43000D03*
X322000Y43000D03*
X322000Y60000D03*
D25*
X384000Y90500D03*
X409400Y90500D03*
D22*
X417000Y134500D03*
X417000Y117500D03*
X361000Y99500D03*
X361000Y82500D03*
X395000Y117500D03*
X395000Y134500D03*
D25*
X303000Y90500D03*
X328400Y90500D03*
D12*
X269500Y113000D03*
X286500Y113000D03*
D22*
X274000Y79500D03*
X274000Y96500D03*
D12*
X269500Y134000D03*
X286500Y134000D03*
D25*
X335000Y162000D03*
X360400Y162000D03*
D22*
X370000Y117500D03*
X370000Y134500D03*
X322000Y117500D03*
X322000Y134500D03*
X346000Y134500D03*
X346000Y117500D03*
X374000Y251500D03*
X374000Y268500D03*
D28*
X77000Y231000D03*
X77000Y251000D03*
D29*
X19500Y207500D03*
X19500Y274500D03*
D30*
X149000Y180000D03*
D31*
X159450Y190450D02*
X159450Y191950D01*
X159450Y190450D02*
X149000Y180000D01*
D30*
X132661Y36000D03*
D31*
X134200Y37539D02*
X134200Y47000D01*
X134200Y37539D02*
X132661Y36000D01*
D32*
X30000Y15000D02*
X29000Y15000D01*
X30000Y15000D02*
X54000Y15000D01*
X55000Y41750D02*
X71750Y41750D01*
X74000Y39500D01*
D30*
X57000Y91000D03*
X45000Y72000D03*
X45000Y102000D03*
X35000Y126000D03*
D32*
X10000Y39500D02*
X29000Y20500D01*
X29000Y15000D01*
X74000Y35000D02*
X74000Y39500D01*
X74000Y35000D02*
X54000Y15000D01*
X395700Y283100D02*
X405700Y293100D01*
X395700Y283100D02*
X387400Y283100D01*
X374000Y296500D01*
D33*
X141950Y8500D02*
X127500Y8500D01*
X127000Y9000D01*
D30*
X127000Y9000D03*
D33*
X153000Y163000D02*
X165000Y163000D01*
D30*
X165000Y163000D03*
D33*
X193900Y163000D02*
X206000Y163000D01*
D30*
X206000Y163000D03*
D32*
X247800Y47000D02*
X248000Y46800D01*
X248000Y37000D01*
D30*
X248000Y37000D03*
D32*
X175000Y30200D02*
X175000Y15000D01*
X180000Y10000D01*
D34*
X180000Y10000D03*
D32*
X260000Y370000D02*
X259450Y370550D01*
D30*
X260000Y370000D03*
D32*
X259450Y370550D02*
X259450Y353950D01*
D33*
X357150Y340000D02*
X362950Y334200D01*
X357150Y340000D02*
X350000Y340000D01*
D30*
X350000Y340000D03*
D34*
X110000Y70000D03*
D32*
X132506Y93306D02*
X134200Y95000D01*
X132506Y93306D02*
X125130Y93306D01*
X110000Y78176D02*
X110000Y70000D01*
X110000Y78176D02*
X125130Y93306D01*
X289623Y181777D02*
X289777Y181777D01*
X289623Y181777D02*
X279450Y191950D01*
D34*
X289777Y181777D03*
D32*
X139450Y190450D02*
X139450Y191950D01*
X139450Y190450D02*
X129000Y180000D01*
D34*
X129000Y180000D03*
D30*
X159223Y127000D03*
D32*
X159694Y143106D02*
X159000Y143800D01*
X159694Y127471D02*
X159223Y127000D01*
X159694Y127471D02*
X159694Y143106D01*
D34*
X184000Y103000D03*
D32*
X198597Y98000D02*
X223000Y122403D01*
X198597Y98000D02*
X189000Y98000D01*
X184000Y103000D01*
X223000Y122403D02*
X223000Y143800D01*
X72500Y371000D02*
X73000Y371500D01*
X72500Y371000D02*
X50500Y371000D01*
X9500Y371000D01*
X73000Y371500D02*
X81500Y371500D01*
X86000Y376000D01*
D34*
X86000Y376000D03*
D32*
X42000Y325000D02*
X29500Y337500D01*
D34*
X42000Y325000D03*
D32*
X61000Y325000D02*
X73500Y337500D01*
D34*
X61000Y325000D03*
D32*
X230400Y374600D02*
X231000Y374000D01*
X230400Y374600D02*
X218400Y374600D01*
D34*
X231000Y374000D03*
D33*
X261000Y36556D02*
X269306Y36556D01*
X274500Y41750D01*
D30*
X261000Y36556D03*
D31*
X257700Y150000D02*
X270950Y163250D01*
X257700Y150000D02*
X250000Y150000D01*
D34*
X250000Y150000D03*
D35*
X43500Y270000D02*
X43500Y284000D01*
X43500Y270000D02*
X43500Y240872D01*
X46602Y237770D01*
D31*
X347000Y60000D02*
X357000Y70000D01*
X360000Y70000D01*
D30*
X360000Y70000D03*
D31*
X395000Y60000D02*
X406000Y71000D01*
D30*
X406000Y71000D03*
D31*
X417000Y60000D01*
X347000Y60000D02*
X322000Y60000D01*
X300000Y131628D02*
X297628Y134000D01*
X286500Y134000D01*
D30*
X300000Y131628D03*
D31*
X286500Y130000D02*
X269500Y113000D01*
X286500Y130000D02*
X286500Y134000D01*
X346000Y117500D02*
X353500Y117500D01*
X358000Y113000D01*
D30*
X358000Y113000D03*
D31*
X365500Y113000D02*
X370000Y117500D01*
X365500Y113000D02*
X358000Y113000D01*
X395000Y134500D02*
X406000Y145500D01*
D30*
X406000Y146000D03*
D31*
X406000Y145500D02*
X417000Y134500D01*
X406000Y145500D02*
X406000Y146000D01*
D33*
X30000Y15000D02*
X9000Y15000D01*
D32*
X74000Y39500D02*
X77500Y43000D01*
X94950Y43000D01*
D31*
X368500Y227000D02*
X374000Y221500D01*
X368500Y227000D02*
X362000Y227000D01*
D30*
X362000Y227000D03*
D35*
X77000Y231000D02*
X70230Y237770D01*
X46602Y237770D01*
X77000Y231000D02*
X77000Y227000D01*
X70000Y220000D01*
D30*
X70000Y220000D03*
D35*
X43000Y231000D02*
X19500Y207500D01*
X43000Y231000D02*
X77000Y231000D01*
X39000Y274500D02*
X19500Y274500D01*
X39000Y274500D02*
X43500Y270000D01*
D30*
X231000Y92000D03*
D31*
X234000Y95000D02*
X247800Y95000D01*
X234000Y95000D02*
X231000Y92000D01*
X239398Y87000D02*
X247800Y87000D01*
X239398Y87000D02*
X231000Y78602D01*
D30*
X231000Y78602D03*
D31*
X179450Y356461D02*
X188989Y366000D01*
X179450Y356461D02*
X179450Y353950D01*
D30*
X188989Y366000D03*
X210000Y130000D03*
D31*
X215000Y135000D01*
X215000Y143800D01*
D36*
X99550Y116000D02*
X92550Y109000D01*
D32*
X99550Y116000D02*
X105000Y116000D01*
D30*
X105000Y116000D03*
D34*
X16761Y165000D03*
D32*
X14232Y162471D01*
X14232Y154500D01*
D33*
X167000Y30200D02*
X167000Y16550D01*
X158950Y8500D01*
X151000Y148000D02*
X136000Y163000D01*
X151000Y148000D02*
X151000Y143800D01*
X379950Y334200D02*
X390000Y334200D01*
X405700Y318500D01*
X247800Y55000D02*
X250764Y52036D01*
X274500Y52036D02*
X274500Y58750D01*
X274500Y52036D02*
X250764Y52036D01*
D32*
X199450Y353950D02*
X199450Y373550D01*
X199450Y376550D01*
X201400Y374600D01*
X199400Y373500D02*
X102000Y373500D01*
X100000Y371500D01*
X199400Y373500D02*
X199450Y373550D01*
X100000Y371500D02*
X100000Y370029D01*
X114954Y355075D01*
X114954Y339454D01*
X89500Y314000D01*
D31*
X253950Y163250D02*
X234500Y143800D01*
X231000Y143800D01*
X131220Y84020D02*
X125662Y84020D01*
X131220Y84020D02*
X134200Y87000D01*
X111950Y62678D02*
X111950Y43000D01*
X111950Y62678D02*
X120660Y71388D01*
X120660Y79018D01*
X125662Y84020D01*
X279450Y353950D02*
X406050Y353950D01*
X410000Y350000D01*
D30*
X169000Y179000D03*
D31*
X179450Y189450D02*
X179450Y191950D01*
X179450Y189450D02*
X169000Y179000D01*
D30*
X246000Y175000D03*
D31*
X242616Y171616D01*
X176384Y171616D01*
X169000Y179000D01*
D30*
X148720Y55280D03*
D31*
X134480Y55280D02*
X134200Y55000D01*
X134480Y55280D02*
X148720Y55280D01*
X134200Y63000D02*
X164000Y63000D01*
D30*
X164000Y63000D03*
X189000Y180000D03*
D31*
X199450Y190450D02*
X199450Y191950D01*
X199450Y190450D02*
X189000Y180000D01*
D34*
X244924Y137924D03*
D31*
X250444Y143444D01*
X381270Y243270D02*
X405700Y267700D01*
X365940Y182730D02*
X325648Y182730D01*
X365940Y182730D02*
X381270Y198060D01*
X381270Y243270D01*
X286362Y143444D02*
X250444Y143444D01*
X286362Y143444D02*
X325648Y182730D01*
D30*
X186000Y126000D03*
X209000Y178887D03*
D31*
X219450Y189337D02*
X219450Y191950D01*
X219450Y189337D02*
X209000Y178887D01*
X199000Y143800D02*
X196274Y141074D01*
X196274Y135157D01*
X194393Y133276D01*
X193276Y133276D01*
X186000Y126000D01*
D33*
X203811Y153832D02*
X208332Y153832D01*
X217500Y163000D01*
X199000Y149021D02*
X199000Y143800D01*
X199000Y149021D02*
X203811Y153832D01*
D30*
X231000Y104398D03*
D31*
X246402Y104398D01*
X247800Y103000D01*
X374000Y238694D02*
X374000Y251500D01*
D30*
X374000Y238694D03*
X200000Y110000D03*
X230000Y178887D03*
D31*
X230000Y182500D02*
X239450Y191950D01*
X230000Y182500D02*
X230000Y178887D01*
X207000Y143800D02*
X207000Y136137D01*
X203539Y132676D01*
X203539Y113539D02*
X200000Y110000D01*
X203539Y113539D02*
X203539Y132676D01*
X36222Y158825D02*
X18047Y177000D01*
X36222Y158825D02*
X36222Y154500D01*
D35*
X60310Y314578D02*
X58078Y316810D01*
X47922Y316810D01*
X60310Y286190D02*
X62500Y284000D01*
X60310Y286190D02*
X60310Y314578D01*
X47922Y316810D02*
X45112Y314000D01*
X26500Y314000D01*
X62500Y284000D02*
X86000Y284000D01*
X100000Y270000D01*
X100000Y210000D01*
X7654Y147190D02*
X5422Y149422D01*
X49922Y191310D02*
X81310Y191310D01*
X10968Y185810D02*
X5422Y180263D01*
X5422Y149422D01*
X44422Y185810D02*
X49922Y191310D01*
X44422Y185810D02*
X10968Y185810D01*
X12042Y147190D02*
X7654Y147190D01*
X12042Y147190D02*
X14232Y145000D01*
X81310Y191310D02*
X100000Y210000D01*
D31*
X35500Y49500D02*
X35500Y41750D01*
X13000Y72000D02*
X13000Y73500D01*
X13000Y72000D02*
X35500Y49500D01*
X42000Y48311D02*
X42000Y41750D01*
X32000Y73000D02*
X32000Y73500D01*
X32000Y73000D02*
X25990Y66990D01*
X25990Y64321D01*
X42000Y48311D01*
D30*
X22000Y53000D03*
X110000Y30000D03*
D31*
X29000Y46000D02*
X22000Y53000D01*
X29000Y46000D02*
X29000Y41750D01*
X123930Y74288D02*
X125662Y76020D01*
X118390Y35730D02*
X115730Y35730D01*
X110000Y30000D01*
X131220Y76020D02*
X134200Y79000D01*
X131220Y76020D02*
X125662Y76020D01*
X123930Y74288D02*
X123930Y41270D01*
X118390Y35730D01*
D30*
X117000Y115000D03*
D31*
X121000Y111000D02*
X134200Y111000D01*
X121000Y111000D02*
X117000Y115000D01*
X13000Y102801D02*
X13000Y90500D01*
X13000Y102801D02*
X12801Y103000D01*
D30*
X12801Y103000D03*
X117000Y101602D03*
D31*
X124908Y103000D02*
X134200Y103000D01*
X124908Y103000D02*
X124676Y102768D01*
X122798Y102768D01*
X121631Y101602D01*
X117000Y101602D01*
X32199Y103000D02*
X32000Y102801D01*
X32000Y90500D01*
D30*
X32199Y103000D03*
D31*
X167000Y153100D02*
X176900Y163000D01*
X167000Y153100D02*
X167000Y143800D01*
X330000Y307500D02*
X336000Y313500D01*
X374000Y313500D01*
X330000Y307500D02*
X330000Y256233D01*
X314714Y240947D01*
D30*
X180000Y49661D03*
D31*
X180274Y32926D02*
X183000Y30200D01*
X180274Y32926D02*
X180274Y38843D01*
X180000Y39117D01*
X180000Y49661D01*
D30*
X267000Y150000D03*
D31*
X275000Y150000D02*
X314714Y189714D01*
X275000Y150000D02*
X267000Y150000D01*
X314714Y189714D02*
X314714Y240947D01*
X330000Y212500D02*
X331250Y211250D01*
X338000Y204500D01*
X374000Y204500D01*
X191000Y40000D02*
X191000Y30200D01*
X191000Y40000D02*
X195000Y44000D01*
D30*
X195000Y44000D03*
X291000Y157000D03*
D31*
X331250Y197250D01*
X331250Y211250D01*
X11500Y314000D02*
X11500Y336500D01*
X12500Y337500D01*
X90500Y337500D02*
X90500Y330000D01*
X74500Y314000D01*
X298000Y60000D02*
X305000Y60000D01*
X322000Y43000D01*
X298000Y60000D02*
X281770Y43770D01*
X281770Y35310D01*
X219712Y19930D02*
X217980Y21662D01*
X217980Y27220D01*
X266390Y19930D02*
X281770Y35310D01*
X266390Y19930D02*
X219712Y19930D01*
X217980Y27220D02*
X215000Y30200D01*
X373000Y60000D02*
X378000Y60000D01*
X395000Y43000D01*
X373000Y60000D02*
X360000Y47000D01*
X360000Y30000D01*
D30*
X360000Y30000D03*
X219542Y44014D03*
D31*
X223000Y40556D01*
X223000Y30200D01*
X269500Y126710D02*
X269500Y134000D01*
X269500Y126710D02*
X261730Y118940D01*
X261730Y91770D01*
X274000Y79500D01*
X250780Y65980D02*
X247800Y63000D01*
X250780Y65980D02*
X256338Y65980D01*
X269858Y79500D02*
X274000Y79500D01*
X269858Y79500D02*
X256338Y65980D01*
X371230Y109730D02*
X375940Y109730D01*
X371230Y109730D02*
X361000Y99500D01*
X383710Y117500D02*
X395000Y117500D01*
X383710Y117500D02*
X375940Y109730D01*
X361000Y99500D02*
X347000Y85500D01*
X347000Y76000D01*
D30*
X347000Y76000D03*
X230000Y50000D03*
D31*
X231000Y49000D01*
X231000Y30200D01*
X322000Y117500D02*
X329000Y117500D01*
X346000Y134500D01*
D30*
X230000Y66974D03*
D31*
X244820Y76020D02*
X247800Y79000D01*
X244820Y76020D02*
X239262Y76020D01*
X230216Y66974D02*
X230000Y66974D01*
X230216Y66974D02*
X239262Y76020D01*
D30*
X300000Y120000D03*
D31*
X319500Y120000D01*
X322000Y117500D01*
X72500Y355000D02*
X50500Y355000D01*
X72500Y355000D02*
X73000Y354500D01*
X50500Y355000D02*
X9500Y355000D01*
X73000Y354500D02*
X100000Y354500D01*
X104461Y350039D01*
X104461Y340000D01*
D34*
X104461Y340000D03*
X128005Y22265D03*
D31*
X159000Y23200D02*
X159000Y30200D01*
X159000Y23200D02*
X153000Y17200D01*
X133070Y17200D01*
X128005Y22265D01*
D35*
X53000Y264760D02*
X53000Y308000D01*
X53000Y264760D02*
X66760Y251000D01*
X77000Y251000D01*
D31*
X409400Y35400D02*
X409400Y17000D01*
X409400Y35400D02*
X417000Y43000D01*
X391170Y35230D02*
X409400Y17000D01*
X391170Y35230D02*
X389060Y35230D01*
X381290Y43000D02*
X373000Y43000D01*
X381290Y43000D02*
X389060Y35230D01*
X347000Y36600D02*
X328400Y18000D01*
X347000Y36600D02*
X347000Y43000D01*
X328400Y18000D02*
X323000Y18000D01*
X298000Y43000D01*
X409400Y90500D02*
X409400Y109900D01*
X417000Y117500D01*
X379167Y78832D02*
X375499Y82500D01*
X361000Y82500D01*
X397732Y78832D02*
X409400Y90500D01*
X397732Y78832D02*
X379167Y78832D01*
X328400Y90500D02*
X305900Y113000D01*
X286500Y113000D01*
X274000Y100500D01*
X274000Y96500D01*
X360400Y144100D02*
X360400Y162000D01*
X360400Y144100D02*
X370000Y134500D01*
X360400Y162000D02*
X340670Y142270D01*
X340060Y142270D01*
X332290Y134500D02*
X322000Y134500D01*
X332290Y134500D02*
X340060Y142270D01*
M02*
