G04 EAGLE Gerber RS-274X export*
G75*
%MOMM*%
%FSLAX34Y34*%
%LPD*%
%INSolderpaste Top*%
%IPPOS*%
%AMOC8*
5,1,8,0,0,1.08239X$1,22.5*%
G01*
%ADD10R,0.800000X2.000000*%
%ADD11R,1.100000X1.000000*%
%ADD12R,1.000000X0.700000*%
%ADD13R,1.270000X2.060000*%
%ADD14R,1.600000X5.700000*%
%ADD15R,0.400000X1.350000*%
%ADD16R,1.600000X1.400000*%
%ADD17R,1.900000X1.900000*%
%ADD18C,0.137500*%
%ADD19R,1.000000X1.100000*%
%ADD20R,2.000000X5.500000*%
%ADD21R,0.800000X0.800000*%
%ADD22R,0.900000X1.000000*%
%ADD23R,0.700000X1.000000*%
%ADD24R,3.500000X1.000000*%
%ADD25R,3.400000X1.500000*%


D10*
X279450Y353950D03*
X259450Y353950D03*
X239450Y353950D03*
X219450Y353950D03*
X199450Y353950D03*
X179450Y353950D03*
X159450Y353950D03*
X139450Y353950D03*
X139450Y191950D03*
X159450Y191950D03*
X179450Y191950D03*
X199450Y191950D03*
X219450Y191950D03*
X239450Y191950D03*
X259450Y191950D03*
X279450Y191950D03*
D11*
X379950Y334200D03*
X362950Y334200D03*
X201400Y374600D03*
X218400Y374600D03*
D12*
X36222Y145000D03*
X14232Y145000D03*
X36222Y135500D03*
X14232Y135500D03*
X36222Y154500D03*
X14232Y154500D03*
D11*
X16727Y115000D03*
X33727Y115000D03*
X18047Y177000D03*
X35047Y177000D03*
D13*
X92550Y109000D03*
X57450Y109000D03*
X92550Y73000D03*
X57450Y73000D03*
D14*
X59500Y159000D03*
X106500Y159000D03*
D15*
X29000Y41750D03*
X35500Y41750D03*
X42000Y41750D03*
X48500Y41750D03*
X55000Y41750D03*
D16*
X10000Y39500D03*
X74000Y39500D03*
D17*
X30000Y15000D03*
X54000Y15000D03*
D11*
X111950Y43000D03*
X94950Y43000D03*
D18*
X153063Y37513D02*
X153063Y22887D01*
X148937Y22887D01*
X148937Y37513D01*
X153063Y37513D01*
X153063Y24193D02*
X148937Y24193D01*
X148937Y25499D02*
X153063Y25499D01*
X153063Y26805D02*
X148937Y26805D01*
X148937Y28111D02*
X153063Y28111D01*
X153063Y29417D02*
X148937Y29417D01*
X148937Y30723D02*
X153063Y30723D01*
X153063Y32029D02*
X148937Y32029D01*
X148937Y33335D02*
X153063Y33335D01*
X153063Y34641D02*
X148937Y34641D01*
X148937Y35947D02*
X153063Y35947D01*
X153063Y37253D02*
X148937Y37253D01*
X161063Y37513D02*
X161063Y22887D01*
X156937Y22887D01*
X156937Y37513D01*
X161063Y37513D01*
X161063Y24193D02*
X156937Y24193D01*
X156937Y25499D02*
X161063Y25499D01*
X161063Y26805D02*
X156937Y26805D01*
X156937Y28111D02*
X161063Y28111D01*
X161063Y29417D02*
X156937Y29417D01*
X156937Y30723D02*
X161063Y30723D01*
X161063Y32029D02*
X156937Y32029D01*
X156937Y33335D02*
X161063Y33335D01*
X161063Y34641D02*
X156937Y34641D01*
X156937Y35947D02*
X161063Y35947D01*
X161063Y37253D02*
X156937Y37253D01*
X169063Y37513D02*
X169063Y22887D01*
X164937Y22887D01*
X164937Y37513D01*
X169063Y37513D01*
X169063Y24193D02*
X164937Y24193D01*
X164937Y25499D02*
X169063Y25499D01*
X169063Y26805D02*
X164937Y26805D01*
X164937Y28111D02*
X169063Y28111D01*
X169063Y29417D02*
X164937Y29417D01*
X164937Y30723D02*
X169063Y30723D01*
X169063Y32029D02*
X164937Y32029D01*
X164937Y33335D02*
X169063Y33335D01*
X169063Y34641D02*
X164937Y34641D01*
X164937Y35947D02*
X169063Y35947D01*
X169063Y37253D02*
X164937Y37253D01*
X177063Y37513D02*
X177063Y22887D01*
X172937Y22887D01*
X172937Y37513D01*
X177063Y37513D01*
X177063Y24193D02*
X172937Y24193D01*
X172937Y25499D02*
X177063Y25499D01*
X177063Y26805D02*
X172937Y26805D01*
X172937Y28111D02*
X177063Y28111D01*
X177063Y29417D02*
X172937Y29417D01*
X172937Y30723D02*
X177063Y30723D01*
X177063Y32029D02*
X172937Y32029D01*
X172937Y33335D02*
X177063Y33335D01*
X177063Y34641D02*
X172937Y34641D01*
X172937Y35947D02*
X177063Y35947D01*
X177063Y37253D02*
X172937Y37253D01*
X185063Y37513D02*
X185063Y22887D01*
X180937Y22887D01*
X180937Y37513D01*
X185063Y37513D01*
X185063Y24193D02*
X180937Y24193D01*
X180937Y25499D02*
X185063Y25499D01*
X185063Y26805D02*
X180937Y26805D01*
X180937Y28111D02*
X185063Y28111D01*
X185063Y29417D02*
X180937Y29417D01*
X180937Y30723D02*
X185063Y30723D01*
X185063Y32029D02*
X180937Y32029D01*
X180937Y33335D02*
X185063Y33335D01*
X185063Y34641D02*
X180937Y34641D01*
X180937Y35947D02*
X185063Y35947D01*
X185063Y37253D02*
X180937Y37253D01*
X193063Y37513D02*
X193063Y22887D01*
X188937Y22887D01*
X188937Y37513D01*
X193063Y37513D01*
X193063Y24193D02*
X188937Y24193D01*
X188937Y25499D02*
X193063Y25499D01*
X193063Y26805D02*
X188937Y26805D01*
X188937Y28111D02*
X193063Y28111D01*
X193063Y29417D02*
X188937Y29417D01*
X188937Y30723D02*
X193063Y30723D01*
X193063Y32029D02*
X188937Y32029D01*
X188937Y33335D02*
X193063Y33335D01*
X193063Y34641D02*
X188937Y34641D01*
X188937Y35947D02*
X193063Y35947D01*
X193063Y37253D02*
X188937Y37253D01*
X201063Y37513D02*
X201063Y22887D01*
X196937Y22887D01*
X196937Y37513D01*
X201063Y37513D01*
X201063Y24193D02*
X196937Y24193D01*
X196937Y25499D02*
X201063Y25499D01*
X201063Y26805D02*
X196937Y26805D01*
X196937Y28111D02*
X201063Y28111D01*
X201063Y29417D02*
X196937Y29417D01*
X196937Y30723D02*
X201063Y30723D01*
X201063Y32029D02*
X196937Y32029D01*
X196937Y33335D02*
X201063Y33335D01*
X201063Y34641D02*
X196937Y34641D01*
X196937Y35947D02*
X201063Y35947D01*
X201063Y37253D02*
X196937Y37253D01*
X209063Y37513D02*
X209063Y22887D01*
X204937Y22887D01*
X204937Y37513D01*
X209063Y37513D01*
X209063Y24193D02*
X204937Y24193D01*
X204937Y25499D02*
X209063Y25499D01*
X209063Y26805D02*
X204937Y26805D01*
X204937Y28111D02*
X209063Y28111D01*
X209063Y29417D02*
X204937Y29417D01*
X204937Y30723D02*
X209063Y30723D01*
X209063Y32029D02*
X204937Y32029D01*
X204937Y33335D02*
X209063Y33335D01*
X209063Y34641D02*
X204937Y34641D01*
X204937Y35947D02*
X209063Y35947D01*
X209063Y37253D02*
X204937Y37253D01*
X217063Y37513D02*
X217063Y22887D01*
X212937Y22887D01*
X212937Y37513D01*
X217063Y37513D01*
X217063Y24193D02*
X212937Y24193D01*
X212937Y25499D02*
X217063Y25499D01*
X217063Y26805D02*
X212937Y26805D01*
X212937Y28111D02*
X217063Y28111D01*
X217063Y29417D02*
X212937Y29417D01*
X212937Y30723D02*
X217063Y30723D01*
X217063Y32029D02*
X212937Y32029D01*
X212937Y33335D02*
X217063Y33335D01*
X217063Y34641D02*
X212937Y34641D01*
X212937Y35947D02*
X217063Y35947D01*
X217063Y37253D02*
X212937Y37253D01*
X225063Y37513D02*
X225063Y22887D01*
X220937Y22887D01*
X220937Y37513D01*
X225063Y37513D01*
X225063Y24193D02*
X220937Y24193D01*
X220937Y25499D02*
X225063Y25499D01*
X225063Y26805D02*
X220937Y26805D01*
X220937Y28111D02*
X225063Y28111D01*
X225063Y29417D02*
X220937Y29417D01*
X220937Y30723D02*
X225063Y30723D01*
X225063Y32029D02*
X220937Y32029D01*
X220937Y33335D02*
X225063Y33335D01*
X225063Y34641D02*
X220937Y34641D01*
X220937Y35947D02*
X225063Y35947D01*
X225063Y37253D02*
X220937Y37253D01*
X233063Y37513D02*
X233063Y22887D01*
X228937Y22887D01*
X228937Y37513D01*
X233063Y37513D01*
X233063Y24193D02*
X228937Y24193D01*
X228937Y25499D02*
X233063Y25499D01*
X233063Y26805D02*
X228937Y26805D01*
X228937Y28111D02*
X233063Y28111D01*
X233063Y29417D02*
X228937Y29417D01*
X228937Y30723D02*
X233063Y30723D01*
X233063Y32029D02*
X228937Y32029D01*
X228937Y33335D02*
X233063Y33335D01*
X233063Y34641D02*
X228937Y34641D01*
X228937Y35947D02*
X233063Y35947D01*
X233063Y37253D02*
X228937Y37253D01*
X233063Y136487D02*
X233063Y151113D01*
X233063Y136487D02*
X228937Y136487D01*
X228937Y151113D01*
X233063Y151113D01*
X233063Y137793D02*
X228937Y137793D01*
X228937Y139099D02*
X233063Y139099D01*
X233063Y140405D02*
X228937Y140405D01*
X228937Y141711D02*
X233063Y141711D01*
X233063Y143017D02*
X228937Y143017D01*
X228937Y144323D02*
X233063Y144323D01*
X233063Y145629D02*
X228937Y145629D01*
X228937Y146935D02*
X233063Y146935D01*
X233063Y148241D02*
X228937Y148241D01*
X228937Y149547D02*
X233063Y149547D01*
X233063Y150853D02*
X228937Y150853D01*
X225063Y151113D02*
X225063Y136487D01*
X220937Y136487D01*
X220937Y151113D01*
X225063Y151113D01*
X225063Y137793D02*
X220937Y137793D01*
X220937Y139099D02*
X225063Y139099D01*
X225063Y140405D02*
X220937Y140405D01*
X220937Y141711D02*
X225063Y141711D01*
X225063Y143017D02*
X220937Y143017D01*
X220937Y144323D02*
X225063Y144323D01*
X225063Y145629D02*
X220937Y145629D01*
X220937Y146935D02*
X225063Y146935D01*
X225063Y148241D02*
X220937Y148241D01*
X220937Y149547D02*
X225063Y149547D01*
X225063Y150853D02*
X220937Y150853D01*
X217063Y151113D02*
X217063Y136487D01*
X212937Y136487D01*
X212937Y151113D01*
X217063Y151113D01*
X217063Y137793D02*
X212937Y137793D01*
X212937Y139099D02*
X217063Y139099D01*
X217063Y140405D02*
X212937Y140405D01*
X212937Y141711D02*
X217063Y141711D01*
X217063Y143017D02*
X212937Y143017D01*
X212937Y144323D02*
X217063Y144323D01*
X217063Y145629D02*
X212937Y145629D01*
X212937Y146935D02*
X217063Y146935D01*
X217063Y148241D02*
X212937Y148241D01*
X212937Y149547D02*
X217063Y149547D01*
X217063Y150853D02*
X212937Y150853D01*
X209063Y151113D02*
X209063Y136487D01*
X204937Y136487D01*
X204937Y151113D01*
X209063Y151113D01*
X209063Y137793D02*
X204937Y137793D01*
X204937Y139099D02*
X209063Y139099D01*
X209063Y140405D02*
X204937Y140405D01*
X204937Y141711D02*
X209063Y141711D01*
X209063Y143017D02*
X204937Y143017D01*
X204937Y144323D02*
X209063Y144323D01*
X209063Y145629D02*
X204937Y145629D01*
X204937Y146935D02*
X209063Y146935D01*
X209063Y148241D02*
X204937Y148241D01*
X204937Y149547D02*
X209063Y149547D01*
X209063Y150853D02*
X204937Y150853D01*
X201063Y151113D02*
X201063Y136487D01*
X196937Y136487D01*
X196937Y151113D01*
X201063Y151113D01*
X201063Y137793D02*
X196937Y137793D01*
X196937Y139099D02*
X201063Y139099D01*
X201063Y140405D02*
X196937Y140405D01*
X196937Y141711D02*
X201063Y141711D01*
X201063Y143017D02*
X196937Y143017D01*
X196937Y144323D02*
X201063Y144323D01*
X201063Y145629D02*
X196937Y145629D01*
X196937Y146935D02*
X201063Y146935D01*
X201063Y148241D02*
X196937Y148241D01*
X196937Y149547D02*
X201063Y149547D01*
X201063Y150853D02*
X196937Y150853D01*
X193063Y151113D02*
X193063Y136487D01*
X188937Y136487D01*
X188937Y151113D01*
X193063Y151113D01*
X193063Y137793D02*
X188937Y137793D01*
X188937Y139099D02*
X193063Y139099D01*
X193063Y140405D02*
X188937Y140405D01*
X188937Y141711D02*
X193063Y141711D01*
X193063Y143017D02*
X188937Y143017D01*
X188937Y144323D02*
X193063Y144323D01*
X193063Y145629D02*
X188937Y145629D01*
X188937Y146935D02*
X193063Y146935D01*
X193063Y148241D02*
X188937Y148241D01*
X188937Y149547D02*
X193063Y149547D01*
X193063Y150853D02*
X188937Y150853D01*
X185063Y151113D02*
X185063Y136487D01*
X180937Y136487D01*
X180937Y151113D01*
X185063Y151113D01*
X185063Y137793D02*
X180937Y137793D01*
X180937Y139099D02*
X185063Y139099D01*
X185063Y140405D02*
X180937Y140405D01*
X180937Y141711D02*
X185063Y141711D01*
X185063Y143017D02*
X180937Y143017D01*
X180937Y144323D02*
X185063Y144323D01*
X185063Y145629D02*
X180937Y145629D01*
X180937Y146935D02*
X185063Y146935D01*
X185063Y148241D02*
X180937Y148241D01*
X180937Y149547D02*
X185063Y149547D01*
X185063Y150853D02*
X180937Y150853D01*
X177063Y151113D02*
X177063Y136487D01*
X172937Y136487D01*
X172937Y151113D01*
X177063Y151113D01*
X177063Y137793D02*
X172937Y137793D01*
X172937Y139099D02*
X177063Y139099D01*
X177063Y140405D02*
X172937Y140405D01*
X172937Y141711D02*
X177063Y141711D01*
X177063Y143017D02*
X172937Y143017D01*
X172937Y144323D02*
X177063Y144323D01*
X177063Y145629D02*
X172937Y145629D01*
X172937Y146935D02*
X177063Y146935D01*
X177063Y148241D02*
X172937Y148241D01*
X172937Y149547D02*
X177063Y149547D01*
X177063Y150853D02*
X172937Y150853D01*
X169063Y151113D02*
X169063Y136487D01*
X164937Y136487D01*
X164937Y151113D01*
X169063Y151113D01*
X169063Y137793D02*
X164937Y137793D01*
X164937Y139099D02*
X169063Y139099D01*
X169063Y140405D02*
X164937Y140405D01*
X164937Y141711D02*
X169063Y141711D01*
X169063Y143017D02*
X164937Y143017D01*
X164937Y144323D02*
X169063Y144323D01*
X169063Y145629D02*
X164937Y145629D01*
X164937Y146935D02*
X169063Y146935D01*
X169063Y148241D02*
X164937Y148241D01*
X164937Y149547D02*
X169063Y149547D01*
X169063Y150853D02*
X164937Y150853D01*
X161063Y151113D02*
X161063Y136487D01*
X156937Y136487D01*
X156937Y151113D01*
X161063Y151113D01*
X161063Y137793D02*
X156937Y137793D01*
X156937Y139099D02*
X161063Y139099D01*
X161063Y140405D02*
X156937Y140405D01*
X156937Y141711D02*
X161063Y141711D01*
X161063Y143017D02*
X156937Y143017D01*
X156937Y144323D02*
X161063Y144323D01*
X161063Y145629D02*
X156937Y145629D01*
X156937Y146935D02*
X161063Y146935D01*
X161063Y148241D02*
X156937Y148241D01*
X156937Y149547D02*
X161063Y149547D01*
X161063Y150853D02*
X156937Y150853D01*
X153063Y151113D02*
X153063Y136487D01*
X148937Y136487D01*
X148937Y151113D01*
X153063Y151113D01*
X153063Y137793D02*
X148937Y137793D01*
X148937Y139099D02*
X153063Y139099D01*
X153063Y140405D02*
X148937Y140405D01*
X148937Y141711D02*
X153063Y141711D01*
X153063Y143017D02*
X148937Y143017D01*
X148937Y144323D02*
X153063Y144323D01*
X153063Y145629D02*
X148937Y145629D01*
X148937Y146935D02*
X153063Y146935D01*
X153063Y148241D02*
X148937Y148241D01*
X148937Y149547D02*
X153063Y149547D01*
X153063Y150853D02*
X148937Y150853D01*
X141513Y124937D02*
X126887Y124937D01*
X126887Y129063D01*
X141513Y129063D01*
X141513Y124937D01*
X141513Y126243D02*
X126887Y126243D01*
X126887Y127549D02*
X141513Y127549D01*
X141513Y128855D02*
X126887Y128855D01*
X126887Y116937D02*
X141513Y116937D01*
X126887Y116937D02*
X126887Y121063D01*
X141513Y121063D01*
X141513Y116937D01*
X141513Y118243D02*
X126887Y118243D01*
X126887Y119549D02*
X141513Y119549D01*
X141513Y120855D02*
X126887Y120855D01*
X126887Y108937D02*
X141513Y108937D01*
X126887Y108937D02*
X126887Y113063D01*
X141513Y113063D01*
X141513Y108937D01*
X141513Y110243D02*
X126887Y110243D01*
X126887Y111549D02*
X141513Y111549D01*
X141513Y112855D02*
X126887Y112855D01*
X126887Y100937D02*
X141513Y100937D01*
X126887Y100937D02*
X126887Y105063D01*
X141513Y105063D01*
X141513Y100937D01*
X141513Y102243D02*
X126887Y102243D01*
X126887Y103549D02*
X141513Y103549D01*
X141513Y104855D02*
X126887Y104855D01*
X126887Y92937D02*
X141513Y92937D01*
X126887Y92937D02*
X126887Y97063D01*
X141513Y97063D01*
X141513Y92937D01*
X141513Y94243D02*
X126887Y94243D01*
X126887Y95549D02*
X141513Y95549D01*
X141513Y96855D02*
X126887Y96855D01*
X126887Y84937D02*
X141513Y84937D01*
X126887Y84937D02*
X126887Y89063D01*
X141513Y89063D01*
X141513Y84937D01*
X141513Y86243D02*
X126887Y86243D01*
X126887Y87549D02*
X141513Y87549D01*
X141513Y88855D02*
X126887Y88855D01*
X126887Y76937D02*
X141513Y76937D01*
X126887Y76937D02*
X126887Y81063D01*
X141513Y81063D01*
X141513Y76937D01*
X141513Y78243D02*
X126887Y78243D01*
X126887Y79549D02*
X141513Y79549D01*
X141513Y80855D02*
X126887Y80855D01*
X126887Y68937D02*
X141513Y68937D01*
X126887Y68937D02*
X126887Y73063D01*
X141513Y73063D01*
X141513Y68937D01*
X141513Y70243D02*
X126887Y70243D01*
X126887Y71549D02*
X141513Y71549D01*
X141513Y72855D02*
X126887Y72855D01*
X126887Y60937D02*
X141513Y60937D01*
X126887Y60937D02*
X126887Y65063D01*
X141513Y65063D01*
X141513Y60937D01*
X141513Y62243D02*
X126887Y62243D01*
X126887Y63549D02*
X141513Y63549D01*
X141513Y64855D02*
X126887Y64855D01*
X126887Y52937D02*
X141513Y52937D01*
X126887Y52937D02*
X126887Y57063D01*
X141513Y57063D01*
X141513Y52937D01*
X141513Y54243D02*
X126887Y54243D01*
X126887Y55549D02*
X141513Y55549D01*
X141513Y56855D02*
X126887Y56855D01*
X126887Y44937D02*
X141513Y44937D01*
X126887Y44937D02*
X126887Y49063D01*
X141513Y49063D01*
X141513Y44937D01*
X141513Y46243D02*
X126887Y46243D01*
X126887Y47549D02*
X141513Y47549D01*
X141513Y48855D02*
X126887Y48855D01*
X240487Y44937D02*
X255113Y44937D01*
X240487Y44937D02*
X240487Y49063D01*
X255113Y49063D01*
X255113Y44937D01*
X255113Y46243D02*
X240487Y46243D01*
X240487Y47549D02*
X255113Y47549D01*
X255113Y48855D02*
X240487Y48855D01*
X240487Y52937D02*
X255113Y52937D01*
X240487Y52937D02*
X240487Y57063D01*
X255113Y57063D01*
X255113Y52937D01*
X255113Y54243D02*
X240487Y54243D01*
X240487Y55549D02*
X255113Y55549D01*
X255113Y56855D02*
X240487Y56855D01*
X240487Y60937D02*
X255113Y60937D01*
X240487Y60937D02*
X240487Y65063D01*
X255113Y65063D01*
X255113Y60937D01*
X255113Y62243D02*
X240487Y62243D01*
X240487Y63549D02*
X255113Y63549D01*
X255113Y64855D02*
X240487Y64855D01*
X240487Y68937D02*
X255113Y68937D01*
X240487Y68937D02*
X240487Y73063D01*
X255113Y73063D01*
X255113Y68937D01*
X255113Y70243D02*
X240487Y70243D01*
X240487Y71549D02*
X255113Y71549D01*
X255113Y72855D02*
X240487Y72855D01*
X240487Y76937D02*
X255113Y76937D01*
X240487Y76937D02*
X240487Y81063D01*
X255113Y81063D01*
X255113Y76937D01*
X255113Y78243D02*
X240487Y78243D01*
X240487Y79549D02*
X255113Y79549D01*
X255113Y80855D02*
X240487Y80855D01*
X240487Y84937D02*
X255113Y84937D01*
X240487Y84937D02*
X240487Y89063D01*
X255113Y89063D01*
X255113Y84937D01*
X255113Y86243D02*
X240487Y86243D01*
X240487Y87549D02*
X255113Y87549D01*
X255113Y88855D02*
X240487Y88855D01*
X240487Y92937D02*
X255113Y92937D01*
X240487Y92937D02*
X240487Y97063D01*
X255113Y97063D01*
X255113Y92937D01*
X255113Y94243D02*
X240487Y94243D01*
X240487Y95549D02*
X255113Y95549D01*
X255113Y96855D02*
X240487Y96855D01*
X240487Y100937D02*
X255113Y100937D01*
X240487Y100937D02*
X240487Y105063D01*
X255113Y105063D01*
X255113Y100937D01*
X255113Y102243D02*
X240487Y102243D01*
X240487Y103549D02*
X255113Y103549D01*
X255113Y104855D02*
X240487Y104855D01*
X240487Y108937D02*
X255113Y108937D01*
X240487Y108937D02*
X240487Y113063D01*
X255113Y113063D01*
X255113Y108937D01*
X255113Y110243D02*
X240487Y110243D01*
X240487Y111549D02*
X255113Y111549D01*
X255113Y112855D02*
X240487Y112855D01*
X240487Y116937D02*
X255113Y116937D01*
X240487Y116937D02*
X240487Y121063D01*
X255113Y121063D01*
X255113Y116937D01*
X255113Y118243D02*
X240487Y118243D01*
X240487Y119549D02*
X255113Y119549D01*
X255113Y120855D02*
X240487Y120855D01*
X240487Y124937D02*
X255113Y124937D01*
X240487Y124937D02*
X240487Y129063D01*
X255113Y129063D01*
X255113Y124937D01*
X255113Y126243D02*
X240487Y126243D01*
X240487Y127549D02*
X255113Y127549D01*
X255113Y128855D02*
X240487Y128855D01*
D11*
X136000Y163000D03*
X153000Y163000D03*
D19*
X274500Y58750D03*
X274500Y41750D03*
D11*
X253950Y163250D03*
X270950Y163250D03*
X158950Y8500D03*
X141950Y8500D03*
X176900Y163000D03*
X193900Y163000D03*
D19*
X374000Y313500D03*
X374000Y296500D03*
X374000Y204500D03*
X374000Y221500D03*
D20*
X330000Y212500D03*
X330000Y307500D03*
D21*
X11500Y314000D03*
X26500Y314000D03*
X74500Y314000D03*
X89500Y314000D03*
D11*
X90500Y337500D03*
X73500Y337500D03*
D19*
X13000Y73500D03*
X13000Y90500D03*
X32000Y73500D03*
X32000Y90500D03*
X417000Y60000D03*
X417000Y43000D03*
D11*
X12500Y337500D03*
X29500Y337500D03*
D22*
X50500Y355000D03*
X50500Y371000D03*
X9500Y371000D03*
X9500Y355000D03*
D19*
X73000Y354500D03*
X73000Y371500D03*
X100000Y371500D03*
X100000Y354500D03*
D23*
X53000Y308000D03*
X43500Y284000D03*
X62500Y284000D03*
D11*
X217500Y163000D03*
X234500Y163000D03*
D19*
X373000Y60000D03*
X373000Y43000D03*
X395000Y43000D03*
X395000Y60000D03*
X347000Y60000D03*
X347000Y43000D03*
X298000Y60000D03*
X298000Y43000D03*
X322000Y43000D03*
X322000Y60000D03*
X417000Y134500D03*
X417000Y117500D03*
X361000Y99500D03*
X361000Y82500D03*
X395000Y117500D03*
X395000Y134500D03*
D11*
X269500Y113000D03*
X286500Y113000D03*
D19*
X274000Y79500D03*
X274000Y96500D03*
D11*
X269500Y134000D03*
X286500Y134000D03*
D19*
X370000Y117500D03*
X370000Y134500D03*
X322000Y117500D03*
X322000Y134500D03*
X346000Y134500D03*
X346000Y117500D03*
X374000Y251500D03*
X374000Y268500D03*
D24*
X77000Y231000D03*
X77000Y251000D03*
D25*
X19500Y207500D03*
X19500Y274500D03*
M02*
